<svg xmlns="http://www.w3.org/2000/svg" id="Ebene_1" viewBox="0 0 370 400"><style id="style3398">.st0{fill:#f07873}.st1{font-family:&apos;Freeland&apos;}.st2{font-size:75px}</style><g id="g3400"><path class="st0" d="M149.9 187c0-.1-.1-.1-.2-.1 0-.1.1-.1.2-.1s.1 0 .1-.1c.1 0 .1.1.1.1 0 .1 0 .1.1.2-.2.1-.3.1-.3 0" id="path3402"/><path class="st0" d="M280.5 138.9l-1.9 1.2 1 1.7 1.9-1.2-1-1.7zm3.4-20.7l-13.7 10 4.8 6.5 1.2-.9-3.7-5 5.3-3.9 2.6 3.5 1.2-.9-2.6-3.5 4.7-3.4 3.5 4.8 1.2-.9-4.5-6.3zm-24.2-.9l1.3 1.3 5.6-5.6 1.8 1.6-3.8 7.6 1.4 1.4 3.9-8c1.8.9 3.5.3 4.9-1 2-2 1.8-4.5-.2-6.4l-2.9-2.9-12 12zm12.2-9.6l1.1 1.1c1.9 1.9 1.7 3.2.4 4.5-1.3 1.3-2.7 1.5-4.5-.4l-1.1-1.1 4.1-4.1zm-13.8-13.4l-7.7 9.8c-1.7 2.1-1.9 4.5.5 6.4s4.6 1.1 6.3-1l7.7-9.8-1.4-1.1-7.7 9.8c-1.1 1.3-2.4 2.2-3.9 1-1.6-1.2-1-2.7 0-4.1l7.7-9.8-1.5-1.2zm-13.8-8.5l-.8 1.3 3 1.8-8 13.2 1.6.9 8-13.2 3 1.8.8-1.3-7.6-4.5zm-15.1-6.6l-6.6 15.6 1.7.7 5.8-13.6-.9 15.6 1.8.8 6.6-15.6-1.7-.7-4.9 11.5.9-13.2-2.7-1.1zM214 74.6l-4.7 16.3 7.7 2.2.4-1.5-6-1.7 1.8-6.3 4.2 1.2.4-1.5-4.2-1.2 1.6-5.5 5.7 1.7.4-1.5-7.3-2.2zm-17.1-3l1.2 17.4 1.7.3 6.7-16.1-1.8-.3-5.1 12.8-.8-13.7-1.9-.4zM180.1 88l3.1.1c3.6.1 5.8-1.9 5.9-8.4.1-6.5-2-8.5-5.6-8.6l-3.1-.1-.3 17zm2.1-15.3h1c2.7 0 4.2 1.2 4.1 7-.1 5.8-1.7 6.9-4.4 6.9h-1l.3-13.9zm-15.5-.4l-1.9 17.3 1.8-.2.5-5.1 4.3-.5 1.5 4.9 1.8-.2-5.4-16.5-2.6.3zm1.4 1.1l2.9 8.9-3.8.4.9-9.3zM142.6 96l1.7-.6-2.6-7.5 2.3-.9 5.2 6.7 1.8-.6-5.4-7c1.6-1.2 1.8-3 1.2-4.8-.9-2.6-3.2-3.5-5.8-2.6l-3.9 1.3 5.5 16zm-3.2-15.2l1.5-.5c2.5-.9 3.6-.1 4.2 1.7s.2 3.1-2.3 3.9l-1.5.5-1.9-5.6zM133.2 91c-2.8-5.7-5.6-7-8.1-5.7-2.6 1.3-3.2 4.3-.5 9.9 2.8 5.7 5.6 7 8.1 5.7 2.6-1.2 3.3-4.2.5-9.9m-1.6.8c2.5 5.2 2 7 .5 7.7s-3.3 0-5.8-5.1c-2.5-5.2-2-7-.5-7.7 1.4-.7 3.2-.1 5.8 5.1m-13.5 17.8l1.5-1-4.4-6.7 3.4-2.3-.9-1.3-3.4 2.3-3.2-4.8 4.6-3-.9-1.3-6.1 4 9.4 14.1zm-30.4 4.7l12 12 1.3-1.3-10.4-10.5 14.1 6.8 1.4-1.4-12-12-1.3 1.3 8.8 8.9-11.9-5.8-2 2zm3 24l1.1-1.5-6.4-4.8 1.4-2 8.1 2.6 1.2-1.5-8.4-2.7c.6-1.9-.2-3.5-1.7-4.7-2.2-1.7-4.7-1.1-6.3 1.1l-2.4 3.3 13.4 10.2zm-11.3-10.7l1-1.3c1.6-2.1 2.9-2.2 4.4-1 1.5 1.1 1.8 2.4.3 4.5l-1 1.3-4.7-3.5zm.8 11.9c-5.6-3-8.6-2.5-9.9 0-1.4 2.5-.2 5.4 5.4 8.4s8.6 2.5 9.9 0 .1-5.4-5.4-8.4m-.9 1.6c5.1 2.8 5.7 4.6 4.9 6-.8 1.4-2.7 1.9-7.7-.8-5.1-2.8-5.7-4.6-4.9-6 .8-1.5 2.6-1.9 7.7.8m-15.5 17.4l.7-1.7c.8-2 1.8-2.5 3.6-1.8 2.1.9 2.4 2.2 1.5 4.7l-.4 1-5.4-2.2zm6.8 2.6l.7-1.7c.9-2.2 2.4-2.7 4.4-1.9s2.5 2.3 1.7 4.3l-.7 1.7-6.1-2.4zm6.9 4.7l1.3-3.2c1.4-3.5.6-5.6-2.3-6.8-2-.8-3.8-.5-5.1 1.2.2-1.9-1-3.2-2.5-3.8-2.3-.9-4.4-.2-5.4 2.2l-1.7 4.2 15.7 6.2z" id="path3404"/><path class="st0" d="M280.5 138.9l-1.9 1.2 1 1.7 1.9-1.2-1-1.7zm3.4-20.7l-13.7 10 4.8 6.5 1.2-.9-3.7-5 5.3-3.9 2.6 3.5 1.2-.9-2.6-3.5 4.7-3.4 3.5 4.8 1.2-.9-4.5-6.3zm-24.2-.9l1.3 1.3 5.6-5.6 1.8 1.6-3.8 7.6 1.4 1.4 3.9-8c1.8.9 3.5.3 4.9-1 2-2 1.8-4.5-.2-6.4l-2.9-2.9-12 12zm12.2-9.6l1.1 1.1c1.9 1.9 1.7 3.2.4 4.5-1.3 1.3-2.7 1.5-4.5-.4l-1.1-1.1 4.1-4.1zm-13.8-13.4l-7.7 9.8c-1.7 2.1-1.9 4.5.5 6.4s4.6 1.1 6.3-1l7.7-9.8-1.4-1.1-7.7 9.8c-1.1 1.3-2.4 2.2-3.9 1-1.6-1.2-1-2.7 0-4.1l7.7-9.8-1.5-1.2zm-13.8-8.5l-.8 1.3 3 1.8-8 13.2 1.6.9 8-13.2 3 1.8.8-1.3-7.6-4.5zm-15.1-6.6l-6.6 15.6 1.7.7 5.8-13.6-.9 15.6 1.8.8 6.6-15.6-1.7-.7-4.9 11.5.9-13.2-2.7-1.1zM214 74.6l-4.7 16.3 7.7 2.2.4-1.5-6-1.7 1.8-6.3 4.2 1.2.4-1.5-4.2-1.2 1.6-5.5 5.7 1.7.4-1.5-7.3-2.2zm-17.1-3l1.2 17.4 1.7.3 6.7-16.1-1.8-.3-5.1 12.8-.8-13.7-1.9-.4zM180.1 88l3.1.1c3.6.1 5.8-1.9 5.9-8.4.1-6.5-2-8.5-5.6-8.6l-3.1-.1-.3 17zm2.1-15.3h1c2.7 0 4.2 1.2 4.1 7-.1 5.8-1.7 6.9-4.4 6.9h-1l.3-13.9zm-15.5-.4l-1.9 17.3 1.8-.2.5-5.1 4.3-.5 1.5 4.9 1.8-.2-5.4-16.5-2.6.3zm1.4 1.1l2.9 8.9-3.8.4.9-9.3zM142.6 96l1.7-.6-2.6-7.5 2.3-.9 5.2 6.7 1.8-.6-5.4-7c1.6-1.2 1.8-3 1.2-4.8-.9-2.6-3.2-3.5-5.8-2.6l-3.9 1.3 5.5 16zm-3.2-15.2l1.5-.5c2.5-.9 3.6-.1 4.2 1.7s.2 3.1-2.3 3.9l-1.5.5-1.9-5.6zM133.2 91c-2.8-5.7-5.6-7-8.1-5.7-2.6 1.3-3.2 4.3-.5 9.9 2.8 5.7 5.6 7 8.1 5.7 2.6-1.2 3.3-4.2.5-9.9zm-1.6.8c2.5 5.2 2 7 .5 7.7s-3.3 0-5.8-5.1c-2.5-5.2-2-7-.5-7.7 1.4-.7 3.2-.1 5.8 5.1zm-13.5 17.8l1.5-1-4.4-6.7 3.4-2.3-.9-1.3-3.4 2.3-3.2-4.8 4.6-3-.9-1.3-6.1 4 9.4 14.1zm-30.4 4.7l12 12 1.3-1.3-10.4-10.5 14.1 6.8 1.4-1.4-12-12-1.3 1.3 8.8 8.9-11.9-5.8-2 2zm3 24l1.1-1.5-6.4-4.8 1.4-2 8.1 2.6 1.2-1.5-8.4-2.7c.6-1.9-.2-3.5-1.7-4.7-2.2-1.7-4.7-1.1-6.3 1.1l-2.4 3.3 13.4 10.2zm-11.3-10.7l1-1.3c1.6-2.1 2.9-2.2 4.4-1 1.5 1.1 1.8 2.4.3 4.5l-1 1.3-4.7-3.5zm.8 11.9c-5.6-3-8.6-2.5-9.9 0-1.4 2.5-.2 5.4 5.4 8.4s8.6 2.5 9.9 0 .1-5.4-5.4-8.4zm-.9 1.6c5.1 2.8 5.7 4.6 4.9 6-.8 1.4-2.7 1.9-7.7-.8-5.1-2.8-5.7-4.6-4.9-6 .8-1.5 2.6-1.9 7.7.8zm-15.5 17.4l.7-1.7c.8-2 1.8-2.5 3.6-1.8 2.1.9 2.4 2.2 1.5 4.7l-.4 1-5.4-2.2zm6.8 2.6l.7-1.7c.9-2.2 2.4-2.7 4.4-1.9s2.5 2.3 1.7 4.3l-.7 1.7-6.1-2.4zm6.9 4.7l1.3-3.2c1.4-3.5.6-5.6-2.3-6.8-2-.8-3.8-.5-5.1 1.2.2-1.9-1-3.2-2.5-3.8-2.3-.9-4.4-.2-5.4 2.2l-1.7 4.2 15.7 6.2z" id="path3406"/><path class="st0" d="M308.9 222.4l2.2.4.3-1.9-2.2-.4-.3 1.9zm-1.7 17.1l.8-3.1c.9-3.5-.5-6-6.8-7.6s-8.7 0-9.6 3.5l-.8 3.1 16.4 4.1zm-14.5-5.6l.2-1c.7-2.6 2.1-3.8 7.8-2.4 5.6 1.4 6.3 3.2 5.7 5.8l-.2 1-13.5-3.4zm-6.7 13.3l15.8 6.2 2.7-6.8-1.5-.6-2 5.1-14.3-5.6-.7 1.7zm7.5 21.7l.9-1.6-7-3.8 1.1-2.1 8.4 1.5.9-1.7-8.7-1.5c.3-2-.7-3.5-2.3-4.4-2.5-1.3-4.8-.4-6.1 2l-2 3.6 14.8 8zm-12.6-9l.8-1.4c1.3-2.3 2.6-2.6 4.2-1.6 1.7.9 2.2 2.1.9 4.5l-.8 1.4-5.1-2.9zm.8 10.9c-5-3.8-8.1-3.7-9.8-1.4-1.7 2.3-1 5.3 4.1 9.1 5 3.8 8.1 3.7 9.8 1.4 1.7-2.3 1-5.3-4.1-9.1m-1.1 1.4c4.6 3.5 4.9 5.4 3.9 6.7-1 1.3-2.9 1.5-7.5-2s-4.9-5.4-3.9-6.7c1-1.2 2.9-1.4 7.5 2m-24.7 14.4l13.9 10.1 1.1-1.1-7.4-11.4 11.2 7.6 1.1-1.1-9.9-14-1.2 1.2 8 10.8-11.2-7.6-1.1 1.1 7.5 11.2-10.7-8-1.3 1.2zm-18.3 12l9 14.4 6.8-4.3-.8-1.3-5.2 3.3-3.5-5.5 3.7-2.3-.8-1.3-3.7 2.3-3.1-4.9 5-3.2-.8-1.3-6.6 4.1zm-13.9 6.3l6.9 15.5 1.7-.7-3.3-7.4 4.6-2 3.3 7.4 1.7-.7-6.9-15.5-1.7.7 3 6.7-4.6 2-3-6.7-1.7.7zm-13.6 4.3l.5 1.5 3.3-1 4.5 14.7 1.7-.5-4.5-14.7 3.3-1-.5-1.5-8.3 2.5zm-13.7 7.4c-.4-2.7-1.8-5.3-4.9-5.1-3 .2-4.7 2.7-4.2 9.1s2.6 8.5 5.5 8.3c1.4-.1 2.3-.7 3-1.7l.3 1.2 1.2-.1-.6-7.9-4.1.3.1 1.5 2.3-.2.2 2.4c.1 1.7-.7 2.7-2.4 2.9-2 .2-3.2-1.6-3.6-6.9-.4-5.3.4-7.2 2.5-7.4 1.8-.1 2.6 1.5 3 3.7l1.7-.1zm-24.9-5.1l-.8 16.9 1.8.1.7-14.7 4.6 15 2 .1.8-16.9-1.8-.1-.6 12.5-3.8-12.7-2.9-.2zm-8.3-1.5l-2.9 16.7 1.8.3 2.9-16.7-1.8-.3zm-19.9 12.4l1.8.5 2.1-7.6 2.3.6.5 8.5 1.9.5-.5-8.9c2-.1 3.2-1.4 3.7-3.3.8-2.7-.7-4.7-3.3-5.5l-3.9-1.1-4.6 16.3zm6-14.3l1.5.4c2.5.7 3.1 1.9 2.6 3.8-.5 1.8-1.6 2.6-4.1 1.9l-1.5-.4 1.5-5.7zm-10.5 3.5c2.5-5.8 1.6-8.8-1-9.9s-5.3.3-7.8 6.2c-2.5 5.8-1.6 8.8 1 9.9 2.6 1.1 5.3-.4 7.8-6.2m-1.7-.7c-2.2 5.3-4 6.1-5.5 5.4-1.5-.6-2.2-2.5.1-7.8 2.2-5.3 4-6.1 5.5-5.4 1.5.7 2.1 2.5-.1 7.8m-14.5-17.1l-8.5 14.7 6.3 3.7.8-1.3-4.8-2.8 7.7-13.3-1.5-1zm-10.9-6.3l1.5 1.2c1.5 1.1 1.7 2.5.4 4.2-1.3 1.7-2.7 1.8-4.2.7l-1.5-1.2 3.8-4.9zm-10.8 11.2l1.5 1.1 4.6-6.1 1.7 1.3c2.2 1.6 4.7 1.3 6.4-1 1.7-2.2 1.4-4.8-.8-6.4l-3.2-2.4-10.2 13.5zm-.5-23.9l-3 8.2-8.9 3.9 1.4 1.4 6.9-3.2-2.7 7.3 1.4 1.4 3.4-9.3 7.9-3.4-1.4-1.4-5.9 2.7 2.3-6.1-1.4-1.5zm-7.9-10.2L79.1 275l4.9 6.4 1.2-.9-3.8-4.9 5.2-4 2.7 3.5 1.2-.9-2.7-3.5 4.6-3.5 3.6 4.7 1.2-.9-4.7-6.4z" id="path3408"/><path class="st0" d="M308.9 222.4l2.2.4.3-1.9-2.2-.4-.3 1.9zm-1.7 17.1l.8-3.1c.9-3.5-.5-6-6.8-7.6s-8.7 0-9.6 3.5l-.8 3.1 16.4 4.1zm-14.5-5.6l.2-1c.7-2.6 2.1-3.8 7.8-2.4 5.6 1.4 6.3 3.2 5.7 5.8l-.2 1-13.5-3.4zm-6.7 13.3l15.8 6.2 2.7-6.8-1.5-.6-2 5.1-14.3-5.6-.7 1.7zm7.5 21.7l.9-1.6-7-3.8 1.1-2.1 8.4 1.5.9-1.7-8.7-1.5c.3-2-.7-3.5-2.3-4.4-2.5-1.3-4.8-.4-6.1 2l-2 3.6 14.8 8zm-12.6-9l.8-1.4c1.3-2.3 2.6-2.6 4.2-1.6 1.7.9 2.2 2.1.9 4.5l-.8 1.4-5.1-2.9zm.8 10.9c-5-3.8-8.1-3.7-9.8-1.4-1.7 2.3-1 5.3 4.1 9.1 5 3.8 8.1 3.7 9.8 1.4 1.7-2.3 1-5.3-4.1-9.1zm-1.1 1.4c4.6 3.5 4.9 5.4 3.9 6.7-1 1.3-2.9 1.5-7.5-2s-4.9-5.4-3.9-6.7c1-1.2 2.9-1.4 7.5 2zm-24.7 14.4l13.9 10.1 1.1-1.1-7.4-11.4 11.2 7.6 1.1-1.1-9.9-14-1.2 1.2 8 10.8-11.2-7.6-1.1 1.1 7.5 11.2-10.7-8-1.3 1.2zm-18.3 12l9 14.4 6.8-4.3-.8-1.3-5.2 3.3-3.5-5.5 3.7-2.3-.8-1.3-3.7 2.3-3.1-4.9 5-3.2-.8-1.3-6.6 4.1zm-13.9 6.3l6.9 15.5 1.7-.7-3.3-7.4 4.6-2 3.3 7.4 1.7-.7-6.9-15.5-1.7.7 3 6.7-4.6 2-3-6.7-1.7.7zm-13.6 4.3l.5 1.5 3.3-1 4.5 14.7 1.7-.5-4.5-14.7 3.3-1-.5-1.5-8.3 2.5zm-13.7 7.4c-.4-2.7-1.8-5.3-4.9-5.1-3 .2-4.7 2.7-4.2 9.1s2.6 8.5 5.5 8.3c1.4-.1 2.3-.7 3-1.7l.3 1.2 1.2-.1-.6-7.9-4.1.3.1 1.5 2.3-.2.2 2.4c.1 1.7-.7 2.7-2.4 2.9-2 .2-3.2-1.6-3.6-6.9-.4-5.3.4-7.2 2.5-7.4 1.8-.1 2.6 1.5 3 3.7l1.7-.1zm-24.9-5.1l-.8 16.9 1.8.1.7-14.7 4.6 15 2 .1.8-16.9-1.8-.1-.6 12.5-3.8-12.7-2.9-.2zm-8.3-1.5l-2.9 16.7 1.8.3 2.9-16.7-1.8-.3zm-19.9 12.4l1.8.5 2.1-7.6 2.3.6.5 8.5 1.9.5-.5-8.9c2-.1 3.2-1.4 3.7-3.3.8-2.7-.7-4.7-3.3-5.5l-3.9-1.1-4.6 16.3zm6-14.3l1.5.4c2.5.7 3.1 1.9 2.6 3.8-.5 1.8-1.6 2.6-4.1 1.9l-1.5-.4 1.5-5.7zm-10.5 3.5c2.5-5.8 1.6-8.8-1-9.9s-5.3.3-7.8 6.2c-2.5 5.8-1.6 8.8 1 9.9 2.6 1.1 5.3-.4 7.8-6.2zm-1.7-.7c-2.2 5.3-4 6.1-5.5 5.4-1.5-.6-2.2-2.5.1-7.8 2.2-5.3 4-6.1 5.5-5.4 1.5.7 2.1 2.5-.1 7.8zm-14.5-17.1l-8.5 14.7 6.3 3.7.8-1.3-4.8-2.8 7.7-13.3-1.5-1zm-10.9-6.3l1.5 1.2c1.5 1.1 1.7 2.5.4 4.2-1.3 1.7-2.7 1.8-4.2.7l-1.5-1.2 3.8-4.9zm-10.8 11.2l1.5 1.1 4.6-6.1 1.7 1.3c2.2 1.6 4.7 1.3 6.4-1 1.7-2.2 1.4-4.8-.8-6.4l-3.2-2.4-10.2 13.5zm-.5-23.9l-3 8.2-8.9 3.9 1.4 1.4 6.9-3.2-2.7 7.3 1.4 1.4 3.4-9.3 7.9-3.4-1.4-1.4-5.9 2.7 2.3-6.1-1.4-1.5zm-7.9-10.2L79.1 275l4.9 6.4 1.2-.9-3.8-4.9 5.2-4 2.7 3.5 1.2-.9-2.7-3.5 4.6-3.5 3.6 4.7 1.2-.9-4.7-6.4z" id="path3410"/><g transform="rotate(-10.359 1364.614 -104.331)" id="text3412" font-size="75px" font-family="Freeland" fill="#f07873"><path d="M32.325-28.05q-.225.225-.15.525.15.225.15.45-.225.6-.9.9-.6.225-.9 1.05-1.425.225-2.85.525-1.35.3-2.85.675-.975.15-1.2.3-.15.15-.525 1.2-.15.375-.45.825-.225.375-.225.75-.15.225-.075.45.075.15.075.225-.15 0-.225.15-.075.15-.075.225v.3q.075.075.075.225-.075.3-.3.375-.15.075 0 .45.3 0 .375-.15l.15-.3q.075-.225.15-.375.15-.15.525-.15-.15.375-.3.525-.075.075.075.45 1.35-.375 2.7-.3 1.35.075 2.625.45.75 0 1.425.075.675 0 .9.225.075.075.3.525.225.375.075.525 0 .375-.525.525-.45.15-1.05.525-.825.225-1.875.45-1.05.15-1.875.225-.375.375-.75.375H23.55q-.3.375-.675.375H22.2q-.375 0-.825.225-.375.225-.525.3-.45.375-.3.75.225.3.075.675-.3.225-.45.45-.15.15-.375.525v.675q-.075.75-.375 1.425-.225.6-.45 1.35-.3-.975.225-1.875.6-.975.525-1.8-.225-.375-.075-.825.15-.45.15-.75-.375.6-.525 1.575-.15.9-.525 1.875 0 .3-.15.45l-.225.45q0 1.05-.075 1.425-.15.75-.525 1.275-.3.45-.3 1.275-.075.45-.075.9.075.375 0 .975-.15.075-.225.3-.075.15-.225.225 0 .225-.15.3-.075.075-.225.45-.15.45-.15.825 0 .3-.375.45-.3.075-.525.075-.225 0-.375.075-.15 0-.3-.15-.3-.15-.675-1.275Q13.8-3 13.65-3.6q-.15-.825 0-1.95.225-1.125.375-2.4v-1.125l.45-1.8q.3-.9.3-1.725-.225-.225-.525-.075-.3.075-.45.15-.3-.375-.825-.15-.525.225-.75.675-.375.15-.375-.15.075-.375-.3-.375-.45.225-.9.525-.45.3-.825.45-.375 0-.9-.075t-.825.075q-.225.15-.3.9-.075.75-.225 1.125-.075.15-.225.375-.075.225-.075.6-.375.45-.45.825-.075.3-.45.675 0-1.125-.075-2.175 0-1.125-.15-2.325-.375-.15-.45.075-.075.15-.45.15-.3-.225-.45-.225-1.5-.15-3.225-.15t-3.075-.525q-.6-.225-1.5-.6-.975-.375-1.2-.975-.45-.45-.45-.75 1.725.075 3.075-.3 1.35-.45 3.225-.75.675-.225 1.2-.375.525-.15 1.275-.15.525-.15 1.35-.15.9-.075.975-.225.3-.15.225-.6-.075-.45-.075-.75.15-.45.3-1.275.15-.9.15-1.725-.525-.375-1.05-.3-.45 0-1.05-.15-.375-.15-.975-.3t-1.125-.525h-.525q-.15-.225-.15-.3.075-.075-.075-.075-.375 0-.6.075H.975Q.45-22.5 0-22.8q-.525-.3-.9-.6-.45-.225-.525-.3-.075-.075-.075-.15-.45-.075-.675 0-.3 0-.675-.375v-.45q-.15-.075-.45-.15-.375-.075-.6-.375l-.45-.6q-.225-.3-.6-.45-.3-.3-.6-.75-.375-.525-.6-1.05 1.725.225 3.225.075Q-1.5-28.125 0-28.35q2.175-.375 4.275-.825 2.175-.525 4.575-.9 0-.525-.15-.75-.15-.3.15-.75 0-.15.225-.3.3-.225.45-.525.225 0 .225-.225.075-.225.075-.375t.15-.525q.225-.375.225-.75 0-.225-.15-.375-.075-.15.15-.375 0-.525.225-.9.3-.45.525-1.05V-38.1q0-.6.15-.975t.525-.525q.375-.15.375-.525 1.275-.225 2.175 0 .975.225 2.1.6-.15.375-.075.6.075.225.075.375 0 .3-.225.525-.15.15-.15.3l-.3 1.2q-.075.525-.45 1.05-.375.6-.375.9-.225.375-.3.75 0 .3-.15.675-.375.375-.675.975-.3.6-.225 1.2 1.05.15 2.4 0Q17.25-31.2 18.3-31.2h.45q.3-.075.525-.225.375 0 .3-.3-.075-.375.15-.675.075-1.8 1.275-4.125.45-1.275.825-2.325.375-1.05.6-2.025 0-.375-.15-.675-.075-.3-.075-.75.525.225.975.15.525-.075 1.05.225 0 .075.075.15.225.225.375.3.825.3 1.575.825.75.45.375 1.875v.45q0 .225-.075.6-.225.3-.375.525-.075.225-.225.45 0 .15.075.3.15.075.15.3l-.15.15q-.075.075-.075.3-.15.825-.225 1.425 0 .6-.15 1.125-.225.15-.45.525-.15.375-.3.825.6.3 1.2.3.675-.075 1.125-.075.375.15.75.15h.6l.75.375q.525.15.975.3.675.15.975.3.3.15.45.75l.3.15q.15 0 .15.225-.225.15-.6.225-.3 0-.3.375.225.3.525.45.375.075.6.225zM16.35-21.075q.15-.45.375-.975.225-.525.225-.975-.525.15-1.05.225-.45 0-1.05.3-.3 0-.825.375-.3 0-.6.15-.225.15-.675.3-.525 0-.75.225-.45.15-.825.225-.375 0-.825.375-.375.825-.45 1.65-.075.75-.075 1.725.975 0 1.95-.15.975-.225 1.875-.225h.975q.45 0 1.05-.075.3-.075.6-1.05.3-.975.3-1.275 0-.225-.15-.45-.075-.225-.075-.375zm3.75 8.55q0-.075.15-.225.225-.15-.15-.225 0 .075-.15.3-.15.15.15.15z" id="path3421"/><path d="M74.067-40.8q0 .15-.075 0t.075-.225v.225zm-3.075 5.4q.15.15-.075.225-.15 0-.15.075-.15-.075 0-.075.15-.075.225-.225zM41.067-10.725q-.075.225-.075.975-.225-.45.075-.975zM40.992-9.6q0 .075.075.15-.075.15-.15.075t.075-.225zm34.275 7.2q.075.15-.075.3t-.225.15q-.15-.15 0-.225.225-.15.3-.225zm-.375.525q-.15.15-.225.3 0 .075-.225-.075.075 0 .15-.075.075-.15.3-.15zm-.6.375q.15.075 0 .15-.075.075-.3-.075.075-.075.15 0 .15 0 .15-.075zM40.317-7.125q.15.075.075.3 0 .15-.075.225-.15 0 0-.525zM70.767 1.2q0 .15-.225.3-.15.15-.225.15 0-.3.45-.45zm-4.95 2.925q-.15.075-.3.225-.15.15-.375.15l.3-.3q.15-.15.375-.075zm-5.925 2.1q-.15-.075-.15 0t-.15 0q.075-.075.3 0zm-3.6.15q.15.15 0 .3-.15.225-.225.15 0-.3.075-.375.15 0 .15-.075zm.975.525q-.075.15 0 .075.15 0 .15.15 0 .075-.375.225-.225 0-.375.075-.075.15-.225.15-.3.15-.675.15-.3 0-.3.3 0-.675.6-.675.675.075 1.2-.45zm1.125.45q-.15.3-.9.45.15-.375.375-.45.3-.075.525 0zm14.4-52.95q.225.075.15.45-.075.3.075.6.15 0 .075-.225 0-.3.15-.225.15.3.375.525.3.225 0 .75.15-.3.15-.225.075.075.075.3 0 .225-.075.45 0 .225.075.3-.15.15 0 .3t.15.3q0 .375-.075.675v.525q-.075.15-.15.375 0 .15-.15.3 0 .15-.15.3t0 .15q-.15.225-.375.375l-.45.3q-.075.15-.075.375.075.15-.075.3-.15.225-.3.3-.15 0-.15.225.375-.075.45-.3.075-.225.3-.45 0 .6-.45 1.35-.225.15-.45.6-.225.375-.45.6l-.45.675q-.15 0-.075.075t-.075.075q-.15.225-.3.3-.15 0-.15.225-.075-.15-.525.3-.375.45-.45.75-.375 0-.45.075l-.225.225q-.375.15-.6.45-.15.225-.45.45-.6.375-1.05.975-.45.525-1.125.975 1.725.375 3.525.6 1.8.15 3.6.6.75.15 1.65.45.9.3 1.5.825h.15q.15.075.075.075h.375q.15.3.15.375.525.225.975.375.45.075.825.45.15.225.45.375.3.075.45.45.375-.075.525.3.225.375.6.525.225.15.525.375.375.15.6.3.15.075.225.375.075.3.45.45.15.225.375.675.225.375.375.75.15.225.15.525.075.225.225.375.15.225.225.45.075.15.225.525.375 1.125.6 2.475.225 1.35 0 2.625-.075.45-.15.825-.075.375-.3.675 0 .375-.225 1.125l-.375 1.125q-.15.375-.225.75-.075.3-.225.525-.375.15-.375.225-.075.15-.075.225 0 .075-.15.225-.075.225-.375.45t-.225.375q-.15.075-.3.075t-.3.15q0 .525-.3.675-.225.075-.525.375-.375.375-.6.675-.15.225-.375.525-.3.15-.6.375-.225.225-.45.375-.15.3-.3.45-.15.075-.3.3-.375.075-.75.75-.15.15-.225.15-.075-.075-.225 0-.15.15-.225.45-.075.225-.45.375l-.3.15q-.075 0-.225.225-.375-.3-.825.225-.45.525-.9.9-.15.15-.375.225-.225.075-.45.225-.825.975-1.725 1.65-.9.675-1.95 1.275-2.1 1.5-4.95 2.7-.975.45-1.95 1.05-.975.6-2.1.825.3-.375.75-.45.45-.075.75-.45.375.075.525-.225.15-.3.6-.225.375-.6.825-.75.525-.15.975-.6-.6.15-1.05.375-.45.225-.975.525-.15 0-.6.225-.375.3-.525.225-.15.075-.3 0-.075 0-.15.075-.375.15-.525.3l-.3.3q-.375.15-.825.15-.375.075-.525.225l-1.05.3q-.45.225-1.05.225-.3-.075-.075-.15.3 0 .15-.15-.45.075-.9.375-.375.375-.75.525-.375-.225-.675-.15l-.375.225q-.15.075-.3-.075-.15-.075-.225.15-.15 0-.075-.075t.075-.225q-.3.15-.525.15-.15.075-.3.225l-.15.15q-.075.15-.15.225-.15.075-.375 0-.225 0-.375.075-.375.15-.825.45-.375.375-.975.45-.15 0-.375-.075h-.375q-.375.075-.75.225-.375.15-.75.15-.15.075-.3 0-.075 0-.225.075-.375.075-.675.3-.225.225-.6.075-.15-.375 0-.375.15.075.375 0 .15-.075.525-.15h.75q.375-.15.675-.225.375-.075.75-.225.15 0 .225-.15.075-.075.3-.075.3-.075.375 0 .15.075.375 0 .15-.075.3-.225.15-.15.225-.15.15-.075.6-.225.15 0 .375-.225.3-.15.525-.225.3-.075.3-.675h-.675q-.3.075-.675.3-.75.3-1.2.3-.15.075-.3 0-.15 0-.3.075-.675.15-.975.45-.225.15-.525.15-.3 0-.525.075-.45 0-.75.15-.225.15-.375.15-.075 0-.225-.075h-.225q-.225 0-.45.225-.15.15-.3 0-.075-.075-.15 0-.15.075-.3.225l-.075.075q-.075 0-.075-.075t-.075-.075q-.15-.15-.225 0-.075.15-.225.225h-.525q-.225 0-.3.3-.15 0-.15-.15.075-.15-.15-.225-.3-.15-.6.075-.3.225-.45-.15-.15.3-.375.3-.15 0-.3.225 0 .3.3.3.375 0 .525-.225.45.075.375.3.375-.075.75 0 .15-.075.075.075t0 .15q.6-.15 1.05-.375.525-.15 1.2-.075-.075.375-.3.375-.225 0-.525.075-.225.15-.3.15-.075.075-.225.15h-.3q-.15 0-.225-.075-.15.15-.3.15t-.375.075q.075-.15 0-.225v-.3q-.3-.15-.375.075-.075.225-.3.375-.525.075-1.125-.15-.6-.15-.975-.375-.15.075-.6 0-.45 0-.6-.45-.15 0-.3.075-.075.075-.375 0V9l-.075-.075q-.15 0-.375-.15-.15-.075-.525-.225-.15 0-.15-.15-.075-.15-.3-.15-.15.075-.15-.075-.075 0-.225-.225-.075-.225-.225-.3l-.15-.3q-.15-.075 0-.225-.375 0-.45-.15-.075-.075-.375-.15-.075-.3.075-.6t-.15-.45q.225-.3.6-.675.375-.3.15-.675.6-.375.9-1.2.3-.825.75-1.425.15.6-.15 1.275-.225.75.15 1.275.15-.15.15-.225 0-.075.075-.15.075.3.15.45.15.15.3.45.225 0 .3.15.15.15.225.3.075.225.15.3.15.15.375.075.075 0 .15-.075.075 0 .075-.075h.075q.3.3.225.3.45 0 .75-.075t.75 0q-.225.075-.525.15-.225.075-.225.45.075.375.45.225.45-.075.6-.45.15 0 .075.225t.15.075q.15.15.15-.075 0-.15.075-.225.825-.15 1.5-.45.675-.225 1.5-.225.225-.075.15.075v.225q.375 0 .675-.075.3 0 .6-.225 0-.075-.075-.075l.075-.15q.9-.225 1.65-.525.75-.225 1.5-.6.15 0 .15.15.075.15.225.15l.9-.3q.45-.15.9-.225l.225-.225q.075 0-.075-.15.15 0 .225.075.075.075.225 0 .15-.15.075-.3t.15-.225q.375 0 .75-.225.45-.15.6-.45.3.15.75-.075.525-.15.675-.375.3-.075.375-.45.15-.375.525-.525.225-.15.3-.15.15.075.3 0 .45-.15.675-.525.225-.3.525-.45.15 0 .3-.075.225-.15.3-.225.15 0 .45-.15.525-.225.825-.525.375-.3.675-.375.075-.15.3-.075.225.075 0-.225.225.15.3.225.15 0 .3.15.15 0 .15-.15t.15-.225q.225-.15.45-.375.3-.3.6-.45.075-.3.3-.375.3-.075.375-.3.375.075.6-.075.3-.225.75-.525l.675-.225.45-.3q.225-.225.525-.375.375-.15.525-.3.225-.225.525-.375.525-.15.525-.225.75-.15.825-.75-.075-.15-.3 0-.225.15-.375-.15.975-.525 2.25-1.5.225-.225.45-.375.3-.225.6-.375.375-.225.75-.375.375-.225.6-.825.15 0 .15-.075.075-.15.225-.075-.075-.375.15-.525.3-.15.45-.45 0-.15.225-.375 0 .075.15-.075.225-.15.525-.45.3-.3.45-.675v-.15-.075q.075 0 .075-.075.3-.15.375-.3.3-.675.6-1.575.3-.9.525-1.65.15-.6.3-1.275.15-.75.225-1.35-.075-.15-.075-.75.075-2.025-1.65-3.15-1.725-1.2-3.975-1.65-.75-.15-1.425-.225-.675-.075-1.425-.15-.6-.15-.75-.15-.3-.075-.45 0-.15.075-.375-.075-.375.075-.75-.15-.375.225-.6.15h-1.125q-.6.075-1.275.15-.6 0-1.35-.075-.6.075-1.2.225-.6.075-.975.225-.15 0-.45-.075-.3-.15-.45 0-.3 0-.6.075-.225 0-.75.075l-.15.15h-.15q0-.075-.15-.075-.375.15-.9.45-.525.3-.9.45 0 .075.15 0 .225-.075.3-.075 0 .225-.3.3-.3.075-.375 0-.225-.15-.15.075.075.15-.15.15h-.3q-.15 0-.225.225 0 .15-.075.15-.6.225-.975.525-.375.3-.975.45-.9.375-2.1.975-1.125.525-2.175.9-.3.15-.525.225-.225 0-.375.075-.375.075-.525.225-.075.15-.3.225-.6.225-1.35.375-.675.075-1.35.225-.225 1.125-.75 1.8l-.225.45q0 .075-.075.45 0 .375-.225.75-.15.375-.15.75l-.225-.15q0-.15.075-.225.075-.075.075-.375-.225.225-.375.45-.075.15-.45.15.375.225.3.45-.075.225-.225.6-.075.6-.15 1.125 0 .525-.15.975-.075.375-.075.675.075.3-.075.6 0 .3-.225.525-.15.225-.3.375-.075.15 0 .375t.075.375q0 .375.075.75.15.3-.225.525-.3-.15-.15-.45.15-.375-.225-.45-.15.075-.075.375.075.225.075.525.075 0 .075.075t-.075.075q.375.15.375.075-.15.15-.075.375.075.15.075.3 0 .75.15 1.425.15.6.525.975.15 0 .225-.15l.225-.225q.075.15.225.225l.3.15v.825q0 .45-.525.675h-.6q-.3 0-.225.45-.375-.15-.6-.075-.225.075-.375-.075-.6-.15-1.05-.675-.45-.525-.75-1.125-.3-.675-.525-1.35-.225-.75-.375-1.2-.075-.225-.3-.525-.15-.3.075-.675v-.15q.075 0 .075-.075 0-.3-.15-.675-.15-.375-.15-.75 0-.825-.075-1.2 0-.6-.075-1.275V-13.5q0-2.025.225-3.75.15-.3.15-.45v-.375q-.15-.375-.45-.6-.3-.225-.6-.6-.075-.15-.075-.3 0-.225-.15-.525l-.6-.6q-.15-.075.225-.825.15-.15.3-.375t.225-.225q.3-.225.75-.375.525-.15.6-.525.075-.075.225 0 .225.075.45 0 .9-4.275 2.325-7.8 1.425-3.525 2.775-6.9.825-1.8 1.65-3.45.9-1.725 1.8-3.225-.525-.15-.825.075-.3.225-.675.3-.75.225-1.575.45-.825.15-1.65.375l-.225.225q-.075.075-.375-.075-.225.15-.45.15-.15 0-.3.075-.525.3-1.125.6-.6.225-1.125.225-.15-.15-.525-.15-.3-.075-.45-.15-1.275-.3-2.1-.9-.825-.6-1.575-1.35.15-.075.45-.15.3-.075.525-.3.15-.075.375-.075.15-.075.225-.225.45-.15.675-.45.225-.3.6-.525.6-.15.975-.45.375-.3 1.05-.45.45-.375.975-.525.525-.15 1.125-.45 1.5-.6 2.85-1.05 1.425-.45 3.15-.825.225-.075.6-.15.375-.15.6-.225.675-.075 1.35-.075.675-.075 1.275-.375.75-.3.975-.375.3 0 .45.075h.375q.6.15 1.275 0 .75-.225 1.35-.225 1.05-.15 2.325-.225 1.35-.075 2.625.15.075 0 .15-.075t.225-.075l.075.225.15-.15q.15-.15-.075-.15.225.075.225.225 0 .075.15.15.225.075.525 0 .3-.15.525-.075.825.075 1.65.225.825.15 1.5.3 1.2.375 2.4.9 1.275.525 2.025.9.375 0 .675.3.075 0 .075.075t.075.075q.3.225.525.3.3.075.45.3.075.15.15.225.075 0 .075.075t.15.075h.075q.15.15.15.225.075.075.225.15.075.075.15.075.15-.075.15 0v.15q0 .225.075.225.3.225.375.225.15-.075.15.375.075.225.075.15.075-.15.3 0-.3.075-.15.15.225.075.15 0 .15.075.15.15t.225.45q0-.15-.15-.3zM49.767-28.2q1.65-.6 3.375-.975 1.725-.45 3.45-.6.45-.15.75-.225.375-.075.525-.15.3-.15.6-.375l.675-.675q.675-.525 1.35-.9.75-.375 1.5-.825.225-.225.45-.375t.45-.525q.825-.6 1.65-1.275.825-.675 1.5-1.425 1.125-1.05 2.025-2.25.975-1.275 1.425-2.625.375-1.425 0-2.325-.375-.975-1.2-1.65-.225-.15-.45-.225-.15-.075-.3-.225l-.3-.15q-.15 0-.75-.075-.6-.15-.75-.225-.3-.075-.3 0l-.3-.075q-.075.075-.3.075l-.45-.15h-3.3q-.225 0-.525.075-.225.075-.525.075 0-.075-.075 0-.075 0-.15.075h-.075q-.15 0-.3-.075t-.225 0q-.3.075-.525.15-.15.075-.375.15h-.375q-.15-.075-.225.075-.825.225-1.95.3-1.05.075-2.1.225-.525.075-1.2.15-.6.075-.675.15-.15.15-.225.525l-.15.75q-.375 2.175-.975 4.2-.525 2.025-.9 4.35l-.3 1.2q-.15.6-.375 1.275-.375.75-.6 1.5-.15.75-.45 1.275-.3.6-.525 1.2-.15.6-.15 1.275.6-.15 1.275-.3.75-.225 1.35-.375zm23.175-11.4q.075.075.15-.225t-.075-.225q-.15.15-.15.3.075.075.075.15zm3.15 11.775q-.9-.525-1.875-.825-.9-.3-2.025-.525.975.375 1.95.825.975.375 1.95.525zm1.125.525q-.3-.15-.525-.3-.225-.225-.375-.3.225.225.375.45.225.15.525.15zm-24 3.45q-.45.3-.825.3-.075 0-.075.225-.15.225-.45.3-.225 0-.075.225.6-.375 1.125-.675.525-.3 1.125-.525-.45-.15-.6 0-.075.075-.225.15zm-2.25 1.275q.375.075.675-.225-.15 0-.375.075l-.3.15zM48.342-21.3q.375-.15.75-.225.45-.15.6-.225.375-.15.45-.225.15-.075.375-.15.15-.075.3-.075.225 0 .075-.375-.675.375-1.275.6-.525.225-1.275.675zm-8.1 9.6q-.075-.075.15-.075 0-.225.075-.375.075-.225.075-.45.075-.075.3-.45.225-.375-.15-.45-.075.675-.3 1.05-.15.3-.15.75zm28.35 12.9q.375-.15.6-.45.225-.225.45-.375-.375.15-.6.225-.225.15-.45.6zm-.6 0q-.15.225-.525.45-.3.225-.375.45.15-.15.45-.3.3-.075.45.075 0-.375.225-.375.225.075.3-.3h-.525zm-1.35-.3q-.6.375-1.275.825-.6.45-1.275.825-.375.15-.675.225-.225.15-.375.3-.225.075-.375.3-.075.225-.45-.075-.15.3-.45.375-.225.15-.3.375.525.075.825-.15.375-.225.6-.6.45.15.6-.075.15-.225.525-.525.3-.15.45-.15.225.075.375 0 .075-.15.075-.225 0-.075.075-.15.15-.075.375-.15.225 0 .375-.15 0-.225.075-.375.15-.075.15 0 .075.15.225 0 .375-.15.675-.6h-.225zm-2.175 2.625q.45 0 .675-.3.225-.075.45-.375.3-.225.45-.225.3-.075.6-.075.3.075.3-.375-.825.075-1.425.45-.525.375-1.05.9zm1.5-.525q.15 0 .225-.075.075-.075.225-.15-.45-.15-.45.225zm-.525.3l.15-.15h-.075l-.075.075h-.075q0 .075.075.075zm-4.95 1.125q.3.15.375-.225-.15-.15-.375.225zm-1.875.375q-.15-.15-.225-.15-.15 0-.225.15 0 .15-.075.3.45-.075.825-.45.45-.3.975-.675-.525.15-.75.45-.15.375-.45.45l-.075-.075zm1.575-.15q0-.075.15-.15.225 0 .075-.075-.075.075-.225.075-.15.075 0 .15zm-1.875.9q-.075 0-.45.075-.3.15-.15.3.6-.3 1.125-.6.6-.3 1.2-.45V4.65q-.3.15-.825.45-.525.3-.9.45zm-2.025.3q.975-.15 1.575-.6-.375.075-.9.225-.525.15-.675.375zm-1.575 0q.375 0 .75-.45-.225.15-.525.15-.3.075-.225.3zm.45.3q.375 0 .525-.225-.45 0-.525.225zM54.192 6l.375-.15q-.525 0-.375.15zm.9.3v-.15.15zm-.6.3q.15 0 .3-.15t0-.225q-.075.075-.15.075-.075.075-.15.3zm-1.125 0q0-.15.15-.15.225 0 .075-.15-.15.15-.3.15-.075 0 .075.15zm-.975-.15q.45 0 .525-.15h-.3q-.15 0-.225.15zm1.875.3q0-.075.075-.075.15.075 0-.075 0-.15-.15-.075-.075.15.075.225zm-14.55-.15q0-.225-.075-.225.075.15-.15.075-.15-.075-.075.15h.3zm30.225-4.8q.225.075 0 .075-.15.075-.3.225-.15 0 0-.15.225-.075.3-.15zm-.825.375q.075 0 0 .15-.075.225-.225.225 0-.225.075-.225t.15-.15zm-13.875 4.95q-.525.45-1.575.825-.375 0-.6.15l-.375.375q-.225-.075-.6-.075-.375.075-.6.15-.225.15-.6.3-.225.075-.45.075-.15 0-.6.075-.225.15-.75.3-.45.225-1.05.075.3-.225.675-.3.375-.075.825-.15h.15q.6 0 1.2-.3.6-.225 1.2-.525.225-.075.6-.075.15-.075.15-.225l.15-.15h.375q.3-.075.375-.225.15-.15.3-.225h.9q.15 0 .15-.15t.15.075z" id="path3423"/><path d="M116.084-13.05q.6.15.825 1.05.225.9-.525 1.65-.15.375-.525.9-.3.45-.6.825-.15.15-.6.45-.375.225-.375.375-.225.075-.675.525-.375.45-.525.525-.15.075-.75.525-.525.375-.75.525-.825.375-1.05.75-.15.3-.9.825-.525.15-1.2.45-.675.225-1.05.6-.525.375-.975.375-.45 0-.825.6-.45-.075-.975.225-.525.225-1.2.375-.375.15-.9.225-.45.075-.9.075-1.65.75-3.45.75-.975.225-2.325 0-.225-.075-.45-.075-.15-.075-.375-.075-.675-.3-1.425-.3-.675-.075-1.275-.3-.075 0-.525-.15-.375-.225-.825-.375-.45-.225-.9-.375-.375-.225-.45-.225-.375-.15-.675-.525l-.6-.9q-.225-.525-.525-.9-.3-.45-.6-.675-.15-.075-.3 0-.225 0-.375-.075-.225-.15-.3-.45l-.225-.45q-.15-.675.15-1.2.3-.6.075-.975.15-.075.3-.075.15-.075.3-.3-.45-.375-.375-1.05 0-.75.3-1.5.225-.75.525-1.425.3-.675.45-1.05.075-.45.075-.75t.075-.525q.15-.225.375-.375.3-.225.45-.375.15-.6.525-1.125.375-.75 1.125-1.5.75-.825 1.575-1.725.3-.45.75-.75.45-.375.975-.9.6-.225.975-.45.375-.3.9-.675 1.125-.9 2.4-.825 1.275.075 2.325.3.375.075.45.375.15.3.375.375.15.15.225.075.15-.15.375-.15.45.15 1.05.45.6.3 1.125.675.6.375.975.75.45.375.525.675.075.15.225.3.15.15.225.3.3 1.05-.075 1.575-.3.45-.45.975-.6.675-1.125 1.05-.45.375-.825.9 0 .15-.45.45-.375.3-.45.525-.6.525-1.425.975-.75.375-1.425.975-.075.15-.375.375-.3.15-.675.375-.45.3-.975.6-.15.15-.45.225-.3.075-.45.225-.225.15-.6.6-.375.375-.975.6-.15.15-.375.15-.225-.075-.3.075-.375.15-.75.525t-.9.3q-.15.3-.3.9-.075.6 0 1.275.15.675.525 1.275.45.525 1.425.6.15 0 .75.15t.825.3q1.2.075 2.625-.15 1.5-.3 2.775-.525 2.85-.675 5.55-1.95 2.7-1.275 4.725-2.625.375-.3.45-.3l.45-.225q.3-.15.9-.525.6-.45 1.125-.9.6-.525 1.05-1.05.45-.6.45-1.05zm-21.525.75q1.275-.675 2.4-1.725t2.4-1.875q.45-.375.9-.825.525-.45.675-.825.15-.3.075-.6t-.075-.375q-.225-.075-.45-.075-.075 0-.075.075-1.8.975-3.375 2.7-1.575 1.65-2.85 3.375 0 .225.15.225.075 0 .225-.075z" id="path3425"/><path d="M129.54-30.675q.225 0 .225.375t-.075.75q-.15.525-.3.9t-.525.45q.3-.45.375-1.2.075-.75.3-1.275zM118.59-30q.15.15.075.225-.075.075-.075.15-.075-.075 0-.375zm-1.2 5.775q-.075.075-.15.225 0 .15.15.15-.15.375-.3 0-.075-.375.3-.375zm.225 1.725l.15.075h.075q.15.6 0 .375-.15-.225-.225.15-.3-.075-.15-.225.225-.15.15-.375zm-.075 2.4q.15.15.075.375-.075.15-.225.3-.225-.075 0-.225.225-.225.15-.45zm-.9 4.2q.45.15.15.3-.15 0-.15-.075.075-.15 0-.225zm0 1.425q.375 0 .375.45 0 .375-.375.45v-.45q.075-.075 0-.45zm-.3 12.6q.075-.3.075.075 0 .3-.075.3 0 .15-.075.075t.075-.45zm2.55-22.35q-.15.75-.375 1.275-.15.45 0 1.275.375-1.05.675-2.175.3-1.125.15-1.95 0-.15-.15-.15-.075-.075-.075-.15 0-.15.15-.15t.15-.15q.15-.675 0-1.5-.075-.825.375-1.725-.15-.15-.375.075-.15.225-.3.15.3-1.275.525-2.55.3-1.275.45-2.55-.525.9-.75 2.1-.225 1.125-.6 2.175-.375-.525-.075-.9.3-.45.375-.825.15-.6.075-1.2 0-.6.525-.975-.225-.975.15-2.1.45-1.2.525-2.325-.375.15-.375.525t-.15.675q.15-.975.45-1.95.3-.975.45-2.025.45-1.95 1.05-3.825l1.2-3.9q.375-1.35.9-2.4.6-1.05.525-2.55.3.3.45.15.225-.225.45-.225.075-.075.075.075.075.075.375.075.15 0 .075-.15 0-.15.3 0 .525.15 1.275.75.825.6 1.425.975.375.375 1.05.9.675.45.825 1.05 0 .3-.15.825l-.3 1.05q-.075 1.275-.15 2.175-.075.9-.15 1.875-.15 1.875-.225 3.825 0 1.875-.3 2.925-.075.225-.225.45-.15.15-.15.3-.15.525 0 1.05.225.45-.075.825.075.075.225.3.15.15.15 0 .15.075-.075.375-.15.225-.225.375.075.15.15.45.075.3.075.675 0 .15-.15.3t-.15.225v.3q.075.15.075.3.15 1.05-.375 2.1-.45 1.05-.45 2.1.075.15.225.15h.225q.15-.075.225 0 .15 0 .075.3.45-.45 1.125-.45.675-.075.825-.825-.15-.15-.375.075-.225.225-.525.075.225-.3.6-.375.45-.075.6.3.225-.075.375-.15l.45-.3q-.075-.3-.3-.075-.225.225-.525.075.3-.3.675-.375l.75-.15q.375-.075.675-.15.375-.15.6-.525-.075-.375-.225-.075-.075.225-.15.075.975-1.05 2.25-1.8l2.55-1.5q.375-.3.825-.6.525-.3.675-.6v-.3q.075-.15.3-.225.3-.075.45-.225.075-.15 0-.3 0-.15.15-.3t.675-.375q.6-.225.9-.525.225-.15.45-.45.225-.3.525-.525.3-.3.6-.375.3-.15.675-.3.15-.225.225-.45.075-.3.225-.45.225-.3.6-.375.45-.15.75-.45.15-.225.225-.525.075-.375.3-.6.3-.225.675-.3.375-.075.45-.45.525.075.9.3.375.225.75.375.225.075.375.075.225-.075.45 0 .525.3 1.35.825.825.525 1.5.825.15.15.525.375.45.225.825.525.45.225.75.525.375.225.375.45.15.375-.225.675-.3.225-.675.675-.375.6-.675.9-.225.3-.825.525l-.75.45q-.3.225-.675.45l-.75.45q-.3.15-.75.3-.3.3-.6.45-.3.15-.675.375l-.3.3q-.075.15-.15.225-.3.225-.6.375-.225.075-.45.225-.225.15-.375.375l-.375.375q-.75.6-1.425.825-.6.225-1.425.825-.525.45-.825.6-.225.15-.825.525-.825.375-1.65.9t-1.425.975q-.375.225-.675.375-.225.075-.45.375l-1.2.75-1.2.75-1.125 1.125q-.525.45-1.2.675-.375.3-.75.45-.375.075-.675.3-.3.225-.45.525-.075.3-.3.45h-.375q-.15-.075-.225 0-.6.3-.975.6-.3.225-.675.375 1.65 2.25 3.375 5.025 1.725 2.7 3.675 5.175.075.075.075.225 0 .15.075.225.15.15.3.15t.3.15q.225.375.375.825.225.375.6.675.975 1.35 2.175 2.775 1.275 1.35 2.325 2.7.375.6.525 1.05.225.45.75 1.125.45.6 1.125 1.35.75.75.675 1.2-.15.675-.825.675-.675.075-1.575-.225-.825-.3-1.65-.825-.75-.45-1.125-.75-.75-.375-1.05-.6-.3-.225-.975-.9-.3-.225-.525-.525-.15-.3-.3-.45l-.75-.75q-.3-.375-.675-.675-.3-.375-.675-.75l-.9-1.05q-.375-.525-1.05-.375-1.425-1.95-3.15-3.675-1.725-1.725-3.225-3.525-.225.6-.375 1.725-.15 1.05-.375 2.175-.225.675-.375 1.425-.075.75-.075 1.2-.3 0-.3.225-.075.225-.075.3.075 0-.375-.075-.225.75-.3 1.575 0 .75-.225 1.65 0 .45-.225.825-.225.375-.225.675 0 .15.075.3.15.225.15.375.075 1.95-.525 3.75Q123.24 7.05 123.24 9q-.675.075-.675.975-1.05.3-2.1.3-.975.075-1.575-.525-.15-.225-.45-.6-.225-.3-.375-.675-.15-.15-.375-.225-.15-.075-.3-.225-.375-.75-.75-1.95-.3-1.125-.45-2.025.375 0 .225.375-.075.45.3.45.15-.3-.15-.9-.225-.6-.075-1.2 0-.15.075-.3t.075-.3q0-.15-.15-.375-.15-.15-.15-.3 0-.075.15-.225.15-.075.15-.225-.3-.45-.15-1.05-.075-.375-.075-.675.075-.3-.075-.675.375 1.05.375 2.1.075 1.05.45 1.875.075-.3.075-.9 0-.6-.375-.825.525-.975.15-2.1-.3-1.125-.15-2.325 0-.15.075-.15.15-.075.15-.225.075-1.05.075-1.95v-1.875q0-1.35.15-3.075.225-1.8.075-3.45 0-.075-.075-.225-.075-.15-.075-.3 0-.075.075-.225.075-.15.075-.3.375-.975.3-2.4-.075-1.425.075-2.25 0-.15.15-.15h.15q0-.075-.15-.3-.075-.225.525-.225 0-.3-.225-.225-.225 0-.375-.225.15-.3.15-.525.075-.3.45-.375-.375-.375-.15-.675.225-.3.375-.675.075-.3-.075-.6-.075-.375.3-.3zm1.575-10.575l-.3 1.05q-.075.45-.075.975-.15.375-.225.825 0 .375.15.6.525-1.5.825-3.3.375-1.8.525-3.45-.3.825-.525 1.65-.225.825-.375 1.65zm-.15-.45q-.075-.15-.075-.225.075-.075 0-.15 0 .15-.15.075-.075-.075-.15.075.225 0 .15.15 0 .15.225.075zm-2.1 16.275v-.3q0-.3-.15-.075-.075.375 0 .45.075.075.15-.075zm-.225.9q.15-.075.075-.225 0-.15-.075 0-.15.15-.075.3.075.075.075-.075zm.975-10.35q.15.3 0 .525-.075.225-.225.6-.075.3 0 .75t-.45.6q.225-.6.375-1.2.15-.675.3-1.275z" id="path3427"/><path d="M189.359-12.075q0 .375-.225.825-.15.45-.45.975-.3.525-.675.975l-.45.675q-.45.825-1.575 2.1-1.125 1.275-2.175 2.025-.225.225-.45.6-.225.3-.45.45-.375.15-.675.45-.225.3-.525.45-.3.225-.45.375-.15.075-.45.375-.15.075-.375.075-.225-.075-.375.075-.075.15-.075.3 0 .075-.075.15-2.175 1.725-4.275 2.1-2.1.45-3.375.525-2.7 0-4.65-.375-1.875-.375-3.15-1.35-1.2-.975-1.875-2.625-.6-1.725-.675-4.275-.375-.375-.675 0-.225.375-.525.6-.3.45-.825 1.125-.525.675-1.2 1.35-.6.675-1.35 1.275-.675.525-1.35.6-.975.15-2.175-.225-1.275-.45-2.325-.825-1.05-.525-1.425-1.2-.45-.675-1.05-1.725.3-.375.225-1.05-.075-.75.45-.825.15-.45-.075-.6-.225-.15-.15-.6 1.125-1.875 2.1-3.675.975-1.875 2.4-3.225 1.05-.9 1.95-1.65.825-.6 1.5-1.05.75-.45.975-.375.675-.075 1.125-.525.525-.45 1.125-.825.525-.3 1.125-.525.675-.225 1.2-.6 1.125.075 1.8.675.675.525 1.725.825.6-.45.825-1.275.225-.825.825-1.35 2.175-.375 3.675.375 1.575.675 2.4 1.95.15 1.125-.15 2.25-.225 1.05-.675 2.175-.45 1.05-1.05 2.175-.6 1.05-1.05 2.175-.15.375-.375.9-.15.525-.3.975-.375 1.05-.75 2.4-.3 1.35-.3 2.85 0 .825.225 1.725.225.9.675 1.5.975.375 1.725.375.825 0 1.5-.225.75-.225 1.425-.6.75-.45 1.575-.9.675-.45 1.05-.675.375-.225.6-.45.3-.225.525-.45.3-.225.75-.6.15-.15.225-.375.075-.225.225-.375l.3-.15.3-.15q.6-.525 1.5-1.35.975-.825 1.95-1.725 1.05-.9 1.95-1.725.975-.825 1.575-1.35.525-.45.975-.525.45-.15.75.225v.375zm-25.2-4.575q.15 0 .075-.15 0-.15-.375-.15-2.4 1.575-4.125 3.825-1.65 2.25-3.225 4.65 1.725-.6 2.925-2.025 1.275-1.425 2.325-2.55l1.35-1.65q.75-.9 1.05-1.95z" id="path3429"/><path d="M223.646-6.675q-.225.15-.9.525-.6.375-1.35.75-.825.45-1.8.9-.375.15-.9.45l-1.05.45q-.45.225-.9.375t-.675.075q-.975.6-1.725.75-.675.15-2.1.6-.525.225-.75.3l-.3.15q-.075.075-.225.15-.075 0-.525.15l-1.275.45q-.225.075-.75.3-.525.15-.675.225-.15 0-.675.075-.525.15-.675.3-.675.375-.975.3-.225 0-.45-.075-.15-.075-.375-.075t-.825.3q-.675.45-1.425.675-.75.225-1.35.375-1.05.375-2.325.6-1.2.3-2.475.3-.675 0-1.35-.075-.6-.075-1.275-.375-.45-.375-.825-.825-.3-.45-1.125-.6-.225.15-.3.375-.075.3-.225.525-.525.6-1.125.825 0 .525-.15.825-.15.3-.3.525l-.3.6q-.075.3.075.75-.825.825-1.125 1.8-.225 1.05-.6 2.325-.375 1.05-.825 2.175-.45 1.125-.825 2.325-.075-.9.225-1.875.225-.9.6-1.8l.6-1.8q.225-.9.225-1.725.15-.3.3-.825.225-.45.375-.825-.225-.3-.375.15-.15.525-.3.675-.225.375-.3.675-.075.375-.15.6-.6 1.05-.9 1.95-.3.9-.675 2.175-.075.225-.075.525 0 .15-.075.3-.3.45-.45.9-.15.45-.375 1.05-.075.9-.375 1.425-.075.45-.075 1.05 0 .675-.075 1.2-.075.375-.225.675-.15.3-.3.675-.375 2.625-.375 4.95t-.15 4.425q.15 0 .15.15v.3q.15.075.15-.15.15-.3.225-.225.075.075 0 .3-.075.15-.075.375t-.225.15q.15.825.375 1.425.15.675.3 1.65.15.375.3.825.075.525.225 1.35-1.35.75-2.1.075-.825-.6-1.425-2.1-.75-1.725-.75-2.925-.45-1.275-.45-3.225l-.15-3.75q.15-5.325 1.05-10.2.825-4.875 2.1-9.45.825-4.5 2.175-8.625 1.35-4.125 2.775-8.4.9-2.325 1.425-4.35.6-2.1.975-4.275-.075-.075-.075-.15v-.075q-.075-1.125-.225-2.1-.075-1.05-.45-2.1 1.2-.225 2.175-.075 1.05.075 1.875.9-.075-.075.3.075t.825.375q.45.225.75.525.375.225.15.45.15-.3.3-.15.15.075.525.225-.15.375.075.6.225.225.3 1.05.15.225.375 0t.3.225q-.075.375.3.525.375.075.45.45.225.825.075 1.8-.15.9-.15 1.725.9-.3 2.1-.675 1.275-.45 2.625-.75 1.425-.375 2.925-.525 1.575-.15 3.075 0 .9.3 1.725.525.825.15 1.425.75.375.15.45.375.15.15.3.15l1.65.975q.075.075.075.225 0 .15.075.3.225.075.45.6.3.525.45 1.05.225 1.125 0 3.075-.15 1.95-1.8 3.9.3 0 .075.375-.15.375-.45.9-.225.45-.45.825-.15.375.225.375.75-.075 2.625-.75 1.875-.75 4.05-1.725 2.25-1.05 4.35-2.175 2.1-1.125 3.375-2.175.225-.15.525-.3.6-.3.75-.15.075.15-.075.6-.15.45-.3 1.05-.225.675-.525 1.5-.6.675-.825.975l-.3.3-.075.075q0-.075-.225.15-.375.375-1.275.975-.9.6-1.275.9zm-14.1-6.75q.15-.15.45-.6.375-.525.225-1.125-1.95 0-3.975.75-2.025.675-3.75 1.35-.3.3-.75.45-.375.075-.975.375l-.15.225-.675.225q-.6.45-.975.9-.375.375-1.125.825-.675.375-1.05.6-.375.225-.6.6-.075.15-.225.15-.075 0-.075.075-.075.15-.075.3.075.075.075.225-.225.225-.375.3-.15.075-.225.15-.375.75-.6 1.725-.15.975-.75 1.425.9-.15 1.65-.6.825-.525 1.575-.675.375-.15.75-.15.45-.075.6-.225.375-.15.45-.375.15-.225.45-.525.075 0 .225.075.15.075.225-.075.225-.075.525-.375.3-.3.675-.3.75-.675 1.725-1.125.975-.45 1.95-1.05 2.1-.6 3-1.725.675-.45.975-.825.3-.375.825-.975z" id="path3431"/><path d="M245.297-44.475q-.3 1.05-.9 2.175-.6 1.05-1.275 2.325-.45 1.125-.975 2.4-.45 1.275-.825 2.625.15.375.375.375.3 0 .525-.075 1.125.15 1.8.15.75-.075 1.8-.075.9.15 1.8.225.975.075 2.025.075 3.075.225 6.3.525 3.3.3 6.225 1.35-.375.15-.375.3.075.075.15.375-.15.075-.3.225-.15.075-.3-.075-.075.3.075.225.15-.15.075.075-1.125.075-2.325 0-1.125-.075-2.25.075h-1.125q-.525-.075-1.05.075-.825.075-1.8.15-.9 0-1.875-.15-1.275.15-2.475.3-1.125.075-2.325.225-.3.075-.75 0-.15.15-.375.075-.15-.075-.3-.075-.075 0-.15.075 0 .075-.075.075-.375.15-.675.225-.3.075-.6.075-.525-.15-1.125.075-.6.15-.975.225-1.05-.15-1.425.225-.15.225-.675 1.05-.45.825-.6 1.35-.15.375-.225.6-.075.225-.225.6-.225.6-.3 1.125-.075.525-.375 1.275-.15.45-.3.675-.15.225-.075.45-.15 0-.075.3t.15.45q-.225.375-.45.825-.15.45-.225 1.05-.375 1.05-.675 2.175-.3 1.125-.675 2.25 0 .225-.225.6t-.225.525l-.15 1.2q-.075.6-.225.975-.225.6-.225 1.125.075.45-.3.75-.075.375-.075.75t-.15.9q-.15.375-.15 1.05 0 .6-.3 1.2-.075.15-.225.3-.075.15-.075.225.075 0 .075.075v.225q-.075.075-.15.075t-.075.075q-.075-.075-.075.225.075.225.075.375t-.075 0-.075 0q-.225.525-.3 1.275 0 .75-.15 1.125l-.15.15v.675q0 .3.15.675-.15 2.1.15 3.825.375 1.8 1.2 2.925.075.3 0 .15t-.075.15q.45.525.825 1.05.375.525 1.2.375.6.15 1.125-.15.525-.225.9-.675.15-.15.15-.45.075-.225.45-.45.3.375 0 .675-.225.375-.225.6-.15.15-.225.3 0 .15-.075.15-.15.3-.75.6-.15.375-.525.675-.375.3-.9.75-.375.225-.675.375-.225.225-.9.375-1.5.375-3.15-.45-1.65-.75-2.625-1.8-.225-.3-.3-.525 0-.15-.375-.75 0-.375-.3-.825-.225-.375-.6-.675-.075-.3-.15-.675-.15-.3-.075-.6-.15-.375-.225-.9-.15-.45-.3-.825 0-.675-.15-1.575-.225-.9-.3-1.725-.15-.825-.15-1.65V-4.35q0-.15-.075-.3-.15-.225-.075-.375 0-.15.075-.225.075-.15 0-.3.45-.6.225-.825-.15-.3.075-1.35.225-1.05.375-1.725 0-.375.15-.6.15-.3.075-.675.225-.45.225-1.425-.075-.975.15-1.35.075-.225.225-.6.15-.375.15-.525l.45-1.575q.15-.6.45-1.275-.15.15-.6.9-.375.75-.6.975h-.45q.075.15.075.375-.375.6-.75 1.275-.45.6-.675 1.2 0-.675.525-1.575 0-.3.15-.75l.3-.3q.075-.15 0-.3.15-.15.15-.3-.075-.225 0-.375 0-.15.15-.15t.15-.15q.15-.075.075-.15-.15-.15-.075-.225.15-.15.3-.15.075-.075 0-.3.075-.15.075-.375t.075-.45q-.075-.15 0-.225.15-.15.15-.375.15-.225.15-.525.075-.15.15-.225.15-.15.15-.3.075-.225 0-.375v-.3q0-.075.075-.15.15-.15.225-.525.15-.3.075-.525-.075-.3.075-.45l.3-.3q.15-.225.15-.45.075-.375 0-.525 0-.15.15-.525.15-.3.3-.375.225-.075.3-.225.075-.075 0-.225-.075-.15 0-.3.225-.225.225-.15.15-.225.075-.45v-.375q0-.15.375-.375-.15-.15-.075-.3t.15-.15q.15-.6.3-.9.225-.3.3-.675-.075 0 0 0 .15-.075-.975.225-1.2.075-2.325.15-1.125 0-2.175.225-1.5-.075-2.925 0-1.425 0-2.475-.375-.3 0-.6-.075t-.75-.225q-.675-.375-1.2-.6-.6-.3-1.125-.9l-.9-.6q-.525-.3-.675-.675-.15-.15-.15-.375-.075-.225-.075-.375.825.15 1.575 0 .75-.225 1.35-.45 1.35-.6 2.925-.825 1.575-.3 3.075-.675 2.7-.375 5.25-.6 2.625-.225 5.775-.15.75-.075.525 0-.15 0 .075-.15.225-.075.225-.3.075-.225.225-.525.075-.375.225-.525l.45-.3q.075-.15.075-.3t.075-.3q0-.075.15-.15.225-.15.3-.3-.15-.3-.15-.375l.225-.225q.75-.6.825-1.05.9-1.65 2.325-3.825.3-.375.45-.825.225-.45.525-.6.225-.3.3-.375.15-.15.225-.375.15-.075.225-.225.075-.225.075-.3 0-.525.75-.15.15 0 .15-.075.075-.15.15 0 .3 0 .375-.075.15-.075.45-.075.075 0 .3.15.225.075.45.075.15.15.3.375.225.15.6.375h.15v.15q.225.15.375.225.225.075.375.45z" id="path3433"/><path d="M276.045-13.05q.6.15.825 1.05.225.9-.525 1.65-.15.375-.525.9-.3.45-.6.825-.15.15-.6.45-.375.225-.375.375-.225.075-.675.525-.375.45-.525.525-.15.075-.75.525-.525.375-.75.525-.825.375-1.05.75-.15.3-.9.825-.525.15-1.2.45-.675.225-1.05.6-.525.375-.975.375-.45 0-.825.6-.45-.075-.975.225-.525.225-1.2.375-.375.15-.9.225-.45.075-.9.075-1.65.75-3.45.75-.975.225-2.325 0-.225-.075-.45-.075-.15-.075-.375-.075-.675-.3-1.425-.3-.675-.075-1.275-.3-.075 0-.525-.15-.375-.225-.825-.375-.45-.225-.9-.375-.375-.225-.45-.225-.375-.15-.675-.525l-.6-.9q-.225-.525-.525-.9-.3-.45-.6-.675-.15-.075-.3 0-.225 0-.375-.075-.225-.15-.3-.45l-.225-.45q-.15-.675.15-1.2.3-.6.075-.975.15-.075.3-.075.15-.075.3-.3-.45-.375-.375-1.05 0-.75.3-1.5.225-.75.525-1.425.3-.675.45-1.05.075-.45.075-.75t.075-.525q.15-.225.375-.375.3-.225.45-.375.15-.6.525-1.125.375-.75 1.125-1.5.75-.825 1.575-1.725.3-.45.75-.75.45-.375.975-.9.6-.225.975-.45.375-.3.9-.675 1.125-.9 2.4-.825 1.275.075 2.325.3.375.075.45.375.15.3.375.375.15.15.225.075.15-.15.375-.15.45.15 1.05.45.6.3 1.125.675.6.375.975.75.45.375.525.675.075.15.225.3.15.15.225.3.3 1.05-.075 1.575-.3.45-.45.975-.6.675-1.125 1.05-.45.375-.825.9 0 .15-.45.45-.375.3-.45.525-.6.525-1.425.975-.75.375-1.425.975-.075.15-.375.375-.3.15-.675.375-.45.3-.975.6-.15.15-.45.225-.3.075-.45.225-.225.15-.6.6-.375.375-.975.6-.15.15-.375.15-.225-.075-.3.075-.375.15-.75.525t-.9.3q-.15.3-.3.9-.075.6 0 1.275.15.675.525 1.275.45.525 1.425.6.15 0 .75.15t.825.3q1.2.075 2.625-.15 1.5-.3 2.775-.525 2.85-.675 5.55-1.95 2.7-1.275 4.725-2.625.375-.3.45-.3l.45-.225q.3-.15.9-.525.6-.45 1.125-.9.6-.525 1.05-1.05.45-.6.45-1.05zm-21.525.75q1.275-.675 2.4-1.725t2.4-1.875q.45-.375.9-.825.525-.45.675-.825.15-.3.075-.6t-.075-.375q-.225-.075-.45-.075-.075 0-.075.075-1.8.975-3.375 2.7-1.575 1.65-2.85 3.375 0 .225.15.225.075 0 .225-.075z" id="path3435"/><path d="M295.576-21.9q.225 1.8.225 3.6t-.3 3.3q-.15.375-.45.975-.225.525-.375.975-.225 1.125-.45 2.325-.15 1.125-.525 2.325-.225.6-.45 1.125l-.3 1.05q-.375 1.2-.75 2.25-.3 1.05-.6 2.175v1.35q-.225.675-.3 1.5-.075.825.3 1.575.15.225.45.6.3.375.675.675.45.3.975.45.6.15 1.2 0-.075.375-.15.825 0 .45-.375.75-.075.075-.375.075h-.3q-.15.15-.225.3-.075.15-.225.3-.9.15-2.1-.3-1.125-.45-1.95-.825-.975-.525-1.65-1.275-.6-.675-1.05-1.125.15-.675-.375-1.35-.45-.675-.75-1.575-.075-.375-.15-.825v-1.05q-.375-4.275.675-8.25.225-1.2.675-2.25.525-1.05.375-2.1-.15.525-.525.825-.3.225-.6.6-.15.15-.225.45 0 .3-.225.675-.075.075-.3.15-.15.075-.15.3-.6.75-1.05 1.425-.45.675-.975 1.425-.45.525-.825 1.05-.375.525-.9.975-.15.375-.375.75l-.3.6-.375.375q-.225.15-.375.525-.225.375-.525.75-.225.3-.375.6-.3.225-.75.45-.45.15-.6.525-.075.225-.3.3-.225 0-.525.075-.225.075-.375.225-.075.075.075.525-.45-.45-1.2-.525-.75-.075-1.5-.225-.975-1.2-.975-3.525 0-2.25.6-4.8.525-2.625.9-4.425.6-1.575.9-3.225.3-1.725.9-3.525.15-.15.3-.225.15-.075.375-.075-.075-.6-.225-1.125-.15-.525.375-.675.3-.15 1.05-.075t1.5.3q.75.15 1.35.45.675.225.825.375 0 .15.075.3v.225q.075.075.075 0 .075.375 0 .9-.075.45-.45 1.125-.225 1.5-.375 3.075-.15 1.575-.525 3.075.225.225.3 0 .075-.3.225-.45.225-.15.375-.225.225-.075.45-.3-.075-.075-.075-.15v-.225q0-.075.15 0 .225 0 .225-.075.075-.075.075-.15t.075-.225q.9-.9 2.025-2.1 1.125-1.2 2.475-2.4.15-.075.3-.075.225-.075.525-.225.15-.375.45-.525l.6-.3V-21q0-.15.075-.225.225-.15.45-.15.225-.075.45-.225.45-.375.675-.675.225-.375.6-.525.375-.15.675.075.375.15.75.075.675.15 1.275 0 .6-.15 1.2 0 .3.15.375.45.15.3.525.3z" id="path3437"/></g></g></svg>