<svg id="Layer_1" xmlns="http://www.w3.org/2000/svg" viewBox="0 0 37.3 69"><style>.st0{fill:#374858}.st1{opacity:.5;fill:#fff;enable-background:new}</style><path class="st0" d="M34.5 34.6L34 35.1 4.9 65.1 4.2 65.8 3.7 64.9 2.8 63.4 2.5 62.9 2.9 62.5 30 34.6 2.9 6.7 2.5 6.3 2.8 5.8 3.7 4.2 4.2 3.3 4.9 4 34 34z"/><path class="st1" d="M4.2 3.3l.7.7L34 34l.5.5-.5.6-29.1 30-.7.7-.5-.8-.9-1.5-.3-.5.4-.4 27.1-28L2.9 6.7l-.4-.4.3-.5.9-1.6.5-.9M3.8 0L2.4 2.3l-.4.9-.9 1.6-.3.5L0 6.6l1.1 1.1.4.4 25.7 26.5L1.5 61.1l-.4.4L0 62.6.8 64l.3.5L2 66l.5.8L3.8 69l1.8-1.9.7-.7 29.1-30 .5-.5 1.3-1.4-1.3-1.4-.5-.5-29.1-30-.7-.7L3.8 0z"/></svg>