<svg id="Layer_1" xmlns="http://www.w3.org/2000/svg" viewBox="0 0 37.3 69"><style>.st0{fill:#374858}.st1{opacity:.5;fill:#fff;enable-background:new}</style><path class="st0" d="M2.8 34.6L3.3 35.1 32.4 65.1 33.1 65.8 33.6 64.9 34.5 63.4 34.8 62.9 34.4 62.5 7.3 34.6 34.4 6.7 34.7 6.3 34.5 5.8 33.6 4.2 33.1 3.3 32.4 4 3.3 34z"/><path class="st1" d="M33.1 3.3l.5.9.9 1.6.3.5-.4.4L7.3 34.6l27.1 28 .4.4-.3.5-.9 1.5-.5.8-.7-.7-29.1-30-.5-.5.5-.6L32.4 4l.7-.7m.4-3.3l-1.9 1.9-.7.7-29.1 30-.5.5L0 34.6 1.3 36l.5.5 29.1 30 .7.7 1.8 1.9 1.3-2.2.5-.8.9-1.5.3-.5.8-1.3-1.1-1.1-.4-.4L10 34.6 35.8 8.1l.4-.4 1.1-1.1-.7-1.3-.3-.5-.9-1.6-.5-.9L33.5 0z"/></svg>