<?xml version="1.0" encoding="utf-8"?>
<!-- Generator: Adobe Illustrator 21.0.2, SVG Export Plug-In . SVG Version: 6.00 Build 0)  -->
<svg version="1.1"
	 id="Layer_1" inkscape:version="0.91 r13725" sodipodi:docname="pure_slider_left.svg" xmlns:cc="http://creativecommons.org/ns#" xmlns:dc="http://purl.org/dc/elements/1.1/" xmlns:inkscape="http://www.inkscape.org/namespaces/inkscape" xmlns:rdf="http://www.w3.org/1999/02/22-rdf-syntax-ns#" xmlns:sodipodi="http://sodipodi.sourceforge.net/DTD/sodipodi-0.dtd" xmlns:svg="http://www.w3.org/2000/svg"
	 xmlns="http://www.w3.org/2000/svg" xmlns:xlink="http://www.w3.org/1999/xlink" x="0px" y="0px" viewBox="0 0 37.3 69"
	 style="enable-background:new 0 0 37.3 69;" xml:space="preserve">
<style type="text/css">
	.st0{fill:#374858;}
	.st1{opacity:0.5;fill:#FFFFFF;enable-background:new    ;}
</style>
<sodipodi:namedview  bordercolor="#666666" borderopacity="1" fit-margin-bottom="0" fit-margin-left="0" fit-margin-right="0" fit-margin-top="0" gridtolerance="10" guidetolerance="10" id="namedview5" inkscape:current-layer="Layer_1" inkscape:cx="13.5" inkscape:cy="29.1" inkscape:pageopacity="0" inkscape:pageshadow="2" inkscape:window-height="1528" inkscape:window-maximized="0" inkscape:window-width="2277" inkscape:window-x="0" inkscape:window-y="32" inkscape:zoom="2.36" objecttolerance="10" pagecolor="#ffffff" showgrid="false">
	</sodipodi:namedview>
<g>
	<polygon class="st0" points="2.8,34.6 3.3,35.1 32.4,65.1 33.1,65.8 33.6,64.9 34.5,63.4 34.8,62.9 34.4,62.5 7.3,34.6 34.4,6.7 
		34.7,6.3 34.5,5.8 33.6,4.2 33.1,3.3 32.4,4 3.3,34 	"/>
	<path class="st1" d="M33.1,3.3l0.5,0.9l0.9,1.6l0.3,0.5l-0.4,0.4L7.3,34.6l27.1,28l0.4,0.4l-0.3,0.5L33.6,65l-0.5,0.8l-0.7-0.7
		l-29.1-30l-0.5-0.5L3.3,34L32.4,4L33.1,3.3 M33.5,0l-1.9,1.9l-0.7,0.7l-29.1,30l-0.5,0.5L0,34.6L1.3,36l0.5,0.5l29.1,30l0.7,0.7
		l1.8,1.9l1.3-2.2l0.5-0.8l0.9-1.5l0.3-0.5l0.8-1.3l-1.1-1.1l-0.4-0.4L10,34.6L35.8,8.1l0.4-0.4l1.1-1.1l-0.7-1.3l-0.3-0.5l-0.9-1.6
		l-0.5-0.9L33.5,0L33.5,0z"/>
</g>
</svg>
