<?xml version="1.0" encoding="UTF-8" standalone="no"?>
<svg
   xmlns:dc="http://purl.org/dc/elements/1.1/"
   xmlns:cc="http://creativecommons.org/ns#"
   xmlns:rdf="http://www.w3.org/1999/02/22-rdf-syntax-ns#"
   xmlns:svg="http://www.w3.org/2000/svg"
   xmlns="http://www.w3.org/2000/svg"
   viewBox="0 0 1040 1040"
   height="104"
   width="104"
   id="e-Trusted"
   version="1.0">
  <metadata
     id="metadata47">
    <rdf:RDF>
      <cc:Work
         rdf:about="">
        <dc:format>image/svg+xml</dc:format>
        <dc:type
           rdf:resource="http://purl.org/dc/dcmitype/StillImage" />
        <dc:title></dc:title>
      </cc:Work>
    </rdf:RDF>
  </metadata>
  <defs
     id="defs45" />
  <desc
     id="desc3">Trusted Shops</desc>
  <style
     id="style5"
     type="text/css"><![CDATA[
		g.eLogoColor {
           fill: #000;
        }
   ]]></style>
  <g
     transform="translate(20,20)"
     id="g9"
     style="fill:#8ecc4c;fill-opacity:1">
    <path
       style="fill:#8ecc4c;fill-opacity:1"
       width="1000"
       height="1000"
       d="M 0,500 C 0,223.8576 223.8576,0 500,0 c 276.1424,0 500,223.8576 500,500 0,276.1424 -223.8576,500 -500,500 C 223.8576,1000 0,776.1424 0,500 Z M 500,815 C 673.96971,815 815,673.96971 815,500 815,326.03029 673.96971,185 500,185 326.03029,185 185,326.03029 185,500 c 0,173.96971 141.03029,315 315,315 z"
       id="path11" />
  </g>
  <path
     d="M 652.8,617.3 C 607,685.1 543.2,746.8 457.6,746.8 367,746.8 314.2,690 314.2,598.4 c 0,-148.4 109.6,-293.8 264,-293.8 51.8,0 121.5,20.9 121.5,83.7 0,112.5 -176.3,150.4 -263,172.3 -3,18.9 -6,37.8 -6,56.8 0,38.8 20.9,74.7 63.7,74.7 55.8,0 100.6,-53.8 133.5,-93.6 l 24.9,18.8 z M 605,375.3 c 0,-22.9 -12.9,-40.8 -36.8,-40.8 -71.7,0 -108.6,139.4 -122.5,194.2 C 512.3,508.8 605,454 605,375.3 Z"
     id="path13"
     style="fill:#8ecc4c;fill-opacity:1" />
</svg>
