<svg id="Layer_1" xmlns="http://www.w3.org/2000/svg" viewBox="0 0 37.3 69"><path fill="#374858" d="M34.5 34.6l-.5.5-29.1 30-.7.7-.5-.9-.9-1.5-.3-.5.4-.4L30 34.6 2.9 6.7l-.4-.4.3-.5.9-1.6.5-.9.7.7L34 34z"/><path d="M4.2 3.3l.7.7L34 34l.5.5-.5.6-29.1 30-.7.7-.5-.8-.9-1.5-.3-.5.4-.4 27.1-28L2.9 6.7l-.4-.4.3-.5.9-1.6.5-.9M3.8 0L2.4 2.3l-.4.9-.9 1.6-.3.5L0 6.6l1.1 1.1.4.4 25.7 26.5L1.5 61.1l-.4.4L0 62.6.8 64l.3.5L2 66l.5.8L3.8 69l1.8-1.9.7-.7 29.1-30 .5-.5 1.3-1.4-1.3-1.4-.5-.5-29.1-30-.7-.7L3.8 0z" opacity=".5" fill="#fff"/></svg>