<svg xmlns="http://www.w3.org/2000/svg" viewBox="0 0 1040 1040" height="104" width="104" id="e-Trusted" version="1"><style id="style5"><![CDATA[g.eLogoColor{fill: #000}]]></style><g transform="translate(20 20)" id="g9" fill="#8ecc4c"><path d="M0 500C0 223.858 223.858 0 500 0s500 223.858 500 500-223.858 500-500 500S0 776.142 0 500zm500 315c173.97 0 315-141.03 315-315S673.97 185 500 185 185 326.03 185 500s141.03 315 315 315z" id="path11"/></g><path d="M652.8 617.3C607 685.1 543.2 746.8 457.6 746.8c-90.6 0-143.4-56.8-143.4-148.4 0-148.4 109.6-293.8 264-293.8 51.8 0 121.5 20.9 121.5 83.7 0 112.5-176.3 150.4-263 172.3-3 18.9-6 37.8-6 56.8 0 38.8 20.9 74.7 63.7 74.7 55.8 0 100.6-53.8 133.5-93.6l24.9 18.8zm-47.8-242c0-22.9-12.9-40.8-36.8-40.8-71.7 0-108.6 139.4-122.5 194.2C512.3 508.8 605 454 605 375.3z" id="path13" fill="#8ecc4c"/></svg>