<?xml version="1.0" encoding="UTF-8" standalone="no"?>
<!-- Generator: Adobe Illustrator 19.2.1, SVG Export Plug-In . SVG Version: 6.00 Build 0)  -->

<svg
   xmlns:dc="http://purl.org/dc/elements/1.1/"
   xmlns:cc="http://creativecommons.org/ns#"
   xmlns:rdf="http://www.w3.org/1999/02/22-rdf-syntax-ns#"
   xmlns:svg="http://www.w3.org/2000/svg"
   xmlns="http://www.w3.org/2000/svg"
   xmlns:sodipodi="http://sodipodi.sourceforge.net/DTD/sodipodi-0.dtd"
   xmlns:inkscape="http://www.inkscape.org/namespaces/inkscape"
   version="1.1"
   id="Ebene_1"
   x="0px"
   y="0px"
   viewBox="0 0 370 400"
   style="enable-background:new 0 0 370 400;"
   xml:space="preserve"
   inkscape:version="0.91 r13725"
   sodipodi:docname="bekapten_signet_new.svg"><metadata
     id="metadata3418"><rdf:RDF><cc:Work
         rdf:about=""><dc:format>image/svg+xml</dc:format><dc:type
           rdf:resource="http://purl.org/dc/dcmitype/StillImage" /><dc:title></dc:title></cc:Work></rdf:RDF></metadata><defs
     id="defs3416" /><sodipodi:namedview
     pagecolor="#ffffff"
     bordercolor="#666666"
     borderopacity="1"
     objecttolerance="10"
     gridtolerance="10"
     guidetolerance="10"
     inkscape:pageopacity="0"
     inkscape:pageshadow="2"
     inkscape:window-width="2106"
     inkscape:window-height="1677"
     id="namedview3414"
     showgrid="false"
     inkscape:zoom="4.6625"
     inkscape:cx="185"
     inkscape:cy="200"
     inkscape:window-x="1875"
     inkscape:window-y="131"
     inkscape:window-maximized="0"
     inkscape:current-layer="text3412" /><style
     type="text/css"
     id="style3398">
	.st0{fill:#F07873;}
	.st1{font-family:'Freeland';}
	.st2{font-size:75px;}
</style><g
     id="g3400"><path
       class="st0"
       d="M149.9,187c0-0.1-0.1-0.1-0.2-0.1c0-0.1,0.1-0.1,0.2-0.1c0.1,0,0.1,0,0.1-0.1c0.1,0,0.1,0.1,0.1,0.1   c0,0.1,0,0.1,0.1,0.2C150,187.1,149.9,187.1,149.9,187"
       id="path3402" /><path
       class="st0"
       d="M280.5,138.9l-1.9,1.2l1,1.7l1.9-1.2L280.5,138.9z M283.9,118.2l-13.7,10l4.8,6.5l1.2-0.9l-3.7-5l5.3-3.9   l2.6,3.5l1.2-0.9L279,124l4.7-3.4l3.5,4.8l1.2-0.9L283.9,118.2z M259.7,117.3l1.3,1.3l5.6-5.6l1.8,1.6l-3.8,7.6l1.4,1.4l3.9-8   c1.8,0.9,3.5,0.3,4.9-1c2-2,1.8-4.5-0.2-6.4l-2.9-2.9L259.7,117.3z M271.9,107.7l1.1,1.1c1.9,1.9,1.7,3.2,0.4,4.5   c-1.3,1.3-2.7,1.5-4.5-0.4l-1.1-1.1L271.9,107.7z M258.1,94.3l-7.7,9.8c-1.7,2.1-1.9,4.5,0.5,6.4s4.6,1.1,6.3-1l7.7-9.8l-1.4-1.1   l-7.7,9.8c-1.1,1.3-2.4,2.2-3.9,1c-1.6-1.2-1-2.7,0-4.1l7.7-9.8L258.1,94.3z M244.3,85.8l-0.8,1.3l3,1.8l-8,13.2l1.6,0.9l8-13.2   l3,1.8l0.8-1.3L244.3,85.8z M229.2,79.2l-6.6,15.6l1.7,0.7l5.8-13.6l0,0l-0.9,15.6l1.8,0.8l6.6-15.6l-1.7-0.7L231,93.5l0,0   l0.9-13.2L229.2,79.2z M214,74.6l-4.7,16.3l7.7,2.2l0.4-1.5l-6-1.7l1.8-6.3l4.2,1.2l0.4-1.5l-4.2-1.2l1.6-5.5l5.7,1.7l0.4-1.5   L214,74.6z M196.9,71.6l1.2,17.4l1.7,0.3l6.7-16.1l-1.8-0.3l-5.1,12.8l0,0L198.8,72L196.9,71.6z M180.1,88l3.1,0.1   c3.6,0.1,5.8-1.9,5.9-8.4c0.1-6.5-2-8.5-5.6-8.6l-3.1-0.1L180.1,88z M182.2,72.7h1c2.7,0,4.2,1.2,4.1,7c-0.1,5.8-1.7,6.9-4.4,6.9   h-1L182.2,72.7z M166.7,72.3l-1.9,17.3l1.8-0.2l0.5-5.1l4.3-0.5l1.5,4.9l1.8-0.2L169.3,72L166.7,72.3z M168.1,73.4L168.1,73.4   l2.9,8.9l-3.8,0.4L168.1,73.4z M142.6,96l1.7-0.6l-2.6-7.5L144,87l5.2,6.7l1.8-0.6l-5.4-7c1.6-1.2,1.8-3,1.2-4.8   c-0.9-2.6-3.2-3.5-5.8-2.6l-3.9,1.3L142.6,96z M139.4,80.8l1.5-0.5c2.5-0.9,3.6-0.1,4.2,1.7s0.2,3.1-2.3,3.9l-1.5,0.5L139.4,80.8z    M133.2,91c-2.8-5.7-5.6-7-8.1-5.7c-2.6,1.3-3.2,4.3-0.5,9.9c2.8,5.7,5.6,7,8.1,5.7C135.3,99.7,136,96.7,133.2,91 M131.6,91.8   c2.5,5.2,2,7,0.5,7.7s-3.3,0-5.8-5.1c-2.5-5.2-2-7-0.5-7.7C127.2,86,129,86.6,131.6,91.8 M118.1,109.6l1.5-1l-4.4-6.7l3.4-2.3   l-0.9-1.3l-3.4,2.3l-3.2-4.8l4.6-3l-0.9-1.3l-6.1,4L118.1,109.6z M87.7,114.3l12,12l1.3-1.3l-10.4-10.5l0,0l14.1,6.8l1.4-1.4   l-12-12l-1.3,1.3l8.8,8.9l0,0l-11.9-5.8L87.7,114.3z M90.7,138.3l1.1-1.5l-6.4-4.8l1.4-2l8.1,2.6l1.2-1.5l-8.4-2.7   c0.6-1.9-0.2-3.5-1.7-4.7c-2.2-1.7-4.7-1.1-6.3,1.1l-2.4,3.3L90.7,138.3z M79.4,127.6l1-1.3c1.6-2.1,2.9-2.2,4.4-1   c1.5,1.1,1.8,2.4,0.3,4.5l-1,1.3L79.4,127.6z M80.2,139.5c-5.6-3-8.6-2.5-9.9,0c-1.4,2.5-0.2,5.4,5.4,8.4s8.6,2.5,9.9,0   S85.7,142.5,80.2,139.5 M79.3,141.1c5.1,2.8,5.7,4.6,4.9,6c-0.8,1.4-2.7,1.9-7.7-0.8c-5.1-2.8-5.7-4.6-4.9-6   C72.4,138.8,74.2,138.4,79.3,141.1 M63.8,158.5l0.7-1.7c0.8-2,1.8-2.5,3.6-1.8c2.1,0.9,2.4,2.2,1.5,4.7l-0.4,1L63.8,158.5z    M70.6,161.1l0.7-1.7c0.9-2.2,2.4-2.7,4.4-1.9s2.5,2.3,1.7,4.3l-0.7,1.7L70.6,161.1z M77.5,165.8l1.3-3.2c1.4-3.5,0.6-5.6-2.3-6.8   c-2-0.8-3.8-0.5-5.1,1.2l0,0c0.2-1.9-1-3.2-2.5-3.8c-2.3-0.9-4.4-0.2-5.4,2.2l-1.7,4.2L77.5,165.8z"
       id="path3404" /><path
       class="st0"
       d="M280.5,138.9l-1.9,1.2l1,1.7l1.9-1.2L280.5,138.9z M283.9,118.2l-13.7,10l4.8,6.5l1.2-0.9l-3.7-5l5.3-3.9   l2.6,3.5l1.2-0.9L279,124l4.7-3.4l3.5,4.8l1.2-0.9L283.9,118.2z M259.7,117.3l1.3,1.3l5.6-5.6l1.8,1.6l-3.8,7.6l1.4,1.4l3.9-8   c1.8,0.9,3.5,0.3,4.9-1c2-2,1.8-4.5-0.2-6.4l-2.9-2.9L259.7,117.3z M271.9,107.7l1.1,1.1c1.9,1.9,1.7,3.2,0.4,4.5   c-1.3,1.3-2.7,1.5-4.5-0.4l-1.1-1.1L271.9,107.7z M258.1,94.3l-7.7,9.8c-1.7,2.1-1.9,4.5,0.5,6.4s4.6,1.1,6.3-1l7.7-9.8l-1.4-1.1   l-7.7,9.8c-1.1,1.3-2.4,2.2-3.9,1c-1.6-1.2-1-2.7,0-4.1l7.7-9.8L258.1,94.3z M244.3,85.8l-0.8,1.3l3,1.8l-8,13.2l1.6,0.9l8-13.2   l3,1.8l0.8-1.3L244.3,85.8z M229.2,79.2l-6.6,15.6l1.7,0.7l5.8-13.6l0,0l-0.9,15.6l1.8,0.8l6.6-15.6l-1.7-0.7L231,93.5l0,0   l0.9-13.2L229.2,79.2z M214,74.6l-4.7,16.3l7.7,2.2l0.4-1.5l-6-1.7l1.8-6.3l4.2,1.2l0.4-1.5l-4.2-1.2l1.6-5.5l5.7,1.7l0.4-1.5   L214,74.6z M196.9,71.6l1.2,17.4l1.7,0.3l6.7-16.1l-1.8-0.3l-5.1,12.8l0,0L198.8,72L196.9,71.6z M180.1,88l3.1,0.1   c3.6,0.1,5.8-1.9,5.9-8.4c0.1-6.5-2-8.5-5.6-8.6l-3.1-0.1L180.1,88z M182.2,72.7h1c2.7,0,4.2,1.2,4.1,7c-0.1,5.8-1.7,6.9-4.4,6.9   h-1L182.2,72.7z M166.7,72.3l-1.9,17.3l1.8-0.2l0.5-5.1l4.3-0.5l1.5,4.9l1.8-0.2L169.3,72L166.7,72.3z M168.1,73.4L168.1,73.4   l2.9,8.9l-3.8,0.4L168.1,73.4z M142.6,96l1.7-0.6l-2.6-7.5L144,87l5.2,6.7l1.8-0.6l-5.4-7c1.6-1.2,1.8-3,1.2-4.8   c-0.9-2.6-3.2-3.5-5.8-2.6l-3.9,1.3L142.6,96z M139.4,80.8l1.5-0.5c2.5-0.9,3.6-0.1,4.2,1.7s0.2,3.1-2.3,3.9l-1.5,0.5L139.4,80.8z    M133.2,91c-2.8-5.7-5.6-7-8.1-5.7c-2.6,1.3-3.2,4.3-0.5,9.9c2.8,5.7,5.6,7,8.1,5.7C135.3,99.7,136,96.7,133.2,91z M131.6,91.8   c2.5,5.2,2,7,0.5,7.7s-3.3,0-5.8-5.1c-2.5-5.2-2-7-0.5-7.7C127.2,86,129,86.6,131.6,91.8z M118.1,109.6l1.5-1l-4.4-6.7l3.4-2.3   l-0.9-1.3l-3.4,2.3l-3.2-4.8l4.6-3l-0.9-1.3l-6.1,4L118.1,109.6z M87.7,114.3l12,12l1.3-1.3l-10.4-10.5l0,0l14.1,6.8l1.4-1.4   l-12-12l-1.3,1.3l8.8,8.9l0,0l-11.9-5.8L87.7,114.3z M90.7,138.3l1.1-1.5l-6.4-4.8l1.4-2l8.1,2.6l1.2-1.5l-8.4-2.7   c0.6-1.9-0.2-3.5-1.7-4.7c-2.2-1.7-4.7-1.1-6.3,1.1l-2.4,3.3L90.7,138.3z M79.4,127.6l1-1.3c1.6-2.1,2.9-2.2,4.4-1   c1.5,1.1,1.8,2.4,0.3,4.5l-1,1.3L79.4,127.6z M80.2,139.5c-5.6-3-8.6-2.5-9.9,0c-1.4,2.5-0.2,5.4,5.4,8.4s8.6,2.5,9.9,0   S85.7,142.5,80.2,139.5z M79.3,141.1c5.1,2.8,5.7,4.6,4.9,6c-0.8,1.4-2.7,1.9-7.7-0.8c-5.1-2.8-5.7-4.6-4.9-6   C72.4,138.8,74.2,138.4,79.3,141.1z M63.8,158.5l0.7-1.7c0.8-2,1.8-2.5,3.6-1.8c2.1,0.9,2.4,2.2,1.5,4.7l-0.4,1L63.8,158.5z    M70.6,161.1l0.7-1.7c0.9-2.2,2.4-2.7,4.4-1.9s2.5,2.3,1.7,4.3l-0.7,1.7L70.6,161.1z M77.5,165.8l1.3-3.2c1.4-3.5,0.6-5.6-2.3-6.8   c-2-0.8-3.8-0.5-5.1,1.2l0,0c0.2-1.9-1-3.2-2.5-3.8c-2.3-0.9-4.4-0.2-5.4,2.2l-1.7,4.2L77.5,165.8z"
       id="path3406" /><path
       class="st0"
       d="M308.9,222.4l2.2,0.4l0.3-1.9l-2.2-0.4L308.9,222.4z M307.2,239.5l0.8-3.1c0.9-3.5-0.5-6-6.8-7.6   s-8.7,0-9.6,3.5l-0.8,3.1L307.2,239.5z M292.7,233.9l0.2-1c0.7-2.6,2.1-3.8,7.8-2.4c5.6,1.4,6.3,3.2,5.7,5.8l-0.2,1L292.7,233.9z    M286,247.2l15.8,6.2l2.7-6.8L303,246l-2,5.1l-14.3-5.6L286,247.2z M293.5,268.9l0.9-1.6l-7-3.8l1.1-2.1l8.4,1.5l0.9-1.7l-8.7-1.5   c0.3-2-0.7-3.5-2.3-4.4c-2.5-1.3-4.8-0.4-6.1,2l-2,3.6L293.5,268.9z M280.9,259.9l0.8-1.4c1.3-2.3,2.6-2.6,4.2-1.6   c1.7,0.9,2.2,2.1,0.9,4.5l-0.8,1.4L280.9,259.9z M281.7,270.8c-5-3.8-8.1-3.7-9.8-1.4c-1.7,2.3-1,5.3,4.1,9.1   c5,3.8,8.1,3.7,9.8,1.4C287.5,277.6,286.8,274.6,281.7,270.8 M280.6,272.2c4.6,3.5,4.9,5.4,3.9,6.7c-1,1.3-2.9,1.5-7.5-2   s-4.9-5.4-3.9-6.7C274.1,269,276,268.8,280.6,272.2 M255.9,286.6l13.9,10.1l1.1-1.1l-7.4-11.4l0,0l11.2,7.6l1.1-1.1l-9.9-14   l-1.2,1.2l8,10.8l0,0l-11.2-7.6l-1.1,1.1l7.5,11.2l0,0l-10.7-8L255.9,286.6z M237.6,298.6l9,14.4l6.8-4.3l-0.8-1.3l-5.2,3.3   l-3.5-5.5l3.7-2.3l-0.8-1.3l-3.7,2.3L240,299l5-3.2l-0.8-1.3L237.6,298.6z M223.7,304.9l6.9,15.5l1.7-0.7l-3.3-7.4l4.6-2l3.3,7.4   l1.7-0.7l-6.9-15.5l-1.7,0.7l3,6.7l-4.6,2l-3-6.7L223.7,304.9z M210.1,309.2l0.5,1.5l3.3-1l4.5,14.7l1.7-0.5l-4.5-14.7l3.3-1   l-0.5-1.5L210.1,309.2z M196.4,316.6c-0.4-2.7-1.8-5.3-4.9-5.1c-3,0.2-4.7,2.7-4.2,9.1s2.6,8.5,5.5,8.3c1.4-0.1,2.3-0.7,3-1.7   l0.3,1.2l1.2-0.1l-0.6-7.9l-4.1,0.3l0.1,1.5l2.3-0.2l0.2,2.4c0.1,1.7-0.7,2.7-2.4,2.9c-2,0.2-3.2-1.6-3.6-6.9   c-0.4-5.3,0.4-7.2,2.5-7.4c1.8-0.1,2.6,1.5,3,3.7L196.4,316.6z M171.5,311.5l-0.8,16.9l1.8,0.1l0.7-14.7l0,0l4.6,15l2,0.1l0.8-16.9   l-1.8-0.1l-0.6,12.5l0,0l-3.8-12.7L171.5,311.5z M163.2,310l-2.9,16.7l1.8,0.3l2.9-16.7L163.2,310z M143.3,322.4l1.8,0.5l2.1-7.6   l2.3,0.6l0.5,8.5l1.9,0.5l-0.5-8.9c2-0.1,3.2-1.4,3.7-3.3c0.8-2.7-0.7-4.7-3.3-5.5l-3.9-1.1L143.3,322.4z M149.3,308.1l1.5,0.4   c2.5,0.7,3.1,1.9,2.6,3.8c-0.5,1.8-1.6,2.6-4.1,1.9l-1.5-0.4L149.3,308.1z M138.8,311.6c2.5-5.8,1.6-8.8-1-9.9s-5.3,0.3-7.8,6.2   c-2.5,5.8-1.6,8.8,1,9.9C133.6,318.9,136.3,317.4,138.8,311.6 M137.1,310.9c-2.2,5.3-4,6.1-5.5,5.4c-1.5-0.6-2.2-2.5,0.1-7.8   c2.2-5.3,4-6.1,5.5-5.4C138.7,303.8,139.3,305.6,137.1,310.9 M122.6,293.8l-8.5,14.7l6.3,3.7l0.8-1.3l-4.8-2.8l7.7-13.3   L122.6,293.8z M111.7,287.5l1.5,1.2c1.5,1.1,1.7,2.5,0.4,4.2c-1.3,1.7-2.7,1.8-4.2,0.7l-1.5-1.2L111.7,287.5z M100.9,298.7l1.5,1.1   l4.6-6.1l1.7,1.3c2.2,1.6,4.7,1.3,6.4-1c1.7-2.2,1.4-4.8-0.8-6.4l-3.2-2.4L100.9,298.7z M100.4,274.8l-3,8.2l-8.9,3.9l1.4,1.4   l6.9-3.2l-2.7,7.3l1.4,1.4l3.4-9.3l7.9-3.4l-1.4-1.4l-5.9,2.7l2.3-6.1L100.4,274.8z M92.5,264.6L79.1,275l4.9,6.4l1.2-0.9l-3.8-4.9   l5.2-4l2.7,3.5l1.2-0.9l-2.7-3.5l4.6-3.5l3.6,4.7l1.2-0.9L92.5,264.6z"
       id="path3408" /><path
       class="st0"
       d="M308.9,222.4l2.2,0.4l0.3-1.9l-2.2-0.4L308.9,222.4z M307.2,239.5l0.8-3.1c0.9-3.5-0.5-6-6.8-7.6   s-8.7,0-9.6,3.5l-0.8,3.1L307.2,239.5z M292.7,233.9l0.2-1c0.7-2.6,2.1-3.8,7.8-2.4c5.6,1.4,6.3,3.2,5.7,5.8l-0.2,1L292.7,233.9z    M286,247.2l15.8,6.2l2.7-6.8L303,246l-2,5.1l-14.3-5.6L286,247.2z M293.5,268.9l0.9-1.6l-7-3.8l1.1-2.1l8.4,1.5l0.9-1.7l-8.7-1.5   c0.3-2-0.7-3.5-2.3-4.4c-2.5-1.3-4.8-0.4-6.1,2l-2,3.6L293.5,268.9z M280.9,259.9l0.8-1.4c1.3-2.3,2.6-2.6,4.2-1.6   c1.7,0.9,2.2,2.1,0.9,4.5l-0.8,1.4L280.9,259.9z M281.7,270.8c-5-3.8-8.1-3.7-9.8-1.4c-1.7,2.3-1,5.3,4.1,9.1   c5,3.8,8.1,3.7,9.8,1.4C287.5,277.6,286.8,274.6,281.7,270.8z M280.6,272.2c4.6,3.5,4.9,5.4,3.9,6.7c-1,1.3-2.9,1.5-7.5-2   s-4.9-5.4-3.9-6.7C274.1,269,276,268.8,280.6,272.2z M255.9,286.6l13.9,10.1l1.1-1.1l-7.4-11.4l0,0l11.2,7.6l1.1-1.1l-9.9-14   l-1.2,1.2l8,10.8l0,0l-11.2-7.6l-1.1,1.1l7.5,11.2l0,0l-10.7-8L255.9,286.6z M237.6,298.6l9,14.4l6.8-4.3l-0.8-1.3l-5.2,3.3   l-3.5-5.5l3.7-2.3l-0.8-1.3l-3.7,2.3L240,299l5-3.2l-0.8-1.3L237.6,298.6z M223.7,304.9l6.9,15.5l1.7-0.7l-3.3-7.4l4.6-2l3.3,7.4   l1.7-0.7l-6.9-15.5l-1.7,0.7l3,6.7l-4.6,2l-3-6.7L223.7,304.9z M210.1,309.2l0.5,1.5l3.3-1l4.5,14.7l1.7-0.5l-4.5-14.7l3.3-1   l-0.5-1.5L210.1,309.2z M196.4,316.6c-0.4-2.7-1.8-5.3-4.9-5.1c-3,0.2-4.7,2.7-4.2,9.1s2.6,8.5,5.5,8.3c1.4-0.1,2.3-0.7,3-1.7   l0.3,1.2l1.2-0.1l-0.6-7.9l-4.1,0.3l0.1,1.5l2.3-0.2l0.2,2.4c0.1,1.7-0.7,2.7-2.4,2.9c-2,0.2-3.2-1.6-3.6-6.9   c-0.4-5.3,0.4-7.2,2.5-7.4c1.8-0.1,2.6,1.5,3,3.7L196.4,316.6z M171.5,311.5l-0.8,16.9l1.8,0.1l0.7-14.7l0,0l4.6,15l2,0.1l0.8-16.9   l-1.8-0.1l-0.6,12.5l0,0l-3.8-12.7L171.5,311.5z M163.2,310l-2.9,16.7l1.8,0.3l2.9-16.7L163.2,310z M143.3,322.4l1.8,0.5l2.1-7.6   l2.3,0.6l0.5,8.5l1.9,0.5l-0.5-8.9c2-0.1,3.2-1.4,3.7-3.3c0.8-2.7-0.7-4.7-3.3-5.5l-3.9-1.1L143.3,322.4z M149.3,308.1l1.5,0.4   c2.5,0.7,3.1,1.9,2.6,3.8c-0.5,1.8-1.6,2.6-4.1,1.9l-1.5-0.4L149.3,308.1z M138.8,311.6c2.5-5.8,1.6-8.8-1-9.9s-5.3,0.3-7.8,6.2   c-2.5,5.8-1.6,8.8,1,9.9C133.6,318.9,136.3,317.4,138.8,311.6z M137.1,310.9c-2.2,5.3-4,6.1-5.5,5.4c-1.5-0.6-2.2-2.5,0.1-7.8   c2.2-5.3,4-6.1,5.5-5.4C138.7,303.8,139.3,305.6,137.1,310.9z M122.6,293.8l-8.5,14.7l6.3,3.7l0.8-1.3l-4.8-2.8l7.7-13.3   L122.6,293.8z M111.7,287.5l1.5,1.2c1.5,1.1,1.7,2.5,0.4,4.2c-1.3,1.7-2.7,1.8-4.2,0.7l-1.5-1.2L111.7,287.5z M100.9,298.7l1.5,1.1   l4.6-6.1l1.7,1.3c2.2,1.6,4.7,1.3,6.4-1c1.7-2.2,1.4-4.8-0.8-6.4l-3.2-2.4L100.9,298.7z M100.4,274.8l-3,8.2l-8.9,3.9l1.4,1.4   l6.9-3.2l-2.7,7.3l1.4,1.4l3.4-9.3l7.9-3.4l-1.4-1.4l-5.9,2.7l2.3-6.1L100.4,274.8z M92.5,264.6L79.1,275l4.9,6.4l1.2-0.9l-3.8-4.9   l5.2-4l2.7,3.5l1.2-0.9l-2.7-3.5l4.6-3.5l3.6,4.7l1.2-0.9L92.5,264.6z"
       id="path3410" /><g
       transform="matrix(0.9837 -0.1797 0.1797 0.9837 40.9915 243.5206)"
       style="font-size:75px;font-family:Freeland;fill:#f07873"
       id="text3412"><path
         d="m 32.325,-28.05 q -0.225,0.225 -0.15,0.525 0.15,0.225 0.15,0.45 -0.225,0.6 -0.9,0.9 -0.6,0.225 -0.9,1.05 -1.425,0.225 -2.85,0.525 -1.35,0.3 -2.85,0.675 -0.975,0.15 -1.2,0.3 -0.15,0.15 -0.525,1.2 -0.15,0.375 -0.45,0.825 -0.225,0.375 -0.225,0.75 -0.15,0.225 -0.075,0.45 0.075,0.15 0.075,0.225 -0.15,0 -0.225,0.15 -0.075,0.15 -0.075,0.225 0,0.15 0,0.3 0.075,0.075 0.075,0.225 -0.075,0.3 -0.3,0.375 -0.15,0.075 0,0.45 0.3,0 0.375,-0.15 0.075,-0.15 0.15,-0.3 0.075,-0.225 0.15,-0.375 0.15,-0.15 0.525,-0.15 -0.15,0.375 -0.3,0.525 -0.075,0.075 0.075,0.45 1.35,-0.375 2.7,-0.3 1.35,0.075 2.625,0.45 0.75,0 1.425,0.075 0.675,0 0.9,0.225 0.075,0.075 0.3,0.525 0.225,0.375 0.075,0.525 0,0.375 -0.525,0.525 -0.45,0.15 -1.05,0.525 -0.825,0.225 -1.875,0.45 -1.05,0.15 -1.875,0.225 -0.375,0.375 -0.75,0.375 l -1.275,0 q -0.3,0.375 -0.675,0.375 l -0.675,0 q -0.375,0 -0.825,0.225 -0.375,0.225 -0.525,0.3 -0.45,0.375 -0.3,0.75 0.225,0.3 0.075,0.675 -0.3,0.225 -0.45,0.45 -0.15,0.15 -0.375,0.525 l 0,0.675 q -0.075,0.75 -0.375,1.425 -0.225,0.6 -0.45,1.35 -0.3,-0.975 0.225,-1.875 0.6,-0.975 0.525,-1.8 -0.225,-0.375 -0.075,-0.825 0.15,-0.45 0.15,-0.75 -0.375,0.6 -0.525,1.575 -0.15,0.9 -0.525,1.875 0,0.3 -0.15,0.45 -0.075,0.15 -0.225,0.45 0,1.05 -0.075,1.425 -0.15,0.75 -0.525,1.275 -0.3,0.45 -0.3,1.275 -0.075,0.45 -0.075,0.9 0.075,0.375 0,0.975 -0.15,0.075 -0.225,0.3 -0.075,0.15 -0.225,0.225 0,0.225 -0.15,0.3 -0.075,0.075 -0.225,0.45 -0.15,0.45 -0.15,0.825 0,0.3 -0.375,0.45 -0.3,0.075 -0.525,0.075 -0.225,0 -0.375,0.075 -0.15,0 -0.3,-0.15 -0.3,-0.15 -0.675,-1.275 Q 13.8,-3 13.65,-3.6 q -0.15,-0.825 0,-1.95 0.225,-1.125 0.375,-2.4 l 0,-1.125 q 0.225,-0.9 0.45,-1.8 0.3,-0.9 0.3,-1.725 -0.225,-0.225 -0.525,-0.075 -0.3,0.075 -0.45,0.15 -0.3,-0.375 -0.825,-0.15 -0.525,0.225 -0.75,0.675 -0.375,0.15 -0.375,-0.15 0.075,-0.375 -0.3,-0.375 -0.45,0.225 -0.9,0.525 -0.45,0.3 -0.825,0.45 -0.375,0 -0.9,-0.075 Q 8.4,-11.7 8.1,-11.55 7.875,-11.4 7.8,-10.65 7.725,-9.9 7.575,-9.525 7.5,-9.375 7.35,-9.15 7.275,-8.925 7.275,-8.55 6.9,-8.1 6.825,-7.725 q -0.075,0.3 -0.45,0.675 0,-1.125 -0.075,-2.175 0,-1.125 -0.15,-2.325 -0.375,-0.15 -0.45,0.075 -0.075,0.15 -0.45,0.15 -0.3,-0.225 -0.45,-0.225 -1.5,-0.15 -3.225,-0.15 -1.725,0 -3.075,-0.525 -0.6,-0.225 -1.5,-0.6 -0.975,-0.375 -1.2,-0.975 -0.45,-0.45 -0.45,-0.75 1.725,0.075 3.075,-0.3 1.35,-0.45 3.225,-0.75 0.675,-0.225 1.2,-0.375 0.525,-0.15 1.275,-0.15 0.525,-0.15 1.35,-0.15 0.9,-0.075 0.975,-0.225 0.3,-0.15 0.225,-0.6 -0.075,-0.45 -0.075,-0.75 0.15,-0.45 0.3,-1.275 0.15,-0.9 0.15,-1.725 -0.525,-0.375 -1.05,-0.3 -0.45,0 -1.05,-0.15 -0.375,-0.15 -0.975,-0.3 -0.6,-0.15 -1.125,-0.525 l -0.525,0 q -0.15,-0.225 -0.15,-0.3 Q 2.25,-22.5 2.1,-22.5 q -0.375,0 -0.6,0.075 -0.15,0 -0.525,0 Q 0.45,-22.5 0,-22.8 q -0.525,-0.3 -0.9,-0.6 -0.45,-0.225 -0.525,-0.3 -0.075,-0.075 -0.075,-0.15 -0.45,-0.075 -0.675,0 -0.3,0 -0.675,-0.375 l 0,-0.45 Q -3,-24.75 -3.3,-24.825 -3.675,-24.9 -3.9,-25.2 q -0.225,-0.3 -0.45,-0.6 -0.225,-0.3 -0.6,-0.45 -0.3,-0.3 -0.6,-0.75 -0.375,-0.525 -0.6,-1.05 1.725,0.225 3.225,0.075 1.425,-0.15 2.925,-0.375 2.175,-0.375 4.275,-0.825 2.175,-0.525 4.575,-0.9 0,-0.525 -0.15,-0.75 -0.15,-0.3 0.15,-0.75 0,-0.15 0.225,-0.3 0.3,-0.225 0.45,-0.525 0.225,0 0.225,-0.225 0.075,-0.225 0.075,-0.375 0,-0.15 0.15,-0.525 0.225,-0.375 0.225,-0.75 0,-0.225 -0.15,-0.375 -0.075,-0.15 0.15,-0.375 0,-0.525 0.225,-0.9 0.3,-0.45 0.525,-1.05 0,-0.6 0,-1.125 0,-0.6 0.15,-0.975 0.15,-0.375 0.525,-0.525 0.375,-0.15 0.375,-0.525 1.275,-0.225 2.175,0 0.975,0.225 2.1,0.6 -0.15,0.375 -0.075,0.6 0.075,0.225 0.075,0.375 0,0.3 -0.225,0.525 -0.15,0.15 -0.15,0.3 -0.15,0.6 -0.3,1.2 -0.075,0.525 -0.45,1.05 -0.375,0.6 -0.375,0.9 -0.225,0.375 -0.3,0.75 0,0.3 -0.15,0.675 -0.375,0.375 -0.675,0.975 -0.3,0.6 -0.225,1.2 1.05,0.15 2.4,0 1.425,-0.225 2.475,-0.225 0.225,0 0.45,0 0.3,-0.075 0.525,-0.225 0.375,0 0.3,-0.3 -0.075,-0.375 0.15,-0.675 0.075,-1.8 1.275,-4.125 0.45,-1.275 0.825,-2.325 0.375,-1.05 0.6,-2.025 0,-0.375 -0.15,-0.675 -0.075,-0.3 -0.075,-0.75 0.525,0.225 0.975,0.15 0.525,-0.075 1.05,0.225 0,0.075 0.075,0.15 0.225,0.225 0.375,0.3 0.825,0.3 1.575,0.825 0.75,0.45 0.375,1.875 0,0.15 0,0.45 0,0.225 -0.075,0.6 -0.225,0.3 -0.375,0.525 -0.075,0.225 -0.225,0.45 0,0.15 0.075,0.3 0.15,0.075 0.15,0.3 l -0.15,0.15 q -0.075,0.075 -0.075,0.3 -0.15,0.825 -0.225,1.425 0,0.6 -0.15,1.125 -0.225,0.15 -0.45,0.525 -0.15,0.375 -0.3,0.825 0.6,0.3 1.2,0.3 0.675,-0.075 1.125,-0.075 0.375,0.15 0.75,0.15 0.375,0 0.6,0 0.3,0.15 0.75,0.375 0.525,0.15 0.975,0.3 0.675,0.15 0.975,0.3 0.3,0.15 0.45,0.75 0.15,0.075 0.3,0.15 0.15,0 0.15,0.225 -0.225,0.15 -0.6,0.225 -0.3,0 -0.3,0.375 0.225,0.3 0.525,0.45 0.375,0.075 0.6,0.225 z m -15.975,6.975 q 0.15,-0.45 0.375,-0.975 0.225,-0.525 0.225,-0.975 -0.525,0.15 -1.05,0.225 -0.45,0 -1.05,0.3 -0.3,0 -0.825,0.375 -0.3,0 -0.6,0.15 -0.225,0.15 -0.675,0.3 -0.525,0 -0.75,0.225 -0.45,0.15 -0.825,0.225 -0.375,0 -0.825,0.375 -0.375,0.825 -0.45,1.65 -0.075,0.75 -0.075,1.725 0.975,0 1.95,-0.15 0.975,-0.225 1.875,-0.225 0.525,0 0.975,0 0.45,0 1.05,-0.075 0.3,-0.075 0.6,-1.05 0.3,-0.975 0.3,-1.275 0,-0.225 -0.15,-0.45 -0.075,-0.225 -0.075,-0.375 z m 3.75,8.55 q 0,-0.075 0.15,-0.225 0.225,-0.15 -0.15,-0.225 0,0.075 -0.15,0.3 -0.15,0.15 0.15,0.15 z"
         style="font-size:75px;font-family:Freeland;fill:#f07873"
         id="path3421" /><path
         d="m 74.067188,-40.8 q 0,0.15 -0.075,0 -0.075,-0.15 0.075,-0.225 l 0,0.225 z m -3.075001,5.4 q 0.150001,0.15 -0.075,0.225 -0.15,0 -0.15,0.075 -0.150001,-0.075 0,-0.075 0.15,-0.075 0.224999,-0.225 z m -29.924999,24.675 q -0.075,0.225 -0.075,0.975 -0.225,-0.45 0.075,-0.975 z m -0.075,1.125 q 0,0.075 0.075,0.15 -0.075,0.15 -0.150001,0.075 -0.075,-0.075 0.075,-0.225 z m 34.275001,7.2 q 0.075,0.15 -0.075,0.3 -0.15,0.15 -0.225001,0.15 -0.149999,-0.15 0,-0.225 0.225001,-0.15 0.300001,-0.225 z m -0.375,0.525 q -0.150001,0.15 -0.225,0.3 0,0.075 -0.225,-0.075 0.075,0 0.149999,-0.075 0.075,-0.15 0.300001,-0.15 z m -0.6,0.375 q 0.15,0.075 0,0.15 -0.075,0.075 -0.300001,-0.075 0.075,-0.075 0.150001,0 0.15,0 0.15,-0.075 z m -33.975,-5.625 q 0.15,0.075 0.075,0.3 0,0.15 -0.075,0.225 -0.150001,0 0,-0.525 z m 30.45,8.325 q 0,0.15 -0.225,0.3 -0.15,0.15 -0.225,0.15 0,-0.3 0.45,-0.45 z m -4.95,2.925 q -0.150001,0.075 -0.3,0.225 -0.150001,0.15 -0.375,0.15 0.149999,-0.15 0.3,-0.3 0.149999,-0.15 0.375,-0.075 z m -5.925,2.1 q -0.150001,-0.075 -0.150001,0 0,0.075 -0.149999,0 0.075,-0.075 0.3,0 z m -3.600001,0.15 q 0.150001,0.15 0,0.3 -0.149999,0.225 -0.224999,0.15 0,-0.3 0.075,-0.375 0.149999,0 0.149999,-0.075 z M 57.267188,6.9 q -0.075,0.15 0,0.075 0.149999,0 0.149999,0.15 0,0.075 -0.375,0.225 -0.224999,0 -0.375,0.075 -0.075,0.15 -0.224999,0.15 -0.3,0.15 -0.675,0.15 -0.3,0 -0.3,0.3 0,-0.675 0.6,-0.675 0.674999,0.075 1.2,-0.45 z m 1.124999,0.45 q -0.15,0.3 -0.9,0.45 0.15,-0.375 0.375,-0.45 0.3,-0.075 0.525,0 z m 14.4,-52.95 q 0.225001,0.075 0.150001,0.45 -0.075,0.3 0.075,0.6 0.149999,0 0.075,-0.225 0,-0.3 0.15,-0.225 0.150001,0.3 0.375,0.525 0.3,0.225 0,0.75 0.150001,-0.3 0.150001,-0.225 0.075,0.075 0.075,0.3 0,0.225 -0.075,0.45 0,0.225 0.075,0.3 -0.149999,0.15 0,0.3 0.15,0.15 0.15,0.3 0,0.375 -0.075,0.675 0,0.3 0,0.525 -0.075,0.15 -0.149999,0.375 0,0.15 -0.150001,0.3 0,0.15 -0.15,0.3 -0.149999,0.15 0,0.15 -0.149999,0.225 -0.375,0.375 -0.225,0.15 -0.449999,0.3 -0.075,0.15 -0.075,0.375 0.075,0.15 -0.075,0.3 -0.15,0.225 -0.3,0.3 -0.15,0 -0.15,0.225 0.375,-0.075 0.45,-0.3 0.075,-0.225 0.3,-0.45 0,0.6 -0.45,1.35 -0.225,0.15 -0.449999,0.6 -0.225,0.375 -0.45,0.6 l -0.450001,0.675 q -0.15,0 -0.075,0.075 0.075,0.075 -0.075,0.075 -0.149999,0.225 -0.299999,0.3 -0.15,0 -0.15,0.225 -0.075,-0.15 -0.525001,0.3 -0.375,0.45 -0.449999,0.75 -0.375001,0 -0.450001,0.075 -0.075,0.075 -0.225,0.225 -0.375,0.15 -0.599999,0.45 -0.150001,0.225 -0.45,0.45 -0.600001,0.375 -1.05,0.975 -0.45,0.525 -1.125,0.975 1.724999,0.375 3.524999,0.6 1.8,0.15 3.600001,0.6 0.75,0.15 1.65,0.45 0.9,0.3 1.5,0.825 l 0.15,0 q 0.149999,0.075 0.075,0.075 0,0 0.375,0 0.15,0.3 0.15,0.375 0.525,0.225 0.975,0.375 0.449999,0.075 0.824999,0.45 0.15,0.225 0.450001,0.375 0.299999,0.075 0.449999,0.45 0.375,-0.075 0.525001,0.3 0.224999,0.375 0.599999,0.525 0.225,0.15 0.525001,0.375 0.375,0.15 0.599999,0.3 0.150001,0.075 0.225,0.375 0.075,0.3 0.45,0.45 0.150001,0.225 0.375,0.675 0.225001,0.375 0.375,0.75 0.150001,0.225 0.150001,0.525 0.075,0.225 0.224999,0.375 0.150001,0.225 0.225001,0.45 0.075,0.15 0.224999,0.525 0.375,1.125 0.6,2.475 0.225001,1.35 0,2.625 -0.075,0.45 -0.149999,0.825 -0.075,0.375 -0.3,0.675 0,0.375 -0.225,1.125 -0.225,0.675 -0.375001,1.125 -0.149999,0.375 -0.224999,0.75 -0.075,0.3 -0.225001,0.525 -0.375,0.15 -0.375,0.225 -0.075,0.15 -0.075,0.225 0,0.075 -0.150001,0.225 -0.075,0.225 -0.375,0.45 -0.3,0.225 -0.224999,0.375 -0.150001,0.075 -0.300001,0.075 -0.15,0 -0.3,0.15 0,0.525 -0.3,0.675 -0.224999,0.075 -0.525,0.375 -0.375,0.375 -0.6,0.675 -0.15,0.225 -0.375,0.525 -0.299999,0.15 -0.599999,0.375 -0.225,0.225 -0.45,0.375 -0.15,0.3 -0.3,0.45 -0.150001,0.075 -0.300001,0.3 -0.375,0.075 -0.75,0.75 -0.149999,0.15 -0.225,0.15 -0.075,-0.075 -0.224999,0 -0.150001,0.15 -0.225,0.45 -0.075,0.225 -0.450001,0.375 -0.149999,0.075 -0.299999,0.15 -0.075,0 -0.225,0.225 -0.375,-0.3 -0.825001,0.225 -0.45,0.525 -0.9,0.9 -0.149999,0.15 -0.375,0.225 -0.225,0.075 -0.449999,0.225 -0.825001,0.975 -1.725,1.65 -0.9,0.675 -1.950001,1.275 -2.1,1.5 -4.949999,2.7 -0.975001,0.45 -1.95,1.05 -0.975,0.6 -2.1,0.825 0.3,-0.375 0.75,-0.45 0.449999,-0.075 0.75,-0.45 0.375,0.075 0.524999,-0.225 0.15,-0.3 0.6,-0.225 0.375,-0.6 0.825,-0.75 0.525001,-0.15 0.975001,-0.6 -0.600001,0.15 -1.050001,0.375 -0.45,0.225 -0.975,0.525 -0.15,0 -0.599999,0.225 -0.375,0.3 -0.525001,0.225 -0.149999,0.075 -0.299999,0 -0.075,0 -0.150001,0.075 -0.375,0.15 -0.524999,0.3 -0.150001,0.15 -0.3,0.3 -0.375,0.15 -0.825001,0.15 -0.375,0.075 -0.525,0.225 -0.525,0.15 -1.049999,0.3 -0.450001,0.225 -1.05,0.225 -0.3,-0.075 -0.075,-0.15 0.299999,0 0.15,-0.15 -0.45,0.075 -0.9,0.375 -0.375,0.375 -0.75,0.525 -0.375,-0.225 -0.675001,-0.15 0,0 -0.375,0.225 -0.15,0.075 -0.299999,-0.075 -0.15,-0.075 -0.225001,0.15 -0.149999,0 -0.075,-0.075 0.075,-0.075 0.075,-0.225 -0.299999,0.15 -0.524999,0.15 -0.15,0.075 -0.300001,0.225 -0.075,0.075 -0.15,0.15 -0.075,0.15 -0.15,0.225 -0.149999,0.075 -0.375,0 -0.225,0 -0.375,0.075 -0.375,0.15 -0.825,0.45 -0.375,0.375 -0.974999,0.45 -0.150001,0 -0.375,-0.075 -0.150001,0 -0.375,0 -0.375,0.075 -0.75,0.225 -0.375,0.15 -0.75,0.15 -0.150001,0.075 -0.300001,0 -0.075,0 -0.225,0.075 -0.375,0.075 -0.675,0.3 -0.225,0.225 -0.6,0.075 -0.15,-0.375 0,-0.375 0.15,0.075 0.375,0 0.15,-0.075 0.525,-0.15 0.45,0 0.75,0 0.375,-0.15 0.675001,-0.225 0.375,-0.075 0.75,-0.225 0.149999,0 0.225,-0.15 0.075,-0.075 0.299999,-0.075 0.3,-0.075 0.375,0 0.15,0.075 0.375,0 0.15,-0.075 0.3,-0.225 0.150001,-0.15 0.225,-0.15 0.15,-0.075 0.6,-0.225 0.150001,0 0.375,-0.225 0.3,-0.15 0.525,-0.225 0.300001,-0.075 0.300001,-0.675 -0.300001,0 -0.675001,0 -0.299999,0.075 -0.674999,0.3 -0.75,0.3 -1.200001,0.3 -0.15,0.075 -0.299999,0 -0.15,0 -0.300001,0.075 -0.675,0.15 -0.974999,0.45 -0.225,0.15 -0.525001,0.15 -0.3,0 -0.525,0.075 -0.449999,0 -0.75,0.15 -0.225,0.15 -0.375,0.15 -0.075,0 -0.225,-0.075 -0.075,0 -0.224999,0 -0.225,0 -0.450001,0.225 -0.149999,0.15 -0.299999,0 -0.075,-0.075 -0.150001,0 -0.15,0.075 -0.3,0.225 l -0.075,0.075 q -0.075,0 -0.075,-0.075 0,-0.075 -0.075,-0.075 -0.15,-0.15 -0.225,0 -0.075,0.15 -0.224999,0.225 -0.300001,0 -0.525001,0 -0.224999,0 -0.3,0.3 -0.149999,0 -0.149999,-0.15 0.075,-0.15 -0.15,-0.225 -0.300001,-0.15 -0.6,0.075 -0.300001,0.225 -0.450001,-0.15 -0.15,0.3 -0.375,0.3 -0.15,0 -0.299999,0.225 0,0.3 0.299999,0.3 0.375,0 0.525,-0.225 0.45,0.075 0.375,0.3 0.375,-0.075 0.75,0 0.150001,-0.075 0.075,0.075 -0.075,0.15 0,0.15 0.600001,-0.15 1.05,-0.375 0.525001,-0.15 1.2,-0.075 -0.075,0.375 -0.299999,0.375 -0.225,0 -0.525001,0.075 -0.224999,0.15 -0.3,0.15 -0.075,0.075 -0.225,0.15 -0.075,0 -0.299999,0 -0.15,0 -0.225001,-0.075 -0.149999,0.15 -0.299999,0.15 -0.150001,0 -0.375,0.075 0.075,-0.15 0,-0.225 0,-0.075 0,-0.3 -0.300001,-0.15 -0.375,0.075 -0.075,0.225 -0.300001,0.375 -0.525,0.075 -1.125,-0.15 -0.6,-0.15 -0.975,-0.375 -0.15,0.075 -0.599999,0 -0.450001,0 -0.6,-0.45 -0.15,0 -0.300001,0.075 -0.075,0.075 -0.375,0 l 0,-0.075 -0.075,-0.075 q -0.15,0 -0.375,-0.15 -0.15,-0.075 -0.525,-0.225 -0.150001,0 -0.150001,-0.15 -0.075,-0.15 -0.3,-0.15 -0.149999,0.075 -0.149999,-0.075 -0.075,0 -0.225001,-0.225 -0.075,-0.225 -0.225,-0.3 -0.075,-0.15 -0.15,-0.3 -0.149999,-0.075 0,-0.225 -0.375,0 -0.45,-0.15 -0.075,-0.075 -0.375,-0.15 -0.075,-0.3 0.075,-0.6 0.15,-0.3 -0.149999,-0.45 0.225,-0.3 0.6,-0.675 0.375,-0.3 0.15,-0.675 0.6,-0.375 0.899999,-1.2 0.3,-0.825 0.75,-1.425 0.15,0.6 -0.149999,1.275 -0.225001,0.75 0.149999,1.275 0.15,-0.15 0.15,-0.225 0,-0.075 0.075,-0.15 0.075,0.3 0.149999,0.45 0.15,0.15 0.3,0.45 0.225,0 0.300001,0.15 0.149999,0.15 0.225,0.3 0.075,0.225 0.15,0.3 0.149999,0.15 0.375,0.075 0.075,0 0.149999,-0.075 0.075,0 0.075,-0.075 0,0 0.075,0 0.300001,0.3 0.225,0.3 0.450001,0 0.75,-0.075 0.3,-0.075 0.75,0 -0.225,0.075 -0.524999,0.15 -0.225001,0.075 -0.225001,0.45 0.075,0.375 0.450001,0.225 0.449999,-0.075 0.599999,-0.45 0.150001,0 0.075,0.225 -0.075,0.225 0.15,0.075 0.15,0.15 0.15,-0.075 0,-0.15 0.075,-0.225 0.825001,-0.15 1.5,-0.45 0.675,-0.225 1.5,-0.225 0.225001,-0.075 0.15,0.075 0,0.15 0,0.225 0.375,0 0.675001,-0.075 0.299999,0 0.599999,-0.225 0,-0.075 -0.075,-0.075 0,0 0.075,-0.15 0.900001,-0.225 1.650001,-0.525 0.75,-0.225 1.5,-0.6 0.15,0 0.15,0.15 0.075,0.15 0.225,0.15 0.449999,-0.15 0.9,-0.3 0.449999,-0.15 0.899999,-0.225 0.15,-0.15 0.225001,-0.225 0.075,0 -0.075,-0.15 0.15,0 0.225,0.075 0.075,0.075 0.225001,0 0.149999,-0.15 0.075,-0.3 -0.075,-0.15 0.150001,-0.225 0.375,0 0.75,-0.225 0.45,-0.15 0.599999,-0.45 0.3,0.15 0.75,-0.075 0.525001,-0.15 0.675001,-0.375 0.3,-0.075 0.375,-0.45 0.149999,-0.375 0.524999,-0.525 0.225001,-0.15 0.3,-0.15 0.150001,0.075 0.300001,0 0.449999,-0.15 0.675,-0.525 0.224999,-0.3 0.524999,-0.45 0.150001,0 0.3,-0.075 0.225001,-0.15 0.3,-0.225 0.15,0 0.450001,-0.15 0.524999,-0.225 0.824999,-0.525 0.375,-0.3 0.675001,-0.375 0.075,-0.15 0.3,-0.075 0.224999,0.075 0,-0.225 0.224999,0.15 0.3,0.225 0.15,0 0.299999,0.15 0.150001,0 0.150001,-0.15 0,-0.15 0.149999,-0.225 0.225001,-0.15 0.45,-0.375 0.3,-0.3 0.6,-0.45 0.075,-0.3 0.3,-0.375 0.300001,-0.075 0.375,-0.3 0.375,0.075 0.6,-0.075 0.3,-0.225 0.75,-0.525 l 0.675,-0.225 q 0.225001,-0.15 0.45,-0.3 0.225,-0.225 0.525001,-0.375 0.375,-0.15 0.525,-0.3 0.225,-0.225 0.525,-0.375 0.524999,-0.15 0.524999,-0.225 0.75,-0.15 0.825,-0.75 -0.075,-0.15 -0.3,0 -0.224999,0.15 -0.375,-0.15 0.975,-0.525 2.25,-1.5 0.225,-0.225 0.450001,-0.375 0.299999,-0.225 0.6,-0.375 0.375,-0.225 0.749999,-0.375 0.375,-0.225 0.600001,-0.825 0.149999,0 0.149999,-0.075 0.075,-0.15 0.225001,-0.075 -0.075,-0.375 0.149999,-0.525 0.3,-0.15 0.45,-0.45 0,-0.15 0.225,-0.375 0,0.075 0.15,-0.075 0.225,-0.15 0.525001,-0.45 0.3,-0.3 0.449999,-0.675 l 0,-0.15 q 0,-0.075 0,-0.075 0.075,0 0.075,-0.075 0.299999,-0.15 0.375,-0.3 0.299999,-0.675 0.6,-1.575 0.3,-0.9 0.525,-1.65 0.15,-0.6 0.299999,-1.275 0.15,-0.75 0.225001,-1.35 -0.075,-0.15 -0.075,-0.75 0.075,-2.025 -1.65,-3.15 -1.725,-1.2 -3.975,-1.65 -0.75,-0.15 -1.424999,-0.225 -0.675,-0.075 -1.425,-0.15 -0.600001,-0.15 -0.75,-0.15 -0.300001,-0.075 -0.45,0 -0.150001,0.075 -0.375,-0.075 -0.375,0.075 -0.75,-0.15 -0.375,0.225 -0.600001,0.15 l -1.125,0 q -0.6,0.075 -1.274999,0.15 -0.600001,0 -1.35,-0.075 -0.600001,0.075 -1.2,0.225 -0.600001,0.075 -0.975001,0.225 -0.15,0 -0.449999,-0.075 -0.300001,-0.15 -0.450001,0 -0.3,0 -0.6,0.075 -0.224999,0 -0.75,0.075 0,0 -0.149999,0.15 -0.075,0 -0.150001,0 0,-0.075 -0.149999,-0.075 -0.375,0.15 -0.9,0.45 -0.525001,0.3 -0.900001,0.45 0,0.075 0.150001,0 0.224999,-0.075 0.299999,-0.075 0,0.225 -0.299999,0.3 -0.3,0.075 -0.375,0 -0.225,-0.15 -0.150001,0.075 0.075,0.15 -0.15,0.15 0,0 -0.299999,0 -0.15,0 -0.225001,0.225 0,0.15 -0.075,0.15 -0.599999,0.225 -0.974999,0.525 -0.375,0.3 -0.975,0.45 -0.9,0.375 -2.100001,0.975 -1.125,0.525 -2.174999,0.9 -0.300001,0.15 -0.525001,0.225 -0.224999,0 -0.375,0.075 -0.375,0.075 -0.525,0.225 -0.075,0.15 -0.299999,0.225 -0.600001,0.225 -1.350001,0.375 -0.674999,0.075 -1.35,0.225 -0.225,1.125 -0.75,1.8 -0.15,0.3 -0.225,0.45 0,0.075 -0.075,0.45 0,0.375 -0.225001,0.75 -0.149999,0.375 -0.149999,0.75 0,0 -0.225001,-0.15 0,-0.15 0.075,-0.225 0.075,-0.075 0.075,-0.375 -0.225,0.225 -0.375,0.45 -0.075,0.15 -0.449999,0.15 0.375,0.225 0.299999,0.45 -0.075,0.225 -0.225,0.6 -0.075,0.6 -0.15,1.125 0,0.525 -0.149999,0.975 -0.075,0.375 -0.075,0.675 0.075,0.3 -0.075,0.6 0,0.3 -0.225,0.525 -0.15,0.225 -0.300001,0.375 -0.075,0.15 0,0.375 0.075,0.225 0.075,0.375 0,0.375 0.075,0.75 0.15,0.3 -0.225,0.525 -0.300001,-0.15 -0.15,-0.45 0.15,-0.375 -0.225,-0.45 -0.15,0.075 -0.075,0.375 0.075,0.225 0.075,0.525 0.075,0 0.075,0.075 0,0.075 -0.075,0.075 0.375,0.15 0.375,0.075 -0.15,0.15 -0.075,0.375 0.075,0.15 0.075,0.3 0,0.75 0.149999,1.425 0.15,0.6 0.525,0.975 0.15,0 0.225,-0.15 0.15,-0.15 0.225001,-0.225 0.075,0.15 0.225,0.225 0.15,0.075 0.299999,0.15 0,0.375 0,0.825 0,0.45 -0.524999,0.675 -0.300001,0 -0.600001,0 -0.299999,0 -0.225,0.45 -0.375,-0.15 -0.6,-0.075 -0.224999,0.075 -0.375,-0.075 -0.599999,-0.15 -1.05,-0.675 -0.45,-0.525 -0.75,-1.125 -0.299999,-0.675 -0.524999,-1.35 -0.225001,-0.75 -0.375,-1.2 -0.075,-0.225 -0.300001,-0.525 -0.15,-0.3 0.075,-0.675 0,-0.15 0,-0.15 0.075,0 0.075,-0.075 0,-0.3 -0.150001,-0.675 -0.15,-0.375 -0.15,-0.75 0,-0.825 -0.075,-1.2 0,-0.6 -0.075,-1.275 0,-0.75 0,-1.575 0,-2.025 0.225001,-3.75 0.149999,-0.3 0.149999,-0.45 0,-0.225 0,-0.375 -0.149999,-0.375 -0.45,-0.6 -0.3,-0.225 -0.599999,-0.6 -0.075,-0.15 -0.075,-0.3 0,-0.225 -0.149999,-0.525 -0.525,-0.525 -0.600001,-0.6 -0.149999,-0.075 0.225001,-0.825 0.149999,-0.15 0.299999,-0.375 0.15,-0.225 0.225,-0.225 0.3,-0.225 0.75,-0.375 0.525,-0.15 0.600001,-0.525 0.075,-0.075 0.225,0 0.224999,0.075 0.449999,0 0.9,-4.275 2.325001,-7.8 1.424999,-3.525 2.774999,-6.9 0.825001,-1.8 1.65,-3.45 0.9,-1.725 1.800001,-3.225 -0.525001,-0.15 -0.825001,0.075 -0.299999,0.225 -0.674999,0.3 -0.75,0.225 -1.575001,0.45 -0.825,0.15 -1.649999,0.375 -0.075,0.075 -0.225001,0.225 -0.075,0.075 -0.375,-0.075 -0.225,0.15 -0.45,0.15 -0.15,0 -0.3,0.075 -0.524999,0.3 -1.125,0.6 -0.6,0.225 -1.125,0.225 -0.149999,-0.15 -0.524999,-0.15 -0.300001,-0.075 -0.450001,-0.15 -1.275,-0.3 -2.1,-0.9 -0.824999,-0.6 -1.574999,-1.35 0.149999,-0.075 0.449999,-0.15 0.300001,-0.075 0.525001,-0.3 0.15,-0.075 0.375,-0.075 0.15,-0.075 0.224999,-0.225 0.45,-0.15 0.675001,-0.45 0.225,-0.3 0.6,-0.525 0.599999,-0.15 0.974999,-0.45 0.375,-0.3 1.050001,-0.45 0.449999,-0.375 0.975,-0.525 0.525,-0.15 1.125,-0.45 1.5,-0.6 2.849999,-1.05 1.425001,-0.45 3.150001,-0.825 0.224999,-0.075 0.599999,-0.15 0.375,-0.15 0.6,-0.225 0.675001,-0.075 1.35,-0.075 0.675,-0.075 1.275,-0.375 0.75,-0.3 0.975,-0.375 0.3,0 0.450001,0.075 0.224999,0 0.375,0 0.599999,0.15 1.275,0 0.75,-0.225 1.35,-0.225 1.049999,-0.15 2.325,-0.225 1.349999,-0.075 2.624999,0.15 0.075,0 0.15,-0.075 0.075,-0.075 0.225,-0.075 0.075,0.225 0.075,0.225 l 0.149999,-0.15 q 0.150001,-0.15 -0.075,-0.15 0.225001,0.075 0.225001,0.225 0,0.075 0.149999,0.15 0.225001,0.075 0.525001,0 0.299999,-0.15 0.525,-0.075 0.824999,0.075 1.649999,0.225 0.825001,0.15 1.5,0.3 1.200001,0.375 2.400001,0.9 1.274999,0.525 2.024999,0.9 0.375,0 0.675,0.3 0.075,0 0.075,0.075 0,0.075 0.075,0.075 0.300001,0.225 0.525001,0.3 0.3,0.075 0.449999,0.3 0.075,0.15 0.15,0.225 0.075,0 0.075,0.075 0,0.075 0.149999,0.075 l 0.075,0 q 0.15,0.15 0.15,0.225 0.075,0.075 0.225,0.15 0.075,0.075 0.15,0.075 0.149999,-0.075 0.149999,0 l 0,0.15 q 0,0.225 0.075,0.225 0.299999,0.225 0.374999,0.225 0.15,-0.075 0.15,0.375 0.075,0.225 0.075,0.15 0.075,-0.15 0.3,0 -0.3,0.075 -0.150001,0.15 0.225001,0.075 0.150001,0 0.149999,0.075 0.149999,0.15 0,0.075 0.225001,0.45 0,-0.15 -0.150001,-0.3 z m -23.025,17.4 q 1.65,-0.6 3.375001,-0.975 1.724999,-0.45 3.45,-0.6 0.449999,-0.15 0.75,-0.225 0.374999,-0.075 0.524999,-0.15 0.3,-0.15 0.6,-0.375 0.3,-0.3 0.675,-0.675 0.675001,-0.525 1.35,-0.9 0.75,-0.375 1.5,-0.825 0.225,-0.225 0.450001,-0.375 0.224999,-0.15 0.449999,-0.525 0.825001,-0.6 1.65,-1.275 0.825,-0.675 1.5,-1.425 1.125,-1.05 2.025001,-2.25 0.974999,-1.275 1.424999,-2.625 0.375,-1.425 0,-2.325 -0.375,-0.975 -1.2,-1.65 -0.224999,-0.15 -0.45,-0.225 -0.149999,-0.075 -0.3,-0.225 l -0.3,-0.15 q -0.15,0 -0.75,-0.075 -0.599999,-0.15 -0.75,-0.225 -0.299999,-0.075 -0.299999,0 0,0 -0.3,-0.075 -0.075,0.075 -0.300001,0.075 -0.225,-0.075 -0.449999,-0.15 l -2.175001,0 -1.124999,0 q -0.225001,0 -0.525,0.075 -0.225,0.075 -0.525001,0.075 0,-0.075 -0.075,0 -0.075,0 -0.15,0.075 l -0.075,0 q -0.149999,0 -0.299999,-0.075 -0.150001,-0.075 -0.225,0 -0.300001,0.075 -0.525,0.15 -0.150001,0.075 -0.375,0.15 -0.150001,0 -0.375,0 -0.150001,-0.075 -0.225001,0.075 -0.824999,0.225 -1.949999,0.3 -1.05,0.075 -2.100001,0.225 -0.524999,0.075 -1.199999,0.15 -0.600001,0.075 -0.675001,0.15 -0.15,0.15 -0.224999,0.525 -0.075,0.375 -0.150001,0.75 -0.375,2.175 -0.974999,4.2 -0.525001,2.025 -0.900001,4.35 -0.15,0.6 -0.3,1.2 -0.149999,0.6 -0.375,1.275 -0.375,0.75 -0.6,1.5 -0.15,0.75 -0.449999,1.275 -0.300001,0.6 -0.525001,1.2 -0.15,0.6 -0.15,1.275 0.6,-0.15 1.275,-0.3 0.75,-0.225 1.35,-0.375 z m 23.175001,-11.4 q 0.075,0.075 0.149999,-0.225 0.075,-0.3 -0.075,-0.225 -0.150001,0.15 -0.150001,0.3 0.075,0.075 0.075,0.15 z m 3.149999,11.775 q -0.899999,-0.525 -1.875,-0.825 -0.899999,-0.3 -2.025,-0.525 0.975,0.375 1.950001,0.825 0.974999,0.375 1.949999,0.525 z m 1.125,0.525 q -0.299999,-0.15 -0.524999,-0.3 -0.225001,-0.225 -0.375,-0.3 0.225,0.225 0.375,0.45 0.225,0.15 0.524999,0.15 z m -23.999999,3.45 q -0.45,0.3 -0.825001,0.3 -0.075,0 -0.075,0.225 -0.150001,0.225 -0.450001,0.3 -0.225,0 -0.075,0.225 0.6,-0.375 1.125,-0.675 0.525001,-0.3 1.125,-0.525 -0.449999,-0.15 -0.599999,0 -0.075,0.075 -0.225,0.15 z m -2.25,1.275 q 0.375,0.075 0.674999,-0.225 -0.15,0 -0.374999,0.075 -0.150001,0.075 -0.3,0.15 z m -2.625,1.275 q 0.375,-0.15 0.75,-0.225 0.449999,-0.15 0.6,-0.225 0.375,-0.15 0.449999,-0.225 0.15,-0.075 0.375,-0.15 0.15,-0.075 0.300001,-0.075 0.224999,0 0.075,-0.375 -0.674999,0.375 -1.275,0.6 -0.524999,0.225 -1.274999,0.675 z m -8.100001,9.6 q -0.075,-0.075 0.15,-0.075 0,-0.225 0.075,-0.375 0.075,-0.225 0.075,-0.45 0.075,-0.075 0.300001,-0.45 0.225,-0.375 -0.15,-0.45 -0.075,0.675 -0.300001,1.05 -0.15,0.3 -0.15,0.75 z m 28.35,12.9 q 0.375,-0.15 0.600001,-0.45 0.225,-0.225 0.45,-0.375 -0.375,0.15 -0.600001,0.225 -0.224999,0.15 -0.45,0.6 z m -0.6,0 q -0.15,0.225 -0.525,0.45 -0.3,0.225 -0.375,0.45 0.15,-0.15 0.45,-0.3 0.3,-0.075 0.45,0.075 0,-0.375 0.225,-0.375 0.225001,0.075 0.300001,-0.3 l -0.525001,0 z M 66.642188,0.9 q -0.600001,0.375 -1.275001,0.825 -0.599999,0.45 -1.275,0.825 -0.374999,0.15 -0.675,0.225 -0.224999,0.15 -0.375,0.3 -0.224999,0.075 -0.375,0.3 -0.075,0.225 -0.45,-0.075 -0.149999,0.3 -0.449999,0.375 -0.225001,0.15 -0.3,0.375 0.524999,0.075 0.824999,-0.15 0.375,-0.225 0.6,-0.6 0.45,0.15 0.6,-0.075 0.15,-0.225 0.525001,-0.525 0.3,-0.15 0.449999,-0.15 0.225001,0.075 0.375,0 0.075,-0.15 0.075,-0.225 0,-0.075 0.075,-0.15 0.150001,-0.075 0.375,-0.15 0.225,0 0.375,-0.15 0,-0.225 0.075,-0.375 0.149999,-0.075 0.149999,0 0.075,0.15 0.225001,0 0.375,-0.15 0.674999,-0.6 l -0.224999,0 z m -2.175001,2.625 q 0.45,0 0.675001,-0.3 0.224999,-0.075 0.449999,-0.375 0.300001,-0.225 0.45,-0.225 0.3,-0.075 0.600001,-0.075 0.3,0.075 0.3,-0.375 -0.825001,0.075 -1.425,0.45 -0.525001,0.375 -1.050001,0.9 z m 1.5,-0.525 q 0.15,0 0.225001,-0.075 0.075,-0.075 0.224999,-0.15 -0.45,-0.15 -0.45,0.225 z m -0.524999,0.3 q 0.075,-0.075 0.149999,-0.15 0.075,0 -0.075,0 l -0.075,0.075 q -0.075,0 -0.075,0 0,0.075 0.075,0.075 z m -4.950001,1.125 q 0.3,0.15 0.375,-0.225 -0.149999,-0.15 -0.375,0.225 z m -1.875,0.375 q -0.15,-0.15 -0.225,-0.15 -0.15,0 -0.225,0.15 0,0.15 -0.075,0.3 0.45,-0.075 0.825,-0.45 0.45,-0.3 0.975001,-0.675 -0.525001,0.15 -0.750001,0.45 -0.15,0.375 -0.449999,0.45 l -0.075,-0.075 z m 1.575001,-0.15 q 0,-0.075 0.15,-0.15 0.225,0 0.075,-0.075 -0.075,0.075 -0.224999,0.075 -0.150001,0.075 0,0.15 z m -1.875,0.9 q -0.075,0 -0.450001,0.075 -0.299999,0.15 -0.15,0.3 0.600001,-0.3 1.125001,-0.6 0.6,-0.3 1.199999,-0.45 0,-0.225 0,-0.225 -0.3,0.15 -0.824999,0.45 -0.525,0.3 -0.9,0.45 z m -2.025001,0.3 q 0.975001,-0.15 1.575,-0.6 -0.375,0.075 -0.899999,0.225 -0.525,0.15 -0.675001,0.375 z m -1.574999,0 q 0.375,0 0.75,-0.45 -0.225001,0.15 -0.525,0.15 -0.300001,0.075 -0.225,0.3 z m 0.449999,0.3 q 0.375,0 0.525001,-0.225 -0.450001,0 -0.525001,0.225 z M 54.192188,6 q 0,0 0.375,-0.15 -0.525001,0 -0.375,0.15 z m 0.9,0.3 q 0,0 0,-0.15 0,0 0,0.15 z m -0.600001,0.3 q 0.15,0 0.3,-0.15 0.150001,-0.15 0,-0.225 -0.075,0.075 -0.15,0.075 -0.075,0.075 -0.15,0.3 z m -1.125,0 q 0,-0.15 0.150001,-0.15 0.224999,0 0.075,-0.15 -0.15,0.15 -0.300001,0.15 -0.075,0 0.075,0.15 z m -0.975,-0.15 q 0.450001,0 0.525,-0.15 -0.149999,0 -0.3,0 -0.149999,0 -0.225,0.15 z m 1.875,0.3 q 0,-0.075 0.075,-0.075 0.149999,0.075 0,-0.075 0,-0.15 -0.15,-0.075 -0.075,0.15 0.075,0.225 z M 39.717188,6.6 q 0,-0.225 -0.075,-0.225 0.075,0.15 -0.15,0.075 -0.149999,-0.075 -0.075,0.15 l 0.300001,0 z m 30.225,-4.8 q 0.225,0.075 0,0.075 -0.15,0.075 -0.3,0.225 -0.150001,0 0,-0.15 0.224999,-0.075 0.3,-0.15 z m -0.825001,0.375 q 0.075,0 0,0.15 -0.075,0.225 -0.224999,0.225 0,-0.225 0.075,-0.225 0.075,0 0.15,-0.15 z m -13.875,4.95 q -0.524999,0.45 -1.575,0.825 -0.375,0 -0.599999,0.15 -0.225,0.225 -0.375,0.375 -0.225,-0.075 -0.6,-0.075 -0.375,0.075 -0.600001,0.15 -0.224999,0.15 -0.6,0.3 -0.225,0.075 -0.449999,0.075 -0.150001,0 -0.6,0.075 -0.225001,0.15 -0.75,0.3 -0.450001,0.225 -1.050001,0.075 0.300001,-0.225 0.675001,-0.3 0.375,-0.075 0.824999,-0.15 l 0.150001,0 q 0.599999,0 1.199999,-0.3 0.6,-0.225 1.200001,-0.525 0.225,-0.075 0.6,-0.075 0.15,-0.075 0.15,-0.225 0.075,-0.075 0.149999,-0.15 l 0.375,0 q 0.3,-0.075 0.375,-0.225 0.15,-0.15 0.3,-0.225 l 0.900001,0 q 0.15,0 0.15,-0.15 0,-0.15 0.149999,0.075 z"
         style="font-size:75px;font-family:Freeland;fill:#f07873"
         id="path3423" /><path
         d="m 116.08359,-13.05 q 0.6,0.15 0.825,1.05 0.225,0.9 -0.525,1.65 -0.15,0.375 -0.525,0.9 -0.3,0.45 -0.6,0.825 -0.15,0.15 -0.6,0.45 -0.375,0.225 -0.375,0.375 -0.225,0.075 -0.675,0.525 -0.375,0.45 -0.525,0.525 -0.15,0.075 -0.75,0.525 -0.525,0.375 -0.75,0.525 -0.825,0.375 -1.05,0.75 -0.15,0.3 -0.9,0.825 -0.525,0.15 -1.2,0.45 -0.675,0.225 -1.05,0.6 -0.525,0.375 -0.975,0.375 -0.45,0 -0.825,0.6 -0.45,-0.075 -0.975,0.225 -0.525,0.225 -1.2,0.375 -0.375,0.15 -0.9,0.225 -0.45,0.075 -0.9,0.075 -1.649996,0.75 -3.449996,0.75 -0.975,0.225 -2.325,0 -0.225,-0.075 -0.45,-0.075 -0.15,-0.075 -0.375,-0.075 -0.675,-0.3 -1.425,-0.3 -0.675,-0.075 -1.275,-0.3 -0.075,0 -0.525,-0.15 -0.375,-0.225 -0.825,-0.375 -0.45,-0.225 -0.9,-0.375 -0.375,-0.225 -0.45,-0.225 -0.375,-0.15 -0.675,-0.525 -0.3,-0.45 -0.6,-0.9 -0.225,-0.525 -0.525,-0.9 -0.3,-0.45 -0.6,-0.675 -0.15,-0.075 -0.3,0 -0.225,0 -0.375,-0.075 -0.225,-0.15 -0.3,-0.45 -0.15,-0.3 -0.225,-0.45 -0.15,-0.675 0.15,-1.2 0.3,-0.6 0.075,-0.975 0.15,-0.075 0.3,-0.075 0.15,-0.075 0.3,-0.3 -0.45,-0.375 -0.375,-1.05 0,-0.75 0.3,-1.5 0.225,-0.75 0.525,-1.425 0.3,-0.675 0.45,-1.05 0.075,-0.45 0.075,-0.75 0,-0.3 0.075,-0.525 0.15,-0.225 0.375,-0.375 0.3,-0.225 0.45,-0.375 0.15,-0.6 0.525,-1.125 0.375,-0.75 1.125,-1.5 0.75,-0.825 1.575,-1.725 0.3,-0.45 0.75,-0.75 0.45,-0.375 0.975,-0.9 0.6,-0.225 0.975,-0.45 0.375,-0.3 0.9,-0.675 1.125,-0.9 2.4,-0.825 1.275,0.075 2.324996,0.3 0.375,0.075 0.45,0.375 0.15,0.3 0.375,0.375 0.15,0.15 0.225,0.075 0.15,-0.15 0.375,-0.15 0.45,0.15 1.05,0.45 0.6,0.3 1.125,0.675 0.6,0.375 0.975,0.75 0.45,0.375 0.525,0.675 0.075,0.15 0.225,0.3 0.15,0.15 0.225,0.3 0.3,1.05 -0.075,1.575 -0.3,0.45 -0.45,0.975 -0.6,0.675 -1.125,1.05 -0.45,0.375 -0.825,0.9 0,0.15 -0.45,0.45 -0.375,0.3 -0.45,0.525 -0.6,0.525 -1.425,0.975 -0.75,0.375 -1.424996,0.975 -0.075,0.15 -0.375,0.375 -0.3,0.15 -0.675,0.375 -0.45,0.3 -0.975,0.6 -0.15,0.15 -0.45,0.225 -0.3,0.075 -0.45,0.225 -0.225,0.15 -0.6,0.6 -0.375,0.375 -0.975,0.6 -0.15,0.15 -0.375,0.15 -0.225,-0.075 -0.3,0.075 -0.375,0.15 -0.75,0.525 -0.375,0.375 -0.9,0.3 -0.15,0.3 -0.3,0.9 -0.075,0.6 0,1.275 0.15,0.675 0.525,1.275 0.45,0.525 1.425,0.6 0.15,0 0.75,0.15 0.6,0.15 0.825,0.3 1.2,0.075 2.625,-0.15 1.499996,-0.3 2.774996,-0.525 2.85,-0.675 5.55,-1.95 2.7,-1.275 4.725,-2.625 0.375,-0.3 0.45,-0.3 0.15,-0.075 0.45,-0.225 0.3,-0.15 0.9,-0.525 0.6,-0.45 1.125,-0.9 0.6,-0.525 1.05,-1.05 0.45,-0.6 0.45,-1.05 z m -21.524996,0.75 q 1.275,-0.675 2.4,-1.725 1.125,-1.05 2.4,-1.875 0.45,-0.375 0.899996,-0.825 0.525,-0.45 0.675,-0.825 0.15,-0.3 0.075,-0.6 -0.075,-0.3 -0.075,-0.375 -0.225,-0.075 -0.45,-0.075 -0.075,0 -0.075,0.075 -1.799996,0.975 -3.374996,2.7 -1.575,1.65 -2.85,3.375 0,0.225 0.15,0.225 0.075,0 0.225,-0.075 z"
         style="font-size:75px;font-family:Freeland;fill:#f07873"
         id="path3425" /><path
         d="m 129.54023,-30.675 q 0.225,0 0.225,0.375 0,0.375 -0.075,0.75 -0.15,0.525 -0.3,0.9 -0.15,0.375 -0.525,0.45 0.3,-0.45 0.375,-1.2 0.075,-0.75 0.3,-1.275 z m -10.95,0.675 q 0.15,0.15 0.075,0.225 -0.075,0.075 -0.075,0.15 -0.075,-0.075 0,-0.375 z m -1.2,5.775 q -0.075,0.075 -0.15,0.225 0,0.15 0.15,0.15 -0.15,0.375 -0.3,0 -0.075,-0.375 0.3,-0.375 z m 0.225,1.725 q 0,0 0.15,0.075 l 0.075,0 q 0.15,0.6 0,0.375 -0.15,-0.225 -0.225,0.15 -0.3,-0.075 -0.15,-0.225 0.225,-0.15 0.15,-0.375 z m -0.075,2.4 q 0.15,0.15 0.075,0.375 -0.075,0.15 -0.225,0.3 -0.225,-0.075 0,-0.225 0.225,-0.225 0.15,-0.45 z m -0.9,4.2 q 0.45,0.15 0.15,0.3 -0.15,0 -0.15,-0.075 0.075,-0.15 0,-0.225 z m 0,1.425 q 0.375,0 0.375,0.45 0,0.375 -0.375,0.45 0,-0.375 0,-0.45 0.075,-0.075 0,-0.45 z m -0.3,12.6 q 0.075,-0.3 0.075,0.075 0,0.3 -0.075,0.3 0,0.15 -0.075,0.075 -0.075,-0.075 0.075,-0.45 z m 2.55,-22.35 q -0.15,0.75 -0.375,1.275 -0.15,0.45 0,1.275 0.375,-1.05 0.675,-2.175 0.3,-1.125 0.15,-1.95 0,-0.15 -0.15,-0.15 -0.075,-0.075 -0.075,-0.15 0,-0.15 0.15,-0.15 0.15,0 0.15,-0.15 0.15,-0.675 0,-1.5 -0.075,-0.825 0.375,-1.725 -0.15,-0.15 -0.375,0.075 -0.15,0.225 -0.3,0.15 0.3,-1.275 0.525,-2.55 0.3,-1.275 0.45,-2.55 -0.525,0.9 -0.75,2.1 -0.225,1.125 -0.6,2.175 -0.375,-0.525 -0.075,-0.9 0.3,-0.45 0.375,-0.825 0.15,-0.6 0.075,-1.2 0,-0.6 0.525,-0.975 -0.225,-0.975 0.15,-2.1 0.45,-1.2 0.525,-2.325 -0.375,0.15 -0.375,0.525 0,0.375 -0.15,0.675 0.15,-0.975 0.45,-1.95 0.3,-0.975 0.45,-2.025 0.45,-1.95 1.05,-3.825 0.6,-1.95 1.2,-3.9 0.375,-1.35 0.9,-2.4 0.6,-1.05 0.525,-2.55 0.3,0.3 0.45,0.15 0.225,-0.225 0.45,-0.225 0.075,-0.075 0.075,0.075 0.075,0.075 0.375,0.075 0.15,0 0.075,-0.15 0,-0.15 0.3,0 0.525,0.15 1.275,0.75 0.825,0.6 1.425,0.975 0.375,0.375 1.05,0.9 0.675,0.45 0.825,1.05 0,0.3 -0.15,0.825 -0.15,0.525 -0.3,1.05 -0.075,1.275 -0.15,2.175 -0.075,0.9 -0.15,1.875 -0.15,1.875 -0.225,3.825 0,1.875 -0.3,2.925 -0.075,0.225 -0.225,0.45 -0.15,0.15 -0.15,0.3 -0.15,0.525 0,1.05 0.225,0.45 -0.075,0.825 0.075,0.075 0.225,0.3 0.15,0.15 0.15,0 0.15,0.075 -0.075,0.375 -0.15,0.225 -0.225,0.375 0.075,0.15 0.15,0.45 0.075,0.3 0.075,0.675 0,0.15 -0.15,0.3 -0.15,0.15 -0.15,0.225 0,0.15 0,0.3 0.075,0.15 0.075,0.3 0.15,1.05 -0.375,2.1 -0.45,1.05 -0.45,2.1 0.075,0.15 0.225,0.15 0.15,0 0.225,0 0.15,-0.075 0.225,0 0.15,0 0.075,0.3 0.45,-0.45 1.125,-0.45 0.675,-0.075 0.825,-0.825 -0.15,-0.15 -0.375,0.075 -0.225,0.225 -0.525,0.075 0.225,-0.3 0.6,-0.375 0.45,-0.075 0.6,0.3 0.225,-0.075 0.375,-0.15 0.225,-0.15 0.45,-0.3 -0.075,-0.3 -0.3,-0.075 -0.225,0.225 -0.525,0.075 0.3,-0.3 0.675,-0.375 0.375,-0.075 0.75,-0.15 0.375,-0.075 0.675,-0.15 0.375,-0.15 0.6,-0.525 -0.075,-0.375 -0.225,-0.075 -0.075,0.225 -0.15,0.075 0.975,-1.05 2.25,-1.8 1.275,-0.75 2.55,-1.5 0.375,-0.3 0.825,-0.6 0.525,-0.3 0.675,-0.6 0,-0.3 0,-0.3 0.075,-0.15 0.3,-0.225 0.3,-0.075 0.45,-0.225 0.075,-0.15 0,-0.3 0,-0.15 0.15,-0.3 0.15,-0.15 0.675,-0.375 0.6,-0.225 0.9,-0.525 0.225,-0.15 0.45,-0.45 0.225,-0.3 0.525,-0.525 0.3,-0.3 0.6,-0.375 0.3,-0.15 0.675,-0.3 0.15,-0.225 0.225,-0.45 0.075,-0.3 0.225,-0.45 0.225,-0.3 0.6,-0.375 0.45,-0.15 0.75,-0.45 0.15,-0.225 0.225,-0.525 0.075,-0.375 0.3,-0.6 0.3,-0.225 0.675,-0.3 0.375,-0.075 0.45,-0.45 0.525,0.075 0.9,0.3 0.375,0.225 0.75,0.375 0.225,0.075 0.375,0.075 0.225,-0.075 0.45,0 0.525,0.3 1.35,0.825 0.825,0.525 1.5,0.825 0.15,0.15 0.525,0.375 0.45,0.225 0.825,0.525 0.45,0.225 0.75,0.525 0.375,0.225 0.375,0.45 0.15,0.375 -0.225,0.675 -0.3,0.225 -0.675,0.675 -0.375,0.6 -0.675,0.9 -0.225,0.3 -0.825,0.525 -0.375,0.225 -0.75,0.45 -0.3,0.225 -0.675,0.45 -0.375,0.225 -0.75,0.45 -0.3,0.15 -0.75,0.3 -0.3,0.3 -0.6,0.45 -0.3,0.15 -0.675,0.375 -0.15,0.15 -0.3,0.3 -0.075,0.15 -0.15,0.225 -0.3,0.225 -0.6,0.375 -0.225,0.075 -0.45,0.225 -0.225,0.15 -0.375,0.375 -0.15,0.15 -0.375,0.375 -0.75,0.6 -1.425,0.825 -0.6,0.225 -1.425,0.825 -0.525,0.45 -0.825,0.6 -0.225,0.15 -0.825,0.525 -0.825,0.375 -1.65,0.9 -0.825,0.525 -1.425,0.975 -0.375,0.225 -0.675,0.375 -0.225,0.075 -0.45,0.375 -0.6,0.375 -1.2,0.75 -0.6,0.375 -1.2,0.75 -0.6,0.6 -1.125,1.125 -0.525,0.45 -1.2,0.675 -0.375,0.3 -0.75,0.45 -0.375,0.075 -0.675,0.3 -0.3,0.225 -0.45,0.525 -0.075,0.3 -0.3,0.45 -0.15,0 -0.375,0 -0.15,-0.075 -0.225,0 -0.6,0.3 -0.975,0.6 -0.3,0.225 -0.675,0.375 1.65,2.25 3.375,5.025 1.725,2.7 3.675,5.175 0.075,0.075 0.075,0.225 0,0.15 0.075,0.225 0.15,0.15 0.3,0.15 0.15,0 0.3,0.15 0.225,0.375 0.375,0.825 0.225,0.375 0.6,0.675 0.975,1.35 2.175,2.775 1.275,1.35 2.325,2.7 0.375,0.6 0.525,1.05 0.225,0.45 0.75,1.125 0.45,0.6 1.125,1.35 0.75,0.75 0.675,1.2 -0.15,0.675 -0.825,0.675 -0.675,0.075 -1.575,-0.225 -0.825,-0.3 -1.65,-0.825 -0.75,-0.45 -1.125,-0.75 -0.75,-0.375 -1.05,-0.6 -0.3,-0.225 -0.975,-0.9 -0.3,-0.225 -0.525,-0.525 -0.15,-0.3 -0.3,-0.45 l -0.75,-0.75 q -0.3,-0.375 -0.675,-0.675 -0.3,-0.375 -0.675,-0.75 -0.45,-0.525 -0.9,-1.05 -0.375,-0.525 -1.05,-0.375 -1.425,-1.95 -3.15,-3.675 -1.725,-1.725 -3.225,-3.525 -0.225,0.6 -0.375,1.725 -0.15,1.05 -0.375,2.175 -0.225,0.675 -0.375,1.425 -0.075,0.75 -0.075,1.2 -0.3,0 -0.3,0.225 -0.075,0.225 -0.075,0.3 0.075,0 -0.375,-0.075 -0.225,0.75 -0.3,1.575 0,0.75 -0.225,1.65 0,0.45 -0.225,0.825 -0.225,0.375 -0.225,0.675 0,0.15 0.075,0.3 0.15,0.225 0.15,0.375 0.075,1.95 -0.525,3.75 -0.525,1.875 -0.525,3.825 -0.675,0.075 -0.675,0.975 -1.05,0.3 -2.1,0.3 -0.975,0.075 -1.575,-0.525 -0.15,-0.225 -0.45,-0.6 -0.225,-0.3 -0.375,-0.675 -0.15,-0.15 -0.375,-0.225 -0.15,-0.075 -0.3,-0.225 -0.375,-0.75 -0.75,-1.95 -0.3,-1.125 -0.45,-2.025 0.375,0 0.225,0.375 -0.075,0.45 0.3,0.45 0.15,-0.3 -0.15,-0.9 -0.225,-0.6 -0.075,-1.2 0,-0.15 0.075,-0.3 0.075,-0.15 0.075,-0.3 0,-0.15 -0.15,-0.375 -0.15,-0.15 -0.15,-0.3 0,-0.075 0.15,-0.225 0.15,-0.075 0.15,-0.225 -0.3,-0.45 -0.15,-1.05 -0.075,-0.375 -0.075,-0.675 0.075,-0.3 -0.075,-0.675 0.375,1.05 0.375,2.1 0.075,1.05 0.45,1.875 0.075,-0.3 0.075,-0.9 0,-0.6 -0.375,-0.825 0.525,-0.975 0.15,-2.1 -0.3,-1.125 -0.15,-2.325 0,-0.15 0.075,-0.15 0.15,-0.075 0.15,-0.225 0.075,-1.05 0.075,-1.95 0,-0.9 0,-1.875 0,-1.35 0.15,-3.075 0.225,-1.8 0.075,-3.45 0,-0.075 -0.075,-0.225 -0.075,-0.15 -0.075,-0.3 0,-0.075 0.075,-0.225 0.075,-0.15 0.075,-0.3 0.375,-0.975 0.3,-2.4 -0.075,-1.425 0.075,-2.25 0,-0.15 0.15,-0.15 l 0.15,0 q 0,-0.075 -0.15,-0.3 -0.075,-0.225 0.525,-0.225 0,-0.3 -0.225,-0.225 -0.225,0 -0.375,-0.225 0.15,-0.3 0.15,-0.525 0.075,-0.3 0.45,-0.375 -0.375,-0.375 -0.15,-0.675 0.225,-0.3 0.375,-0.675 0.075,-0.3 -0.075,-0.6 -0.075,-0.375 0.3,-0.3 z m 1.575,-10.575 q -0.15,0.525 -0.3,1.05 -0.075,0.45 -0.075,0.975 -0.15,0.375 -0.225,0.825 0,0.375 0.15,0.6 0.525,-1.5 0.825,-3.3 0.375,-1.8 0.525,-3.45 -0.3,0.825 -0.525,1.65 -0.225,0.825 -0.375,1.65 z m -0.15,-0.45 q -0.075,-0.15 -0.075,-0.225 0.075,-0.075 0,-0.15 0,0.15 -0.15,0.075 -0.075,-0.075 -0.15,0.075 0.225,0 0.15,0.15 0,0.15 0.225,0.075 z m -2.1,16.275 q 0,-0.075 0,-0.3 0,-0.3 -0.15,-0.075 -0.075,0.375 0,0.45 0.075,0.075 0.15,-0.075 z m -0.225,0.9 q 0.15,-0.075 0.075,-0.225 0,-0.15 -0.075,0 -0.15,0.15 -0.075,0.3 0.075,0.075 0.075,-0.075 z m 0.975,-10.35 q 0.15,0.3 0,0.525 -0.075,0.225 -0.225,0.6 -0.075,0.3 0,0.75 0.075,0.45 -0.45,0.6 0.225,-0.6 0.375,-1.2 0.15,-0.675 0.3,-1.275 z"
         style="font-size:75px;font-family:Freeland;fill:#f07873"
         id="path3427" /><path
         d="m 189.35859,-12.075 q 0,0.375 -0.225,0.825 -0.15,0.45 -0.45,0.975 -0.3,0.525 -0.675,0.975 -0.3,0.45 -0.45,0.675 -0.45,0.825 -1.575,2.1 -1.125,1.275 -2.175,2.025 -0.225,0.225 -0.45,0.6 -0.225,0.3 -0.45,0.45 -0.375,0.15 -0.675,0.45 -0.225,0.3 -0.525,0.45 -0.3,0.225 -0.45,0.375 -0.15,0.075 -0.45,0.375 -0.15,0.075 -0.375,0.075 -0.225,-0.075 -0.375,0.075 -0.075,0.15 -0.075,0.3 0,0.075 -0.075,0.15 -2.175,1.725 -4.275,2.1 -2.1,0.45 -3.375,0.525 -2.7,0 -4.65,-0.375 -1.875,-0.375 -3.15,-1.35 -1.2,-0.975 -1.875,-2.625 -0.6,-1.725 -0.675,-4.275 -0.375,-0.375 -0.675,0 -0.225,0.375 -0.525,0.6 -0.3,0.45 -0.825,1.125 -0.525,0.675 -1.2,1.35 -0.6,0.675 -1.35,1.275 -0.675,0.525 -1.35,0.6 -0.975,0.15 -2.175,-0.225 -1.275,-0.45 -2.325,-0.825 -1.05,-0.525 -1.425,-1.2 -0.45,-0.675 -1.05,-1.725 0.3,-0.375 0.225,-1.05 -0.075,-0.75 0.45,-0.825 0.15,-0.45 -0.075,-0.6 -0.225,-0.15 -0.15,-0.6 1.125,-1.875 2.1,-3.675 0.975,-1.875 2.4,-3.225 1.05,-0.9 1.95,-1.65 0.825,-0.6 1.5,-1.05 0.75,-0.45 0.975,-0.375 0.675,-0.075 1.125,-0.525 0.525,-0.45 1.125,-0.825 0.525,-0.3 1.125,-0.525 0.675,-0.225 1.2,-0.6 1.125,0.075 1.8,0.675 0.675,0.525 1.725,0.825 0.6,-0.45 0.825,-1.275 0.225,-0.825 0.825,-1.35 2.175,-0.375 3.675,0.375 1.575,0.675 2.4,1.95 0.15,1.125 -0.15,2.25 -0.225,1.05 -0.675,2.175 -0.45,1.05 -1.05,2.175 -0.6,1.05 -1.05,2.175 -0.15,0.375 -0.375,0.9 -0.15,0.525 -0.3,0.975 -0.375,1.05 -0.75,2.4 -0.3,1.35 -0.3,2.85 0,0.825 0.225,1.725 0.225,0.9 0.675,1.5 0.975,0.375 1.725,0.375 0.825,0 1.5,-0.225 0.75,-0.225 1.425,-0.6 0.75,-0.45 1.575,-0.9 0.675,-0.45 1.05,-0.675 0.375,-0.225 0.6,-0.45 0.3,-0.225 0.525,-0.45 0.3,-0.225 0.75,-0.6 0.15,-0.15 0.225,-0.375 0.075,-0.225 0.225,-0.375 0.15,-0.075 0.3,-0.15 0.15,-0.075 0.3,-0.15 0.6,-0.525 1.5,-1.35 0.975,-0.825 1.95,-1.725 1.05,-0.9 1.95,-1.725 0.975,-0.825 1.575,-1.35 0.525,-0.45 0.975,-0.525 0.45,-0.15 0.75,0.225 l 0,0.375 z m -25.2,-4.575 q 0.15,0 0.075,-0.15 0,-0.15 -0.375,-0.15 -2.4,1.575 -4.125,3.825 -1.65,2.25 -3.225,4.65 1.725,-0.6 2.925,-2.025 1.275,-1.425 2.325,-2.55 0.675,-0.825 1.35,-1.65 0.75,-0.9 1.05,-1.95 z"
         style="font-size:75px;font-family:Freeland;fill:#f07873"
         id="path3429" /><path
         d="m 223.64648,-6.675 q -0.225,0.15 -0.9,0.525 -0.6,0.375 -1.35,0.75 -0.825,0.45 -1.8,0.9 -0.375,0.15 -0.9,0.45 -0.525,0.225 -1.05,0.45 -0.45,0.225 -0.9,0.375 -0.45,0.15 -0.675,0.075 -0.975,0.6 -1.725,0.75 -0.675,0.15 -2.1,0.6 -0.525,0.225 -0.75,0.3 -0.15,0.075 -0.3,0.15 -0.075,0.075 -0.225,0.15 -0.075,0 -0.525,0.15 l -1.275,0.45 q -0.225,0.075 -0.75,0.3 -0.525,0.15 -0.675,0.225 -0.15,0 -0.675,0.075 -0.525,0.15 -0.675,0.3 -0.675,0.375 -0.975,0.3 -0.225,0 -0.45,-0.075 -0.15,-0.075 -0.375,-0.075 -0.225,0 -0.825,0.3 -0.675,0.45 -1.425,0.675 -0.75,0.225 -1.35,0.375 -1.05,0.375 -2.325,0.6 -1.2,0.3 -2.475,0.3 -0.675,0 -1.35,-0.075 -0.6,-0.075 -1.275,-0.375 -0.45,-0.375 -0.825,-0.825 -0.3,-0.45 -1.125,-0.6 -0.225,0.15 -0.3,0.375 -0.075,0.3 -0.225,0.525 -0.525,0.6 -1.125,0.825 0,0.525 -0.15,0.825 -0.15,0.3 -0.3,0.525 -0.15,0.3 -0.3,0.6 -0.075,0.3 0.075,0.75 -0.825,0.825 -1.125,1.8 -0.225,1.05 -0.6,2.325 -0.375,1.05 -0.825,2.175 -0.45,1.125 -0.825,2.325 -0.075,-0.9 0.225,-1.875 0.225,-0.9 0.6,-1.8 0.3,-0.9 0.6,-1.8 0.225,-0.9 0.225,-1.725 0.15,-0.3 0.3,-0.825 0.225,-0.45 0.375,-0.825 -0.225,-0.3 -0.375,0.15 -0.15,0.525 -0.3,0.675 -0.225,0.375 -0.3,0.675 -0.075,0.375 -0.15,0.6 -0.6,1.05 -0.9,1.95 -0.3,0.9 -0.675,2.175 -0.075,0.225 -0.075,0.525 0,0.15 -0.075,0.3 -0.3,0.45 -0.45,0.9 -0.15,0.45 -0.375,1.05 -0.075,0.9 -0.375,1.425 -0.075,0.45 -0.075,1.05 0,0.675 -0.075,1.2 -0.075,0.375 -0.225,0.675 -0.15,0.3 -0.3,0.675 -0.375,2.625 -0.375,4.95 0,2.325 -0.15,4.425 0.15,0 0.15,0.15 0,0.225 0,0.3 0.15,0.075 0.15,-0.15 0.15,-0.3 0.225,-0.225 0.075,0.075 0,0.3 -0.075,0.15 -0.075,0.375 0,0.225 -0.225,0.15 0.15,0.825 0.375,1.425 0.15,0.675 0.3,1.65 0.15,0.375 0.3,0.825 0.075,0.525 0.225,1.35 -1.35,0.75 -2.1,0.075 -0.825,-0.6 -1.425,-2.1 -0.75,-1.725 -0.75,-2.925 -0.45,-1.275 -0.45,-3.225 -0.075,-1.875 -0.15,-3.75 0.15,-5.325 1.05,-10.2 0.825,-4.875 2.1,-9.45 0.825,-4.5 2.175,-8.625 1.35,-4.125 2.775,-8.4 0.9,-2.325 1.425,-4.35 0.6,-2.1 0.975,-4.275 -0.075,-0.075 -0.075,-0.15 l 0,-0.075 q -0.075,-1.125 -0.225,-2.1 -0.075,-1.05 -0.45,-2.1 1.2,-0.225 2.175,-0.075 1.05,0.075 1.875,0.9 -0.075,-0.075 0.3,0.075 0.375,0.15 0.825,0.375 0.45,0.225 0.75,0.525 0.375,0.225 0.15,0.45 0.15,-0.3 0.3,-0.15 0.15,0.075 0.525,0.225 -0.15,0.375 0.075,0.6 0.225,0.225 0.3,1.05 0.15,0.225 0.375,0 0.225,-0.225 0.3,0.225 -0.075,0.375 0.3,0.525 0.375,0.075 0.45,0.45 0.225,0.825 0.075,1.8 -0.15,0.9 -0.15,1.725 0.9,-0.3 2.1,-0.675 1.275,-0.45 2.625,-0.75 1.425,-0.375 2.925,-0.525 1.575,-0.15 3.075,0 0.9,0.3 1.725,0.525 0.825,0.15 1.425,0.75 0.375,0.15 0.45,0.375 0.15,0.15 0.3,0.15 l 1.65,0.975 q 0.075,0.075 0.075,0.225 0,0.15 0.075,0.3 0.225,0.075 0.45,0.6 0.3,0.525 0.45,1.05 0.225,1.125 0,3.075 -0.15,1.95 -1.8,3.9 0.3,0 0.075,0.375 -0.15,0.375 -0.45,0.9 -0.225,0.45 -0.45,0.825 -0.15,0.375 0.225,0.375 0.75,-0.075 2.625,-0.75 1.875,-0.75 4.05,-1.725 2.25,-1.05 4.35,-2.175 2.1,-1.125 3.375,-2.175 0.225,-0.15 0.525,-0.3 0.6,-0.3 0.75,-0.15 0.075,0.15 -0.075,0.6 -0.15,0.45 -0.3,1.05 -0.225,0.675 -0.525,1.5 -0.6,0.675 -0.825,0.975 -0.225,0.225 -0.3,0.3 -0.075,0.075 -0.075,0.075 0,-0.075 -0.225,0.15 -0.375,0.375 -1.275,0.975 -0.9,0.6 -1.275,0.9 z m -14.1,-6.75 q 0.15,-0.15 0.45,-0.6 0.375,-0.525 0.225,-1.125 -1.95,0 -3.975,0.75 -2.025,0.675 -3.75,1.35 -0.3,0.3 -0.75,0.45 -0.375,0.075 -0.975,0.375 l -0.15,0.225 -0.675,0.225 q -0.6,0.45 -0.975,0.9 -0.375,0.375 -1.125,0.825 -0.675,0.375 -1.05,0.6 -0.375,0.225 -0.6,0.6 -0.075,0.15 -0.225,0.15 -0.075,0 -0.075,0.075 -0.075,0.15 -0.075,0.3 0.075,0.075 0.075,0.225 -0.225,0.225 -0.375,0.3 -0.15,0.075 -0.225,0.15 -0.375,0.75 -0.6,1.725 -0.15,0.975 -0.75,1.425 0.9,-0.15 1.65,-0.6 0.825,-0.525 1.575,-0.675 0.375,-0.15 0.75,-0.15 0.45,-0.075 0.6,-0.225 0.375,-0.15 0.45,-0.375 0.15,-0.225 0.45,-0.525 0.075,0 0.225,0.075 0.15,0.075 0.225,-0.075 0.225,-0.075 0.525,-0.375 0.3,-0.3 0.675,-0.3 0.75,-0.675 1.725,-1.125 0.975,-0.45 1.95,-1.05 2.1,-0.6 3,-1.725 0.675,-0.45 0.975,-0.825 0.3,-0.375 0.825,-0.975 z"
         style="font-size:75px;font-family:Freeland;fill:#f07873"
         id="path3431" /><path
         d="m 245.29687,-44.475 q -0.3,1.05 -0.9,2.175 -0.6,1.05 -1.275,2.325 -0.45,1.125 -0.975,2.4 -0.45,1.275 -0.825,2.625 0.15,0.375 0.375,0.375 0.3,0 0.525,-0.075 1.125,0.15 1.8,0.15 0.75,-0.075 1.8,-0.075 0.9,0.15 1.8,0.225 0.975,0.075 2.025,0.075 3.075,0.225 6.3,0.525 3.3,0.3 6.225,1.35 -0.375,0.15 -0.375,0.3 0.075,0.075 0.15,0.375 -0.15,0.075 -0.29999,0.225 -0.15001,0.075 -0.30001,-0.075 -0.075,0.3 0.075,0.225 0.15,-0.15 0.075,0.075 -1.125,0.075 -2.325,0 -1.125,-0.075 -2.25,0.075 -0.6,0 -1.125,0 -0.525,-0.075 -1.05,0.075 -0.825,0.075 -1.8,0.15 -0.9,0 -1.875,-0.15 -1.275,0.15 -2.475,0.3 -1.125,0.075 -2.325,0.225 -0.3,0.075 -0.75,0 -0.15,0.15 -0.375,0.075 -0.15,-0.075 -0.3,-0.075 -0.075,0 -0.15,0.075 0,0.075 -0.075,0.075 -0.375,0.15 -0.675,0.225 -0.3,0.075 -0.6,0.075 -0.525,-0.15 -1.125,0.075 -0.6,0.15 -0.975,0.225 -1.05,-0.15 -1.425,0.225 -0.15,0.225 -0.675,1.05 -0.45,0.825 -0.6,1.35 -0.15,0.375 -0.225,0.6 -0.075,0.225 -0.225,0.6 -0.225,0.6 -0.3,1.125 -0.075,0.525 -0.375,1.275 -0.15,0.45 -0.3,0.675 -0.15,0.225 -0.075,0.45 -0.15,0 -0.075,0.3 0.075,0.3 0.15,0.45 -0.225,0.375 -0.45,0.825 -0.15,0.45 -0.225,1.05 -0.375,1.05 -0.675,2.175 -0.3,1.125 -0.675,2.25 0,0.225 -0.225,0.6 -0.225,0.375 -0.225,0.525 -0.075,0.6 -0.15,1.2 -0.075,0.6 -0.225,0.975 -0.225,0.6 -0.225,1.125 0.075,0.45 -0.3,0.75 -0.075,0.375 -0.075,0.75 0,0.375 -0.15,0.9 -0.15,0.375 -0.15,1.05 0,0.6 -0.3,1.2 -0.075,0.15 -0.225,0.3 -0.075,0.15 -0.075,0.225 0.075,0 0.075,0.075 l 0,0.225 q -0.075,0.075 -0.15,0.075 -0.075,0 -0.075,0.075 -0.075,-0.075 -0.075,0.225 0.075,0.225 0.075,0.375 0,0.15 -0.075,0 -0.075,-0.15 -0.075,0 -0.225,0.525 -0.3,1.275 0,0.75 -0.15,1.125 l -0.15,0.15 q 0,0.3 0,0.675 0,0.3 0.15,0.675 -0.15,2.1 0.15,3.825 0.375,1.8 1.2,2.925 0.075,0.3 0,0.15 -0.075,-0.15 -0.075,0.15 0.45,0.525 0.825,1.05 0.375,0.525 1.2,0.375 0.6,0.15 1.125,-0.15 0.525,-0.225 0.9,-0.675 0.15,-0.15 0.15,-0.45 0.075,-0.225 0.45,-0.45 0.3,0.375 0,0.675 -0.225,0.375 -0.225,0.6 -0.15,0.15 -0.225,0.3 0,0.15 -0.075,0.15 -0.15,0.3 -0.75,0.6 -0.15,0.375 -0.525,0.675 -0.375,0.3 -0.9,0.75 -0.375,0.225 -0.675,0.375 -0.225,0.225 -0.9,0.375 -1.5,0.375 -3.15,-0.45 -1.65,-0.75 -2.625,-1.8 -0.225,-0.3 -0.3,-0.525 0,-0.15 -0.375,-0.75 0,-0.375 -0.3,-0.825 -0.225,-0.375 -0.6,-0.675 -0.075,-0.3 -0.15,-0.675 -0.15,-0.3 -0.075,-0.6 -0.15,-0.375 -0.225,-0.9 -0.15,-0.45 -0.3,-0.825 0,-0.675 -0.15,-1.575 -0.225,-0.9 -0.3,-1.725 -0.15,-0.825 -0.15,-1.65 0,-0.9 0,-1.725 0,-0.15 -0.075,-0.3 -0.15,-0.225 -0.075,-0.375 0,-0.15 0.075,-0.225 0.075,-0.15 0,-0.3 0.45,-0.6 0.225,-0.825 -0.15,-0.3 0.075,-1.35 0.225,-1.05 0.375,-1.725 0,-0.375 0.15,-0.6 0.15,-0.3 0.075,-0.675 0.225,-0.45 0.225,-1.425 -0.075,-0.975 0.15,-1.35 0.075,-0.225 0.225,-0.6 0.15,-0.375 0.15,-0.525 0.3,-1.05 0.45,-1.575 0.15,-0.6 0.45,-1.275 -0.15,0.15 -0.6,0.9 -0.375,0.75 -0.6,0.975 l -0.45,0 q 0.075,0.15 0.075,0.375 -0.375,0.6 -0.75,1.275 -0.45,0.6 -0.675,1.2 0,-0.675 0.525,-1.575 0,-0.3 0.15,-0.75 0.15,-0.15 0.3,-0.3 0.075,-0.15 0,-0.3 0.15,-0.15 0.15,-0.3 -0.075,-0.225 0,-0.375 0,-0.15 0.15,-0.15 0.15,0 0.15,-0.15 0.15,-0.075 0.075,-0.15 -0.15,-0.15 -0.075,-0.225 0.15,-0.15 0.3,-0.15 0.075,-0.075 0,-0.3 0.075,-0.15 0.075,-0.375 0,-0.225 0.075,-0.45 -0.075,-0.15 0,-0.225 0.15,-0.15 0.15,-0.375 0.15,-0.225 0.15,-0.525 0.075,-0.15 0.15,-0.225 0.15,-0.15 0.15,-0.3 0.075,-0.225 0,-0.375 0,-0.15 0,-0.3 0,-0.075 0.075,-0.15 0.15,-0.15 0.225,-0.525 0.15,-0.3 0.075,-0.525 -0.075,-0.3 0.075,-0.45 0.15,-0.15 0.3,-0.3 0.15,-0.225 0.15,-0.45 0.075,-0.375 0,-0.525 0,-0.15 0.15,-0.525 0.15,-0.3 0.3,-0.375 0.225,-0.075 0.3,-0.225 0.075,-0.075 0,-0.225 -0.075,-0.15 0,-0.3 0.225,-0.225 0.225,-0.15 0.15,-0.225 0.075,-0.45 0,-0.225 0,-0.375 0,-0.15 0.375,-0.375 -0.15,-0.15 -0.075,-0.3 0.075,-0.15 0.15,-0.15 0.15,-0.6 0.3,-0.9 0.225,-0.3 0.3,-0.675 -0.075,0 0,0 0.15,-0.075 -0.975,0.225 -1.2,0.075 -2.325,0.15 -1.125,0 -2.175,0.225 -1.5,-0.075 -2.925,0 -1.425,0 -2.475,-0.375 -0.3,0 -0.6,-0.075 -0.3,-0.075 -0.75,-0.225 -0.675,-0.375 -1.2,-0.6 -0.6,-0.3 -1.125,-0.9 -0.45,-0.3 -0.9,-0.6 -0.525,-0.3 -0.675,-0.675 -0.15,-0.15 -0.15,-0.375 -0.075,-0.225 -0.075,-0.375 0.825,0.15 1.575,0 0.75,-0.225 1.35,-0.45 1.35,-0.6 2.925,-0.825 1.575,-0.3 3.075,-0.675 2.7,-0.375 5.25,-0.6 2.625,-0.225 5.775,-0.15 0.75,-0.075 0.525,0 -0.15,0 0.075,-0.15 0.225,-0.075 0.225,-0.3 0.075,-0.225 0.225,-0.525 0.075,-0.375 0.225,-0.525 0.225,-0.15 0.45,-0.3 0.075,-0.15 0.075,-0.3 0,-0.15 0.075,-0.3 0,-0.075 0.15,-0.15 0.225,-0.15 0.3,-0.3 -0.15,-0.3 -0.15,-0.375 l 0.225,-0.225 q 0.75,-0.6 0.825,-1.05 0.9,-1.65 2.325,-3.825 0.3,-0.375 0.45,-0.825 0.225,-0.45 0.525,-0.6 0.225,-0.3 0.3,-0.375 0.15,-0.15 0.225,-0.375 0.15,-0.075 0.225,-0.225 0.075,-0.225 0.075,-0.3 0,-0.525 0.75,-0.15 0.15,0 0.15,-0.075 0.075,-0.15 0.15,0 0.3,0 0.375,-0.075 0.15,-0.075 0.45,-0.075 0.075,0 0.3,0.15 0.225,0.075 0.45,0.075 0.15,0.15 0.3,0.375 0.225,0.15 0.6,0.375 l 0.15,0 0,0.15 q 0.225,0.15 0.375,0.225 0.225,0.075 0.375,0.45 z"
         style="font-size:75px;font-family:Freeland;fill:#f07873"
         id="path3433" /><path
         d="m 276.04453,-13.05 q 0.6,0.15 0.825,1.05 0.225,0.9 -0.525,1.65 -0.15,0.375 -0.525,0.9 -0.3,0.45 -0.6,0.825 -0.15,0.15 -0.6,0.45 -0.375,0.225 -0.375,0.375 -0.225,0.075 -0.675,0.525 -0.375,0.45 -0.525,0.525 -0.15,0.075 -0.75,0.525 -0.525,0.375 -0.75,0.525 -0.825,0.375 -1.05,0.75 -0.15,0.3 -0.9,0.825 -0.525,0.15 -1.2,0.45 -0.675,0.225 -1.05,0.6 -0.525,0.375 -0.975,0.375 -0.45,0 -0.825,0.6 -0.45,-0.075 -0.975,0.225 -0.525,0.225 -1.2,0.375 -0.375,0.15 -0.9,0.225 -0.45,0.075 -0.9,0.075 -1.65,0.75 -3.45,0.75 -0.975,0.225 -2.325,0 -0.225,-0.075 -0.45,-0.075 -0.15,-0.075 -0.375,-0.075 -0.675,-0.3 -1.425,-0.3 -0.675,-0.075 -1.275,-0.3 -0.075,0 -0.525,-0.15 -0.375,-0.225 -0.825,-0.375 -0.45,-0.225 -0.9,-0.375 -0.375,-0.225 -0.45,-0.225 -0.375,-0.15 -0.675,-0.525 -0.3,-0.45 -0.6,-0.9 -0.225,-0.525 -0.525,-0.9 -0.3,-0.45 -0.6,-0.675 -0.15,-0.075 -0.3,0 -0.225,0 -0.375,-0.075 -0.225,-0.15 -0.3,-0.45 -0.15,-0.3 -0.225,-0.45 -0.15,-0.675 0.15,-1.2 0.3,-0.6 0.075,-0.975 0.15,-0.075 0.3,-0.075 0.15,-0.075 0.3,-0.3 -0.45,-0.375 -0.375,-1.05 0,-0.75 0.3,-1.5 0.225,-0.75 0.525,-1.425 0.3,-0.675 0.45,-1.05 0.075,-0.45 0.075,-0.75 0,-0.3 0.075,-0.525 0.15,-0.225 0.375,-0.375 0.3,-0.225 0.45,-0.375 0.15,-0.6 0.525,-1.125 0.375,-0.75 1.125,-1.5 0.75,-0.825 1.575,-1.725 0.3,-0.45 0.75,-0.75 0.45,-0.375 0.975,-0.9 0.6,-0.225 0.975,-0.45 0.375,-0.3 0.9,-0.675 1.125,-0.9 2.4,-0.825 1.275,0.075 2.325,0.3 0.375,0.075 0.45,0.375 0.15,0.3 0.375,0.375 0.15,0.15 0.225,0.075 0.15,-0.15 0.375,-0.15 0.45,0.15 1.05,0.45 0.6,0.3 1.125,0.675 0.6,0.375 0.975,0.75 0.45,0.375 0.525,0.675 0.075,0.15 0.225,0.3 0.15,0.15 0.225,0.3 0.3,1.05 -0.075,1.575 -0.3,0.45 -0.45,0.975 -0.6,0.675 -1.125,1.05 -0.45,0.375 -0.825,0.9 0,0.15 -0.45,0.45 -0.375,0.3 -0.45,0.525 -0.6,0.525 -1.425,0.975 -0.75,0.375 -1.425,0.975 -0.075,0.15 -0.375,0.375 -0.3,0.15 -0.675,0.375 -0.45,0.3 -0.975,0.6 -0.15,0.15 -0.45,0.225 -0.3,0.075 -0.45,0.225 -0.225,0.15 -0.6,0.6 -0.375,0.375 -0.975,0.6 -0.15,0.15 -0.375,0.15 -0.225,-0.075 -0.3,0.075 -0.375,0.15 -0.75,0.525 -0.375,0.375 -0.9,0.3 -0.15,0.3 -0.3,0.9 -0.075,0.6 0,1.275 0.15,0.675 0.525,1.275 0.45,0.525 1.425,0.6 0.15,0 0.75,0.15 0.6,0.15 0.825,0.3 1.2,0.075 2.625,-0.15 1.5,-0.3 2.775,-0.525 2.85,-0.675 5.55,-1.95 2.7,-1.275 4.725,-2.625 0.375,-0.3 0.45,-0.3 0.15,-0.075 0.45,-0.225 0.3,-0.15 0.9,-0.525 0.6,-0.45 1.125,-0.9 0.6,-0.525 1.05,-1.05 0.45,-0.6 0.45,-1.05 z m -21.525,0.75 q 1.275,-0.675 2.4,-1.725 1.125,-1.05 2.4,-1.875 0.45,-0.375 0.9,-0.825 0.525,-0.45 0.675,-0.825 0.15,-0.3 0.075,-0.6 -0.075,-0.3 -0.075,-0.375 -0.225,-0.075 -0.45,-0.075 -0.075,0 -0.075,0.075 -1.8,0.975 -3.375,2.7 -1.575,1.65 -2.85,3.375 0,0.225 0.15,0.225 0.075,0 0.225,-0.075 z"
         style="font-size:75px;font-family:Freeland;fill:#f07873"
         id="path3435" /><path
         d="m 295.57617,-21.9 q 0.225,1.8 0.225,3.6 0,1.8 -0.3,3.3 -0.15,0.375 -0.45,0.975 -0.225,0.525 -0.375,0.975 -0.225,1.125 -0.45,2.325 -0.15,1.125 -0.525,2.325 -0.225,0.6 -0.45,1.125 -0.15,0.525 -0.3,1.05 -0.375,1.2 -0.75,2.25 -0.3,1.05 -0.6,2.175 l 0,1.35 q -0.225,0.675 -0.3,1.5 -0.075,0.825 0.3,1.575 0.15,0.225 0.45,0.6 0.3,0.375 0.675,0.675 0.45,0.3 0.975,0.45 0.6,0.15 1.2,0 -0.075,0.375 -0.15,0.825 0,0.45 -0.375,0.75 -0.075,0.075 -0.375,0.075 -0.225,0 -0.3,0 -0.15,0.15 -0.225,0.3 -0.075,0.15 -0.225,0.3 -0.9,0.15 -2.1,-0.3 -1.125,-0.45 -1.95,-0.825 -0.975,-0.525 -1.65,-1.275 -0.6,-0.675 -1.05,-1.125 0.15,-0.675 -0.375,-1.35 -0.45,-0.675 -0.75,-1.575 -0.075,-0.375 -0.15,-0.825 0,-0.525 0,-1.05 -0.375,-4.275 0.675,-8.25 0.225,-1.2 0.675,-2.25 0.525,-1.05 0.375,-2.1 -0.15,0.525 -0.525,0.825 -0.3,0.225 -0.6,0.6 -0.15,0.15 -0.225,0.45 0,0.3 -0.225,0.675 -0.075,0.075 -0.3,0.15 -0.15,0.075 -0.15,0.3 -0.6,0.75 -1.05,1.425 -0.45,0.675 -0.975,1.425 -0.45,0.525 -0.825,1.05 -0.375,0.525 -0.9,0.975 -0.15,0.375 -0.375,0.75 -0.15,0.3 -0.3,0.6 -0.15,0.15 -0.375,0.375 -0.225,0.15 -0.375,0.525 -0.225,0.375 -0.525,0.75 -0.225,0.3 -0.375,0.6 -0.3,0.225 -0.75,0.45 -0.45,0.15 -0.6,0.525 -0.075,0.225 -0.3,0.3 -0.225,0 -0.525,0.075 -0.225,0.075 -0.375,0.225 -0.075,0.075 0.075,0.525 -0.45,-0.45 -1.2,-0.525 -0.75,-0.075 -1.5,-0.225 -0.975,-1.2 -0.975,-3.525 0,-2.25 0.6,-4.8 0.525,-2.625 0.9,-4.425 0.6,-1.575 0.9,-3.225 0.3,-1.725 0.9,-3.525 0.15,-0.15 0.3,-0.225 0.15,-0.075 0.375,-0.075 -0.075,-0.6 -0.225,-1.125 -0.15,-0.525 0.375,-0.675 0.3,-0.15 1.05,-0.075 0.75,0.075 1.5,0.3 0.75,0.15 1.35,0.45 0.675,0.225 0.825,0.375 0,0.15 0.075,0.3 0,0.15 0,0.225 0.075,0.075 0.075,0 0.075,0.375 0,0.9 -0.075,0.45 -0.45,1.125 -0.225,1.5 -0.375,3.075 -0.15,1.575 -0.525,3.075 0.225,0.225 0.3,0 0.075,-0.3 0.225,-0.45 0.225,-0.15 0.375,-0.225 0.225,-0.075 0.45,-0.3 -0.075,-0.075 -0.075,-0.15 l 0,-0.225 q 0,-0.075 0.15,0 0.225,0 0.225,-0.075 0.075,-0.075 0.075,-0.15 0,-0.075 0.075,-0.225 0.9,-0.9 2.025,-2.1 1.125,-1.2 2.475,-2.4 0.15,-0.075 0.3,-0.075 0.225,-0.075 0.525,-0.225 0.15,-0.375 0.45,-0.525 0.3,-0.15 0.6,-0.3 0,-0.075 0,-0.225 0,-0.15 0.075,-0.225 0.225,-0.15 0.45,-0.15 0.225,-0.075 0.45,-0.225 0.45,-0.375 0.675,-0.675 0.225,-0.375 0.6,-0.525 0.375,-0.15 0.675,0.075 0.375,0.15 0.75,0.075 0.675,0.15 1.275,0 0.6,-0.15 1.2,0 0.3,0.15 0.375,0.45 0.15,0.3 0.525,0.3 z"
         style="font-size:75px;font-family:Freeland;fill:#f07873"
         id="path3437" /></g></g></svg>