<svg id="Ebene_1" data-name="Ebene 1" xmlns="http://www.w3.org/2000/svg" viewBox="0 0 560 744.62"><defs><style>.cls-1,.cls-2{fill:#374858;}.cls-1{stroke:#374858;stroke-miterlimit:10;stroke-width:4px;opacity:0.3;}.cls-3{fill:#ef7873;}.cls-4{fill:#fff;}</style></defs><title>_</title><rect class="cls-1" x="26" y="20.15" width="428" height="276" rx="16.45" ry="16.45"/><path class="cls-2" d="M98.42,72.22l5.72,26h-2.81l-1.55-7.71H93.17l-1.55,7.71H88.81l5.73-26h3.89ZM93.56,88.14H99.4l-2.88-14H96.44Z"/><path class="cls-2" d="M113.83,72.22l4.54,19.66h0.07l4.43-19.66h4.47v26h-2.59V74.38h-0.07l-5.4,23.84h-1.84L112,74.38H112V98.22h-2.59v-26h4.47Z"/><path class="cls-2" d="M146.48,72.22V74.6h-9.08v8.86h6.7v2.38h-6.7v10h9.51v2.38H134.6v-26h11.88Z"/><path class="cls-2" d="M153.46,72.22h6.27c4.18,0,7.13,2.45,7.13,6.73,0,2.92-1.3,5.37-4.18,6.37l4.39,12.89h-3L159.95,85.9l-3.67.14V98.22h-2.81v-26Zm2.81,11.38h2.45c4,0,5.33-1.58,5.33-4.5s-1.3-4.5-5.33-4.5h-2.45v9Z"/><path class="cls-2" d="M177.37,72.22v26h-2.81v-26h2.81Z"/><path class="cls-2" d="M195.87,80.07c-0.36-4.11-1.66-5.83-3.85-5.83-3.28,0-4.72,2.88-4.72,11s1.44,11,4.72,11c2.63,0,4.14-1.8,4.21-6.63H199c-0.07,5.76-2.59,9-7,9-4.65,0-7.53-3.53-7.53-13.36s2.88-13.36,7.53-13.36c3.85,0,6.23,2.66,6.66,8.21h-2.81Z"/><path class="cls-2" d="M213.66,72.22l5.73,26h-2.81L215,90.51H208.4l-1.55,7.71H204l5.72-26h3.89ZM208.8,88.14h5.83l-2.88-14h-0.07Z"/><path class="cls-2" d="M229,72.22l6.7,19.16h0.07V72.22h2.81v26h-3l-8.07-22.62h-0.07V98.22H224.6v-26H229Z"/><path class="cls-2" d="M268.59,72.22V74.6h-9.08v8.86h6.7v2.38h-6.7v10H269v2.38H256.71v-26h11.88Z"/><path class="cls-2" d="M276.94,72.22l4,9.22,3.67-9.22h3l-5.11,12.17,6.19,13.83h-3L280.9,87.35l-4.18,10.88h-3l5.62-13.83-5.4-12.17h3Z"/><path class="cls-2" d="M294.08,72.22h6.12c4.18,0,6.91,2.81,6.91,7.13s-2.74,7.13-6.91,7.13h-3.31V98.22h-2.81v-26Zm2.81,11.88h3c2.81,0,4.47-1.51,4.47-4.75s-1.66-4.75-4.47-4.75h-3V84.1Z"/><path class="cls-2" d="M313.3,72.22h6.27c4.18,0,7.13,2.45,7.13,6.73,0,2.92-1.3,5.37-4.18,6.37l4.39,12.89h-3L319.78,85.9l-3.67.14V98.22H313.3v-26Zm2.81,11.38h2.45c4,0,5.33-1.58,5.33-4.5s-1.3-4.5-5.33-4.5h-2.45v9Z"/><path class="cls-2" d="M346.06,72.22V74.6H337v8.86h6.7v2.38H337v10h9.51v2.38H334.18v-26h11.88Z"/><path class="cls-2" d="M362.33,78.92c-0.22-2.67-1.3-4.68-4-4.68a3.33,3.33,0,0,0-3.57,3.42c0,5.87,10.44,5.94,10.44,14.3,0,4.14-2.38,6.63-6.66,6.63-4.07,0-6.52-3-6.59-7.35h2.59c0.07,3.06,1.51,5,4.29,5,2.34,0,3.85-1.51,3.85-4.29,0-5.9-10.44-6.59-10.44-14,0-3.67,2.52-6,6.27-6s6.19,2.52,6.41,7.06h-2.59Z"/><path class="cls-2" d="M381.2,78.92c-0.22-2.67-1.3-4.68-4-4.68a3.33,3.33,0,0,0-3.57,3.42c0,5.87,10.44,5.94,10.44,14.3,0,4.14-2.38,6.63-6.66,6.63-4.07,0-6.52-3-6.59-7.35h2.59c0.07,3.06,1.51,5,4.29,5,2.34,0,3.85-1.51,3.85-4.29,0-5.9-10.44-6.59-10.44-14,0-3.67,2.52-6,6.27-6s6.19,2.52,6.41,7.06H381.2Z"/><path class="cls-2" d="M88.49,102.72v-1.8H388.39v1.8H88.49Z"/><path class="cls-2" d="M75,208.16V206h3.17V185.11L75,185.4v-1.59a10,10,0,0,0,4.11-2H80.8V206h3v2.16H75Z"/><path class="cls-2" d="M91.82,208.16V206c2.3-7.71,9.51-12,9.51-17.93,0-2.74-1.37-4.11-3.13-4.11-2.05,0-3.56,1.58-3.78,5.47H92c0.29-5.9,3-7.63,6.08-7.63,3.42,0,5.8,2.3,5.8,6.63,0,6.48-5.83,8.5-9.72,17.57h9.87v2.16H91.82Z"/><path class="cls-2" d="M111.11,187.34c0.29-3.06,1.94-5.54,5.29-5.54,2.92,0,5.8,2,5.8,6.34,0,3.67-1.51,5.76-3.39,6.12v0.07c2.92,1,3.82,3.71,3.82,6.48,0,5.33-3.1,7.71-6.34,7.71-3.46,0-5.8-2.77-5.83-6.55h2.38c0.22,2.81,1.44,4.39,3.75,4.39,1.73,0,3.46-1.87,3.46-5.44,0-4.29-1.8-5.51-5.91-5.51v-2.16c3.89,0,5.47-.94,5.47-5,0-3.1-1.22-4.32-3-4.32-2.23,0-3,1.87-3.1,3.67Z"/><path class="cls-2" d="M139.59,182.16v17.93h2.7v2.16h-2.7v5.91H137v-5.91h-8.32V201l7.13-18.87h3.78Zm-8.46,17.93H137V184.54h-0.07Z"/><path class="cls-2" d="M161.94,202.11c0.22,1.87,1,4.25,3.31,4.25s3.89-2.3,3.89-6.81c0-4.86-1.66-6.37-3.56-6.37a3.58,3.58,0,0,0-3.28,2.52l-2-.36,0.86-13.18h9.15l-0.22,2.16h-6.84l-0.5,7.92a5.38,5.38,0,0,1,3.46-1.22c3,0,5.55,2.81,5.55,8.46,0,5.94-2.88,9-6.34,9-3.75,0-5.62-2.81-5.83-6.19Z"/><path class="cls-2" d="M187.58,187c-0.36-2.59-1.8-3-2.81-3-2.3,0-3.75,3.17-3.82,10.41a5.65,5.65,0,0,1,4-2c2.92,0,5.58,2.09,5.58,8,0,5-2.16,8.14-5.58,8.14-4.5,0-6.66-2.59-6.66-12,0-10.44,2.45-14.76,6.55-14.76,3.35,0,4.61,2,5.11,5Zm-6.7,12.24c0,5.26,1.37,7.13,3.67,7.13,2,0,3.38-1.51,3.38-6s-1.58-5.8-3.24-5.8a4.93,4.93,0,0,0-3.82,2.23v2.45Z"/><path class="cls-2" d="M197.44,182.16h11.67v1.37l-7.56,24.63h-2.74l7.56-23.84h-8.93v-2.16Z"/><path class="cls-2" d="M222.13,208.52c-4,0-6.41-3.17-6.41-6.91,0-3.21,1.69-5.51,4.18-7.27-2.3-1.84-3.6-3.64-3.6-6.7a5.83,5.83,0,1,1,11.67,0c0,3.06-1.3,4.86-3.6,6.7,2.48,1.76,4.18,4.07,4.18,7.27C228.54,205.35,226.17,208.52,222.13,208.52Zm0-12.82c-2.09,1.55-3.82,3.21-3.82,6,0,2.13,1.15,4.64,3.82,4.64s3.82-2.52,3.82-4.64C226,198.9,224.22,197.25,222.13,195.7Zm0-11.74a3.17,3.17,0,0,0-3.24,3.38,6.51,6.51,0,0,0,3.24,5.76,6.51,6.51,0,0,0,3.24-5.76A3.17,3.17,0,0,0,222.13,184Z"/><path class="cls-2" d="M248.7,203.33c0.36,2.59,1.8,3,2.81,3,2.3,0,3.75-3.17,3.82-10.41a5.65,5.65,0,0,1-4,2c-2.92,0-5.58-2.09-5.58-8,0-5,2.16-8.14,5.58-8.14,4.5,0,6.66,2.59,6.66,12,0,10.44-2.45,14.76-6.55,14.76-3.35,0-4.61-2-5.11-5Zm6.7-12.24c0-5.26-1.37-7.13-3.67-7.13-2,0-3.38,1.51-3.38,6s1.58,5.8,3.24,5.8a4.94,4.94,0,0,0,3.82-2.23v-2.45Z"/><path class="cls-2" d="M270.73,208.52c-4.25,0-6.27-4-6.27-13.36s2-13.36,6.27-13.36,6.27,4,6.27,13.36S275,208.52,270.73,208.52Zm0-24.56c-2.38,0-3.67,2.66-3.67,11.2s1.3,11.2,3.67,11.2,3.67-2.66,3.67-11.2S273.11,184,270.73,184Z"/><path class="cls-2" d="M285.42,208.16V206h3.17V185.11l-3.24.29v-1.59a10,10,0,0,0,4.11-2h1.73V206h3v2.16h-8.79Z"/><path class="cls-2" d="M302.19,208.16V206c2.3-7.71,9.51-12,9.51-17.93,0-2.74-1.37-4.11-3.13-4.11-2.05,0-3.56,1.58-3.78,5.47h-2.38c0.29-5.9,3-7.63,6.08-7.63,3.42,0,5.8,2.3,5.8,6.63,0,6.48-5.83,8.5-9.72,17.57h9.87v2.16H302.19Z"/><path class="cls-2" d="M332.36,187.34c0.29-3.06,1.95-5.54,5.29-5.54,2.92,0,5.8,2,5.8,6.34,0,3.67-1.51,5.76-3.38,6.12v0.07c2.92,1,3.82,3.71,3.82,6.48,0,5.33-3.1,7.71-6.34,7.71-3.46,0-5.8-2.77-5.83-6.55h2.38c0.22,2.81,1.44,4.39,3.75,4.39,1.73,0,3.46-1.87,3.46-5.44,0-4.29-1.8-5.51-5.91-5.51v-2.16c3.89,0,5.47-.94,5.47-5,0-3.1-1.22-4.32-3-4.32-2.23,0-3,1.87-3.1,3.67Z"/><path class="cls-2" d="M360.84,182.16v17.93h2.7v2.16h-2.7v5.91h-2.59v-5.91h-8.32V201l7.13-18.87h3.78Zm-8.46,17.93h5.87V184.54h-0.07Z"/><path class="cls-2" d="M372.32,202.11c0.22,1.87,1,4.25,3.31,4.25s3.89-2.3,3.89-6.81c0-4.86-1.66-6.37-3.57-6.37a3.58,3.58,0,0,0-3.28,2.52l-2-.36,0.87-13.18h9.15l-0.22,2.16h-6.84l-0.5,7.92a5.38,5.38,0,0,1,3.46-1.22c3,0,5.55,2.81,5.55,8.46,0,5.94-2.88,9-6.34,9-3.75,0-5.62-2.81-5.83-6.19Z"/><path class="cls-2" d="M398,187c-0.36-2.59-1.8-3-2.81-3-2.3,0-3.75,3.17-3.82,10.41a5.65,5.65,0,0,1,4-2c2.92,0,5.58,2.09,5.58,8,0,5-2.16,8.14-5.58,8.14-4.5,0-6.66-2.59-6.66-12,0-10.44,2.45-14.76,6.55-14.76,3.35,0,4.61,2,5.11,5Zm-6.7,12.24c0,5.26,1.37,7.13,3.67,7.13,2,0,3.38-1.51,3.38-6s-1.58-5.8-3.24-5.8a4.94,4.94,0,0,0-3.82,2.23v2.45Z"/><path class="cls-3" d="M495.59,143.75c-0.36-4.11-1.66-5.83-3.85-5.83-3.28,0-4.72,2.88-4.72,11s1.44,11,4.72,11c2.63,0,4.14-1.8,4.21-6.62h2.81c-0.07,5.76-2.59,9-7,9-4.65,0-7.53-3.53-7.53-13.36s2.88-13.36,7.53-13.36c3.85,0,6.23,2.66,6.66,8.21h-2.81Z"/><path class="cls-3" d="M508.84,135.9v26H506v-26h2.81Z"/><path class="cls-3" d="M516.69,135.9h4.83c5.47,0,8.79,3,8.79,13s-3.31,13-8.79,13h-4.83v-26Zm2.81,23.63H521c4.1,0,6.48-1.73,6.48-10.62s-2.38-10.62-6.48-10.62H519.5v21.25Z"/><path class="cls-2" d="M75,226.17l2.48,6.32,2.4-6.32h1.68l-3.32,8.31v6.12H76.68v-6.12l-3.36-8.31H75Z"/><path class="cls-2" d="M86.26,230c2.18,0,3.18,1.64,3.18,5.4s-1,5.4-3.18,5.4-3.18-1.64-3.18-5.4S84.08,230,86.26,230Zm0,9.59c1.22,0,1.74-.76,1.74-4.2s-0.52-4.2-1.74-4.2-1.74.76-1.74,4.2S85,239.61,86.26,239.61Z"/><path class="cls-2" d="M99.2,240.61H97.84v-1.14a4.11,4.11,0,0,1-2.36,1.34c-1.44,0-2.28-.8-2.28-2.72v-7.87h1.44v7.68c0,1.2.36,1.72,1.14,1.72a2.72,2.72,0,0,0,2-1.28v-8.12H99.2v10.39Z"/><path class="cls-2" d="M103.56,230.21H105v1.26h0a2.66,2.66,0,0,1,2.64-1.46v1.36c-1.08,0-1.9.36-2.68,1.84v7.4h-1.44V230.21Z"/><path class="cls-2" d="M119,226.17l3.72,10.63h0V226.17h1.56v14.43h-1.68l-4.48-12.55h0v12.55h-1.56V226.17H119Z"/><path class="cls-2" d="M128.28,233c0.28-1.64,1.24-3,3.08-3a2.71,2.71,0,0,1,3,3v5.8a4.3,4.3,0,0,0,.26,1.84h-1.5l-0.18-.88a3.81,3.81,0,0,1-2.22,1.08,2.52,2.52,0,0,1-2.7-2.68c0-2.56,2.82-3.86,4.9-4.32v-0.74a1.59,1.59,0,0,0-1.5-1.86c-1.1,0-1.64,1.1-1.8,2Zm4.62,2c-1.32.4-3.46,1.36-3.46,3a1.37,1.37,0,0,0,1.48,1.6,3,3,0,0,0,2-1.08V235Z"/><path class="cls-2" d="M139.12,240.61V230.21h1.32v1.14a3.37,3.37,0,0,1,2.42-1.34,2,2,0,0,1,1.86,1.32,3.42,3.42,0,0,1,2.42-1.32c1.36,0,2.1.92,2.1,2.4v8.2h-1.44v-8c0-1.08-.32-1.4-1.08-1.4a2.51,2.51,0,0,0-1.82,1.08v8.31h-1.44v-8c0-1.08-.38-1.4-1.14-1.4a2.29,2.29,0,0,0-1.76,1.08v8.31h-1.44Z"/><path class="cls-2" d="M154.6,235.65v0.58c0,2.54.58,3.38,1.94,3.38,1.1,0,1.56-1,1.74-2l1.36,0.16a3.33,3.33,0,0,1-3.3,3c-2.18,0-3.18-1.64-3.18-5.4s1-5.4,3.18-5.4,3.18,2,3.18,5v0.68H154.6Zm3.48-1.2c0-2.24-.44-3.24-1.74-3.24-1,0-1.72.76-1.74,3.24h3.48Z"/><rect class="cls-4" x="330" y="124.15" width="88" height="50"/><path class="cls-3" d="M418,174.15H330v-50h88v50Zm-82-6h76v-38H336v38Z"/><path class="cls-3" d="M350.73,143H348v-1.88a21.09,21.09,0,0,0,4.12-2.61h1.76v20.51h-3.14V143Z"/><path class="cls-3" d="M361.68,159.05v-2.72c4.31-6.3,6.67-9.78,6.67-12.75,0-1.6-.62-2.3-1.57-2.3-1.12,0-1.68.87-1.68,2.1v1.37h-3.31v-1a4.94,4.94,0,0,1,5.16-5.27,4.51,4.51,0,0,1,4.71,4.48c0,3.2-1,5.55-6.44,13.17h6.14v2.86h-9.67Z"/><path class="cls-3" d="M379.55,153.2v1.37c0,1.26.5,2,1.57,2s1.65-.7,1.65-2.38v-1.54c0-2.19-.84-2.86-3-2.86v-2.75c2,0,2.83-.67,2.83-3.08,0-1.9-.36-2.69-1.4-2.69s-1.57.48-1.57,2.07v0.84h-3.14v-1a4.4,4.4,0,0,1,4.73-4.71c3,0,4.51,2.49,4.51,5.18,0,2.35-.39,3.67-2.19,4.65,2,1.06,2.49,2.27,2.49,5,0,4-1.6,5.94-5,5.94-2.89,0-4.62-1.46-4.62-4.93V153.2h3.14Z"/><path class="cls-3" d="M396.29,154.18h-6.05V151.6l5.88-12.78h3.36V151.6h1.85v2.58h-1.85v4.88h-3.19v-4.87Zm0.06-2.58v-7.9h-0.06l-3.39,7.9h3.45Z"/><rect class="cls-3" x="416" y="148.15" width="46" height="2"/><polygon class="cls-3" points="460 159.13 477.27 149.15 460 139.18 460 159.13"/><rect class="cls-1" x="26" y="448.15" width="428" height="276" rx="16.45" ry="16.45"/><path class="cls-2" d="M92.33,397.35l4.57,20.6H97l4.57-20.6h2.81l-6.12,26H95.64l-6.12-26h2.81Z"/><path class="cls-2" d="M113.21,397.35v26H110.4v-26h2.81Z"/><path class="cls-2" d="M130.35,404c-0.22-2.67-1.3-4.68-4-4.68a3.33,3.33,0,0,0-3.56,3.42c0,5.87,10.44,5.94,10.44,14.3,0,4.14-2.38,6.63-6.66,6.63-4.07,0-6.52-3-6.59-7.35h2.59c0.07,3.06,1.51,5,4.29,5,2.34,0,3.85-1.51,3.85-4.29,0-5.9-10.44-6.59-10.44-14,0-3.67,2.52-6,6.27-6s6.19,2.52,6.41,7.06h-2.59Z"/><path class="cls-2" d="M147.48,397.35l5.73,26H150.4l-1.55-7.71h-6.63l-1.55,7.71h-2.81l5.73-26h3.89Zm-4.86,15.92h5.83l-2.88-14H145.5Z"/><path class="cls-2" d="M166.92,423.71L175.27,397h2.38l-8.35,26.72h-2.38Z"/><path class="cls-2" d="M197.52,397.35L202.06,417h0.07l4.43-19.66H211v26h-2.59V399.51h-0.07L203,423.35h-1.84l-5.4-23.84h-0.07v23.84h-2.59v-26h4.47Z"/><path class="cls-2" d="M225.85,397.35l5.73,26h-2.81l-1.55-7.71h-6.63L219,423.35h-2.81l5.73-26h3.89ZM221,413.27h5.83l-2.88-14h-0.07Z"/><path class="cls-2" d="M246.44,404c-0.22-2.67-1.3-4.68-4-4.68a3.33,3.33,0,0,0-3.57,3.42c0,5.87,10.44,5.94,10.44,14.3,0,4.14-2.38,6.63-6.66,6.63-4.07,0-6.52-3-6.59-7.35h2.59c0.07,3.06,1.51,5,4.29,5,2.34,0,3.85-1.51,3.85-4.29,0-5.9-10.44-6.59-10.44-14,0-3.67,2.52-6,6.27-6s6.19,2.52,6.41,7.06h-2.59Z"/><path class="cls-2" d="M267.36,397.35v2.38H262v23.62h-2.81V399.72h-5.33v-2.38h13.47Z"/><path class="cls-2" d="M284.78,397.35v2.38h-9.07v8.86h6.7V411h-6.7v10h9.51v2.38H272.9v-26h11.88Z"/><path class="cls-2" d="M291.76,397.35H298c4.18,0,7.13,2.45,7.13,6.73,0,2.92-1.3,5.37-4.18,6.37l4.39,12.89h-3L298.24,411l-3.67.14v12.17h-2.81v-26Zm2.81,11.38H297c4,0,5.33-1.58,5.33-4.5s-1.3-4.5-5.33-4.5h-2.45v9Z"/><path class="cls-2" d="M323.3,405.2c-0.36-4.11-1.66-5.83-3.85-5.83-3.28,0-4.72,2.88-4.72,11s1.44,11,4.72,11c2.63,0,4.14-1.8,4.21-6.63h2.81c-0.07,5.76-2.59,9-7,9-4.65,0-7.53-3.53-7.53-13.36S314.8,397,319.45,397c3.85,0,6.23,2.66,6.66,8.21H323.3Z"/><path class="cls-2" d="M341.08,397.35l5.72,26H344l-1.55-7.71h-6.63l-1.55,7.71h-2.81l5.73-26h3.89Zm-4.86,15.92h5.83l-2.88-14H339.1Z"/><path class="cls-2" d="M352.39,397.35h6.27c4.18,0,7.13,2.45,7.13,6.73,0,2.92-1.3,5.37-4.18,6.37L366,423.35h-3L358.87,411l-3.67.14v12.17h-2.81v-26Zm2.81,11.38h2.45c4,0,5.33-1.58,5.33-4.5s-1.3-4.5-5.33-4.5h-2.45v9Z"/><path class="cls-2" d="M373.27,397.35h4.83c5.47,0,8.79,3,8.79,13s-3.31,13-8.79,13h-4.83v-26ZM376.07,421h1.51c4.11,0,6.48-1.73,6.48-10.62s-2.38-10.62-6.48-10.62h-1.51V421Z"/><path class="cls-2" d="M88.94,427.85V426H391.77v1.8H88.94Z"/><path class="cls-3" d="M495.51,626c-0.36-4.11-1.66-5.83-3.85-5.83-3.28,0-4.72,2.88-4.72,11s1.44,11,4.72,11c2.63,0,4.14-1.8,4.21-6.63h2.81c-0.07,5.76-2.59,9-7,9-4.65,0-7.53-3.53-7.53-13.36s2.88-13.36,7.53-13.36c3.85,0,6.23,2.66,6.66,8.21h-2.81Z"/><path class="cls-3" d="M506.73,618.11l4.57,20.6h0.07l4.57-20.6h2.81l-6.12,26H510l-6.12-26h2.81Z"/><path class="cls-3" d="M525.6,618.11l4.57,20.6h0.07l4.57-20.6h2.81l-6.12,26h-2.59l-6.12-26h2.81Z"/><rect class="cls-2" x="26" y="488.15" width="428" height="64"/><rect class="cls-2" x="78" y="606.15" width="234" height="50"/><rect class="cls-4" x="330" y="606.15" width="88" height="50"/><path class="cls-3" d="M418,656.15H330v-50h88v50Zm-82-6h76v-38H336v38Z"/><path class="cls-3" d="M358.11,625h-2.75v-1.88a21.09,21.09,0,0,0,4.12-2.61h1.76v20.51h-3.14V625Z"/><path class="cls-3" d="M369.06,641.05v-2.72c4.31-6.3,6.67-9.78,6.67-12.75,0-1.6-.62-2.3-1.57-2.3-1.12,0-1.68.87-1.68,2.1v1.37h-3.31v-1a4.94,4.94,0,0,1,5.16-5.27A4.51,4.51,0,0,1,379,625c0,3.2-1,5.55-6.44,13.17h6.14v2.86h-9.67Z"/><path class="cls-3" d="M386.92,635.2v1.37c0,1.26.5,2,1.57,2s1.65-.7,1.65-2.38v-1.54c0-2.19-.84-2.86-3-2.86v-2.75c2,0,2.83-.67,2.83-3.08,0-1.9-.36-2.69-1.4-2.69s-1.57.48-1.57,2.07v0.84H383.9v-1a4.4,4.4,0,0,1,4.73-4.71c3,0,4.51,2.49,4.51,5.18,0,2.35-.39,3.67-2.19,4.65,2,1.06,2.49,2.27,2.49,5,0,4-1.6,5.94-5,5.94-2.89,0-4.62-1.46-4.62-4.93V635.2h3.14Z"/><rect class="cls-3" x="416" y="630.15" width="46" height="2"/><polygon class="cls-3" points="460 641.13 477.27 631.15 460 621.18 460 641.13"/></svg>