<?xml version="1.0" encoding="utf-8"?>
<!-- Generator: Adobe Illustrator 19.2.1, SVG Export Plug-In . SVG Version: 6.00 Build 0)  -->
<svg version="1.1" id="Ebene_1" xmlns="http://www.w3.org/2000/svg" xmlns:xlink="http://www.w3.org/1999/xlink" x="0px" y="0px"
	 viewBox="0 0 56 56" style="enable-background:new 0 0 56 56;" xml:space="preserve">
<style type="text/css">
	.st0{fill:#374858;}
	.st1{fill:#FFFFFF;}
	.st2{fill:#EF7873;}
	.st3{fill:none;stroke:#374858;stroke-width:2;stroke-miterlimit:10;}
	.st4{fill:none;stroke:#374858;stroke-width:3;stroke-miterlimit:10;}
	.st5{fill:none;stroke:#374858;stroke-width:2;stroke-linejoin:round;stroke-miterlimit:10;}
	.st6{fill:none;stroke:#374858;stroke-width:3;stroke-linejoin:round;stroke-miterlimit:10;}
	.st7{fill:#FFFFFF;stroke:#374858;stroke-width:2;stroke-miterlimit:10;}
	.st8{fill:#FFFFFF;stroke:#374858;stroke-width:3;stroke-miterlimit:10;}
	.st9{fill:#F2F2F2;stroke:#FFFFFF;stroke-width:1.5;stroke-miterlimit:10;}
	.st10{fill:#F2F2F2;}
	.st11{fill:none;stroke:#EF7873;stroke-width:2;stroke-miterlimit:10;}
	.st12{fill:none;stroke:#EF7873;stroke-width:3;stroke-miterlimit:10;}
	.st13{opacity:0.5;}
	.st14{fill:none;stroke:#374858;stroke-width:2;stroke-linecap:round;stroke-linejoin:round;stroke-miterlimit:10;}
	.st15{fill:none;stroke:#374858;stroke-width:3;stroke-linecap:round;stroke-linejoin:round;stroke-miterlimit:10;}
	.st16{fill:none;stroke:#374858;stroke-width:2;stroke-linecap:round;stroke-miterlimit:10;}
	.st17{fill:none;stroke:#374858;stroke-width:3;stroke-linecap:round;stroke-miterlimit:10;}
</style>
<g>
	<circle class="st0" cx="27.3" cy="28.5" r="27"/>
	<path class="st1" d="M35.6,15H19.1c-2.9,0-5.2,2.3-5.2,5.2v5.5v11.1c0,2.9,2.3,5.2,5.2,5.2h16.6c2.9,0,5.2-2.3,5.2-5.2V25.7v-5.5
		C40.8,17.3,38.5,15,35.6,15z M37.1,18.1l0.6,0v0.6v4l-4.6,0l0-4.6L37.1,18.1z M23.5,25.7c0.9-1.2,2.3-2,3.9-2c1.6,0,3,0.8,3.9,2
		c0.6,0.8,0.9,1.7,0.9,2.8c0,2.6-2.1,4.8-4.8,4.8c-2.6,0-4.8-2.1-4.8-4.8C22.6,27.5,22.9,26.5,23.5,25.7z M38.2,36.8
		c0,1.4-1.2,2.6-2.6,2.6H19.1c-1.4,0-2.6-1.2-2.6-2.6V25.7h4c-0.3,0.9-0.5,1.8-0.5,2.8c0,4.1,3.3,7.4,7.4,7.4c4.1,0,7.4-3.3,7.4-7.4
		c0-1-0.2-1.9-0.5-2.8h4V36.8z"/>
</g>
</svg>
