<?xml version="1.0" encoding="utf-8"?>
<!-- Generator: Adobe Illustrator 21.1.0, SVG Export Plug-In . SVG Version: 6.00 Build 0)  -->
<svg version="1.1" id="Ebene_1" xmlns="http://www.w3.org/2000/svg" xmlns:xlink="http://www.w3.org/1999/xlink" x="0px" y="0px"
	 viewBox="0 0 132 84" style="enable-background:new 0 0 132 84;" xml:space="preserve">
<style type="text/css">
	.st0{fill:#FFFFFF;stroke:#CCCCCC;stroke-miterlimit:10;}
	.st1{fill:#253B80;}
	.st2{fill:#179BD7;}
	.st3{fill:#222D65;}
</style>
<g id="Page-1_2_">
	<g id="Paypal_1_" transform="translate(-1.000000, 0.000000)">
		<path id="Rectangle-1_2_" class="st0" d="M121.2,2.2c-6.4,0-73.8,0-111.5,0c-3.2,0-6.4,3.2-6.4,6.4v63.7c0,6.4,3.2,9.6,9.6,9.6
			c35.5,0,102,0,108.3,0c6.4,0,9.6-3.2,9.6-9.6V11.7C130.7,5.4,127.5,2.2,121.2,2.2z"/>
	</g>
</g>
<g>
	<path class="st1" d="M51.6,34.3h-6.3c-0.4,0-0.8,0.3-0.9,0.7l-2.6,16.2c-0.1,0.3,0.2,0.6,0.5,0.6h3c0.4,0,0.8-0.3,0.9-0.7l0.7-4.4
		c0.1-0.4,0.4-0.7,0.9-0.7h2c4.2,0,6.6-2,7.2-6c0.3-1.7,0-3.1-0.8-4.1C55.3,34.9,53.7,34.3,51.6,34.3z M52.4,40.2
		c-0.3,2.3-2.1,2.3-3.7,2.3h-1l0.7-4.2c0-0.3,0.3-0.4,0.5-0.4h0.4c1.1,0,2.2,0,2.8,0.6C52.4,38.8,52.5,39.4,52.4,40.2z"/>
	<path class="st1" d="M70.5,40.1h-3c-0.3,0-0.5,0.2-0.5,0.4l-0.1,0.8l-0.2-0.3c-0.7-0.9-2.1-1.3-3.6-1.3c-3.3,0-6.2,2.5-6.7,6.1
		c-0.3,1.8,0.1,3.5,1.1,4.6c0.9,1.1,2.2,1.5,3.8,1.5c2.7,0,4.2-1.7,4.2-1.7l-0.1,0.8c-0.1,0.3,0.2,0.6,0.5,0.6h2.7
		c0.4,0,0.8-0.3,0.9-0.7L71,40.7C71.1,40.4,70.8,40.1,70.5,40.1z M66.3,46c-0.3,1.7-1.7,2.9-3.4,2.9c-0.9,0-1.6-0.3-2-0.8
		c-0.4-0.5-0.6-1.3-0.5-2.1c0.3-1.7,1.7-2.9,3.4-2.9c0.9,0,1.6,0.3,2,0.8C66.2,44.4,66.4,45.2,66.3,46z"/>
	<path class="st1" d="M86.6,40.1h-3c-0.3,0-0.6,0.1-0.7,0.4l-4.2,6.2l-1.8-5.9c-0.1-0.4-0.5-0.6-0.8-0.6h-3c-0.4,0-0.6,0.4-0.5,0.7
		l3.3,9.8l-3.1,4.4c-0.2,0.3,0,0.8,0.4,0.8h3c0.3,0,0.6-0.1,0.7-0.4L87,41C87.2,40.6,87,40.1,86.6,40.1z"/>
	<path class="st2" d="M96.6,34.3h-6.3c-0.4,0-0.8,0.3-0.9,0.7l-2.6,16.2c-0.1,0.3,0.2,0.6,0.5,0.6h3.2c0.3,0,0.6-0.2,0.6-0.5
		l0.7-4.6c0.1-0.4,0.4-0.7,0.9-0.7h2c4.2,0,6.6-2,7.2-6c0.3-1.7,0-3.1-0.8-4.1C100.3,34.9,98.7,34.3,96.6,34.3z M97.4,40.2
		c-0.3,2.3-2.1,2.3-3.7,2.3h-1l0.7-4.2c0-0.3,0.3-0.4,0.5-0.4h0.4c1.1,0,2.2,0,2.8,0.6C97.4,38.8,97.5,39.4,97.4,40.2z"/>
	<path class="st2" d="M115.5,40.1h-3c-0.3,0-0.5,0.2-0.5,0.4l-0.1,0.8l-0.2-0.3c-0.7-0.9-2.1-1.3-3.6-1.3c-3.3,0-6.2,2.5-6.7,6.1
		c-0.3,1.8,0.1,3.5,1.1,4.6c0.9,1.1,2.2,1.5,3.8,1.5c2.7,0,4.2-1.7,4.2-1.7l-0.1,0.8c-0.1,0.3,0.2,0.6,0.5,0.6h2.7
		c0.4,0,0.8-0.3,0.9-0.7l1.6-10.3C116.1,40.4,115.8,40.1,115.5,40.1z M111.3,46c-0.3,1.7-1.7,2.9-3.4,2.9c-0.9,0-1.6-0.3-2-0.8
		c-0.4-0.5-0.6-1.3-0.5-2.1c0.3-1.7,1.7-2.9,3.4-2.9c0.9,0,1.6,0.3,2,0.8C111.2,44.4,111.4,45.2,111.3,46z"/>
	<path class="st2" d="M119,34.8l-2.6,16.5c-0.1,0.3,0.2,0.6,0.5,0.6h2.6c0.4,0,0.8-0.3,0.9-0.7l2.6-16.2c0.1-0.3-0.2-0.6-0.5-0.6
		h-2.9C119.3,34.3,119.1,34.5,119,34.8z"/>
	<path class="st1" d="M15.7,55l0.5-3.1l-1.1,0H10l3.6-22.6c0-0.1,0-0.1,0.1-0.2c0.1,0,0.1-0.1,0.2-0.1h8.7c2.9,0,4.9,0.6,5.9,1.8
		c0.5,0.6,0.8,1.1,0.9,1.8c0.2,0.7,0.2,1.5,0,2.4l0,0.1v0.6l0.5,0.3c0.4,0.2,0.7,0.5,1,0.7c0.4,0.5,0.7,1.1,0.8,1.8
		c0.1,0.7,0.1,1.6-0.1,2.6c-0.2,1.1-0.6,2.1-1.1,2.9c-0.4,0.7-1,1.4-1.7,1.8c-0.6,0.5-1.4,0.8-2.3,1c-0.8,0.2-1.8,0.3-2.8,0.3h-0.7
		c-0.5,0-0.9,0.2-1.3,0.5C21.3,48,21,48.5,20.9,49l-0.1,0.3L20,54.6l0,0.2c0,0.1,0,0.1-0.1,0.1c0,0-0.1,0-0.1,0
		C19.9,55,15.7,55,15.7,55z"/>
	<path class="st2" d="M30.3,35.2L30.3,35.2L30.3,35.2c0,0.2-0.1,0.3-0.1,0.5c-1.1,5.9-5,7.9-10,7.9h-2.5c-0.6,0-1.1,0.4-1.2,1l0,0
		l0,0l-1.3,8.2l-0.4,2.3c-0.1,0.4,0.2,0.8,0.6,0.8h4.5c0.5,0,1-0.4,1.1-0.9l0-0.2l0.8-5.4l0.1-0.3c0.1-0.5,0.5-0.9,1.1-0.9h0.7
		c4.4,0,7.8-1.8,8.8-6.9c0.4-2.1,0.2-3.9-0.9-5.2C31.2,35.7,30.7,35.4,30.3,35.2z"/>
	<path class="st3" d="M29.1,34.7c-0.2-0.1-0.4-0.1-0.5-0.1c-0.2,0-0.4-0.1-0.6-0.1c-0.7-0.1-1.4-0.2-2.2-0.2h-6.8
		c-0.2,0-0.3,0-0.5,0.1c-0.3,0.2-0.5,0.4-0.6,0.8l-1.4,9.1l0,0.3c0.1-0.6,0.6-1,1.2-1h2.5c5,0,8.9-2,10-7.9c0-0.2,0.1-0.3,0.1-0.5
		c-0.3-0.2-0.6-0.3-0.9-0.4C29.2,34.7,29.2,34.7,29.1,34.7z"/>
	<path class="st1" d="M17.9,35.2c0.1-0.4,0.3-0.7,0.6-0.8c0.1-0.1,0.3-0.1,0.5-0.1h6.8c0.8,0,1.6,0.1,2.2,0.2c0.2,0,0.4,0.1,0.6,0.1
		c0.2,0,0.4,0.1,0.5,0.1c0.1,0,0.2,0.1,0.3,0.1c0.3,0.1,0.6,0.2,0.9,0.4c0.3-2.2,0-3.6-1.2-5c-1.3-1.5-3.6-2.1-6.6-2.1h-8.7
		c-0.6,0-1.1,0.4-1.2,1L9,52c-0.1,0.5,0.3,0.9,0.7,0.9h5.3l1.3-8.5L17.9,35.2z"/>
</g>
</svg>
