<svg id="Ebene_1" data-name="Ebene 1" xmlns="http://www.w3.org/2000/svg" viewBox="0 0 960 14"><defs><style>.cls-1{opacity:0.3;}.cls-2,.cls-3{fill:#374858;}.cls-3{opacity:0.3;}</style></defs><title>_</title><g class="cls-1"><rect class="cls-2" y="5" width="471" height="1"/></g><g class="cls-1"><rect class="cls-2" x="491" y="5" width="469" height="1"/></g><path class="cls-3" d="M484.83,10.23c-0.57.24-1.1,0.57-1.66,0.88l0.36,0.65a1,1,0,0,1-.1.11,4.3,4.3,0,0,1-2.3,1c-0.15,0-.14,0-0.14-0.13V6h3V5h-3V3.86a1.52,1.52,0,1,0-1,0V5h-3V6h3v6.71c0,0.11-.08.17-0.23,0.15a4.69,4.69,0,0,1-2.3-.93,0.23,0.23,0,0,1-.08-0.36c0.1-.14.17-0.3,0.26-0.47l-1.37-.75a0.66,0.66,0,0,0-.93.15,5.63,5.63,0,0,0,10.15,0A1.37,1.37,0,0,0,484.83,10.23Z"/></svg>