<?xml version="1.0" encoding="utf-8"?>
<!-- Generator: Adobe Illustrator 19.2.1, SVG Export Plug-In . SVG Version: 6.00 Build 0)  -->
<svg version="1.1" id="Ebene_1" xmlns="http://www.w3.org/2000/svg" xmlns:xlink="http://www.w3.org/1999/xlink" x="0px" y="0px"
	 viewBox="0 0 132 84" style="enable-background:new 0 0 132 84;" xml:space="preserve">
<style type="text/css">
	.st0{fill:#374858;}
	.st1{fill:#FFFFFF;}
	.st2{fill:#EF7873;}
	.st3{fill:none;stroke:#374858;stroke-width:2;stroke-miterlimit:10;}
	.st4{fill:none;stroke:#374858;stroke-width:3;stroke-miterlimit:10;}
	.st5{fill:none;stroke:#374858;stroke-width:2;stroke-linejoin:round;stroke-miterlimit:10;}
	.st6{fill:none;stroke:#374858;stroke-width:3;stroke-linejoin:round;stroke-miterlimit:10;}
	.st7{fill:#FFFFFF;stroke:#374858;stroke-width:2;stroke-miterlimit:10;}
	.st8{fill:#FFFFFF;stroke:#374858;stroke-width:3;stroke-miterlimit:10;}
	.st9{fill:#F2F2F2;stroke:#FFFFFF;stroke-width:1.5;stroke-miterlimit:10;}
	.st10{fill:#F2F2F2;}
	.st11{fill:none;stroke:#EF7873;stroke-width:2;stroke-miterlimit:10;}
	.st12{fill:none;stroke:#EF7873;stroke-width:3;stroke-miterlimit:10;}
	.st13{opacity:0.5;}
	.st14{fill:none;stroke:#374858;stroke-width:2;stroke-linecap:round;stroke-linejoin:round;stroke-miterlimit:10;}
	.st15{fill:none;stroke:#374858;stroke-width:3;stroke-linecap:round;stroke-linejoin:round;stroke-miterlimit:10;}
	.st16{fill:none;stroke:#374858;stroke-width:2;stroke-linecap:round;stroke-miterlimit:10;}
	.st17{fill:none;stroke:#374858;stroke-width:3;stroke-linecap:round;stroke-miterlimit:10;}
	.st18{fill:#FFFFFF;stroke:#CCCCCC;stroke-miterlimit:10;}
	.st19{fill:#0097D9;}
	.st20{fill:#E40520;}
	.st21{fill:#06326E;}
	.st22{fill:#306FC5;}
	.st23{fill:#265697;}
	.st24{fill:#005098;}
	.st25{fill:#F6A500;}
	.st26{fill:#FAB31E;}
	.st27{fill:#FFCC00;}
	.st28{fill:#D2002E;}
	.st29{fill:#FECC00;}
	.st30{fill:#D50029;}
</style>
<g>
	<g>
		<path class="st18" d="M122.2,2.4H9.8c-4.1,0-7.5,3.4-7.5,7.5v64.2c0,4.1,3.4,7.5,7.5,7.5h112.5c4.1,0,7.5-3.4,7.5-7.5V9.9
			C129.7,5.8,126.4,2.4,122.2,2.4L122.2,2.4z"/>
	</g>
	<g>
		<polygon class="st24" points="49.6,57.9 55,26.3 63.6,26.3 58.2,57.9 		"/>
		<path class="st24" d="M89.5,27c-1.7-0.6-4.4-1.3-7.7-1.3c-8.5,0-14.5,4.3-14.6,10.4c0,4.5,4.3,7.1,7.6,8.6
			c3.4,1.6,4.5,2.5,4.5,3.9c0,2.1-2.7,3.1-5.2,3.1c-3.4,0-5.3-0.5-8.1-1.7l-1.1-0.5l-1.2,7.1c2,0.9,5.7,1.6,9.6,1.7
			c9.1,0,14.9-4.2,15-10.8c0-3.6-2.3-6.3-7.2-8.6c-3-1.5-4.9-2.4-4.8-3.9c0-1.3,1.6-2.7,4.9-2.7c2.8,0,4.9,0.6,6.5,1.2l0.8,0.4
			L89.5,27L89.5,27z"/>
		<path class="st24" d="M111.6,26.3h-6.7c-2.1,0-3.6,0.6-4.5,2.6l-12.8,29h9.1c0,0,1.5-3.9,1.8-4.8c1,0,9.8,0,11,0
			c0.3,1.1,1,4.7,1,4.7h8L111.6,26.3L111.6,26.3z M101,46.7c0.7-1.8,3.4-8.8,3.4-8.8c0,0.1,0.7-1.8,1.1-3l0.6,2.7c0,0,1.7,7.6,2,9.1
			H101L101,46.7z"/>
		<path class="st24" d="M42.3,26.3l-8.4,21.6L33,43.5c-1.6-5.1-6.5-10.5-11.9-13.3l7.7,27.7l9.1,0l13.6-31.6H42.3L42.3,26.3z"/>
		<path class="st25" d="M26.1,26.3H12.2l-0.1,0.7c10.8,2.6,18,8.9,20.9,16.6l-3-14.5C29.5,26.9,27.9,26.3,26.1,26.3L26.1,26.3z"/>
	</g>
</g>
</svg>
