<?xml version="1.0" encoding="utf-8"?>
<!-- Generator: Adobe Illustrator 21.1.0, SVG Export Plug-In . SVG Version: 6.00 Build 0)  -->
<svg version="1.1" id="Ebene_1" xmlns="http://www.w3.org/2000/svg" xmlns:xlink="http://www.w3.org/1999/xlink" x="0px" y="0px"
	 viewBox="0 0 56 56" style="enable-background:new 0 0 56 56;" xml:space="preserve">
<style type="text/css">
	.st0{fill:#374858;}
	.st1{fill:#FFFFFF;}
</style>
<g id="Style_2_copy_3">
	<g>
		<g>
			<path class="st0" d="M28.2,1.5c-14.9,0-27,12.1-27,27c0,14.9,12.1,27,27,27s27-12.1,27-27C55.2,13.6,43.1,1.5,28.2,1.5z"/>
		</g>
	</g>
	<g>
		<path class="st1" d="M9.5,23.9l0.7,3.8c0.2,1,0.4,2,0.5,3h0c0.2-1.1,0.5-2.1,0.7-3l1-3.8h2.3l0.9,3.7c0.2,1,0.5,2.1,0.7,3.1h0
			c0.1-1.1,0.3-2.1,0.5-3.2l0.8-3.7h2.8l-2.8,9.2h-2.7l-0.9-3.2c-0.2-0.9-0.4-1.7-0.6-2.9h0c-0.2,1.2-0.4,2-0.6,2.9l-0.9,3.2H9.2
			l-2.7-9.2L9.5,23.9L9.5,23.9z"/>
		<path class="st1" d="M24.2,23.9l0.7,3.8c0.2,1,0.4,2,0.5,3h0c0.2-1.1,0.5-2.1,0.7-3l1-3.8h2.3l0.9,3.7c0.2,1,0.5,2.1,0.7,3.1h0
			c0.1-1.1,0.3-2.1,0.5-3.2l0.8-3.7h2.8l-2.8,9.2h-2.7l-0.9-3.2c-0.2-0.9-0.4-1.7-0.6-2.9h0c-0.2,1.2-0.4,2-0.6,2.9l-0.9,3.2h-2.7
			l-2.7-9.2C21.2,23.9,24.2,23.9,24.2,23.9z"/>
		<path class="st1" d="M38.8,23.9l0.7,3.8c0.2,1,0.4,2,0.5,3h0c0.2-1.1,0.5-2.1,0.7-3l1-3.8h2.3l0.9,3.7c0.2,1,0.5,2.1,0.7,3.1h0
			c0.1-1.1,0.3-2.1,0.5-3.2l0.8-3.7h2.8L47,33.1h-2.7l-0.9-3.2c-0.2-0.9-0.4-1.7-0.6-2.9h0c-0.2,1.2-0.4,2-0.6,2.9l-0.9,3.2h-2.7
			l-2.7-9.2C35.9,23.9,38.8,23.9,38.8,23.9z"/>
	</g>
</g>
</svg>
