<?xml version="1.0" encoding="utf-8"?>
<!-- Generator: Adobe Illustrator 19.2.1, SVG Export Plug-In . SVG Version: 6.00 Build 0)  -->
<svg version="1.1" id="Ebene_1" xmlns="http://www.w3.org/2000/svg" xmlns:xlink="http://www.w3.org/1999/xlink" x="0px" y="0px"
	 viewBox="0 0 244.8 56" style="enable-background:new 0 0 244.8 56;" xml:space="preserve">
<style type="text/css">
	.st0{fill:#374858;}
	.st1{fill:#FFFFFF;}
	.st2{fill:#EF7873;}
	.st3{fill:none;stroke:#374858;stroke-width:2;stroke-miterlimit:10;}
	.st4{fill:none;stroke:#374858;stroke-width:3;stroke-miterlimit:10;}
	.st5{fill:none;stroke:#374858;stroke-width:2;stroke-linejoin:round;stroke-miterlimit:10;}
	.st6{fill:none;stroke:#374858;stroke-width:3;stroke-linejoin:round;stroke-miterlimit:10;}
	.st7{fill:#FFFFFF;stroke:#374858;stroke-width:2;stroke-miterlimit:10;}
	.st8{fill:#FFFFFF;stroke:#374858;stroke-width:3;stroke-miterlimit:10;}
	.st9{fill:#F2F2F2;stroke:#FFFFFF;stroke-width:1.5;stroke-miterlimit:10;}
	.st10{fill:#F2F2F2;}
	.st11{fill:none;stroke:#EF7873;stroke-width:2;stroke-miterlimit:10;}
	.st12{fill:none;stroke:#EF7873;stroke-width:3;stroke-miterlimit:10;}
	.st13{opacity:0.5;}
	.st14{fill:none;stroke:#374858;stroke-width:2;stroke-linecap:round;stroke-linejoin:round;stroke-miterlimit:10;}
	.st15{fill:none;stroke:#374858;stroke-width:3;stroke-linecap:round;stroke-linejoin:round;stroke-miterlimit:10;}
	.st16{fill:none;stroke:#374858;stroke-width:2;stroke-linecap:round;stroke-miterlimit:10;}
	.st17{fill:none;stroke:#374858;stroke-width:3;stroke-linecap:round;stroke-miterlimit:10;}
	.st18{fill:#FFFFFF;stroke:#CCCCCC;stroke-miterlimit:10;}
	.st19{fill:#0097D9;}
	.st20{fill:#E40520;}
	.st21{fill:#06326E;}
	.st22{fill:#306FC5;}
	.st23{fill:#265697;}
	.st24{fill:#005098;}
	.st25{fill:#F6A500;}
	.st26{fill:#FAB31E;}
	.st27{fill:#FFCC00;}
	.st28{fill:#D2002E;}
	.st29{fill:#FECC00;}
	.st30{fill:#D50029;}
</style>
<g>
	<polygon class="st27" points="205.9,2.2 205.9,39.1 38.8,39.1 38.8,2.2 	"/>
	<path class="st28" d="M68.2,8.8L62.9,16c0,0,27.7,0,29.1,0c1.5,0,1.5,0.6,0.7,1.5c-0.7,1-2,2.7-2.7,3.7c-0.4,0.5-1.1,1.4,1.2,1.4
		c2.4,0,11.9,0,11.9,0s1.9-2.6,3.5-4.8c2.2-3,0.2-9.1-7.6-9.1C92,8.8,68.2,8.8,68.2,8.8L68.2,8.8z"/>
	<path class="st28" d="M60.7,32.4l10.7-14.6c0,0,11.9,0,13.3,0c1.5,0,1.5,0.6,0.7,1.5c-0.7,1-2,2.7-2.7,3.7
		c-0.4,0.5-1.1,1.4,1.2,1.4c2.4,0,17.8,0,17.8,0c-1.5,2-6.3,7.9-14.9,7.9C79.9,32.4,60.7,32.4,60.7,32.4L60.7,32.4z"/>
	<path class="st28" d="M122.1,24.5l-5.8,7.9H101c0,0,5.8-7.9,5.8-7.9L122.1,24.5L122.1,24.5z"/>
	<polygon class="st28" points="145.6,22.7 108.1,22.7 118.4,8.8 133.7,8.8 127.8,16.8 134.7,16.8 140.6,8.8 155.9,8.8 	"/>
	<path class="st28" d="M144.3,24.5l-5.8,7.9h-15.3c0,0,5.8-7.9,5.8-7.9H144.3L144.3,24.5z"/>
	<polygon class="st28" points="38.8,27.6 61.4,27.6 60.2,29.3 38.8,29.3 	"/>
	<polygon class="st28" points="38.8,24.5 63.7,24.5 62.5,26.2 38.8,26.2 	"/>
	<polygon class="st28" points="38.8,30.8 59.1,30.8 57.9,32.4 38.8,32.4 	"/>
	<polygon class="st28" points="205.9,29.3 183.4,29.3 184.7,27.6 205.9,27.6 	"/>
	<polygon class="st28" points="205.9,32.4 181.1,32.4 182.4,30.8 205.9,30.8 	"/>
	<polygon class="st28" points="187,24.5 205.9,24.5 205.9,26.2 185.7,26.2 	"/>
	<path class="st28" d="M177.1,8.8l-10.3,13.9h-16.3c0,0,10.3-13.9,10.3-13.9L177.1,8.8L177.1,8.8z"/>
	<path class="st28" d="M149.3,24.5c0,0-1.1,1.5-1.7,2.3c-1.9,2.6-0.2,5.6,6.1,5.6c7.3,0,24.6,0,24.6,0l5.8-7.9H149.3L149.3,24.5z"/>
	<polygon class="st27" points="38.8,45.1 205.9,45.1 205.9,45.9 38.8,45.9 	"/>
	<polygon class="st27" points="38.8,48.9 205.9,48.9 205.9,49.8 38.8,49.8 	"/>
	<polygon class="st27" points="38.8,52.8 205.9,52.8 205.9,53.7 38.8,53.7 	"/>
	<polygon class="st28" points="94.9,53.7 100,53.7 100.8,52.6 97,52.6 99.1,49.8 102.5,49.8 103.3,48.7 99.9,48.7 101.8,46.1 
		105.5,46.1 106.3,45.1 101.3,45.1 	"/>
	<polygon class="st28" points="101.1,53.7 102.6,53.7 107.9,50 107.9,53.7 109.5,53.7 109.5,49.2 115.6,45.1 114.1,45.1 109.3,48.4 
		109.3,45.1 107.8,45.1 107.7,49.2 	"/>
	<path class="st28" d="M117.5,46.1h1.1c0.8,0,1.7,0.4,0.9,1.5c-0.8,1.1-2.1,1.5-2.9,1.5h-1.3L117.5,46.1L117.5,46.1z M110.6,53.7
		h1.3l2.5-3.5h1.3c1.6,0,3.7-0.7,5.1-2.6c1.5-2,0.4-2.6-1.5-2.6H117L110.6,53.7L110.6,53.7z"/>
	<path class="st28" d="M118.1,53.7h1.3l2.8-3.8h0.8c0.7,0,1.1,0,0.9,0.8l-0.8,3h1.5l0.8-3.4c0.1-0.5,0.1-0.7-0.2-0.9l0,0
		c1.2-0.2,2.5-0.9,3.3-2c1.5-2.1,0-2.3-1.8-2.3h-2.2L118.1,53.7L118.1,53.7z M124.9,46.1h1.2c1.2,0,1.4,0.5,0.9,1.3
		c-0.6,0.8-1.7,1.3-2.9,1.3H123L124.9,46.1L124.9,46.1z"/>
	<polygon class="st28" points="125.8,53.7 130.8,53.7 131.6,52.6 127.9,52.6 130,49.8 133.4,49.8 134.2,48.7 130.8,48.7 132.6,46.1 
		136.4,46.1 137.2,45.1 132.2,45.1 	"/>
	<path class="st28" d="M143.4,45.2c-0.5-0.2-1.1-0.3-1.7-0.3c-1.6,0-3.5,0.8-4.6,2.4c-2,2.7,2.3,2.2,0.8,4.1c-0.7,1-2.1,1.4-2.8,1.4
		c-0.7,0-1.2-0.2-1.6-0.4l-1,1.2c0.5,0.2,0.9,0.4,1.6,0.4c1.8,0,3.8-0.7,5.2-2.6c2.1-2.8-2-2.5-0.8-4.1c0.7-0.9,1.7-1.2,2.4-1.2
		c0.7,0,0.9,0.1,1.4,0.4L143.4,45.2L143.4,45.2z"/>
	<path class="st28" d="M149.8,45.2c-0.5-0.2-1.1-0.3-1.7-0.3c-1.6,0-3.5,0.8-4.6,2.4c-2,2.7,2.3,2.2,0.8,4.1c-0.7,1-2.1,1.4-2.8,1.4
		c-0.7,0-1.2-0.2-1.6-0.4l-1,1.2c0.5,0.2,0.9,0.4,1.6,0.4c1.8,0,3.8-0.7,5.2-2.6c2.1-2.8-2-2.5-0.8-4.1c0.7-0.9,1.7-1.2,2.4-1.2
		c0.7,0,0.9,0.1,1.4,0.4L149.8,45.2L149.8,45.2z"/>
</g>
</svg>
