<svg id="Ebene_1" xmlns="http://www.w3.org/2000/svg" viewBox="0 0 132 84"><style>.st1{fill:#fff}</style><path d="M122.2 2.4H9.8c-4.1 0-7.5 3.4-7.5 7.5v64.2c0 4.1 3.4 7.5 7.5 7.5h112.5c4.1 0 7.5-3.4 7.5-7.5V9.9c-.1-4.1-3.4-7.5-7.6-7.5z" fill="#fff" stroke="#ccc" stroke-miterlimit="10"/><path d="M66.2 66.4c5.6 5.2 13.2 8.3 21.4 8.3 17.7 0 32-14.4 32-32.2 0-17.8-14.3-32.2-32-32.2-8.2 0-15.8 3.2-21.4 8.3-6.5 5.9-10.6 14.4-10.6 23.9 0 9.5 4.1 18 10.6 23.9z" fill="#fab31e"/><path d="M76.5 39.1c-.1-1.2-.3-2.3-.6-3.4H56.4c.2-1.2.6-2.3.9-3.4H75c-.4-1.2-.8-2.3-1.3-3.4h-15c.6-1.2 1.2-2.3 1.8-3.4h11.3c-.7-1.2-1.5-2.3-2.4-3.4h-6.5c1-1.2 2.1-2.4 3.3-3.4-5.7-5.1-13.2-8.3-21.5-8.3-17.6 0-32 14.4-32 32.2 0 17.7 14.4 32.2 32 32.2 8.3 0 15.8-3.2 21.5-8.3 1.2-1.1 2.2-2.2 3.2-3.4h-6.5c-.9-1.1-1.7-2.2-2.4-3.4h11.3c.7-1.1 1.3-2.2 1.9-3.4h-15c-.5-1.1-1-2.2-1.4-3.4H75c.4-1.1.7-2.3.9-3.4.2-1.1.4-2.3.6-3.4.1-1.1.2-2.2.2-3.4 0-1.3-.1-2.5-.2-3.6z" fill="#e40520"/><path class="st1" d="M115.4 50c0-.6.4-1 1-1s1 .4 1 1-.4 1.1-1 1.1-1-.5-1-1.1zm1 .8c.4 0 .8-.3.8-.8s-.4-.8-.8-.8-.8.3-.8.8.4.8.8.8zm-.1-.3h-.3v-.9h.6c.1.1.1.2.1.3 0 .1-.1.2-.2.2l.2.4h-.3l-.1-.3h-.2v.3-.5h.1c.1 0 .1 0 .1-.1.1 0 .1-.1.1-.1s0-.1-.1-.1c0-.1-.1 0-.1 0h-.1v.8h.2z"/><path d="M55.3 51.8c-1 .3-1.8.4-2.6.4-1.7 0-2.7-1.1-2.7-2.9 0-.4.1-.8.1-1.2l.2-1.3.2-1 1.5-9.1h3.3l-.4 2H57l-.5 3.3h-2.1l-.9 5.4c-.1.3-.1.4-.1.6 0 .7.3 1 1.2 1 .4 0 .7-.1 1-.1l-.3 2.9zm10.7-.1c-1.2.3-2.3.5-3.5.5-3.8 0-5.9-2-5.9-5.9 0-4.6 2.5-7.9 6.1-7.9 2.8 0 4.6 1.9 4.6 4.8 0 1-.1 1.9-.4 3.3H60c-.1.2-.1.3-.1.4 0 1.5 1.1 2.3 3 2.3 1.3 0 2.4-.3 3.6-.8l-.5 3.3zm-2-7.9v-.7c0-1.1-.6-1.7-1.7-1.7s-1.9.8-2.2 2.4H64zM28.8 52h-3.5l2-12.5L22.8 52h-2.3l-.3-12.5L18.1 52h-3.4l2.7-16.3h5.1l.1 10.1 3.3-10.1h5.6zm8.3-5.9c-.3-.1-.4-.1-.7-.1-2 0-3 .8-3 2 0 .8.5 1.4 1.3 1.4 1.7 0 2.4-1.4 2.4-3.3zm2.8 5.9h-3l.1-1.4c-.8 1-1.8 1.6-3.6 1.6-1.7 0-3.1-1.5-3.1-3.6 0-.6.1-1.2.3-1.7.6-2 2.6-3.3 5.7-3.4.4 0 1 0 1.5.1.1-.4.1-.6.1-.9 0-.9-.7-1.2-2.3-1.2-1 0-2.1.2-2.9.4l-.5.1-.2.1.5-3c1.6-.5 2.8-.7 4-.7 3 0 4.6 1.4 4.6 3.9 0 .7.1 1.2-.2 2.6l-.8 4.8-.1.8v.7l-.1.4v.4zm42.8-13.2c1 0 1.9.3 3.1.9l.6-3.5c-.3-.2-.4-.2-.9-.3l-1.4-.4c-.4-.1-1-.2-1.6-.2-1.7 0-2.7.1-3.8.7-.6.4-1.3.9-2 1.8l-.4-.1-3.5 2.5.2-1.4h-3.6L67.1 52h3.5l1.3-7.1s.5-1 .7-1.3c.7-.8 1.2-.8 1.9-.8h.3c-.1.8-.2 1.6-.2 2.5 0 4.3 2.4 7 6.2 7 .9 0 1.8-.1 3-.4l.6-3.8c-1.1.6-2.1.9-2.9.9-2 0-3.3-1.5-3.3-4 .1-3.6 1.9-6.2 4.5-6.2zm29.4-3.1l-.8 4.6c-.8-1.3-1.8-1.9-3.2-1.9-1.8 0-3.5 1-4.6 3v-.1l-2.2-1.3.2-1.4h-3.7L95.7 52h3.4l1.2-7.1s.9-1 1.1-1.3c.6-.7 1.1-.8 1.5-.8-.4 1.1-.6 2.4-.6 3.9 0 3.3 1.7 5.5 4.3 5.5 1.3 0 2.3-.4 3.2-1.5l-.2 1.3h3.3l2.7-16.3h-3.5zm-4.3 13.2c-1.2 0-1.8-.9-1.8-2.6 0-2.6 1.1-4.5 2.7-4.5 1.2 0 1.8.9 1.8 2.6.1 2.6-1 4.5-2.7 4.5zm-16-2.8c-.3-.1-.4-.1-.6-.1-2 0-3 .8-3 2 0 .8.5 1.4 1.3 1.4 1.6 0 2.3-1.4 2.3-3.3zm2.8 5.9h-3l.1-1.4c-.8 1-1.8 1.6-3.6 1.6-1.7 0-3.2-1.4-3.2-3.6 0-3.1 2.4-5.1 6.1-5.1.4 0 1 0 1.5.1.1-.4.2-.6.2-.9 0-.9-.7-1.2-2.4-1.2-.9 0-2.1.2-2.9.4l-.4.1-.2.1.5-3c1.6-.5 2.8-.7 4-.7 3 0 4.5 1.4 4.5 3.9 0 .7.1 1.2-.2 2.6l-.7 4.8-.1.8-.1.7-.1.4v.4zM47.1 41.6c.7 0 1.6.1 2.6.2l.5-3.1c-1-.1-2.3-.3-3.1-.3-3.9 0-5.1 2.1-5.1 4.5 0 1.6.7 2.8 2.6 3.6 1.4.7 1.6.8 1.6 1.4 0 .8-.7 1.3-2 1.3-1.1 0-2-.2-3.2-.6l-.4 3 .1.1.7.1c.2.1.5.1.9.2.8.1 1.5.1 2 .1 3.9 0 5.5-1.5 5.5-4.4 0-1.8-.9-2.9-2.6-3.7-1.5-.7-1.7-.8-1.7-1.4-.1-.5.6-1 1.6-1z" fill="#06326e"/><path class="st1" d="M87.3 35.1l-.6 3.5c-1.2-.6-2.1-.9-3.1-.9-2.6 0-4.4 2.5-4.4 6.1 0 2.5 1.2 4 3.3 4 .8 0 1.8-.3 2.9-.8l-.6 3.7c-1.3.3-2.1.5-3 .5-3.8 0-6.1-2.7-6.1-7.1 0-5.8 3.2-9.9 7.8-9.9.6 0 1.2.1 1.6.2l1.4.3c.4.3.5.3.8.4zm-11.1 2.5h-.3c-1.2 0-1.8.6-2.9 2.2l.3-2h-3.2L68 51h3.5c1.3-8.1 1.6-9.5 3.3-9.5h.2c.3-1.6.8-2.8 1.3-3.8l-.1-.1zm-20 13.2c-.9.3-1.7.4-2.5.4-1.8 0-2.8-1-2.8-2.9 0-.3.1-.8.1-1.2l.2-1.3.2-1 1.5-9.1h3.4l-.4 2h1.8l-.4 3.3h-1.8l-.9 5.5c-.1.2-.1.4-.1.6 0 .7.3.9 1.2.9.4 0 .7 0 .9-.1l-.4 2.9zm-13.3-8.9c0 1.7.8 2.8 2.6 3.7 1.4.7 1.7.9 1.7 1.4 0 .8-.6 1.2-2 1.2-1 0-2-.2-3.1-.5l-.5 3 .2.1.6.1c.2.1.5.1.9.1.8.1 1.4.1 1.9.1 3.6 0 5.4-1.4 5.4-4.4 0-1.8-.7-2.9-2.4-3.7-1.5-.7-1.7-.8-1.7-1.4 0-.7.6-1.1 1.7-1.1.7 0 1.6.1 2.5.2l.5-3c-.9-.2-2.3-.3-3-.3-4 0-5.4 2.1-5.3 4.5zm70.9 9.1h-3.3l.2-1.3c-.9 1-1.9 1.4-3.2 1.4-2.5 0-4.2-2.2-4.2-5.5 0-4.4 2.6-8.2 5.6-8.2 1.4 0 2.4.6 3.3 1.8l.8-4.6h3.4L113.8 51zm-5.1-3.1c1.6 0 2.7-1.9 2.7-4.5 0-1.7-.6-2.6-1.8-2.6-1.5 0-2.7 1.8-2.7 4.4 0 1.8.6 2.7 1.8 2.7zm-41.9 2.8c-1.2.4-2.3.6-3.6.6-3.9 0-5.9-2-5.9-6 0-4.5 2.5-7.9 6-7.9 2.9 0 4.7 1.9 4.7 4.8 0 1-.1 1.9-.4 3.3h-6.9c-.1.2-.1.3-.1.4 0 1.5 1.1 2.3 3 2.3 1.3 0 2.4-.2 3.6-.8l-.4 3.3zm-1.9-7.9v-.7c0-1.1-.6-1.7-1.7-1.7s-1.9.8-2.2 2.4h3.9zM29.6 51h-3.4l2-12.6L23.7 51h-2.3l-.3-12.5L19 51h-3.2l2.7-16.4h5l.1 10.2 3.3-10.2h5.5zm8.6-6c-.3 0-.5-.1-.8-.1-1.9 0-2.9.7-2.9 2 0 .8.4 1.3 1.2 1.3 1.5.2 2.5-1.2 2.5-3.2zm2.6 6h-2.9l.1-1.4c-.9 1.1-2 1.6-3.6 1.6-1.9 0-3.1-1.4-3.1-3.6 0-3.3 2.2-5.1 6.1-5.1.4 0 .9.1 1.4.1.1-.4.1-.6.1-.8 0-.9-.6-1.2-2.2-1.2-1 0-2.1.1-2.9.3l-.6.1-.3.1.5-3c1.7-.5 2.9-.7 4.1-.7 3 0 4.6 1.3 4.6 3.9 0 .7-.1 1.2-.3 2.7l-.8 4.6-.1.8-.1.7-.1.5.1.4zm52.1-6c-.4 0-.6-.1-.8-.1-2 0-3 .7-3 2 0 .8.5 1.3 1.3 1.3 1.4.2 2.5-1.2 2.5-3.2zm2.6 6h-2.9l.1-1.4c-.9 1.1-2 1.6-3.6 1.6-1.9 0-3.1-1.4-3.1-3.6 0-3.3 2.2-5.1 6.1-5.1.4 0 .9.1 1.4.1.1-.4.2-.6.2-.8 0-.9-.6-1.2-2.2-1.2-1 0-2.2.1-2.9.3l-.7.1-.3.1.5-3c1.7-.5 2.9-.7 4.1-.7 3 0 4.5 1.3 4.5 3.9 0 .7 0 1.2-.3 2.7l-.7 4.7-.1.8-.1.7-.1.5.1.3zm9.3-13.4h-.3c-1.2 0-1.8.6-2.9 2.2l.3-2h-3.1L96.6 51h3.4c1.3-8.1 1.6-9.5 3.3-9.5h.2c.3-1.6.8-2.8 1.3-3.8v-.1z"/></svg>