<svg id="Ebene_1" xmlns="http://www.w3.org/2000/svg" viewBox="0 0 132 84"><style>.st1{fill:#253b80}.st2{fill:#179bd7}</style><g id="Page-1_2_"><g id="Paypal_1_" transform="translate(-1)"><path id="Rectangle-1_2_" d="M121.2 2.2H9.7c-3.2 0-6.4 3.2-6.4 6.4v63.7c0 6.4 3.2 9.6 9.6 9.6h108.3c6.4 0 9.6-3.2 9.6-9.6V11.7c-.1-6.3-3.3-9.5-9.6-9.5z" fill="#fff" stroke="#ccc" stroke-miterlimit="10"/></g></g><path class="st1" d="M51.6 34.3h-6.3c-.4 0-.8.3-.9.7l-2.6 16.2c-.1.3.2.6.5.6h3c.4 0 .8-.3.9-.7l.7-4.4c.1-.4.4-.7.9-.7h2c4.2 0 6.6-2 7.2-6 .3-1.7 0-3.1-.8-4.1-.9-1-2.5-1.6-4.6-1.6zm.8 5.9c-.3 2.3-2.1 2.3-3.7 2.3h-1l.7-4.2c0-.3.3-.4.5-.4h.4c1.1 0 2.2 0 2.8.6.3.3.4.9.3 1.7zm18.1-.1h-3c-.3 0-.5.2-.5.4l-.1.8-.2-.3c-.7-.9-2.1-1.3-3.6-1.3-3.3 0-6.2 2.5-6.7 6.1-.3 1.8.1 3.5 1.1 4.6.9 1.1 2.2 1.5 3.8 1.5 2.7 0 4.2-1.7 4.2-1.7l-.1.8c-.1.3.2.6.5.6h2.7c.4 0 .8-.3.9-.7L71 40.7c.1-.3-.2-.6-.5-.6zM66.3 46c-.3 1.7-1.7 2.9-3.4 2.9-.9 0-1.6-.3-2-.8-.4-.5-.6-1.3-.5-2.1.3-1.7 1.7-2.9 3.4-2.9.9 0 1.6.3 2 .8.4.5.6 1.3.5 2.1zm20.3-5.9h-3c-.3 0-.6.1-.7.4l-4.2 6.2-1.8-5.9c-.1-.4-.5-.6-.8-.6h-3c-.4 0-.6.4-.5.7l3.3 9.8-3.1 4.4c-.2.3 0 .8.4.8h3c.3 0 .6-.1.7-.4L87 41c.2-.4 0-.9-.4-.9z"/><path class="st2" d="M96.6 34.3h-6.3c-.4 0-.8.3-.9.7l-2.6 16.2c-.1.3.2.6.5.6h3.2c.3 0 .6-.2.6-.5l.7-4.6c.1-.4.4-.7.9-.7h2c4.2 0 6.6-2 7.2-6 .3-1.7 0-3.1-.8-4.1-.8-1-2.4-1.6-4.5-1.6zm.8 5.9c-.3 2.3-2.1 2.3-3.7 2.3h-1l.7-4.2c0-.3.3-.4.5-.4h.4c1.1 0 2.2 0 2.8.6.3.3.4.9.3 1.7zm18.1-.1h-3c-.3 0-.5.2-.5.4l-.1.8-.2-.3c-.7-.9-2.1-1.3-3.6-1.3-3.3 0-6.2 2.5-6.7 6.1-.3 1.8.1 3.5 1.1 4.6.9 1.1 2.2 1.5 3.8 1.5 2.7 0 4.2-1.7 4.2-1.7l-.1.8c-.1.3.2.6.5.6h2.7c.4 0 .8-.3.9-.7l1.6-10.3c0-.2-.3-.5-.6-.5zm-4.2 5.9c-.3 1.7-1.7 2.9-3.4 2.9-.9 0-1.6-.3-2-.8-.4-.5-.6-1.3-.5-2.1.3-1.7 1.7-2.9 3.4-2.9.9 0 1.6.3 2 .8.4.5.6 1.3.5 2.1zm7.7-11.2l-2.6 16.5c-.1.3.2.6.5.6h2.6c.4 0 .8-.3.9-.7L123 35c.1-.3-.2-.6-.5-.6h-2.9c-.3-.1-.5.1-.6.4z"/><path class="st1" d="M15.7 55l.5-3.1H10l3.6-22.6c0-.1 0-.1.1-.2.1 0 .1-.1.2-.1h8.7c2.9 0 4.9.6 5.9 1.8.5.6.8 1.1.9 1.8.2.7.2 1.5 0 2.4v.7l.5.3c.4.2.7.5 1 .7.4.5.7 1.1.8 1.8.1.7.1 1.6-.1 2.6-.2 1.1-.6 2.1-1.1 2.9-.4.7-1 1.4-1.7 1.8-.6.5-1.4.8-2.3 1-.8.2-1.8.3-2.8.3H23c-.5 0-.9.2-1.3.5-.4.4-.7.9-.8 1.4l-.1.3-.8 5.3v.2c0 .1 0 .1-.1.1h-.1c.1.1-4.1.1-4.1.1z"/><path class="st2" d="M30.3 35.2c0 .2-.1.3-.1.5-1.1 5.9-5 7.9-10 7.9h-2.5c-.6 0-1.1.4-1.2 1l-1.3 8.2-.4 2.3c-.1.4.2.8.6.8h4.5c.5 0 1-.4 1.1-.9v-.2l.8-5.4.1-.3c.1-.5.5-.9 1.1-.9h.7c4.4 0 7.8-1.8 8.8-6.9.4-2.1.2-3.9-.9-5.2-.4-.4-.9-.7-1.3-.9z"/><path d="M29.1 34.7c-.2-.1-.4-.1-.5-.1-.2 0-.4-.1-.6-.1-.7-.1-1.4-.2-2.2-.2H19c-.2 0-.3 0-.5.1-.3.2-.5.4-.6.8l-1.4 9.1v.3c.1-.6.6-1 1.2-1h2.5c5 0 8.9-2 10-7.9 0-.2.1-.3.1-.5-.3-.2-.6-.3-.9-.4-.2-.1-.2-.1-.3-.1z" fill="#222d65"/><path class="st1" d="M17.9 35.2c.1-.4.3-.7.6-.8.1-.1.3-.1.5-.1h6.8c.8 0 1.6.1 2.2.2.2 0 .4.1.6.1.2 0 .4.1.5.1.1 0 .2.1.3.1.3.1.6.2.9.4.3-2.2 0-3.6-1.2-5-1.3-1.5-3.6-2.1-6.6-2.1h-8.7c-.6 0-1.1.4-1.2 1L9 52c-.1.5.3.9.7.9H15l1.3-8.5 1.6-9.2z"/></svg>