<svg id="Ebene_1" data-name="Ebene 1" xmlns="http://www.w3.org/2000/svg" viewBox="0 0 960 14"><defs><style>.cls-1{opacity:.3}.cls-2{fill:#374858}</style></defs><g class="cls-1"><path class="cls-2" d="M0 5h471v1H0z"/></g><g class="cls-1"><path class="cls-2" d="M491 5h469v1H491z"/></g><path d="M484.83 10.23c-.57.24-1.1.57-1.66.88l.36.65a1 1 0 0 1-.1.11 4.3 4.3 0 0 1-2.3 1c-.15 0-.14 0-.14-.13V6h3V5h-3V3.86a1.52 1.52 0 1 0-1 0V5h-3v1h3v6.71c0 .11-.08.17-.23.15a4.69 4.69 0 0 1-2.3-.93.23.23 0 0 1-.08-.36c.1-.14.17-.3.26-.47l-1.37-.75a.66.66 0 0 0-.93.15 5.63 5.63 0 0 0 10.15 0 1.37 1.37 0 0 0-.66-.27z" opacity=".3" fill="#374858"/></svg>