<?xml version="1.0" encoding="utf-8"?>
<!-- Generator: Adobe Illustrator 18.0.0, SVG Export Plug-In . SVG Version: 6.00 Build 0)  -->
<!DOCTYPE svg PUBLIC "-//W3C//DTD SVG 1.1//EN" "http://www.w3.org/Graphics/SVG/1.1/DTD/svg11.dtd">
<svg version="1.1" id="Ebene_1" xmlns="http://www.w3.org/2000/svg" xmlns:xlink="http://www.w3.org/1999/xlink" x="0px" y="0px"
	 viewBox="0 0 370 400" enable-background="new 0 0 370 400" xml:space="preserve">
<g>
	<path fill="#F07873" d="M328.6,163.8c-0.1-0.2-0.3-0.3-0.5-0.4c-0.4,0-0.8,0.1-1.2,0.3c-0.4,0.2-0.8,0.3-1.3,0.3
		c-0.2,0.1-0.5,0.1-0.8,0c-0.3-0.1-0.5,0-0.7,0.1c-0.2,0.2-0.4,0.4-0.5,0.6c-0.1,0.3-0.3,0.6-0.5,0.9c-0.1,0.1-0.3,0.2-0.4,0.3
		c-0.1,0.1-0.3,0.2-0.4,0.3c0,0.1,0,0.1,0,0.2c0,0.1,0,0.2,0,0.2c-0.2,0.1-0.4,0.3-0.6,0.4c-0.2,0.1-0.3,0.4-0.3,0.6
		c-0.2,0.1-0.3,0.2-0.5,0.3c-0.1,0.1-0.2,0.1-0.3,0.2c-0.7,1-1.4,2-2,3c-0.6,1-1.1,1.8-1.6,2.6c0,0.1,0,0.2,0,0.2c0,0.1,0,0.1,0,0.2
		c0,0.1-0.1,0.1-0.2,0.1c-0.1,0-0.2,0-0.2,0.1l0,0.2c0,0,0,0.1,0.1,0.1c-0.1,0.2-0.2,0.3-0.4,0.4c-0.1,0.1-0.2,0.2-0.4,0.3
		c-0.1,0.1-0.1,0.3-0.1,0.5c0,0.2-0.1,0.2-0.3,0.1c0-1.1,0-2.2-0.1-3.3c-0.1-1.1-0.2-2.2-0.3-3.2c0.2-0.5,0.2-0.9,0.2-1.3
		c0-0.3-0.1-0.6-0.2-0.9c0,0,0,0.1,0,0c0,0-0.1-0.1-0.1-0.2c-0.1-0.1-0.1-0.2-0.1-0.3c-0.1-0.1-0.4-0.2-0.9-0.3
		c-0.5-0.1-1-0.1-1.5-0.2c-0.5,0-1.1,0-1.6,0s-0.9,0.2-1.1,0.3c-0.3,0.2-0.4,0.4-0.2,0.8c0.2,0.3,0.3,0.7,0.5,1.1
		c-0.2,0-0.3,0.1-0.4,0.2c-0.1,0.1-0.2,0.2-0.3,0.3c-0.2,1.3-0.2,2.6-0.2,3.8c0,1.2,0,2.4-0.2,3.5c0,1.3,0,2.8,0,4.7
		c0,1.8,0.1,3.5,0.5,5.1c0.3,1.6,0.9,2.7,1.7,3.4c0.5,0,1.1,0,1.6-0.1c0.5-0.1,1,0,1.3,0.3c-0.2-0.3-0.2-0.5-0.2-0.6
		c0.1-0.1,0.2-0.2,0.3-0.3c0.2-0.1,0.3-0.2,0.5-0.2c0.1-0.1,0.2-0.2,0.3-0.3c0-0.3,0.2-0.5,0.5-0.7c0.3-0.2,0.5-0.4,0.7-0.6
		c0.1-0.2,0.2-0.5,0.3-0.7c0.1-0.3,0.2-0.5,0.3-0.8c0-0.3,0.1-0.5,0.3-0.7c0.1-0.2,0.2-0.3,0.3-0.4c0.1-0.2,0.1-0.5,0.2-0.7
		c0.1-0.3,0.1-0.5,0.2-0.8c0.3-0.4,0.5-0.8,0.7-1.2s0.4-0.8,0.6-1.3c0.2-0.6,0.5-1.1,0.7-1.7c0.2-0.5,0.5-1.1,0.8-1.7
		c0-0.2,0-0.3,0.1-0.3c0.1-0.1,0.2-0.1,0.2-0.2c0.1-0.3,0.1-0.5,0.1-0.7c0-0.2,0-0.4,0.1-0.5c0.1-0.3,0.3-0.6,0.5-0.8
		c0.2-0.2,0.3-0.5,0.3-0.9c0.3,0.7,0.3,1.4,0.1,2.2c-0.2,0.8-0.3,1.6-0.2,2.5c-0.2,2.9,0.2,5.7,1.1,8.6c0.1,0.4,0.2,0.7,0.3,1
		c0.1,0.3,0.2,0.6,0.3,0.9c0.3,0.6,0.7,1.1,1.1,1.4c0.4,0.4,0.6,0.8,0.6,1.3c0.4,0.2,0.8,0.6,1.4,1c0.5,0.4,1.2,0.7,1.9,0.9
		c0.6,0.1,1.4,0.3,2.2,0.4c0.9,0.1,1.6,0.1,2.2-0.1c0.1-0.1,0.1-0.2,0.2-0.4c0-0.1,0.1-0.2,0.2-0.4c0.1,0,0.2,0,0.3-0.1
		c0.2,0,0.3-0.1,0.3-0.1c0.2-0.3,0.3-0.5,0.3-0.9s-0.1-0.6-0.1-0.9c-0.4,0.2-0.8,0.3-1.2,0.2c-0.4,0-0.8-0.1-1.1-0.3
		c-0.3-0.1-0.6-0.3-0.9-0.5c-0.3-0.2-0.5-0.4-0.6-0.5c-0.4-0.5-0.6-1-0.6-1.5c-0.1-0.6-0.1-1.1,0-1.6l-0.3-1.4
		c0-0.8,0.1-1.6,0.2-2.4c0.1-0.8,0.2-1.6,0.2-2.5c0-0.4,0.1-0.8,0.1-1.1s0.1-0.8,0.2-1.2c0.1-0.9,0.1-1.7,0.1-2.5
		c0-0.8-0.1-1.6-0.1-2.4c0-0.3,0.1-0.7,0.2-1.1c0.1-0.4,0.2-0.8,0.2-1c0-1.1-0.1-2.2-0.4-3.4c-0.3-1.2-0.6-2.4-1-3.6
		C328.9,164.1,328.7,164,328.6,163.8 M289,182.7c-0.1,0-0.2,0-0.2-0.2c0.6-1.4,1.4-2.7,2.2-4.1s1.8-2.5,2.9-3.4c0,0,0-0.1,0.1-0.1
		c0.2,0,0.3,0,0.5,0c0,0.1,0.1,0.2,0.2,0.4c0.1,0.2,0.1,0.4,0,0.6c0,0.3-0.2,0.6-0.5,1c-0.3,0.4-0.5,0.7-0.8,1
		c-0.8,0.7-1.4,1.6-2.1,2.4c-0.6,0.9-1.3,1.6-2.1,2.3C289.1,182.7,289,182.7,289,182.7 M310.8,178.4c-0.2,0.4-0.5,0.9-0.8,1.3
		c-0.3,0.4-0.6,0.8-1,1.2c-0.4,0.4-0.6,0.6-0.8,0.8c-0.2,0.1-0.3,0.2-0.4,0.3c-0.1,0-0.2,0.2-0.4,0.4c-1.2,1.2-2.6,2.4-4.3,3.7
		c-1.7,1.3-3.4,2.3-5.3,3.2c-0.8,0.3-1.7,0.7-2.7,1.1c-1,0.4-1.9,0.6-2.7,0.8c-0.2-0.1-0.5-0.1-0.9-0.1c-0.4,0-0.7,0-0.8,0
		c-0.7,0.1-1.2,0-1.6-0.4c-0.4-0.3-0.6-0.7-0.8-1.2c-0.2-0.4-0.3-0.9-0.3-1.3c0-0.4,0-0.7,0.1-1c0.4,0,0.7-0.2,0.9-0.5
		s0.4-0.5,0.7-0.7c0-0.1,0.1-0.2,0.3-0.2c0.2,0,0.3-0.1,0.4-0.2c0.4-0.2,0.7-0.5,0.9-0.9c0.2-0.3,0.4-0.6,0.5-0.7
		c0.1-0.1,0.2-0.2,0.4-0.3c0.2-0.1,0.3-0.2,0.4-0.3c0.3-0.3,0.6-0.6,0.9-0.8c0.2-0.2,0.4-0.4,0.6-0.6c0.2-0.2,0.3-0.3,0.3-0.4
		c0.4-0.5,0.8-1,1.3-1.3c0.5-0.4,0.9-0.8,1.2-1.3c0-0.2,0.1-0.4,0.4-0.6c0.2-0.3,0.3-0.4,0.3-0.5c0.2-0.4,0.4-0.8,0.7-1.1
		c0.3-0.3,0.6-0.8,0.9-1.3c0-0.4,0.1-0.8,0.3-1.1c0.2-0.4,0.1-0.9-0.3-1.6c-0.1-0.1-0.2-0.2-0.3-0.3s-0.2-0.2-0.3-0.3
		c-0.1-0.2-0.3-0.4-0.6-0.6s-0.7-0.4-1.2-0.6c-0.4-0.2-0.9-0.3-1.3-0.4c-0.5-0.1-0.8-0.2-1.2-0.2c-0.2,0-0.3,0.1-0.3,0.2
		c-0.1,0.1-0.2,0.1-0.3,0c-0.2,0-0.3-0.1-0.4-0.3c-0.1-0.2-0.3-0.3-0.6-0.3c-0.7,0-1.6,0.1-2.4,0.2s-1.6,0.6-2.3,1.4
		c-0.3,0.3-0.6,0.6-0.8,0.8c-0.2,0.2-0.5,0.5-0.9,0.7c-0.3,0.4-0.6,0.8-0.8,1.1c-0.3,0.3-0.5,0.6-0.6,1c-0.4,0.7-0.9,1.4-1.3,2.1
		c-0.4,0.6-0.7,1.2-0.8,1.8c-0.2,0.4-0.3,0.8-0.3,1.3c-0.1,0.1-0.2,0.3-0.4,0.4c-0.1,0.2-0.3,0.3-0.3,0.5c0,0.2,0,0.3,0,0.6
		c0,0.2,0.1,0.5,0.1,0.8c0,0.3-0.1,0.7-0.2,1.2c-0.1,0.5-0.2,1-0.3,1.6c-0.1,0.5-0.1,1.1,0,1.6c0.1,0.5,0.3,0.8,0.7,1
		c-0.1,0.2-0.2,0.3-0.2,0.3c-0.1,0-0.2,0.1-0.3,0.2c0.2,0.2,0.2,0.5,0.1,1c-0.1,0.4-0.1,0.9,0.1,1.3c0.1,0.1,0.2,0.2,0.3,0.4
		c0.1,0.2,0.3,0.3,0.4,0.4c0.1,0,0.2,0,0.4,0c0.1-0.1,0.2-0.1,0.4,0c0.2,0.1,0.5,0.3,0.7,0.5c0.3,0.2,0.5,0.5,0.8,0.8
		c0.2,0.3,0.5,0.6,0.8,0.8c0.3,0.2,0.5,0.4,0.8,0.4c0,0,0.2,0,0.5,0.1s0.6,0.1,1,0.2c0.3,0.1,0.7,0.1,1,0.2c0.3,0.1,0.5,0.1,0.5,0.1
		c0.4,0.1,0.9,0.1,1.4,0c0.5-0.1,1-0.1,1.5,0c0.2,0,0.3,0,0.4,0c0.1,0,0.3,0,0.4,0c1,0,1.7-0.2,2.4-0.5c1.2-0.3,2.3-0.8,3.4-1.5
		c0.3-0.1,0.6-0.2,0.9-0.3c0.3-0.1,0.6-0.3,0.8-0.4c0.4-0.2,0.8-0.4,1.1-0.7c0.3-0.3,0.6-0.4,1-0.4c0.2-0.5,0.4-0.7,0.7-0.8
		c0.3-0.1,0.6-0.3,0.9-0.6c0.2-0.3,0.5-0.6,0.9-0.9c0.4-0.3,0.8-0.5,1.1-0.7c0.4-0.5,0.7-0.8,0.8-1.1c0.1-0.3,0.4-0.6,0.9-0.9
		c0.1-0.1,0.4-0.4,0.7-0.7c0.3-0.4,0.5-0.6,0.6-0.6c0.1-0.1,0.2-0.3,0.5-0.7c0.2-0.4,0.4-0.6,0.5-0.7c0-0.1,0.1-0.3,0.3-0.5
		c0.2-0.2,0.4-0.4,0.5-0.5c0.1-0.3,0.3-0.6,0.5-1c0.2-0.4,0.3-0.7,0.3-1c0.4-0.6,0.5-1.2,0.2-1.8c-0.3-0.6-0.6-0.9-1.1-0.9
		C311.1,177.6,311,177.9,310.8,178.4 M275.5,150.6c-0.1,0-0.3-0.1-0.5-0.1l0-0.2l-0.2,0c-0.3-0.1-0.5-0.2-0.7-0.3
		c-0.2-0.1-0.3-0.2-0.4-0.3c-0.2,0-0.3,0-0.5,0c-0.2,0-0.3-0.1-0.3-0.1c-0.2,0-0.3,0.1-0.4,0.2c-0.1,0.1-0.2,0.1-0.4,0.2
		c-0.1-0.1-0.1-0.1-0.1,0c0,0.1-0.1,0.1-0.2,0.2c-0.6-0.1-0.8,0-0.7,0.3c0,0,0,0.1,0,0.3c0,0.1-0.1,0.2-0.2,0.3
		c0,0.2-0.1,0.3-0.1,0.4c-0.1,0.1-0.1,0.3-0.3,0.5c-0.2,0.1-0.3,0.4-0.4,0.7c-0.1,0.3-0.2,0.6-0.3,0.9c-0.7,1.7-1.2,3.2-1.6,4.4
		c0,0.3-0.2,0.7-0.6,1.2l-0.2,0.3c0,0,0.1,0.2,0.2,0.4c0,0.1-0.1,0.2-0.2,0.3s-0.2,0.2-0.1,0.2c0,0.1,0,0.2,0,0.3c0,0.1,0,0.2,0,0.3
		c-0.1,0.1-0.3,0.3-0.4,0.4c-0.1,0.1-0.2,0.3-0.2,0.6c-0.1,0.2-0.1,0.4-0.1,0.6s-0.1,0.3-0.2,0.4c-0.1,0.1-0.1,0.2,0,0.1
		c0.1-0.1-0.1,0-0.6,0.2c-2.2,0.4-4.1,0.9-5.8,1.4c-1.7,0.5-3.5,1.1-5.3,1.7c-1,0.5-2,0.9-3,1.3c-1,0.4-2,0.9-2.8,1.5
		c-0.4,0.2-0.8,0.5-1.3,0.7s-1,0.4-1.6,0.4c0,0.1,0.1,0.2,0.1,0.4c0.1,0.1,0.1,0.3,0.3,0.3c0.2,0.2,0.4,0.4,0.8,0.6
		c0.4,0.1,0.7,0.3,1.1,0.4c0.4,0.3,0.9,0.6,1.3,0.6c0.4,0.1,0.9,0.2,1.4,0.4c0.3,0,0.6,0.1,0.8,0.1c0.2,0,0.4,0,0.6,0
		c0.8,0.1,1.6,0,2.6-0.2s2-0.4,3-0.6c0.7-0.3,1.4-0.5,2.2-0.7c0.8-0.2,1.5-0.4,2.4-0.6c0.7-0.4,1.1-0.5,1-0.5c-0.1,0-0.1,0.1,0,0
		c0,0.3,0,0.5-0.1,0.7c-0.1,0.2-0.1,0.6-0.2,1c-0.1,0-0.1,0.1-0.1,0.2c0,0.1,0,0.2,0.1,0.3c-0.2,0.2-0.3,0.4-0.3,0.5
		c0,0.1,0.1,0.2,0.1,0.4c0.1,0.1,0.1,0.3,0,0.5c0,0-0.1,0-0.2,0.2c0,0.1,0,0.2,0.1,0.3c0.1,0.1,0.1,0.2,0,0.2c0,0.1-0.1,0.2-0.2,0.3
		c-0.1,0.1-0.2,0.2-0.3,0.5c0,0.3-0.1,0.5,0,0.6c0,0.1,0.1,0.3,0.1,0.5c0,0.2,0,0.3-0.1,0.5c-0.1,0.1-0.2,0.3-0.2,0.4
		s-0.1,0.3,0,0.4c0.1,0.2,0.1,0.4,0,0.6c0,0.3,0,0.4-0.1,0.5c-0.1,0.1-0.1,0.2-0.1,0.2c0,0.1,0.1,0.2,0.1,0.3c0,0.1,0.1,0.2,0,0.4
		c0,0.1,0,0.2-0.1,0.3c-0.1,0.1-0.1,0.2-0.1,0.3c0,0.2,0,0.4,0,0.6c0,0.2,0,0.3,0,0.4c-0.1,0.1-0.1,0.2,0,0.3c0,0.2,0,0.3,0,0.5
		c0,0.2,0,0.3,0,0.4c0.1,0.1,0.1,0.2,0,0.3c-0.1,0-0.1,0.1-0.2,0.2c0,0.1,0,0.1,0.1,0.2c0.1,0.1,0.1,0.1,0,0.2c0,0.1,0,0.2-0.1,0.2
		c-0.1,0-0.1,0.1-0.1,0.2c0,0.1,0,0.2,0,0.4c0.1,0.1,0,0.2,0,0.4c0.1,0.1,0.1,0.2,0,0.3c-0.1,0.1-0.1,0.2-0.2,0.4c0,0.3,0,0.6,0,0.8
		c-0.2,0.7-0.3,1.3-0.2,1.7c0.1-0.4,0.2-0.9,0.4-1.4c0.2-0.5,0.4-1,0.5-1.4c0-0.2-0.1-0.3-0.2-0.4l0.5-0.1c0.1-0.2,0.3-0.6,0.4-1.1
		c0.2-0.6,0.3-0.9,0.4-1c-0.1,0.5-0.2,1-0.2,1.4c0,0.4-0.1,1-0.1,1.7c0,0.1,0,0.3,0,0.6c0,0.3-0.1,0.5-0.1,0.7
		c-0.1,0.3-0.1,0.8,0.1,1.4c0.2,0.7,0.2,1.2,0.1,1.5c0.1,0.2,0.1,0.5,0.1,0.7c-0.1,0.2-0.1,0.4,0,0.7c0,0.5,0,1.1,0,1.8
		c0,0.7,0.1,1.2,0.2,1.4c0.2,0.1,0.2,0.4-0.1,0.9c0.1,0.1,0.1,0.2,0.1,0.3c0,0.1,0,0.2,0,0.3c0,0.1,0,0.2,0.1,0.3
		c0.1,0.1,0.2,0.2,0.2,0.3c0.1,0.6,0.2,1.1,0.4,1.7c0.1,0.6,0.3,1.2,0.5,1.7c0.2,0.6,0.4,1.1,0.6,1.7c0.3,0.6,0.4,1.1,0.5,1.6
		c0.2,0.2,0.3,0.5,0.5,0.8c0.1,0.3,0.3,0.6,0.5,0.8c0,0.2,0,0.4,0.2,0.6c0.1,0.2,0.2,0.4,0.3,0.6c0.3,0.1,0.6,0.3,0.8,0.6
		c0.2,0.2,0.4,0.5,0.4,0.7c0.3,0.4,0.5,0.6,0.6,0.7c0.1,0.1,0.2,0.3,0.4,0.4c0.8,0.6,1.8,1,3.1,1.3c1.2,0.3,2.3,0.2,3.3-0.2
		c0.4-0.2,0.7-0.4,0.9-0.5c0.1-0.2,0.3-0.3,0.6-0.6c0.3-0.4,0.5-0.7,0.8-1c0.2-0.3,0.3-0.5,0.4-0.8c0.4-0.3,0.6-0.5,0.6-0.8
		c0,0,0.1-0.1,0.1-0.2c0-0.1,0-0.2,0.1-0.3c0-0.2,0-0.4,0.1-0.6s0.1-0.5-0.2-0.7c-0.2,0.2-0.3,0.4-0.3,0.6s0,0.3-0.1,0.5
		c-0.2,0.4-0.4,0.7-0.8,0.9c-0.3,0.3-0.7,0.4-1.1,0.4c-0.5,0.2-1,0.2-1.3-0.1c-0.3-0.3-0.7-0.6-1.1-0.9c0-0.2,0-0.3,0-0.2
		c0.1,0.1,0.1,0,0-0.2c-0.7-0.6-1.3-1.6-1.8-2.7c-0.5-1.2-0.8-2.5-1-3.9c-0.2-0.2-0.3-0.5-0.3-0.7c0-0.2-0.1-0.4-0.1-0.7l0.1-0.2
		c0-0.3,0-0.7,0-1.2c-0.1-0.5-0.1-1,0-1.4c0-0.1,0-0.1,0.1,0c0.1,0.1,0.1,0.1,0.1,0c0-0.1-0.1-0.2-0.1-0.4c-0.1-0.2-0.1-0.2,0-0.2
		c0,0,0-0.1,0.1-0.1c0,0,0.1,0,0.1-0.1l0-0.2c0,0,0-0.1-0.1-0.1c0,0,0-0.1,0.1-0.3c0.1-0.1,0.1-0.2,0.1-0.3c0.1-0.4,0.1-0.9,0-1.3
		c-0.1-0.4-0.1-0.8-0.1-1.1c0-0.4,0-0.7,0-1c-0.1-0.3-0.1-0.5-0.1-0.8c0.2-0.3,0.3-0.5,0.2-0.9c-0.1-0.3-0.1-0.7,0-1.2
		c0-0.3,0.1-0.6,0-1c0-0.4-0.1-0.8-0.1-1.3c0-0.1,0-0.3,0.1-0.6c0.1-0.3,0.1-0.5,0.1-0.7c0.1-0.8,0.2-1.6,0.2-2.4
		c0-0.8,0.1-1.6,0.2-2.4c0-0.4,0-0.8,0-1.1c0.1-0.3,0.1-0.6,0.2-0.9c-0.1-0.1-0.2-0.2-0.2-0.4c-0.1-0.2-0.1-0.3,0-0.3
		c-0.1-0.1-0.1-0.3,0-0.5c0.1-0.2,0.1-0.4,0.2-0.8c0.1-0.6,0.1-1,0.1-1.4c0-0.4,0-0.8,0.1-1.2c0-0.3,0.1-0.5,0.1-0.7
		c0-0.2,0.1-0.4,0.1-0.7c0-0.4,0.1-0.9,0.4-1.5c0.2-0.6,0.4-1,0.4-1.2c0.2-0.3,0.7-0.5,1.4-0.5c0.2-0.1,0.6-0.3,0.9-0.5
		c0.4-0.2,0.8-0.3,1.1-0.3c0.2,0,0.4-0.1,0.6-0.2c0.2-0.1,0.4-0.2,0.6-0.4c0,0,0.1,0,0.1-0.1c0-0.1,0-0.1,0.1-0.1c0.1,0,0.2,0,0.4,0
		c0.1,0,0.2,0,0.3-0.1c0.3,0,0.6-0.1,0.8-0.2c0.8-0.3,1.6-0.5,2.4-0.8c0.8-0.2,1.6-0.5,2.4-0.8c0.7,0,1.3-0.1,2-0.3s1.2-0.3,1.8-0.5
		c0.3-0.2,0.7-0.3,1-0.3c0.4,0,0.7-0.1,1.2-0.2c0.7-0.3,1.5-0.4,2.3-0.6c0.8-0.1,1.6-0.3,2.3-0.5c0-0.2,0-0.2-0.1-0.1
		c-0.1,0.1-0.1,0-0.1-0.2c0.1,0.1,0.2,0.1,0.3,0c0.1-0.1,0.2-0.2,0.3-0.3c-0.1-0.2-0.2-0.3-0.2-0.4s0.1-0.2,0.3-0.3
		c-2.1-0.3-4.3-0.3-6.6-0.1c-2.3,0.3-4.5,0.5-6.6,0.8c-0.7,0.1-1.4,0.3-2,0.3c-0.6,0.1-1.3,0.1-1.9,0.2c-0.7,0.1-1.3,0.3-1.8,0.4
		c-0.5,0.1-1.1,0.2-1.9,0.3c-0.1,0.1-0.3,0.1-0.5,0.2c-0.2,0-0.3-0.1-0.5-0.3c0.1-1,0.2-1.9,0.3-2.9s0.3-1.8,0.4-2.7
		c0.3-1,0.5-1.9,0.8-2.7c0.3-0.8,0.4-1.6,0.5-2.4C275.8,150.8,275.7,150.7,275.5,150.6 M245.4,191.6c-0.2,0.3-0.4,0.6-0.8,1.1
		c-0.5,0.9-1.4,1.7-2.7,2.4c-0.6,0.5-1.2,1-1.8,1.5c-0.6,0.4-1.1,1-1.5,1.5c-0.3,0.1-0.5,0.2-0.6,0.5c-0.2,0.2-0.3,0.4-0.5,0.5
		c0,0.1-0.1,0.2-0.2,0.1c-0.1,0-0.2,0-0.2,0c-0.2,0.2-0.3,0.5-0.3,0.6c0,0.2-0.2,0.3-0.4,0.5c-0.1,0.1-0.3,0.2-0.5,0.3
		c-0.3,0.1-0.5,0.2-0.8,0.4c-0.5,0.2-1,0.5-1.4,1c-0.5,0.4-1,0.8-1.6,1c0.3-0.4,0.5-0.9,0.5-1.6c0-0.7,0.1-1.3,0.2-1.9
		c0-0.1,0.1-0.1,0.2-0.2c0.1-0.1,0.2-0.2,0.3-0.4c0-0.1-0.1-0.2-0.1-0.3c0-0.1,0-0.2,0-0.3c0,0,0-0.1,0.1-0.1c0.1,0,0.1-0.1,0.2-0.2
		c0.1-0.3,0.3-0.5,0.5-0.7c0.2-0.2,0.5-0.5,0.9-0.8c0.4-0.4,0.8-0.8,1-1.1c0.2-0.3,0.5-0.7,0.8-1.1l0.6-0.4l0.1-0.3
		c0.4-0.3,0.7-0.5,0.9-0.6c0.3-0.1,0.5-0.3,0.6-0.6c1.1-0.7,2.3-1.4,3.5-2.2c1.3-0.8,2.6-1.3,3.9-1.6c0.2,0.4,0.2,0.8,0,1.2
		c-0.2,0.4-0.3,0.6-0.4,0.8C245.7,190.9,245.5,191.3,245.4,191.6 M263,193.1c0.5-0.5,0.9-1,1.1-1.3c0.1-0.2,0.2-0.3,0.2-0.2
		c0,0,0,0,0.1-0.1c0-0.1,0.1-0.2,0.2-0.4c0.1-0.2,0.3-0.6,0.6-1.1c0.1-0.6,0.2-1.2,0.2-1.6c0-0.4,0-0.8,0.1-1.1c0-0.3,0-0.5,0-0.6
		c-0.1-0.1-0.4,0-0.7,0.3c-0.2,0.1-0.3,0.3-0.5,0.4c-0.7,0.9-1.7,1.9-3,2.9c-1.3,1.1-2.6,2.1-4,3.1c-1.4,1-2.6,1.9-3.8,2.6
		c-1.2,0.8-2,1.2-2.5,1.4c-0.3,0.1-0.3-0.1-0.3-0.3c0.1-0.3,0.2-0.6,0.3-1c0.1-0.4,0.2-0.7,0.3-1c0.1-0.3,0-0.4-0.2-0.4
		c0.8-1.6,1.2-3,1.1-4.4c-0.1-1.4-0.4-2.4-0.7-3.1c-0.2-0.3-0.4-0.7-0.6-1c-0.3-0.3-0.5-0.5-0.6-0.5c-0.1-0.1-0.1-0.2-0.1-0.3
		c0-0.1-0.1-0.2-0.1-0.2l-1.9-0.6c-0.1,0-0.2,0-0.3-0.1c-0.1-0.1-0.3-0.2-0.6-0.2c-0.5-0.3-1-0.5-1.6-0.5c-0.6,0-1.2-0.1-1.9-0.1
		c-1,0.1-2.1,0.3-3.1,0.6c-1,0.3-2,0.7-2.9,1.1c-0.9,0.4-1.7,0.9-2.5,1.3c-0.8,0.5-1.5,0.9-2,1.2c-0.1-0.6-0.2-1.2-0.2-1.8
		s-0.2-1.3-0.5-1.8c-0.1-0.2-0.3-0.4-0.6-0.4c-0.3,0-0.4-0.2-0.4-0.4c-0.1-0.3-0.2-0.4-0.4-0.2c-0.1,0.2-0.2,0.2-0.4,0.1
		c-0.2-0.6-0.3-0.9-0.5-1c-0.2-0.1-0.3-0.3-0.2-0.6c-0.3,0-0.5-0.1-0.6-0.2c-0.1-0.1-0.2,0-0.3,0.3c0.1-0.2,0-0.3-0.2-0.5
		c-0.3-0.1-0.6-0.2-0.9-0.3c-0.3-0.1-0.6-0.2-0.9-0.2c-0.3,0-0.4-0.1-0.3,0c-0.7-0.4-1.4-0.6-2.1-0.6c-0.7,0.1-1.5,0.3-2.2,0.6
		c0.4,0.7,0.7,1.3,0.9,2s0.4,1.4,0.6,2.1l0,0.1c0,0.1,0,0.1,0.1,0.1c0,1.5,0,3-0.1,4.5c-0.1,1.5-0.3,3.1-0.6,4.8
		c-0.4,3.1-0.7,6.2-1.1,9.2c-0.3,3-0.5,6.1-0.4,9.3c-0.2,3.3-0.3,6.7-0.2,10.1s0.5,7,1.1,10.6c0.3,1.3,0.6,2.5,0.9,3.8
		c0.3,1.3,0.7,2.3,1.2,3.2c0.2,0.8,0.6,1.8,1.4,2.8c0.6,0.9,1.2,1.6,1.9,1.9c0.6,0.3,1.3,0.1,2.2-0.6c-0.2-0.5-0.4-1-0.5-1.3
		c-0.1-0.3-0.3-0.6-0.5-0.8c-0.2-0.6-0.5-1.2-0.7-1.6c-0.2-0.4-0.4-0.9-0.7-1.4c0.2,0,0.2,0,0.2-0.2c0-0.2,0-0.3,0-0.4
		c0-0.2,0-0.3-0.1-0.3c-0.1,0-0.1,0.1-0.2,0.3c0,0.2,0,0.2-0.1,0.2c0,0,0-0.1-0.1-0.3c0-0.1-0.1-0.2-0.2-0.2c-0.2-1.5-0.5-3-0.8-4.6
		c-0.3-1.6-0.6-3.3-0.7-5.1c0-0.3,0.1-0.5,0.2-0.8c0.1-0.2,0.1-0.5,0.1-0.7c0-0.4-0.1-0.8-0.2-1.2s-0.1-0.8-0.2-1.1
		c0.1-0.4,0.2-0.9,0.1-1.5c0.1-0.4,0.1-0.8,0.2-1.2c0-0.3,0.1-0.7,0.3-1c0-0.1,0-0.2,0-0.3c0-0.2-0.1-0.4,0-0.6
		c0.1-0.9,0.2-1.7,0.2-2.4c0.1-0.7,0.2-1.4,0.5-2.2c0-0.2,0-0.4,0-0.6c0-0.2,0.1-0.5,0.2-0.8c0.1-0.1,0.1-0.4,0.2-0.7
		c0-0.4,0.1-0.4,0.3-0.3c0,0.3-0.1,0.6-0.2,1c-0.1,0.4-0.1,0.6-0.2,0.9c0.1,0.6,0.2,1.2,0.1,1.8c-0.1,0.7-0.1,1.3-0.2,2
		c-0.1,0.7-0.2,1.3-0.2,2c0,0.7,0,1.3,0.2,1.9c0.1-0.9,0.2-1.7,0.3-2.6c0.1-0.8,0.3-1.6,0.4-2.4c0.1-0.9,0.1-1.7,0.2-2.5
		c0-0.7,0.3-1.4,0.7-2.1c-0.2-0.3-0.2-0.5-0.2-0.8c0-0.2,0.1-0.4,0.1-0.6c0.1-0.2,0.1-0.4,0.2-0.6c0.1-0.2,0.1-0.5,0-0.9
		c0.4-0.2,0.7-0.6,1-1.1c0.1-0.2,0.1-0.4,0.1-0.5c0-0.2,0.1-0.4,0.2-0.5c0.6,0,1,0.1,1.3,0.4c0.3,0.3,0.6,0.5,1,0.7
		c0.5,0.1,1,0.1,1.4,0.1c0.4,0,0.9-0.1,1.4-0.2c0.9-0.2,1.7-0.4,2.5-0.8s1.5-0.7,2.2-1.1c0.4-0.2,0.8-0.4,1.3-0.7
		c0.5-0.3,0.9-0.6,1.3-1c0.4-0.3,0.6-0.5,0.8-0.5c0.2,0,0.3,0,0.4,0c0.1,0,0.3,0,0.5,0c0.2,0,0.5-0.2,0.9-0.5
		c0.1-0.1,0.3-0.3,0.6-0.4c0.3-0.1,0.6-0.2,0.7-0.3c0.1-0.1,0.3-0.2,0.6-0.4c0.3-0.2,0.6-0.3,0.7-0.4l1.2-0.7
		c0.3-0.2,0.5-0.3,0.5-0.3c0.1,0,0.1-0.1,0.2-0.2c0.1-0.1,0.2-0.1,0.3-0.2c0.1-0.1,0.3-0.2,0.7-0.5c0.9-0.5,1.6-0.9,2.1-1.1
		c0.5-0.2,1-0.6,1.6-1.1c0.2,0,0.4-0.1,0.7-0.2c0.3-0.2,0.6-0.4,0.9-0.6c0.3-0.2,0.6-0.5,0.9-0.7c0.3-0.3,0.6-0.5,0.8-0.6
		c0.6-0.4,1.2-0.9,1.7-1.3c0.5-0.4,0.9-0.7,1.3-1.1c0.4-0.3,0.6-0.6,0.8-0.7C262.1,194,262.4,193.6,263,193.1 M198.3,198.9
		c-0.4,0.7-0.7,1.4-1.1,2c-0.6,0.9-1.2,1.9-1.8,3.1c-0.6,1.1-1.5,2-2.6,2.7c0.7-1.9,1.5-3.7,2.3-5.4c0.8-1.8,2-3.4,3.4-4.8
		c0.3-0.1,0.4,0,0.5,0.1c0,0.1,0,0.2-0.1,0.2C198.8,197.5,198.6,198.2,198.3,198.9 M225.6,195.7c-0.3-0.2-0.5-0.2-0.8-0.1
		c-0.3,0.1-0.6,0.4-0.9,0.8c-0.3,0.4-0.8,1-1.3,1.7s-1.1,1.4-1.6,2.2c-0.6,0.8-1.1,1.5-1.6,2.2c-0.5,0.7-0.9,1.3-1.3,1.7
		c-0.1,0.1-0.2,0.1-0.3,0.2c-0.1,0.1-0.2,0.1-0.3,0.2c-0.1,0.1-0.1,0.3-0.1,0.4c0,0.2-0.1,0.3-0.1,0.4c-0.3,0.3-0.5,0.6-0.6,0.8
		c-0.1,0.2-0.3,0.4-0.4,0.6c-0.1,0.2-0.3,0.4-0.6,0.6c-0.2,0.2-0.5,0.5-0.9,0.9c-0.5,0.4-1,0.8-1.4,1.2c-0.4,0.4-0.9,0.7-1.3,1
		c-0.5,0.3-0.9,0.4-1.5,0.5c-0.5,0.1-1.2,0.1-1.9,0c-0.4-0.3-0.7-0.8-1-1.4c-0.3-0.6-0.5-1.2-0.6-1.7c-0.2-1-0.3-2-0.3-3
		c0-1,0.1-1.8,0.2-2.6c0-0.3,0.1-0.7,0.1-1.1s0.1-0.7,0.2-1c0.1-0.8,0.3-1.7,0.6-2.5c0.3-0.8,0.5-1.6,0.6-2.4
		c0.2-0.8,0.2-1.6,0.3-2.4c0-0.8-0.1-1.5-0.4-2.3c-0.7-0.8-1.7-1.3-2.8-1.5c-1.2-0.3-2.4-0.1-3.9,0.4c-0.3,0.4-0.5,1-0.6,1.6
		c0,0.6-0.2,1.1-0.6,1.5c-0.8-0.1-1.4-0.2-1.9-0.5c-0.5-0.3-1.2-0.4-2-0.3c-0.3,0.3-0.7,0.6-1.1,0.9c-0.4,0.2-0.8,0.5-1.1,0.8
		c-0.4,0.3-0.7,0.7-0.9,1.1c-0.3,0.4-0.6,0.6-1.1,0.8c-0.2,0-0.5,0.2-0.9,0.6c-0.4,0.4-0.9,0.9-1.3,1.4c-0.5,0.6-1.1,1.3-1.6,2.1
		c-0.8,1.1-1.4,2.4-1.8,3.8c-0.4,1.4-0.9,2.8-1.4,4.2c0,0.3,0.1,0.5,0.3,0.6c0.2,0.1,0.2,0.3,0.2,0.6c-0.3,0.1-0.4,0.4-0.3,0.9
		c0.2,0.5,0.2,0.9,0,1.2c0.6,0.6,1,1.1,1.4,1.5c0.4,0.4,1,0.7,1.7,0.9c0.8,0.1,1.6,0.2,2.5,0.3c0.9,0.1,1.7,0,2.3-0.2
		c0.4-0.1,0.9-0.5,1.3-0.9c0.4-0.5,0.8-1,1.1-1.6c0.3-0.6,0.6-1.1,0.9-1.6c0.3-0.5,0.5-1,0.6-1.3c0.2-0.2,0.3-0.4,0.4-0.7
		s0.3-0.3,0.7-0.1c0.4,1.7,1,3.1,1.6,4.2c0.7,1.1,1.5,1.8,2.5,2.3c1,0.5,2.1,0.7,3.5,0.7c1.4,0,3-0.2,4.8-0.6c0.9-0.2,2-0.6,3.3-1.2
		c1.4-0.6,2.7-1.6,3.9-3.1c0-0.1,0.1-0.1,0-0.2c0-0.1,0-0.2,0-0.3c0.1-0.1,0.2-0.2,0.4-0.2c0.2,0,0.3,0,0.4-0.1
		c0.2-0.2,0.3-0.4,0.4-0.5c0.1-0.1,0.2-0.2,0.4-0.4c0.2-0.1,0.3-0.3,0.5-0.6c0.1-0.2,0.3-0.4,0.6-0.6c0.1-0.1,0.3-0.3,0.4-0.6
		c0.1-0.3,0.2-0.5,0.3-0.7c0.6-0.7,1.2-1.5,1.8-2.5c0.6-1,1-1.9,1.2-2.5c0.1-0.2,0.2-0.4,0.4-0.8c0.2-0.4,0.3-0.7,0.4-1.1
		c0.1-0.4,0.2-0.8,0.3-1.1c0.1-0.3,0.1-0.6,0-0.9L225.6,195.7z M150.2,195.6c0,0.5-0.1,0.9-0.1,1.3c0.3-0.2,0.4-0.4,0.3-0.7
		c-0.1-0.3-0.2-0.6-0.2-0.8c0-0.3,0.1-0.5,0.1-0.7c0-0.2,0-0.3-0.1-0.5C150.2,194.7,150.2,195.2,150.2,195.6 M151.3,205.2
		c-0.1-0.1-0.1-0.2,0-0.3c0-0.1,0.1-0.1,0.1,0S151.5,205,151.3,205.2C151.4,205.2,151.4,205.2,151.3,205.2 M151.3,204.2
		c-0.1,0-0.1-0.2-0.1-0.5c0.1-0.2,0.1-0.2,0.2,0s0.1,0.3,0.1,0.3C151.4,204.2,151.4,204.3,151.3,204.2 M149.9,187
		c0-0.1-0.1-0.1-0.2-0.1c0-0.1,0.1-0.1,0.2-0.1c0.1,0,0.1,0,0.1-0.1c0.1,0,0.1,0.1,0.1,0.1c0,0.1,0,0.1,0.1,0.2
		C150,187.1,149.9,187.1,149.9,187 M150.4,185.7c0-0.6,0.1-1.2,0.2-1.8c0.1,1.1,0.2,2.4,0.2,3.6c0,1.3,0,2.5-0.2,3.6
		c-0.1-0.1-0.2-0.3-0.3-0.6c0-0.3,0-0.6,0-0.8c-0.1-0.4-0.1-0.7-0.1-1.1c0-0.3,0-0.7,0.1-1.1C150.4,186.9,150.4,186.3,150.4,185.7
		 M150.8,198.9c0.1,0.2,0.2,0.4,0.2,0.6c0,0.3-0.1,0.5-0.2,0.8c-0.1,0.2,0,0.5,0.3,0.7c-0.2,0.1-0.4,0.2-0.3,0.4
		c0,0.2,0,0.4-0.1,0.6c0.1,0.1,0.3,0.2,0.4,0.1c0.1-0.1,0.2,0,0.3,0.2c-0.4,0.1-0.6,0.2-0.4,0.3c0.1,0.1,0.2,0.2,0.2,0.3l-0.2,0
		c-0.1,0-0.1,0.1-0.1,0.2c0,0.6,0.1,1.4,0.4,2.3c0.3,1,0.3,1.8,0.2,2.5c0,0.1,0,0.2,0,0.3c0,0.1,0,0.2,0,0.2c0,0.1,0.1,0.2,0.1,0.3
		c0.1,0.1,0.1,0.2,0.1,0.2c0.3,1.1,0.6,2.3,0.7,3.5c0.1,1.2,0.3,2.3,0.5,3.2c0.1,0.7,0.3,1.3,0.4,1.9c0.1,0.6,0.2,1.3,0.3,2
		c0,0.1,0,0.2-0.1,0.2c-0.1,0-0.1,0.1-0.1,0.2c0.1,0.8,0.3,1.6,0.7,2.3c0.4,0.7,0.5,1.4,0.3,2.2c0.3,0.1,0.5,0.4,0.6,0.8
		c0.1,0.4,0.1,0.7,0.1,0.9c-0.4-0.5-0.6-1.1-0.8-1.8c-0.2-0.7-0.5-1.4-0.9-2.1c0.2,0.2,0.2,0.5,0.3,0.7c0,0.2,0.1,0.4,0.2,0.7
		c0,0.4,0.1,0.8,0.4,1c0,0.1,0,0.2-0.1,0.3c-0.1,0.1-0.1,0.2-0.1,0.2c0,0.1,0.1,0.2,0.2,0.3s0.2,0.2,0.2,0.3s0,0.2,0,0.3
		c0,0.1,0,0.2,0,0.3c0,0.4,0.1,0.8,0.4,1.2c0.3,0.4,0.4,0.7,0.3,0.9c-0.3,0.1-0.4-0.1-0.4-0.4c0-0.3-0.1-0.4-0.4-0.4
		c0.2,0.6,0.5,1.3,0.9,2c0.4,0.7,0.8,1.3,1.1,1.8c0.1,0.1,0.3,0.1,0.4,0.2c0.1,0,0.3,0.1,0.4,0.2c0.2,0.2,0.3,0.4,0.6,0.6
		c0.2,0.2,0.4,0.4,0.5,0.5c0.5,0.3,1.1,0.4,1.8,0.2c0.7-0.2,1.4-0.4,2-0.8c-0.1-0.6,0-1,0.5-1.1c-0.3-1.3-0.4-2.7-0.2-4s0-2.7-0.3-4
		c0-0.1-0.1-0.2-0.2-0.3c-0.1-0.1-0.2-0.2-0.2-0.3c0-0.2,0-0.5,0.1-0.7c0.1-0.3,0.1-0.6,0.1-0.9c0-0.6,0-1.2-0.1-1.8
		c-0.1-0.5-0.1-1.1-0.1-1.6c0.3,0,0.5,0,0.4,0c0,0,0-0.1,0-0.3c0-0.2,0.1-0.2,0.3-0.3c-0.1-0.3-0.1-0.7-0.1-1.3c0-0.5,0-1,0-1.5
		c0-0.8,0-1.6-0.1-2.3c-0.1-0.8,0-1.4,0-1.8c1.3,1,2.6,2,4,2.9c1.4,0.9,2.8,2,4,3.1c0.4-0.2,0.8-0.1,1.2,0.2
		c0.4,0.3,0.7,0.6,1.1,0.9c0.3,0.2,0.6,0.4,0.9,0.6c0.3,0.2,0.5,0.4,0.8,0.6l0.9,0.6c0.1,0.1,0.3,0.2,0.4,0.4
		c0.2,0.2,0.4,0.3,0.6,0.4c0.6,0.4,1,0.6,1.2,0.7c0.2,0.1,0.6,0.2,1.2,0.4c0.3,0.1,0.8,0.3,1.4,0.6c0.6,0.2,1.2,0.4,1.9,0.5
		c0.6,0.1,1.2,0.1,1.6-0.1c0.5-0.1,0.7-0.4,0.7-0.9c0-0.3-0.3-0.7-0.9-1.1c-0.6-0.4-1.1-0.8-1.5-1.1c-0.5-0.4-0.8-0.7-1-1
		c-0.2-0.3-0.5-0.6-0.8-1c-0.9-0.8-1.9-1.5-2.9-2.3c-1-0.8-2-1.5-2.8-2.3c-0.3-0.1-0.5-0.4-0.7-0.6c-0.2-0.3-0.4-0.5-0.6-0.7
		c-0.1-0.1-0.2-0.1-0.3-0.1s-0.2,0-0.3-0.1c-0.1,0-0.1-0.1-0.1-0.2c0-0.1-0.1-0.2-0.1-0.2c-1.7-1.4-3.3-2.9-4.9-4.5
		c-1.6-1.6-3.1-3.1-4.5-4.4c0.2-0.2,0.4-0.3,0.6-0.6c0.2-0.2,0.5-0.5,0.8-0.8c0-0.1,0.1-0.1,0.3-0.1c0.1,0,0.2,0,0.4,0
		c0.1-0.1,0.2-0.3,0.2-0.5c0-0.2,0.1-0.4,0.3-0.6c0.2-0.2,0.4-0.4,0.6-0.5c0.2-0.1,0.5-0.3,0.7-0.6c0.4-0.2,0.8-0.6,1.1-1
		c0.3-0.4,0.6-0.9,0.9-1.4c0.4-0.3,0.7-0.7,1.1-1c0.4-0.3,0.7-0.7,1.1-1c0.1-0.2,0.2-0.4,0.4-0.5c0.2-0.1,0.4-0.3,0.6-0.5
		c0.3-0.4,0.8-0.8,1.3-1.3c0.5-0.5,1-0.9,1.5-1.3c0.4-0.3,0.6-0.6,0.8-0.7c0.2-0.1,0.4-0.4,0.7-0.8c0.5-0.5,0.9-0.9,1.3-1.2
		c0.4-0.2,0.8-0.6,1.2-1.1c0.1-0.2,0.2-0.4,0.3-0.5c0.1-0.1,0.2-0.3,0.3-0.4c0.1-0.1,0.3-0.3,0.4-0.4c0.2-0.1,0.3-0.3,0.5-0.5
		c0-0.1,0.1-0.1,0.1-0.3c0.1-0.1,0.1-0.2,0.2-0.4c0.2-0.2,0.4-0.4,0.6-0.5c0.2-0.1,0.4-0.3,0.5-0.6c0.3-0.2,0.5-0.3,0.7-0.5
		c0.2-0.2,0.4-0.4,0.6-0.6c0.2-0.2,0.4-0.4,0.6-0.6c0.2-0.2,0.4-0.4,0.6-0.6c0.4-0.2,0.6-0.5,0.8-0.7c0.1-0.2,0.3-0.6,0.5-1.1
		c0.2-0.4,0.4-0.7,0.6-0.9c0.2-0.2,0.2-0.5,0.1-0.7c0-0.2-0.2-0.3-0.4-0.4c-0.3-0.1-0.6-0.3-0.9-0.4c-0.3-0.1-0.6-0.2-0.9-0.3
		c-0.3-0.1-0.5-0.2-0.7-0.3c-0.5-0.1-1.1-0.3-1.7-0.5s-1.2-0.4-1.6-0.6c-0.2,0-0.3,0-0.4,0c-0.1,0.1-0.3,0.1-0.4,0
		c-0.3,0-0.6-0.1-0.8-0.2c-0.3-0.1-0.6-0.1-1-0.1c0,0.3-0.1,0.5-0.4,0.6c-0.2,0.1-0.5,0.3-0.6,0.4c-0.1,0.2-0.2,0.4-0.2,0.6
		c0,0.2,0,0.4-0.1,0.6c-0.2,0.2-0.4,0.4-0.6,0.6c-0.3,0.1-0.5,0.3-0.6,0.6c-0.1,0.1-0.1,0.3-0.1,0.5c0,0.2-0.1,0.4-0.1,0.5
		c-0.2,0.2-0.4,0.3-0.6,0.4c-0.2,0.1-0.4,0.3-0.5,0.5c-0.2,0.2-0.3,0.4-0.4,0.6c-0.1,0.2-0.2,0.4-0.4,0.6c-0.2,0.2-0.4,0.5-0.8,0.7
		c-0.4,0.2-0.6,0.4-0.6,0.5c-0.1,0.1-0.1,0.2,0,0.3c0,0.1,0.1,0.2,0,0.3c-0.1,0.1-0.2,0.2-0.4,0.3c-0.2,0.1-0.3,0.2-0.3,0.3l0.1,0.3
		c-0.1,0.2-0.2,0.5-0.5,0.7c-0.3,0.3-0.5,0.5-0.8,0.8c-0.8,0.7-1.5,1.4-2.3,2.1c-0.8,0.7-1.4,1.5-1.9,2.3c0.1,0.1,0.1,0,0.2-0.2
		c0-0.2,0.1-0.2,0.2,0.1c-0.1,0.3-0.3,0.5-0.5,0.6c-0.2,0.1-0.4,0.2-0.7,0.3c-0.2,0.1-0.5,0.2-0.7,0.3c-0.2,0.1-0.4,0.3-0.6,0.5
		c0.2,0.1,0.4,0,0.5-0.2c0.1-0.2,0.2-0.2,0.3,0c-0.1,0.1-0.3,0.3-0.4,0.4c-0.1,0.1-0.2,0.2-0.4,0.3c-0.2-0.2-0.4-0.3-0.6-0.2
		c-0.3,0.1-0.5,0.3-0.6,0.5c0.2,0.1,0.4,0,0.5-0.2c0.1-0.2,0.2-0.2,0.4-0.2c0,0.5-0.2,0.9-0.7,1c-0.5,0.1-0.8,0.4-1,0.7
		c0-0.2,0-0.3-0.1-0.3c-0.1,0-0.2,0-0.2,0c-0.1,0-0.2,0.1-0.3,0.1c-0.1,0-0.2,0-0.3-0.1c-0.1-0.7-0.1-1.5,0.1-2.2
		c0.2-0.8,0.1-1.5-0.1-2.2c0-0.1-0.1-0.2-0.1-0.3c0-0.1-0.1-0.2-0.1-0.3c0,0,0-0.1,0.1-0.3c0.1-0.1,0.1-0.2,0.1-0.3
		c-0.1-0.3-0.1-0.5-0.2-0.7c-0.1-0.2-0.2-0.3-0.2-0.4c0-0.1,0.1-0.3,0.2-0.5c0.1-0.2,0.1-0.3,0-0.4c0,0.1,0,0.1-0.2,0
		c-0.1-0.1-0.2-0.2-0.3-0.2c0.1-0.3,0.1-0.6-0.1-0.9c-0.2-0.3-0.3-0.6-0.3-1c0-0.1,0-0.2,0.1-0.4c0.1-0.1,0.1-0.3,0.1-0.5
		c0.1-0.8,0-1.8-0.3-3.1c-0.2-1.3-0.4-2.6-0.6-3.9c-0.1-0.7-0.2-1.3-0.2-1.9c-0.1-0.6-0.2-1.4-0.3-2.3c0-0.4,0.1-0.8,0.1-1.1
		c0-0.4,0-0.7,0-0.9c-0.2-0.4-0.5-0.7-1.1-0.9c-0.5-0.2-0.9-0.5-1.3-0.7c-0.5-0.2-1-0.4-1.6-0.7c-0.6-0.3-1.1-0.5-1.5-0.5
		c-0.2-0.1-0.3,0-0.3,0.1c0,0.1,0,0.2-0.1,0.2c-0.2,0-0.3,0-0.4,0c0-0.1-0.1-0.1-0.1,0c-0.2,0-0.3,0.1-0.4,0.3
		c-0.1,0.2-0.3,0.2-0.5,0c0.3,1,0.3,1.9,0,2.7c-0.2,0.8-0.4,1.7-0.4,2.7c-0.1,1.4-0.3,2.8-0.4,4.2c-0.1,1.4-0.2,2.8-0.3,4.2
		c0,0.7,0,1.5,0,2.2c-0.1,0.7-0.1,1.4,0,2.1c0.1-0.2,0.1-0.5,0-0.7c-0.1-0.3,0-0.5,0.3-0.6c0.1,0.8,0.1,1.6,0,2.4
		c-0.1,0.9,0,1.6,0.3,2.2c-0.3,0.3-0.4,0.7-0.3,1.1c0.1,0.4,0.2,0.8,0.1,1.3c0,0.3-0.1,0.6-0.2,0.9c-0.1,0.3-0.1,0.6,0.3,0.9
		c0.1-0.8,0.2-1.6,0.1-2.4s0.1-1.6,0.3-2.3c0.1,0.9,0.1,1.8,0.1,2.7c0,0.9,0,1.8,0,2.7c0.1,0,0.2,0,0.3-0.2c0.1-0.2,0.2-0.2,0.3-0.1
		c-0.2,0.7-0.2,1.3,0,1.8c0.2,0.5,0.3,1.1,0.3,1.5c0,0.1,0,0.2-0.1,0.2c-0.1,0-0.1,0.1-0.1,0.2c0,0.1,0.1,0.1,0.1,0.1
		c0.1,0,0.1,0.1,0.2,0.2c0.2,0.5,0.3,1.2,0.3,2c0,0.8-0.1,1.6-0.2,2.4c-0.2-0.5-0.3-1-0.2-1.4c0.1-0.4,0.1-0.8,0.1-1.3
		C150.8,198.6,150.7,198.7,150.8,198.9 M153.2,222.5C153.3,222.5,153.3,222.5,153.2,222.5c0.1-0.1,0.1-0.2,0.1-0.5
		c0-0.2-0.1-0.2-0.1,0C153.1,222.3,153.1,222.5,153.2,222.5 M150.9,209.5c0,0.1,0,0.2,0.1,0.5c0.2-0.1,0.3-0.3,0.3-0.6
		c-0.1-0.3-0.2-0.4-0.5-0.3C150.9,209.3,150.9,209.5,150.9,209.5 M150.6,207.8c0,0.1,0,0.1,0.1,0.1c0.2-0.1,0.1-0.2-0.2-0.3
		C150.6,207.7,150.6,207.7,150.6,207.8 M150.5,203.6c-0.1,0.2-0.1,0.2,0.1,0.3c0.1-0.1,0.1-0.3,0.2-0.4c0-0.1,0-0.2-0.1-0.3
		C150.6,203.3,150.6,203.4,150.5,203.6 M150.1,201.1c-0.1,0.1-0.1,0.2,0.2,0.2c0-0.3,0.1-0.3,0.2-0.2c0.1,0.1,0.1,0-0.1-0.4l-0.1,0
		l-0.2,0C150.2,200.8,150.2,200.9,150.1,201.1 M149.3,199.4c0.1,0.2,0.2,0.2,0.3-0.1c-0.1,0-0.2,0-0.1-0.1c0-0.1,0-0.2,0.1-0.3
		C149.2,199,149.2,199.1,149.3,199.4 M149.6,193.2c0-0.1,0-0.1,0-0.2c0-0.1,0-0.1-0.1-0.2C149.5,193,149.5,193.1,149.6,193.2
		 M160.5,191.1c0.1,0.5,0,1-0.1,1.3c0.2-0.1,0.4-0.3,0.4-0.6c0-0.3,0.1-0.6,0.1-1c0-0.3,0-0.5-0.1-0.8c-0.1-0.3-0.2-0.4-0.3-0.3
		C160.5,190.1,160.5,190.6,160.5,191.1 M105.4,220.9c-0.1,0-0.2,0-0.2-0.2c0.6-1.4,1.4-2.7,2.2-4.1c0.8-1.4,1.8-2.5,2.9-3.4
		c0,0,0-0.1,0.1-0.1c0.2,0,0.3,0,0.5,0c0,0,0.1,0.2,0.2,0.4c0.1,0.2,0.1,0.4,0.1,0.6c0,0.3-0.2,0.6-0.5,1c-0.3,0.4-0.5,0.7-0.8,1
		c-0.8,0.7-1.4,1.6-2.1,2.4c-0.6,0.9-1.3,1.6-2.1,2.3C105.5,220.9,105.5,220.9,105.4,220.9 M127.2,216.6c-0.2,0.4-0.5,0.9-0.8,1.3
		c-0.3,0.4-0.6,0.8-1,1.2c-0.3,0.4-0.6,0.6-0.8,0.8c-0.2,0.1-0.3,0.2-0.4,0.3c-0.1,0-0.2,0.2-0.4,0.4c-1.2,1.2-2.6,2.4-4.3,3.7
		c-1.7,1.3-3.4,2.3-5.3,3.2c-0.8,0.3-1.7,0.7-2.7,1.1c-1,0.4-1.9,0.6-2.7,0.8c-0.2-0.1-0.5-0.1-0.9-0.1c-0.4,0-0.7,0-0.8,0
		c-0.7,0.1-1.2,0-1.6-0.4c-0.4-0.3-0.6-0.7-0.8-1.2c-0.2-0.4-0.3-0.9-0.3-1.3c0-0.4,0-0.8,0.1-1c0.4,0,0.7-0.2,0.9-0.5
		c0.2-0.3,0.4-0.5,0.7-0.7c0-0.1,0.1-0.2,0.3-0.2c0.2,0,0.3-0.1,0.4-0.2c0.4-0.2,0.7-0.5,0.9-0.9c0.2-0.3,0.4-0.6,0.5-0.7
		c0.1-0.1,0.2-0.2,0.4-0.3c0.2-0.1,0.3-0.2,0.4-0.3c0.3-0.3,0.6-0.6,0.9-0.8c0.2-0.2,0.4-0.4,0.6-0.6c0.2-0.2,0.3-0.3,0.3-0.4
		c0.4-0.5,0.8-1,1.3-1.3c0.5-0.4,0.9-0.8,1.2-1.3c0-0.2,0.1-0.4,0.4-0.6c0.2-0.3,0.3-0.4,0.3-0.5c0.2-0.4,0.4-0.8,0.7-1.1
		c0.3-0.3,0.6-0.8,0.9-1.3c0-0.4,0.1-0.8,0.3-1.1c0.2-0.4,0.1-0.9-0.3-1.6c-0.1-0.1-0.2-0.2-0.3-0.3c-0.1-0.1-0.2-0.2-0.3-0.3
		c-0.1-0.2-0.3-0.4-0.6-0.6c-0.3-0.2-0.7-0.4-1.2-0.6c-0.4-0.2-0.9-0.3-1.3-0.4c-0.5-0.1-0.8-0.2-1.2-0.2c-0.2,0-0.3,0.1-0.3,0.2
		c-0.1,0.1-0.2,0.1-0.3,0c-0.2,0-0.3-0.1-0.4-0.3c-0.1-0.2-0.3-0.3-0.6-0.3c-0.7,0-1.6,0.1-2.4,0.2c-0.9,0.1-1.6,0.6-2.3,1.4
		c-0.3,0.3-0.6,0.6-0.8,0.8c-0.2,0.2-0.5,0.5-0.9,0.7c-0.3,0.4-0.6,0.8-0.8,1.1c-0.3,0.3-0.5,0.6-0.6,1c-0.4,0.7-0.9,1.4-1.3,2.1
		c-0.4,0.6-0.7,1.2-0.8,1.8c-0.2,0.4-0.3,0.8-0.3,1.3c-0.1,0.1-0.2,0.3-0.4,0.4c-0.1,0.2-0.3,0.3-0.3,0.5c0,0.2,0,0.3,0,0.6
		c0,0.2,0.1,0.5,0.1,0.8c0,0.3-0.1,0.7-0.2,1.2c-0.1,0.5-0.2,1-0.3,1.6c-0.1,0.5-0.1,1.1,0,1.6c0.1,0.5,0.3,0.8,0.7,1
		c-0.1,0.2-0.2,0.3-0.2,0.3s-0.2,0.1-0.3,0.2c0.2,0.2,0.2,0.5,0.1,1c-0.1,0.4-0.1,0.9,0.1,1.3c0.1,0.1,0.2,0.2,0.3,0.4
		c0.1,0.2,0.3,0.3,0.4,0.4c0.1,0,0.2,0,0.4,0c0.1-0.1,0.2-0.1,0.4,0c0.2,0.1,0.5,0.3,0.8,0.5c0.3,0.2,0.5,0.5,0.8,0.8
		c0.2,0.3,0.5,0.6,0.8,0.8c0.3,0.2,0.5,0.4,0.8,0.4c0,0,0.2,0,0.5,0.1c0.3,0.1,0.6,0.1,1,0.2c0.3,0.1,0.7,0.1,1,0.2
		c0.3,0.1,0.5,0.1,0.5,0.1c0.4,0.1,0.9,0.1,1.4,0c0.5-0.1,1-0.1,1.5,0c0.2,0,0.3,0,0.4,0c0.1,0,0.3,0,0.4,0c1,0,1.7-0.2,2.4-0.5
		c1.2-0.3,2.3-0.8,3.4-1.5c0.3-0.1,0.6-0.2,0.9-0.3c0.3-0.1,0.6-0.3,0.8-0.4c0.4-0.2,0.8-0.4,1.1-0.7c0.3-0.3,0.6-0.4,1-0.4
		c0.2-0.5,0.4-0.7,0.7-0.8c0.3-0.1,0.6-0.3,0.9-0.6c0.2-0.3,0.5-0.6,0.9-0.9c0.4-0.3,0.8-0.5,1.1-0.7c0.4-0.5,0.7-0.8,0.8-1.1
		c0.1-0.3,0.4-0.6,0.9-0.9c0.1-0.1,0.4-0.4,0.7-0.7c0.3-0.4,0.5-0.6,0.6-0.6c0.1-0.1,0.2-0.3,0.5-0.7c0.2-0.4,0.4-0.6,0.5-0.7
		c0-0.1,0.1-0.3,0.3-0.5c0.2-0.2,0.4-0.4,0.5-0.5c0.2-0.3,0.3-0.6,0.5-1c0.2-0.4,0.3-0.7,0.3-1c0.4-0.6,0.5-1.2,0.2-1.8
		c-0.3-0.6-0.6-0.9-1.1-0.9C127.5,215.8,127.5,216.1,127.2,216.6 M69.5,249c0,0.1,0,0.2-0.1,0.2l-0.9,0.2c-0.1,0.1-0.2,0.2-0.2,0.3
		c-0.1,0.1-0.2,0.2-0.4,0.3l-0.4,0.1c0,0.1-0.1,0.1-0.1,0.2c0,0.1-0.1,0.2-0.2,0.2c-0.3,0.1-0.5,0.1-0.6,0.2
		c-0.4,0.3-0.7,0.6-1.1,0.8c-0.4,0.3-0.8,0.4-1.2,0.5l-0.2,0c-0.3,0.1-0.6,0.2-0.8,0.3c-0.2,0.1-0.5,0.3-0.6,0.4
		c0.4,0,0.8-0.1,1.1-0.3c0.3-0.2,0.5-0.4,0.7-0.5c0.3-0.1,0.5-0.2,0.6-0.2c0.1,0,0.3-0.1,0.4-0.2c0.2-0.2,0.4-0.3,0.6-0.4
		c0.1-0.1,0.3-0.2,0.6-0.3c0.3-0.1,0.5-0.1,0.6,0c0.1-0.1,0.2-0.3,0.3-0.4c0.1-0.2,0.3-0.3,0.6-0.3c0.7-0.4,1.1-0.8,1.4-1.2
		C69.5,248.9,69.4,248.9,69.5,249 M82.7,241.2c0,0-0.1,0.1,0,0.2c0.1,0,0.2-0.1,0.2-0.2s0-0.2,0-0.2
		C82.7,241.1,82.7,241.2,82.7,241.2 M83.3,240.7c-0.1,0.1-0.1,0.1,0,0.1c0.1-0.1,0.2-0.2,0.3-0.3c0.1-0.1,0.1-0.1-0.1-0.1
		C83.5,240.5,83.4,240.6,83.3,240.7 M53.3,251.8c-0.1-0.1-0.1-0.2,0.1-0.2c0.1,0,0.2,0,0.1-0.1c0,0,0.1,0.1,0.1,0.2L53.3,251.8z
		 M68.5,248.6c0.1-0.1,0.1-0.1,0.1,0c0.1,0.1,0.1,0.1,0.1,0.1c-0.1,0-0.1,0-0.1,0.1C68.4,248.8,68.4,248.7,68.5,248.6 M66.8,248.7
		c0.1,0,0.2,0,0.3-0.1c0,0.1-0.2,0.2-0.5,0.3C66.6,248.8,66.7,248.7,66.8,248.7 M67.5,248.7c0.1,0,0.2-0.1,0.2-0.2
		c0.1,0.1,0.1,0.1,0,0.2c-0.1,0-0.2,0.1-0.2,0.2C67.5,248.8,67.5,248.7,67.5,248.7 M68.9,248.3c0,0,0.1-0.1,0.1-0.1
		c0.1,0,0.1,0.1,0,0.2c-0.1,0.1-0.2,0.2-0.3,0.2C68.8,248.5,68.8,248.4,68.9,248.3 M69.3,248l0,0.2L69.3,248z M68.7,247.8l-0.4,0.2
		C68.2,248,68.3,247.9,68.7,247.8 M69.8,247.7c-0.1,0.2-0.2,0.3-0.5,0.3C69.4,247.9,69.5,247.7,69.8,247.7 M69,247.5
		c0.2-0.1,0.4-0.2,0.5-0.3c-0.2,0.4-0.4,0.6-0.7,0.6C68.7,247.7,68.8,247.6,69,247.5 M71.1,246.9c0.3-0.2,0.6-0.3,0.9-0.4
		c-0.3,0.4-0.8,0.7-1.5,0.9C70.5,247.3,70.7,247.1,71.1,246.9 M73.3,246.1c0.3-0.3,0.6-0.5,0.7-0.6l0,0.2c-0.4,0.2-0.8,0.4-1.1,0.7
		c-0.3,0.3-0.7,0.6-1.1,0.9c-0.1-0.1-0.1-0.2,0.1-0.3c0.2-0.1,0.3-0.2,0.4-0.2C72.7,246.6,73,246.4,73.3,246.1 M74.1,245.3
		c0.1,0,0.2-0.1,0.2-0.2c0.1,0,0.1,0.1,0,0.1s-0.2,0.1-0.2,0.2C74.1,245.4,74.1,245.3,74.1,245.3 M72.7,246c0.2-0.1,0.3-0.3,0.4-0.5
		c0.1-0.3,0.3-0.5,0.6-0.7c-0.3,0.3-0.6,0.6-0.8,0.9c-0.2,0.3-0.5,0.5-0.8,0.6c0-0.1,0-0.2,0.1-0.3c0-0.1,0.1-0.2,0.2-0.2
		C72.4,245.8,72.5,245.8,72.7,246L72.7,246z M74.8,244.8c0,0.3-0.1,0.4-0.3,0.3C74.5,244.8,74.6,244.7,74.8,244.8 M79.2,242.9
		C79.2,242.9,79.2,242.9,79.2,242.9l0.1-0.1c0.1,0,0.1,0,0.1,0C79.3,242.8,79.3,242.9,79.2,242.9C79.2,242.9,79.2,242.9,79.2,242.9
		 M80.1,242.2c-0.1,0.1-0.2,0.1-0.2,0.2c0,0.1-0.1,0.1-0.2,0.1C79.7,242.2,79.8,242.1,80.1,242.2 M79.2,242.2
		c0.3-0.3,0.8-0.6,1.3-0.8c0.1,0.3,0,0.5-0.2,0.5c-0.2,0-0.4,0.1-0.6,0.2c-0.1,0-0.2,0.1-0.4,0.4c-0.1,0.2-0.3,0.4-0.4,0.4
		c-0.1,0.2-0.3,0.4-0.6,0.4C78.6,242.9,78.9,242.5,79.2,242.2 M80.2,240.2c-0.1,0.3-0.3,0.6-0.6,0.8c-0.1,0.1-0.1,0.1-0.2,0.1
		c0-0.1-0.1-0.1-0.2,0c0,0.1,0,0.2,0,0.4c-0.1,0.1-0.2,0.2-0.3,0.3c-0.1,0.1-0.3,0.1-0.4,0.2c0,0.1-0.1,0.1,0,0.2c0,0.1,0,0.1,0,0.2
		c-0.1,0.1-0.2,0.1-0.3,0.1c-0.1,0-0.3,0.1-0.5,0.2c-0.2,0.3-0.4,0.5-0.4,0.6c-0.1,0.2-0.3,0.2-0.6,0.2c-0.1,0.3-0.2,0.5-0.4,0.7
		c-0.2,0.2-0.5,0.3-0.8,0.3c0-0.2,0.1-0.3,0.3-0.4c0.2-0.1,0.3-0.3,0.3-0.5c0.3,0.1,0.5,0.1,0.5,0c0-0.2,0.1-0.3,0.3-0.4
		c0.1-0.1,0.2-0.2,0.4-0.4c0.2-0.1,0.4-0.2,0.6-0.4c0.4-0.4,0.8-0.7,1.2-1.1c0.4-0.4,0.7-0.8,1.1-1.1L80.2,240.2z M82,240.1
		c0,0.3-0.1,0.4-0.2,0.4s-0.2,0.1-0.2,0.4c-0.1-0.1-0.3-0.1-0.5,0.1c-0.2,0.1-0.3,0.2-0.4,0.4c0-0.2,0.1-0.3,0.3-0.5
		c0.2-0.2,0.3-0.4,0.4-0.6L82,240.1z M82.4,239.4c0.1-0.1,0.3-0.2,0.6-0.4c-0.1,0.1-0.3,0.3-0.4,0.5c-0.1,0.2-0.3,0.4-0.5,0.5
		C82.1,239.8,82.2,239.5,82.4,239.4 M50.3,232.1c0.1-0.3,0.1-0.6,0.1-1.1c0.3,0,0.4,0.1,0.2,0.4c-0.1,0.3-0.2,0.5-0.2,0.5
		c0,0.2,0,0.3,0,0.4c0,0.1,0,0.3,0,0.4c-0.2,0-0.2,0.1-0.1,0.1C50.2,232.6,50.2,232.4,50.3,232.1 M57.7,220.4
		c0.4-0.2,0.7-0.5,1.1-0.9c0.2,0.2,0.2,0.4,0,0.4c-0.1,0-0.2,0.1-0.3,0.1c-0.1,0.1-0.2,0.2-0.3,0.2c-0.1,0.1-0.2,0.2-0.4,0.3
		c-0.1,0.1-0.3,0.2-0.5,0.3c-0.3,0.1-0.5,0.3-0.7,0.4C57,221,57.4,220.7,57.7,220.4 M59.3,219.3c0.1-0.1,0.2-0.1,0.3-0.1
		c-0.2,0.2-0.4,0.4-0.6,0.4C59,219.5,59.1,219.4,59.3,219.3 M61.2,217.5c0.1-0.1,0.3-0.1,0.6-0.1c-0.4,0.2-0.7,0.5-1,0.8
		c-0.3,0.3-0.7,0.6-1,0.9c-0.1-0.1-0.1-0.2,0.1-0.3c0.2-0.1,0.3-0.2,0.4-0.4c0-0.2,0-0.2,0-0.2c0.3-0.1,0.5-0.2,0.8-0.5
		C61.1,217.7,61.1,217.6,61.2,217.5 M84.2,209c-0.2-0.1-0.3-0.2-0.5-0.3c0.1,0,0.3,0.1,0.4,0.2c0.2,0.1,0.4,0.2,0.6,0.2
		C84.6,209.2,84.4,209.1,84.2,209 M81.4,208.7c-0.7-0.1-1.4-0.3-2.2-0.4c0.8,0,1.5,0,2.2,0.1c0.7,0.1,1.4,0.2,2.1,0.5
		C82.8,208.9,82.1,208.8,81.4,208.7 M77.7,197.3c0-0.1,0-0.2,0.1-0.3c0.1-0.1,0.1,0,0.1,0.2c0,0.2,0,0.3-0.1,0.3
		C77.8,197.4,77.8,197.3,77.7,197.3 M55.3,214.7c-0.5,0.2-0.9,0.4-1.3,0.6c-0.1-0.5-0.1-0.9-0.1-1.3c0-0.4,0.1-0.9,0.2-1.3
		c0.1-0.4,0.2-0.9,0.2-1.4s0.1-1.1,0.3-1.7c0.1-0.5,0.1-1,0.1-1.4c0-0.4,0-0.9,0-1.3c-0.1-1.6-0.1-3.2,0-4.7c0.1-1.5,0.1-3,0.1-4.5
		c0-0.3,0-0.5,0-0.8c0-0.3,0-0.5,0.1-0.6c0-0.1,0.3-0.2,0.7-0.3c0.4-0.1,0.8-0.3,1.2-0.4c0.7-0.3,1.4-0.5,2.1-0.7s1.4-0.4,1.9-0.7
		c0-0.1,0.1-0.2,0.2-0.2c0.1,0,0.2,0,0.4,0c0.1-0.1,0.3-0.2,0.4-0.2c0.1-0.1,0.3-0.2,0.5-0.3c0-0.1,0.1-0.1,0.2,0c0.1,0,0.2,0,0.3,0
		l0.1,0c0-0.1,0.1-0.1,0.1-0.1c0-0.1,0.1-0.1,0.1,0c0.2,0,0.4-0.1,0.6-0.2c0.2-0.1,0.3-0.1,0.5-0.2l1.2-0.2l2.2-0.5
		c0.2,0,0.3,0,0.5,0c0.2,0,0.3,0,0.3-0.1c0.2,0,0.3,0,0.3,0c0,0,0.1,0,0.3,0c0.1,0,0.4,0,0.8,0c0.4,0,0.7,0,0.8,0l0.3,0.1
		c0.1,0.1,0.3,0.1,0.4,0.2c0.1,0,0.3,0.1,0.5,0.1c0.7,0.3,1.2,0.8,1.6,1.4c0.4,0.6,0.6,1.4,0.5,2.4c-0.1,1-0.4,2-0.9,2.9
		c-0.5,1-1,1.9-1.6,2.8c-0.4,0.6-0.8,1.2-1.2,1.8c-0.5,0.6-0.9,1.1-1.4,1.7c-0.1,0.3-0.2,0.5-0.3,0.6c-0.1,0.1-0.3,0.3-0.4,0.5
		c-0.4,0.4-0.9,0.8-1.3,1.2c-0.4,0.4-0.8,0.8-1.2,1.2c-0.2,0.3-0.4,0.6-0.6,0.8c-0.2,0.2-0.3,0.4-0.5,0.5c-0.1,0.1-0.2,0.2-0.5,0.3
		c-0.2,0.1-0.5,0.2-0.8,0.4c-1.2,0.3-2.3,0.8-3.4,1.3c-1.1,0.5-2.2,1.1-3.2,1.8C56.1,214.2,55.7,214.4,55.3,214.7 M76.6,191.6
		c-0.2-0.2-0.3-0.4-0.3-0.4c0,0-0.1-0.1-0.2-0.1c0.1,0,0,0-0.1,0c-0.1,0-0.1-0.1,0.1-0.2c-0.2-0.1-0.3-0.1-0.3,0
		c0,0.1-0.1,0.1-0.1-0.1c-0.1-0.3-0.1-0.4-0.2-0.4c-0.1,0-0.2,0-0.5-0.1c-0.1,0-0.1-0.1-0.1-0.2l0-0.2c0,0,0-0.1-0.1,0
		c-0.1,0-0.1,0-0.2,0c-0.1,0-0.2-0.1-0.2-0.1c0,0-0.1-0.1-0.2-0.2l-0.1,0c-0.1,0-0.2,0-0.2,0c0,0,0-0.1-0.1-0.1
		c-0.1,0-0.1-0.1-0.2-0.2c-0.1-0.1-0.3-0.2-0.5-0.2c-0.2,0-0.4-0.1-0.6-0.2c-0.1,0-0.1,0-0.1-0.1c0,0,0-0.1-0.1-0.1
		c-0.2-0.2-0.5-0.2-0.8-0.2c-0.6-0.1-1.3-0.3-2.2-0.5c-0.9-0.2-1.8-0.3-2.7-0.4c-0.5,0-1,0-1.6,0c-0.6,0-1.2,0.1-1.7,0.1
		c-0.2,0-0.3,0-0.5,0.1c-0.2,0.1-0.4,0.2-0.5,0.1c-0.1,0-0.2-0.1-0.2-0.2c0-0.1-0.1-0.1-0.3-0.1c0.2,0,0.2,0,0.1,0.1l-0.1,0.2
		l-0.1-0.2c-0.1,0-0.2,0.1-0.2,0.1c0,0.1-0.1,0.1-0.1,0.1c-0.9,0-1.8,0.2-2.7,0.4c-0.9,0.2-1.7,0.5-2.4,0.7
		c-0.4,0.1-0.8,0.2-1.3,0.5c-0.5,0.2-0.9,0.3-1.3,0.3c-0.1,0-0.2,0-0.4,0c-0.1,0-0.3,0-0.5,0.1c-0.1,0.1-0.4,0.3-0.9,0.6
		c-0.4,0.3-0.8,0.5-1.2,0.6c-0.5,0.1-0.9,0.3-1.4,0.4c-0.1,0.1-0.3,0.2-0.6,0.3c-0.2,0.1-0.4,0.2-0.6,0.3c-1.1,0.5-2.1,1-3,1.5
		c-0.9,0.5-1.8,1.1-2.7,1.7c-0.4,0.3-0.7,0.5-1.1,0.7c-0.3,0.2-0.6,0.4-0.9,0.7c-0.4,0.2-0.8,0.4-1,0.7c-0.2,0.3-0.5,0.5-0.9,0.7
		c-0.2,0.2-0.4,0.4-0.5,0.7c-0.1,0.2-0.3,0.4-0.6,0.6c0,0.1-0.1,0.2-0.2,0.2c-0.1,0.1-0.2,0.1-0.3,0.2c-0.1,0.2-0.3,0.3-0.5,0.4
		c-0.2,0.1-0.3,0.2-0.4,0.2c0.6,0.4,1.3,0.8,1.9,1c0.6,0.3,1.4,0.5,2.3,0.5c0.1,0,0.3,0,0.5,0c0.2,0,0.4,0,0.5,0.1
		c0.4-0.1,0.7-0.2,1.1-0.5c0.4-0.3,0.7-0.5,1-0.8c0.1-0.1,0.2-0.1,0.3-0.1c0.1,0,0.3-0.1,0.4-0.2c0.2,0.1,0.4,0,0.4,0
		c0.1-0.1,0.1-0.2,0.1-0.2c0.5-0.3,1.1-0.5,1.6-0.8c0.5-0.2,1-0.5,1.5-0.8c0.2-0.1,0.5-0.3,0.6-0.4c0.2-0.2,0.4-0.3,0.8-0.3
		c-0.4,1.2-0.8,2.4-1.1,3.6c-0.3,1.3-0.7,2.6-1,3.9c-0.4,2.5-0.9,5-1.4,7.6c-0.5,2.6-0.7,5.4-0.7,8.5c-0.1,0.1-0.3,0.1-0.4,0.1
		c-0.1,0-0.2,0-0.3,0.1c0,0.3-0.2,0.5-0.5,0.7c-0.3,0.2-0.6,0.4-0.7,0.6c0,0-0.1,0.1-0.2,0.3c-0.1,0.2-0.1,0.3-0.2,0.4
		c-0.1,0.6-0.2,0.9-0.1,0.9c0.1,0,0.3,0.2,0.8,0.5c0.1,0.2,0.2,0.3,0.3,0.5c0,0.1,0.1,0.2,0.1,0.3c0.3,0.2,0.5,0.4,0.7,0.5
		c0.2,0.1,0.4,0.3,0.6,0.5c0,0.1,0,0.2,0.1,0.3c0,0.1,0,0.3,0,0.5c0.1,1.2,0.3,2.5,0.6,3.9c0.1,0.6,0.2,1.1,0.4,1.6
		c0.1,0.5,0.2,0.9,0.3,1.3c0.1,0.2,0.2,0.6,0.3,1.2c0.1,0.3,0.2,0.5,0.3,0.7c0.2,0.2,0.3,0.5,0.3,0.7c0,0.1,0,0.1,0,0.1
		c0,0,0,0.1,0,0.2c-0.1,0.3-0.1,0.5,0.1,0.7c0.2,0.2,0.3,0.3,0.4,0.5c0.2,0.3,0.4,0.7,0.6,1.1c0.3,0.5,0.5,0.9,0.8,1.3
		c0.3,0.4,0.6,0.7,1,1c0.4,0.3,0.8,0.5,1.2,0.5c0.1,0.1,0.3,0.1,0.4,0c0.1-0.1,0.3-0.1,0.6,0c-0.1-0.3-0.1-0.5,0.1-0.5
		c0.2,0,0.4-0.1,0.6-0.1c0.3-0.2,0.5-0.5,0.4-0.8c-0.1-0.3-0.1-0.6-0.2-0.8c-0.1,0-0.2-0.1-0.3-0.1c-0.1,0-0.2-0.1-0.3-0.2
		c0,0.1-0.1,0.2-0.1,0.3c-0.1,0.1-0.1,0.2-0.2,0.2c-0.3-0.2-0.6-0.5-0.8-0.9c-0.2-0.4-0.3-0.9-0.4-1.4c0-0.1-0.1-0.2-0.1-0.3
		c-0.1-0.1-0.1-0.2,0-0.4c0,0.1-0.1,0.1-0.4,0c0,0,0.1,0,0.1-0.1c0,0,0-0.1-0.1-0.1c0-0.2-0.1-0.4-0.2-0.6c-0.1-0.2-0.1-0.3,0-0.4
		c0.3,0,0.4,0.1,0.3,0.4c-0.1,0.3,0,0.4,0.3,0.5c0.2-0.2,0.3-0.4,0.1-0.6c-0.1-0.2-0.2-0.4-0.3-0.7c0-0.1-0.1-0.2-0.2-0.4
		c-0.1-0.1-0.1-0.3-0.1-0.4c0.1-0.1,0.2-0.3,0.3-0.5c0.1-0.2,0.1-0.4,0.1-0.6c0.1-0.2,0.1-0.4,0-0.6c-0.1-0.2-0.1-0.4-0.1-0.7
		c0-0.3,0-0.7,0-1c0-0.4-0.1-0.8-0.1-1.2c0-0.3,0.1-0.5,0.1-0.7c0-0.2-0.1-0.3-0.4-0.4c0.3-0.1,0.4-0.1,0.5-0.3
		c0.1-0.1,0.1-0.3,0.3-0.5c0,0.2,0,0.3,0,0.4c0,0.1,0,0.1,0,0.2l0.3,0.1c-0.1-0.3,0-0.5,0-0.8c0.1-0.3,0.1-0.5,0-0.8
		c0-0.3,0-0.4,0-0.5c0-0.1,0-0.2,0.1-0.5c0.3-0.5,0.4-1.2,0.4-2c0.4-0.2,0.9-0.4,1.4-0.6c0.5-0.2,0.9-0.4,1.3-0.6
		c0.1-0.1,0.2-0.2,0.3-0.3c0.1-0.1,0.2-0.2,0.4-0.3c0.1-0.1,0.2-0.1,0.4-0.2c0.1-0.1,0.3-0.2,0.5-0.3c0.7-0.4,1.4-0.9,2.1-1.4
		s1.4-1,1.9-1.4c0.4-0.2,0.7-0.4,0.9-0.7c0.2-0.3,0.5-0.5,0.9-0.7c0,0,0.1-0.1,0.1-0.2c0-0.1,0-0.2,0.1-0.2l0.3-0.1
		c0.2,0,0.2-0.1,0.1-0.2c-0.1-0.1,0-0.1,0.1-0.1c0.1,0,0.2,0,0.4-0.1c0.2-0.1,0.3-0.2,0.2-0.4c-0.1,0-0.1,0.1-0.3,0.1
		c-0.1,0.1-0.2,0.1-0.2,0c0.2-0.2,0.5-0.4,0.8-0.7c0.3-0.3,0.6-0.5,0.8-0.7c0.1,0,0.2,0,0.2,0c0,0,0.1,0,0.1,0l0.1-0.2
		c0.3-0.1,0.6-0.2,0.8-0.3c0.2-0.1,0.4-0.1,0.6-0.2c0.1-0.1,0.2-0.2,0.5-0.1c0.2,0,0.4,0,0.5,0c0.2-0.2,0.5-0.3,0.9-0.5
		c0.4-0.2,0.8-0.3,1.2-0.4c0.5-0.1,1-0.1,1.4-0.3c0.4-0.1,0.8-0.2,1.2-0.4l1.2-0.2c0.2,0,0.4-0.1,0.6-0.3c0.3,0.1,0.6,0.1,0.8,0
		c0.2,0.1,0.3,0.1,0.4,0c0.1-0.1,0.2-0.1,0.5-0.1c0.1,0,0.4,0,0.8,0c0.5-0.1,1-0.1,1.5-0.1c0.5,0,1-0.1,1.5-0.1
		c1.6,0,3.1,0.3,4.4,0.8c1.3,0.5,2.1,1.5,2.4,2.9c0.1,0.4,0.2,0.7,0.2,0.8c0,0.4,0,0.9,0,1.4c0,0.5,0,1,0,1.4c0,0.5-0.1,1.1-0.2,1.8
		c-0.1,0.7-0.2,1.2-0.3,1.7c0,0.1-0.1,0.2-0.3,0.4c0,0.1,0,0.1,0,0.1s0,0,0,0.1l0,0.2c0,0.3-0.2,0.5-0.3,0.8s-0.3,0.4-0.4,0.6
		c-0.1,0.1-0.1,0.2-0.1,0.1c-0.1,0.2-0.2,0.3-0.1,0.4c-0.1,0.2-0.2,0.4-0.3,0.5c-0.2,0.1-0.2,0.3-0.1,0.6c-0.1,0-0.2,0-0.2,0.1
		c0,0.1-0.1,0.1-0.2,0.2c-0.1,0.4-0.2,0.8-0.4,0.9c-0.2,0.2-0.5,0.4-0.7,0.6c-0.2,0.1-0.4,0.3-0.5,0.5c-0.2,0.2-0.3,0.3-0.4,0.5
		c-0.7,0.8-1.4,1.5-2,2c0.1,0.2,0.3,0.2,0.4,0.1c0.1-0.1,0.2-0.2,0.3-0.1c0,0.4-0.2,0.7-0.7,0.9c0,0.1-0.2,0.2-0.5,0.3
		c-0.2,0.1-0.3,0.3-0.4,0.4c-0.1,0.2-0.3,0.3-0.5,0.5c-0.2,0.1-0.3,0.3-0.5,0.5c-0.1,0.2-0.3,0.3-0.4,0.4l-0.6,0.4
		c-0.3,0.3-0.5,0.5-0.6,0.6c-0.2,0.2-0.4,0.2-0.6,0.3c0,0.2-0.1,0.3-0.3,0.4c-0.2,0.1-0.3,0.2-0.3,0.5c-0.2,0.1-0.3,0.3-0.5,0.5
		c-0.1,0.2-0.3,0.4-0.4,0.5c-0.1,0.1-0.1,0.2-0.1,0.3c0,0.1,0,0.2-0.1,0.2c-0.1-0.1-0.2-0.1-0.3-0.1c-0.1,0-0.2,0-0.4-0.1
		c0.2,0.2,0.2,0.2,0,0.2c-0.2,0-0.3,0-0.3,0.1c-0.2,0.1-0.4,0.3-0.6,0.5c-0.2,0.3-0.4,0.5-0.8,0.7c-0.2,0.1-0.3,0.2-0.4,0.2
		c0,0.1-0.1,0.1-0.2,0.2c-0.1,0.1-0.2,0.2-0.3,0.2c-0.2,0.1-0.3,0.3-0.4,0.6c-0.1,0.3-0.3,0.5-0.6,0.6c-0.1,0.1-0.2,0.1-0.3,0.1
		s-0.2,0.1-0.3,0.2c-0.2,0.2-0.4,0.4-0.4,0.6c0,0.3-0.1,0.5-0.3,0.5c-0.1,0.2-0.3,0.4-0.6,0.6c-0.3,0.2-0.6,0.3-0.8,0.2
		c-0.1,0.2-0.2,0.4-0.5,0.6c-0.3,0.2-0.5,0.3-0.8,0.4c-0.1,0.1-0.2,0.2-0.1,0.3c0.1,0.1,0.1,0.2,0,0.3c-0.1,0.1-0.2,0.1-0.2,0
		c-0.1,0-0.1,0-0.2,0c0.1,0.1,0.2,0.1,0.1,0.2c0,0-0.1,0.1-0.2,0.2c-0.3,0.1-0.6,0.3-0.9,0.4c-0.3,0.2-0.6,0.3-0.9,0.5
		c-0.1,0-0.2,0-0.2-0.1c0-0.1-0.1-0.1-0.2-0.1c-0.5,0.4-0.9,0.7-1.4,1c-0.5,0.3-1,0.6-1.6,0.8c0,0.1,0,0.2,0,0.2s0,0,0.1,0.1
		c-0.2,0.2-0.4,0.3-0.6,0.4s-0.4,0.1-0.7,0.2c0,0,0-0.1,0-0.2c0-0.1-0.1-0.1-0.2,0c-0.6,0.1-1.1,0.3-1.5,0.6
		c-0.4,0.3-0.9,0.5-1.4,0.7c0,0.1,0,0.2,0,0.3c0,0.1,0,0.1-0.1,0.1c-0.1,0.1-0.2,0.1-0.2,0c0-0.2,0-0.2-0.1-0.2
		c0,0.3-0.2,0.5-0.5,0.6c-0.3,0.1-0.5,0.1-0.6-0.2c-0.1-0.3,0-0.4,0.2-0.5c0.2-0.1,0.3-0.2,0.5-0.3c-0.3,0-0.6,0.1-0.8,0.2
		c-0.2,0.1-0.4,0.2-0.8,0.2c0.1,0,0-0.1-0.3-0.3c0,0-0.1,0-0.1,0.1c0,0,0,0-0.1,0.1c0,0.1-0.1,0.1-0.1,0.1c-0.1,0.1-0.3,0.1-0.4,0
		c-0.1-0.1-0.2-0.2-0.3-0.3c-0.1-0.1-0.2-0.2-0.3-0.3c-0.1-0.1-0.2-0.1-0.4-0.1c-0.1-0.2-0.3-0.3-0.4-0.4c-0.1-0.1-0.2-0.2-0.3-0.4
		c0,0.1-0.1,0.1,0,0.2c0,0,0,0.1-0.1,0.3c-0.3-0.3-0.5-0.7-0.4-1.2c0.1-0.5,0-1-0.2-1.4c-0.2,0.5-0.4,1-0.5,1.6
		c-0.1,0.6-0.3,1.1-0.7,1.4c0.2,0.2,0.2,0.5,0,0.8c-0.2,0.3-0.4,0.5-0.5,0.8c0.2,0.1,0.3,0.2,0.2,0.4c-0.1,0.2,0,0.4,0,0.6
		c0.2,0,0.4,0,0.4,0.1c0.1,0.1,0.2,0.1,0.5,0c-0.1,0.1-0.1,0.2,0,0.3c0.1,0.1,0.2,0.1,0.2,0.2c0.1,0,0.2,0.1,0.3,0.3
		s0.2,0.2,0.2,0.2c0,0.1,0.1,0.1,0.2,0.1c0.1-0.1,0.2,0,0.3,0.1c0,0.1,0.1,0.1,0.2,0.1c0.3,0,0.5,0.1,0.6,0.1c0.1,0.1,0.3,0.1,0.4,0
		l0.1,0.1l0,0.1c0.2,0,0.4,0,0.4-0.1c0.1-0.1,0.1-0.1,0.3-0.1c0.2,0.3,0.4,0.4,0.7,0.4c0.3,0,0.5-0.1,0.6-0.2
		c0.3,0.1,0.6,0.2,1.1,0.2c0.4,0,0.8,0,1.2-0.1c0.1-0.1,0.2-0.3,0.2-0.4c0-0.2,0.1-0.2,0.4-0.2c0,0.2,0.1,0.3,0.1,0.3
		c0,0,0,0.1,0,0.2c0.1-0.1,0.3-0.1,0.4-0.2c0.1,0,0.2-0.1,0.3-0.2c0.1,0,0.2,0,0.3,0c0.1,0,0.2,0,0.3-0.1c0.1-0.1,0.2-0.1,0.2-0.2
		c0,0,0.1-0.1,0.3-0.3c0.2-0.1,0.4-0.2,0.5-0.2c0.2,0,0.2-0.2,0.2-0.4c-0.5,0-0.9,0.2-1.2,0.4c-0.3,0.2-0.7,0.4-1,0.6
		c-0.1,0-0.1,0,0-0.2c0-0.1,0-0.1-0.1-0.1c-0.3,0-0.5,0.1-0.8,0.2c0-0.2-0.1-0.2-0.4-0.2c-0.1,0.2-0.2,0.3-0.5,0.3
		c-0.2,0-0.4,0-0.4-0.2c0.1-0.2,0.2-0.3,0.3-0.3c0.1,0,0.2-0.2,0.3-0.4c0.2,0.2,0.3,0.3,0.5,0.1c0.2-0.2,0.4-0.3,0.6-0.2
		c0.2,0,0.2,0.1,0.2,0.2c0,0.1,0,0.1,0.1,0.1c0-0.2,0.1-0.3,0.2-0.4c0.2,0,0.3-0.1,0.5-0.1c0.1-0.1,0.1-0.2,0.2-0.3
		c0-0.1,0.1-0.1,0.2,0c0,0,0.1,0,0.1,0.1c0,0,0,0.1,0.1,0.1l0.1-0.1c0.1-0.1,0.2-0.2,0.3-0.3c0-0.1,0.1-0.1,0.2,0
		c0.1,0.1,0.2,0,0.3-0.1c0.1-0.2,0.3-0.3,0.4-0.3c0.1,0,0.2,0,0.3,0c0.1,0,0.1,0,0.2,0c0.1,0,0.2-0.1,0.4-0.2
		c0.2-0.1,0.4-0.2,0.7-0.3c0.1-0.1,0.3-0.1,0.5-0.2c0.2,0,0.4-0.1,0.5-0.3c0.2-0.2,0.5-0.5,0.9-0.7c0.1-0.1,0.2-0.1,0.3-0.1
		c0.1,0,0.2,0,0.3-0.1c0.3-0.1,0.7-0.3,1.2-0.6c0.2-0.2,0.4-0.3,0.7-0.4c0.2-0.1,0.4-0.1,0.6-0.2c0.1,0.4,0,0.7-0.1,0.7
		c-0.2,0.1-0.3,0.2-0.5,0.4c-0.1,0.2-0.2,0.3-0.3,0.3c-0.3,0.2-0.5,0.3-0.6,0.4c0,0-0.1,0.1-0.2,0.2c-0.1,0.1-0.2,0.2-0.3,0.3
		c-0.1,0.1-0.3,0.1-0.3,0.1c-0.1,0-0.2,0-0.4,0.1c-0.2,0-0.2,0.1-0.3,0.2c0,0.1-0.1,0.1-0.2,0.2c-0.2,0.2-0.5,0.3-0.7,0.4
		c-0.2,0.1-0.4,0.2-0.7,0.4c-0.2,0-0.4,0.1-0.7,0.2s-0.5,0.2-0.5,0.2c-0.1,0.1-0.3,0.1-0.4,0.1c-0.1,0-0.1,0.1,0.1,0.3
		c0.3,0,0.5,0,0.6-0.2c0.1-0.2,0.3-0.3,0.6-0.4c0.1-0.1,0.2-0.1,0.3-0.1c0.1,0,0.2,0,0.3-0.1c0.3-0.1,0.5-0.2,0.7-0.3
		c0.2-0.2,0.5-0.3,0.7-0.4c0.2,0,0.3,0,0.4,0c0.1,0,0.3,0,0.4,0c0.4-0.1,0.7-0.3,0.9-0.6c0.2-0.3,0.5-0.5,0.7-0.7
		c0.1-0.1,0.2-0.1,0.4-0.1s0.3,0,0.4-0.1c0-0.1,0.1-0.1,0.1-0.2c0-0.1,0.1-0.2,0.1-0.2c0.1-0.1,0.2-0.2,0.3-0.3
		c0.1-0.1,0.3-0.2,0.5-0.3c0,0.1,0,0.2,0,0.2c0,0.1,0,0.1,0.1,0.1c0-0.2,0.1-0.2,0.2-0.2c0.1,0.1,0.2,0,0.3,0l0.3-0.3
		c0.2-0.1,0.4-0.1,0.7,0c0.2-0.2,0.5-0.4,0.7-0.7c0.2-0.3,0.5-0.5,0.8-0.6c0.1,0.1,0.1,0.2-0.1,0.2c-0.2,0.1-0.2,0.1,0.1,0.1
		c0.4-0.1,0.8-0.2,1.1-0.4c0.3-0.2,0.6-0.4,1-0.6c0.1-0.1,0.3-0.2,0.5-0.3c0.3-0.1,0.5-0.2,0.8-0.4c0.1-0.1,0.2-0.2,0.2-0.4
		c0.1-0.1,0.2-0.3,0.5-0.4c0-0.1,0.1-0.1,0.2-0.1c0.1,0,0.2,0,0.3-0.1c0.1,0,0.3-0.1,0.5-0.3c0.2-0.2,0.4-0.4,0.5-0.4
		c0.3-0.3,0.6-0.5,0.9-0.7c0.3-0.2,0.6-0.4,1-0.6c-0.2,0.4-0.5,0.6-0.8,0.8c-0.3,0.2-0.6,0.5-0.7,1c-0.3,0-0.5,0.1-0.6,0.4
		c-0.1,0.2-0.2,0.3-0.5,0.3c-0.2,0.3-0.4,0.5-0.7,0.6c-0.3,0.1-0.5,0.3-0.7,0.6c0.7-0.3,1.4-0.7,2-1.3c0.6-0.5,1.2-1,1.8-1.5
		c1.8-1.2,3.3-2.5,4.5-3.8c0.6-0.6,1.2-1.1,1.7-1.7c0.5-0.6,1-1.3,1.4-2.1c0.1-0.1,0.3-0.2,0.4-0.3c0.1-0.1,0.3-0.2,0.3-0.3
		c0.3-0.3,0.5-0.7,0.7-1.1c0.2-0.4,0.5-0.6,0.8-0.4c0.1-0.2,0.1-0.3,0.2-0.3c0.1,0,0.2-0.1,0.2-0.2c0.2-0.2,0.4-0.3,0.4-0.5
		c0-0.2,0.1-0.3,0.1-0.5c0.1-0.1,0.2-0.1,0.2-0.1c0.1,0,0.1,0,0.2-0.2c0.2-0.5,0.4-0.8,0.6-0.9c0.1-0.2,0.1-0.3,0.2-0.4
		c0.1-0.1,0.2-0.3,0.2-0.5c0.1-0.1,0.3-0.3,0.4-0.5c0.1-0.2,0.3-0.4,0.5-0.5c0.1-0.2,0.2-0.5,0.3-0.7c0.1-0.2,0.2-0.5,0.4-0.8
		c0.2-0.2,0.3-0.4,0.5-0.5c0.2-0.1,0.2-0.3,0.1-0.7c0.1-0.1,0.2-0.2,0.3-0.2c0.1,0,0.2-0.1,0.3-0.1c-0.1-0.1,0-0.2,0.2-0.4
		c0.2-0.2,0.3-0.4,0.3-0.5c0.1-0.1,0.1-0.2,0.1-0.3c0,0,0-0.1,0-0.2c0,0,0.1-0.2,0.3-0.3c0.1-0.2,0.1-0.4,0.1-0.6
		c0-0.2,0-0.5,0.1-0.8c0-0.3,0.1-0.8,0.1-1.3c0-0.5,0-0.9,0-1.2c0.1-0.2,0.2-0.5,0.2-0.8c0-0.3,0-0.6,0-0.9c0-0.9-0.2-1.8-0.6-2.7
		c-0.3-0.9-0.7-1.7-1.1-2.4c-0.2-0.2-0.3-0.4-0.3-0.5c-0.1-0.1-0.2-0.2-0.3-0.4c-0.1-0.1-0.2-0.2-0.3-0.4c-0.1-0.2-0.2-0.3-0.3-0.5
		c-0.2-0.2-0.3-0.5-0.5-0.7c-0.2-0.2-0.4-0.4-0.5-0.6c-0.3,0-0.5-0.2-0.6-0.4c-0.1-0.2-0.2-0.3-0.3-0.3c-0.2-0.1-0.4-0.1-0.6-0.2
		c-0.3-0.1-0.5-0.2-0.6-0.2c-0.3,0-0.5-0.2-0.7-0.4c-0.2-0.2-0.4-0.3-0.6-0.2c-0.2-0.2-0.3-0.4-0.6-0.4c-0.2,0-0.4-0.1-0.5-0.2
		c-0.3-0.2-0.6-0.3-0.9-0.3c-0.3,0-0.7-0.1-1.1-0.1c0,0-0.1-0.2-0.2-0.4c-0.3,0.1-0.4,0.1-0.3,0.1c0,0,0,0-0.1-0.1l-0.2,0
		c-0.5-0.3-1.1-0.4-1.7-0.5c-0.7-0.1-1.3-0.1-1.8-0.1c-1.3,0-2.6,0-3.8,0.1c-1.3,0.1-2.5,0.2-3.7,0.2c0.4-0.4,0.7-0.8,0.9-1.3
		c0.2-0.4,0.5-0.8,0.9-1.2c0.2-0.2,0.3-0.4,0.4-0.6c0.1-0.2,0.3-0.4,0.5-0.5c0.1-0.1,0.1-0.2,0.2-0.3s0.2-0.1,0.4-0.2
		c0-0.2,0.1-0.5,0.3-0.9c0.2-0.4,0.4-0.5,0.4-0.4c0-0.2,0-0.3,0.1-0.3c0.1,0,0.2-0.2,0.3-0.3c0.1,0,0.1-0.1,0.1-0.1
		c-0.1,0,0-0.1,0.1-0.1l0.3-0.8c0.1-0.2,0.2-0.4,0.3-0.7c0.1-0.3,0.2-0.5,0.3-0.7c0.2-0.6,0.3-1.1,0.2-1.5c-0.1,0.2-0.2,0.4-0.2,0.5
		c0,0.2-0.2,0.3-0.4,0.4c0-0.2,0-0.3,0.1-0.3c0.1,0,0.2-0.2,0.2-0.3c0.1-0.1,0.1-0.2,0-0.4c-0.1-0.1-0.1-0.2,0-0.4
		c0.1-0.1,0.3-0.3,0.4-0.4c0.1-0.1,0.2-0.3,0.3-0.5c-0.1,0-0.1,0,0-0.2s0.1-0.2,0.1-0.3c0.1-0.1,0.1-0.3,0.1-0.4c0-0.1,0-0.3,0-0.4
		c0-0.2-0.1-0.3-0.1-0.5c0-0.2,0-0.4-0.1-0.7c0-0.1-0.1-0.2-0.2-0.3c-0.1-0.1-0.1-0.2-0.1-0.3c-0.1,0-0.1-0.1-0.1-0.3
		c0-0.2,0-0.3-0.1-0.5c0-0.2-0.1-0.3-0.1-0.3c0,0-0.1,0-0.1,0.3c0.1-0.4,0.1-0.7-0.1-0.8c-0.2-0.1-0.4-0.3-0.5-0.4
		c-0.1,0-0.1,0-0.1,0.2c0.1,0.2,0,0.3-0.1,0.3c-0.1-0.2-0.2-0.4-0.2-0.6c0-0.2-0.1-0.4-0.2-0.4C76.5,191.4,76.6,191.5,76.6,191.6
		 M72.4,248.7c-0.2,0.1-0.3,0.3-0.3,0.5c0.5-0.2,0.8-0.4,0.8-0.7C72.7,248.5,72.6,248.6,72.4,248.7 M70.6,249.1
		c-0.4,0.1-0.6,0.3-0.5,0.8c0-0.2,0-0.3,0.3-0.4c0.2,0,0.4-0.1,0.6-0.3c0.1,0,0.2-0.1,0.2-0.2c0.1-0.1,0.2-0.2,0.3-0.2
		c0.2-0.2,0.3-0.3,0.3-0.3c0-0.1-0.1-0.1-0.1-0.1c-0.1,0-0.1,0-0.1-0.1C71.4,248.8,71,249,70.6,249.1 M70.5,248.2
		c-0.1,0-0.1,0.2,0,0.4c0.1,0,0.1,0,0.2-0.2c0.1-0.1,0.1-0.3-0.1-0.3C70.6,248.1,70.5,248.1,70.5,248.2 M73.9,247.2
		c0.1,0,0.2,0,0.2,0c0-0.1,0-0.1,0.2,0C74,247.1,73.9,247.1,73.9,247.2 M79.4,243.8c-0.1,0.1-0.2,0.2-0.2,0.4c0.2,0,0.3-0.1,0.3-0.2
		s0.2-0.2,0.3-0.3C79.7,243.7,79.5,243.7,79.4,243.8 M83.9,240.2c0,0,0.1-0.1,0.2-0.2c0.1-0.1,0.1-0.2,0.1-0.3
		C84,239.8,83.8,240,83.9,240.2 M51.5,238.1c0-0.1,0.1-0.2,0.1-0.3c0-0.1-0.1-0.2-0.2-0.2C51.3,238,51.3,238.2,51.5,238.1
		 M87.2,236.2c-0.1,0-0.1,0-0.2,0.1c0.2,0.1,0.3,0.1,0.4,0c0.1-0.1,0-0.1-0.1-0.1C87.3,236.2,87.3,236.2,87.2,236.2 M87.5,235.8
		c0,0.1-0.1,0.1-0.1,0.1c0.2,0.1,0.3,0.1,0.3,0c0-0.1,0.1-0.2,0.1-0.3C87.7,235.7,87.6,235.7,87.5,235.8 M87.9,235.2
		c-0.1,0.1-0.1,0.2,0,0.3c0,0,0.1-0.1,0.2-0.2c0.1-0.1,0.1-0.2,0-0.3C88.1,235.1,88,235.1,87.9,235.2 M51.5,235.2
		c0.1,0,0.1,0,0.1-0.1c-0.1,0-0.1-0.1-0.1-0.1C51.4,235.1,51.4,235.1,51.5,235.2 M51.5,234.8c-0.1-0.5-0.2-0.8-0.1-1
		C51.2,234.2,51.3,234.5,51.5,234.8 M76.5,202.4c-0.1,0-0.1,0.1,0,0.1c0,0,0-0.1,0.2-0.2c0.1,0,0.1-0.1,0-0.2
		C76.7,202.3,76.6,202.4,76.5,202.4 M78.6,195.8c-0.1,0.1-0.1,0.2,0,0.2c0.1,0.1,0.1,0.1,0.1,0L78.6,195.8z"/>
	<path fill="#F07873" d="M280.5,138.9l-1.9,1.2l1,1.7l1.9-1.2L280.5,138.9z M283.9,118.2l-13.7,10l4.8,6.5l1.2-0.9l-3.7-5l5.3-3.9
		l2.6,3.5l1.2-0.9L279,124l4.7-3.4l3.5,4.8l1.2-0.9L283.9,118.2z M259.7,117.3l1.3,1.3l5.6-5.6l1.8,1.6l-3.8,7.6l1.4,1.4l3.9-8
		c1.8,0.9,3.5,0.3,4.9-1c2-2,1.8-4.5-0.2-6.4l-2.9-2.9L259.7,117.3z M271.9,107.7l1.1,1.1c1.9,1.9,1.7,3.2,0.4,4.5
		c-1.3,1.3-2.7,1.5-4.5-0.4l-1.1-1.1L271.9,107.7z M258.1,94.3l-7.7,9.8c-1.7,2.1-1.9,4.5,0.5,6.4c2.4,1.9,4.6,1.1,6.3-1l7.7-9.8
		l-1.4-1.1l-7.7,9.8c-1.1,1.3-2.4,2.2-3.9,1c-1.6-1.2-1-2.7,0-4.1l7.7-9.8L258.1,94.3z M244.3,85.8l-0.8,1.3l3,1.8l-8,13.2l1.6,0.9
		l8-13.2l3,1.8l0.8-1.3L244.3,85.8z M229.2,79.2l-6.6,15.6l1.7,0.7l5.8-13.6l0,0l-0.9,15.6l1.8,0.8l6.6-15.6l-1.7-0.7L231,93.5l0,0
		l0.9-13.2L229.2,79.2z M214,74.6l-4.7,16.3l7.7,2.2l0.4-1.5l-6-1.7l1.8-6.3l4.2,1.2l0.4-1.5l-4.2-1.2l1.6-5.5l5.7,1.7l0.4-1.5
		L214,74.6z M196.9,71.6l1.2,17.4l1.7,0.3l6.7-16.1l-1.8-0.3l-5.1,12.8l0,0l-0.8-13.7L196.9,71.6z M180.1,88l3.1,0.1
		c3.6,0.1,5.8-1.9,5.9-8.4c0.1-6.5-2-8.5-5.6-8.6l-3.1-0.1L180.1,88z M182.2,72.7l1,0c2.7,0,4.2,1.2,4.1,7c-0.1,5.8-1.7,6.9-4.4,6.9
		l-1,0L182.2,72.7z M166.7,72.3l-1.9,17.3l1.8-0.2l0.5-5.1l4.3-0.5l1.5,4.9l1.8-0.2L169.3,72L166.7,72.3z M168.1,73.4L168.1,73.4
		l2.9,8.9l-3.8,0.4L168.1,73.4z M142.6,96l1.7-0.6l-2.6-7.5L144,87l5.2,6.7l1.8-0.6l-5.4-7c1.6-1.2,1.8-3,1.2-4.8
		c-0.9-2.6-3.2-3.5-5.8-2.6l-3.9,1.3L142.6,96z M139.4,80.8l1.5-0.5c2.5-0.9,3.6-0.1,4.2,1.7s0.2,3.1-2.3,3.9l-1.5,0.5L139.4,80.8z
		 M133.2,91c-2.8-5.7-5.6-7-8.1-5.7c-2.6,1.3-3.2,4.3-0.5,9.9c2.8,5.7,5.6,7,8.1,5.7C135.3,99.7,136,96.7,133.2,91 M131.6,91.8
		c2.5,5.2,2,7,0.5,7.7c-1.5,0.7-3.3,0-5.8-5.1c-2.5-5.2-2-7-0.5-7.7C127.2,86,129,86.6,131.6,91.8 M118.1,109.6l1.5-1l-4.4-6.7
		l3.4-2.3l-0.9-1.3l-3.4,2.3l-3.2-4.8l4.6-3l-0.9-1.3l-6.1,4L118.1,109.6z M87.7,114.3l12,12l1.3-1.3l-10.4-10.5l0,0l14.1,6.8
		l1.4-1.4l-12-12l-1.3,1.3l8.8,8.9l0,0l-11.9-5.8L87.7,114.3z M90.7,138.3l1.1-1.5l-6.4-4.8l1.4-2l8.1,2.6l1.2-1.5l-8.4-2.7
		c0.6-1.9-0.2-3.5-1.7-4.7c-2.2-1.7-4.7-1.1-6.3,1.1l-2.4,3.3L90.7,138.3z M79.4,127.6l1-1.3c1.6-2.1,2.9-2.2,4.4-1
		c1.5,1.1,1.8,2.4,0.3,4.5l-1,1.3L79.4,127.6z M80.2,139.5c-5.6-3-8.6-2.5-9.9,0c-1.4,2.5-0.2,5.4,5.4,8.4c5.6,3,8.6,2.5,9.9,0
		C86.9,145.4,85.7,142.5,80.2,139.5 M79.3,141.1c5.1,2.8,5.7,4.6,4.9,6c-0.8,1.4-2.7,1.9-7.7-0.8c-5.1-2.8-5.7-4.6-4.9-6
		C72.4,138.8,74.2,138.4,79.3,141.1 M63.8,158.5l0.7-1.7c0.8-2,1.8-2.5,3.6-1.8c2.1,0.9,2.4,2.2,1.5,4.7l-0.4,1L63.8,158.5z
		 M70.6,161.1l0.7-1.7c0.9-2.2,2.4-2.7,4.4-1.9c2,0.8,2.5,2.3,1.7,4.3l-0.7,1.7L70.6,161.1z M77.5,165.8l1.3-3.2
		c1.4-3.5,0.6-5.6-2.3-6.8c-2-0.8-3.8-0.5-5.1,1.2l0,0c0.2-1.9-1-3.2-2.5-3.8c-2.3-0.9-4.4-0.2-5.4,2.2l-1.7,4.2L77.5,165.8z"/>
	<path fill="#F07873" d="M280.5,138.9l-1.9,1.2l1,1.7l1.9-1.2L280.5,138.9z M283.9,118.2l-13.7,10l4.8,6.5l1.2-0.9l-3.7-5l5.3-3.9
		l2.6,3.5l1.2-0.9L279,124l4.7-3.4l3.5,4.8l1.2-0.9L283.9,118.2z M259.7,117.3l1.3,1.3l5.6-5.6l1.8,1.6l-3.8,7.6l1.4,1.4l3.9-8
		c1.8,0.9,3.5,0.3,4.9-1c2-2,1.8-4.5-0.2-6.4l-2.9-2.9L259.7,117.3z M271.9,107.7l1.1,1.1c1.9,1.9,1.7,3.2,0.4,4.5
		c-1.3,1.3-2.7,1.5-4.5-0.4l-1.1-1.1L271.9,107.7z M258.1,94.3l-7.7,9.8c-1.7,2.1-1.9,4.5,0.5,6.4c2.4,1.9,4.6,1.1,6.3-1l7.7-9.8
		l-1.4-1.1l-7.7,9.8c-1.1,1.3-2.4,2.2-3.9,1c-1.6-1.2-1-2.7,0-4.1l7.7-9.8L258.1,94.3z M244.3,85.8l-0.8,1.3l3,1.8l-8,13.2l1.6,0.9
		l8-13.2l3,1.8l0.8-1.3L244.3,85.8z M229.2,79.2l-6.6,15.6l1.7,0.7l5.8-13.6l0,0l-0.9,15.6l1.8,0.8l6.6-15.6l-1.7-0.7L231,93.5l0,0
		l0.9-13.2L229.2,79.2z M214,74.6l-4.7,16.3l7.7,2.2l0.4-1.5l-6-1.7l1.8-6.3l4.2,1.2l0.4-1.5l-4.2-1.2l1.6-5.5l5.7,1.7l0.4-1.5
		L214,74.6z M196.9,71.6l1.2,17.4l1.7,0.3l6.7-16.1l-1.8-0.3l-5.1,12.8l0,0l-0.8-13.7L196.9,71.6z M180.1,88l3.1,0.1
		c3.6,0.1,5.8-1.9,5.9-8.4c0.1-6.5-2-8.5-5.6-8.6l-3.1-0.1L180.1,88z M182.2,72.7l1,0c2.7,0,4.2,1.2,4.1,7c-0.1,5.8-1.7,6.9-4.4,6.9
		l-1,0L182.2,72.7z M166.7,72.3l-1.9,17.3l1.8-0.2l0.5-5.1l4.3-0.5l1.5,4.9l1.8-0.2L169.3,72L166.7,72.3z M168.1,73.4L168.1,73.4
		l2.9,8.9l-3.8,0.4L168.1,73.4z M142.6,96l1.7-0.6l-2.6-7.5L144,87l5.2,6.7l1.8-0.6l-5.4-7c1.6-1.2,1.8-3,1.2-4.8
		c-0.9-2.6-3.2-3.5-5.8-2.6l-3.9,1.3L142.6,96z M139.4,80.8l1.5-0.5c2.5-0.9,3.6-0.1,4.2,1.7s0.2,3.1-2.3,3.9l-1.5,0.5L139.4,80.8z
		 M133.2,91c-2.8-5.7-5.6-7-8.1-5.7c-2.6,1.3-3.2,4.3-0.5,9.9c2.8,5.7,5.6,7,8.1,5.7C135.3,99.7,136,96.7,133.2,91z M131.6,91.8
		c2.5,5.2,2,7,0.5,7.7c-1.5,0.7-3.3,0-5.8-5.1c-2.5-5.2-2-7-0.5-7.7C127.2,86,129,86.6,131.6,91.8z M118.1,109.6l1.5-1l-4.4-6.7
		l3.4-2.3l-0.9-1.3l-3.4,2.3l-3.2-4.8l4.6-3l-0.9-1.3l-6.1,4L118.1,109.6z M87.7,114.3l12,12l1.3-1.3l-10.4-10.5l0,0l14.1,6.8
		l1.4-1.4l-12-12l-1.3,1.3l8.8,8.9l0,0l-11.9-5.8L87.7,114.3z M90.7,138.3l1.1-1.5l-6.4-4.8l1.4-2l8.1,2.6l1.2-1.5l-8.4-2.7
		c0.6-1.9-0.2-3.5-1.7-4.7c-2.2-1.7-4.7-1.1-6.3,1.1l-2.4,3.3L90.7,138.3z M79.4,127.6l1-1.3c1.6-2.1,2.9-2.2,4.4-1
		c1.5,1.1,1.8,2.4,0.3,4.5l-1,1.3L79.4,127.6z M80.2,139.5c-5.6-3-8.6-2.5-9.9,0c-1.4,2.5-0.2,5.4,5.4,8.4c5.6,3,8.6,2.5,9.9,0
		C86.9,145.4,85.7,142.5,80.2,139.5z M79.3,141.1c5.1,2.8,5.7,4.6,4.9,6c-0.8,1.4-2.7,1.9-7.7-0.8c-5.1-2.8-5.7-4.6-4.9-6
		C72.4,138.8,74.2,138.4,79.3,141.1z M63.8,158.5l0.7-1.7c0.8-2,1.8-2.5,3.6-1.8c2.1,0.9,2.4,2.2,1.5,4.7l-0.4,1L63.8,158.5z
		 M70.6,161.1l0.7-1.7c0.9-2.2,2.4-2.7,4.4-1.9c2,0.8,2.5,2.3,1.7,4.3l-0.7,1.7L70.6,161.1z M77.5,165.8l1.3-3.2
		c1.4-3.5,0.6-5.6-2.3-6.8c-2-0.8-3.8-0.5-5.1,1.2l0,0c0.2-1.9-1-3.2-2.5-3.8c-2.3-0.9-4.4-0.2-5.4,2.2l-1.7,4.2L77.5,165.8z"/>
	<path fill="#F07873" d="M308.9,222.4l2.2,0.4l0.3-1.9l-2.2-0.4L308.9,222.4z M307.2,239.5l0.8-3.1c0.9-3.5-0.5-6-6.8-7.6
		c-6.3-1.6-8.7,0-9.6,3.5l-0.8,3.1L307.2,239.5z M292.7,233.9l0.2-1c0.7-2.6,2.1-3.8,7.8-2.4c5.6,1.4,6.3,3.2,5.7,5.8l-0.2,1
		L292.7,233.9z M286,247.2l15.8,6.2l2.7-6.8L303,246l-2,5.1l-14.3-5.6L286,247.2z M293.5,268.9l0.9-1.6l-7-3.8l1.1-2.1l8.4,1.5
		l0.9-1.7l-8.7-1.5c0.3-2-0.7-3.5-2.3-4.4c-2.5-1.3-4.8-0.4-6.1,2l-2,3.6L293.5,268.9z M280.9,259.9l0.8-1.4
		c1.3-2.3,2.6-2.6,4.2-1.6c1.7,0.9,2.2,2.1,0.9,4.5l-0.8,1.4L280.9,259.9z M281.7,270.8c-5-3.8-8.1-3.7-9.8-1.4
		c-1.7,2.3-1,5.3,4.1,9.1c5,3.8,8.1,3.7,9.8,1.4C287.5,277.6,286.8,274.6,281.7,270.8 M280.6,272.2c4.6,3.5,4.9,5.4,3.9,6.7
		c-1,1.3-2.9,1.5-7.5-2c-4.6-3.5-4.9-5.4-3.9-6.7C274.1,269,276,268.8,280.6,272.2 M255.9,286.6l13.9,10.1l1.1-1.1l-7.4-11.4l0,0
		l11.2,7.6l1.1-1.1l-9.9-14l-1.2,1.2l8,10.8l0,0l-11.2-7.6l-1.1,1.1l7.5,11.2l0,0l-10.7-8L255.9,286.6z M237.6,298.6l9,14.4l6.8-4.3
		l-0.8-1.3l-5.2,3.3l-3.5-5.5l3.7-2.3l-0.8-1.3l-3.7,2.3L240,299l5-3.2l-0.8-1.3L237.6,298.6z M223.7,304.9l6.9,15.5l1.7-0.7
		l-3.3-7.4l4.6-2l3.3,7.4l1.7-0.7l-6.9-15.5l-1.7,0.7l3,6.7l-4.6,2l-3-6.7L223.7,304.9z M210.1,309.2l0.5,1.5l3.3-1l4.5,14.7
		l1.7-0.5l-4.5-14.7l3.3-1l-0.5-1.5L210.1,309.2z M196.4,316.6c-0.4-2.7-1.8-5.3-4.9-5.1c-3,0.2-4.7,2.7-4.2,9.1
		c0.5,6.4,2.6,8.5,5.5,8.3c1.4-0.1,2.3-0.7,3-1.7l0.3,1.2l1.2-0.1l-0.6-7.9l-4.1,0.3l0.1,1.5l2.3-0.2l0.2,2.4
		c0.1,1.7-0.7,2.7-2.4,2.9c-2,0.2-3.2-1.6-3.6-6.9c-0.4-5.3,0.4-7.2,2.5-7.4c1.8-0.1,2.6,1.5,3,3.7L196.4,316.6z M171.5,311.5
		l-0.8,16.9l1.8,0.1l0.7-14.7l0,0l4.6,15l2,0.1l0.8-16.9l-1.8-0.1l-0.6,12.5l0,0l-3.8-12.7L171.5,311.5z M163.2,310l-2.9,16.7
		l1.8,0.3l2.9-16.7L163.2,310z M143.3,322.4l1.8,0.5l2.1-7.6l2.3,0.6l0.5,8.5l1.9,0.5l-0.5-8.9c2-0.1,3.2-1.4,3.7-3.3
		c0.8-2.7-0.7-4.7-3.3-5.5l-3.9-1.1L143.3,322.4z M149.3,308.1l1.5,0.4c2.5,0.7,3.1,1.9,2.6,3.8c-0.5,1.8-1.6,2.6-4.1,1.9l-1.5-0.4
		L149.3,308.1z M138.8,311.6c2.5-5.8,1.6-8.8-1-9.9c-2.6-1.1-5.3,0.3-7.8,6.2c-2.5,5.8-1.6,8.8,1,9.9
		C133.6,318.9,136.3,317.4,138.8,311.6 M137.1,310.9c-2.2,5.3-4,6.1-5.5,5.4c-1.5-0.6-2.2-2.5,0.1-7.8c2.2-5.3,4-6.1,5.5-5.4
		C138.7,303.8,139.3,305.6,137.1,310.9 M122.6,293.8l-8.5,14.7l6.3,3.7l0.8-1.3l-4.8-2.8l7.7-13.3L122.6,293.8z M111.7,287.5
		l1.5,1.2c1.5,1.1,1.7,2.5,0.4,4.2c-1.3,1.7-2.7,1.8-4.2,0.7l-1.5-1.2L111.7,287.5z M100.9,298.7l1.5,1.1l4.6-6.1l1.7,1.3
		c2.2,1.6,4.7,1.3,6.4-1c1.7-2.2,1.4-4.8-0.8-6.4l-3.2-2.4L100.9,298.7z M100.4,274.8l-3,8.2l-8.9,3.9l1.4,1.4l6.9-3.2l-2.7,7.3
		l1.4,1.4l3.4-9.3l7.9-3.4l-1.4-1.4l-5.9,2.7l2.3-6.1L100.4,274.8z M92.5,264.6l-13.4,10.4l4.9,6.4l1.2-0.9l-3.8-4.9l5.2-4l2.7,3.5
		l1.2-0.9l-2.7-3.5l4.6-3.5l3.6,4.7l1.2-0.9L92.5,264.6z"/>
	<path fill="#F07873" d="M308.9,222.4l2.2,0.4l0.3-1.9l-2.2-0.4L308.9,222.4z M307.2,239.5l0.8-3.1c0.9-3.5-0.5-6-6.8-7.6
		c-6.3-1.6-8.7,0-9.6,3.5l-0.8,3.1L307.2,239.5z M292.7,233.9l0.2-1c0.7-2.6,2.1-3.8,7.8-2.4c5.6,1.4,6.3,3.2,5.7,5.8l-0.2,1
		L292.7,233.9z M286,247.2l15.8,6.2l2.7-6.8L303,246l-2,5.1l-14.3-5.6L286,247.2z M293.5,268.9l0.9-1.6l-7-3.8l1.1-2.1l8.4,1.5
		l0.9-1.7l-8.7-1.5c0.3-2-0.7-3.5-2.3-4.4c-2.5-1.3-4.8-0.4-6.1,2l-2,3.6L293.5,268.9z M280.9,259.9l0.8-1.4
		c1.3-2.3,2.6-2.6,4.2-1.6c1.7,0.9,2.2,2.1,0.9,4.5l-0.8,1.4L280.9,259.9z M281.7,270.8c-5-3.8-8.1-3.7-9.8-1.4
		c-1.7,2.3-1,5.3,4.1,9.1c5,3.8,8.1,3.7,9.8,1.4C287.5,277.6,286.8,274.6,281.7,270.8z M280.6,272.2c4.6,3.5,4.9,5.4,3.9,6.7
		c-1,1.3-2.9,1.5-7.5-2c-4.6-3.5-4.9-5.4-3.9-6.7C274.1,269,276,268.8,280.6,272.2z M255.9,286.6l13.9,10.1l1.1-1.1l-7.4-11.4l0,0
		l11.2,7.6l1.1-1.1l-9.9-14l-1.2,1.2l8,10.8l0,0l-11.2-7.6l-1.1,1.1l7.5,11.2l0,0l-10.7-8L255.9,286.6z M237.6,298.6l9,14.4l6.8-4.3
		l-0.8-1.3l-5.2,3.3l-3.5-5.5l3.7-2.3l-0.8-1.3l-3.7,2.3L240,299l5-3.2l-0.8-1.3L237.6,298.6z M223.7,304.9l6.9,15.5l1.7-0.7
		l-3.3-7.4l4.6-2l3.3,7.4l1.7-0.7l-6.9-15.5l-1.7,0.7l3,6.7l-4.6,2l-3-6.7L223.7,304.9z M210.1,309.2l0.5,1.5l3.3-1l4.5,14.7
		l1.7-0.5l-4.5-14.7l3.3-1l-0.5-1.5L210.1,309.2z M196.4,316.6c-0.4-2.7-1.8-5.3-4.9-5.1c-3,0.2-4.7,2.7-4.2,9.1
		c0.5,6.4,2.6,8.5,5.5,8.3c1.4-0.1,2.3-0.7,3-1.7l0.3,1.2l1.2-0.1l-0.6-7.9l-4.1,0.3l0.1,1.5l2.3-0.2l0.2,2.4
		c0.1,1.7-0.7,2.7-2.4,2.9c-2,0.2-3.2-1.6-3.6-6.9c-0.4-5.3,0.4-7.2,2.5-7.4c1.8-0.1,2.6,1.5,3,3.7L196.4,316.6z M171.5,311.5
		l-0.8,16.9l1.8,0.1l0.7-14.7l0,0l4.6,15l2,0.1l0.8-16.9l-1.8-0.1l-0.6,12.5l0,0l-3.8-12.7L171.5,311.5z M163.2,310l-2.9,16.7
		l1.8,0.3l2.9-16.7L163.2,310z M143.3,322.4l1.8,0.5l2.1-7.6l2.3,0.6l0.5,8.5l1.9,0.5l-0.5-8.9c2-0.1,3.2-1.4,3.7-3.3
		c0.8-2.7-0.7-4.7-3.3-5.5l-3.9-1.1L143.3,322.4z M149.3,308.1l1.5,0.4c2.5,0.7,3.1,1.9,2.6,3.8c-0.5,1.8-1.6,2.6-4.1,1.9l-1.5-0.4
		L149.3,308.1z M138.8,311.6c2.5-5.8,1.6-8.8-1-9.9c-2.6-1.1-5.3,0.3-7.8,6.2c-2.5,5.8-1.6,8.8,1,9.9
		C133.6,318.9,136.3,317.4,138.8,311.6z M137.1,310.9c-2.2,5.3-4,6.1-5.5,5.4c-1.5-0.6-2.2-2.5,0.1-7.8c2.2-5.3,4-6.1,5.5-5.4
		C138.7,303.8,139.3,305.6,137.1,310.9z M122.6,293.8l-8.5,14.7l6.3,3.7l0.8-1.3l-4.8-2.8l7.7-13.3L122.6,293.8z M111.7,287.5
		l1.5,1.2c1.5,1.1,1.7,2.5,0.4,4.2c-1.3,1.7-2.7,1.8-4.2,0.7l-1.5-1.2L111.7,287.5z M100.9,298.7l1.5,1.1l4.6-6.1l1.7,1.3
		c2.2,1.6,4.7,1.3,6.4-1c1.7-2.2,1.4-4.8-0.8-6.4l-3.2-2.4L100.9,298.7z M100.4,274.8l-3,8.2l-8.9,3.9l1.4,1.4l6.9-3.2l-2.7,7.3
		l1.4,1.4l3.4-9.3l7.9-3.4l-1.4-1.4l-5.9,2.7l2.3-6.1L100.4,274.8z M92.5,264.6l-13.4,10.4l4.9,6.4l1.2-0.9l-3.8-4.9l5.2-4l2.7,3.5
		l1.2-0.9l-2.7-3.5l4.6-3.5l3.6,4.7l1.2-0.9L92.5,264.6z"/>
</g>
</svg>
