<?xml version="1.0" encoding="utf-8"?>
<!-- Generator: Adobe Illustrator 20.0.0, SVG Export Plug-In . SVG Version: 6.00 Build 0)  -->
<svg version="1.1" id="Ebene_1" xmlns="http://www.w3.org/2000/svg" xmlns:xlink="http://www.w3.org/1999/xlink" x="0px" y="0px"
	 viewBox="0 0 52.5 58.7" style="enable-background:new 0 0 52.5 58.7;" xml:space="preserve">
<style type="text/css">
	.st0{fill:#FFFFFF;stroke:#F07873;stroke-miterlimit:10;}
	.st1{fill:#F07873;}
</style>
<g>
	<path class="st0" d="M26.5,53.4L26.5,53.4L26.5,53.4L26.5,53.4c-6.4,0-12.5-2.5-17-7s-7-10.6-7-17s2.5-12.5,7-17s10.6-7,17-7l0,0
		c13.3,0,24.1,10.8,24.1,24.1C50.6,42.6,39.8,53.4,26.5,53.4z"/>
</g>
<g>
	<g>
		<path class="st1" d="M12.2,22.6c-0.1-0.8-0.4-1.4-1.2-1.4c-0.6,0-1,0.4-1,1c0,1.7,3,1.7,3,4.1c0,1.2-0.7,1.9-1.9,1.9
			s-1.9-0.9-1.9-2.1H10c0,0.9,0.4,1.4,1.2,1.4c0.7,0,1.1-0.4,1.1-1.2c0-1.7-3-1.9-3-4c0-1.1,0.7-1.7,1.8-1.7s1.8,0.7,1.8,2
			C12.9,22.6,12.2,22.6,12.2,22.6z"/>
		<path class="st1" d="M14.9,20.6h1.8c1.2,0,2,0.8,2,2.1s-0.8,2.1-2,2.1h-1v3.4h-0.8L14.9,20.6z M15.7,24.1h0.9
			c0.8,0,1.3-0.4,1.3-1.4c0-0.9-0.5-1.4-1.3-1.4h-0.9C15.7,21.3,15.7,24.1,15.7,24.1z"/>
		<path class="st1" d="M23.9,20.6v0.7h-2.6v2.6h1.9v0.7h-1.9v2.9H24v0.7h-3.6v-7.5h3.5V20.6z"/>
		<path class="st1" d="M29,22.9c-0.1-1.2-0.5-1.7-1.1-1.7c-0.9,0-1.4,0.8-1.4,3.2c0,2.3,0.4,3.2,1.4,3.2c0.8,0,1.2-0.5,1.2-1.9h0.8
			c0,1.7-0.7,2.6-2,2.6s-2.2-1-2.2-3.9c0-2.8,0.8-3.9,2.2-3.9c1.1,0,1.8,0.8,1.9,2.4C29.8,22.9,29,22.9,29,22.9z"/>
		<path class="st1" d="M32.8,20.6v7.5H32v-7.5H32.8z"/>
		<path class="st1" d="M37.3,20.6l1.7,7.5h-0.8l-0.4-2.2h-1.9l-0.4,2.2h-0.8l1.7-7.5H37.3z M35.9,25.2h1.7l-0.8-4l0,0L35.9,25.2z"/>
		<path class="st1" d="M41.3,20.6v6.8h2.4v0.7h-3.2v-7.5C40.5,20.6,41.3,20.6,41.3,20.6z"/>
		<path class="st1" d="M15.8,39.6c-1.3,0-2.1-1.1-2.1-3.9c0-2.8,0.9-3.9,2.1-3.9s2.1,1.1,2.1,3.9C17.9,38.6,17,39.6,15.8,39.6z
			 M15.8,32.6c-0.7,0-1.3,0.6-1.3,3.2s0.6,3.2,1.3,3.2s1.3-0.6,1.3-3.2S16.5,32.6,15.8,32.6z"/>
		<path class="st1" d="M19.9,32h3.2v0.7h-2.4v2.6h1.8V36h-1.8v3.6h-0.8C19.9,39.6,19.9,32,19.9,32z"/>
		<path class="st1" d="M24.8,32H28v0.7h-2.4v2.6h1.8V36h-1.8v3.6h-0.8C24.8,39.6,24.8,32,24.8,32z"/>
		<path class="st1" d="M33.1,32v0.7h-2.6v2.6h1.9V36h-1.9v2.9h2.7v0.7h-3.6V32H33.1z"/>
		<path class="st1" d="M35.1,32h1.8c1.2,0,2.1,0.7,2.1,1.9c0,0.8-0.4,1.5-1.2,1.8l1.3,3.7h-0.9L37,36h-1.1v3.5h-0.8
			C35.1,39.5,35.1,32,35.1,32z M35.9,35.3h0.7c1.2,0,1.5-0.5,1.5-1.3s-0.4-1.3-1.5-1.3h-0.7V35.3z"/>
	</g>
</g>
</svg>
