<svg id="Ebene_1" xmlns="http://www.w3.org/2000/svg" viewBox="0 0 56 56"><style/><circle cx="28" cy="27.5" r="27" fill="#ef7873"/><path d="M41.9 21.2v.8c0 8.4-6.2 18-17.6 18-3.5 0-6.7-1.1-9.5-2.8.5.1 1 .1 1.5.1 2.9 0 5.6-1 7.7-2.7-2.7-.1-5-1.9-5.8-4.4.4.1.8.1 1.2.1.6 0 .6-.1 1.1-.2-2.8-.6-5.5-3.1-5.5-6.2v-.1c1 .5 2.3.8 3.3.8-1.7-1.1-2.5-3.1-2.5-5.3 0-1.2.4-2.2 1-3.2 3 3.8 7.7 6.3 12.8 6.6-.1-.5-.1-.9-.1-1.4 0-3.5 2.8-6.3 6.2-6.3 1.8 0 3.4.8 4.5 2 1.4-.3 2.7-.8 3.9-1.5-.5 1.5-1.4 2.7-2.7 3.5 1.3-.2 2.4-.5 3.5-1-.7 1.2-1.8 2.3-3 3.2z" fill="#fff" id="Twitter_2_"/></svg>