<svg id="Ebene_1" xmlns="http://www.w3.org/2000/svg" viewBox="0 0 244.8 56"><style/><path d="M239.4 2.2v51.6H5.3V2.2h234.1z" fill="#fecc00"/><path d="M79.8 23.7c-1 1.4-2.8 3.9-3.9 5.3-.5.7-1.5 2.1 1.7 2.1h17.1s2.7-3.7 5.1-6.9c3.1-4.3.3-13.1-10.9-13.1H44.8l-7.7 10.4h41.7c2.1 0 2.1.8 1 2.2zm-12.5 9.9c-3.2 0-2.3-1.3-1.7-2.1 1.1-1.4 2.8-3.9 3.9-5.3 1-1.4 1.1-2.2-1.1-2.2H49.3L34 44.9h37.5c12.4 0 19.3-8.4 21.4-11.3H67.3zm24.4 11.3h22l8.3-11.3h-22l-8.3 11.3zm56.7-33.8L140 22.5h-9.8l8.4-11.5h-22l-14.7 20h53.8l14.7-20h-22zm-24.9 33.8h22l8.3-11.3h-22l-8.3 11.3zM2.6 38.1v2.4h30.6l1.8-2.4H2.6zm35.7-4.5H2.6V36h33.9l1.8-2.4zM2.6 44.9H30l1.8-2.4H2.6v2.4zm207.3-4.4h32.3v-2.4h-30.5l-1.8 2.4zm-3.3 4.4h35.5v-2.4h-33.8l-1.7 2.4zm8.3-11.3l-1.8 2.4h29v-2.4h-27.2zM186.1 31l14.7-20h-23.3l-14.7 20h23.3zM161 33.6l-2.4 3.3c-2.8 3.7-.3 8.1 8.7 8.1h35.3l8.3-11.3-49.9-.1z" fill="#d50029"/></svg>