<svg id="Ebene_1" xmlns="http://www.w3.org/2000/svg" viewBox="0 0 244.8 56"><style>.st27{fill:#fc0}.st28{fill:#d2002e}</style><path class="st27" d="M205.9 2.2v36.9H38.8V2.2z"/><path class="st28" d="M68.2 8.8L62.9 16H92c1.5 0 1.5.6.7 1.5-.7 1-2 2.7-2.7 3.7-.4.5-1.1 1.4 1.2 1.4h11.9s1.9-2.6 3.5-4.8c2.2-3 .2-9.1-7.6-9.1-7 .1-30.8.1-30.8.1z"/><path class="st28" d="M60.7 32.4l10.7-14.6h13.3c1.5 0 1.5.6.7 1.5-.7 1-2 2.7-2.7 3.7-.4.5-1.1 1.4 1.2 1.4h17.8c-1.5 2-6.3 7.9-14.9 7.9-6.9.1-26.1.1-26.1.1zm61.4-7.9l-5.8 7.9H101l5.8-7.9h15.3zm23.5-1.8h-37.5l10.3-13.9h15.3l-5.9 8h6.9l5.9-8h15.3zm-1.3 1.8l-5.8 7.9h-15.3l5.8-7.9h15.3zM38.8 27.6h22.6l-1.2 1.7H38.8zm0-3.1h24.9l-1.2 1.7H38.8zm0 6.3h20.3l-1.2 1.6H38.8zm167.1-1.5h-22.5l1.3-1.7h21.2zm0 3.1h-24.8l1.3-1.6h23.5zM187 24.5h18.9v1.7h-20.2zm-9.9-15.7l-10.3 13.9h-16.3l10.3-13.9h16.3zm-27.8 15.7s-1.1 1.5-1.7 2.3c-1.9 2.6-.2 5.6 6.1 5.6h24.6l5.8-7.9h-34.8z"/><path class="st27" d="M38.8 45.1h167.1v.8H38.8zm0 3.8h167.1v.9H38.8zm0 3.9h167.1v.9H38.8z"/><path class="st28" d="M94.9 53.7h5.1l.8-1.1H97l2.1-2.8h3.4l.8-1.1h-3.4l1.9-2.6h3.7l.8-1h-5zm6.2 0h1.5l5.3-3.7v3.7h1.6v-4.5l6.1-4.1h-1.5l-4.8 3.3v-3.3h-1.5l-.1 4.1zm16.4-7.6h1.1c.8 0 1.7.4.9 1.5-.8 1.1-2.1 1.5-2.9 1.5h-1.3l2.2-3zm-6.9 7.6h1.3l2.5-3.5h1.3c1.6 0 3.7-.7 5.1-2.6 1.5-2 .4-2.6-1.5-2.6H117l-6.4 8.7zm7.5 0h1.3l2.8-3.8h.8c.7 0 1.1 0 .9.8l-.8 3h1.5l.8-3.4c.1-.5.1-.7-.2-.9 1.2-.2 2.5-.9 3.3-2 1.5-2.1 0-2.3-1.8-2.3h-2.2l-6.4 8.6zm6.8-7.6h1.2c1.2 0 1.4.5.9 1.3-.6.8-1.7 1.3-2.9 1.3H123l1.9-2.6zm.9 7.6h5l.8-1.1h-3.7l2.1-2.8h3.4l.8-1.1h-3.4l1.8-2.6h3.8l.8-1h-5zm17.6-8.5c-.5-.2-1.1-.3-1.7-.3-1.6 0-3.5.8-4.6 2.4-2 2.7 2.3 2.2.8 4.1-.7 1-2.1 1.4-2.8 1.4-.7 0-1.2-.2-1.6-.4l-1 1.2c.5.2.9.4 1.6.4 1.8 0 3.8-.7 5.2-2.6 2.1-2.8-2-2.5-.8-4.1.7-.9 1.7-1.2 2.4-1.2s.9.1 1.4.4l1.1-1.3zm6.4 0c-.5-.2-1.1-.3-1.7-.3-1.6 0-3.5.8-4.6 2.4-2 2.7 2.3 2.2.8 4.1-.7 1-2.1 1.4-2.8 1.4-.7 0-1.2-.2-1.6-.4l-1 1.2c.5.2.9.4 1.6.4 1.8 0 3.8-.7 5.2-2.6 2.1-2.8-2-2.5-.8-4.1.7-.9 1.7-1.2 2.4-1.2s.9.1 1.4.4l1.1-1.3z"/></svg>