<svg id="Ebene_1" xmlns="http://www.w3.org/2000/svg" viewBox="0 0 56 56"><style/><circle cx="27.3" cy="28.5" r="27" fill="#374858"/><path d="M35.6 15H19.1c-2.9 0-5.2 2.3-5.2 5.2v16.6c0 2.9 2.3 5.2 5.2 5.2h16.6c2.9 0 5.2-2.3 5.2-5.2V20.2c-.1-2.9-2.4-5.2-5.3-5.2zm1.5 3.1h.6v4.6h-4.6v-4.6h4zm-13.6 7.6c.9-1.2 2.3-2 3.9-2s3 .8 3.9 2c.6.8.9 1.7.9 2.8 0 2.6-2.1 4.8-4.8 4.8-2.6 0-4.8-2.1-4.8-4.8 0-1 .3-2 .9-2.8zm14.7 11.1c0 1.4-1.2 2.6-2.6 2.6H19.1c-1.4 0-2.6-1.2-2.6-2.6V25.7h4c-.3.9-.5 1.8-.5 2.8 0 4.1 3.3 7.4 7.4 7.4 4.1 0 7.4-3.3 7.4-7.4 0-1-.2-1.9-.5-2.8h4v11.1z" fill="#fff"/></svg>