<svg id="Ebene_1" xmlns="http://www.w3.org/2000/svg" viewBox="0 0 56 56"><style/><circle cx="27.5" cy="28.5" r="27" fill="#ef7873"/><path d="M27.6 41.6c-1.3 0-2.5-.2-3.7-.5.5-.8 1-1.8 1.3-2.8.2-.6.9-3.6.9-3.6.5.9 1.8 1.6 3.2 1.6 4.2 0 7.1-3.8 7.1-9 0-3.9-3.3-7.5-8.3-7.5-6.2 0-9.4 4.5-9.4 8.2 0 2.3.9 4.3 2.7 5 .3.1.6 0 .7-.3.1-.2.2-.8.3-1.1.1-.3.1-.4-.2-.7-.5-.6-.9-1.4-.9-2.6 0-3.3 2.5-6.3 6.5-6.3 3.5 0 5.5 2.1 5.5 5 0 3.8-1.7 7-4.2 7-1.4 0-2.4-1.1-2.1-2.5.4-1.7 1.2-3.5 1.2-4.7 0-1.1-.6-2-1.8-2-1.4 0-2.5 1.5-2.5 3.4 0 1.2.4 2.1.4 2.1s-1.4 6.1-1.7 7.2c-.2 1-.3 2.1-.2 3-4.6-2-7.9-6.6-7.9-12 0-7.2 5.9-13.1 13.1-13.1s13.1 5.9 13.1 13.1c0 7.2-5.8 13.1-13.1 13.1z" fill="#fff"/></svg>