<svg id="Ebene_1" data-name="Ebene 1" xmlns="http://www.w3.org/2000/svg" viewBox="0 0 488 28"><defs><style>.cls-1{opacity:.3}.cls-2{fill:#374858}</style></defs><g class="cls-1"><path class="cls-2" d="M0 10h226v2H0z"/></g><g class="cls-1"><path class="cls-2" d="M266 10h222v2H266z"/></g><path d="M253.66 19.91c-1.14.48-2.21 1.15-3.32 1.76l.72 1.3a2.07 2.07 0 0 1-.19.22 8.61 8.61 0 0 1-4.6 2c-.31 0-.27-.07-.27-.26V12h6v-2h-6V7.18a3 3 0 1 0-2 0V10h-6v2h6v12.87c0 .22-.16.34-.47.3a9.38 9.38 0 0 1-4.6-1.87.45.45 0 0 1-.16-.72c.19-.28.33-.6.53-.94l-2.74-1.51a1.33 1.33 0 0 0-1.85.3 11.27 11.27 0 0 0 20.3-.1 2.74 2.74 0 0 0-1.35-.42z" opacity=".3" fill="#374858"/></svg>