<svg id="Ebene_1" xmlns="http://www.w3.org/2000/svg" viewBox="0 0 56 56"><g id="Style_2_copy_3"><path d="M28.2 1.5c-14.9 0-27 12.1-27 27s12.1 27 27 27 27-12.1 27-27-12.1-27-27-27z" fill="#374858"/><path d="M9.5 23.9l.7 3.8c.2 1 .4 2 .5 3 .2-1.1.5-2.1.7-3l1-3.8h2.3l.9 3.7c.2 1 .5 2.1.7 3.1.1-1.1.3-2.1.5-3.2l.8-3.7h2.8L17.6 33h-2.7l-.9-3.2c-.2-.9-.4-1.7-.6-2.9-.2 1.2-.4 2-.6 2.9l-.9 3.2H9.2l-2.7-9.2 3 .1zm14.7 0l.7 3.8c.2 1 .4 2 .5 3 .2-1.1.5-2.1.7-3l1-3.8h2.3l.9 3.7c.2 1 .5 2.1.7 3.1.1-1.1.3-2.1.5-3.2l.8-3.7h2.8L32.3 33h-2.7l-.9-3.2c-.2-.9-.4-1.7-.6-2.9-.2 1.2-.4 2-.6 2.9l-.9 3.2h-2.7l-2.7-9.2c0 .1 3 .1 3 .1zm14.6 0l.7 3.8c.2 1 .4 2 .5 3 .2-1.1.5-2.1.7-3l1-3.8H44l.9 3.7c.2 1 .5 2.1.7 3.1.1-1.1.3-2.1.5-3.2l.8-3.7h2.8L47 33.1h-2.7l-.9-3.2c-.2-.9-.4-1.7-.6-2.9-.2 1.2-.4 2-.6 2.9l-.9 3.2h-2.7l-2.7-9.2h2.9z" fill="#fff"/></g></svg>