<svg id="Ebene_1" xmlns="http://www.w3.org/2000/svg" viewBox="0 0 132 84"><style>.st0{fill:#374858}.st1{fill:#fff}.st2{fill:#ef7873}.st3{stroke:#374858;stroke-width:2}.st3,.st4,.st5{fill:none;stroke-miterlimit:10}.st4{stroke:#374858;stroke-width:3}.st5{stroke-width:2;stroke-linejoin:round}.st5,.st6,.st7{stroke:#374858}.st6{stroke-linejoin:round;stroke-miterlimit:10;fill:none;stroke-width:3}.st7{fill:#fff;stroke-width:2}.st7,.st8,.st9{stroke-miterlimit:10}.st8{fill:#fff;stroke:#374858;stroke-width:3}.st9{stroke:#fff;stroke-width:1.5}.st10,.st9{fill:#f2f2f2}.st11,.st12{fill:none;stroke:#ef7873;stroke-width:2;stroke-miterlimit:10}.st12{stroke-width:3}.st13{opacity:.5}.st14{stroke-width:2;stroke-linejoin:round;stroke-miterlimit:10}.st14,.st15,.st16{fill:none;stroke:#374858;stroke-linecap:round}.st15{stroke-linejoin:round;stroke-miterlimit:10;stroke-width:3}.st16{stroke-width:2}.st16,.st17,.st18{stroke-miterlimit:10}.st17{stroke-width:3;stroke-linecap:round;fill:none;stroke:#374858}.st18{fill:#fff;stroke:#ccc}.st19{fill:#0097d9}.st20{fill:#e40520}.st21{fill:#06326e}.st22{fill:#306fc5}.st23{fill:#265697}.st24{fill:#005098}.st25{fill:#f6a500}.st26{fill:#fab31e}.st27{fill:#fc0}.st28{fill:#d2002e}.st29{fill:#fecc00}.st30{fill:#d50029}</style><g id="Page-1_1_"><g id="american-express_1_" transform="translate(-1)"><path id="Rectangle-1_1_" class="st22" d="M121.2 2.4H10.4c-3.2 0-6.3 3.2-6.3 6.3V72c0 6.3 3.2 9.5 9.5 9.5h107.6c6.3 0 9.5-3.2 9.5-9.5V11.9c0-6.3-3.2-9.5-9.5-9.5z"/><path id="Shape_1_" class="st1" d="M14.8 31.4l-2.5-6-2.4 6h4.9zm54-2.4c-.5.3-1.1.3-1.8.3h-4.4V26H67c.6 0 1.3 0 1.7.3.5.2.8.7.8 1.3 0 .7-.2 1.2-.7 1.4 0 0 .5-.2 0 0zm31 2.4l-2.5-6-2.5 6h5zM42 37.9h-3.7V26.2l-5.2 11.7H30l-5.2-11.8v11.8h-7.3l-1.4-3.3H8.6l-1.4 3.3H3.3l6.4-15H15l6.1 14.2V22.9H27l4.7 10.2L36 22.9h6v15zm14.6 0h-12v-15h12V26h-8.4v2.7h8.2v3.1h-8.2v3h8.4v3.1zm16.9-11c0 2.4-1.6 3.6-2.5 4 .8.3 1.5.8 1.8 1.3.5.7.6 1.4.6 2.7v2.9h-3.6v-1.9c0-.9.1-2.2-.6-2.9-.5-.5-1.3-.6-2.6-.6h-3.8v5.5h-3.6v-15h8.2c1.8 0 3.2 0 4.3.7 1.1.7 1.8 1.7 1.8 3.3 0 0 0-1.6 0 0zm5.7 11h-3.7v-15h3.7v15zm42.4 0h-5.1l-6.8-11.3v11.3h-7.3l-1.4-3.3h-7.4l-1.4 3.3H88c-1.7 0-3.9-.4-5.2-1.7-1.3-1.3-1.9-3-1.9-5.7 0-2.2.4-4.3 1.9-5.9 1.2-1.2 3-1.7 5.4-1.7h3.5v3.2h-3.4c-1.3 0-2 .2-2.8.9-.6.6-1 1.8-1 3.4 0 1.6.3 2.8 1 3.5.6.6 1.6.8 2.5.8h1.6l5.1-11.8h5.4l6.1 14.2V22.9h5.5l6.3 10.4V22.9h3.7v15h-.1zM3.3 40.8h6.1l1.4-3.3h3.1l1.4 3.3h12v-2.5l1.1 2.6h6.3l1.1-2.6v2.6h29.9v-5.5h.6c.4 0 .5.1.5.7v4.7h15.5v-1.3c1.2.7 3.2 1.3 5.7 1.3h6.5l1.4-3.3H99l1.4 3.3H113v-3.2l1.9 3.2H125V19.9h-10v2.5l-1.4-2.5h-10.2v2.5l-1.3-2.5H88.2c-2.3 0-4.3.3-6 1.2v-1.2h-9.5v1.2c-1-.9-2.5-1.2-4-1.2H33.8l-2.3 5.4-2.4-5.4h-11v2.5L17 19.9H7.6l-4.3 9.9v11zm127.4 11.1h-6.5c-.7 0-1.1 0-1.5.3-.4.2-.5.6-.5 1.1 0 .6.3 1 .8 1.1.4.1.8.2 1.4.2l1.9.1c2 0 3.3.4 4.1 1.2.1.1.2.2.3.4v-4.4zm0 9.9c-.9 1.3-2.6 1.9-4.9 1.9h-6.9v-3.2h6.9c.7 0 1.2-.1 1.4-.4.3-.2.4-.6.4-1s-.2-.8-.4-1c-.3-.2-.6-.3-1.3-.3-3.4-.1-7.6.1-7.6-4.6 0-2.2 1.4-4.5 5.1-4.5h7.1v-3h-6.6c-2 0-3.5.5-4.5 1.2v-1.2h-9.8c-1.6 0-3.4.4-4.3 1.2v-1.2H88v1.2c-1.4-1-3.7-1.2-4.8-1.2H71.6v1.2c-1.1-1.1-3.6-1.2-5.1-1.2H53.6l-3 3.2-2.8-3.2H28.6v20.9h19l3-3.3 2.9 3.3h11.7v-4.9h1.1c1.5 0 3.4 0 5-.7v5.6h9.6v-5.5h.5c.6 0 .7 0 .7.6v4.8h29.3c1.9 0 3.8-.5 4.9-1.3v1.3h9.3c1.9 0 3.8-.3 5.3-1v-3.7h-.2zm-14.3-6c.7.7 1.1 1.6 1.1 3.2 0 3.2-2 4.7-5.6 4.7h-7v-3.2h7c.7 0 1.2-.1 1.5-.4.2-.2.4-.6.4-1s-.2-.8-.4-1c-.3-.2-.7-.3-1.3-.3-3.4-.1-7.5.1-7.5-4.6 0-2.2 1.4-4.5 5.1-4.5h7.2v3.2h-6.6c-.7 0-1.1 0-1.4.3-.4.2-.5.6-.5 1.1 0 .6.3 1 .8 1.1.4.1.8.2 1.4.2l1.9.1c1.8-.1 3.1.2 3.9 1.1 0 0-.8-.9 0 0zm-32.3-1c-.5.3-1.1.3-1.8.3H78v-3.4h4.4c.6 0 1.3 0 1.7.3.5.2.7.7.7 1.3 0 .7-.2 1.3-.7 1.5 0 0 .5-.2 0 0zm2.2 1.9c.8.3 1.4.8 1.8 1.3.5.7.6 1.4.6 2.7v3H85v-1.9c0-.9.1-2.2-.6-2.9-.5-.5-1.3-.7-2.6-.7H78v5.5h-3.6v-15h8.3c1.8 0 3.1.1 4.3.7 1.1.7 1.8 1.6 1.8 3.3 0 2.4-1.6 3.6-2.5 4 0 0 .9-.4 0 0zm4.5-8h12v3.1h-8.4v2.7h8.2v3.1h-8.2v3h8.4v3.1h-12v-15zm-24.2 6.9H62v-3.8h4.7c1.3 0 2.2.5 2.2 1.8-.1 1.3-.9 2-2.3 2zm-8.2 6.7l-5.5-6.1 5.5-5.9v12zm-14.2-1.8h-8.8v-3h7.9v-3.1h-7.9v-2.7h9l3.9 4.4-4.1 4.4zm28.5-6.9c0 4.2-3.1 5-6.2 5H62v5h-7l-4.4-5-4.6 5H31.8v-15h14.4l4.4 4.9 4.6-4.9h11.5c2.8.1 6 .9 6 5 0 0 0-4.1 0 0z"/></g></g></svg>