<?xml version="1.0" encoding="utf-8"?>
<!-- Generator: Adobe Illustrator 19.2.1, SVG Export Plug-In . SVG Version: 6.00 Build 0)  -->
<svg version="1.1" id="Ebene_1" xmlns="http://www.w3.org/2000/svg" xmlns:xlink="http://www.w3.org/1999/xlink" x="0px" y="0px"
	 viewBox="0 0 132 84" style="enable-background:new 0 0 132 84;" xml:space="preserve">
<style type="text/css">
	.st0{fill:#374858;}
	.st1{fill:#FFFFFF;}
	.st2{fill:#EF7873;}
	.st3{fill:none;stroke:#374858;stroke-width:2;stroke-miterlimit:10;}
	.st4{fill:none;stroke:#374858;stroke-width:3;stroke-miterlimit:10;}
	.st5{fill:none;stroke:#374858;stroke-width:2;stroke-linejoin:round;stroke-miterlimit:10;}
	.st6{fill:none;stroke:#374858;stroke-width:3;stroke-linejoin:round;stroke-miterlimit:10;}
	.st7{fill:#FFFFFF;stroke:#374858;stroke-width:2;stroke-miterlimit:10;}
	.st8{fill:#FFFFFF;stroke:#374858;stroke-width:3;stroke-miterlimit:10;}
	.st9{fill:#F2F2F2;stroke:#FFFFFF;stroke-width:1.5;stroke-miterlimit:10;}
	.st10{fill:#F2F2F2;}
	.st11{fill:none;stroke:#EF7873;stroke-width:2;stroke-miterlimit:10;}
	.st12{fill:none;stroke:#EF7873;stroke-width:3;stroke-miterlimit:10;}
	.st13{opacity:0.5;}
	.st14{fill:none;stroke:#374858;stroke-width:2;stroke-linecap:round;stroke-linejoin:round;stroke-miterlimit:10;}
	.st15{fill:none;stroke:#374858;stroke-width:3;stroke-linecap:round;stroke-linejoin:round;stroke-miterlimit:10;}
	.st16{fill:none;stroke:#374858;stroke-width:2;stroke-linecap:round;stroke-miterlimit:10;}
	.st17{fill:none;stroke:#374858;stroke-width:3;stroke-linecap:round;stroke-miterlimit:10;}
	.st18{fill:#FFFFFF;stroke:#CCCCCC;stroke-miterlimit:10;}
	.st19{fill:#0097D9;}
	.st20{fill:#E40520;}
	.st21{fill:#06326E;}
	.st22{fill:#306FC5;}
	.st23{fill:#265697;}
	.st24{fill:#005098;}
	.st25{fill:#F6A500;}
	.st26{fill:#FAB31E;}
	.st27{fill:#FFCC00;}
	.st28{fill:#D2002E;}
	.st29{fill:#FECC00;}
	.st30{fill:#D50029;}
</style>
<g id="Page-1_1_">
	<g id="american-express_1_" transform="translate(-1.000000, 0.000000)">
		<path id="Rectangle-1_1_" class="st22" d="M121.2,2.4c-6.3,0-73.4,0-110.8,0c-3.2,0-6.3,3.2-6.3,6.3v63.3c0,6.3,3.2,9.5,9.5,9.5
			c35.3,0,101.3,0,107.6,0c6.3,0,9.5-3.2,9.5-9.5V11.9C130.7,5.6,127.5,2.4,121.2,2.4z"/>
		<path id="Shape_1_" class="st1" d="M14.8,31.4l-2.5-6l-2.4,6H14.8z M68.8,29c-0.5,0.3-1.1,0.3-1.8,0.3h-4.4V26h4.4
			c0.6,0,1.3,0,1.7,0.3c0.5,0.2,0.8,0.7,0.8,1.3C69.5,28.3,69.3,28.8,68.8,29C68.8,29,69.3,28.8,68.8,29L68.8,29L68.8,29z
			 M99.8,31.4l-2.5-6l-2.5,6H99.8L99.8,31.4L99.8,31.4L99.8,31.4z M42,37.9h-3.7l0-11.7l-5.2,11.7h-3.1l-5.2-11.8v11.8h-7.3
			l-1.4-3.3H8.6l-1.4,3.3H3.3l6.4-15h5.3l6.1,14.2V22.9H27l4.7,10.2L36,22.9h6L42,37.9L42,37.9L42,37.9L42,37.9z M56.6,37.9h-12v-15
			h12V26h-8.4v2.7h8.2v3.1h-8.2v3h8.4V37.9L56.6,37.9L56.6,37.9L56.6,37.9z M73.5,26.9c0,2.4-1.6,3.6-2.5,4c0.8,0.3,1.5,0.8,1.8,1.3
			c0.5,0.7,0.6,1.4,0.6,2.7v2.9h-3.6l0-1.9c0-0.9,0.1-2.2-0.6-2.9c-0.5-0.5-1.3-0.6-2.6-0.6h-3.8v5.5h-3.6v-15h8.2
			c1.8,0,3.2,0,4.3,0.7C72.8,24.3,73.5,25.3,73.5,26.9C73.5,26.9,73.5,25.3,73.5,26.9L73.5,26.9L73.5,26.9z M79.2,37.9h-3.7v-15h3.7
			V37.9L79.2,37.9L79.2,37.9L79.2,37.9z M121.6,37.9h-5.1l-6.8-11.3v11.3h-7.3l-1.4-3.3h-7.4l-1.4,3.3h-4.2c-1.7,0-3.9-0.4-5.2-1.7
			c-1.3-1.3-1.9-3-1.9-5.7c0-2.2,0.4-4.3,1.9-5.9c1.2-1.2,3-1.7,5.4-1.7h3.5v3.2h-3.4c-1.3,0-2,0.2-2.8,0.9c-0.6,0.6-1,1.8-1,3.4
			c0,1.6,0.3,2.8,1,3.5c0.6,0.6,1.6,0.8,2.5,0.8h1.6l5.1-11.8h5.4l6.1,14.2V22.9h5.5l6.3,10.4V22.9h3.7V37.9L121.6,37.9L121.6,37.9
			L121.6,37.9z M3.3,40.8h6.1l1.4-3.3h3.1l1.4,3.3h12v-2.5l1.1,2.6h6.3l1.1-2.6v2.6h29.9l0-5.5h0.6c0.4,0,0.5,0.1,0.5,0.7v4.7h15.5
			v-1.3c1.2,0.7,3.2,1.3,5.7,1.3h6.5l1.4-3.3H99l1.4,3.3h12.6v-3.2l1.9,3.2h10.1V19.9h-10v2.5l-1.4-2.5h-10.2v2.5l-1.3-2.5H88.2
			c-2.3,0-4.3,0.3-6,1.2v-1.2h-9.5v1.2c-1-0.9-2.5-1.2-4-1.2H33.8l-2.3,5.4l-2.4-5.4h-11v2.5L17,19.9H7.6l-4.3,9.9L3.3,40.8
			L3.3,40.8z M130.7,51.9h-6.5c-0.7,0-1.1,0-1.5,0.3c-0.4,0.2-0.5,0.6-0.5,1.1c0,0.6,0.3,1,0.8,1.1c0.4,0.1,0.8,0.2,1.4,0.2l1.9,0.1
			c2,0,3.3,0.4,4.1,1.2c0.1,0.1,0.2,0.2,0.3,0.4V51.9z M130.7,61.8c-0.9,1.3-2.6,1.9-4.9,1.9h-6.9v-3.2h6.9c0.7,0,1.2-0.1,1.4-0.4
			c0.3-0.2,0.4-0.6,0.4-1c0-0.4-0.2-0.8-0.4-1c-0.3-0.2-0.6-0.3-1.3-0.3c-3.4-0.1-7.6,0.1-7.6-4.6c0-2.2,1.4-4.5,5.1-4.5h7.1v-3
			h-6.6c-2,0-3.5,0.5-4.5,1.2v-1.2h-9.8c-1.6,0-3.4,0.4-4.3,1.2v-1.2H88v1.2c-1.4-1-3.7-1.2-4.8-1.2H71.6v1.2
			c-1.1-1.1-3.6-1.2-5.1-1.2H53.6l-3,3.2l-2.8-3.2H28.6v20.9h19l3-3.3l2.9,3.3l11.7,0v-4.9h1.1c1.5,0,3.4,0,5-0.7v5.6h9.6v-5.5h0.5
			c0.6,0,0.7,0,0.7,0.6v4.8h29.3c1.9,0,3.8-0.5,4.9-1.3v1.3h9.3c1.9,0,3.8-0.3,5.3-1V61.8L130.7,61.8L130.7,61.8L130.7,61.8z
			 M116.4,55.8c0.7,0.7,1.1,1.6,1.1,3.2c0,3.2-2,4.7-5.6,4.7h-7v-3.2h7c0.7,0,1.2-0.1,1.5-0.4c0.2-0.2,0.4-0.6,0.4-1
			c0-0.4-0.2-0.8-0.4-1c-0.3-0.2-0.7-0.3-1.3-0.3c-3.4-0.1-7.5,0.1-7.5-4.6c0-2.2,1.4-4.5,5.1-4.5h7.2v3.2h-6.6
			c-0.7,0-1.1,0-1.4,0.3c-0.4,0.2-0.5,0.6-0.5,1.1c0,0.6,0.3,1,0.8,1.1c0.4,0.1,0.8,0.2,1.4,0.2l1.9,0.1
			C114.3,54.6,115.6,54.9,116.4,55.8C116.4,55.8,115.6,54.9,116.4,55.8L116.4,55.8L116.4,55.8z M84.1,54.8c-0.5,0.3-1.1,0.3-1.8,0.3
			H78v-3.4h4.4c0.6,0,1.3,0,1.7,0.3c0.5,0.2,0.7,0.7,0.7,1.3C84.8,54,84.6,54.6,84.1,54.8C84.1,54.8,84.6,54.6,84.1,54.8L84.1,54.8
			L84.1,54.8z M86.3,56.7c0.8,0.3,1.4,0.8,1.8,1.3c0.5,0.7,0.6,1.4,0.6,2.7v3H85v-1.9c0-0.9,0.1-2.2-0.6-2.9
			c-0.5-0.5-1.3-0.7-2.6-0.7H78v5.5h-3.6v-15h8.3c1.8,0,3.1,0.1,4.3,0.7c1.1,0.7,1.8,1.6,1.8,3.3C88.8,55.1,87.2,56.3,86.3,56.7
			C86.3,56.7,87.2,56.3,86.3,56.7L86.3,56.7L86.3,56.7z M90.8,48.7h12v3.1h-8.4v2.7h8.2v3.1h-8.2v3l8.4,0v3.1h-12V48.7L90.8,48.7
			L90.8,48.7L90.8,48.7z M66.6,55.6H62v-3.8h4.7c1.3,0,2.2,0.5,2.2,1.8C68.8,54.9,68,55.6,66.6,55.6L66.6,55.6L66.6,55.6L66.6,55.6z
			 M58.4,62.3l-5.5-6.1l5.5-5.9V62.3L58.4,62.3L58.4,62.3L58.4,62.3z M44.2,60.5h-8.8v-3h7.9v-3.1h-7.9v-2.7h9l3.9,4.4L44.2,60.5
			L44.2,60.5L44.2,60.5L44.2,60.5z M72.7,53.6c0,4.2-3.1,5-6.2,5H62v5h-7l-4.4-5l-4.6,5H31.8v-15h14.4l4.4,4.9l4.6-4.9h11.5
			C69.5,48.7,72.7,49.5,72.7,53.6C72.7,53.6,72.7,49.5,72.7,53.6L72.7,53.6L72.7,53.6z"/>
	</g>
</g>
</svg>
