<?xml version="1.0" encoding="utf-8"?>
<!-- Generator: Adobe Illustrator 21.0.1, SVG Export Plug-In . SVG Version: 6.00 Build 0)  -->
<svg version="1.1"
	 id="Ebene_1" inkscape:version="0.91 r13725" sodipodi:docname="bekapten_signet_new.svg" xmlns:cc="http://creativecommons.org/ns#" xmlns:dc="http://purl.org/dc/elements/1.1/" xmlns:inkscape="http://www.inkscape.org/namespaces/inkscape" xmlns:rdf="http://www.w3.org/1999/02/22-rdf-syntax-ns#" xmlns:sodipodi="http://sodipodi.sourceforge.net/DTD/sodipodi-0.dtd" xmlns:svg="http://www.w3.org/2000/svg"
	 xmlns="http://www.w3.org/2000/svg" xmlns:xlink="http://www.w3.org/1999/xlink" x="0px" y="0px" viewBox="0 0 302 257.9"
	 style="enable-background:new 0 0 302 257.9;" xml:space="preserve">
<style type="text/css">
	.st0{fill:#f07873;}
</style>
<sodipodi:namedview  bordercolor="#666666" borderopacity="1" gridtolerance="10" guidetolerance="10" id="namedview3414" inkscape:current-layer="text3412" inkscape:cx="185" inkscape:cy="200" inkscape:pageopacity="0" inkscape:pageshadow="2" inkscape:window-height="1677" inkscape:window-maximized="0" inkscape:window-width="2106" inkscape:window-x="1875" inkscape:window-y="131" inkscape:zoom="4.6625" objecttolerance="10" pagecolor="#ffffff" showgrid="false">
	</sodipodi:namedview>
<g id="g3400">
	<path id="path3402" class="st0" d="M120,116c0-0.1-0.1-0.1-0.2-0.1c0-0.1,0.1-0.1,0.2-0.1c0.1,0,0.1,0,0.1-0.1
		c0.1,0,0.1,0.1,0.1,0.1c0,0.1,0,0.1,0.1,0.2C120.1,116.1,120,116.1,120,116"/>
	<path id="path3404" class="st0" d="M250.6,67.9l-1.9,1.2l1,1.7l1.9-1.2L250.6,67.9z M254,47.2l-13.7,10l4.8,6.5l1.2-0.9l-3.7-5
		l5.3-3.9l2.6,3.5l1.2-0.9l-2.6-3.5l4.7-3.4l3.5,4.8l1.2-0.9L254,47.2z M229.8,46.3l1.3,1.3l5.6-5.6l1.8,1.6l-3.8,7.6l1.4,1.4l3.9-8
		c1.8,0.9,3.5,0.3,4.9-1c2-2,1.8-4.5-0.2-6.4l-2.9-2.9L229.8,46.3z M242,36.7l1.1,1.1c1.9,1.9,1.7,3.2,0.4,4.5
		c-1.3,1.3-2.7,1.5-4.5-0.4l-1.1-1.1L242,36.7z M228.2,23.3l-7.7,9.8c-1.7,2.1-1.9,4.5,0.5,6.4s4.6,1.1,6.3-1l7.7-9.8l-1.4-1.1
		l-7.7,9.8c-1.1,1.3-2.4,2.2-3.9,1c-1.6-1.2-1-2.7,0-4.1l7.7-9.8L228.2,23.3z M214.4,14.8l-0.8,1.3l3,1.8l-8,13.2l1.6,0.9l8-13.2
		l3,1.8l0.8-1.3L214.4,14.8z M199.3,8.2l-6.6,15.6l1.7,0.7l5.8-13.6l0,0l-0.9,15.6l1.8,0.8l6.6-15.6L206,11l-4.9,11.5l0,0L202,9.3
		L199.3,8.2z M184.1,3.6l-4.7,16.3l7.7,2.2l0.4-1.5l-6-1.7l1.8-6.3l4.2,1.2l0.4-1.5l-4.2-1.2l1.6-5.5l5.7,1.7l0.4-1.5L184.1,3.6z
		 M167,0.6l1.2,17.4l1.7,0.3l6.7-16.1l-1.8-0.3l-5.1,12.8l0,0L168.9,1L167,0.6z M150.2,17l3.1,0.1c3.6,0.1,5.8-1.9,5.9-8.4
		c0.1-6.5-2-8.5-5.6-8.6L150.5,0L150.2,17z M152.3,1.7h1c2.7,0,4.2,1.2,4.1,7c-0.1,5.8-1.7,6.9-4.4,6.9h-1L152.3,1.7z M136.8,1.3
		l-1.9,17.3l1.8-0.2l0.5-5.1l4.3-0.5l1.5,4.9l1.8-0.2L139.4,1L136.8,1.3z M138.2,2.4L138.2,2.4l2.9,8.9l-3.8,0.4L138.2,2.4z
		 M112.7,25l1.7-0.6l-2.6-7.5l2.3-0.9l5.2,6.7l1.8-0.6l-5.4-7c1.6-1.2,1.8-3,1.2-4.8c-0.9-2.6-3.2-3.5-5.8-2.6L107.2,9L112.7,25z
		 M109.5,9.8l1.5-0.5c2.5-0.9,3.6-0.1,4.2,1.7s0.2,3.1-2.3,3.9l-1.5,0.5L109.5,9.8z M103.3,20c-2.8-5.7-5.6-7-8.1-5.7
		c-2.6,1.3-3.2,4.3-0.5,9.9c2.8,5.7,5.6,7,8.1,5.7C105.4,28.7,106.1,25.7,103.3,20 M101.7,20.8c2.5,5.2,2,7,0.5,7.7s-3.3,0-5.8-5.1
		c-2.5-5.2-2-7-0.5-7.7C97.3,15,99.1,15.6,101.7,20.8 M88.2,38.6l1.5-1l-4.4-6.7l3.4-2.3l-0.9-1.3l-3.4,2.3l-3.2-4.8l4.6-3l-0.9-1.3
		l-6.1,4L88.2,38.6z M57.8,43.3l12,12l1.3-1.3L60.7,43.5l0,0l14.1,6.8l1.4-1.4l-12-12l-1.3,1.3l8.8,8.9l0,0l-11.9-5.8L57.8,43.3z
		 M60.8,67.3l1.1-1.5L55.5,61l1.4-2l8.1,2.6l1.2-1.5l-8.4-2.7c0.6-1.9-0.2-3.5-1.7-4.7c-2.2-1.7-4.7-1.1-6.3,1.1l-2.4,3.3L60.8,67.3
		z M49.5,56.6l1-1.3c1.6-2.1,2.9-2.2,4.4-1c1.5,1.1,1.8,2.4,0.3,4.5l-1,1.3L49.5,56.6z M50.3,68.5c-5.6-3-8.6-2.5-9.9,0
		c-1.4,2.5-0.2,5.4,5.4,8.4s8.6,2.5,9.9,0S55.8,71.5,50.3,68.5 M49.4,70.1c5.1,2.8,5.7,4.6,4.9,6c-0.8,1.4-2.7,1.9-7.7-0.8
		c-5.1-2.8-5.7-4.6-4.9-6C42.5,67.8,44.3,67.4,49.4,70.1 M33.9,87.5l0.7-1.7c0.8-2,1.8-2.5,3.6-1.8c2.1,0.9,2.4,2.2,1.5,4.7l-0.4,1
		L33.9,87.5z M40.7,90.1l0.7-1.7c0.9-2.2,2.4-2.7,4.4-1.9s2.5,2.3,1.7,4.3l-0.7,1.7L40.7,90.1z M47.6,94.8l1.3-3.2
		c1.4-3.5,0.6-5.6-2.3-6.8c-2-0.8-3.8-0.5-5.1,1.2l0,0c0.2-1.9-1-3.2-2.5-3.8c-2.3-0.9-4.4-0.2-5.4,2.2l-1.7,4.2L47.6,94.8z"/>
	<path id="path3406" class="st0" d="M250.6,67.9l-1.9,1.2l1,1.7l1.9-1.2L250.6,67.9z M254,47.2l-13.7,10l4.8,6.5l1.2-0.9l-3.7-5
		l5.3-3.9l2.6,3.5l1.2-0.9l-2.6-3.5l4.7-3.4l3.5,4.8l1.2-0.9L254,47.2z M229.8,46.3l1.3,1.3l5.6-5.6l1.8,1.6l-3.8,7.6l1.4,1.4l3.9-8
		c1.8,0.9,3.5,0.3,4.9-1c2-2,1.8-4.5-0.2-6.4l-2.9-2.9L229.8,46.3z M242,36.7l1.1,1.1c1.9,1.9,1.7,3.2,0.4,4.5
		c-1.3,1.3-2.7,1.5-4.5-0.4l-1.1-1.1L242,36.7z M228.2,23.3l-7.7,9.8c-1.7,2.1-1.9,4.5,0.5,6.4s4.6,1.1,6.3-1l7.7-9.8l-1.4-1.1
		l-7.7,9.8c-1.1,1.3-2.4,2.2-3.9,1c-1.6-1.2-1-2.7,0-4.1l7.7-9.8L228.2,23.3z M214.4,14.8l-0.8,1.3l3,1.8l-8,13.2l1.6,0.9l8-13.2
		l3,1.8l0.8-1.3L214.4,14.8z M199.3,8.2l-6.6,15.6l1.7,0.7l5.8-13.6l0,0l-0.9,15.6l1.8,0.8l6.6-15.6L206,11l-4.9,11.5l0,0L202,9.3
		L199.3,8.2z M184.1,3.6l-4.7,16.3l7.7,2.2l0.4-1.5l-6-1.7l1.8-6.3l4.2,1.2l0.4-1.5l-4.2-1.2l1.6-5.5l5.7,1.7l0.4-1.5L184.1,3.6z
		 M167,0.6l1.2,17.4l1.7,0.3l6.7-16.1l-1.8-0.3l-5.1,12.8l0,0L168.9,1L167,0.6z M150.2,17l3.1,0.1c3.6,0.1,5.8-1.9,5.9-8.4
		c0.1-6.5-2-8.5-5.6-8.6L150.5,0L150.2,17z M152.3,1.7h1c2.7,0,4.2,1.2,4.1,7c-0.1,5.8-1.7,6.9-4.4,6.9h-1L152.3,1.7z M136.8,1.3
		l-1.9,17.3l1.8-0.2l0.5-5.1l4.3-0.5l1.5,4.9l1.8-0.2L139.4,1L136.8,1.3z M138.2,2.4L138.2,2.4l2.9,8.9l-3.8,0.4L138.2,2.4z
		 M112.7,25l1.7-0.6l-2.6-7.5l2.3-0.9l5.2,6.7l1.8-0.6l-5.4-7c1.6-1.2,1.8-3,1.2-4.8c-0.9-2.6-3.2-3.5-5.8-2.6L107.2,9L112.7,25z
		 M109.5,9.8l1.5-0.5c2.5-0.9,3.6-0.1,4.2,1.7s0.2,3.1-2.3,3.9l-1.5,0.5L109.5,9.8z M103.3,20c-2.8-5.7-5.6-7-8.1-5.7
		c-2.6,1.3-3.2,4.3-0.5,9.9c2.8,5.7,5.6,7,8.1,5.7C105.4,28.7,106.1,25.7,103.3,20z M101.7,20.8c2.5,5.2,2,7,0.5,7.7s-3.3,0-5.8-5.1
		c-2.5-5.2-2-7-0.5-7.7C97.3,15,99.1,15.6,101.7,20.8z M88.2,38.6l1.5-1l-4.4-6.7l3.4-2.3l-0.9-1.3l-3.4,2.3l-3.2-4.8l4.6-3
		l-0.9-1.3l-6.1,4L88.2,38.6z M57.8,43.3l12,12l1.3-1.3L60.7,43.5l0,0l14.1,6.8l1.4-1.4l-12-12l-1.3,1.3l8.8,8.9l0,0l-11.9-5.8
		L57.8,43.3z M60.8,67.3l1.1-1.5L55.5,61l1.4-2l8.1,2.6l1.2-1.5l-8.4-2.7c0.6-1.9-0.2-3.5-1.7-4.7c-2.2-1.7-4.7-1.1-6.3,1.1
		l-2.4,3.3L60.8,67.3z M49.5,56.6l1-1.3c1.6-2.1,2.9-2.2,4.4-1c1.5,1.1,1.8,2.4,0.3,4.5l-1,1.3L49.5,56.6z M50.3,68.5
		c-5.6-3-8.6-2.5-9.9,0c-1.4,2.5-0.2,5.4,5.4,8.4s8.6,2.5,9.9,0S55.8,71.5,50.3,68.5z M49.4,70.1c5.1,2.8,5.7,4.6,4.9,6
		c-0.8,1.4-2.7,1.9-7.7-0.8c-5.1-2.8-5.7-4.6-4.9-6C42.5,67.8,44.3,67.4,49.4,70.1z M33.9,87.5l0.7-1.7c0.8-2,1.8-2.5,3.6-1.8
		c2.1,0.9,2.4,2.2,1.5,4.7l-0.4,1L33.9,87.5z M40.7,90.1l0.7-1.7c0.9-2.2,2.4-2.7,4.4-1.9s2.5,2.3,1.7,4.3l-0.7,1.7L40.7,90.1z
		 M47.6,94.8l1.3-3.2c1.4-3.5,0.6-5.6-2.3-6.8c-2-0.8-3.8-0.5-5.1,1.2l0,0c0.2-1.9-1-3.2-2.5-3.8c-2.3-0.9-4.4-0.2-5.4,2.2l-1.7,4.2
		L47.6,94.8z"/>
	<path id="path3408" class="st0" d="M279,151.4l2.2,0.4l0.3-1.9l-2.2-0.4L279,151.4z M277.3,168.5l0.8-3.1c0.9-3.5-0.5-6-6.8-7.6
		s-8.7,0-9.6,3.5l-0.8,3.1L277.3,168.5z M262.8,162.9l0.2-1c0.7-2.6,2.1-3.8,7.8-2.4c5.6,1.4,6.3,3.2,5.7,5.8l-0.2,1L262.8,162.9z
		 M256.1,176.2l15.8,6.2l2.7-6.8l-1.5-0.6l-2,5.1l-14.3-5.6L256.1,176.2z M263.6,197.9l0.9-1.6l-7-3.8l1.1-2.1l8.4,1.5l0.9-1.7
		l-8.7-1.5c0.3-2-0.7-3.5-2.3-4.4c-2.5-1.3-4.8-0.4-6.1,2l-2,3.6L263.6,197.9z M251,188.9l0.8-1.4c1.3-2.3,2.6-2.6,4.2-1.6
		c1.7,0.9,2.2,2.1,0.9,4.5l-0.8,1.4L251,188.9z M251.8,199.8c-5-3.8-8.1-3.7-9.8-1.4c-1.7,2.3-1,5.3,4.1,9.1c5,3.8,8.1,3.7,9.8,1.4
		C257.6,206.6,256.9,203.6,251.8,199.8 M250.7,201.2c4.6,3.5,4.9,5.4,3.9,6.7c-1,1.3-2.9,1.5-7.5-2s-4.9-5.4-3.9-6.7
		C244.2,198,246.1,197.8,250.7,201.2 M226,215.6l13.9,10.1l1.1-1.1l-7.4-11.4l0,0l11.2,7.6l1.1-1.1l-9.9-14l-1.2,1.2l8,10.8l0,0
		l-11.2-7.6l-1.1,1.1l7.5,11.2l0,0l-10.7-8L226,215.6z M207.7,227.6l9,14.4l6.8-4.3l-0.8-1.3l-5.2,3.3l-3.5-5.5l3.7-2.3l-0.8-1.3
		l-3.7,2.3l-3.1-4.9l5-3.2l-0.8-1.3L207.7,227.6z M193.8,233.9l6.9,15.5l1.7-0.7l-3.3-7.4l4.6-2l3.3,7.4l1.7-0.7l-6.9-15.5l-1.7,0.7
		l3,6.7l-4.6,2l-3-6.7L193.8,233.9z M180.2,238.2l0.5,1.5l3.3-1l4.5,14.7l1.7-0.5l-4.5-14.7l3.3-1l-0.5-1.5L180.2,238.2z
		 M166.5,245.6c-0.4-2.7-1.8-5.3-4.9-5.1c-3,0.2-4.7,2.7-4.2,9.1s2.6,8.5,5.5,8.3c1.4-0.1,2.3-0.7,3-1.7l0.3,1.2l1.2-0.1l-0.6-7.9
		l-4.1,0.3l0.1,1.5l2.3-0.2l0.2,2.4c0.1,1.7-0.7,2.7-2.4,2.9c-2,0.2-3.2-1.6-3.6-6.9c-0.4-5.3,0.4-7.2,2.5-7.4
		c1.8-0.1,2.6,1.5,3,3.7L166.5,245.6z M141.6,240.5l-0.8,16.9l1.8,0.1l0.7-14.7l0,0l4.6,15l2,0.1l0.8-16.9l-1.8-0.1l-0.6,12.5l0,0
		l-3.8-12.7L141.6,240.5z M133.3,239l-2.9,16.7l1.8,0.3l2.9-16.7L133.3,239z M113.4,251.4l1.8,0.5l2.1-7.6l2.3,0.6l0.5,8.5l1.9,0.5
		l-0.5-8.9c2-0.1,3.2-1.4,3.7-3.3c0.8-2.7-0.7-4.7-3.3-5.5l-3.9-1.1L113.4,251.4z M119.4,237.1l1.5,0.4c2.5,0.7,3.1,1.9,2.6,3.8
		c-0.5,1.8-1.6,2.6-4.1,1.9l-1.5-0.4L119.4,237.1z M108.9,240.6c2.5-5.8,1.6-8.8-1-9.9s-5.3,0.3-7.8,6.2c-2.5,5.8-1.6,8.8,1,9.9
		C103.7,247.9,106.4,246.4,108.9,240.6 M107.2,239.9c-2.2,5.3-4,6.1-5.5,5.4c-1.5-0.6-2.2-2.5,0.1-7.8c2.2-5.3,4-6.1,5.5-5.4
		C108.8,232.8,109.4,234.6,107.2,239.9 M92.7,222.8l-8.5,14.7l6.3,3.7l0.8-1.3l-4.8-2.8l7.7-13.3L92.7,222.8z M81.8,216.5l1.5,1.2
		c1.5,1.1,1.7,2.5,0.4,4.2c-1.3,1.7-2.7,1.8-4.2,0.7l-1.5-1.2L81.8,216.5z M71,227.7l1.5,1.1l4.6-6.1l1.7,1.3c2.2,1.6,4.7,1.3,6.4-1
		c1.7-2.2,1.4-4.8-0.8-6.4l-3.2-2.4L71,227.7z M70.5,203.8l-3,8.2l-8.9,3.9l1.4,1.4l6.9-3.2l-2.7,7.3l1.4,1.4l3.4-9.3l7.9-3.4
		l-1.4-1.4l-5.9,2.7l2.3-6.1L70.5,203.8z M62.6,193.6L49.2,204l4.9,6.4l1.2-0.9l-3.8-4.9l5.2-4l2.7,3.5l1.2-0.9l-2.7-3.5l4.6-3.5
		l3.6,4.7l1.2-0.9L62.6,193.6z"/>
	<path id="path3410" class="st0" d="M279,151.4l2.2,0.4l0.3-1.9l-2.2-0.4L279,151.4z M277.3,168.5l0.8-3.1c0.9-3.5-0.5-6-6.8-7.6
		s-8.7,0-9.6,3.5l-0.8,3.1L277.3,168.5z M262.8,162.9l0.2-1c0.7-2.6,2.1-3.8,7.8-2.4c5.6,1.4,6.3,3.2,5.7,5.8l-0.2,1L262.8,162.9z
		 M256.1,176.2l15.8,6.2l2.7-6.8l-1.5-0.6l-2,5.1l-14.3-5.6L256.1,176.2z M263.6,197.9l0.9-1.6l-7-3.8l1.1-2.1l8.4,1.5l0.9-1.7
		l-8.7-1.5c0.3-2-0.7-3.5-2.3-4.4c-2.5-1.3-4.8-0.4-6.1,2l-2,3.6L263.6,197.9z M251,188.9l0.8-1.4c1.3-2.3,2.6-2.6,4.2-1.6
		c1.7,0.9,2.2,2.1,0.9,4.5l-0.8,1.4L251,188.9z M251.8,199.8c-5-3.8-8.1-3.7-9.8-1.4c-1.7,2.3-1,5.3,4.1,9.1c5,3.8,8.1,3.7,9.8,1.4
		C257.6,206.6,256.9,203.6,251.8,199.8z M250.7,201.2c4.6,3.5,4.9,5.4,3.9,6.7c-1,1.3-2.9,1.5-7.5-2s-4.9-5.4-3.9-6.7
		C244.2,198,246.1,197.8,250.7,201.2z M226,215.6l13.9,10.1l1.1-1.1l-7.4-11.4l0,0l11.2,7.6l1.1-1.1l-9.9-14l-1.2,1.2l8,10.8l0,0
		l-11.2-7.6l-1.1,1.1l7.5,11.2l0,0l-10.7-8L226,215.6z M207.7,227.6l9,14.4l6.8-4.3l-0.8-1.3l-5.2,3.3l-3.5-5.5l3.7-2.3l-0.8-1.3
		l-3.7,2.3l-3.1-4.9l5-3.2l-0.8-1.3L207.7,227.6z M193.8,233.9l6.9,15.5l1.7-0.7l-3.3-7.4l4.6-2l3.3,7.4l1.7-0.7l-6.9-15.5l-1.7,0.7
		l3,6.7l-4.6,2l-3-6.7L193.8,233.9z M180.2,238.2l0.5,1.5l3.3-1l4.5,14.7l1.7-0.5l-4.5-14.7l3.3-1l-0.5-1.5L180.2,238.2z
		 M166.5,245.6c-0.4-2.7-1.8-5.3-4.9-5.1c-3,0.2-4.7,2.7-4.2,9.1s2.6,8.5,5.5,8.3c1.4-0.1,2.3-0.7,3-1.7l0.3,1.2l1.2-0.1l-0.6-7.9
		l-4.1,0.3l0.1,1.5l2.3-0.2l0.2,2.4c0.1,1.7-0.7,2.7-2.4,2.9c-2,0.2-3.2-1.6-3.6-6.9c-0.4-5.3,0.4-7.2,2.5-7.4
		c1.8-0.1,2.6,1.5,3,3.7L166.5,245.6z M141.6,240.5l-0.8,16.9l1.8,0.1l0.7-14.7l0,0l4.6,15l2,0.1l0.8-16.9l-1.8-0.1l-0.6,12.5l0,0
		l-3.8-12.7L141.6,240.5z M133.3,239l-2.9,16.7l1.8,0.3l2.9-16.7L133.3,239z M113.4,251.4l1.8,0.5l2.1-7.6l2.3,0.6l0.5,8.5l1.9,0.5
		l-0.5-8.9c2-0.1,3.2-1.4,3.7-3.3c0.8-2.7-0.7-4.7-3.3-5.5l-3.9-1.1L113.4,251.4z M119.4,237.1l1.5,0.4c2.5,0.7,3.1,1.9,2.6,3.8
		c-0.5,1.8-1.6,2.6-4.1,1.9l-1.5-0.4L119.4,237.1z M108.9,240.6c2.5-5.8,1.6-8.8-1-9.9s-5.3,0.3-7.8,6.2c-2.5,5.8-1.6,8.8,1,9.9
		C103.7,247.9,106.4,246.4,108.9,240.6z M107.2,239.9c-2.2,5.3-4,6.1-5.5,5.4c-1.5-0.6-2.2-2.5,0.1-7.8c2.2-5.3,4-6.1,5.5-5.4
		C108.8,232.8,109.4,234.6,107.2,239.9z M92.7,222.8l-8.5,14.7l6.3,3.7l0.8-1.3l-4.8-2.8l7.7-13.3L92.7,222.8z M81.8,216.5l1.5,1.2
		c1.5,1.1,1.7,2.5,0.4,4.2c-1.3,1.7-2.7,1.8-4.2,0.7l-1.5-1.2L81.8,216.5z M71,227.7l1.5,1.1l4.6-6.1l1.7,1.3c2.2,1.6,4.7,1.3,6.4-1
		c1.7-2.2,1.4-4.8-0.8-6.4l-3.2-2.4L71,227.7z M70.5,203.8l-3,8.2l-8.9,3.9l1.4,1.4l6.9-3.2l-2.7,7.3l1.4,1.4l3.4-9.3l7.9-3.4
		l-1.4-1.4l-5.9,2.7l2.3-6.1L70.5,203.8z M62.6,193.6L49.2,204l4.9,6.4l1.2-0.9l-3.8-4.9l5.2-4l2.7,3.5l1.2-0.9l-2.7-3.5l4.6-3.5
		l3.6,4.7l1.2-0.9L62.6,193.6z"/>
	<g id="text3412" transform="matrix(0.9837 -0.1797 0.1797 0.9837 40.9915 243.5206)">
		<path id="path3421" class="st0" d="M15.7-103.3c-0.1,0.2-0.2,0.3-0.2,0.5c0.1,0.1,0.2,0.3,0.2,0.4c-0.1,0.4-0.4,0.7-0.9,0.9
			c-0.4,0.2-0.7,0.5-0.9,1c-0.9,0.2-1.9,0.3-2.9,0.5c-0.9,0.2-1.8,0.4-2.9,0.7C7.5-99,7.1-98.9,7-98.8c-0.1,0.1-0.3,0.5-0.5,1.2
			c-0.1,0.2-0.2,0.5-0.5,0.8c-0.1,0.2-0.2,0.5-0.2,0.8c-0.1,0.2-0.1,0.3-0.1,0.5c0.1,0.1,0.1,0.2,0.1,0.2c-0.1,0-0.2,0-0.2,0.2
			c0,0.1-0.1,0.2-0.1,0.2c0,0.1,0,0.2,0,0.3c0,0.1,0.1,0.1,0.1,0.2c0,0.2-0.2,0.3-0.3,0.4c-0.1,0-0.1,0.2,0,0.4c0.2,0,0.3,0,0.4-0.2
			c0-0.1,0.1-0.2,0.1-0.3c0.1-0.2,0.1-0.3,0.1-0.4c0.1-0.1,0.3-0.2,0.5-0.2c-0.1,0.2-0.2,0.4-0.3,0.5c0,0.1,0,0.2,0.1,0.4
			C7.1-93.9,8-94,8.9-94s1.8,0.2,2.6,0.4c0.5,0,1,0,1.4,0.1c0.4,0,0.8,0.1,0.9,0.2c0,0.1,0.2,0.2,0.3,0.5c0.1,0.2,0.2,0.4,0.1,0.5
			c0,0.2-0.2,0.4-0.5,0.5c-0.3,0.1-0.6,0.3-1,0.5c-0.6,0.2-1.2,0.3-1.9,0.4c-0.7,0.1-1.3,0.2-1.9,0.2c-0.2,0.2-0.5,0.4-0.8,0.4H6.9
			c-0.2,0.2-0.4,0.4-0.7,0.4H5.5c-0.2,0-0.5,0.1-0.8,0.2c-0.2,0.2-0.4,0.2-0.5,0.3c-0.3,0.2-0.4,0.5-0.3,0.8C4-88.2,4.1-88,4-87.7
			c-0.2,0.2-0.4,0.3-0.5,0.5c-0.1,0.1-0.2,0.3-0.4,0.5v0.7c-0.1,0.5-0.2,1-0.4,1.4c-0.1,0.4-0.3,0.8-0.5,1.3
			c-0.2-0.7-0.1-1.3,0.2-1.9c0.4-0.7,0.6-1.2,0.5-1.8c-0.1-0.2-0.2-0.5-0.1-0.8c0.1-0.3,0.1-0.6,0.1-0.8c-0.2,0.4-0.4,0.9-0.5,1.6
			c-0.1,0.6-0.3,1.2-0.5,1.9c0,0.2,0,0.3-0.1,0.5c-0.1,0.1-0.1,0.2-0.2,0.4c0,0.7,0,1.2-0.1,1.4c-0.1,0.5-0.3,0.9-0.5,1.3
			c-0.2,0.3-0.3,0.7-0.3,1.3c-0.1,0.3-0.1,0.6-0.1,0.9c0.1,0.2,0.1,0.6,0,1c-0.1,0.1-0.2,0.2-0.2,0.3c-0.1,0.1-0.1,0.2-0.2,0.2
			c0,0.2,0,0.2-0.1,0.3c-0.1,0-0.1,0.2-0.2,0.4c-0.1,0.3-0.1,0.6-0.1,0.8c0,0.2-0.1,0.4-0.4,0.5c-0.2,0-0.4,0.1-0.5,0.1
			c-0.2,0-0.3,0-0.4,0.1c-0.1,0-0.2-0.1-0.3-0.2c-0.2-0.1-0.4-0.5-0.7-1.3c-0.3-0.8-0.4-1.3-0.5-1.7c-0.1-0.5-0.1-1.2,0-1.9
			c0.2-0.8,0.3-1.6,0.4-2.4v-1.1c0.2-0.6,0.3-1.2,0.4-1.8c0.2-0.6,0.3-1.2,0.3-1.7C-2-88-2.2-88-2.4-87.9c-0.2,0-0.3,0.1-0.4,0.1
			C-3.1-88-3.3-88-3.7-87.9c-0.4,0.1-0.6,0.4-0.8,0.7c-0.2,0.1-0.4,0.1-0.4-0.2c0.1-0.2-0.1-0.4-0.3-0.4c-0.3,0.2-0.6,0.3-0.9,0.5
			c-0.3,0.2-0.6,0.3-0.8,0.5c-0.2,0-0.6,0-0.9-0.1c-0.4,0-0.6,0-0.8,0.1c-0.1,0.1-0.2,0.4-0.3,0.9S-9-85-9.1-84.7
			c0,0.1-0.1,0.2-0.2,0.4c-0.1,0.1-0.1,0.3-0.1,0.6c-0.2,0.3-0.4,0.6-0.5,0.8c0,0.2-0.2,0.4-0.4,0.7c0-0.8,0-1.5-0.1-2.2
			c0-0.8-0.1-1.5-0.1-2.3c-0.2-0.1-0.4-0.1-0.4,0.1c-0.1,0.1-0.2,0.2-0.4,0.2c-0.2-0.2-0.4-0.2-0.4-0.2c-1-0.1-2.1-0.2-3.2-0.2
			s-2.2-0.2-3.1-0.5c-0.4-0.2-0.9-0.3-1.5-0.6c-0.6-0.2-1-0.6-1.2-1c-0.3-0.3-0.4-0.6-0.4-0.8c1.1,0,2.2-0.1,3.1-0.3
			c0.9-0.3,2-0.6,3.2-0.8c0.4-0.2,0.8-0.3,1.2-0.4c0.3-0.1,0.8-0.2,1.3-0.2c0.4-0.1,0.8-0.1,1.4-0.1c0.6-0.1,0.9-0.1,1-0.2
			c0.2-0.1,0.3-0.3,0.2-0.6s-0.1-0.6-0.1-0.8c0.1-0.3,0.2-0.7,0.3-1.3c0.1-0.6,0.1-1.2,0.1-1.7c-0.4-0.2-0.7-0.3-1.1-0.3
			c-0.3,0-0.6-0.1-1.1-0.2c-0.2-0.1-0.6-0.2-1-0.3c-0.4-0.1-0.8-0.3-1.1-0.5h-0.5c-0.1-0.2-0.1-0.2-0.1-0.3c0-0.1,0-0.1-0.1-0.1
			c-0.2,0-0.4,0-0.6,0.1c-0.1,0-0.3,0-0.5,0c-0.3-0.1-0.7-0.2-1-0.4c-0.4-0.2-0.7-0.4-0.9-0.6c-0.3-0.2-0.5-0.2-0.5-0.3
			c0-0.1-0.1-0.1-0.1-0.2c-0.3,0-0.5,0-0.7,0c-0.2,0-0.4-0.1-0.7-0.4v-0.4c-0.1-0.1-0.2-0.1-0.5-0.2c-0.2-0.1-0.4-0.2-0.6-0.4
			c-0.1-0.2-0.3-0.4-0.4-0.6c-0.1-0.2-0.4-0.4-0.6-0.5c-0.2-0.2-0.4-0.4-0.6-0.8c-0.2-0.3-0.4-0.7-0.6-1c1.1,0.1,2.2,0.2,3.2,0.1
			c1-0.1,1.9-0.2,2.9-0.4c1.4-0.2,2.9-0.5,4.3-0.8c1.5-0.4,3-0.7,4.6-0.9c0-0.3-0.1-0.6-0.1-0.8c-0.1-0.2-0.1-0.4,0.1-0.8
			c0-0.1,0.1-0.2,0.2-0.3c0.2-0.1,0.3-0.3,0.4-0.5c0.1,0,0.2-0.1,0.2-0.2c0-0.1,0.1-0.3,0.1-0.4c0-0.1,0.1-0.3,0.1-0.5
			c0.2-0.2,0.2-0.5,0.2-0.8c0-0.1-0.1-0.3-0.1-0.4c-0.1-0.1,0-0.2,0.1-0.4c0-0.3,0.1-0.7,0.2-0.9c0.2-0.3,0.4-0.6,0.5-1
			c0-0.4,0-0.8,0-1.1c0-0.4,0-0.7,0.1-1c0.1-0.2,0.3-0.4,0.5-0.5s0.4-0.3,0.4-0.5c0.8-0.2,1.6-0.2,2.2,0c0.7,0.1,1.4,0.3,2.1,0.6
			c-0.1,0.2-0.1,0.4-0.1,0.6c0.1,0.1,0.1,0.3,0.1,0.4c0,0.2-0.1,0.4-0.2,0.5c-0.1,0.1-0.2,0.2-0.1,0.3c-0.1,0.4-0.2,0.8-0.3,1.2
			c-0.1,0.3-0.2,0.7-0.4,1c-0.3,0.4-0.4,0.7-0.4,0.9c-0.1,0.2-0.3,0.5-0.3,0.8c0,0.2-0.1,0.4-0.1,0.7c-0.2,0.2-0.5,0.6-0.7,1
			s-0.3,0.8-0.2,1.2c0.7,0.1,1.5,0.1,2.4,0c1-0.1,1.8-0.2,2.5-0.2c0.1,0,0.3,0,0.5,0c0.2-0.1,0.4-0.1,0.5-0.2c0.2,0,0.4-0.1,0.3-0.3
			c0-0.2,0-0.5,0.1-0.7c0.1-1.2,0.5-2.6,1.3-4.1c0.3-0.8,0.6-1.6,0.8-2.3c0.2-0.7,0.5-1.4,0.6-2c0-0.2,0-0.5-0.1-0.7
			c-0.1-0.2-0.1-0.4-0.1-0.8c0.3,0.1,0.7,0.2,1,0.2c0.4-0.1,0.7,0,1,0.2c0,0.1,0,0.1,0.1,0.2c0.1,0.2,0.3,0.2,0.4,0.3
			c0.6,0.2,1.1,0.5,1.6,0.8c0.5,0.3,0.6,0.9,0.4,1.9c0,0.1,0,0.2,0,0.4c0,0.2,0,0.3-0.1,0.6c-0.1,0.2-0.3,0.4-0.4,0.5
			c0,0.2-0.1,0.3-0.2,0.5c0,0.1,0,0.2,0.1,0.3c0.1,0.1,0.1,0.2,0.1,0.3l-0.1,0.2c-0.1,0.1-0.1,0.2-0.1,0.3c-0.1,0.6-0.2,1-0.2,1.4
			c0,0.4-0.1,0.8-0.1,1.1c-0.2,0.1-0.3,0.3-0.5,0.5c-0.1,0.2-0.2,0.5-0.3,0.8c0.4,0.2,0.8,0.3,1.2,0.3c0.4-0.1,0.8-0.1,1.1-0.1
			c0.2,0.1,0.5,0.2,0.8,0.2s0.5,0,0.6,0c0.2,0.1,0.4,0.2,0.8,0.4c0.4,0.1,0.7,0.2,1,0.3c0.5,0.1,0.8,0.2,1,0.3
			c0.2,0.1,0.4,0.3,0.5,0.8c0.1,0.1,0.2,0.1,0.3,0.2c0.1,0,0.2,0.1,0.2,0.2c-0.1,0.1-0.4,0.2-0.6,0.2c-0.2,0-0.3,0.1-0.3,0.4
			c0.2,0.2,0.3,0.4,0.5,0.5C15.3-103.4,15.5-103.4,15.7-103.3z M-0.3-96.3c0.1-0.3,0.2-0.6,0.4-1c0.1-0.3,0.2-0.7,0.2-1
			c-0.4,0.1-0.7,0.2-1.1,0.2c-0.3,0-0.7,0.1-1.1,0.3c-0.2,0-0.5,0.1-0.8,0.4c-0.2,0-0.4,0.1-0.6,0.2c-0.1,0.1-0.4,0.2-0.7,0.3
			c-0.3,0-0.6,0.1-0.8,0.2c-0.3,0.1-0.6,0.2-0.8,0.2c-0.2,0-0.5,0.1-0.8,0.4c-0.2,0.6-0.4,1.1-0.4,1.7c0,0.5-0.1,1.1-0.1,1.7
			c0.7,0,1.3,0,1.9-0.2c0.6-0.1,1.3-0.2,1.9-0.2c0.3,0,0.7,0,1,0c0.3,0,0.7,0,1.1-0.1c0.2-0.1,0.4-0.4,0.6-1.1s0.3-1.1,0.3-1.3
			c0-0.1,0-0.3-0.1-0.4C-0.3-96.1-0.3-96.2-0.3-96.3z M3.4-87.7c0-0.1,0-0.1,0.1-0.2c0.1-0.1,0.1-0.2-0.1-0.2c0,0.1,0,0.2-0.1,0.3
			C3.2-87.8,3.2-87.7,3.4-87.7z"/>
		<path id="path3423" class="st0" d="M57.4-116C57.4-115.9,57.4-115.9,57.4-116c-0.1-0.1-0.1-0.2,0-0.2V-116z M54.3-110.6
			c0.1,0.1,0.1,0.2-0.1,0.2c-0.1,0-0.2,0-0.2,0.1c-0.1,0-0.1-0.1,0-0.1C54.2-110.4,54.3-110.5,54.3-110.6z M24.4-85.9
			c0,0.2-0.1,0.5-0.1,1C24.2-85.3,24.2-85.6,24.4-85.9z M24.3-84.8c0,0.1,0,0.1,0.1,0.2c0,0.1-0.1,0.1-0.2,0.1
			C24.2-84.6,24.2-84.7,24.3-84.8z M58.6-77.6c0,0.1,0,0.2-0.1,0.3s-0.2,0.2-0.2,0.2c-0.1-0.1-0.1-0.2,0-0.2
			C58.5-77.5,58.6-77.6,58.6-77.6z M58.2-77.1c-0.1,0.1-0.2,0.2-0.2,0.3c0,0.1-0.1,0-0.2-0.1c0,0,0.1,0,0.2-0.1
			C58-77,58.1-77.1,58.2-77.1z M57.6-76.7c0.1,0.1,0.1,0.1,0,0.2c0,0.1-0.2,0-0.3-0.1c0-0.1,0.1-0.1,0.2,0
			C57.6-76.6,57.6-76.7,57.6-76.7z M23.7-82.3c0.1,0.1,0.1,0.2,0.1,0.3c0,0.1,0,0.2-0.1,0.2C23.6-81.8,23.6-82,23.7-82.3z M54.1-74
			c0,0.1-0.1,0.2-0.2,0.3c-0.1,0.1-0.2,0.2-0.2,0.2C53.7-73.8,53.8-73.9,54.1-74z M49.2-71.1C49.1-71,49-71,48.9-70.9
			c-0.1,0.1-0.2,0.1-0.4,0.1c0.1-0.1,0.2-0.2,0.3-0.3S49-71.1,49.2-71.1z M43.2-69c-0.1-0.1-0.2-0.1-0.2,0c0,0,0,0-0.1,0
			C43-69,43.1-69,43.2-69z M39.6-68.8c0.1,0.1,0.1,0.2,0,0.3c-0.1,0.2-0.2,0.2-0.2,0.2c0-0.2,0-0.3,0.1-0.4
			C39.6-68.8,39.6-68.8,39.6-68.8z M40.6-68.3C40.6-68.2,40.6-68.2,40.6-68.3c0.1,0.1,0.1,0.1,0.1,0.2c0,0.1-0.1,0.1-0.4,0.2
			c-0.2,0-0.3,0-0.4,0.1c0,0.1-0.1,0.2-0.2,0.2c-0.2,0.1-0.4,0.1-0.7,0.1c-0.2,0-0.3,0.1-0.3,0.3c0-0.4,0.2-0.7,0.6-0.7
			C39.9-67.8,40.3-68,40.6-68.3z M41.7-67.9c-0.1,0.2-0.4,0.4-0.9,0.5c0.1-0.2,0.2-0.4,0.4-0.5C41.4-67.9,41.6-67.9,41.7-67.9z
			 M56.1-120.8c0.2,0,0.2,0.2,0.2,0.4c-0.1,0.2,0,0.4,0.1,0.6c0.1,0,0.1-0.1,0.1-0.2c0-0.2,0.1-0.3,0.2-0.2c0.1,0.2,0.2,0.4,0.4,0.5
			c0.2,0.2,0.2,0.4,0,0.8c0.1-0.2,0.2-0.3,0.2-0.2c0.1,0.1,0.1,0.2,0.1,0.3c0,0.1,0,0.3-0.1,0.4c0,0.2,0,0.2,0.1,0.3
			c-0.1,0.1-0.1,0.2,0,0.3c0.1,0.1,0.2,0.2,0.2,0.3c0,0.2,0,0.5-0.1,0.7c0,0.2,0,0.4,0,0.5c0,0.1-0.1,0.2-0.2,0.4
			c0,0.1-0.1,0.2-0.2,0.3c0,0.1,0,0.2-0.2,0.3c-0.1,0.1-0.1,0.2,0,0.2c-0.1,0.2-0.2,0.3-0.4,0.4c-0.1,0.1-0.3,0.2-0.4,0.3
			c0,0.1-0.1,0.2-0.1,0.4c0,0.1,0,0.2-0.1,0.3c-0.1,0.2-0.2,0.2-0.3,0.3c-0.1,0-0.2,0.1-0.2,0.2c0.2-0.1,0.4-0.2,0.4-0.3
			c0-0.1,0.2-0.3,0.3-0.4c0,0.4-0.2,0.8-0.4,1.3c-0.2,0.1-0.3,0.3-0.4,0.6c-0.2,0.2-0.3,0.4-0.4,0.6l-0.5,0.7c-0.1,0-0.1,0-0.1,0.1
			c0,0.1,0,0.1-0.1,0.1c-0.1,0.2-0.2,0.2-0.3,0.3c-0.1,0-0.2,0.1-0.2,0.2c-0.1-0.1-0.2,0-0.5,0.3c-0.2,0.3-0.4,0.6-0.4,0.8
			c-0.2,0-0.4,0-0.5,0.1c0,0-0.1,0.1-0.2,0.2c-0.2,0.1-0.4,0.2-0.6,0.4c-0.1,0.2-0.2,0.3-0.4,0.5c-0.4,0.2-0.8,0.6-1.1,1
			c-0.3,0.3-0.7,0.7-1.1,1c1.2,0.2,2.3,0.5,3.5,0.6c1.2,0.1,2.4,0.3,3.6,0.6c0.5,0.1,1.1,0.2,1.7,0.4c0.6,0.2,1.1,0.5,1.5,0.8h0.2
			c0.1,0,0.1,0.1,0.1,0.1c0,0,0.1,0,0.4,0c0.1,0.2,0.2,0.3,0.2,0.4c0.3,0.2,0.7,0.3,1,0.4c0.3,0.1,0.6,0.2,0.8,0.5
			c0.1,0.2,0.2,0.3,0.5,0.4c0.2,0.1,0.3,0.2,0.4,0.4c0.2,0,0.4,0.1,0.5,0.3c0.2,0.2,0.3,0.4,0.6,0.5c0.2,0.1,0.3,0.2,0.5,0.4
			c0.2,0.1,0.4,0.2,0.6,0.3c0.1,0.1,0.2,0.2,0.2,0.4c0.1,0.2,0.2,0.3,0.4,0.5c0.1,0.1,0.2,0.4,0.4,0.7c0.2,0.2,0.3,0.5,0.4,0.8
			c0.1,0.2,0.2,0.3,0.2,0.5c0,0.2,0.1,0.3,0.2,0.4c0.1,0.2,0.2,0.3,0.2,0.4c0,0.1,0.1,0.3,0.2,0.5c0.2,0.8,0.4,1.6,0.6,2.5
			c0.2,0.9,0.2,1.8,0,2.6c0,0.3-0.1,0.6-0.2,0.8s-0.1,0.5-0.3,0.7c0,0.2-0.1,0.6-0.2,1.1c-0.2,0.5-0.3,0.8-0.4,1.1
			c-0.1,0.2-0.2,0.5-0.2,0.8c-0.1,0.2-0.1,0.4-0.2,0.5c-0.2,0.1-0.4,0.2-0.4,0.2c0,0.1-0.1,0.2-0.1,0.2c0,0.1-0.1,0.1-0.2,0.2
			c0,0.2-0.2,0.3-0.4,0.4c-0.2,0.2-0.3,0.3-0.2,0.4c-0.1,0.1-0.2,0.1-0.3,0.1s-0.2,0.1-0.3,0.2c0,0.3-0.1,0.6-0.3,0.7
			c-0.2,0-0.3,0.2-0.5,0.4c-0.2,0.2-0.4,0.5-0.6,0.7c-0.1,0.2-0.2,0.3-0.4,0.5c-0.2,0.1-0.4,0.2-0.6,0.4c-0.2,0.2-0.3,0.3-0.4,0.4
			c-0.1,0.2-0.2,0.3-0.3,0.5c-0.1,0-0.2,0.1-0.3,0.3c-0.2,0.1-0.5,0.3-0.8,0.8c-0.1,0.1-0.2,0.2-0.2,0.2c0,0-0.1,0-0.2,0
			c-0.1,0.1-0.2,0.2-0.2,0.5c0,0.1-0.2,0.3-0.5,0.4c-0.1,0-0.2,0.1-0.3,0.1c0,0-0.1,0.1-0.2,0.2c-0.2-0.2-0.5-0.1-0.8,0.2
			c-0.3,0.3-0.6,0.6-0.9,0.9c-0.1,0.1-0.2,0.2-0.4,0.2c-0.1,0-0.3,0.1-0.4,0.2c-0.6,0.7-1.1,1.2-1.7,1.7c-0.6,0.4-1.3,0.9-2,1.3
			c-1.4,1-3.1,1.9-4.9,2.7c-0.7,0.3-1.3,0.7-2,1c-0.6,0.4-1.3,0.7-2.1,0.8c0.2-0.2,0.5-0.4,0.8-0.5c0.3,0,0.6-0.2,0.8-0.4
			c0.2,0.1,0.4,0,0.5-0.2c0.1-0.2,0.3-0.3,0.6-0.2c0.2-0.4,0.5-0.7,0.8-0.8c0.3-0.1,0.7-0.3,1-0.6c-0.4,0.1-0.8,0.2-1,0.4
			c-0.3,0.1-0.6,0.3-1,0.5c-0.1,0-0.3,0.1-0.6,0.2c-0.2,0.2-0.4,0.3-0.5,0.2c-0.1,0-0.2,0-0.3,0c0,0-0.1,0-0.2,0.1
			c-0.2,0.1-0.4,0.2-0.5,0.3c-0.1,0.1-0.2,0.2-0.3,0.3c-0.2,0.1-0.5,0.2-0.8,0.2c-0.2,0.1-0.4,0.1-0.5,0.2c-0.3,0.1-0.7,0.2-1,0.3
			c-0.3,0.2-0.7,0.2-1,0.2c-0.2,0-0.2-0.1-0.1-0.2c0.2,0,0.2,0,0.2-0.1c-0.3,0-0.6,0.2-0.9,0.4c-0.3,0.2-0.5,0.4-0.8,0.5
			c-0.3-0.1-0.5-0.2-0.7-0.1c0,0-0.1,0.1-0.4,0.2c-0.1,0-0.2,0-0.3-0.1c-0.1,0-0.2,0-0.2,0.2c-0.1,0-0.1,0-0.1-0.1
			c0.1-0.1,0.1-0.1,0.1-0.2c-0.2,0.1-0.4,0.1-0.5,0.1c-0.1,0.1-0.2,0.1-0.3,0.2c-0.1,0-0.1,0.1-0.2,0.1c0,0.1-0.1,0.2-0.2,0.2
			c-0.1,0-0.2,0-0.4,0c-0.1,0-0.3,0-0.4,0.1c-0.2,0.1-0.5,0.2-0.8,0.4c-0.2,0.2-0.6,0.4-1,0.5c-0.1,0-0.2,0-0.4-0.1
			c-0.1,0-0.2,0-0.4,0c-0.3,0.1-0.5,0.1-0.8,0.2c-0.3,0.1-0.5,0.1-0.8,0.1c-0.1,0.1-0.2,0.1-0.3,0c0,0-0.1,0-0.2,0.1
			c-0.2,0-0.5,0.2-0.7,0.3c-0.2,0.2-0.3,0.2-0.6,0.1c-0.1-0.2-0.1-0.4,0-0.4c0.1,0,0.2,0,0.4,0c0.1-0.1,0.3-0.1,0.5-0.2
			c0.3,0,0.5,0,0.8,0c0.2-0.1,0.5-0.2,0.7-0.2c0.2-0.1,0.5-0.1,0.8-0.2c0.1,0,0.2,0,0.2-0.1c0.1-0.1,0.1-0.1,0.3-0.1
			c0.2,0,0.3,0,0.4,0c0.1,0.1,0.2,0.1,0.4,0c0.1,0,0.2-0.1,0.3-0.2c0.1-0.1,0.2-0.2,0.2-0.2c0.1,0,0.3-0.1,0.6-0.2
			c0.1,0,0.2-0.1,0.4-0.2c0.2-0.1,0.4-0.2,0.5-0.2c0.2-0.1,0.3-0.3,0.3-0.7c-0.2,0-0.4,0-0.7,0c-0.2,0.1-0.4,0.2-0.7,0.3
			c-0.5,0.2-0.9,0.3-1.2,0.3c-0.1,0.1-0.2,0.1-0.3,0c-0.1,0-0.2,0-0.3,0.1c-0.5,0.1-0.8,0.2-1,0.4c-0.2,0.1-0.3,0.2-0.5,0.2
			c-0.2,0-0.4,0-0.5,0.1c-0.3,0-0.5,0.1-0.8,0.2c-0.2,0.1-0.3,0.2-0.4,0.2c0,0-0.1,0-0.2-0.1c-0.1,0-0.1,0-0.2,0
			c-0.2,0-0.3,0.1-0.5,0.2c-0.1,0.1-0.2,0.1-0.3,0c0-0.1-0.1-0.1-0.2,0c-0.1,0-0.2,0.1-0.3,0.2l-0.1,0.1c-0.1,0-0.1,0-0.1-0.1
			c0,0,0-0.1-0.1-0.1c-0.1-0.1-0.2-0.1-0.2,0c-0.1,0.1-0.1,0.2-0.2,0.2c-0.2,0-0.4,0-0.5,0c-0.1,0-0.2,0.1-0.3,0.3
			c-0.1,0-0.1-0.1-0.1-0.2c0-0.1,0-0.2-0.2-0.2c-0.2-0.1-0.4-0.1-0.6,0.1c-0.2,0.2-0.3,0.1-0.5-0.2c-0.1,0.2-0.2,0.3-0.4,0.3
			c-0.1,0-0.2,0.1-0.3,0.2c0,0.2,0.1,0.3,0.3,0.3c0.2,0,0.4-0.1,0.5-0.2c0.3,0.1,0.4,0.2,0.4,0.3c0.2,0,0.5,0,0.8,0
			c0.1,0,0.1,0,0.1,0.1c0,0.1,0,0.2,0,0.2c0.4-0.1,0.8-0.2,1-0.4c0.4-0.1,0.8-0.1,1.2-0.1c0,0.2-0.2,0.4-0.3,0.4s-0.3,0-0.5,0.1
			c-0.1,0.1-0.2,0.2-0.3,0.2c0,0.1-0.1,0.1-0.2,0.2c-0.1,0-0.2,0-0.3,0c-0.1,0-0.2,0-0.2-0.1c-0.1,0.1-0.2,0.2-0.3,0.2
			s-0.2,0-0.4,0.1c0-0.1,0-0.2,0-0.2c0,0,0-0.2,0-0.3c-0.2-0.1-0.3-0.1-0.4,0.1s-0.1,0.3-0.3,0.4c-0.3,0.1-0.7,0-1.1-0.2
			c-0.4-0.1-0.7-0.2-1-0.4c-0.1,0.1-0.3,0.1-0.6,0c-0.3,0-0.5-0.2-0.6-0.4c-0.1,0-0.2,0-0.3,0.1c0,0.1-0.2,0.1-0.4,0v-0.1l-0.1-0.1
			c-0.1,0-0.2,0-0.4-0.1c-0.1-0.1-0.3-0.1-0.5-0.2c-0.1,0-0.2,0-0.2-0.1c0-0.1-0.2-0.2-0.3-0.2c-0.1,0.1-0.1,0-0.1-0.1
			c0,0-0.1-0.1-0.2-0.2c0-0.1-0.1-0.2-0.2-0.3c0-0.1-0.1-0.2-0.2-0.3c-0.1,0-0.1-0.1,0-0.2c-0.2,0-0.4-0.1-0.5-0.2
			c0,0-0.2-0.1-0.4-0.2c0-0.2,0-0.4,0.1-0.6c0.1-0.2,0.1-0.3-0.1-0.4c0.1-0.2,0.3-0.4,0.6-0.7c0.2-0.2,0.3-0.4,0.2-0.7
			c0.4-0.2,0.7-0.7,0.9-1.2c0.2-0.5,0.5-1,0.8-1.4c0.1,0.4,0.1,0.8-0.1,1.3c-0.2,0.5-0.1,0.9,0.1,1.3c0.1-0.1,0.2-0.2,0.2-0.2
			s0-0.1,0.1-0.2c0.1,0.2,0.1,0.3,0.1,0.5c0.1,0.1,0.2,0.2,0.3,0.4c0.1,0,0.2,0.1,0.3,0.2c0.1,0.1,0.2,0.2,0.2,0.3
			c0,0.2,0.1,0.2,0.2,0.3c0.1,0.1,0.2,0.1,0.4,0.1c0,0,0.1,0,0.1-0.1c0.1,0,0.1,0,0.1-0.1c0,0,0,0,0.1,0c0.2,0.2,0.3,0.3,0.2,0.3
			c0.3,0,0.6,0,0.8-0.1c0.2-0.1,0.5-0.1,0.8,0c-0.2,0-0.3,0.1-0.5,0.2c-0.2,0-0.2,0.2-0.2,0.4c0.1,0.2,0.2,0.3,0.5,0.2
			c0.3,0,0.5-0.2,0.6-0.4c0.1,0,0.1,0.1,0.1,0.2c0,0.2,0,0.2,0.2,0.1c0.1,0.1,0.2,0.1,0.2-0.1c0-0.1,0-0.2,0.1-0.2
			c0.5-0.1,1.1-0.2,1.5-0.5c0.4-0.1,0.9-0.2,1.5-0.2c0.1,0,0.2,0,0.2,0.1c0,0.1,0,0.2,0,0.2c0.2,0,0.5,0,0.7-0.1
			c0.2,0,0.4-0.1,0.6-0.2c0,0,0-0.1-0.1-0.1c0,0,0-0.1,0.1-0.2c0.6-0.2,1.2-0.3,1.7-0.5c0.5-0.2,1-0.3,1.5-0.6
			c0.1,0,0.2,0.1,0.2,0.2c0.1,0.1,0.1,0.2,0.2,0.2c0.3-0.1,0.6-0.2,0.9-0.3c0.3-0.1,0.6-0.2,0.9-0.2c0.1-0.1,0.2-0.2,0.2-0.2
			c0.1,0,0-0.1-0.1-0.2c0.1,0,0.2,0,0.2,0.1c0.1,0.1,0.1,0.1,0.2,0c0.1-0.1,0.1-0.2,0.1-0.3s0-0.2,0.2-0.2c0.3,0,0.5-0.1,0.8-0.2
			c0.3-0.1,0.5-0.2,0.6-0.4c0.2,0.1,0.5,0.1,0.8-0.1c0.4-0.1,0.6-0.2,0.7-0.4c0.2-0.1,0.3-0.2,0.4-0.5c0.1-0.2,0.3-0.4,0.5-0.5
			c0.1-0.1,0.2-0.1,0.3-0.1c0.1,0,0.2,0,0.3,0c0.3-0.1,0.5-0.3,0.7-0.5c0.2-0.2,0.3-0.3,0.5-0.5c0.1,0,0.2,0,0.3-0.1
			c0.2-0.1,0.2-0.2,0.3-0.2c0.1,0,0.2-0.1,0.5-0.2c0.3-0.2,0.6-0.3,0.8-0.5c0.2-0.2,0.5-0.3,0.7-0.4c0-0.1,0.2-0.1,0.3-0.1
			c0.1,0,0.1,0,0-0.2c0.1,0.1,0.2,0.2,0.3,0.2c0.1,0,0.2,0,0.3,0.2c0.1,0,0.2-0.1,0.2-0.2s0-0.2,0.1-0.2c0.2-0.1,0.3-0.2,0.5-0.4
			c0.2-0.2,0.4-0.4,0.6-0.5c0-0.2,0.1-0.3,0.3-0.4c0.2,0,0.3-0.2,0.4-0.3c0.2,0,0.5,0,0.6-0.1c0.2-0.2,0.5-0.3,0.7-0.5l0.7-0.2
			c0.2-0.1,0.3-0.2,0.4-0.3c0.2-0.2,0.3-0.3,0.5-0.4c0.2-0.1,0.4-0.2,0.5-0.3c0.2-0.2,0.3-0.3,0.5-0.4c0.4-0.1,0.5-0.2,0.5-0.2
			c0.5-0.1,0.8-0.3,0.8-0.8c0-0.1-0.2-0.1-0.3,0s-0.3,0-0.4-0.2c0.7-0.3,1.4-0.8,2.2-1.5c0.2-0.2,0.3-0.3,0.5-0.4
			c0.2-0.2,0.4-0.3,0.6-0.4c0.2-0.2,0.5-0.3,0.8-0.4c0.2-0.2,0.4-0.4,0.6-0.8c0.1,0,0.2,0,0.2-0.1c0-0.1,0.1-0.1,0.2-0.1
			c0-0.2,0-0.4,0.2-0.5c0.2-0.1,0.3-0.2,0.4-0.4c0-0.1,0.1-0.2,0.2-0.4c0,0,0.1,0,0.2-0.1c0.2-0.1,0.3-0.2,0.5-0.4
			c0.2-0.2,0.3-0.4,0.4-0.7v-0.1c0-0.1,0-0.1,0-0.1c0,0,0.1,0,0.1-0.1c0.2-0.1,0.3-0.2,0.4-0.3c0.2-0.4,0.4-1,0.6-1.6
			s0.4-1.2,0.5-1.7c0.1-0.4,0.2-0.8,0.3-1.3c0.1-0.5,0.2-0.9,0.2-1.3c0-0.1-0.1-0.3-0.1-0.8c0-1.3-0.5-2.4-1.7-3.2
			c-1.2-0.8-2.5-1.3-4-1.6c-0.5-0.1-1-0.2-1.4-0.2c-0.5,0-0.9-0.1-1.4-0.1c-0.4-0.1-0.7-0.2-0.8-0.2c-0.2-0.1-0.3-0.1-0.4,0
			s-0.2,0-0.4-0.1c-0.2,0.1-0.5,0-0.8-0.1c-0.2,0.1-0.4,0.2-0.6,0.1h-1.1c-0.4,0.1-0.8,0.1-1.3,0.2c-0.4,0-0.8,0-1.3-0.1
			c-0.4,0-0.8,0.1-1.2,0.2c-0.4,0-0.7,0.1-1,0.2c-0.1,0-0.2,0-0.5-0.1c-0.2-0.1-0.3-0.1-0.5,0c-0.2,0-0.4,0-0.6,0.1
			c-0.2,0-0.4,0-0.8,0.1c0,0,0,0-0.1,0.1c0,0-0.1,0-0.2,0c0,0,0-0.1-0.1-0.1c-0.2,0.1-0.5,0.2-0.9,0.4c-0.3,0.2-0.7,0.3-0.9,0.5
			c0,0.1,0.1,0.1,0.2,0c0.2-0.1,0.2-0.1,0.3-0.1c0,0.2-0.1,0.2-0.3,0.3c-0.2,0-0.3,0-0.4,0c-0.1-0.1-0.2-0.1-0.2,0.1
			c0.1,0.1,0,0.2-0.2,0.2c0,0-0.1,0-0.3,0c-0.1,0-0.2,0.1-0.2,0.2c0,0.1,0,0.2-0.1,0.2c-0.4,0.2-0.7,0.3-1,0.5
			c-0.2,0.2-0.6,0.3-1,0.4c-0.6,0.2-1.3,0.6-2.1,1c-0.8,0.3-1.5,0.6-2.2,0.9c-0.2,0.1-0.4,0.2-0.5,0.2c-0.2,0-0.3,0-0.4,0.1
			c-0.2,0.1-0.4,0.1-0.5,0.2c0,0.1-0.1,0.2-0.3,0.2c-0.4,0.1-0.9,0.3-1.4,0.4c-0.5,0-0.9,0.1-1.3,0.2c-0.1,0.8-0.4,1.3-0.8,1.8
			c-0.1,0.2-0.2,0.4-0.2,0.5c0,0.1,0,0.2-0.1,0.4c0,0.2-0.1,0.5-0.2,0.8c-0.1,0.2-0.1,0.5-0.1,0.8c0,0-0.1,0-0.2-0.1
			c0-0.1,0-0.2,0.1-0.2c0.1,0,0.1-0.2,0.1-0.4c-0.1,0.2-0.3,0.3-0.4,0.5c0,0.1-0.2,0.1-0.5,0.1c0.2,0.2,0.3,0.3,0.3,0.5
			s-0.1,0.3-0.2,0.6c0,0.4-0.1,0.8-0.2,1.1c0,0.3,0,0.7-0.1,1c-0.1,0.2-0.1,0.5-0.1,0.7c0,0.2,0,0.4-0.1,0.6c0,0.2-0.1,0.4-0.2,0.5
			c-0.1,0.2-0.2,0.3-0.3,0.4c0,0.1,0,0.2,0,0.4s0.1,0.3,0.1,0.4c0,0.2,0,0.5,0.1,0.8c0.1,0.2,0,0.4-0.2,0.5
			c-0.2-0.1-0.2-0.2-0.2-0.5c0.1-0.2,0-0.4-0.2-0.4c-0.1,0-0.1,0.2-0.1,0.4c0,0.2,0.1,0.3,0.1,0.5c0,0,0.1,0,0.1,0.1
			c0,0.1,0,0.1-0.1,0.1c0.2,0.1,0.4,0.1,0.4,0.1c-0.1,0.1-0.1,0.2-0.1,0.4c0,0.1,0.1,0.2,0.1,0.3c0,0.5,0,1,0.1,1.4
			c0.1,0.4,0.3,0.7,0.5,1c0.1,0,0.2,0,0.2-0.2c0.1-0.1,0.2-0.2,0.2-0.2c0,0.1,0.1,0.2,0.2,0.2c0.1,0.1,0.2,0.1,0.3,0.2
			c0,0.2,0,0.5,0,0.8c0,0.3-0.2,0.5-0.5,0.7c-0.2,0-0.4,0-0.6,0c-0.2,0-0.3,0.2-0.2,0.5c-0.2-0.1-0.5-0.1-0.6-0.1
			c-0.2,0.1-0.3,0-0.4-0.1c-0.4-0.1-0.8-0.3-1-0.7s-0.5-0.7-0.8-1.1c-0.2-0.4-0.4-0.9-0.5-1.3c-0.2-0.5-0.3-0.9-0.4-1.2
			c0-0.2-0.2-0.3-0.3-0.5c-0.1-0.2-0.1-0.4,0.1-0.7c0-0.1,0-0.2,0-0.2c0,0,0.1,0,0.1-0.1c0-0.2,0-0.4-0.2-0.7s-0.2-0.5-0.2-0.8
			c0-0.5,0-0.9-0.1-1.2c0-0.4,0-0.8-0.1-1.3c0-0.5,0-1,0-1.6c0-1.3,0.1-2.6,0.2-3.8c0.1-0.2,0.1-0.3,0.1-0.5c0-0.1,0-0.3,0-0.4
			c-0.1-0.2-0.2-0.4-0.5-0.6c-0.2-0.2-0.4-0.3-0.6-0.6c-0.1-0.1-0.1-0.2-0.1-0.3c0-0.1,0-0.3-0.1-0.5c-0.4-0.4-0.6-0.6-0.6-0.6
			c-0.1,0,0-0.3,0.2-0.8c0.1-0.1,0.2-0.2,0.3-0.4s0.2-0.2,0.2-0.2c0.2-0.2,0.5-0.3,0.8-0.4c0.4-0.1,0.6-0.3,0.6-0.5
			c0.1-0.1,0.1-0.1,0.2,0c0.2,0.1,0.3,0.1,0.5,0c0.6-2.8,1.4-5.4,2.3-7.8c1-2.3,1.9-4.7,2.8-6.9c0.5-1.2,1.1-2.3,1.7-3.4
			c0.6-1.2,1.2-2.2,1.8-3.2c-0.3-0.1-0.6-0.1-0.8,0.1c-0.2,0.2-0.4,0.2-0.7,0.3c-0.5,0.1-1,0.3-1.6,0.4c-0.5,0.1-1.1,0.2-1.6,0.4
			c0,0.1-0.1,0.1-0.2,0.2c0,0.1-0.2,0-0.4-0.1c-0.1,0.1-0.3,0.2-0.5,0.2c-0.1,0-0.2,0-0.3,0.1c-0.3,0.2-0.7,0.4-1.1,0.6
			c-0.4,0.2-0.8,0.2-1.1,0.2c-0.1-0.1-0.3-0.2-0.5-0.2c-0.2,0-0.3-0.1-0.5-0.2c-0.9-0.2-1.5-0.5-2.1-0.9s-1.1-0.8-1.6-1.3
			c0.1-0.1,0.2-0.1,0.5-0.2c0.2,0,0.4-0.2,0.5-0.3c0.1-0.1,0.2-0.1,0.4-0.1c0.1,0,0.2-0.1,0.2-0.2c0.3-0.1,0.5-0.2,0.7-0.4
			c0.1-0.2,0.3-0.4,0.6-0.5c0.4-0.1,0.7-0.2,1-0.5c0.2-0.2,0.6-0.3,1-0.4c0.3-0.2,0.6-0.4,1-0.5c0.4-0.1,0.7-0.3,1.1-0.5
			c1-0.4,2-0.8,2.8-1c1-0.3,2-0.6,3.2-0.8c0.1-0.1,0.4-0.1,0.6-0.2c0.3-0.1,0.5-0.2,0.6-0.2c0.5-0.1,0.9-0.1,1.3-0.1
			c0.5-0.1,0.9-0.2,1.3-0.4c0.5-0.2,0.8-0.3,1-0.4c0.2,0,0.3,0,0.5,0.1c0.1,0,0.3,0,0.4,0c0.4,0.1,0.8,0.1,1.3,0
			c0.5-0.1,0.9-0.2,1.3-0.2c0.7-0.1,1.5-0.2,2.3-0.2c0.9,0,1.8,0,2.6,0.2c0,0,0.1,0,0.2-0.1c0-0.1,0.1-0.1,0.2-0.1
			c0,0.2,0.1,0.2,0.1,0.2l0.1-0.2c0.1-0.1,0.1-0.1-0.1-0.2c0.2,0.1,0.2,0.1,0.2,0.2c0,0.1,0,0.1,0.1,0.2c0.2,0.1,0.3,0.1,0.5,0
			c0.2-0.1,0.4-0.1,0.5-0.1c0.5,0,1.1,0.1,1.6,0.2s1,0.2,1.5,0.3c0.8,0.2,1.6,0.6,2.4,0.9c0.8,0.4,1.5,0.7,2,0.9
			c0.2,0,0.5,0.1,0.7,0.3c0,0,0.1,0,0.1,0.1c0,0.1,0,0.1,0.1,0.1c0.2,0.1,0.4,0.2,0.5,0.3c0.2,0.1,0.3,0.2,0.4,0.3
			c0,0.1,0.1,0.2,0.2,0.2c0,0,0.1,0,0.1,0.1c0,0.1,0.1,0.1,0.2,0.1h0.1c0.1,0.1,0.2,0.2,0.2,0.2c0.1,0.1,0.1,0.1,0.2,0.2
			c0,0,0.1,0.1,0.2,0.1c0.1,0,0.2,0,0.2,0v0.2c0,0.2,0,0.2,0.1,0.2c0.2,0.2,0.3,0.2,0.4,0.2c0.1,0,0.2,0.1,0.2,0.4
			c0.1,0.2,0.1,0.2,0.1,0.2c0-0.1,0.2-0.1,0.3,0c-0.2,0.1-0.2,0.1-0.2,0.2c0.2,0.1,0.2,0.1,0.2,0c0.1,0.1,0.2,0.1,0.2,0.2
			c0,0.1,0.1,0.2,0.2,0.5C56.3-120.6,56.2-120.7,56.1-120.8L56.1-120.8z M33.1-103.4c1.1-0.4,2.2-0.7,3.4-1c1.1-0.3,2.3-0.5,3.5-0.6
			c0.3-0.1,0.6-0.2,0.8-0.2c0.2-0.1,0.4-0.1,0.5-0.2c0.2-0.1,0.4-0.2,0.6-0.4c0.2-0.2,0.4-0.4,0.7-0.7c0.4-0.4,0.9-0.7,1.3-0.9
			c0.5-0.2,1-0.5,1.5-0.8c0.1-0.1,0.3-0.3,0.5-0.4c0.1-0.1,0.3-0.3,0.5-0.5c0.5-0.4,1.1-0.8,1.6-1.3c0.6-0.4,1.1-0.9,1.5-1.4
			c0.8-0.7,1.4-1.5,2-2.2c0.7-0.8,1.1-1.7,1.4-2.6c0.2-1,0.2-1.7,0-2.3c-0.2-0.6-0.6-1.2-1.2-1.7c-0.2-0.1-0.3-0.2-0.4-0.2
			c-0.1,0-0.2-0.1-0.3-0.2l-0.3-0.2c-0.1,0-0.3,0-0.8-0.1c-0.4-0.1-0.6-0.2-0.8-0.2c-0.2-0.1-0.3-0.1-0.3,0c0,0-0.1,0-0.3-0.1
			c0,0.1-0.2,0.1-0.3,0.1c-0.2-0.1-0.3-0.1-0.4-0.2h-2.2h-1.1c-0.2,0-0.3,0-0.5,0.1c-0.2,0.1-0.3,0.1-0.5,0.1c0-0.1,0-0.1-0.1,0
			c-0.1,0-0.1,0-0.2,0.1h-0.1c-0.1,0-0.2,0-0.3-0.1c-0.1-0.1-0.2-0.1-0.2,0c-0.2,0-0.4,0.1-0.5,0.2c-0.1,0.1-0.2,0.1-0.4,0.2
			c-0.1,0-0.2,0-0.4,0c-0.1-0.1-0.2,0-0.2,0.1c-0.5,0.2-1.2,0.2-2,0.3c-0.7,0-1.4,0.1-2.1,0.2c-0.3,0.1-0.7,0.1-1.2,0.2
			c-0.4,0-0.6,0.1-0.7,0.2c-0.1,0.1-0.2,0.3-0.2,0.5c-0.1,0.2-0.1,0.5-0.2,0.8c-0.2,1.4-0.6,2.8-1,4.2c-0.3,1.4-0.7,2.8-0.9,4.3
			c-0.1,0.4-0.2,0.8-0.3,1.2s-0.2,0.8-0.4,1.3c-0.2,0.5-0.4,1-0.6,1.5c-0.1,0.5-0.3,0.9-0.5,1.3c-0.2,0.4-0.4,0.8-0.5,1.2
			c-0.1,0.4-0.2,0.8-0.2,1.3c0.4-0.1,0.8-0.2,1.3-0.3C32.3-103.2,32.7-103.3,33.1-103.4L33.1-103.4z M56.3-114.8c0,0,0.1,0,0.2-0.2
			c0-0.2,0-0.3-0.1-0.2c-0.1,0.1-0.2,0.2-0.2,0.3C56.3-114.9,56.3-114.9,56.3-114.8z M59.4-103c-0.6-0.4-1.2-0.6-1.9-0.8
			c-0.6-0.2-1.3-0.4-2-0.5c0.7,0.2,1.3,0.5,2,0.8C58.1-103.3,58.8-103.1,59.4-103z M60.6-102.5c-0.2-0.1-0.4-0.2-0.5-0.3
			c-0.1-0.2-0.3-0.2-0.4-0.3c0.2,0.2,0.3,0.3,0.4,0.5C60.2-102.6,60.4-102.5,60.6-102.5z M36.6-99.1c-0.3,0.2-0.6,0.3-0.8,0.3
			c0,0-0.1,0.1-0.1,0.2c-0.1,0.1-0.3,0.2-0.5,0.3c-0.1,0-0.2,0.1-0.1,0.2c0.4-0.2,0.8-0.5,1.1-0.7c0.4-0.2,0.7-0.4,1.1-0.5
			c-0.3-0.1-0.5-0.1-0.6,0C36.7-99.2,36.7-99.1,36.6-99.1z M34.3-97.8c0.2,0,0.5,0,0.7-0.2c-0.1,0-0.2,0-0.4,0.1
			C34.5-97.9,34.4-97.8,34.3-97.8z M31.7-96.5c0.2-0.1,0.5-0.2,0.8-0.2c0.3-0.1,0.5-0.2,0.6-0.2c0.2-0.1,0.4-0.2,0.5-0.2
			c0.1-0.1,0.2-0.1,0.4-0.2c0.1-0.1,0.2-0.1,0.3-0.1c0.2,0,0.2-0.1,0.1-0.4c-0.4,0.2-0.9,0.5-1.3,0.6C32.6-97,32.2-96.8,31.7-96.5z
			 M23.6-86.9c-0.1-0.1,0-0.1,0.2-0.1c0-0.2,0-0.3,0.1-0.4c0-0.2,0.1-0.3,0.1-0.4c0-0.1,0.2-0.2,0.3-0.5s0.1-0.4-0.2-0.4
			c0,0.4-0.2,0.8-0.3,1.1C23.6-87.5,23.6-87.2,23.6-86.9z M51.9-74c0.2-0.1,0.5-0.2,0.6-0.4c0.2-0.2,0.3-0.3,0.4-0.4
			c-0.2,0.1-0.4,0.2-0.6,0.2C52.2-74.5,52.1-74.3,51.9-74z M51.3-74c-0.1,0.2-0.3,0.3-0.5,0.5c-0.2,0.1-0.3,0.3-0.4,0.4
			c0.1-0.1,0.2-0.2,0.4-0.3c0.2,0,0.3,0,0.4,0.1c0-0.2,0.1-0.4,0.2-0.4c0.2,0,0.2-0.1,0.3-0.3C51.9-74,51.3-74,51.3-74z M50-74.3
			c-0.4,0.2-0.8,0.5-1.3,0.8c-0.4,0.3-0.8,0.6-1.3,0.8c-0.3,0.1-0.5,0.2-0.7,0.2c-0.2,0.1-0.3,0.2-0.4,0.3c-0.2,0-0.3,0.1-0.4,0.3
			c0,0.2-0.2,0.1-0.5-0.1c-0.1,0.2-0.2,0.3-0.5,0.4c-0.2,0.1-0.3,0.2-0.3,0.4c0.3,0,0.6,0,0.8-0.2c0.2-0.2,0.5-0.3,0.6-0.6
			c0.3,0.1,0.5,0.1,0.6-0.1c0.1-0.1,0.3-0.3,0.5-0.5c0.2-0.1,0.3-0.2,0.4-0.2c0.2,0,0.3,0,0.4,0c0-0.1,0.1-0.2,0.1-0.2
			c0-0.1,0-0.1,0.1-0.2c0.1-0.1,0.2-0.1,0.4-0.2c0.2,0,0.3-0.1,0.4-0.2c0-0.2,0-0.3,0.1-0.4c0.1,0,0.2,0,0.2,0
			c0.1,0.1,0.1,0.1,0.2,0c0.2-0.1,0.5-0.3,0.7-0.6H50L50-74.3z M47.8-71.7c0.3,0,0.5-0.1,0.7-0.3c0.1,0,0.3-0.2,0.4-0.4
			c0.2-0.1,0.4-0.2,0.4-0.2c0.2,0,0.4-0.1,0.6-0.1c0.2,0,0.3-0.1,0.3-0.4c-0.6,0-1,0.2-1.4,0.4C48.5-72.3,48.2-72,47.8-71.7z
			 M49.3-72.2c0.1,0,0.2,0,0.2-0.1c0-0.1,0.1-0.1,0.2-0.2C49.5-72.5,49.3-72.5,49.3-72.2z M48.8-71.9c0-0.1,0.1-0.1,0.2-0.2
			c0,0,0,0-0.1,0L48.8-71.9C48.7-72,48.7-72,48.8-71.9C48.7-71.9,48.7-71.9,48.8-71.9z M43.8-70.8c0.2,0.1,0.3,0,0.4-0.2
			C44.1-71.1,44-71,43.8-70.8z M42-70.4c-0.1-0.1-0.2-0.2-0.2-0.2c-0.1,0-0.2,0.1-0.2,0.2c0,0.1,0,0.2-0.1,0.3
			c0.3,0,0.6-0.2,0.8-0.4c0.3-0.2,0.6-0.4,1-0.7c-0.4,0.1-0.6,0.2-0.8,0.4C42.4-70.5,42.2-70.4,42-70.4C42-70.3,42-70.4,42-70.4z
			 M43.5-70.6c0-0.1,0.1-0.1,0.2-0.2c0.2,0,0.2,0,0.1-0.1c0,0-0.1,0.1-0.2,0.1C43.4-70.7,43.4-70.6,43.5-70.6z M41.7-69.7
			c-0.1,0-0.2,0-0.5,0.1c-0.2,0.1-0.2,0.2-0.2,0.3c0.4-0.2,0.8-0.4,1.1-0.6c0.4-0.2,0.8-0.4,1.2-0.5c0-0.2,0-0.2,0-0.2
			c-0.2,0.1-0.5,0.2-0.8,0.4C42.2-69.9,41.9-69.8,41.7-69.7z M39.6-69.4c0.7-0.1,1.2-0.3,1.6-0.6c-0.2,0.1-0.5,0.1-0.9,0.2
			C40-69.6,39.7-69.5,39.6-69.4z M38.1-69.4c0.2,0,0.5-0.1,0.8-0.4c-0.2,0.1-0.3,0.2-0.5,0.2C38.1-69.6,38-69.5,38.1-69.4z
			 M38.5-69.1c0.3,0,0.4-0.1,0.5-0.2C38.7-69.3,38.6-69.2,38.5-69.1z M37.5-69.2c0,0,0.1,0,0.4-0.2C37.6-69.4,37.4-69.3,37.5-69.2z
			 M38.4-68.9c0,0,0-0.1,0-0.2C38.4-69.1,38.4-69,38.4-68.9z M37.8-68.6c0.1,0,0.2,0,0.3-0.1c0.1-0.1,0.1-0.2,0-0.2
			c0,0.1-0.1,0.1-0.2,0.1C37.9-68.9,37.9-68.8,37.8-68.6z M36.7-68.6c0-0.1,0-0.1,0.2-0.1c0.1,0,0.2-0.1,0.1-0.2
			c-0.1,0.1-0.2,0.2-0.3,0.2C36.6-68.8,36.6-68.7,36.7-68.6z M35.7-68.8c0.3,0,0.5-0.1,0.5-0.2c-0.1,0-0.2,0-0.3,0
			C35.9-68.9,35.8-68.9,35.7-68.8z M37.6-68.5C37.6-68.5,37.6-68.5,37.6-68.5c0.2,0,0.2,0,0.1-0.1c0-0.1,0-0.1-0.2-0.1
			C37.5-68.6,37.5-68.5,37.6-68.5z M23.1-68.6c0-0.1,0-0.2-0.1-0.2c0,0.1,0,0.1-0.2,0.1c-0.1-0.1-0.1,0-0.1,0.1
			C22.8-68.6,23.1-68.6,23.1-68.6z M53.3-73.4C53.4-73.4,53.4-73.3,53.3-73.4c-0.1,0.1-0.2,0.2-0.3,0.3c-0.1,0-0.1,0,0-0.1
			C53.1-73.3,53.2-73.4,53.3-73.4z M52.5-73c0,0,0,0,0,0.2c0,0.1-0.1,0.2-0.2,0.2c0-0.2,0-0.2,0.1-0.2C52.4-72.9,52.4-72.9,52.5-73z
			 M38.6-68.1c-0.3,0.3-0.9,0.6-1.6,0.8c-0.2,0-0.4,0-0.6,0.1c-0.1,0.2-0.3,0.3-0.4,0.4c-0.1,0-0.3-0.1-0.6-0.1
			c-0.2,0.1-0.4,0.1-0.6,0.2c-0.1,0.1-0.3,0.2-0.6,0.3c-0.2,0.1-0.3,0.1-0.5,0.1c-0.1,0-0.3,0-0.6,0.1c-0.2,0.1-0.4,0.2-0.8,0.3
			c-0.3,0.2-0.7,0.2-1,0.1c0.2-0.2,0.4-0.2,0.7-0.3c0.2,0,0.5-0.1,0.8-0.1H33c0.4,0,0.8-0.1,1.2-0.3c0.4-0.2,0.8-0.3,1.2-0.5
			c0.1,0,0.3-0.1,0.6-0.1c0.1-0.1,0.2-0.1,0.2-0.2c0-0.1,0.1-0.1,0.1-0.2h0.4c0.2-0.1,0.3-0.1,0.4-0.2c0.1-0.1,0.2-0.2,0.3-0.2h0.9
			c0.1,0,0.2-0.1,0.2-0.2S38.5-68.2,38.6-68.1z"/>
		<path id="path3425" class="st0" d="M99.4-88.3c0.4,0.1,0.7,0.4,0.8,1s0,1.2-0.5,1.7c-0.1,0.2-0.3,0.6-0.5,0.9
			c-0.2,0.3-0.4,0.6-0.6,0.8c-0.1,0.1-0.3,0.2-0.6,0.4c-0.2,0.2-0.4,0.3-0.4,0.4c-0.2,0.1-0.4,0.2-0.7,0.5c-0.2,0.3-0.4,0.5-0.5,0.5
			c-0.1,0.1-0.3,0.2-0.8,0.5c-0.3,0.2-0.6,0.4-0.8,0.5c-0.6,0.2-0.9,0.5-1.1,0.8c-0.1,0.2-0.4,0.5-0.9,0.8c-0.4,0.1-0.8,0.2-1.2,0.4
			c-0.4,0.2-0.8,0.4-1.1,0.6c-0.4,0.2-0.7,0.4-1,0.4c-0.3,0-0.6,0.2-0.8,0.6c-0.3-0.1-0.6,0-1,0.2c-0.3,0.2-0.8,0.3-1.2,0.4
			c-0.2,0.1-0.6,0.2-0.9,0.2c-0.3,0.1-0.6,0.1-0.9,0.1c-1.1,0.5-2.2,0.8-3.4,0.8c-0.7,0.2-1.4,0.2-2.3,0c-0.1-0.1-0.3-0.1-0.4-0.1
			c-0.1,0-0.2-0.1-0.4-0.1c-0.4-0.2-0.9-0.3-1.4-0.3c-0.5,0-0.9-0.1-1.3-0.3c-0.1,0-0.2-0.1-0.5-0.2c-0.2-0.2-0.5-0.3-0.8-0.4
			c-0.3-0.2-0.6-0.3-0.9-0.4c-0.2-0.2-0.4-0.2-0.4-0.2c-0.2-0.1-0.5-0.3-0.7-0.5c-0.2-0.3-0.4-0.6-0.6-0.9c-0.1-0.3-0.3-0.7-0.5-0.9
			c-0.2-0.3-0.4-0.5-0.6-0.7c-0.1-0.1-0.2-0.1-0.3,0c-0.2,0-0.3,0-0.4-0.1c-0.2-0.1-0.2-0.2-0.3-0.4c-0.1-0.2-0.2-0.3-0.2-0.4
			c-0.1-0.5-0.1-0.9,0.2-1.2c0.2-0.4,0.2-0.7,0.1-1c0.1-0.1,0.2-0.1,0.3-0.1c0.1,0,0.2-0.1,0.3-0.3c-0.3-0.2-0.4-0.6-0.4-1.1
			c0-0.5,0.1-1,0.3-1.5c0.2-0.5,0.3-1,0.5-1.4c0.2-0.5,0.4-0.8,0.4-1.1c0.1-0.3,0.1-0.6,0.1-0.8s0-0.4,0.1-0.5
			c0.1-0.2,0.2-0.3,0.4-0.4c0.2-0.2,0.3-0.3,0.4-0.4c0.1-0.4,0.3-0.8,0.5-1.1c0.2-0.5,0.6-1,1.1-1.5c0.5-0.5,1-1.1,1.6-1.7
			c0.2-0.3,0.5-0.6,0.8-0.8c0.3-0.2,0.6-0.6,1-0.9c0.4-0.2,0.7-0.3,1-0.4c0.2-0.2,0.5-0.4,0.9-0.7c0.8-0.6,1.6-0.9,2.4-0.8
			c0.8,0,1.6,0.2,2.3,0.3c0.2,0.1,0.4,0.2,0.4,0.4c0.1,0.2,0.2,0.3,0.4,0.4c0.1,0.1,0.2,0.1,0.2,0.1c0.1-0.1,0.2-0.2,0.4-0.2
			c0.3,0.1,0.6,0.2,1.1,0.5c0.4,0.2,0.8,0.4,1.1,0.7c0.4,0.2,0.7,0.5,1,0.8c0.3,0.2,0.5,0.5,0.5,0.7c0,0.1,0.1,0.2,0.2,0.3
			s0.2,0.2,0.2,0.3c0.2,0.7,0.2,1.2-0.1,1.6c-0.2,0.3-0.3,0.6-0.4,1c-0.4,0.4-0.8,0.8-1.1,1.1c-0.3,0.2-0.6,0.5-0.8,0.9
			c0,0.1-0.1,0.2-0.4,0.5c-0.2,0.2-0.4,0.4-0.4,0.5c-0.4,0.3-0.9,0.7-1.4,1c-0.5,0.2-1,0.6-1.4,1c0,0.1-0.2,0.2-0.4,0.4
			c-0.2,0.1-0.4,0.2-0.7,0.4c-0.3,0.2-0.6,0.4-1,0.6c-0.1,0.1-0.2,0.2-0.4,0.2c-0.2,0-0.4,0.1-0.4,0.2c-0.1,0.1-0.3,0.3-0.6,0.6
			c-0.2,0.2-0.6,0.5-1,0.6c-0.1,0.1-0.2,0.2-0.4,0.2c-0.2,0-0.2,0-0.3,0.1c-0.2,0.1-0.5,0.3-0.8,0.5s-0.6,0.3-0.9,0.3
			c-0.1,0.2-0.2,0.5-0.3,0.9c0,0.4,0,0.8,0,1.3c0.1,0.5,0.3,0.9,0.5,1.3c0.3,0.3,0.8,0.6,1.4,0.6c0.1,0,0.4,0.1,0.8,0.2
			c0.4,0.1,0.7,0.2,0.8,0.3c0.8,0,1.7,0,2.6-0.2c1-0.2,1.9-0.4,2.8-0.5c1.9-0.4,3.8-1.1,5.6-1.9c1.8-0.8,3.4-1.7,4.7-2.6
			c0.3-0.2,0.4-0.3,0.4-0.3c0.1,0,0.2-0.1,0.4-0.2c0.2-0.1,0.5-0.3,0.9-0.5c0.4-0.3,0.8-0.6,1.1-0.9c0.4-0.3,0.8-0.7,1.1-1
			C99.3-87.6,99.4-88,99.4-88.3z M77.9-87.5c0.8-0.5,1.7-1,2.4-1.7c0.8-0.7,1.6-1.3,2.4-1.9c0.3-0.2,0.6-0.5,0.9-0.8
			c0.3-0.3,0.6-0.6,0.7-0.8c0.1-0.2,0.1-0.4,0.1-0.6c0-0.2-0.1-0.3-0.1-0.4c-0.2,0-0.3-0.1-0.4-0.1c-0.1,0-0.1,0-0.1,0.1
			c-1.2,0.7-2.3,1.6-3.4,2.7c-1,1.1-2,2.2-2.8,3.4c0,0.1,0.1,0.2,0.2,0.2C77.7-87.4,77.8-87.5,77.9-87.5L77.9-87.5z"/>
		<path id="path3427" class="st0" d="M112.9-105.9c0.2,0,0.2,0.1,0.2,0.4s0,0.5-0.1,0.8c-0.1,0.3-0.2,0.7-0.3,0.9s-0.3,0.4-0.5,0.4
			c0.2-0.3,0.3-0.7,0.4-1.2C112.6-105.1,112.7-105.5,112.9-105.9L112.9-105.9z M101.9-105.2c0.1,0.1,0.1,0.2,0.1,0.2
			c-0.1,0-0.1,0.1-0.1,0.1C101.9-104.9,101.9-105,101.9-105.2z M100.7-99.4c0,0.1-0.1,0.1-0.2,0.2c0,0.1,0.1,0.2,0.2,0.2
			c-0.1,0.2-0.2,0.2-0.3,0C100.4-99.3,100.5-99.4,100.7-99.4z M101-97.7c0,0,0.1,0,0.2,0.1h0.1c0.1,0.4,0.1,0.5,0,0.4
			c-0.1-0.2-0.2-0.1-0.2,0.1c-0.2,0-0.3-0.1-0.2-0.2C101-97.4,101-97.6,101-97.7z M100.9-95.3c0.1,0.1,0.1,0.2,0.1,0.4
			c0,0.1-0.1,0.2-0.2,0.3c-0.2,0-0.2-0.1,0-0.2C100.9-95,100.9-95.2,100.9-95.3z M100-91.1c0.3,0.1,0.3,0.2,0.2,0.3
			c-0.1,0-0.2,0-0.2-0.1C100-91,100-91.1,100-91.1z M100-89.7c0.2,0,0.4,0.2,0.4,0.4c0,0.2-0.1,0.4-0.4,0.5c0-0.2,0-0.4,0-0.5
			C100-89.3,100-89.4,100-89.7z M99.7-77.1C99.7-77.3,99.8-77.3,99.7-77.1c0.1,0.3,0,0.4,0,0.4c0,0.1,0,0.1-0.1,0.1
			C99.6-76.7,99.6-76.8,99.7-77.1z M102.2-99.4c-0.1,0.5-0.2,0.9-0.4,1.3c-0.1,0.3-0.1,0.7,0,1.3c0.2-0.7,0.5-1.4,0.7-2.2
			s0.2-1.4,0.2-1.9c0-0.1-0.1-0.2-0.2-0.2c0-0.1-0.1-0.1-0.1-0.2c0-0.1,0.1-0.2,0.2-0.2c0.1,0,0.2,0,0.2-0.1c0.1-0.5,0.1-1,0-1.5
			c0-0.6,0.1-1.1,0.4-1.7c-0.1-0.1-0.2-0.1-0.4,0.1c-0.1,0.2-0.2,0.2-0.3,0.2c0.2-0.9,0.4-1.7,0.5-2.6c0.2-0.8,0.4-1.7,0.4-2.6
			c-0.4,0.6-0.6,1.3-0.8,2.1c-0.2,0.8-0.3,1.5-0.6,2.2c-0.2-0.3-0.3-0.7-0.1-0.9c0.2-0.3,0.3-0.6,0.4-0.8c0.1-0.4,0.1-0.8,0.1-1.2
			c0-0.4,0.2-0.7,0.5-1c-0.1-0.6-0.1-1.3,0.2-2.1c0.3-0.8,0.5-1.6,0.5-2.3c-0.2,0.1-0.4,0.3-0.4,0.5s0,0.5-0.2,0.7
			c0.1-0.6,0.2-1.3,0.4-1.9s0.3-1.3,0.4-2c0.3-1.3,0.7-2.6,1.1-3.8c0.4-1.3,0.8-2.6,1.2-3.9c0.2-0.9,0.5-1.7,0.9-2.4
			c0.4-0.7,0.6-1.5,0.5-2.5c0.2,0.2,0.3,0.2,0.4,0.1c0.2-0.1,0.3-0.2,0.4-0.2c0.1-0.1,0.1,0,0.1,0.1c0,0.1,0.2,0.1,0.4,0.1
			c0.1,0,0.1-0.1,0.1-0.1c0-0.1,0.1-0.1,0.3,0c0.4,0.1,0.8,0.3,1.3,0.8c0.6,0.4,1,0.7,1.4,1c0.2,0.2,0.6,0.5,1.1,0.9
			c0.4,0.3,0.7,0.7,0.8,1c0,0.2-0.1,0.5-0.1,0.8c-0.1,0.3-0.2,0.7-0.3,1c-0.1,0.9-0.1,1.6-0.1,2.2s-0.1,1.2-0.1,1.9
			c-0.1,1.2-0.2,2.5-0.2,3.8c0,1.2-0.1,2.2-0.3,2.9c0,0.2-0.1,0.3-0.2,0.4c-0.1,0.1-0.1,0.2-0.1,0.3c-0.1,0.3-0.1,0.7,0,1
			c0.1,0.3,0.1,0.6-0.1,0.8c0.1,0,0.1,0.2,0.2,0.3c0.1,0.1,0.1,0.1,0.1,0c0.1,0.1,0.1,0.2-0.1,0.4c-0.1,0.2-0.2,0.3-0.2,0.4
			c0.1,0.1,0.1,0.2,0.1,0.5c0,0.2,0.1,0.4,0.1,0.7c0,0.1-0.1,0.2-0.1,0.3s-0.1,0.2-0.1,0.2c0,0.1,0,0.2,0,0.3
			c0.1,0.1,0.1,0.2,0.1,0.3c0.1,0.7,0,1.4-0.4,2.1c-0.3,0.7-0.4,1.4-0.4,2.1c0.1,0.1,0.1,0.2,0.2,0.2c0.1,0,0.2,0,0.2,0
			c0.1-0.1,0.2-0.1,0.2,0c0.1,0,0.1,0.1,0.1,0.3c0.3-0.3,0.7-0.5,1.1-0.5c0.4-0.1,0.7-0.3,0.8-0.8c-0.1-0.1-0.2-0.1-0.4,0.1
			s-0.3,0.2-0.5,0.1c0.2-0.2,0.4-0.3,0.6-0.4c0.3-0.1,0.5,0,0.6,0.3c0.2-0.1,0.3-0.1,0.4-0.2c0.2-0.1,0.3-0.2,0.4-0.3
			c-0.1-0.2-0.1-0.2-0.3-0.1c-0.2,0.2-0.3,0.2-0.5,0.1c0.2-0.2,0.4-0.3,0.7-0.4s0.5-0.1,0.8-0.2s0.5-0.1,0.7-0.2
			c0.2-0.1,0.4-0.3,0.6-0.5c-0.1-0.2-0.1-0.3-0.2-0.1c-0.1,0.2-0.1,0.2-0.1,0.1c0.7-0.7,1.4-1.3,2.2-1.8s1.7-1,2.6-1.5
			c0.2-0.2,0.5-0.4,0.8-0.6c0.3-0.2,0.6-0.4,0.7-0.6c0-0.2,0-0.3,0-0.3c0.1-0.1,0.1-0.2,0.3-0.2c0.2-0.1,0.3-0.1,0.4-0.2
			c0.1-0.1,0.1-0.2,0-0.3c0-0.1,0.1-0.2,0.1-0.3c0.1-0.1,0.3-0.2,0.7-0.4c0.4-0.2,0.7-0.3,0.9-0.5c0.2-0.1,0.3-0.2,0.4-0.5
			c0.1-0.2,0.3-0.4,0.5-0.5c0.2-0.2,0.4-0.3,0.6-0.4c0.2-0.1,0.4-0.2,0.7-0.3c0.1-0.2,0.2-0.3,0.2-0.5c0.1-0.2,0.1-0.3,0.2-0.4
			c0.2-0.2,0.4-0.3,0.6-0.4c0.3-0.1,0.6-0.2,0.8-0.5c0.1-0.1,0.2-0.3,0.2-0.5c0.1-0.2,0.2-0.4,0.3-0.6c0.2-0.1,0.4-0.2,0.7-0.3
			c0.2-0.1,0.4-0.2,0.4-0.5c0.4,0.1,0.6,0.2,0.9,0.3c0.2,0.1,0.5,0.3,0.8,0.4c0.1,0.1,0.3,0.1,0.4,0.1c0.1,0,0.3,0,0.4,0
			c0.3,0.2,0.8,0.5,1.4,0.8s1.1,0.6,1.5,0.8c0.1,0.1,0.3,0.2,0.5,0.4c0.3,0.2,0.6,0.3,0.8,0.5c0.3,0.2,0.5,0.3,0.8,0.5
			c0.2,0.2,0.4,0.3,0.4,0.5c0.1,0.2,0,0.5-0.2,0.7c-0.2,0.2-0.4,0.4-0.7,0.7c-0.2,0.4-0.5,0.7-0.7,0.9c-0.1,0.2-0.4,0.4-0.8,0.5
			c-0.2,0.2-0.5,0.3-0.8,0.4c-0.2,0.2-0.4,0.3-0.7,0.5c-0.2,0.1-0.5,0.3-0.8,0.4c-0.2,0.1-0.5,0.2-0.8,0.3c-0.2,0.2-0.4,0.3-0.6,0.4
			c-0.2,0.1-0.4,0.2-0.7,0.4c-0.1,0.1-0.2,0.2-0.3,0.3c-0.1,0.1-0.1,0.2-0.1,0.2c-0.2,0.2-0.4,0.3-0.6,0.4c-0.1,0.1-0.3,0.1-0.4,0.2
			c-0.2,0.1-0.3,0.2-0.4,0.4c-0.1,0.1-0.2,0.2-0.4,0.4c-0.5,0.4-1,0.7-1.4,0.8c-0.4,0.1-0.9,0.4-1.4,0.8c-0.3,0.3-0.6,0.5-0.8,0.6
			c-0.1,0.1-0.4,0.3-0.8,0.5c-0.6,0.2-1.1,0.6-1.6,0.9s-1,0.7-1.4,1c-0.2,0.2-0.5,0.3-0.7,0.4c-0.2,0.1-0.3,0.2-0.4,0.4
			c-0.4,0.2-0.8,0.5-1.2,0.8c-0.4,0.2-0.8,0.5-1.2,0.8c-0.4,0.4-0.8,0.8-1.1,1.1c-0.3,0.3-0.8,0.5-1.2,0.7c-0.2,0.2-0.5,0.3-0.8,0.4
			c-0.2,0.1-0.5,0.2-0.7,0.3c-0.2,0.1-0.4,0.3-0.4,0.5c-0.1,0.2-0.1,0.3-0.3,0.5c-0.1,0-0.2,0-0.4,0c-0.1-0.1-0.2-0.1-0.2,0
			c-0.4,0.2-0.7,0.4-1,0.6c-0.2,0.2-0.4,0.3-0.7,0.4c1.1,1.5,2.2,3.2,3.4,5c1.2,1.8,2.4,3.5,3.7,5.2c0,0,0.1,0.1,0.1,0.2
			s0,0.2,0.1,0.2c0.1,0.1,0.2,0.2,0.3,0.2c0.1,0,0.2,0,0.3,0.2c0.2,0.2,0.3,0.5,0.4,0.8c0.2,0.2,0.4,0.5,0.6,0.7
			c0.6,0.9,1.4,1.8,2.2,2.8c0.8,0.9,1.6,1.8,2.3,2.7c0.2,0.4,0.4,0.8,0.5,1c0.2,0.3,0.4,0.7,0.8,1.1c0.3,0.4,0.7,0.9,1.1,1.4
			c0.5,0.5,0.7,0.9,0.7,1.2c-0.1,0.4-0.4,0.7-0.8,0.7c-0.4,0-1,0-1.6-0.2c-0.6-0.2-1.1-0.5-1.6-0.8c-0.5-0.3-0.9-0.6-1.1-0.8
			c-0.5-0.2-0.9-0.4-1.1-0.6c-0.2-0.2-0.5-0.5-1-0.9c-0.2-0.2-0.4-0.3-0.5-0.5c-0.1-0.2-0.2-0.3-0.3-0.4l-0.8-0.8
			c-0.2-0.2-0.4-0.5-0.7-0.7c-0.2-0.2-0.4-0.5-0.7-0.8c-0.3-0.3-0.6-0.7-0.9-1c-0.2-0.4-0.6-0.5-1.1-0.4c-0.9-1.3-2-2.5-3.1-3.7
			s-2.2-2.3-3.2-3.5c-0.1,0.4-0.3,1-0.4,1.7c-0.1,0.7-0.2,1.4-0.4,2.2c-0.1,0.5-0.3,0.9-0.4,1.4c-0.1,0.5-0.1,0.9-0.1,1.2
			c-0.2,0-0.3,0.1-0.3,0.2c-0.1,0.2-0.1,0.2-0.1,0.3c0.1,0-0.1,0-0.4-0.1c-0.2,0.5-0.2,1-0.3,1.6c0,0.5-0.1,1-0.2,1.7
			c0,0.3-0.1,0.6-0.2,0.8c-0.2,0.2-0.2,0.5-0.2,0.7c0,0.1,0,0.2,0.1,0.3c0.1,0.2,0.2,0.3,0.2,0.4c0.1,1.3-0.1,2.6-0.5,3.8
			c-0.4,1.2-0.5,2.5-0.5,3.8c-0.5,0-0.7,0.4-0.7,1c-0.7,0.2-1.4,0.3-2.1,0.3c-0.7,0-1.2-0.1-1.6-0.5c-0.1-0.2-0.2-0.3-0.4-0.6
			c-0.2-0.2-0.3-0.4-0.4-0.7c-0.1-0.1-0.2-0.2-0.4-0.2c-0.1-0.1-0.2-0.1-0.3-0.2c-0.2-0.5-0.5-1.1-0.8-1.9c-0.2-0.8-0.4-1.4-0.4-2
			c0.2,0,0.3,0.1,0.2,0.4c0,0.3,0.1,0.5,0.3,0.5c0.1-0.2,0.1-0.5-0.2-0.9c-0.2-0.4-0.2-0.8-0.1-1.2c0-0.1,0-0.2,0.1-0.3
			c0.1-0.1,0.1-0.2,0.1-0.3s0-0.2-0.2-0.4c-0.1-0.1-0.1-0.2-0.2-0.3c0-0.1,0.1-0.1,0.2-0.2c0.1,0,0.2-0.1,0.2-0.2
			c-0.2-0.3-0.2-0.7-0.2-1c-0.1-0.2-0.1-0.5-0.1-0.7c0.1-0.2,0-0.4-0.1-0.7c0.2,0.7,0.4,1.4,0.4,2.1c0,0.7,0.2,1.3,0.4,1.9
			c0.1-0.2,0.1-0.5,0.1-0.9s-0.1-0.7-0.4-0.8c0.4-0.6,0.4-1.3,0.2-2.1c-0.2-0.8-0.2-1.5-0.2-2.3c0-0.1,0-0.2,0.1-0.2
			c0.1-0.1,0.2-0.1,0.2-0.2c0-0.7,0.1-1.3,0.1-2c0-0.6,0-1.2,0-1.9c0-0.9,0-1.9,0.2-3.1c0.1-1.2,0.2-2.3,0.1-3.4
			c0-0.1,0-0.1-0.1-0.2c0-0.1-0.1-0.2-0.1-0.3c0-0.1,0-0.1,0.1-0.2c0.1-0.1,0.1-0.2,0.1-0.3c0.2-0.7,0.4-1.5,0.3-2.4
			c0-0.9,0-1.7,0.1-2.2c0-0.1,0.1-0.2,0.2-0.2h0.2c0,0-0.1-0.2-0.2-0.3c0-0.2,0.1-0.2,0.5-0.2c0-0.2-0.1-0.3-0.2-0.2
			c-0.2,0-0.3-0.1-0.4-0.2c0.1-0.2,0.2-0.4,0.2-0.5c0-0.2,0.2-0.3,0.4-0.4c-0.2-0.2-0.3-0.5-0.2-0.7s0.3-0.4,0.4-0.7
			c0-0.2,0-0.4-0.1-0.6C101.9-99.4,102-99.5,102.2-99.4L102.2-99.4z M103.8-110c-0.1,0.3-0.2,0.7-0.3,1c-0.1,0.3-0.1,0.6-0.1,1
			c-0.1,0.2-0.2,0.5-0.2,0.8c0,0.2,0.1,0.4,0.2,0.6c0.3-1,0.6-2.1,0.8-3.3c0.2-1.2,0.4-2.3,0.5-3.4c-0.2,0.5-0.4,1.1-0.5,1.7
			S103.9-110.6,103.8-110z M103.7-110.5c-0.1-0.1-0.1-0.2-0.1-0.2c0.1,0,0.1-0.1,0-0.2c0,0.1,0,0.1-0.2,0.1c0-0.1-0.1,0-0.2,0.1
			c0.2,0,0.2,0.1,0.2,0.2C103.4-110.4,103.5-110.4,103.7-110.5z M101.6-94.2c0-0.1,0-0.2,0-0.3c0-0.2,0-0.2-0.2-0.1
			c-0.1,0.2-0.1,0.4,0,0.4C101.5-94.1,101.5-94.1,101.6-94.2z M101.3-93.3c0.1-0.1,0.1-0.1,0.1-0.2c0-0.1,0-0.1-0.1,0
			C101.2-93.4,101.2-93.3,101.3-93.3C101.3-93.2,101.3-93.2,101.3-93.3z M102.3-103.6c0.1,0.2,0.1,0.4,0,0.5c0,0.2-0.1,0.4-0.2,0.6
			c0,0.2,0,0.4,0,0.8c0.1,0.3-0.1,0.5-0.4,0.6c0.2-0.4,0.3-0.8,0.4-1.2C102.1-102.8,102.2-103.2,102.3-103.6z"/>
		<path id="path3429" class="st0" d="M172.7-87.3c0,0.2-0.1,0.5-0.2,0.8c-0.1,0.3-0.2,0.6-0.4,1c-0.2,0.4-0.4,0.7-0.7,1
			c-0.2,0.3-0.4,0.5-0.4,0.7c-0.3,0.6-0.8,1.2-1.6,2.1c-0.8,0.9-1.5,1.5-2.2,2c-0.2,0.2-0.3,0.3-0.4,0.6c-0.1,0.2-0.3,0.4-0.4,0.5
			c-0.2,0.1-0.5,0.2-0.7,0.4c-0.1,0.2-0.3,0.3-0.5,0.5c-0.2,0.1-0.4,0.3-0.4,0.4c-0.1,0-0.2,0.2-0.4,0.4c-0.1,0-0.2,0.1-0.4,0.1
			c-0.1-0.1-0.3,0-0.4,0.1c-0.1,0.1-0.1,0.2-0.1,0.3c0,0.1,0,0.1-0.1,0.2c-1.4,1.2-2.9,1.8-4.3,2.1c-1.4,0.3-2.5,0.5-3.4,0.5
			c-1.8,0-3.3-0.1-4.6-0.4c-1.2-0.2-2.3-0.7-3.1-1.3c-0.8-0.7-1.4-1.5-1.9-2.6c-0.4-1.2-0.6-2.6-0.7-4.3c-0.2-0.2-0.5-0.2-0.7,0
			c-0.2,0.2-0.3,0.4-0.5,0.6c-0.2,0.3-0.5,0.7-0.8,1.1s-0.7,0.9-1.2,1.3c-0.4,0.5-0.9,0.9-1.4,1.3c-0.5,0.3-0.9,0.6-1.4,0.6
			c-0.7,0.1-1.4,0-2.2-0.2c-0.8-0.3-1.6-0.6-2.3-0.8c-0.7-0.4-1.2-0.8-1.4-1.2c-0.3-0.4-0.6-1-1.1-1.7c0.2-0.2,0.3-0.6,0.2-1.1
			c0-0.5,0.1-0.8,0.4-0.8c0.1-0.3,0.1-0.5-0.1-0.6c-0.2-0.1-0.2-0.3-0.1-0.6c0.8-1.2,1.4-2.5,2.1-3.7c0.6-1.2,1.5-2.3,2.4-3.2
			c0.7-0.6,1.4-1.2,1.9-1.7c0.6-0.4,1.1-0.8,1.5-1.1c0.5-0.3,0.8-0.4,1-0.4c0.4,0,0.8-0.2,1.1-0.5c0.3-0.3,0.7-0.6,1.1-0.8
			c0.3-0.2,0.7-0.4,1.1-0.5c0.4-0.2,0.9-0.3,1.2-0.6c0.8,0.1,1.4,0.3,1.8,0.7c0.4,0.3,1,0.6,1.7,0.8c0.4-0.3,0.7-0.7,0.8-1.3
			c0.1-0.5,0.4-1,0.8-1.3c1.4-0.2,2.7-0.1,3.7,0.4c1.1,0.4,1.8,1.1,2.4,2c0.1,0.8,0,1.5-0.1,2.2c-0.2,0.7-0.4,1.4-0.7,2.2
			c-0.3,0.7-0.6,1.4-1.1,2.2c-0.4,0.7-0.8,1.4-1.1,2.2c-0.1,0.3-0.2,0.6-0.4,0.9c-0.1,0.3-0.2,0.7-0.3,1c-0.2,0.7-0.5,1.5-0.8,2.4
			c-0.2,0.9-0.3,1.8-0.3,2.8c0,0.6,0.1,1.1,0.2,1.7c0.2,0.6,0.4,1.1,0.7,1.5c0.7,0.2,1.2,0.4,1.7,0.4c0.6,0,1.1-0.1,1.5-0.2
			c0.5-0.1,1-0.3,1.4-0.6c0.5-0.3,1-0.6,1.6-0.9c0.5-0.3,0.8-0.5,1.1-0.7s0.4-0.3,0.6-0.5c0.2-0.1,0.4-0.3,0.5-0.4
			c0.2-0.2,0.4-0.3,0.8-0.6c0.1-0.1,0.2-0.2,0.2-0.4s0.1-0.3,0.2-0.4c0.1-0.1,0.2-0.1,0.3-0.2s0.2-0.1,0.3-0.2
			c0.4-0.3,0.9-0.8,1.5-1.3c0.7-0.6,1.3-1.1,1.9-1.7c0.7-0.6,1.4-1.2,1.9-1.7c0.7-0.6,1.2-1,1.6-1.4c0.3-0.3,0.7-0.5,1-0.5
			c0.3-0.1,0.5,0,0.8,0.2L172.7-87.3L172.7-87.3z M147.5-91.9c0.1,0,0.1,0,0.1-0.1c0-0.1-0.1-0.2-0.4-0.2c-1.6,1.1-3,2.3-4.1,3.8
			c-1.1,1.5-2.2,3.1-3.2,4.7c1.1-0.4,2.1-1.1,2.9-2c0.8-0.9,1.6-1.8,2.3-2.5c0.5-0.6,0.9-1.1,1.4-1.7
			C147-90.5,147.3-91.2,147.5-91.9z"/>
		<path id="path3431" class="st0" d="M207-81.9c-0.2,0.1-0.4,0.3-0.9,0.5c-0.4,0.2-0.9,0.5-1.4,0.8c-0.6,0.3-1.2,0.6-1.8,0.9
			c-0.2,0.1-0.5,0.2-0.9,0.4c-0.3,0.2-0.7,0.3-1.1,0.5c-0.3,0.2-0.6,0.3-0.9,0.4s-0.5,0.1-0.7,0.1c-0.6,0.4-1.2,0.7-1.7,0.8
			c-0.4,0.1-1.2,0.3-2.1,0.6c-0.3,0.1-0.6,0.2-0.8,0.3c-0.1,0.1-0.2,0.1-0.3,0.2c0,0.1-0.1,0.1-0.2,0.2c-0.1,0-0.2,0-0.5,0.2
			l-1.3,0.4c-0.1,0-0.4,0.2-0.8,0.3c-0.3,0.1-0.6,0.2-0.7,0.2c-0.1,0-0.3,0-0.7,0.1c-0.3,0.1-0.6,0.2-0.7,0.3
			c-0.4,0.2-0.8,0.3-1,0.3c-0.1,0-0.3,0-0.4-0.1c-0.1-0.1-0.2-0.1-0.4-0.1c-0.2,0-0.4,0.1-0.8,0.3c-0.4,0.3-0.9,0.5-1.4,0.7
			c-0.5,0.2-0.9,0.3-1.4,0.4c-0.7,0.2-1.5,0.4-2.3,0.6c-0.8,0.2-1.6,0.3-2.5,0.3c-0.4,0-0.9,0-1.4-0.1c-0.4,0-0.8-0.2-1.3-0.4
			c-0.3-0.2-0.6-0.5-0.8-0.8c-0.2-0.3-0.6-0.5-1.1-0.6c-0.2,0.1-0.2,0.2-0.3,0.4c0,0.2-0.1,0.4-0.2,0.5c-0.3,0.4-0.7,0.7-1.1,0.8
			c0,0.3-0.1,0.6-0.1,0.8c-0.1,0.2-0.2,0.4-0.3,0.5c-0.1,0.2-0.2,0.4-0.3,0.6c-0.1,0.2,0,0.5,0.1,0.8c-0.5,0.6-0.9,1.2-1.1,1.8
			c-0.2,0.7-0.3,1.5-0.6,2.3c-0.2,0.7-0.5,1.4-0.8,2.2c-0.3,0.8-0.6,1.5-0.8,2.3c0-0.6,0-1.2,0.2-1.9c0.2-0.6,0.4-1.2,0.6-1.8
			c0.2-0.6,0.4-1.2,0.6-1.8c0.1-0.6,0.2-1.2,0.2-1.7c0.1-0.2,0.2-0.5,0.3-0.8c0.2-0.3,0.3-0.6,0.4-0.8c-0.1-0.2-0.3-0.2-0.4,0.2
			c-0.1,0.3-0.2,0.6-0.3,0.7c-0.2,0.2-0.2,0.5-0.3,0.7c0,0.2-0.1,0.4-0.1,0.6c-0.4,0.7-0.7,1.3-0.9,2c-0.2,0.6-0.4,1.3-0.7,2.2
			c-0.1,0.2-0.1,0.3-0.1,0.5c0,0.1,0,0.2-0.1,0.3c-0.2,0.3-0.3,0.6-0.4,0.9c-0.1,0.3-0.2,0.6-0.4,1c-0.1,0.6-0.2,1.1-0.4,1.4
			c-0.1,0.3-0.1,0.7-0.1,1c0,0.5,0,0.9-0.1,1.2c0,0.2-0.1,0.5-0.2,0.7c-0.1,0.2-0.2,0.4-0.3,0.7c-0.2,1.8-0.4,3.4-0.4,5
			c0,1.6-0.1,3-0.1,4.4c0.1,0,0.1,0,0.1,0.2c0,0.1,0,0.2,0,0.3c0.1,0,0.1,0,0.1-0.2c0.1-0.2,0.2-0.3,0.2-0.2s0.1,0.2,0,0.3
			c-0.1,0.1-0.1,0.2-0.1,0.4c0,0.1-0.1,0.2-0.2,0.1c0.1,0.6,0.2,1,0.4,1.4c0.1,0.5,0.2,1,0.3,1.7c0.1,0.2,0.2,0.5,0.3,0.8
			c0,0.4,0.1,0.8,0.2,1.3c-0.9,0.5-1.6,0.5-2.1,0.1c-0.6-0.4-1-1.1-1.4-2.1c-0.5-1.1-0.8-2.1-0.8-2.9c-0.3-0.8-0.4-1.9-0.4-3.2
			c-0.1-1.2-0.1-2.5-0.1-3.8c0.1-3.5,0.5-7,1.1-10.2c0.5-3.3,1.2-6.4,2.1-9.5c0.6-3,1.3-5.9,2.2-8.6c0.9-2.8,1.8-5.5,2.8-8.4
			c0.6-1.5,1.1-3,1.4-4.3c0.4-1.4,0.7-2.8,1-4.3c-0.1,0-0.1-0.1-0.1-0.1v-0.1c-0.1-0.8-0.1-1.4-0.2-2.1c0-0.7-0.2-1.4-0.4-2.1
			c0.8-0.2,1.5-0.2,2.2-0.1c0.7,0.1,1.3,0.3,1.9,0.9c-0.1-0.1,0.1,0,0.3,0.1c0.3,0.1,0.5,0.2,0.8,0.4c0.3,0.2,0.5,0.3,0.8,0.5
			c0.2,0.2,0.3,0.3,0.1,0.5c0.1-0.2,0.2-0.2,0.3-0.2c0.1,0,0.3,0.1,0.5,0.2c-0.1,0.2-0.1,0.4,0.1,0.6c0.2,0.2,0.2,0.5,0.3,1.1
			c0.1,0.2,0.2,0.2,0.4,0c0.2-0.2,0.3-0.1,0.3,0.2c0,0.2,0.1,0.4,0.3,0.5c0.2,0,0.4,0.2,0.4,0.4c0.1,0.6,0.2,1.2,0.1,1.8
			c-0.1,0.6-0.1,1.2-0.1,1.7c0.6-0.2,1.3-0.4,2.1-0.7c0.8-0.3,1.7-0.6,2.6-0.8c0.9-0.2,1.9-0.4,2.9-0.5c1.1-0.1,2.1-0.1,3.1,0
			c0.6,0.2,1.2,0.4,1.7,0.5c0.5,0.1,1,0.3,1.4,0.8c0.2,0.1,0.4,0.2,0.4,0.4c0.1,0.1,0.2,0.1,0.3,0.1l1.6,1c0.1,0,0.1,0.1,0.1,0.2
			c0,0.1,0,0.2,0.1,0.3c0.2,0.1,0.3,0.2,0.4,0.6c0.2,0.3,0.3,0.7,0.4,1c0.1,0.8,0.1,1.8,0,3.1c-0.1,1.3-0.7,2.6-1.8,3.9
			c0.2,0,0.2,0.1,0.1,0.4c-0.1,0.2-0.2,0.6-0.4,0.9c-0.1,0.3-0.3,0.6-0.4,0.8c-0.1,0.2,0,0.4,0.2,0.4c0.5-0.1,1.4-0.3,2.6-0.8
			c1.2-0.5,2.6-1.1,4.1-1.7c1.5-0.7,2.9-1.4,4.4-2.2s2.5-1.5,3.4-2.2c0.2-0.1,0.3-0.2,0.5-0.3c0.4-0.2,0.6-0.2,0.8-0.2
			c0.1,0.1,0,0.3-0.1,0.6c-0.1,0.3-0.2,0.7-0.3,1.1c-0.2,0.4-0.3,0.9-0.5,1.5c-0.4,0.4-0.7,0.8-0.8,1c-0.1,0.2-0.3,0.2-0.3,0.3
			c0,0.1-0.1,0.1-0.1,0.1c0-0.1-0.1,0-0.2,0.2c-0.2,0.2-0.7,0.6-1.3,1C207.7-82.4,207.2-82.1,207-81.9L207-81.9z M192.9-88.6
			c0.1-0.1,0.2-0.3,0.4-0.6c0.2-0.3,0.3-0.7,0.2-1.1c-1.3,0-2.6,0.2-4,0.8c-1.3,0.5-2.6,0.9-3.8,1.4c-0.2,0.2-0.5,0.3-0.8,0.4
			c-0.2,0.1-0.6,0.2-1,0.4l-0.1,0.2l-0.7,0.2c-0.4,0.3-0.7,0.6-1,0.9c-0.2,0.2-0.6,0.5-1.1,0.8c-0.4,0.2-0.8,0.4-1.1,0.6
			s-0.5,0.3-0.6,0.6c0,0.1-0.1,0.2-0.2,0.2c-0.1,0-0.1,0-0.1,0.1c-0.1,0.1-0.1,0.2-0.1,0.3c0.1,0,0.1,0.1,0.1,0.2
			c-0.1,0.2-0.3,0.2-0.4,0.3c-0.1,0-0.2,0.1-0.2,0.1c-0.2,0.5-0.5,1.1-0.6,1.7c-0.1,0.6-0.4,1.1-0.8,1.4c0.6-0.1,1.1-0.3,1.6-0.6
			c0.6-0.3,1.1-0.6,1.6-0.7c0.2-0.1,0.5-0.1,0.8-0.1c0.3-0.1,0.5-0.1,0.6-0.2c0.2-0.1,0.4-0.2,0.4-0.4c0.1-0.1,0.2-0.3,0.4-0.5
			c0.1,0,0.1,0,0.2,0.1s0.2,0,0.2-0.1c0.1-0.1,0.3-0.2,0.5-0.4c0.2-0.2,0.4-0.3,0.7-0.3c0.5-0.4,1.1-0.8,1.7-1.1
			c0.7-0.3,1.3-0.7,1.9-1.1c1.4-0.4,2.4-1,3-1.7c0.5-0.3,0.8-0.6,1-0.8C192.3-87.9,192.5-88.2,192.9-88.6L192.9-88.6z"/>
		<path id="path3433" class="st0" d="M228.6-119.7c-0.2,0.7-0.5,1.4-0.9,2.2c-0.4,0.7-0.8,1.5-1.3,2.3c-0.3,0.8-0.6,1.6-1,2.4
			c-0.3,0.9-0.6,1.7-0.8,2.6c0.1,0.2,0.2,0.4,0.4,0.4c0.2,0,0.4,0,0.5-0.1c0.8,0.1,1.4,0.2,1.8,0.2c0.5-0.1,1.1-0.1,1.8-0.1
			c0.6,0.1,1.2,0.2,1.8,0.2c0.7,0.1,1.3,0.1,2,0.1c2.1,0.1,4.1,0.3,6.3,0.5c2.2,0.2,4.3,0.7,6.2,1.3c-0.2,0.1-0.4,0.2-0.4,0.3
			c0.1,0.1,0.1,0.2,0.1,0.4c-0.1,0.1-0.2,0.1-0.3,0.2c-0.1,0.1-0.2,0-0.3-0.1c-0.1,0.2,0,0.3,0.1,0.2c0.1-0.1,0.1-0.1,0.1,0.1
			c-0.8,0-1.5,0-2.3,0c-0.8-0.1-1.5,0-2.2,0.1c-0.4,0-0.8,0-1.1,0c-0.3-0.1-0.7,0-1.1,0.1c-0.5,0-1.1,0.1-1.8,0.1
			c-0.6,0-1.2,0-1.9-0.1c-0.8,0.1-1.7,0.2-2.5,0.3c-0.8,0.1-1.5,0.1-2.3,0.2c-0.2,0.1-0.5,0.1-0.8,0c-0.1,0.1-0.2,0.1-0.4,0.1
			c-0.1-0.1-0.2-0.1-0.3-0.1c0,0-0.1,0-0.1,0.1c0,0,0,0.1-0.1,0.1c-0.2,0.1-0.5,0.2-0.7,0.2c-0.2,0-0.4,0.1-0.6,0.1
			c-0.3-0.1-0.7-0.1-1.1,0.1c-0.4,0.1-0.7,0.2-1,0.2c-0.7-0.1-1.2,0-1.4,0.2c-0.1,0.2-0.3,0.5-0.7,1.1c-0.3,0.5-0.5,1-0.6,1.3
			c-0.1,0.2-0.2,0.4-0.2,0.6c0,0.2-0.1,0.3-0.2,0.6c-0.2,0.4-0.3,0.8-0.3,1.1c-0.1,0.3-0.2,0.8-0.4,1.3c-0.1,0.3-0.2,0.5-0.3,0.7
			c-0.1,0.1-0.1,0.3-0.1,0.4c-0.1,0-0.1,0.1-0.1,0.3c0.1,0.2,0.1,0.3,0.1,0.4c-0.2,0.2-0.3,0.5-0.4,0.8c-0.1,0.3-0.2,0.6-0.2,1
			c-0.2,0.7-0.5,1.4-0.7,2.2s-0.4,1.5-0.7,2.2c0,0.2-0.1,0.3-0.2,0.6c-0.2,0.2-0.2,0.4-0.2,0.5c-0.1,0.4-0.1,0.8-0.1,1.2
			c0,0.4-0.1,0.7-0.2,1c-0.1,0.4-0.2,0.8-0.2,1.1c0.1,0.3-0.1,0.6-0.3,0.8c-0.1,0.2-0.1,0.5-0.1,0.8s0,0.6-0.1,0.9
			c-0.1,0.2-0.1,0.6-0.1,1.1c0,0.4-0.1,0.8-0.3,1.2c-0.1,0.1-0.1,0.2-0.2,0.3c-0.1,0.1-0.1,0.2-0.1,0.2c0,0,0.1,0,0.1,0.1v0.2
			c-0.1,0.1-0.1,0.1-0.1,0.1s-0.1,0-0.1,0.1c0,0-0.1,0-0.1,0.2c0,0.2,0.1,0.3,0.1,0.4c0,0.1,0,0.1-0.1,0c0-0.1-0.1-0.1-0.1,0
			c-0.1,0.4-0.3,0.8-0.3,1.3c0,0.5,0,0.9-0.1,1.1l-0.1,0.2c0,0.2,0,0.4,0,0.7c0,0.2,0.1,0.4,0.1,0.7c-0.1,1.4-0.1,2.7,0.1,3.8
			c0.2,1.2,0.7,2.2,1.2,2.9c0.1,0.2,0.1,0.2,0,0.2c0-0.1-0.1-0.1-0.1,0.2c0.3,0.3,0.6,0.7,0.8,1c0.2,0.4,0.6,0.5,1.2,0.4
			c0.4,0.1,0.8,0.1,1.1-0.1c0.3-0.2,0.6-0.4,0.9-0.7c0.1-0.1,0.1-0.2,0.1-0.4c0.1-0.2,0.2-0.3,0.4-0.5c0.2,0.2,0.2,0.5,0,0.7
			c-0.1,0.2-0.2,0.4-0.2,0.6c-0.1,0.1-0.2,0.2-0.2,0.3c0,0.1,0,0.1-0.1,0.1c-0.1,0.2-0.4,0.4-0.8,0.6c-0.1,0.2-0.3,0.5-0.5,0.7
			c-0.2,0.2-0.5,0.5-0.9,0.8c-0.3,0.2-0.5,0.3-0.7,0.4c-0.1,0.2-0.5,0.3-0.9,0.4c-1,0.2-2,0.1-3.1-0.4c-1.1-0.5-2-1.1-2.6-1.8
			c-0.1-0.2-0.2-0.4-0.3-0.5c0-0.1-0.1-0.3-0.4-0.8c0-0.2-0.1-0.5-0.3-0.8c-0.2-0.2-0.4-0.5-0.6-0.7c-0.1-0.2-0.1-0.4-0.1-0.7
			c-0.1-0.2-0.1-0.4-0.1-0.6c-0.1-0.2-0.2-0.6-0.2-0.9c-0.1-0.3-0.2-0.6-0.3-0.8c0-0.4-0.1-1-0.1-1.6c-0.2-0.6-0.2-1.2-0.3-1.7
			c-0.1-0.6-0.1-1.1-0.1-1.7c0-0.6,0-1.2,0-1.7c0-0.1,0-0.2-0.1-0.3c-0.1-0.2-0.1-0.3-0.1-0.4c0-0.1,0-0.2,0.1-0.2
			c0-0.1,0-0.2,0-0.3c0.3-0.4,0.4-0.7,0.2-0.8c-0.1-0.2-0.1-0.7,0.1-1.3c0.1-0.7,0.3-1.3,0.4-1.7c0-0.2,0.1-0.5,0.1-0.6
			c0.1-0.2,0.1-0.4,0.1-0.7c0.1-0.3,0.2-0.8,0.2-1.4c-0.1-0.7,0-1.1,0.1-1.3c0.1-0.2,0.1-0.3,0.2-0.6s0.1-0.4,0.1-0.5
			c0.2-0.7,0.4-1.2,0.4-1.6c0.1-0.4,0.2-0.8,0.4-1.3c-0.1,0.1-0.3,0.4-0.6,0.9c-0.2,0.5-0.4,0.8-0.6,1h-0.4c0.1,0.1,0.1,0.2,0.1,0.4
			c-0.2,0.4-0.5,0.8-0.8,1.3c-0.3,0.4-0.5,0.8-0.7,1.2c0-0.5,0.2-1,0.5-1.6c0-0.2,0.1-0.4,0.1-0.8c0.1-0.1,0.2-0.2,0.3-0.3
			c0-0.1,0-0.2,0-0.3c0.1-0.1,0.1-0.2,0.1-0.3c0-0.2,0-0.3,0-0.4c0-0.1,0.1-0.2,0.1-0.2c0.1,0,0.1-0.1,0.1-0.2
			c0.1-0.1,0.1-0.1,0.1-0.2c-0.1-0.1-0.1-0.2-0.1-0.2c0.1-0.1,0.2-0.2,0.3-0.2c0.1,0,0.1-0.2,0-0.3c0.1-0.1,0.1-0.2,0.1-0.4
			s0-0.3,0.1-0.5c-0.1-0.1-0.1-0.2,0-0.2c0.1-0.1,0.1-0.2,0.1-0.4c0.1-0.2,0.2-0.3,0.1-0.5c0.1-0.1,0.1-0.2,0.1-0.2
			c0.1-0.1,0.1-0.2,0.1-0.3c0.1-0.2,0.1-0.3,0-0.4c0-0.1,0-0.2,0-0.3c0-0.1,0-0.1,0.1-0.2c0.1-0.1,0.2-0.3,0.2-0.5
			c0.1-0.2,0.1-0.4,0.1-0.5c-0.1-0.2,0-0.3,0.1-0.5c0.1-0.1,0.2-0.2,0.3-0.3c0.1-0.2,0.1-0.3,0.1-0.5c0-0.2,0-0.4,0-0.5
			c0-0.1,0-0.3,0.1-0.5c0.1-0.2,0.2-0.3,0.3-0.4c0.1-0.1,0.3-0.1,0.3-0.2c0-0.1,0-0.1,0-0.2s0-0.2,0-0.3c0.2-0.2,0.2-0.2,0.2-0.2
			c0.1-0.2,0.1-0.3,0.1-0.4c0-0.2,0-0.3,0-0.4c0-0.1,0.1-0.2,0.4-0.4c-0.1-0.1-0.1-0.2-0.1-0.3s0.1-0.2,0.1-0.2
			c0.1-0.4,0.2-0.7,0.3-0.9c0.2-0.2,0.2-0.4,0.3-0.7c-0.1,0-0.1,0,0,0c0.1-0.1-0.2,0-1,0.2c-0.8,0.1-1.6,0.1-2.3,0.2
			c-0.8,0-1.5,0.1-2.2,0.2c-1,0-2,0-2.9,0c-0.9,0-1.8-0.1-2.5-0.4c-0.2,0-0.4,0-0.6-0.1c-0.2-0.1-0.4-0.1-0.8-0.2
			c-0.4-0.2-0.9-0.5-1.2-0.6c-0.4-0.2-0.8-0.5-1.1-0.9c-0.3-0.2-0.6-0.4-0.9-0.6c-0.4-0.2-0.6-0.4-0.7-0.7c-0.1-0.1-0.1-0.2-0.1-0.4
			c0-0.2-0.1-0.3-0.1-0.4c0.5,0.1,1.1,0.1,1.6,0c0.5-0.1,1-0.3,1.4-0.4c0.9-0.4,1.9-0.7,2.9-0.8c1.1-0.2,2.1-0.4,3.1-0.7
			c1.8-0.2,3.5-0.4,5.2-0.6c1.8-0.2,3.7-0.2,5.8-0.2c0.5-0.1,0.7-0.1,0.5,0c-0.1,0-0.1-0.1,0.1-0.2c0.2-0.1,0.2-0.2,0.2-0.3
			c0.1-0.1,0.1-0.3,0.2-0.5c0-0.2,0.1-0.4,0.2-0.5c0.2-0.1,0.3-0.2,0.4-0.3c0-0.1,0.1-0.2,0.1-0.3s0-0.2,0.1-0.3
			c0-0.1,0.1-0.1,0.1-0.2c0.2-0.1,0.2-0.2,0.3-0.3c-0.1-0.2-0.1-0.3-0.1-0.4l0.2-0.2c0.5-0.4,0.8-0.7,0.8-1c0.6-1.1,1.4-2.4,2.3-3.8
			c0.2-0.2,0.3-0.5,0.4-0.8c0.1-0.3,0.3-0.5,0.5-0.6c0.2-0.2,0.2-0.3,0.3-0.4c0.1-0.1,0.2-0.2,0.2-0.4c0.1-0.1,0.2-0.1,0.2-0.2
			c0.1-0.2,0.1-0.2,0.1-0.3c0-0.3,0.2-0.4,0.8-0.2c0.1,0,0.1,0,0.1-0.1c0.1-0.1,0.1-0.1,0.1,0c0.2,0,0.3,0,0.4-0.1
			c0.1,0,0.2-0.1,0.4-0.1c0.1,0,0.2,0,0.3,0.2c0.2,0.1,0.3,0.1,0.4,0.1c0.1,0.1,0.2,0.2,0.3,0.4c0.2,0.1,0.4,0.2,0.6,0.4h0.1v0.2
			c0.2,0.1,0.3,0.2,0.4,0.2C228.4-120.1,228.5-119.9,228.6-119.7L228.6-119.7z"/>
		<path id="path3435" class="st0" d="M259.4-88.3c0.4,0.1,0.7,0.5,0.8,1.1c0.1,0.6,0,1.2-0.5,1.7c-0.1,0.2-0.3,0.5-0.5,0.9
			c-0.2,0.3-0.4,0.6-0.6,0.8c-0.1,0.1-0.3,0.2-0.6,0.4c-0.2,0.2-0.4,0.3-0.4,0.4c-0.2,0.1-0.4,0.2-0.7,0.5c-0.2,0.3-0.4,0.5-0.5,0.5
			s-0.4,0.2-0.7,0.5c-0.4,0.2-0.6,0.4-0.8,0.5c-0.6,0.2-0.9,0.5-1,0.8c-0.1,0.2-0.4,0.5-0.9,0.8c-0.3,0.1-0.8,0.2-1.2,0.4
			c-0.4,0.2-0.8,0.4-1,0.6c-0.3,0.2-0.7,0.4-1,0.4s-0.6,0.2-0.8,0.6c-0.3-0.1-0.6,0-1,0.2c-0.3,0.2-0.8,0.3-1.2,0.4
			c-0.2,0.1-0.5,0.2-0.9,0.2c-0.3,0.1-0.6,0.1-0.9,0.1c-1.1,0.5-2.2,0.8-3.5,0.8c-0.7,0.1-1.4,0.1-2.3,0c-0.2-0.1-0.3-0.1-0.4-0.1
			c-0.1,0-0.2-0.1-0.4-0.1c-0.5-0.2-0.9-0.3-1.4-0.3c-0.4,0-0.9-0.2-1.3-0.3c-0.1,0-0.2-0.1-0.5-0.2c-0.2-0.2-0.5-0.3-0.8-0.4
			c-0.3-0.2-0.6-0.3-0.9-0.4c-0.2-0.2-0.4-0.2-0.4-0.2c-0.2-0.1-0.5-0.3-0.7-0.5c-0.2-0.3-0.4-0.6-0.6-0.9c-0.2-0.3-0.3-0.7-0.5-0.9
			c-0.2-0.3-0.4-0.5-0.6-0.7c-0.1-0.1-0.2-0.1-0.3,0c-0.2,0-0.3,0-0.4-0.1c-0.2-0.1-0.2-0.2-0.3-0.4c-0.1-0.2-0.2-0.3-0.2-0.5
			c-0.1-0.4,0-0.8,0.1-1.2c0.2-0.4,0.2-0.7,0.1-1c0.1-0.1,0.2-0.1,0.3-0.1c0.1,0,0.2-0.1,0.3-0.3c-0.3-0.2-0.4-0.6-0.4-1.1
			c0-0.5,0.1-1,0.3-1.5c0.2-0.5,0.3-1,0.5-1.4c0.2-0.4,0.4-0.8,0.4-1c0-0.3,0.1-0.6,0.1-0.8s0-0.4,0.1-0.5c0.1-0.2,0.2-0.3,0.4-0.4
			c0.2-0.2,0.4-0.3,0.4-0.4c0.1-0.4,0.3-0.8,0.5-1.1c0.2-0.5,0.6-1,1.1-1.5c0.5-0.6,1-1.1,1.6-1.7c0.2-0.3,0.5-0.6,0.8-0.8
			c0.3-0.2,0.6-0.6,1-0.9c0.4-0.2,0.7-0.3,1-0.4c0.2-0.2,0.6-0.4,0.9-0.7c0.7-0.6,1.6-0.9,2.4-0.8c0.9,0,1.6,0.1,2.3,0.3
			c0.2,0.1,0.4,0.2,0.5,0.4c0.1,0.2,0.2,0.3,0.4,0.4c0.1,0.1,0.2,0.1,0.2,0.1c0.1-0.1,0.2-0.2,0.4-0.2c0.3,0.1,0.6,0.2,1,0.4
			c0.4,0.2,0.8,0.4,1.1,0.7c0.4,0.2,0.7,0.5,1,0.8c0.3,0.2,0.5,0.5,0.5,0.7c0,0.1,0.1,0.2,0.2,0.3s0.2,0.2,0.2,0.3
			c0.2,0.7,0.2,1.2-0.1,1.6c-0.2,0.3-0.3,0.6-0.5,1c-0.4,0.4-0.8,0.8-1.1,1.1c-0.3,0.2-0.6,0.5-0.8,0.9c0,0.1-0.1,0.2-0.5,0.5
			c-0.2,0.2-0.4,0.4-0.5,0.5c-0.4,0.4-0.9,0.7-1.4,1c-0.5,0.2-1,0.6-1.4,1c-0.1,0.1-0.2,0.2-0.4,0.4c-0.2,0.1-0.4,0.2-0.7,0.4
			c-0.3,0.2-0.6,0.4-1,0.6c-0.1,0.1-0.2,0.2-0.5,0.2c-0.2,0.1-0.4,0.1-0.5,0.2c-0.1,0.1-0.4,0.3-0.6,0.6c-0.3,0.2-0.6,0.4-1,0.6
			c-0.1,0.1-0.2,0.2-0.4,0.2c-0.2-0.1-0.2,0-0.3,0.1c-0.2,0.1-0.5,0.3-0.8,0.5s-0.5,0.3-0.9,0.3c-0.1,0.2-0.2,0.5-0.3,0.9
			c0,0.4,0,0.8,0,1.3c0.1,0.5,0.3,0.9,0.5,1.3c0.3,0.3,0.8,0.6,1.4,0.6c0.1,0,0.3,0.1,0.8,0.2c0.4,0.1,0.7,0.2,0.8,0.3
			c0.8,0,1.7,0,2.6-0.2c1-0.2,1.9-0.4,2.8-0.5c1.9-0.4,3.8-1.1,5.5-1.9c1.8-0.8,3.4-1.7,4.7-2.6c0.2-0.2,0.4-0.3,0.5-0.3
			c0.1-0.1,0.2-0.1,0.5-0.2c0.2-0.1,0.5-0.3,0.9-0.5c0.4-0.3,0.8-0.6,1.1-0.9c0.4-0.3,0.8-0.7,1-1C259.2-87.6,259.4-88,259.4-88.3
			L259.4-88.3z M237.9-87.5c0.8-0.4,1.6-1,2.4-1.7c0.8-0.7,1.5-1.3,2.4-1.9c0.3-0.2,0.6-0.5,0.9-0.8c0.3-0.3,0.6-0.6,0.7-0.8
			c0.1-0.2,0.1-0.4,0.1-0.6c0-0.2-0.1-0.3-0.1-0.4c-0.1-0.1-0.3-0.1-0.5-0.1c0,0-0.1,0-0.1,0.1c-1.2,0.7-2.3,1.6-3.4,2.7
			c-1.1,1.1-2,2.2-2.9,3.4c0,0.2,0,0.2,0.1,0.2C237.7-87.4,237.8-87.5,237.9-87.5L237.9-87.5z"/>
		<path id="path3437" class="st0" d="M278.9-97.1c0.1,1.2,0.2,2.4,0.2,3.6c0,1.2-0.1,2.3-0.3,3.3c-0.1,0.2-0.2,0.6-0.5,1
			c-0.2,0.4-0.3,0.7-0.4,1c-0.2,0.8-0.3,1.5-0.5,2.3c-0.1,0.8-0.3,1.5-0.5,2.3c-0.1,0.4-0.3,0.8-0.5,1.1c-0.1,0.4-0.2,0.7-0.3,1.1
			c-0.2,0.8-0.5,1.6-0.8,2.2c-0.2,0.7-0.4,1.4-0.6,2.2v1.3c-0.1,0.4-0.2,0.9-0.3,1.5c0,0.5,0,1.1,0.3,1.6c0.1,0.2,0.2,0.3,0.5,0.6
			s0.4,0.5,0.7,0.7c0.3,0.2,0.6,0.3,1,0.4c0.4,0.1,0.8,0.1,1.2,0c-0.1,0.2-0.1,0.5-0.1,0.8c0,0.3-0.1,0.5-0.4,0.8
			c-0.1,0-0.2,0.1-0.4,0.1c-0.1,0-0.2,0-0.3,0c-0.1,0.1-0.2,0.2-0.2,0.3s-0.1,0.2-0.2,0.3c-0.6,0.1-1.3,0-2.1-0.3
			c-0.8-0.3-1.4-0.6-2-0.8c-0.6-0.3-1.2-0.8-1.6-1.3c-0.4-0.5-0.8-0.8-1-1.1c0.1-0.5,0-0.9-0.4-1.4c-0.3-0.4-0.6-1-0.8-1.6
			c-0.1-0.2-0.1-0.5-0.1-0.8c0-0.4,0-0.7,0-1.1c-0.2-2.8,0-5.6,0.7-8.2c0.1-0.8,0.4-1.6,0.7-2.2c0.4-0.7,0.5-1.4,0.4-2.1
			c-0.1,0.3-0.3,0.6-0.5,0.8c-0.2,0.2-0.4,0.3-0.6,0.6c-0.1,0.1-0.2,0.2-0.2,0.5c0,0.2-0.1,0.4-0.2,0.7c-0.1,0.1-0.1,0.1-0.3,0.2
			c-0.1,0.1-0.1,0.2-0.1,0.3c-0.4,0.5-0.8,1-1,1.4c-0.3,0.5-0.6,0.9-1,1.4c-0.3,0.3-0.6,0.7-0.8,1.1s-0.6,0.7-0.9,1
			c-0.1,0.2-0.2,0.5-0.4,0.8c-0.1,0.2-0.2,0.4-0.3,0.6c-0.1,0.1-0.2,0.2-0.4,0.4c-0.1,0.1-0.3,0.3-0.4,0.5c-0.1,0.2-0.3,0.5-0.5,0.8
			c-0.1,0.2-0.3,0.4-0.4,0.6c-0.2,0.2-0.4,0.3-0.8,0.4c-0.3,0.1-0.5,0.3-0.6,0.5c-0.1,0.2-0.1,0.2-0.3,0.3c-0.2,0-0.3,0-0.5,0.1
			c-0.1,0.1-0.3,0.1-0.4,0.2c-0.1,0.1,0,0.2,0.1,0.5c-0.3-0.3-0.7-0.5-1.2-0.5c-0.5,0-1-0.1-1.5-0.2c-0.6-0.8-1-2-1-3.5
			c0-1.5,0.2-3.1,0.6-4.8c0.4-1.8,0.6-3.2,0.9-4.4c0.4-1,0.7-2.1,0.9-3.2c0.2-1.2,0.5-2.3,0.9-3.5c0.1-0.1,0.2-0.2,0.3-0.2
			c0.1-0.1,0.2-0.1,0.4-0.1c0-0.4-0.1-0.8-0.2-1.1c-0.1-0.4,0-0.6,0.4-0.7c0.2-0.1,0.5-0.1,1-0.1c0.5,0,1,0.1,1.5,0.3
			c0.5,0.1,1,0.2,1.4,0.5c0.4,0.1,0.7,0.3,0.8,0.4c0,0.1,0,0.2,0.1,0.3c0,0.1,0,0.2,0,0.2c0,0.1,0.1,0.1,0.1,0
			c0.1,0.2,0.1,0.6,0,0.9c0,0.3-0.2,0.7-0.5,1.1c-0.1,1-0.3,2-0.4,3.1c-0.1,1-0.3,2.1-0.5,3.1c0.1,0.2,0.2,0.2,0.3,0
			c0.1-0.2,0.1-0.3,0.2-0.4c0.2-0.1,0.3-0.2,0.4-0.2c0.2,0,0.3-0.1,0.5-0.3c0-0.1-0.1-0.1-0.1-0.2v-0.2c0-0.1,0-0.1,0.1,0
			c0.1,0,0.2,0,0.2-0.1c0,0,0.1-0.1,0.1-0.1c0-0.1,0-0.1,0.1-0.2c0.6-0.6,1.3-1.3,2-2.1s1.6-1.6,2.5-2.4c0.1,0,0.2-0.1,0.3-0.1
			c0.1-0.1,0.3-0.1,0.5-0.2c0.1-0.2,0.2-0.4,0.5-0.5c0.2-0.1,0.4-0.2,0.6-0.3c0,0,0-0.1,0-0.2s0-0.2,0.1-0.2
			c0.1-0.1,0.3-0.2,0.5-0.2c0.2-0.1,0.3-0.1,0.5-0.2c0.3-0.2,0.5-0.5,0.7-0.7c0.2-0.2,0.4-0.4,0.6-0.5c0.2-0.1,0.5-0.1,0.7,0.1
			c0.2,0.1,0.5,0.1,0.8,0.1c0.4,0.1,0.9,0.1,1.3,0c0.4-0.1,0.8-0.1,1.2,0c0.2,0.1,0.3,0.2,0.4,0.4C278.5-97.2,278.7-97.1,278.9-97.1
			L278.9-97.1z"/>
	</g>
</g>
</svg>
