<svg id="Ebene_1" xmlns="http://www.w3.org/2000/svg" viewBox="0 0 302 257.9"><style>.st0{fill:#f07873}</style><g id="g3400"><path id="path3402" class="st0" d="M120 116c0-.1-.1-.1-.2-.1 0-.1.1-.1.2-.1s.1 0 .1-.1c.1 0 .1.1.1.1 0 .1 0 .1.1.2-.2.1-.3.1-.3 0"/><path id="path3404" class="st0" d="M250.6 67.9l-1.9 1.2 1 1.7 1.9-1.2-1-1.7zm3.4-20.7l-13.7 10 4.8 6.5 1.2-.9-3.7-5 5.3-3.9 2.6 3.5 1.2-.9-2.6-3.5 4.7-3.4 3.5 4.8 1.2-.9-4.5-6.3zm-24.2-.9l1.3 1.3 5.6-5.6 1.8 1.6-3.8 7.6 1.4 1.4 3.9-8c1.8.9 3.5.3 4.9-1 2-2 1.8-4.5-.2-6.4l-2.9-2.9-12 12zm12.2-9.6l1.1 1.1c1.9 1.9 1.7 3.2.4 4.5-1.3 1.3-2.7 1.5-4.5-.4l-1.1-1.1 4.1-4.1zm-13.8-13.4l-7.7 9.8c-1.7 2.1-1.9 4.5.5 6.4s4.6 1.1 6.3-1l7.7-9.8-1.4-1.1-7.7 9.8c-1.1 1.3-2.4 2.2-3.9 1-1.6-1.2-1-2.7 0-4.1l7.7-9.8-1.5-1.2zm-13.8-8.5l-.8 1.3 3 1.8-8 13.2 1.6.9 8-13.2 3 1.8.8-1.3-7.6-4.5zm-15.1-6.6l-6.6 15.6 1.7.7 5.8-13.6-.9 15.6 1.8.8 6.6-15.6-1.7-.7-4.9 11.5.9-13.2-2.7-1.1zm-15.2-4.6l-4.7 16.3 7.7 2.2.4-1.5-6-1.7 1.8-6.3 4.2 1.2.4-1.5-4.2-1.2 1.6-5.5 5.7 1.7.4-1.5-7.3-2.2zM167 .6l1.2 17.4 1.7.3 6.7-16.1-1.8-.3-5.1 12.8-.8-13.7-1.9-.4zM150.2 17l3.1.1c3.6.1 5.8-1.9 5.9-8.4.1-6.5-2-8.5-5.6-8.6l-3.1-.1-.3 17zm2.1-15.3h1c2.7 0 4.2 1.2 4.1 7-.1 5.8-1.7 6.9-4.4 6.9h-1l.3-13.9zm-15.5-.4l-1.9 17.3 1.8-.2.5-5.1 4.3-.5 1.5 4.9 1.8-.2L139.4 1l-2.6.3zm1.4 1.1l2.9 8.9-3.8.4.9-9.3zM112.7 25l1.7-.6-2.6-7.5 2.3-.9 5.2 6.7 1.8-.6-5.4-7c1.6-1.2 1.8-3 1.2-4.8-.9-2.6-3.2-3.5-5.8-2.6L107.2 9l5.5 16zm-3.2-15.2l1.5-.5c2.5-.9 3.6-.1 4.2 1.7s.2 3.1-2.3 3.9l-1.5.5-1.9-5.6zM103.3 20c-2.8-5.7-5.6-7-8.1-5.7-2.6 1.3-3.2 4.3-.5 9.9 2.8 5.7 5.6 7 8.1 5.7 2.6-1.2 3.3-4.2.5-9.9m-1.6.8c2.5 5.2 2 7 .5 7.7s-3.3 0-5.8-5.1c-2.5-5.2-2-7-.5-7.7 1.4-.7 3.2-.1 5.8 5.1M88.2 38.6l1.5-1-4.4-6.7 3.4-2.3-.9-1.3-3.4 2.3-3.2-4.8 4.6-3-.9-1.3-6.1 4 9.4 14.1zm-30.4 4.7l12 12 1.3-1.3-10.4-10.5 14.1 6.8 1.4-1.4-12-12-1.3 1.3 8.8 8.9-11.9-5.8-2 2zm3 24l1.1-1.5-6.4-4.8 1.4-2 8.1 2.6 1.2-1.5-8.4-2.7c.6-1.9-.2-3.5-1.7-4.7-2.2-1.7-4.7-1.1-6.3 1.1l-2.4 3.3 13.4 10.2zM49.5 56.6l1-1.3c1.6-2.1 2.9-2.2 4.4-1 1.5 1.1 1.8 2.4.3 4.5l-1 1.3-4.7-3.5zm.8 11.9c-5.6-3-8.6-2.5-9.9 0-1.4 2.5-.2 5.4 5.4 8.4s8.6 2.5 9.9 0 .1-5.4-5.4-8.4m-.9 1.6c5.1 2.8 5.7 4.6 4.9 6-.8 1.4-2.7 1.9-7.7-.8-5.1-2.8-5.7-4.6-4.9-6 .8-1.5 2.6-1.9 7.7.8M33.9 87.5l.7-1.7c.8-2 1.8-2.5 3.6-1.8 2.1.9 2.4 2.2 1.5 4.7l-.4 1-5.4-2.2zm6.8 2.6l.7-1.7c.9-2.2 2.4-2.7 4.4-1.9s2.5 2.3 1.7 4.3l-.7 1.7-6.1-2.4zm6.9 4.7l1.3-3.2c1.4-3.5.6-5.6-2.3-6.8-2-.8-3.8-.5-5.1 1.2.2-1.9-1-3.2-2.5-3.8-2.3-.9-4.4-.2-5.4 2.2l-1.7 4.2 15.7 6.2z"/><path id="path3406" class="st0" d="M250.6 67.9l-1.9 1.2 1 1.7 1.9-1.2-1-1.7zm3.4-20.7l-13.7 10 4.8 6.5 1.2-.9-3.7-5 5.3-3.9 2.6 3.5 1.2-.9-2.6-3.5 4.7-3.4 3.5 4.8 1.2-.9-4.5-6.3zm-24.2-.9l1.3 1.3 5.6-5.6 1.8 1.6-3.8 7.6 1.4 1.4 3.9-8c1.8.9 3.5.3 4.9-1 2-2 1.8-4.5-.2-6.4l-2.9-2.9-12 12zm12.2-9.6l1.1 1.1c1.9 1.9 1.7 3.2.4 4.5-1.3 1.3-2.7 1.5-4.5-.4l-1.1-1.1 4.1-4.1zm-13.8-13.4l-7.7 9.8c-1.7 2.1-1.9 4.5.5 6.4s4.6 1.1 6.3-1l7.7-9.8-1.4-1.1-7.7 9.8c-1.1 1.3-2.4 2.2-3.9 1-1.6-1.2-1-2.7 0-4.1l7.7-9.8-1.5-1.2zm-13.8-8.5l-.8 1.3 3 1.8-8 13.2 1.6.9 8-13.2 3 1.8.8-1.3-7.6-4.5zm-15.1-6.6l-6.6 15.6 1.7.7 5.8-13.6-.9 15.6 1.8.8 6.6-15.6-1.7-.7-4.9 11.5.9-13.2-2.7-1.1zm-15.2-4.6l-4.7 16.3 7.7 2.2.4-1.5-6-1.7 1.8-6.3 4.2 1.2.4-1.5-4.2-1.2 1.6-5.5 5.7 1.7.4-1.5-7.3-2.2zM167 .6l1.2 17.4 1.7.3 6.7-16.1-1.8-.3-5.1 12.8-.8-13.7-1.9-.4zM150.2 17l3.1.1c3.6.1 5.8-1.9 5.9-8.4.1-6.5-2-8.5-5.6-8.6l-3.1-.1-.3 17zm2.1-15.3h1c2.7 0 4.2 1.2 4.1 7-.1 5.8-1.7 6.9-4.4 6.9h-1l.3-13.9zm-15.5-.4l-1.9 17.3 1.8-.2.5-5.1 4.3-.5 1.5 4.9 1.8-.2L139.4 1l-2.6.3zm1.4 1.1l2.9 8.9-3.8.4.9-9.3zM112.7 25l1.7-.6-2.6-7.5 2.3-.9 5.2 6.7 1.8-.6-5.4-7c1.6-1.2 1.8-3 1.2-4.8-.9-2.6-3.2-3.5-5.8-2.6L107.2 9l5.5 16zm-3.2-15.2l1.5-.5c2.5-.9 3.6-.1 4.2 1.7s.2 3.1-2.3 3.9l-1.5.5-1.9-5.6zM103.3 20c-2.8-5.7-5.6-7-8.1-5.7-2.6 1.3-3.2 4.3-.5 9.9 2.8 5.7 5.6 7 8.1 5.7 2.6-1.2 3.3-4.2.5-9.9zm-1.6.8c2.5 5.2 2 7 .5 7.7s-3.3 0-5.8-5.1c-2.5-5.2-2-7-.5-7.7 1.4-.7 3.2-.1 5.8 5.1zM88.2 38.6l1.5-1-4.4-6.7 3.4-2.3-.9-1.3-3.4 2.3-3.2-4.8 4.6-3-.9-1.3-6.1 4 9.4 14.1zm-30.4 4.7l12 12 1.3-1.3-10.4-10.5 14.1 6.8 1.4-1.4-12-12-1.3 1.3 8.8 8.9-11.9-5.8-2 2zm3 24l1.1-1.5-6.4-4.8 1.4-2 8.1 2.6 1.2-1.5-8.4-2.7c.6-1.9-.2-3.5-1.7-4.7-2.2-1.7-4.7-1.1-6.3 1.1l-2.4 3.3 13.4 10.2zM49.5 56.6l1-1.3c1.6-2.1 2.9-2.2 4.4-1 1.5 1.1 1.8 2.4.3 4.5l-1 1.3-4.7-3.5zm.8 11.9c-5.6-3-8.6-2.5-9.9 0-1.4 2.5-.2 5.4 5.4 8.4s8.6 2.5 9.9 0 .1-5.4-5.4-8.4zm-.9 1.6c5.1 2.8 5.7 4.6 4.9 6-.8 1.4-2.7 1.9-7.7-.8-5.1-2.8-5.7-4.6-4.9-6 .8-1.5 2.6-1.9 7.7.8zM33.9 87.5l.7-1.7c.8-2 1.8-2.5 3.6-1.8 2.1.9 2.4 2.2 1.5 4.7l-.4 1-5.4-2.2zm6.8 2.6l.7-1.7c.9-2.2 2.4-2.7 4.4-1.9s2.5 2.3 1.7 4.3l-.7 1.7-6.1-2.4zm6.9 4.7l1.3-3.2c1.4-3.5.6-5.6-2.3-6.8-2-.8-3.8-.5-5.1 1.2.2-1.9-1-3.2-2.5-3.8-2.3-.9-4.4-.2-5.4 2.2l-1.7 4.2 15.7 6.2z"/><path id="path3408" class="st0" d="M279 151.4l2.2.4.3-1.9-2.2-.4-.3 1.9zm-1.7 17.1l.8-3.1c.9-3.5-.5-6-6.8-7.6s-8.7 0-9.6 3.5l-.8 3.1 16.4 4.1zm-14.5-5.6l.2-1c.7-2.6 2.1-3.8 7.8-2.4 5.6 1.4 6.3 3.2 5.7 5.8l-.2 1-13.5-3.4zm-6.7 13.3l15.8 6.2 2.7-6.8-1.5-.6-2 5.1-14.3-5.6-.7 1.7zm7.5 21.7l.9-1.6-7-3.8 1.1-2.1 8.4 1.5.9-1.7-8.7-1.5c.3-2-.7-3.5-2.3-4.4-2.5-1.3-4.8-.4-6.1 2l-2 3.6 14.8 8zm-12.6-9l.8-1.4c1.3-2.3 2.6-2.6 4.2-1.6 1.7.9 2.2 2.1.9 4.5l-.8 1.4-5.1-2.9zm.8 10.9c-5-3.8-8.1-3.7-9.8-1.4-1.7 2.3-1 5.3 4.1 9.1 5 3.8 8.1 3.7 9.8 1.4 1.7-2.3 1-5.3-4.1-9.1m-1.1 1.4c4.6 3.5 4.9 5.4 3.9 6.7-1 1.3-2.9 1.5-7.5-2s-4.9-5.4-3.9-6.7c1-1.2 2.9-1.4 7.5 2M226 215.6l13.9 10.1 1.1-1.1-7.4-11.4 11.2 7.6 1.1-1.1-9.9-14-1.2 1.2 8 10.8-11.2-7.6-1.1 1.1 7.5 11.2-10.7-8-1.3 1.2zm-18.3 12l9 14.4 6.8-4.3-.8-1.3-5.2 3.3-3.5-5.5 3.7-2.3-.8-1.3-3.7 2.3-3.1-4.9 5-3.2-.8-1.3-6.6 4.1zm-13.9 6.3l6.9 15.5 1.7-.7-3.3-7.4 4.6-2 3.3 7.4 1.7-.7-6.9-15.5-1.7.7 3 6.7-4.6 2-3-6.7-1.7.7zm-13.6 4.3l.5 1.5 3.3-1 4.5 14.7 1.7-.5-4.5-14.7 3.3-1-.5-1.5-8.3 2.5zm-13.7 7.4c-.4-2.7-1.8-5.3-4.9-5.1-3 .2-4.7 2.7-4.2 9.1s2.6 8.5 5.5 8.3c1.4-.1 2.3-.7 3-1.7l.3 1.2 1.2-.1-.6-7.9-4.1.3.1 1.5 2.3-.2.2 2.4c.1 1.7-.7 2.7-2.4 2.9-2 .2-3.2-1.6-3.6-6.9-.4-5.3.4-7.2 2.5-7.4 1.8-.1 2.6 1.5 3 3.7l1.7-.1zm-24.9-5.1l-.8 16.9 1.8.1.7-14.7 4.6 15 2 .1.8-16.9-1.8-.1-.6 12.5-3.8-12.7-2.9-.2zm-8.3-1.5l-2.9 16.7 1.8.3 2.9-16.7-1.8-.3zm-19.9 12.4l1.8.5 2.1-7.6 2.3.6.5 8.5 1.9.5-.5-8.9c2-.1 3.2-1.4 3.7-3.3.8-2.7-.7-4.7-3.3-5.5l-3.9-1.1-4.6 16.3zm6-14.3l1.5.4c2.5.7 3.1 1.9 2.6 3.8-.5 1.8-1.6 2.6-4.1 1.9l-1.5-.4 1.5-5.7zm-10.5 3.5c2.5-5.8 1.6-8.8-1-9.9s-5.3.3-7.8 6.2c-2.5 5.8-1.6 8.8 1 9.9 2.6 1.1 5.3-.4 7.8-6.2m-1.7-.7c-2.2 5.3-4 6.1-5.5 5.4-1.5-.6-2.2-2.5.1-7.8 2.2-5.3 4-6.1 5.5-5.4 1.5.7 2.1 2.5-.1 7.8m-14.5-17.1l-8.5 14.7 6.3 3.7.8-1.3-4.8-2.8 7.7-13.3-1.5-1zm-10.9-6.3l1.5 1.2c1.5 1.1 1.7 2.5.4 4.2-1.3 1.7-2.7 1.8-4.2.7l-1.5-1.2 3.8-4.9zM71 227.7l1.5 1.1 4.6-6.1 1.7 1.3c2.2 1.6 4.7 1.3 6.4-1 1.7-2.2 1.4-4.8-.8-6.4l-3.2-2.4L71 227.7zm-.5-23.9l-3 8.2-8.9 3.9 1.4 1.4 6.9-3.2-2.7 7.3 1.4 1.4 3.4-9.3 7.9-3.4-1.4-1.4-5.9 2.7 2.3-6.1-1.4-1.5zm-7.9-10.2L49.2 204l4.9 6.4 1.2-.9-3.8-4.9 5.2-4 2.7 3.5 1.2-.9-2.7-3.5 4.6-3.5 3.6 4.7 1.2-.9-4.7-6.4z"/><path id="path3410" class="st0" d="M279 151.4l2.2.4.3-1.9-2.2-.4-.3 1.9zm-1.7 17.1l.8-3.1c.9-3.5-.5-6-6.8-7.6s-8.7 0-9.6 3.5l-.8 3.1 16.4 4.1zm-14.5-5.6l.2-1c.7-2.6 2.1-3.8 7.8-2.4 5.6 1.4 6.3 3.2 5.7 5.8l-.2 1-13.5-3.4zm-6.7 13.3l15.8 6.2 2.7-6.8-1.5-.6-2 5.1-14.3-5.6-.7 1.7zm7.5 21.7l.9-1.6-7-3.8 1.1-2.1 8.4 1.5.9-1.7-8.7-1.5c.3-2-.7-3.5-2.3-4.4-2.5-1.3-4.8-.4-6.1 2l-2 3.6 14.8 8zm-12.6-9l.8-1.4c1.3-2.3 2.6-2.6 4.2-1.6 1.7.9 2.2 2.1.9 4.5l-.8 1.4-5.1-2.9zm.8 10.9c-5-3.8-8.1-3.7-9.8-1.4-1.7 2.3-1 5.3 4.1 9.1 5 3.8 8.1 3.7 9.8 1.4 1.7-2.3 1-5.3-4.1-9.1zm-1.1 1.4c4.6 3.5 4.9 5.4 3.9 6.7-1 1.3-2.9 1.5-7.5-2s-4.9-5.4-3.9-6.7c1-1.2 2.9-1.4 7.5 2zM226 215.6l13.9 10.1 1.1-1.1-7.4-11.4 11.2 7.6 1.1-1.1-9.9-14-1.2 1.2 8 10.8-11.2-7.6-1.1 1.1 7.5 11.2-10.7-8-1.3 1.2zm-18.3 12l9 14.4 6.8-4.3-.8-1.3-5.2 3.3-3.5-5.5 3.7-2.3-.8-1.3-3.7 2.3-3.1-4.9 5-3.2-.8-1.3-6.6 4.1zm-13.9 6.3l6.9 15.5 1.7-.7-3.3-7.4 4.6-2 3.3 7.4 1.7-.7-6.9-15.5-1.7.7 3 6.7-4.6 2-3-6.7-1.7.7zm-13.6 4.3l.5 1.5 3.3-1 4.5 14.7 1.7-.5-4.5-14.7 3.3-1-.5-1.5-8.3 2.5zm-13.7 7.4c-.4-2.7-1.8-5.3-4.9-5.1-3 .2-4.7 2.7-4.2 9.1s2.6 8.5 5.5 8.3c1.4-.1 2.3-.7 3-1.7l.3 1.2 1.2-.1-.6-7.9-4.1.3.1 1.5 2.3-.2.2 2.4c.1 1.7-.7 2.7-2.4 2.9-2 .2-3.2-1.6-3.6-6.9-.4-5.3.4-7.2 2.5-7.4 1.8-.1 2.6 1.5 3 3.7l1.7-.1zm-24.9-5.1l-.8 16.9 1.8.1.7-14.7 4.6 15 2 .1.8-16.9-1.8-.1-.6 12.5-3.8-12.7-2.9-.2zm-8.3-1.5l-2.9 16.7 1.8.3 2.9-16.7-1.8-.3zm-19.9 12.4l1.8.5 2.1-7.6 2.3.6.5 8.5 1.9.5-.5-8.9c2-.1 3.2-1.4 3.7-3.3.8-2.7-.7-4.7-3.3-5.5l-3.9-1.1-4.6 16.3zm6-14.3l1.5.4c2.5.7 3.1 1.9 2.6 3.8-.5 1.8-1.6 2.6-4.1 1.9l-1.5-.4 1.5-5.7zm-10.5 3.5c2.5-5.8 1.6-8.8-1-9.9s-5.3.3-7.8 6.2c-2.5 5.8-1.6 8.8 1 9.9 2.6 1.1 5.3-.4 7.8-6.2zm-1.7-.7c-2.2 5.3-4 6.1-5.5 5.4-1.5-.6-2.2-2.5.1-7.8 2.2-5.3 4-6.1 5.5-5.4 1.5.7 2.1 2.5-.1 7.8zm-14.5-17.1l-8.5 14.7 6.3 3.7.8-1.3-4.8-2.8 7.7-13.3-1.5-1zm-10.9-6.3l1.5 1.2c1.5 1.1 1.7 2.5.4 4.2-1.3 1.7-2.7 1.8-4.2.7l-1.5-1.2 3.8-4.9zM71 227.7l1.5 1.1 4.6-6.1 1.7 1.3c2.2 1.6 4.7 1.3 6.4-1 1.7-2.2 1.4-4.8-.8-6.4l-3.2-2.4L71 227.7zm-.5-23.9l-3 8.2-8.9 3.9 1.4 1.4 6.9-3.2-2.7 7.3 1.4 1.4 3.4-9.3 7.9-3.4-1.4-1.4-5.9 2.7 2.3-6.1-1.4-1.5zm-7.9-10.2L49.2 204l4.9 6.4 1.2-.9-3.8-4.9 5.2-4 2.7 3.5 1.2-.9-2.7-3.5 4.6-3.5 3.6 4.7 1.2-.9-4.7-6.4z"/><g id="text3412" transform="rotate(-10.359 1364.614 -104.331)"><path id="path3421" class="st0" d="M15.7-103.3c-.1.2-.2.3-.2.5.1.1.2.3.2.4-.1.4-.4.7-.9.9-.4.2-.7.5-.9 1-.9.2-1.9.3-2.9.5-.9.2-1.8.4-2.9.7-.6.3-1 .4-1.1.5-.1.1-.3.5-.5 1.2-.1.2-.2.5-.5.8-.1.2-.2.5-.2.8-.1.2-.1.3-.1.5.1.1.1.2.1.2-.1 0-.2 0-.2.2 0 .1-.1.2-.1.2v.3c0 .1.1.1.1.2 0 .2-.2.3-.3.4-.1 0-.1.2 0 .4.2 0 .3 0 .4-.2 0-.1.1-.2.1-.3.1-.2.1-.3.1-.4.1-.1.3-.2.5-.2-.1.2-.2.4-.3.5 0 .1 0 .2.1.4.9-.1 1.8-.2 2.7-.2s1.8.2 2.6.4c.5 0 1 0 1.4.1.4 0 .8.1.9.2 0 .1.2.2.3.5.1.2.2.4.1.5 0 .2-.2.4-.5.5-.3.1-.6.3-1 .5-.6.2-1.2.3-1.9.4-.7.1-1.3.2-1.9.2-.2.2-.5.4-.8.4H6.9c-.2.2-.4.4-.7.4h-.7c-.2 0-.5.1-.8.2-.2.2-.4.2-.5.3-.3.2-.4.5-.3.8.1.4.2.6.1.9-.2.2-.4.3-.5.5-.1.1-.2.3-.4.5v.7c-.1.5-.2 1-.4 1.4-.1.4-.3.8-.5 1.3-.2-.7-.1-1.3.2-1.9.4-.7.6-1.2.5-1.8-.1-.2-.2-.5-.1-.8.1-.3.1-.6.1-.8-.2.4-.4.9-.5 1.6-.1.6-.3 1.2-.5 1.9 0 .2 0 .3-.1.5-.1.1-.1.2-.2.4 0 .7 0 1.2-.1 1.4-.1.5-.3.9-.5 1.3-.2.3-.3.7-.3 1.3-.1.3-.1.6-.1.9.1.2.1.6 0 1-.1.1-.2.2-.2.3-.1.1-.1.2-.2.2 0 .2 0 .2-.1.3-.1 0-.1.2-.2.4-.1.3-.1.6-.1.8 0 .2-.1.4-.4.5-.2 0-.4.1-.5.1-.2 0-.3 0-.4.1-.1 0-.2-.1-.3-.2-.2-.1-.4-.5-.7-1.3-.3-.8-.4-1.3-.5-1.7-.1-.5-.1-1.2 0-1.9.2-.8.3-1.6.4-2.4v-1.1c.2-.6.3-1.2.4-1.8.2-.6.3-1.2.3-1.7-.1-.3-.3-.3-.5-.2-.2 0-.3.1-.4.1-.3-.2-.5-.2-.9-.1s-.6.4-.8.7c-.2.1-.4.1-.4-.2.1-.2-.1-.4-.3-.4-.3.2-.6.3-.9.5-.3.2-.6.3-.8.5-.2 0-.6 0-.9-.1-.4 0-.6 0-.8.1-.1.1-.2.4-.3.9s-.1.9-.2 1.2c0 .1-.1.2-.2.4-.1.1-.1.3-.1.6-.2.3-.4.6-.5.8 0 .2-.2.4-.4.7 0-.8 0-1.5-.1-2.2 0-.8-.1-1.5-.1-2.3-.2-.1-.4-.1-.4.1-.1.1-.2.2-.4.2-.2-.2-.4-.2-.4-.2-1-.1-2.1-.2-3.2-.2s-2.2-.2-3.1-.5c-.4-.2-.9-.3-1.5-.6-.6-.2-1-.6-1.2-1-.3-.3-.4-.6-.4-.8 1.1 0 2.2-.1 3.1-.3.9-.3 2-.6 3.2-.8.4-.2.8-.3 1.2-.4.3-.1.8-.2 1.3-.2.4-.1.8-.1 1.4-.1.6-.1.9-.1 1-.2.2-.1.3-.3.2-.6s-.1-.6-.1-.8c.1-.3.2-.7.3-1.3.1-.6.1-1.2.1-1.7-.4-.2-.7-.3-1.1-.3-.3 0-.6-.1-1.1-.2-.2-.1-.6-.2-1-.3-.4-.1-.8-.3-1.1-.5h-.5c-.1-.2-.1-.2-.1-.3 0-.1 0-.1-.1-.1-.2 0-.4 0-.6.1h-.5c-.3-.1-.7-.2-1-.4-.4-.2-.7-.4-.9-.6-.3-.2-.5-.2-.5-.3 0-.1-.1-.1-.1-.2h-.7c-.2 0-.4-.1-.7-.4v-.4c-.1-.1-.2-.1-.5-.2-.2-.1-.4-.2-.6-.4-.1-.2-.3-.4-.4-.6-.1-.2-.4-.4-.6-.5-.2-.2-.4-.4-.6-.8-.2-.3-.4-.7-.6-1 1.1.1 2.2.2 3.2.1s1.9-.2 2.9-.4c1.4-.2 2.9-.5 4.3-.8 1.5-.4 3-.7 4.6-.9 0-.3-.1-.6-.1-.8-.1-.2-.1-.4.1-.8 0-.1.1-.2.2-.3.2-.1.3-.3.4-.5.1 0 .2-.1.2-.2s.1-.3.1-.4c0-.1.1-.3.1-.5.2-.2.2-.5.2-.8 0-.1-.1-.3-.1-.4-.1-.1 0-.2.1-.4 0-.3.1-.7.2-.9.2-.3.4-.6.5-1v-1.1c0-.4 0-.7.1-1 .1-.2.3-.4.5-.5s.4-.3.4-.5c.8-.2 1.6-.2 2.2 0 .7.1 1.4.3 2.1.6-.1.2-.1.4-.1.6.1.1.1.3.1.4 0 .2-.1.4-.2.5-.1.1-.2.2-.1.3l-.3 1.2c-.1.3-.2.7-.4 1-.3.4-.4.7-.4.9-.1.2-.3.5-.3.8 0 .2-.1.4-.1.7-.2.2-.5.6-.7 1s-.3.8-.2 1.2c.7.1 1.5.1 2.4 0 1-.1 1.8-.2 2.5-.2h.5c.2-.1.4-.1.5-.2.2 0 .4-.1.3-.3 0-.2 0-.5.1-.7.1-1.2.5-2.6 1.3-4.1.3-.8.6-1.6.8-2.3.2-.7.5-1.4.6-2 0-.2 0-.5-.1-.7-.1-.2-.1-.4-.1-.8.3.1.7.2 1 .2.4-.1.7 0 1 .2 0 .1 0 .1.1.2.1.2.3.2.4.3.6.2 1.1.5 1.6.8.5.3.6.9.4 1.9v.4c0 .2 0 .3-.1.6-.1.2-.3.4-.4.5 0 .2-.1.3-.2.5 0 .1 0 .2.1.3.1.1.1.2.1.3l-.1.2c-.1.1-.1.2-.1.3-.1.6-.2 1-.2 1.4 0 .4-.1.8-.1 1.1-.2.1-.3.3-.5.5-.1.2-.2.5-.3.8.4.2.8.3 1.2.3.4-.1.8-.1 1.1-.1.2.1.5.2.8.2h.6l.8.4c.4.1.7.2 1 .3.5.1.8.2 1 .3.2.1.4.3.5.8.1.1.2.1.3.2.1 0 .2.1.2.2-.1.1-.4.2-.6.2-.2 0-.3.1-.3.4.2.2.3.4.5.5-.1.1.1.1.3.2zm-16 7c.1-.3.2-.6.4-1 .1-.3.2-.7.2-1-.4.1-.7.2-1.1.2-.3 0-.7.1-1.1.3-.2 0-.5.1-.8.4-.2 0-.4.1-.6.2-.1.1-.4.2-.7.3-.3 0-.6.1-.8.2-.3.1-.6.2-.8.2-.2 0-.5.1-.8.4-.2.6-.4 1.1-.4 1.7 0 .5-.1 1.1-.1 1.7.7 0 1.3 0 1.9-.2.6-.1 1.3-.2 1.9-.2h1c.3 0 .7 0 1.1-.1.2-.1.4-.4.6-1.1s.3-1.1.3-1.3c0-.1 0-.3-.1-.4-.1-.1-.1-.2-.1-.3zm3.7 8.6c0-.1 0-.1.1-.2s.1-.2-.1-.2c0 .1 0 .2-.1.3-.1 0-.1.1.1.1z"/><path id="path3423" class="st0" d="M57.4-116c0 .1 0 .1 0 0-.1-.1-.1-.2 0-.2v.2zm-3.1 5.4c.1.1.1.2-.1.2-.1 0-.2 0-.2.1-.1 0-.1-.1 0-.1.2 0 .3-.1.3-.2zM24.4-85.9c0 .2-.1.5-.1 1-.1-.4-.1-.7.1-1zm-.1 1.1c0 .1 0 .1.1.2 0 .1-.1.1-.2.1 0-.1 0-.2.1-.3zm34.3 7.2c0 .1 0 .2-.1.3l-.2.2c-.1-.1-.1-.2 0-.2l.3-.3zm-.4.5c-.1.1-.2.2-.2.3 0 .1-.1 0-.2-.1 0 0 .1 0 .2-.1 0 0 .1-.1.2-.1zm-.6.4c.1.1.1.1 0 .2 0 .1-.2 0-.3-.1 0-.1.1-.1.2 0 .1 0 .1-.1.1-.1zm-33.9-5.6c.1.1.1.2.1.3 0 .1 0 .2-.1.2s-.1-.2 0-.5zM54.1-74c0 .1-.1.2-.2.3l-.2.2c0-.3.1-.4.4-.5zm-4.9 2.9c-.1.1-.2.1-.3.2-.1.1-.2.1-.4.1l.3-.3c.1-.1.2 0 .4 0zm-6 2.1c-.1-.1-.2-.1-.2 0h-.1.3zm-3.6.2c.1.1.1.2 0 .3-.1.2-.2.2-.2.2 0-.2 0-.3.1-.4l.1-.1zm1 .5c0 .1 0 .1 0 0 .1.1.1.1.1.2s-.1.1-.4.2c-.2 0-.3 0-.4.1 0 .1-.1.2-.2.2-.2.1-.4.1-.7.1-.2 0-.3.1-.3.3 0-.4.2-.7.6-.7.6.1 1-.1 1.3-.4zm1.1.4c-.1.2-.4.4-.9.5.1-.2.2-.4.4-.5h.5zm14.4-52.9c.2 0 .2.2.2.4-.1.2 0 .4.1.6.1 0 .1-.1.1-.2 0-.2.1-.3.2-.2.1.2.2.4.4.5.2.2.2.4 0 .8.1-.2.2-.3.2-.2.1.1.1.2.1.3 0 .1 0 .3-.1.4 0 .2 0 .2.1.3-.1.1-.1.2 0 .3.1.1.2.2.2.3 0 .2 0 .5-.1.7v.5c0 .1-.1.2-.2.4 0 .1-.1.2-.2.3 0 .1 0 .2-.2.3-.1.1-.1.2 0 .2-.1.2-.2.3-.4.4-.1.1-.3.2-.4.3 0 .1-.1.2-.1.4 0 .1 0 .2-.1.3-.1.2-.2.2-.3.3-.1 0-.2.1-.2.2.2-.1.4-.2.4-.3 0-.1.2-.3.3-.4 0 .4-.2.8-.4 1.3-.2.1-.3.3-.4.6-.2.2-.3.4-.4.6l-.5.7c-.1 0-.1 0-.1.1s0 .1-.1.1c-.1.2-.2.2-.3.3-.1 0-.2.1-.2.2-.1-.1-.2 0-.5.3-.2.3-.4.6-.4.8-.2 0-.4 0-.5.1l-.2.2c-.2.1-.4.2-.6.4-.1.2-.2.3-.4.5-.4.2-.8.6-1.1 1-.3.3-.7.7-1.1 1 1.2.2 2.3.5 3.5.6 1.2.1 2.4.3 3.6.6.5.1 1.1.2 1.7.4.6.2 1.1.5 1.5.8h.2c.1 0 .1.1.1.1h.4c.1.2.2.3.2.4.3.2.7.3 1 .4.3.1.6.2.8.5.1.2.2.3.5.4.2.1.3.2.4.4.2 0 .4.1.5.3.2.2.3.4.6.5.2.1.3.2.5.4l.6.3c.1.1.2.2.2.4.1.2.2.3.4.5.1.1.2.4.4.7.2.2.3.5.4.8.1.2.2.3.2.5s.1.3.2.4c.1.2.2.3.2.4 0 .1.1.3.2.5.2.8.4 1.6.6 2.5.2.9.2 1.8 0 2.6 0 .3-.1.6-.2.8s-.1.5-.3.7c0 .2-.1.6-.2 1.1-.2.5-.3.8-.4 1.1-.1.2-.2.5-.2.8-.1.2-.1.4-.2.5l-.4.2c0 .1-.1.2-.1.2 0 .1-.1.1-.2.2 0 .2-.2.3-.4.4-.2.2-.3.3-.2.4-.1.1-.2.1-.3.1s-.2.1-.3.2c0 .3-.1.6-.3.7-.2 0-.3.2-.5.4s-.4.5-.6.7c-.1.2-.2.3-.4.5-.2.1-.4.2-.6.4l-.4.4c-.1.2-.2.3-.3.5-.1 0-.2.1-.3.3-.2.1-.5.3-.8.8l-.2.2h-.2c-.1.1-.2.2-.2.5 0 .1-.2.3-.5.4-.1 0-.2.1-.3.1l-.2.2c-.2-.2-.5-.1-.8.2l-.9.9c-.1.1-.2.2-.4.2-.1 0-.3.1-.4.2-.6.7-1.1 1.2-1.7 1.7-.6.4-1.3.9-2 1.3-1.4 1-3.1 1.9-4.9 2.7-.7.3-1.3.7-2 1-.6.4-1.3.7-2.1.8.2-.2.5-.4.8-.5.3 0 .6-.2.8-.4.2.1.4 0 .5-.2.1-.2.3-.3.6-.2.2-.4.5-.7.8-.8.3-.1.7-.3 1-.6-.4.1-.8.2-1 .4-.3.1-.6.3-1 .5-.1 0-.3.1-.6.2-.2.2-.4.3-.5.2h-.3s-.1 0-.2.1c-.2.1-.4.2-.5.3l-.3.3c-.2.1-.5.2-.8.2-.2.1-.4.1-.5.2-.3.1-.7.2-1 .3-.3.2-.7.2-1 .2-.2 0-.2-.1-.1-.2.2 0 .2 0 .2-.1-.3 0-.6.2-.9.4-.3.2-.5.4-.8.5-.3-.1-.5-.2-.7-.1 0 0-.1.1-.4.2-.1 0-.2 0-.3-.1-.1 0-.2 0-.2.2-.1 0-.1 0-.1-.1.1-.1.1-.1.1-.2-.2.1-.4.1-.5.1-.1.1-.2.1-.3.2-.1 0-.1.1-.2.1 0 .1-.1.2-.2.2h-.4c-.1 0-.3 0-.4.1-.2.1-.5.2-.8.4-.2.2-.6.4-1 .5-.1 0-.2 0-.4-.1h-.4c-.3.1-.5.1-.8.2-.3.1-.5.1-.8.1-.1.1-.2.1-.3 0 0 0-.1 0-.2.1-.2 0-.5.2-.7.3-.2.2-.3.2-.6.1-.1-.2-.1-.4 0-.4h.4c.1-.1.3-.1.5-.2h.8c.2-.1.5-.2.7-.2.2-.1.5-.1.8-.2.1 0 .2 0 .2-.1.1-.1.1-.1.3-.1h.4c.1.1.2.1.4 0 .1 0 .2-.1.3-.2l.2-.2c.1 0 .3-.1.6-.2.1 0 .2-.1.4-.2s.4-.2.5-.2c.2-.1.3-.3.3-.7h-.7c-.2.1-.4.2-.7.3-.5.2-.9.3-1.2.3-.1.1-.2.1-.3 0-.1 0-.2 0-.3.1-.5.1-.8.2-1 .4-.2.1-.3.2-.5.2s-.4 0-.5.1c-.3 0-.5.1-.8.2-.2.1-.3.2-.4.2 0 0-.1 0-.2-.1H29c-.2 0-.3.1-.5.2-.1.1-.2.1-.3 0 0-.1-.1-.1-.2 0-.1 0-.2.1-.3.2l-.1.1c-.1 0-.1 0-.1-.1 0 0 0-.1-.1-.1-.1-.1-.2-.1-.2 0-.1.1-.1.2-.2.2h-.5c-.1 0-.2.1-.3.3-.1 0-.1-.1-.1-.2s0-.2-.2-.2c-.2-.1-.4-.1-.6.1-.2.2-.3.1-.5-.2-.1.2-.2.3-.4.3-.1 0-.2.1-.3.2 0 .2.1.3.3.3.2 0 .4-.1.5-.2.3.1.4.2.4.3h.8c.1 0 .1 0 .1.1v.2c.4-.1.8-.2 1-.4.4-.1.8-.1 1.2-.1 0 .2-.2.4-.3.4s-.3 0-.5.1c-.1.1-.2.2-.3.2 0 .1-.1.1-.2.2h-.3c-.1 0-.2 0-.2-.1-.1.1-.2.2-.3.2s-.2 0-.4.1v-.2-.3c-.2-.1-.3-.1-.4.1s-.1.3-.3.4c-.3.1-.7 0-1.1-.2-.4-.1-.7-.2-1-.4-.1.1-.3.1-.6 0-.3 0-.5-.2-.6-.4-.1 0-.2 0-.3.1 0 .1-.2.1-.4 0v-.1l-.1-.1c-.1 0-.2 0-.4-.1-.1-.1-.3-.1-.5-.2-.1 0-.2 0-.2-.1s-.2-.2-.3-.2c-.1.1-.1 0-.1-.1l-.2-.2c0-.1-.1-.2-.2-.3 0-.1-.1-.2-.2-.3-.1 0-.1-.1 0-.2-.2 0-.4-.1-.5-.2l-.4-.2c0-.2 0-.4.1-.6.1-.2.1-.3-.1-.4.1-.2.3-.4.6-.7.2-.2.3-.4.2-.7.4-.2.7-.7.9-1.2.2-.5.5-1 .8-1.4.1.4.1.8-.1 1.3s-.1.9.1 1.3l.2-.2s0-.1.1-.2c.1.2.1.3.1.5.1.1.2.2.3.4.1 0 .2.1.3.2.1.1.2.2.2.3 0 .2.1.2.2.3.1.1.2.1.4.1 0 0 .1 0 .1-.1.1 0 .1 0 .1-.1h.1c.2.2.3.3.2.3.3 0 .6 0 .8-.1.2-.1.5-.1.8 0-.2 0-.3.1-.5.2-.2 0-.2.2-.2.4.1.2.2.3.5.2.3 0 .5-.2.6-.4.1 0 .1.1.1.2 0 .2 0 .2.2.1.1.1.2.1.2-.1 0-.1 0-.2.1-.2.5-.1 1.1-.2 1.5-.5.4-.1.9-.2 1.5-.2.1 0 .2 0 .2.1v.2c.2 0 .5 0 .7-.1.2 0 .4-.1.6-.2 0 0 0-.1-.1-.1 0 0 0-.1.1-.2.6-.2 1.2-.3 1.7-.5s1-.3 1.5-.6c.1 0 .2.1.2.2.1.1.1.2.2.2l.9-.3c.3-.1.6-.2.9-.2l.2-.2c.1 0 0-.1-.1-.2.1 0 .2 0 .2.1.1.1.1.1.2 0s.1-.2.1-.3 0-.2.2-.2c.3 0 .5-.1.8-.2.3-.1.5-.2.6-.4.2.1.5.1.8-.1.4-.1.6-.2.7-.4.2-.1.3-.2.4-.5.1-.2.3-.4.5-.5.1-.1.2-.1.3-.1h.3c.3-.1.5-.3.7-.5l.5-.5c.1 0 .2 0 .3-.1.2-.1.2-.2.3-.2.1 0 .2-.1.5-.2.3-.2.6-.3.8-.5.2-.2.5-.3.7-.4 0-.1.2-.1.3-.1.1 0 .1 0 0-.2.1.1.2.2.3.2.1 0 .2 0 .3.2.1 0 .2-.1.2-.2s0-.2.1-.2c.2-.1.3-.2.5-.4s.4-.4.6-.5c0-.2.1-.3.3-.4.2 0 .3-.2.4-.3.2 0 .5 0 .6-.1.2-.2.5-.3.7-.5l.7-.2c.2-.1.3-.2.4-.3.2-.2.3-.3.5-.4.2-.1.4-.2.5-.3.2-.2.3-.3.5-.4.4-.1.5-.2.5-.2.5-.1.8-.3.8-.8 0-.1-.2-.1-.3 0s-.3 0-.4-.2c.7-.3 1.4-.8 2.2-1.5.2-.2.3-.3.5-.4.2-.2.4-.3.6-.4.2-.2.5-.3.8-.4.2-.2.4-.4.6-.8.1 0 .2 0 .2-.1s.1-.1.2-.1c0-.2 0-.4.2-.5.2-.1.3-.2.4-.4 0-.1.1-.2.2-.4 0 0 .1 0 .2-.1.2-.1.3-.2.5-.4s.3-.4.4-.7v-.1-.1s.1 0 .1-.1c.2-.1.3-.2.4-.3.2-.4.4-1 .6-1.6s.4-1.2.5-1.7c.1-.4.2-.8.3-1.3.1-.5.2-.9.2-1.3 0-.1-.1-.3-.1-.8 0-1.3-.5-2.4-1.7-3.2-1.2-.8-2.5-1.3-4-1.6-.5-.1-1-.2-1.4-.2-.5 0-.9-.1-1.4-.1-.4-.1-.7-.2-.8-.2-.2-.1-.3-.1-.4 0s-.2 0-.4-.1c-.2.1-.5 0-.8-.1-.2.1-.4.2-.6.1h-1.1c-.4.1-.8.1-1.3.2-.4 0-.8 0-1.3-.1-.4 0-.8.1-1.2.2-.4 0-.7.1-1 .2-.1 0-.2 0-.5-.1-.2-.1-.3-.1-.5 0-.2 0-.4 0-.6.1-.2 0-.4 0-.8.1l-.1.1h-.2s0-.1-.1-.1c-.2.1-.5.2-.9.4-.3.2-.7.3-.9.5 0 .1.1.1.2 0 .2-.1.2-.1.3-.1 0 .2-.1.2-.3.3h-.4c-.1-.1-.2-.1-.2.1.1.1 0 .2-.2.2H38c-.1 0-.2.1-.2.2s0 .2-.1.2c-.4.2-.7.3-1 .5-.2.2-.6.3-1 .4-.6.2-1.3.6-2.1 1-.8.3-1.5.6-2.2.9-.2.1-.4.2-.5.2-.2 0-.3 0-.4.1-.2.1-.4.1-.5.2 0 .1-.1.2-.3.2-.4.1-.9.3-1.4.4-.5 0-.9.1-1.3.2-.1.8-.4 1.3-.8 1.8-.1.2-.2.4-.2.5 0 .1 0 .2-.1.4 0 .2-.1.5-.2.8-.1.2-.1.5-.1.8 0 0-.1 0-.2-.1 0-.1 0-.2.1-.2s.1-.2.1-.4c-.1.2-.3.3-.4.5 0 .1-.2.1-.5.1.2.2.3.3.3.5s-.1.3-.2.6c0 .4-.1.8-.2 1.1 0 .3 0 .7-.1 1-.1.2-.1.5-.1.7 0 .2 0 .4-.1.6 0 .2-.1.4-.2.5-.1.2-.2.3-.3.4v.4c0 .2.1.3.1.4 0 .2 0 .5.1.8.1.2 0 .4-.2.5-.2-.1-.2-.2-.2-.5.1-.2 0-.4-.2-.4-.1 0-.1.2-.1.4s.1.3.1.5c0 0 .1 0 .1.1s0 .1-.1.1c.2.1.4.1.4.1-.1.1-.1.2-.1.4 0 .1.1.2.1.3 0 .5 0 1 .1 1.4.1.4.3.7.5 1 .1 0 .2 0 .2-.2l.2-.2c0 .1.1.2.2.2.1.1.2.1.3.2v.8c0 .3-.2.5-.5.7h-.6c-.2 0-.3.2-.2.5-.2-.1-.5-.1-.6-.1-.2.1-.3 0-.4-.1-.4-.1-.8-.3-1-.7s-.5-.7-.8-1.1c-.2-.4-.4-.9-.5-1.3-.2-.5-.3-.9-.4-1.2 0-.2-.2-.3-.3-.5-.1-.2-.1-.4.1-.7v-.2s.1 0 .1-.1c0-.2 0-.4-.2-.7s-.2-.5-.2-.8c0-.5 0-.9-.1-1.2 0-.4 0-.8-.1-1.3v-1.6c0-1.3.1-2.6.2-3.8.1-.2.1-.3.1-.5v-.4c-.1-.2-.2-.4-.5-.6-.2-.2-.4-.3-.6-.6-.1-.1-.1-.2-.1-.3 0-.1 0-.3-.1-.5l-.6-.6c-.1 0 0-.3.2-.8.1-.1.2-.2.3-.4s.2-.2.2-.2c.2-.2.5-.3.8-.4.4-.1.6-.3.6-.5.1-.1.1-.1.2 0 .2.1.3.1.5 0 .6-2.8 1.4-5.4 2.3-7.8 1-2.3 1.9-4.7 2.8-6.9.5-1.2 1.1-2.3 1.7-3.4.6-1.2 1.2-2.2 1.8-3.2-.3-.1-.6-.1-.8.1-.2.2-.4.2-.7.3-.5.1-1 .3-1.6.4-.5.1-1.1.2-1.6.4 0 .1-.1.1-.2.2 0 .1-.2 0-.4-.1-.1.1-.3.2-.5.2-.1 0-.2 0-.3.1-.3.2-.7.4-1.1.6-.4.2-.8.2-1.1.2-.1-.1-.3-.2-.5-.2s-.3-.1-.5-.2c-.9-.2-1.5-.5-2.1-.9s-1.1-.8-1.6-1.3c.1-.1.2-.1.5-.2.2 0 .4-.2.5-.3.1-.1.2-.1.4-.1.1 0 .2-.1.2-.2.3-.1.5-.2.7-.4.1-.2.3-.4.6-.5.4-.1.7-.2 1-.5.2-.2.6-.3 1-.4.3-.2.6-.4 1-.5.4-.1.7-.3 1.1-.5 1-.4 2-.8 2.8-1 1-.3 2-.6 3.2-.8.1-.1.4-.1.6-.2.3-.1.5-.2.6-.2.5-.1.9-.1 1.3-.1.5-.1.9-.2 1.3-.4.5-.2.8-.3 1-.4.2 0 .3 0 .5.1h.4c.4.1.8.1 1.3 0s.9-.2 1.3-.2c.7-.1 1.5-.2 2.3-.2.9 0 1.8 0 2.6.2 0 0 .1 0 .2-.1 0-.1.1-.1.2-.1 0 .2.1.2.1.2l.1-.2c.1-.1.1-.1-.1-.2.2.1.2.1.2.2s0 .1.1.2c.2.1.3.1.5 0s.4-.1.5-.1c.5 0 1.1.1 1.6.2l1.5.3c.8.2 1.6.6 2.4.9.8.4 1.5.7 2 .9.2 0 .5.1.7.3 0 0 .1 0 .1.1s0 .1.1.1c.2.1.4.2.5.3.2.1.3.2.4.3 0 .1.1.2.2.2 0 0 .1 0 .1.1s.1.1.2.1h.1l.2.2.2.2s.1.1.2.1h.2v.2c0 .2 0 .2.1.2.2.2.3.2.4.2.1 0 .2.1.2.4l.1.2c0-.1.2-.1.3 0-.2.1-.2.1-.2.2.2.1.2.1.2 0 .1.1.2.1.2.2s.1.2.2.5c-.3-.8-.4-.9-.5-1zm-23 17.4c1.1-.4 2.2-.7 3.4-1 1.1-.3 2.3-.5 3.5-.6.3-.1.6-.2.8-.2.2-.1.4-.1.5-.2.2-.1.4-.2.6-.4l.7-.7c.4-.4.9-.7 1.3-.9.5-.2 1-.5 1.5-.8.1-.1.3-.3.5-.4l.5-.5c.5-.4 1.1-.8 1.6-1.3.6-.4 1.1-.9 1.5-1.4.8-.7 1.4-1.5 2-2.2.7-.8 1.1-1.7 1.4-2.6.2-1 .2-1.7 0-2.3-.2-.6-.6-1.2-1.2-1.7-.2-.1-.3-.2-.4-.2-.1 0-.2-.1-.3-.2l-.3-.2c-.1 0-.3 0-.8-.1-.4-.1-.6-.2-.8-.2-.2-.1-.3-.1-.3 0 0 0-.1 0-.3-.1 0 .1-.2.1-.3.1-.2-.1-.3-.1-.4-.2H44.5c-.2 0-.3 0-.5.1s-.3.1-.5.1c0-.1 0-.1-.1 0-.1 0-.1 0-.2.1h-.1c-.1 0-.2 0-.3-.1-.1-.1-.2-.1-.2 0-.2 0-.4.1-.5.2-.1.1-.2.1-.4.2h-.4c-.1-.1-.2 0-.2.1-.5.2-1.2.2-2 .3-.7 0-1.4.1-2.1.2-.3.1-.7.1-1.2.2-.4 0-.6.1-.7.2-.1.1-.2.3-.2.5-.1.2-.1.5-.2.8-.2 1.4-.6 2.8-1 4.2-.3 1.4-.7 2.8-.9 4.3l-.3 1.2c-.1.4-.2.8-.4 1.3l-.6 1.5c-.1.5-.3.9-.5 1.3s-.4.8-.5 1.2c-.1.4-.2.8-.2 1.3.4-.1.8-.2 1.3-.3.7-.4 1.1-.5 1.5-.6zm23.2-11.4s.1 0 .2-.2c0-.2 0-.3-.1-.2-.1.1-.2.2-.2.3.1 0 .1 0 .1.1zm3.1 11.8c-.6-.4-1.2-.6-1.9-.8-.6-.2-1.3-.4-2-.5.7.2 1.3.5 2 .8.6.2 1.3.4 1.9.5zm1.2.5c-.2-.1-.4-.2-.5-.3-.1-.2-.3-.2-.4-.3.2.2.3.3.4.5.1 0 .3.1.5.1zm-24 3.4c-.3.2-.6.3-.8.3 0 0-.1.1-.1.2-.1.1-.3.2-.5.3-.1 0-.2.1-.1.2.4-.2.8-.5 1.1-.7.4-.2.7-.4 1.1-.5-.3-.1-.5-.1-.6 0 0 .1 0 .2-.1.2zm-2.3 1.3c.2 0 .5 0 .7-.2-.1 0-.2 0-.4.1-.1 0-.2.1-.3.1zm-2.6 1.3c.2-.1.5-.2.8-.2.3-.1.5-.2.6-.2.2-.1.4-.2.5-.2.1-.1.2-.1.4-.2.1-.1.2-.1.3-.1.2 0 .2-.1.1-.4-.4.2-.9.5-1.3.6-.5.2-.9.4-1.4.7zm-8.1 9.6c-.1-.1 0-.1.2-.1 0-.2 0-.3.1-.4 0-.2.1-.3.1-.4 0-.1.2-.2.3-.5s.1-.4-.2-.4c0 .4-.2.8-.3 1.1-.2.1-.2.4-.2.7zM51.9-74c.2-.1.5-.2.6-.4l.4-.4c-.2.1-.4.2-.6.2-.1.1-.2.3-.4.6zm-.6 0c-.1.2-.3.3-.5.5-.2.1-.3.3-.4.4.1-.1.2-.2.4-.3.2 0 .3 0 .4.1 0-.2.1-.4.2-.4.2 0 .2-.1.3-.3h-.4zm-1.3-.3c-.4.2-.8.5-1.3.8-.4.3-.8.6-1.3.8-.3.1-.5.2-.7.2-.2.1-.3.2-.4.3-.2 0-.3.1-.4.3 0 .2-.2.1-.5-.1-.1.2-.2.3-.5.4-.2.1-.3.2-.3.4.3 0 .6 0 .8-.2.2-.2.5-.3.6-.6.3.1.5.1.6-.1l.5-.5c.2-.1.3-.2.4-.2h.4c0-.1.1-.2.1-.2 0-.1 0-.1.1-.2s.2-.1.4-.2c.2 0 .3-.1.4-.2 0-.2 0-.3.1-.4h.2c.1.1.1.1.2 0 .2-.1.5-.3.7-.6H50v.3zm-2.2 2.6c.3 0 .5-.1.7-.3.1 0 .3-.2.4-.4l.4-.2c.2 0 .4-.1.6-.1.2 0 .3-.1.3-.4-.6 0-1 .2-1.4.4-.3.4-.6.7-1 1zm1.5-.5c.1 0 .2 0 .2-.1s.1-.1.2-.2c-.2 0-.4 0-.4.3zm-.5.3c0-.1.1-.1.2-.2h-.1l-.1.2c-.1-.1-.1-.1 0 0-.1 0-.1 0 0 0zm-5 1.1c.2.1.3 0 .4-.2-.1-.1-.2 0-.4.2zm-1.8.4l-.2-.2c-.1 0-.2.1-.2.2s0 .2-.1.3c.3 0 .6-.2.8-.4.3-.2.6-.4 1-.7-.4.1-.6.2-.8.4-.1.3-.3.4-.5.4 0 .1 0 0 0 0zm1.5-.2c0-.1.1-.1.2-.2.2 0 .2 0 .1-.1 0 0-.1.1-.2.1-.2.1-.2.2-.1.2zm-1.8.9c-.1 0-.2 0-.5.1-.2.1-.2.2-.2.3.4-.2.8-.4 1.1-.6.4-.2.8-.4 1.2-.5v-.2c-.2.1-.5.2-.8.4-.3.3-.6.4-.8.5zm-2.1.3c.7-.1 1.2-.3 1.6-.6-.2.1-.5.1-.9.2-.3.2-.6.3-.7.4zm-1.5 0c.2 0 .5-.1.8-.4-.2.1-.3.2-.5.2-.3 0-.4.1-.3.2zm.4.3c.3 0 .4-.1.5-.2-.3 0-.4.1-.5.2zm-1-.1s.1 0 .4-.2c-.3 0-.5.1-.4.2zm.9.3v-.2.2zm-.6.3c.1 0 .2 0 .3-.1.1-.1.1-.2 0-.2 0 .1-.1.1-.2.1 0-.1 0 0-.1.2zm-1.1 0c0-.1 0-.1.2-.1.1 0 .2-.1.1-.2-.1.1-.2.2-.3.2-.1-.1-.1 0 0 .1zm-1-.2c.3 0 .5-.1.5-.2h-.3c0 .1-.1.1-.2.2zm1.9.3c.2 0 .2 0 .1-.1 0-.1 0-.1-.2-.1 0 .1 0 .2.1.2zm-14.5-.1c0-.1 0-.2-.1-.2 0 .1 0 .1-.2.1-.1-.1-.1 0-.1.1h.4zm30.2-4.8c.1 0 .1.1 0 0l-.3.3c-.1 0-.1 0 0-.1s.2-.2.3-.2zm-.8.4v.2c0 .1-.1.2-.2.2 0-.2 0-.2.1-.2 0-.1 0-.1.1-.2zm-13.9 4.9c-.3.3-.9.6-1.6.8-.2 0-.4 0-.6.1-.1.2-.3.3-.4.4-.1 0-.3-.1-.6-.1-.2.1-.4.1-.6.2-.1.1-.3.2-.6.3-.2.1-.3.1-.5.1-.1 0-.3 0-.6.1-.2.1-.4.2-.8.3-.3.2-.7.2-1 .1.2-.2.4-.2.7-.3.2 0 .5-.1.8-.1h.2c.4 0 .8-.1 1.2-.3.4-.2.8-.3 1.2-.5.1 0 .3-.1.6-.1.1-.1.2-.1.2-.2s.1-.1.1-.2h.4c.2-.1.3-.1.4-.2.1-.1.2-.2.3-.2h.9c.1 0 .2-.1.2-.2s0-.1.1 0z"/><path id="path3425" class="st0" d="M99.4-88.3c.4.1.7.4.8 1s0 1.2-.5 1.7c-.1.2-.3.6-.5.9-.2.3-.4.6-.6.8-.1.1-.3.2-.6.4-.2.2-.4.3-.4.4-.2.1-.4.2-.7.5-.2.3-.4.5-.5.5-.1.1-.3.2-.8.5-.3.2-.6.4-.8.5-.6.2-.9.5-1.1.8-.1.2-.4.5-.9.8-.4.1-.8.2-1.2.4-.4.2-.8.4-1.1.6-.4.2-.7.4-1 .4-.3 0-.6.2-.8.6-.3-.1-.6 0-1 .2-.3.2-.8.3-1.2.4-.2.1-.6.2-.9.2-.3.1-.6.1-.9.1-1.1.5-2.2.8-3.4.8-.7.2-1.4.2-2.3 0-.1-.1-.3-.1-.4-.1-.1 0-.2-.1-.4-.1-.4-.2-.9-.3-1.4-.3-.5 0-.9-.1-1.3-.3-.1 0-.2-.1-.5-.2-.2-.2-.5-.3-.8-.4-.3-.2-.6-.3-.9-.4-.2-.2-.4-.2-.4-.2-.2-.1-.5-.3-.7-.5l-.6-.9c-.1-.3-.3-.7-.5-.9-.2-.3-.4-.5-.6-.7-.1-.1-.2-.1-.3 0-.2 0-.3 0-.4-.1-.2-.1-.2-.2-.3-.4-.1-.2-.2-.3-.2-.4-.1-.5-.1-.9.2-1.2.2-.4.2-.7.1-1 .1-.1.2-.1.3-.1.1 0 .2-.1.3-.3-.3-.2-.4-.6-.4-1.1 0-.5.1-1 .3-1.5.2-.5.3-1 .5-1.4.2-.5.4-.8.4-1.1.1-.3.1-.6.1-.8s0-.4.1-.5c.1-.2.2-.3.4-.4l.4-.4c.1-.4.3-.8.5-1.1.2-.5.6-1 1.1-1.5.5-.5 1-1.1 1.6-1.7.2-.3.5-.6.8-.8.3-.2.6-.6 1-.9.4-.2.7-.3 1-.4.2-.2.5-.4.9-.7.8-.6 1.6-.9 2.4-.8.8 0 1.6.2 2.3.3.2.1.4.2.4.4.1.2.2.3.4.4.1.1.2.1.2.1.1-.1.2-.2.4-.2.3.1.6.2 1.1.5.4.2.8.4 1.1.7.4.2.7.5 1 .8.3.2.5.5.5.7 0 .1.1.2.2.3s.2.2.2.3c.2.7.2 1.2-.1 1.6-.2.3-.3.6-.4 1l-1.1 1.1c-.3.2-.6.5-.8.9 0 .1-.1.2-.4.5-.2.2-.4.4-.4.5-.4.3-.9.7-1.4 1-.5.2-1 .6-1.4 1 0 .1-.2.2-.4.4-.2.1-.4.2-.7.4-.3.2-.6.4-1 .6-.1.1-.2.2-.4.2s-.4.1-.4.2l-.6.6c-.2.2-.6.5-1 .6-.1.1-.2.2-.4.2s-.2 0-.3.1c-.2.1-.5.3-.8.5s-.6.3-.9.3c-.1.2-.2.5-.3.9v1.3c.1.5.3.9.5 1.3.3.3.8.6 1.4.6.1 0 .4.1.8.2s.7.2.8.3c.8 0 1.7 0 2.6-.2 1-.2 1.9-.4 2.8-.5 1.9-.4 3.8-1.1 5.6-1.9 1.8-.8 3.4-1.7 4.7-2.6.3-.2.4-.3.4-.3.1 0 .2-.1.4-.2s.5-.3.9-.5c.4-.3.8-.6 1.1-.9.4-.3.8-.7 1.1-1 .3-.7.4-1.1.4-1.4zm-21.5.8c.8-.5 1.7-1 2.4-1.7.8-.7 1.6-1.3 2.4-1.9.3-.2.6-.5.9-.8.3-.3.6-.6.7-.8.1-.2.1-.4.1-.6 0-.2-.1-.3-.1-.4-.2 0-.3-.1-.4-.1-.1 0-.1 0-.1.1-1.2.7-2.3 1.6-3.4 2.7-1 1.1-2 2.2-2.8 3.4 0 .1.1.2.2.2-.1 0 0-.1.1-.1z"/><path id="path3427" class="st0" d="M112.9-105.9c.2 0 .2.1.2.4s0 .5-.1.8c-.1.3-.2.7-.3.9s-.3.4-.5.4c.2-.3.3-.7.4-1.2 0-.5.1-.9.3-1.3zm-11 .7c.1.1.1.2.1.2-.1 0-.1.1-.1.1v-.3zm-1.2 5.8c0 .1-.1.1-.2.2 0 .1.1.2.2.2-.1.2-.2.2-.3 0 0-.3.1-.4.3-.4zm.3 1.7s.1 0 .2.1h.1c.1.4.1.5 0 .4-.1-.2-.2-.1-.2.1-.2 0-.3-.1-.2-.2.1-.1.1-.3.1-.4zm-.1 2.4c.1.1.1.2.1.4 0 .1-.1.2-.2.3-.2 0-.2-.1 0-.2.1-.2.1-.4.1-.5zm-.9 4.2c.3.1.3.2.2.3-.1 0-.2 0-.2-.1v-.2zm0 1.4c.2 0 .4.2.4.4s-.1.4-.4.5v-.5-.4zm-.3 12.6c0-.2.1-.2 0 0 .1.3 0 .4 0 .4 0 .1 0 .1-.1.1 0-.1 0-.2.1-.5zm2.5-22.3c-.1.5-.2.9-.4 1.3-.1.3-.1.7 0 1.3.2-.7.5-1.4.7-2.2s.2-1.4.2-1.9c0-.1-.1-.2-.2-.2 0-.1-.1-.1-.1-.2s.1-.2.2-.2.2 0 .2-.1c.1-.5.1-1 0-1.5 0-.6.1-1.1.4-1.7-.1-.1-.2-.1-.4.1-.1.2-.2.2-.3.2.2-.9.4-1.7.5-2.6.2-.8.4-1.7.4-2.6-.4.6-.6 1.3-.8 2.1-.2.8-.3 1.5-.6 2.2-.2-.3-.3-.7-.1-.9.2-.3.3-.6.4-.8.1-.4.1-.8.1-1.2 0-.4.2-.7.5-1-.1-.6-.1-1.3.2-2.1.3-.8.5-1.6.5-2.3-.2.1-.4.3-.4.5s0 .5-.2.7c.1-.6.2-1.3.4-1.9s.3-1.3.4-2c.3-1.3.7-2.6 1.1-3.8l1.2-3.9c.2-.9.5-1.7.9-2.4s.6-1.5.5-2.5c.2.2.3.2.4.1.2-.1.3-.2.4-.2.1-.1.1 0 .1.1s.2.1.4.1c.1 0 .1-.1.1-.1 0-.1.1-.1.3 0 .4.1.8.3 1.3.8.6.4 1 .7 1.4 1 .2.2.6.5 1.1.9.4.3.7.7.8 1 0 .2-.1.5-.1.8-.1.3-.2.7-.3 1-.1.9-.1 1.6-.1 2.2s-.1 1.2-.1 1.9c-.1 1.2-.2 2.5-.2 3.8 0 1.2-.1 2.2-.3 2.9 0 .2-.1.3-.2.4-.1.1-.1.2-.1.3-.1.3-.1.7 0 1 .1.3.1.6-.1.8.1 0 .1.2.2.3.1.1.1.1.1 0 .1.1.1.2-.1.4-.1.2-.2.3-.2.4.1.1.1.2.1.5 0 .2.1.4.1.7 0 .1-.1.2-.1.3s-.1.2-.1.2v.3c.1.1.1.2.1.3.1.7 0 1.4-.4 2.1-.3.7-.4 1.4-.4 2.1.1.1.1.2.2.2h.2c.1-.1.2-.1.2 0 .1 0 .1.1.1.3.3-.3.7-.5 1.1-.5.4-.1.7-.3.8-.8-.1-.1-.2-.1-.4.1s-.3.2-.5.1c.2-.2.4-.3.6-.4.3-.1.5 0 .6.3.2-.1.3-.1.4-.2.2-.1.3-.2.4-.3-.1-.2-.1-.2-.3-.1-.2.2-.3.2-.5.1.2-.2.4-.3.7-.4s.5-.1.8-.2.5-.1.7-.2c.2-.1.4-.3.6-.5-.1-.2-.1-.3-.2-.1-.1.2-.1.2-.1.1.7-.7 1.4-1.3 2.2-1.8s1.7-1 2.6-1.5c.2-.2.5-.4.8-.6.3-.2.6-.4.7-.6v-.3c.1-.1.1-.2.3-.2.2-.1.3-.1.4-.2.1-.1.1-.2 0-.3 0-.1.1-.2.1-.3.1-.1.3-.2.7-.4.4-.2.7-.3.9-.5.2-.1.3-.2.4-.5.1-.2.3-.4.5-.5.2-.2.4-.3.6-.4.2-.1.4-.2.7-.3.1-.2.2-.3.2-.5.1-.2.1-.3.2-.4.2-.2.4-.3.6-.4.3-.1.6-.2.8-.5.1-.1.2-.3.2-.5l.3-.6c.2-.1.4-.2.7-.3.2-.1.4-.2.4-.5.4.1.6.2.9.3.2.1.5.3.8.4.1.1.3.1.4.1h.4c.3.2.8.5 1.4.8s1.1.6 1.5.8c.1.1.3.2.5.4.3.2.6.3.8.5.3.2.5.3.8.5.2.2.4.3.4.5.1.2 0 .5-.2.7l-.7.7c-.2.4-.5.7-.7.9-.1.2-.4.4-.8.5-.2.2-.5.3-.8.4-.2.2-.4.3-.7.5-.2.1-.5.3-.8.4-.2.1-.5.2-.8.3-.2.2-.4.3-.6.4-.2.1-.4.2-.7.4l-.3.3c-.1.1-.1.2-.1.2-.2.2-.4.3-.6.4-.1.1-.3.1-.4.2-.2.1-.3.2-.4.4l-.4.4c-.5.4-1 .7-1.4.8-.4.1-.9.4-1.4.8-.3.3-.6.5-.8.6-.1.1-.4.3-.8.5-.6.2-1.1.6-1.6.9s-1 .7-1.4 1c-.2.2-.5.3-.7.4-.2.1-.3.2-.4.4-.4.2-.8.5-1.2.8-.4.2-.8.5-1.2.8l-1.1 1.1c-.3.3-.8.5-1.2.7-.2.2-.5.3-.8.4-.2.1-.5.2-.7.3-.2.1-.4.3-.4.5-.1.2-.1.3-.3.5h-.4c-.1-.1-.2-.1-.2 0-.4.2-.7.4-1 .6-.2.2-.4.3-.7.4 1.1 1.5 2.2 3.2 3.4 5 1.2 1.8 2.4 3.5 3.7 5.2 0 0 .1.1.1.2s0 .2.1.2c.1.1.2.2.3.2.1 0 .2 0 .3.2.2.2.3.5.4.8.2.2.4.5.6.7.6.9 1.4 1.8 2.2 2.8.8.9 1.6 1.8 2.3 2.7l.5 1c.2.3.4.7.8 1.1.3.4.7.9 1.1 1.4.5.5.7.9.7 1.2-.1.4-.4.7-.8.7s-1 0-1.6-.2c-.6-.2-1.1-.5-1.6-.8-.5-.3-.9-.6-1.1-.8-.5-.2-.9-.4-1.1-.6-.2-.2-.5-.5-1-.9-.2-.2-.4-.3-.5-.5-.1-.2-.2-.3-.3-.4l-.8-.8c-.2-.2-.4-.5-.7-.7-.2-.2-.4-.5-.7-.8-.3-.3-.6-.7-.9-1-.2-.4-.6-.5-1.1-.4-.9-1.3-2-2.5-3.1-3.7s-2.2-2.3-3.2-3.5c-.1.4-.3 1-.4 1.7-.1.7-.2 1.4-.4 2.2-.1.5-.3.9-.4 1.4-.1.5-.1.9-.1 1.2-.2 0-.3.1-.3.2-.1.2-.1.2-.1.3.1 0-.1 0-.4-.1-.2.5-.2 1-.3 1.6 0 .5-.1 1-.2 1.7 0 .3-.1.6-.2.8-.2.2-.2.5-.2.7 0 .1 0 .2.1.3.1.2.2.3.2.4.1 1.3-.1 2.6-.5 3.8-.4 1.2-.5 2.5-.5 3.8-.5 0-.7.4-.7 1-.7.2-1.4.3-2.1.3-.7 0-1.2-.1-1.6-.5-.1-.2-.2-.3-.4-.6-.2-.2-.3-.4-.4-.7-.1-.1-.2-.2-.4-.2-.1-.1-.2-.1-.3-.2-.2-.5-.5-1.1-.8-1.9-.2-.8-.4-1.4-.4-2 .2 0 .3.1.2.4 0 .3.1.5.3.5.1-.2.1-.5-.2-.9-.2-.4-.2-.8-.1-1.2 0-.1 0-.2.1-.3.1-.1.1-.2.1-.3s0-.2-.2-.4c-.1-.1-.1-.2-.2-.3 0-.1.1-.1.2-.2.1 0 .2-.1.2-.2-.2-.3-.2-.7-.2-1-.1-.2-.1-.5-.1-.7.1-.2 0-.4-.1-.7.2.7.4 1.4.4 2.1 0 .7.2 1.3.4 1.9.1-.2.1-.5.1-.9s-.1-.7-.4-.8c.4-.6.4-1.3.2-2.1s-.2-1.5-.2-2.3c0-.1 0-.2.1-.2.1-.1.2-.1.2-.2 0-.7.1-1.3.1-2v-1.9c0-.9 0-1.9.2-3.1.1-1.2.2-2.3.1-3.4 0-.1 0-.1-.1-.2 0-.1-.1-.2-.1-.3 0-.1 0-.1.1-.2s.1-.2.1-.3c.2-.7.4-1.5.3-2.4 0-.9 0-1.7.1-2.2 0-.1.1-.2.2-.2h.2s-.1-.2-.2-.3c0-.2.1-.2.5-.2 0-.2-.1-.3-.2-.2-.2 0-.3-.1-.4-.2.1-.2.2-.4.2-.5 0-.2.2-.3.4-.4-.2-.2-.3-.5-.2-.7s.3-.4.4-.7c0-.2 0-.4-.1-.6-.2-.8-.1-.9.1-.8zm1.6-10.6c-.1.3-.2.7-.3 1-.1.3-.1.6-.1 1-.1.2-.2.5-.2.8 0 .2.1.4.2.6.3-1 .6-2.1.8-3.3.2-1.2.4-2.3.5-3.4-.2.5-.4 1.1-.5 1.7s-.3 1-.4 1.6zm-.1-.5c-.1-.1-.1-.2-.1-.2.1 0 .1-.1 0-.2 0 .1 0 .1-.2.1 0-.1-.1 0-.2.1.2 0 .2.1.2.2s.1.1.3 0zm-2.1 16.3v-.3c0-.2 0-.2-.2-.1-.1.2-.1.4 0 .4.1.1.1.1.2 0zm-.3.9c.1-.1.1-.1.1-.2s0-.1-.1 0-.1.2 0 .2c0 .1 0 .1 0 0zm1-10.3c.1.2.1.4 0 .5 0 .2-.1.4-.2.6v.8c.1.3-.1.5-.4.6.2-.4.3-.8.4-1.2 0-.5.1-.9.2-1.3z"/><path id="path3429" class="st0" d="M172.7-87.3c0 .2-.1.5-.2.8-.1.3-.2.6-.4 1s-.4.7-.7 1c-.2.3-.4.5-.4.7-.3.6-.8 1.2-1.6 2.1-.8.9-1.5 1.5-2.2 2-.2.2-.3.3-.4.6-.1.2-.3.4-.4.5-.2.1-.5.2-.7.4-.1.2-.3.3-.5.5-.2.1-.4.3-.4.4-.1 0-.2.2-.4.4-.1 0-.2.1-.4.1-.1-.1-.3 0-.4.1-.1.1-.1.2-.1.3 0 .1 0 .1-.1.2-1.4 1.2-2.9 1.8-4.3 2.1-1.4.3-2.5.5-3.4.5-1.8 0-3.3-.1-4.6-.4-1.2-.2-2.3-.7-3.1-1.3-.8-.7-1.4-1.5-1.9-2.6-.4-1.2-.6-2.6-.7-4.3-.2-.2-.5-.2-.7 0-.2.2-.3.4-.5.6-.2.3-.5.7-.8 1.1s-.7.9-1.2 1.3c-.4.5-.9.9-1.4 1.3-.5.3-.9.6-1.4.6-.7.1-1.4 0-2.2-.2-.8-.3-1.6-.6-2.3-.8-.7-.4-1.2-.8-1.4-1.2-.3-.4-.6-1-1.1-1.7.2-.2.3-.6.2-1.1 0-.5.1-.8.4-.8.1-.3.1-.5-.1-.6-.2-.1-.2-.3-.1-.6.8-1.2 1.4-2.5 2.1-3.7.6-1.2 1.5-2.3 2.4-3.2.7-.6 1.4-1.2 1.9-1.7.6-.4 1.1-.8 1.5-1.1.5-.3.8-.4 1-.4.4 0 .8-.2 1.1-.5.3-.3.7-.6 1.1-.8.3-.2.7-.4 1.1-.5.4-.2.9-.3 1.2-.6.8.1 1.4.3 1.8.7.4.3 1 .6 1.7.8.4-.3.7-.7.8-1.3.1-.5.4-1 .8-1.3 1.4-.2 2.7-.1 3.7.4 1.1.4 1.8 1.1 2.4 2 .1.8 0 1.5-.1 2.2-.2.7-.4 1.4-.7 2.2-.3.7-.6 1.4-1.1 2.2-.4.7-.8 1.4-1.1 2.2-.1.3-.2.6-.4.9-.1.3-.2.7-.3 1-.2.7-.5 1.5-.8 2.4-.2.9-.3 1.8-.3 2.8 0 .6.1 1.1.2 1.7.2.6.4 1.1.7 1.5.7.2 1.2.4 1.7.4.6 0 1.1-.1 1.5-.2.5-.1 1-.3 1.4-.6.5-.3 1-.6 1.6-.9.5-.3.8-.5 1.1-.7s.4-.3.6-.5c.2-.1.4-.3.5-.4.2-.2.4-.3.8-.6.1-.1.2-.2.2-.4s.1-.3.2-.4c.1-.1.2-.1.3-.2s.2-.1.3-.2c.4-.3.9-.8 1.5-1.3.7-.6 1.3-1.1 1.9-1.7.7-.6 1.4-1.2 1.9-1.7.7-.6 1.2-1 1.6-1.4.3-.3.7-.5 1-.5.3-.1.5 0 .8.2l.3.2zm-25.2-4.6c.1 0 .1 0 .1-.1s-.1-.2-.4-.2c-1.6 1.1-3 2.3-4.1 3.8-1.1 1.5-2.2 3.1-3.2 4.7 1.1-.4 2.1-1.1 2.9-2 .8-.9 1.6-1.8 2.3-2.5.5-.6.9-1.1 1.4-1.7.5-.6.8-1.3 1-2z"/><path id="path3431" class="st0" d="M207-81.9c-.2.1-.4.3-.9.5-.4.2-.9.5-1.4.8l-1.8.9c-.2.1-.5.2-.9.4-.3.2-.7.3-1.1.5-.3.2-.6.3-.9.4s-.5.1-.7.1c-.6.4-1.2.7-1.7.8-.4.1-1.2.3-2.1.6-.3.1-.6.2-.8.3-.1.1-.2.1-.3.2 0 .1-.1.1-.2.2-.1 0-.2 0-.5.2l-1.3.4c-.1 0-.4.2-.8.3-.3.1-.6.2-.7.2-.1 0-.3 0-.7.1-.3.1-.6.2-.7.3-.4.2-.8.3-1 .3-.1 0-.3 0-.4-.1-.1-.1-.2-.1-.4-.1s-.4.1-.8.3c-.4.3-.9.5-1.4.7-.5.2-.9.3-1.4.4-.7.2-1.5.4-2.3.6-.8.2-1.6.3-2.5.3-.4 0-.9 0-1.4-.1-.4 0-.8-.2-1.3-.4-.3-.2-.6-.5-.8-.8-.2-.3-.6-.5-1.1-.6-.2.1-.2.2-.3.4 0 .2-.1.4-.2.5-.3.4-.7.7-1.1.8 0 .3-.1.6-.1.8-.1.2-.2.4-.3.5l-.3.6c-.1.2 0 .5.1.8-.5.6-.9 1.2-1.1 1.8-.2.7-.3 1.5-.6 2.3-.2.7-.5 1.4-.8 2.2-.3.8-.6 1.5-.8 2.3 0-.6 0-1.2.2-1.9l.6-1.8.6-1.8c.1-.6.2-1.2.2-1.7.1-.2.2-.5.3-.8.2-.3.3-.6.4-.8-.1-.2-.3-.2-.4.2-.1.3-.2.6-.3.7-.2.2-.2.5-.3.7 0 .2-.1.4-.1.6-.4.7-.7 1.3-.9 2-.2.6-.4 1.3-.7 2.2-.1.2-.1.3-.1.5 0 .1 0 .2-.1.3-.2.3-.3.6-.4.9-.1.3-.2.6-.4 1-.1.6-.2 1.1-.4 1.4-.1.3-.1.7-.1 1 0 .5 0 .9-.1 1.2 0 .2-.1.5-.2.7-.1.2-.2.4-.3.7-.2 1.8-.4 3.4-.4 5s-.1 3-.1 4.4c.1 0 .1 0 .1.2v.3c.1 0 .1 0 .1-.2.1-.2.2-.3.2-.2s.1.2 0 .3c-.1.1-.1.2-.1.4 0 .1-.1.2-.2.1.1.6.2 1 .4 1.4.1.5.2 1 .3 1.7.1.2.2.5.3.8 0 .4.1.8.2 1.3-.9.5-1.6.5-2.1.1-.6-.4-1-1.1-1.4-2.1-.5-1.1-.8-2.1-.8-2.9-.3-.8-.4-1.9-.4-3.2-.1-1.2-.1-2.5-.1-3.8.1-3.5.5-7 1.1-10.2.5-3.3 1.2-6.4 2.1-9.5.6-3 1.3-5.9 2.2-8.6.9-2.8 1.8-5.5 2.8-8.4.6-1.5 1.1-3 1.4-4.3.4-1.4.7-2.8 1-4.3-.1 0-.1-.1-.1-.1v-.1c-.1-.8-.1-1.4-.2-2.1 0-.7-.2-1.4-.4-2.1.8-.2 1.5-.2 2.2-.1.7.1 1.3.3 1.9.9-.1-.1.1 0 .3.1.3.1.5.2.8.4.3.2.5.3.8.5.2.2.3.3.1.5.1-.2.2-.2.3-.2.1 0 .3.1.5.2-.1.2-.1.4.1.6.2.2.2.5.3 1.1.1.2.2.2.4 0s.3-.1.3.2c0 .2.1.4.3.5.2 0 .4.2.4.4.1.6.2 1.2.1 1.8-.1.6-.1 1.2-.1 1.7.6-.2 1.3-.4 2.1-.7.8-.3 1.7-.6 2.6-.8.9-.2 1.9-.4 2.9-.5 1.1-.1 2.1-.1 3.1 0 .6.2 1.2.4 1.7.5.5.1 1 .3 1.4.8.2.1.4.2.4.4.1.1.2.1.3.1l1.6 1c.1 0 .1.1.1.2s0 .2.1.3c.2.1.3.2.4.6.2.3.3.7.4 1 .1.8.1 1.8 0 3.1s-.7 2.6-1.8 3.9c.2 0 .2.1.1.4-.1.2-.2.6-.4.9-.1.3-.3.6-.4.8-.1.2 0 .4.2.4.5-.1 1.4-.3 2.6-.8 1.2-.5 2.6-1.1 4.1-1.7 1.5-.7 2.9-1.4 4.4-2.2s2.5-1.5 3.4-2.2c.2-.1.3-.2.5-.3.4-.2.6-.2.8-.2.1.1 0 .3-.1.6s-.2.7-.3 1.1c-.2.4-.3.9-.5 1.5-.4.4-.7.8-.8 1-.1.2-.3.2-.3.3 0 .1-.1.1-.1.1 0-.1-.1 0-.2.2-.2.2-.7.6-1.3 1-.6.2-1.1.5-1.3.7zm-14.1-6.7c.1-.1.2-.3.4-.6s.3-.7.2-1.1c-1.3 0-2.6.2-4 .8-1.3.5-2.6.9-3.8 1.4-.2.2-.5.3-.8.4-.2.1-.6.2-1 .4l-.1.2-.7.2c-.4.3-.7.6-1 .9-.2.2-.6.5-1.1.8-.4.2-.8.4-1.1.6s-.5.3-.6.6c0 .1-.1.2-.2.2s-.1 0-.1.1c-.1.1-.1.2-.1.3.1 0 .1.1.1.2-.1.2-.3.2-.4.3-.1 0-.2.1-.2.1-.2.5-.5 1.1-.6 1.7-.1.6-.4 1.1-.8 1.4.6-.1 1.1-.3 1.6-.6.6-.3 1.1-.6 1.6-.7.2-.1.5-.1.8-.1.3-.1.5-.1.6-.2.2-.1.4-.2.4-.4.1-.1.2-.3.4-.5.1 0 .1 0 .2.1s.2 0 .2-.1c.1-.1.3-.2.5-.4s.4-.3.7-.3c.5-.4 1.1-.8 1.7-1.1.7-.3 1.3-.7 1.9-1.1 1.4-.4 2.4-1 3-1.7.5-.3.8-.6 1-.8.7-.3.9-.6 1.3-1z"/><path id="path3433" class="st0" d="M228.6-119.7c-.2.7-.5 1.4-.9 2.2-.4.7-.8 1.5-1.3 2.3-.3.8-.6 1.6-1 2.4-.3.9-.6 1.7-.8 2.6.1.2.2.4.4.4s.4 0 .5-.1c.8.1 1.4.2 1.8.2.5-.1 1.1-.1 1.8-.1.6.1 1.2.2 1.8.2.7.1 1.3.1 2 .1 2.1.1 4.1.3 6.3.5s4.3.7 6.2 1.3c-.2.1-.4.2-.4.3.1.1.1.2.1.4-.1.1-.2.1-.3.2-.1.1-.2 0-.3-.1-.1.2 0 .3.1.2.1-.1.1-.1.1.1h-2.3c-.8-.1-1.5 0-2.2.1h-1.1c-.3-.1-.7 0-1.1.1-.5 0-1.1.1-1.8.1-.6 0-1.2 0-1.9-.1-.8.1-1.7.2-2.5.3-.8.1-1.5.1-2.3.2-.2.1-.5.1-.8 0-.1.1-.2.1-.4.1-.1-.1-.2-.1-.3-.1 0 0-.1 0-.1.1 0 0 0 .1-.1.1-.2.1-.5.2-.7.2-.2 0-.4.1-.6.1-.3-.1-.7-.1-1.1.1-.4.1-.7.2-1 .2-.7-.1-1.2 0-1.4.2-.1.2-.3.5-.7 1.1-.3.5-.5 1-.6 1.3-.1.2-.2.4-.2.6 0 .2-.1.3-.2.6-.2.4-.3.8-.3 1.1-.1.3-.2.8-.4 1.3-.1.3-.2.5-.3.7-.1.1-.1.3-.1.4-.1 0-.1.1-.1.3.1.2.1.3.1.4-.2.2-.3.5-.4.8-.1.3-.2.6-.2 1-.2.7-.5 1.4-.7 2.2s-.4 1.5-.7 2.2c0 .2-.1.3-.2.6-.2.2-.2.4-.2.5-.1.4-.1.8-.1 1.2 0 .4-.1.7-.2 1-.1.4-.2.8-.2 1.1.1.3-.1.6-.3.8-.1.2-.1.5-.1.8s0 .6-.1.9c-.1.2-.1.6-.1 1.1 0 .4-.1.8-.3 1.2-.1.1-.1.2-.2.3-.1.1-.1.2-.1.2s.1 0 .1.1v.2l-.1.1s-.1 0-.1.1c0 0-.1 0-.1.2s.1.3.1.4c0 .1 0 .1-.1 0 0-.1-.1-.1-.1 0-.1.4-.3.8-.3 1.3s0 .9-.1 1.1l-.1.2v.7c0 .2.1.4.1.7-.1 1.4-.1 2.7.1 3.8.2 1.2.7 2.2 1.2 2.9.1.2.1.2 0 .2 0-.1-.1-.1-.1.2.3.3.6.7.8 1 .2.4.6.5 1.2.4.4.1.8.1 1.1-.1.3-.2.6-.4.9-.7.1-.1.1-.2.1-.4.1-.2.2-.3.4-.5.2.2.2.5 0 .7-.1.2-.2.4-.2.6-.1.1-.2.2-.2.3 0 .1 0 .1-.1.1-.1.2-.4.4-.8.6-.1.2-.3.5-.5.7-.2.2-.5.5-.9.8-.3.2-.5.3-.7.4-.1.2-.5.3-.9.4-1 .2-2 .1-3.1-.4s-2-1.1-2.6-1.8c-.1-.2-.2-.4-.3-.5 0-.1-.1-.3-.4-.8 0-.2-.1-.5-.3-.8-.2-.2-.4-.5-.6-.7-.1-.2-.1-.4-.1-.7-.1-.2-.1-.4-.1-.6-.1-.2-.2-.6-.2-.9-.1-.3-.2-.6-.3-.8 0-.4-.1-1-.1-1.6-.2-.6-.2-1.2-.3-1.7-.1-.6-.1-1.1-.1-1.7v-1.7c0-.1 0-.2-.1-.3-.1-.2-.1-.3-.1-.4 0-.1 0-.2.1-.2v-.3c.3-.4.4-.7.2-.8-.1-.2-.1-.7.1-1.3.1-.7.3-1.3.4-1.7 0-.2.1-.5.1-.6.1-.2.1-.4.1-.7.1-.3.2-.8.2-1.4-.1-.7 0-1.1.1-1.3.1-.2.1-.3.2-.6s.1-.4.1-.5c.2-.7.4-1.2.4-1.6.1-.4.2-.8.4-1.3-.1.1-.3.4-.6.9-.2.5-.4.8-.6 1h-.4c.1.1.1.2.1.4-.2.4-.5.8-.8 1.3-.3.4-.5.8-.7 1.2 0-.5.2-1 .5-1.6 0-.2.1-.4.1-.8l.3-.3v-.3c.1-.1.1-.2.1-.3v-.4c0-.1.1-.2.1-.2.1 0 .1-.1.1-.2.1-.1.1-.1.1-.2-.1-.1-.1-.2-.1-.2.1-.1.2-.2.3-.2.1 0 .1-.2 0-.3.1-.1.1-.2.1-.4s0-.3.1-.5c-.1-.1-.1-.2 0-.2.1-.1.1-.2.1-.4.1-.2.2-.3.1-.5.1-.1.1-.2.1-.2.1-.1.1-.2.1-.3.1-.2.1-.3 0-.4v-.3c0-.1 0-.1.1-.2s.2-.3.2-.5c.1-.2.1-.4.1-.5-.1-.2 0-.3.1-.5l.3-.3c.1-.2.1-.3.1-.5v-.5c0-.1 0-.3.1-.5s.2-.3.3-.4c.1-.1.3-.1.3-.2v-.2-.3l.2-.2c.1-.2.1-.3.1-.4v-.4c0-.1.1-.2.4-.4-.1-.1-.1-.2-.1-.3s.1-.2.1-.2c.1-.4.2-.7.3-.9.2-.2.2-.4.3-.7-.1 0-.1 0 0 0 .1-.1-.2 0-1 .2-.8.1-1.6.1-2.3.2-.8 0-1.5.1-2.2.2h-2.9c-.9 0-1.8-.1-2.5-.4-.2 0-.4 0-.6-.1-.2-.1-.4-.1-.8-.2-.4-.2-.9-.5-1.2-.6-.4-.2-.8-.5-1.1-.9l-.9-.6c-.4-.2-.6-.4-.7-.7-.1-.1-.1-.2-.1-.4s-.1-.3-.1-.4c.5.1 1.1.1 1.6 0s1-.3 1.4-.4c.9-.4 1.9-.7 2.9-.8 1.1-.2 2.1-.4 3.1-.7 1.8-.2 3.5-.4 5.2-.6 1.8-.2 3.7-.2 5.8-.2.5-.1.7-.1.5 0-.1 0-.1-.1.1-.2s.2-.2.2-.3c.1-.1.1-.3.2-.5 0-.2.1-.4.2-.5.2-.1.3-.2.4-.3 0-.1.1-.2.1-.3s0-.2.1-.3c0-.1.1-.1.1-.2.2-.1.2-.2.3-.3-.1-.2-.1-.3-.1-.4l.2-.2c.5-.4.8-.7.8-1 .6-1.1 1.4-2.4 2.3-3.8.2-.2.3-.5.4-.8.1-.3.3-.5.5-.6.2-.2.2-.3.3-.4.1-.1.2-.2.2-.4.1-.1.2-.1.2-.2.1-.2.1-.2.1-.3 0-.3.2-.4.8-.2.1 0 .1 0 .1-.1.1-.1.1-.1.1 0 .2 0 .3 0 .4-.1.1 0 .2-.1.4-.1.1 0 .2 0 .3.2.2.1.3.1.4.1.1.1.2.2.3.4.2.1.4.2.6.4h.1v.2c.2.1.3.2.4.2 1.3.2 1.4.4 1.5.6z"/><path id="path3435" class="st0" d="M259.4-88.3c.4.1.7.5.8 1.1.1.6 0 1.2-.5 1.7-.1.2-.3.5-.5.9-.2.3-.4.6-.6.8-.1.1-.3.2-.6.4-.2.2-.4.3-.4.4-.2.1-.4.2-.7.5-.2.3-.4.5-.5.5s-.4.2-.7.5c-.4.2-.6.4-.8.5-.6.2-.9.5-1 .8-.1.2-.4.5-.9.8-.3.1-.8.2-1.2.4-.4.2-.8.4-1 .6-.3.2-.7.4-1 .4s-.6.2-.8.6c-.3-.1-.6 0-1 .2-.3.2-.8.3-1.2.4-.2.1-.5.2-.9.2-.3.1-.6.1-.9.1-1.1.5-2.2.8-3.5.8-.7.1-1.4.1-2.3 0-.2-.1-.3-.1-.4-.1-.1 0-.2-.1-.4-.1-.5-.2-.9-.3-1.4-.3-.4 0-.9-.2-1.3-.3-.1 0-.2-.1-.5-.2-.2-.2-.5-.3-.8-.4-.3-.2-.6-.3-.9-.4-.2-.2-.4-.2-.4-.2-.2-.1-.5-.3-.7-.5l-.6-.9c-.2-.3-.3-.7-.5-.9-.2-.3-.4-.5-.6-.7-.1-.1-.2-.1-.3 0-.2 0-.3 0-.4-.1-.2-.1-.2-.2-.3-.4-.1-.2-.2-.3-.2-.5-.1-.4 0-.8.1-1.2.2-.4.2-.7.1-1 .1-.1.2-.1.3-.1.1 0 .2-.1.3-.3-.3-.2-.4-.6-.4-1.1 0-.5.1-1 .3-1.5.2-.5.3-1 .5-1.4.2-.4.4-.8.4-1 0-.3.1-.6.1-.8s0-.4.1-.5c.1-.2.2-.3.4-.4.2-.2.4-.3.4-.4.1-.4.3-.8.5-1.1.2-.5.6-1 1.1-1.5.5-.6 1-1.1 1.6-1.7.2-.3.5-.6.8-.8.3-.2.6-.6 1-.9.4-.2.7-.3 1-.4.2-.2.6-.4.9-.7.7-.6 1.6-.9 2.4-.8.9 0 1.6.1 2.3.3.2.1.4.2.5.4.1.2.2.3.4.4.1.1.2.1.2.1.1-.1.2-.2.4-.2.3.1.6.2 1 .4s.8.4 1.1.7c.4.2.7.5 1 .8.3.2.5.5.5.7 0 .1.1.2.2.3s.2.2.2.3c.2.7.2 1.2-.1 1.6-.2.3-.3.6-.5 1l-1.1 1.1c-.3.2-.6.5-.8.9 0 .1-.1.2-.5.5l-.5.5c-.4.4-.9.7-1.4 1-.5.2-1 .6-1.4 1l-.4.4c-.2.1-.4.2-.7.4-.3.2-.6.4-1 .6-.1.1-.2.2-.5.2-.2.1-.4.1-.5.2-.1.1-.4.3-.6.6-.3.2-.6.4-1 .6-.1.1-.2.2-.4.2-.2-.1-.2 0-.3.1-.2.1-.5.3-.8.5s-.5.3-.9.3c-.1.2-.2.5-.3.9v1.3c.1.5.3.9.5 1.3.3.3.8.6 1.4.6.1 0 .3.1.8.2.4.1.7.2.8.3.8 0 1.7 0 2.6-.2 1-.2 1.9-.4 2.8-.5 1.9-.4 3.8-1.1 5.5-1.9 1.8-.8 3.4-1.7 4.7-2.6.2-.2.4-.3.5-.3.1-.1.2-.1.5-.2.2-.1.5-.3.9-.5.4-.3.8-.6 1.1-.9.4-.3.8-.7 1-1 .6-.7.8-1.1.8-1.4zm-21.5.8c.8-.4 1.6-1 2.4-1.7.8-.7 1.5-1.3 2.4-1.9.3-.2.6-.5.9-.8.3-.3.6-.6.7-.8.1-.2.1-.4.1-.6 0-.2-.1-.3-.1-.4-.1-.1-.3-.1-.5-.1 0 0-.1 0-.1.1-1.2.7-2.3 1.6-3.4 2.7s-2 2.2-2.9 3.4c0 .2 0 .2.1.2.2 0 .3-.1.4-.1z"/><path id="path3437" class="st0" d="M278.9-97.1c.1 1.2.2 2.4.2 3.6 0 1.2-.1 2.3-.3 3.3-.1.2-.2.6-.5 1-.2.4-.3.7-.4 1-.2.8-.3 1.5-.5 2.3-.1.8-.3 1.5-.5 2.3-.1.4-.3.8-.5 1.1-.1.4-.2.7-.3 1.1-.2.8-.5 1.6-.8 2.2-.2.7-.4 1.4-.6 2.2v1.3c-.1.4-.2.9-.3 1.5 0 .5 0 1.1.3 1.6.1.2.2.3.5.6s.4.5.7.7c.3.2.6.3 1 .4.4.1.8.1 1.2 0-.1.2-.1.5-.1.8 0 .3-.1.5-.4.8-.1 0-.2.1-.4.1h-.3c-.1.1-.2.2-.2.3s-.1.2-.2.3c-.6.1-1.3 0-2.1-.3s-1.4-.6-2-.8c-.6-.3-1.2-.8-1.6-1.3-.4-.5-.8-.8-1-1.1.1-.5 0-.9-.4-1.4-.3-.4-.6-1-.8-1.6-.1-.2-.1-.5-.1-.8V-77c-.2-2.8 0-5.6.7-8.2.1-.8.4-1.6.7-2.2.4-.7.5-1.4.4-2.1-.1.3-.3.6-.5.8-.2.2-.4.3-.6.6-.1.1-.2.2-.2.5 0 .2-.1.4-.2.7-.1.1-.1.1-.3.2-.1.1-.1.2-.1.3-.4.5-.8 1-1 1.4-.3.5-.6.9-1 1.4-.3.3-.6.7-.8 1.1s-.6.7-.9 1c-.1.2-.2.5-.4.8l-.3.6-.4.4c-.1.1-.3.3-.4.5-.1.2-.3.5-.5.8-.1.2-.3.4-.4.6-.2.2-.4.3-.8.4-.3.1-.5.3-.6.5-.1.2-.1.2-.3.3-.2 0-.3 0-.5.1-.1.1-.3.1-.4.2-.1.1 0 .2.1.5-.3-.3-.7-.5-1.2-.5s-1-.1-1.5-.2c-.6-.8-1-2-1-3.5s.2-3.1.6-4.8c.4-1.8.6-3.2.9-4.4.4-1 .7-2.1.9-3.2.2-1.2.5-2.3.9-3.5.1-.1.2-.2.3-.2.1-.1.2-.1.4-.1 0-.4-.1-.8-.2-1.1-.1-.4 0-.6.4-.7.2-.1.5-.1 1-.1s1 .1 1.5.3c.5.1 1 .2 1.4.5.4.1.7.3.8.4 0 .1 0 .2.1.3v.2c0 .1.1.1.1 0 .1.2.1.6 0 .9 0 .3-.2.7-.5 1.1-.1 1-.3 2-.4 3.1-.1 1-.3 2.1-.5 3.1.1.2.2.2.3 0 .1-.2.1-.3.2-.4.2-.1.3-.2.4-.2.2 0 .3-.1.5-.3 0-.1-.1-.1-.1-.2v-.2c0-.1 0-.1.1 0 .1 0 .2 0 .2-.1l.1-.1c0-.1 0-.1.1-.2.6-.6 1.3-1.3 2-2.1s1.6-1.6 2.5-2.4c.1 0 .2-.1.3-.1.1-.1.3-.1.5-.2.1-.2.2-.4.5-.5l.6-.3v-.2c0-.1 0-.2.1-.2.1-.1.3-.2.5-.2.2-.1.3-.1.5-.2.3-.2.5-.5.7-.7.2-.2.4-.4.6-.5.2-.1.5-.1.7.1.2.1.5.1.8.1.4.1.9.1 1.3 0s.8-.1 1.2 0c.2.1.3.2.4.4-.3-.3-.1-.2.1-.2z"/></g></g></svg>