<svg id="Ebene_1" data-name="Ebene 1" xmlns="http://www.w3.org/2000/svg" viewBox="0 0 1224 370"><defs><style>.cls-1,.cls-2{fill:#374858;}.cls-1{stroke:#374858;stroke-miterlimit:10;stroke-width:4px;opacity:0.3;}.cls-3{fill:#ef7873;}.cls-4{fill:#fff;}</style></defs><title>_</title><rect class="cls-1" x="684.5" y="72.5" width="428" height="276" rx="16.45" ry="16.45"/><rect class="cls-1" x="28.5" y="76.5" width="428" height="276" rx="16.45" ry="16.45"/><path class="cls-2" d="M100.43,128.36l5.72,26h-2.81l-1.55-7.71H95.17l-1.55,7.71H90.81l5.73-26h3.89Zm-4.86,15.92h5.83l-2.88-14H98.44Z"/><path class="cls-2" d="M115.83,128.36L120.37,148h0.07l4.43-19.66h4.47v26h-2.59V130.52h-0.07l-5.4,23.84h-1.84L114,130.52H114v23.84h-2.59v-26h4.47Z"/><path class="cls-2" d="M148.48,128.36v2.38h-9.08v8.86h6.7V142h-6.7v10h9.51v2.38H136.6v-26h11.88Z"/><path class="cls-2" d="M155.47,128.36h6.27c4.18,0,7.13,2.45,7.13,6.73,0,2.92-1.3,5.37-4.18,6.37l4.39,12.89h-3L161.95,142l-3.67.14v12.17h-2.81v-26Zm2.81,11.38h2.45c4,0,5.33-1.58,5.33-4.5s-1.3-4.5-5.33-4.5h-2.45v9Z"/><path class="cls-2" d="M179.37,128.36v26h-2.81v-26h2.81Z"/><path class="cls-2" d="M197.88,136.21c-0.36-4.11-1.66-5.83-3.85-5.83-3.28,0-4.72,2.88-4.72,11s1.44,11,4.72,11c2.63,0,4.14-1.8,4.21-6.63H201c-0.07,5.76-2.59,9-7,9-4.65,0-7.53-3.53-7.53-13.36S189.38,128,194,128c3.85,0,6.23,2.66,6.66,8.21h-2.81Z"/><path class="cls-2" d="M215.66,128.36l5.73,26h-2.81L217,146.65H210.4l-1.55,7.71H206l5.72-26h3.89Zm-4.86,15.92h5.83l-2.88-14h-0.07Z"/><path class="cls-2" d="M231,128.36l6.7,19.16h0.07V128.36h2.81v26h-3l-8.07-22.62h-0.07v22.62H226.6v-26H231Z"/><path class="cls-2" d="M270.6,128.36v2.38h-9.08v8.86h6.7V142h-6.7v10H271v2.38H258.71v-26H270.6Z"/><path class="cls-2" d="M278.94,128.36l4,9.22,3.67-9.22h3l-5.11,12.17,6.19,13.83h-3l-4.75-10.87-4.18,10.87h-3l5.62-13.83-5.4-12.17h3Z"/><path class="cls-2" d="M296.08,128.36h6.12c4.18,0,6.91,2.81,6.91,7.13s-2.74,7.13-6.91,7.13h-3.31v11.74h-2.81v-26Zm2.81,11.88h3c2.81,0,4.47-1.51,4.47-4.75s-1.66-4.75-4.47-4.75h-3v9.51Z"/><path class="cls-2" d="M315.3,128.36h6.27c4.18,0,7.13,2.45,7.13,6.73,0,2.92-1.3,5.37-4.18,6.37l4.39,12.89h-3L321.78,142l-3.67.14v12.17H315.3v-26Zm2.81,11.38h2.45c4,0,5.33-1.58,5.33-4.5s-1.3-4.5-5.33-4.5h-2.45v9Z"/><path class="cls-2" d="M348.06,128.36v2.38H339v8.86h6.7V142H339v10h9.51v2.38H336.18v-26h11.88Z"/><path class="cls-2" d="M364.34,135.06c-0.22-2.67-1.3-4.68-4-4.68a3.33,3.33,0,0,0-3.57,3.42c0,5.87,10.44,5.94,10.44,14.3,0,4.14-2.38,6.62-6.66,6.62-4.07,0-6.52-3-6.59-7.35h2.59c0.07,3.06,1.51,5,4.29,5,2.34,0,3.85-1.51,3.85-4.29,0-5.9-10.44-6.59-10.44-14,0-3.67,2.52-6,6.27-6s6.19,2.52,6.41,7.06h-2.59Z"/><path class="cls-2" d="M383.2,135.06c-0.22-2.67-1.3-4.68-4-4.68a3.33,3.33,0,0,0-3.57,3.42c0,5.87,10.44,5.94,10.44,14.3,0,4.14-2.38,6.62-6.66,6.62-4.07,0-6.52-3-6.59-7.35h2.59c0.07,3.06,1.51,5,4.29,5,2.34,0,3.85-1.51,3.85-4.29,0-5.9-10.44-6.59-10.44-14,0-3.67,2.52-6,6.27-6s6.19,2.52,6.41,7.06H383.2Z"/><path class="cls-2" d="M90.49,158.86v-1.8H390.4v1.8H90.49Z"/><path class="cls-2" d="M77,264.3v-2.16h3.17V241.25l-3.24.29V240a10,10,0,0,0,4.11-2H82.8v24.2h3v2.16H77Z"/><path class="cls-2" d="M93.82,264.3v-2.16c2.3-7.71,9.51-12,9.51-17.93,0-2.74-1.37-4.11-3.13-4.11-2.05,0-3.56,1.58-3.78,5.47H94c0.29-5.9,3-7.63,6.08-7.63,3.42,0,5.8,2.3,5.8,6.62,0,6.48-5.83,8.5-9.72,17.57h9.87v2.16H93.82Z"/><path class="cls-2" d="M113.11,243.48c0.29-3.06,1.94-5.54,5.29-5.54,2.92,0,5.8,2,5.8,6.34,0,3.67-1.51,5.76-3.39,6.12v0.07c2.92,1,3.82,3.71,3.82,6.48,0,5.33-3.1,7.71-6.34,7.71-3.46,0-5.8-2.77-5.83-6.55h2.38c0.22,2.81,1.44,4.39,3.75,4.39,1.73,0,3.46-1.87,3.46-5.44,0-4.29-1.8-5.51-5.91-5.51v-2.16c3.89,0,5.47-.94,5.47-5,0-3.1-1.22-4.32-3-4.32-2.23,0-3,1.87-3.1,3.67Z"/><path class="cls-2" d="M141.59,238.3v17.93h2.7v2.16h-2.7v5.91H139v-5.91h-8.32v-1.22l7.13-18.87h3.78Zm-8.46,17.93H139V240.67h-0.07Z"/><path class="cls-2" d="M163.94,258.24c0.22,1.87,1,4.25,3.31,4.25s3.89-2.3,3.89-6.81c0-4.86-1.66-6.37-3.56-6.37a3.58,3.58,0,0,0-3.28,2.52l-2-.36,0.86-13.18h9.15l-0.22,2.16h-6.84l-0.5,7.92a5.38,5.38,0,0,1,3.46-1.22c3,0,5.55,2.81,5.55,8.46,0,5.94-2.88,9-6.34,9-3.75,0-5.62-2.81-5.83-6.19Z"/><path class="cls-2" d="M189.58,243.12c-0.36-2.59-1.8-3-2.81-3-2.3,0-3.75,3.17-3.82,10.41a5.65,5.65,0,0,1,4-2c2.92,0,5.58,2.09,5.58,8,0,5-2.16,8.14-5.58,8.14-4.5,0-6.66-2.59-6.66-12,0-10.44,2.45-14.76,6.55-14.76,3.35,0,4.61,2,5.11,5Zm-6.7,12.24c0,5.26,1.37,7.13,3.67,7.13,2,0,3.38-1.51,3.38-6s-1.58-5.8-3.24-5.8a4.93,4.93,0,0,0-3.82,2.23v2.45Z"/><path class="cls-2" d="M199.44,238.3h11.67v1.37l-7.56,24.63h-2.74l7.56-23.84h-8.93V238.3Z"/><path class="cls-2" d="M224.14,264.65c-4,0-6.41-3.17-6.41-6.91,0-3.21,1.69-5.51,4.18-7.27-2.3-1.84-3.6-3.64-3.6-6.7a5.83,5.83,0,1,1,11.67,0c0,3.06-1.3,4.86-3.6,6.7,2.48,1.76,4.18,4.07,4.18,7.27C230.55,261.49,228.17,264.65,224.14,264.65Zm0-12.82c-2.09,1.55-3.82,3.21-3.82,6,0,2.12,1.15,4.64,3.82,4.64S228,260,228,257.85C228,255,226.22,253.38,224.14,251.84Zm0-11.74a3.17,3.17,0,0,0-3.24,3.38,6.51,6.51,0,0,0,3.24,5.76,6.51,6.51,0,0,0,3.24-5.76A3.17,3.17,0,0,0,224.14,240.1Z"/><path class="cls-2" d="M250.7,259.47c0.36,2.59,1.8,3,2.81,3,2.3,0,3.75-3.17,3.82-10.41a5.65,5.65,0,0,1-4,2c-2.92,0-5.58-2.09-5.58-8,0-5,2.16-8.14,5.58-8.14,4.5,0,6.66,2.59,6.66,12,0,10.44-2.45,14.76-6.55,14.76-3.35,0-4.61-2-5.11-5Zm6.7-12.24c0-5.26-1.37-7.13-3.67-7.13-2,0-3.38,1.51-3.38,6s1.58,5.8,3.24,5.8a4.94,4.94,0,0,0,3.82-2.23v-2.45Z"/><path class="cls-2" d="M272.73,264.65c-4.25,0-6.27-4-6.27-13.36s2-13.36,6.27-13.36,6.27,4,6.27,13.36S277,264.65,272.73,264.65Zm0-24.56c-2.38,0-3.67,2.66-3.67,11.2s1.3,11.2,3.67,11.2,3.67-2.66,3.67-11.2S275.11,240.1,272.73,240.1Z"/><path class="cls-2" d="M287.42,264.3v-2.16h3.17V241.25l-3.24.29V240a10,10,0,0,0,4.11-2h1.73v24.2h3v2.16h-8.79Z"/><path class="cls-2" d="M304.19,264.3v-2.16c2.3-7.71,9.51-12,9.51-17.93,0-2.74-1.37-4.11-3.13-4.11-2.05,0-3.56,1.58-3.78,5.47h-2.38c0.29-5.9,3-7.63,6.08-7.63,3.42,0,5.8,2.3,5.8,6.62,0,6.48-5.83,8.5-9.72,17.57h9.87v2.16H304.19Z"/><path class="cls-2" d="M334.36,243.48c0.29-3.06,1.95-5.54,5.29-5.54,2.92,0,5.8,2,5.8,6.34,0,3.67-1.51,5.76-3.38,6.12v0.07c2.92,1,3.82,3.71,3.82,6.48,0,5.33-3.1,7.71-6.34,7.71-3.46,0-5.8-2.77-5.83-6.55h2.38c0.22,2.81,1.44,4.39,3.75,4.39,1.73,0,3.46-1.87,3.46-5.44,0-4.29-1.8-5.51-5.91-5.51v-2.16c3.89,0,5.47-.94,5.47-5,0-3.1-1.22-4.32-3-4.32-2.23,0-3,1.87-3.1,3.67Z"/><path class="cls-2" d="M362.84,238.3v17.93h2.7v2.16h-2.7v5.91h-2.59v-5.91h-8.32v-1.22l7.13-18.87h3.78Zm-8.46,17.93h5.87V240.67h-0.07Z"/><path class="cls-2" d="M374.32,258.24c0.22,1.87,1,4.25,3.31,4.25s3.89-2.3,3.89-6.81c0-4.86-1.66-6.37-3.57-6.37a3.58,3.58,0,0,0-3.28,2.52l-2-.36,0.87-13.18h9.15l-0.22,2.16h-6.84l-0.5,7.92a5.38,5.38,0,0,1,3.46-1.22c3,0,5.55,2.81,5.55,8.46,0,5.94-2.88,9-6.34,9-3.75,0-5.62-2.81-5.83-6.19Z"/><path class="cls-2" d="M400,243.12c-0.36-2.59-1.8-3-2.81-3-2.3,0-3.75,3.17-3.82,10.41a5.65,5.65,0,0,1,4-2c2.92,0,5.58,2.09,5.58,8,0,5-2.16,8.14-5.58,8.14-4.5,0-6.66-2.59-6.66-12,0-10.44,2.45-14.76,6.55-14.76,3.35,0,4.61,2,5.11,5Zm-6.7,12.24c0,5.26,1.37,7.13,3.67,7.13,2,0,3.38-1.51,3.38-6s-1.58-5.8-3.24-5.8a4.94,4.94,0,0,0-3.82,2.23v2.45Z"/><path class="cls-3" d="M497.6,199.88c-0.36-4.11-1.66-5.83-3.85-5.83-3.28,0-4.72,2.88-4.72,11s1.44,11,4.72,11c2.63,0,4.14-1.8,4.21-6.62h2.81c-0.07,5.76-2.59,9-7,9-4.65,0-7.53-3.53-7.53-13.36s2.88-13.36,7.53-13.36c3.85,0,6.23,2.66,6.66,8.21H497.6Z"/><path class="cls-3" d="M510.84,192v26H508V192h2.81Z"/><path class="cls-3" d="M518.69,192h4.83c5.47,0,8.79,3,8.79,13s-3.31,13-8.79,13h-4.83V192Zm2.81,23.62H523c4.1,0,6.48-1.73,6.48-10.62s-2.38-10.62-6.48-10.62H521.5v21.25Z"/><path class="cls-2" d="M77,282.31l2.48,6.32,2.4-6.32h1.68l-3.32,8.31v6.12H78.68v-6.12l-3.36-8.31H77Z"/><path class="cls-2" d="M88.26,286.15c2.18,0,3.18,1.64,3.18,5.4s-1,5.4-3.18,5.4-3.18-1.64-3.18-5.4S86.08,286.15,88.26,286.15Zm0,9.59c1.22,0,1.74-.76,1.74-4.2s-0.52-4.2-1.74-4.2-1.74.76-1.74,4.2S87,295.74,88.26,295.74Z"/><path class="cls-2" d="M101.2,296.74H99.84V295.6a4.11,4.11,0,0,1-2.36,1.34c-1.44,0-2.28-.8-2.28-2.72v-7.87h1.44V294c0,1.2.36,1.72,1.14,1.72a2.72,2.72,0,0,0,2-1.28v-8.12h1.44v10.39Z"/><path class="cls-2" d="M105.56,286.35H107v1.26h0a2.66,2.66,0,0,1,2.64-1.46v1.36c-1.08,0-1.9.36-2.68,1.84v7.4h-1.44V286.35Z"/><path class="cls-2" d="M121,282.31l3.72,10.63h0V282.31h1.56v14.43h-1.68l-4.48-12.55h0v12.55h-1.56V282.31H121Z"/><path class="cls-2" d="M130.28,289.19c0.28-1.64,1.24-3,3.08-3a2.71,2.71,0,0,1,3,3v5.8a4.3,4.3,0,0,0,.26,1.84h-1.5l-0.18-.88a3.81,3.81,0,0,1-2.22,1.08,2.52,2.52,0,0,1-2.7-2.68c0-2.56,2.82-3.86,4.9-4.32v-0.74a1.59,1.59,0,0,0-1.5-1.86c-1.1,0-1.64,1.1-1.8,2Zm4.62,2c-1.32.4-3.46,1.36-3.46,3a1.37,1.37,0,0,0,1.48,1.6,3,3,0,0,0,2-1.08v-3.52Z"/><path class="cls-2" d="M141.12,296.74V286.35h1.32v1.14a3.37,3.37,0,0,1,2.42-1.34,2,2,0,0,1,1.86,1.32,3.42,3.42,0,0,1,2.42-1.32c1.36,0,2.1.92,2.1,2.4v8.2h-1.44v-8c0-1.08-.32-1.4-1.08-1.4a2.51,2.51,0,0,0-1.82,1.08v8.31h-1.44v-8c0-1.08-.38-1.4-1.14-1.4a2.29,2.29,0,0,0-1.76,1.08v8.31h-1.44Z"/><path class="cls-2" d="M156.6,291.79v0.58c0,2.54.58,3.38,1.94,3.38,1.1,0,1.56-1,1.74-2l1.36,0.16a3.33,3.33,0,0,1-3.3,3c-2.18,0-3.18-1.64-3.18-5.4s1-5.4,3.18-5.4,3.18,2,3.18,5v0.68H156.6Zm3.48-1.2c0-2.24-.44-3.24-1.74-3.24-1,0-1.72.76-1.74,3.24h3.48Z"/><rect class="cls-4" x="332" y="181" width="88" height="50"/><path class="cls-3" d="M420,231H332V181h88v50Zm-82-6h76V187H338v38Z"/><path class="cls-2" d="M750.33,21.48l4.57,20.6H755l4.57-20.6h2.81l-6.12,26h-2.59l-6.12-26h2.81Z"/><path class="cls-2" d="M771.21,21.48v26H768.4v-26h2.81Z"/><path class="cls-2" d="M788.35,28.18c-0.22-2.67-1.3-4.68-4-4.68a3.33,3.33,0,0,0-3.56,3.42c0,5.87,10.44,5.94,10.44,14.3,0,4.14-2.38,6.62-6.66,6.62-4.07,0-6.52-3-6.59-7.35h2.59c0.07,3.06,1.51,5,4.29,5,2.34,0,3.85-1.51,3.85-4.29,0-5.9-10.44-6.59-10.44-14,0-3.67,2.52-6,6.27-6s6.19,2.52,6.41,7.06h-2.59Z"/><path class="cls-2" d="M805.48,21.48l5.73,26H808.4l-1.55-7.71h-6.63l-1.55,7.71h-2.81l5.73-26h3.89ZM800.62,37.4h5.83l-2.88-14H803.5Z"/><path class="cls-2" d="M824.92,47.84l8.35-26.72h2.38l-8.35,26.72h-2.38Z"/><path class="cls-2" d="M855.52,21.48l4.54,19.66h0.07l4.43-19.66H869v26h-2.59V23.65h-0.07L861,47.48h-1.84l-5.4-23.84h-0.07V47.48h-2.59v-26h4.47Z"/><path class="cls-2" d="M883.85,21.48l5.73,26h-2.81l-1.55-7.71h-6.63L877,47.48h-2.81l5.73-26h3.89ZM879,37.4h5.83l-2.88-14h-0.07Z"/><path class="cls-2" d="M904.44,28.18c-0.22-2.67-1.3-4.68-4-4.68a3.33,3.33,0,0,0-3.57,3.42c0,5.87,10.44,5.94,10.44,14.3,0,4.14-2.38,6.62-6.66,6.62-4.07,0-6.52-3-6.59-7.35h2.59c0.07,3.06,1.51,5,4.29,5,2.34,0,3.85-1.51,3.85-4.29,0-5.9-10.44-6.59-10.44-14,0-3.67,2.52-6,6.27-6s6.19,2.52,6.41,7.06h-2.59Z"/><path class="cls-2" d="M925.36,21.48v2.38H920V47.48h-2.81V23.86h-5.33V21.48h13.47Z"/><path class="cls-2" d="M942.78,21.48v2.38h-9.07v8.86h6.7V35.1h-6.7v10h9.51v2.38H930.9v-26h11.88Z"/><path class="cls-2" d="M949.76,21.48H956c4.18,0,7.13,2.45,7.13,6.73,0,2.92-1.3,5.37-4.18,6.37l4.39,12.89h-3l-4.18-12.32-3.67.14V47.48h-2.81v-26Zm2.81,11.38H955c4,0,5.33-1.58,5.33-4.5s-1.3-4.5-5.33-4.5h-2.45v9Z"/><path class="cls-2" d="M981.3,29.34c-0.36-4.11-1.66-5.83-3.85-5.83-3.28,0-4.72,2.88-4.72,11s1.44,11,4.72,11c2.63,0,4.14-1.8,4.21-6.63h2.81c-0.07,5.76-2.59,9-7,9-4.65,0-7.53-3.53-7.53-13.36s2.88-13.36,7.53-13.36c3.85,0,6.23,2.66,6.66,8.21H981.3Z"/><path class="cls-2" d="M999.09,21.48l5.72,26H1002l-1.55-7.71h-6.63l-1.55,7.71h-2.81l5.73-26h3.89ZM994.22,37.4h5.83l-2.88-14H997.1Z"/><path class="cls-2" d="M1010.39,21.48h6.27c4.18,0,7.13,2.45,7.13,6.73,0,2.92-1.3,5.37-4.18,6.37L1024,47.48h-3l-4.18-12.32-3.67.14V47.48h-2.81v-26Zm2.81,11.38h2.45c4,0,5.33-1.58,5.33-4.5s-1.3-4.5-5.33-4.5h-2.45v9Z"/><path class="cls-2" d="M1031.27,21.48h4.83c5.47,0,8.79,3,8.79,13s-3.31,13-8.79,13h-4.83v-26Zm2.81,23.62h1.51c4.11,0,6.48-1.73,6.48-10.62s-2.38-10.62-6.48-10.62h-1.51V45.11Z"/><path class="cls-2" d="M746.94,52v-1.8h302.82V52H746.94Z"/><path class="cls-3" d="M1153.51,250.1c-0.36-4.11-1.66-5.83-3.85-5.83-3.28,0-4.72,2.88-4.72,11s1.44,11,4.72,11c2.63,0,4.14-1.8,4.21-6.63h2.81c-0.07,5.76-2.59,9-7,9-4.65,0-7.53-3.53-7.53-13.36s2.88-13.36,7.53-13.36c3.85,0,6.23,2.66,6.66,8.21h-2.81Z"/><path class="cls-3" d="M1164.73,242.25l4.57,20.6h0.07l4.57-20.6h2.81l-6.12,26H1168l-6.12-26h2.81Z"/><path class="cls-3" d="M1183.6,242.25l4.57,20.6h0.07l4.57-20.6h2.81l-6.12,26h-2.59l-6.12-26h2.81Z"/><rect class="cls-2" x="684" y="113" width="428" height="64"/><rect class="cls-2" x="736" y="231" width="234" height="50"/><path class="cls-3" d="M352.73,199.16H350v-1.88a21.09,21.09,0,0,0,4.12-2.61h1.76v20.51h-3.14v-16Z"/><path class="cls-3" d="M363.68,215.19v-2.72c4.31-6.3,6.67-9.78,6.67-12.75,0-1.6-.62-2.3-1.57-2.3-1.12,0-1.68.87-1.68,2.1v1.37h-3.31v-1a4.94,4.94,0,0,1,5.16-5.27,4.51,4.51,0,0,1,4.71,4.48c0,3.2-1,5.55-6.44,13.17h6.14v2.86h-9.67Z"/><path class="cls-3" d="M381.55,209.33v1.37c0,1.26.5,2,1.57,2s1.65-.7,1.65-2.38V208.8c0-2.19-.84-2.86-3-2.86V203.2c2,0,2.83-.67,2.83-3.08,0-1.9-.36-2.69-1.4-2.69s-1.57.48-1.57,2.07v0.84h-3.14v-1a4.4,4.4,0,0,1,4.73-4.71c3,0,4.51,2.49,4.51,5.18,0,2.35-.39,3.67-2.19,4.65,2,1.06,2.49,2.27,2.49,5,0,4-1.6,5.94-5,5.94-2.89,0-4.62-1.46-4.62-4.93v-1.21h3.14Z"/><path class="cls-3" d="M398.29,210.31h-6.05v-2.58L398.12,195h3.36v12.78h1.85v2.58h-1.85v4.87h-3.19v-4.87Zm0.06-2.58v-7.9h-0.06l-3.39,7.9h3.45Z"/><rect class="cls-3" x="418" y="205" width="46" height="2"/><polygon class="cls-3" points="462 215.26 479.27 205.29 462 195.32 462 215.26"/><rect class="cls-4" x="988" y="231" width="88" height="50"/><path class="cls-3" d="M1076,281H988V231h88v50Zm-82-6h76V237H994v38Z"/><path class="cls-3" d="M1016.11,249.16h-2.75v-1.88a21.09,21.09,0,0,0,4.12-2.61h1.76v20.51h-3.14v-16Z"/><path class="cls-3" d="M1027.06,265.19v-2.72c4.31-6.3,6.67-9.78,6.67-12.75,0-1.6-.62-2.3-1.57-2.3-1.12,0-1.68.87-1.68,2.1v1.37h-3.31v-1a4.94,4.94,0,0,1,5.16-5.27,4.51,4.51,0,0,1,4.71,4.48c0,3.2-1,5.55-6.44,13.17h6.14v2.86h-9.67Z"/><path class="cls-3" d="M1044.92,259.33v1.37c0,1.26.5,2,1.57,2s1.65-.7,1.65-2.38V258.8c0-2.19-.84-2.86-3-2.86V253.2c2,0,2.83-.67,2.83-3.08,0-1.9-.36-2.69-1.4-2.69s-1.57.48-1.57,2.07v0.84h-3.14v-1a4.4,4.4,0,0,1,4.73-4.71c3,0,4.51,2.49,4.51,5.18,0,2.35-.39,3.67-2.19,4.65,2,1.06,2.49,2.27,2.49,5,0,4-1.6,5.94-5,5.94-2.89,0-4.62-1.46-4.62-4.93v-1.21h3.14Z"/><rect class="cls-3" x="1074" y="255" width="46" height="2"/><polygon class="cls-3" points="1118 265.26 1135.27 255.29 1118 245.32 1118 265.26"/></svg>