<svg id="Ebene_1" xmlns="http://www.w3.org/2000/svg" viewBox="0 0 244.8 56"><style>.st0{fill:#374858}.st1{fill:#fff}.st2{fill:#ef7873}.st3{stroke:#374858;stroke-width:2}.st3,.st4,.st5{fill:none;stroke-miterlimit:10}.st4{stroke:#374858;stroke-width:3}.st5{stroke-width:2;stroke-linejoin:round}.st5,.st6,.st7{stroke:#374858}.st6{stroke-linejoin:round;stroke-miterlimit:10;fill:none;stroke-width:3}.st7{fill:#fff;stroke-width:2}.st7,.st8,.st9{stroke-miterlimit:10}.st8{fill:#fff;stroke:#374858;stroke-width:3}.st9{stroke:#fff;stroke-width:1.5}.st10,.st9{fill:#f2f2f2}.st11,.st12{fill:none;stroke:#ef7873;stroke-width:2;stroke-miterlimit:10}.st12{stroke-width:3}.st13{opacity:.5}.st14{stroke-width:2;stroke-linejoin:round;stroke-miterlimit:10}.st14,.st15,.st16{fill:none;stroke:#374858;stroke-linecap:round}.st15{stroke-linejoin:round;stroke-miterlimit:10;stroke-width:3}.st16{stroke-width:2}.st16,.st17,.st18{stroke-miterlimit:10}.st17{stroke-width:3;stroke-linecap:round;fill:none;stroke:#374858}.st18{fill:#fff;stroke:#ccc}.st19{fill:#0097d9}.st20{fill:#e40520}.st21{fill:#06326e}.st22{fill:#306fc5}.st23{fill:#265697}.st24{fill:#005098}.st25{fill:#f6a500}.st26{fill:#fab31e}.st27{fill:#fc0}.st28{fill:#d2002e}.st29{fill:#fecc00}.st30{fill:#d50029}</style><path class="st29" d="M239.4 2.2L239.4 53.8 5.3 53.8 5.3 2.2 239.4 2.2z"/><path class="st30" d="M79.8 23.7c-1 1.4-2.8 3.9-3.9 5.3-.5.7-1.5 2.1 1.7 2.1h17.1s2.7-3.7 5.1-6.9c3.1-4.3.3-13.1-10.9-13.1H44.8l-7.7 10.4h41.7c2.1 0 2.1.8 1 2.2zm-12.5 9.9c-3.2 0-2.3-1.3-1.7-2.1 1.1-1.4 2.8-3.9 3.9-5.3 1-1.4 1.1-2.2-1.1-2.2H49.3L34 44.9h37.5c12.4 0 19.3-8.4 21.4-11.3H67.3zm24.4 11.3h22l8.3-11.3h-22l-8.3 11.3zm56.7-33.8L140 22.5h-9.8l8.4-11.5h-22l-14.7 20h53.8l14.7-20h-22zm-24.9 33.8h22l8.3-11.3h-22l-8.3 11.3zM2.6 38.1v2.4h30.6l1.8-2.4H2.6zm35.7-4.5H2.6V36h33.9l1.8-2.4zM2.6 44.9H30l1.8-2.4H2.6v2.4zm207.3-4.4h32.3v-2.4h-30.5l-1.8 2.4zm-3.3 4.4h35.5v-2.4h-33.8l-1.7 2.4zm8.3-11.3l-1.8 2.4h29v-2.4h-27.2zM186.1 31l14.7-20h-23.3l-14.7 20h23.3zM161 33.6l-2.4 3.3c-2.8 3.7-.3 8.1 8.7 8.1h35.3l8.3-11.3-49.9-.1z"/></svg>