<svg id="Ebene_1" xmlns="http://www.w3.org/2000/svg" viewBox="0 0 244.8 56"><style>.st0{fill:#374858}.st1{fill:#fff}.st2{fill:#ef7873}.st3{stroke:#374858;stroke-width:2}.st3,.st4,.st5{fill:none;stroke-miterlimit:10}.st4{stroke:#374858;stroke-width:3}.st5{stroke-width:2;stroke-linejoin:round}.st5,.st6,.st7{stroke:#374858}.st6{stroke-linejoin:round;stroke-miterlimit:10;fill:none;stroke-width:3}.st7{fill:#fff;stroke-width:2}.st7,.st8,.st9{stroke-miterlimit:10}.st8{fill:#fff;stroke:#374858;stroke-width:3}.st9{stroke:#fff;stroke-width:1.5}.st10,.st9{fill:#f2f2f2}.st11,.st12{fill:none;stroke:#ef7873;stroke-width:2;stroke-miterlimit:10}.st12{stroke-width:3}.st13{opacity:.5}.st14{stroke-width:2;stroke-linejoin:round;stroke-miterlimit:10}.st14,.st15,.st16{fill:none;stroke:#374858;stroke-linecap:round}.st15{stroke-linejoin:round;stroke-miterlimit:10;stroke-width:3}.st16{stroke-width:2}.st16,.st17,.st18{stroke-miterlimit:10}.st17{stroke-width:3;stroke-linecap:round;fill:none;stroke:#374858}.st18{fill:#fff;stroke:#ccc}.st19{fill:#0097d9}.st20{fill:#e40520}.st21{fill:#06326e}.st22{fill:#306fc5}.st23{fill:#265697}.st24{fill:#005098}.st25{fill:#f6a500}.st26{fill:#fab31e}.st27{fill:#fc0}.st28{fill:#d2002e}.st29{fill:#fecc00}.st30{fill:#d50029}</style><path class="st27" d="M205.9 2.2L205.9 39.1 38.8 39.1 38.8 2.2z"/><path class="st28" d="M68.2 8.8L62.9 16H92c1.5 0 1.5.6.7 1.5-.7 1-2 2.7-2.7 3.7-.4.5-1.1 1.4 1.2 1.4h11.9s1.9-2.6 3.5-4.8c2.2-3 .2-9.1-7.6-9.1-7 .1-30.8.1-30.8.1z"/><path class="st28" d="M60.7 32.4l10.7-14.6h13.3c1.5 0 1.5.6.7 1.5-.7 1-2 2.7-2.7 3.7-.4.5-1.1 1.4 1.2 1.4h17.8c-1.5 2-6.3 7.9-14.9 7.9-6.9.1-26.1.1-26.1.1zm61.4-7.9l-5.8 7.9H101l5.8-7.9h15.3z"/><path class="st28" d="M145.6 22.7L108.1 22.7 118.4 8.8 133.7 8.8 127.8 16.8 134.7 16.8 140.6 8.8 155.9 8.8z"/><path class="st28" d="M144.3 24.5l-5.8 7.9h-15.3l5.8-7.9h15.3z"/><path class="st28" d="M38.8 27.6L61.4 27.6 60.2 29.3 38.8 29.3z"/><path class="st28" d="M38.8 24.5L63.7 24.5 62.5 26.2 38.8 26.2z"/><path class="st28" d="M38.8 30.8L59.1 30.8 57.9 32.4 38.8 32.4z"/><path class="st28" d="M205.9 29.3L183.4 29.3 184.7 27.6 205.9 27.6z"/><path class="st28" d="M205.9 32.4L181.1 32.4 182.4 30.8 205.9 30.8z"/><path class="st28" d="M187 24.5L205.9 24.5 205.9 26.2 185.7 26.2z"/><path class="st28" d="M177.1 8.8l-10.3 13.9h-16.3l10.3-13.9h16.3zm-27.8 15.7s-1.1 1.5-1.7 2.3c-1.9 2.6-.2 5.6 6.1 5.6h24.6l5.8-7.9h-34.8z"/><path class="st27" d="M38.8 45.1L205.9 45.1 205.9 45.9 38.8 45.9z"/><path class="st27" d="M38.8 48.9L205.9 48.9 205.9 49.8 38.8 49.8z"/><path class="st27" d="M38.8 52.8L205.9 52.8 205.9 53.7 38.8 53.7z"/><path class="st28" d="M94.9 53.7L100 53.7 100.8 52.6 97 52.6 99.1 49.8 102.5 49.8 103.3 48.7 99.9 48.7 101.8 46.1 105.5 46.1 106.3 45.1 101.3 45.1z"/><path class="st28" d="M101.1 53.7L102.6 53.7 107.9 50 107.9 53.7 109.5 53.7 109.5 49.2 115.6 45.1 114.1 45.1 109.3 48.4 109.3 45.1 107.8 45.1 107.7 49.2z"/><path class="st28" d="M117.5 46.1h1.1c.8 0 1.7.4.9 1.5-.8 1.1-2.1 1.5-2.9 1.5h-1.3l2.2-3zm-6.9 7.6h1.3l2.5-3.5h1.3c1.6 0 3.7-.7 5.1-2.6 1.5-2 .4-2.6-1.5-2.6H117l-6.4 8.7zm7.5 0h1.3l2.8-3.8h.8c.7 0 1.1 0 .9.8l-.8 3h1.5l.8-3.4c.1-.5.1-.7-.2-.9 1.2-.2 2.5-.9 3.3-2 1.5-2.1 0-2.3-1.8-2.3h-2.2l-6.4 8.6zm6.8-7.6h1.2c1.2 0 1.4.5.9 1.3-.6.8-1.7 1.3-2.9 1.3H123l1.9-2.6z"/><path class="st28" d="M125.8 53.7L130.8 53.7 131.6 52.6 127.9 52.6 130 49.8 133.4 49.8 134.2 48.7 130.8 48.7 132.6 46.1 136.4 46.1 137.2 45.1 132.2 45.1z"/><path class="st28" d="M143.4 45.2c-.5-.2-1.1-.3-1.7-.3-1.6 0-3.5.8-4.6 2.4-2 2.7 2.3 2.2.8 4.1-.7 1-2.1 1.4-2.8 1.4-.7 0-1.2-.2-1.6-.4l-1 1.2c.5.2.9.4 1.6.4 1.8 0 3.8-.7 5.2-2.6 2.1-2.8-2-2.5-.8-4.1.7-.9 1.7-1.2 2.4-1.2s.9.1 1.4.4l1.1-1.3zm6.4 0c-.5-.2-1.1-.3-1.7-.3-1.6 0-3.5.8-4.6 2.4-2 2.7 2.3 2.2.8 4.1-.7 1-2.1 1.4-2.8 1.4-.7 0-1.2-.2-1.6-.4l-1 1.2c.5.2.9.4 1.6.4 1.8 0 3.8-.7 5.2-2.6 2.1-2.8-2-2.5-.8-4.1.7-.9 1.7-1.2 2.4-1.2s.9.1 1.4.4l1.1-1.3z"/></svg>