<svg id="Ebene_1" xmlns="http://www.w3.org/2000/svg" viewBox="0 0 56 56"><style>.st0{fill:#374858}.st1{fill:#fff}.st2{fill:#ef7873}.st3{stroke:#374858;stroke-width:2}.st3,.st4,.st5{fill:none;stroke-miterlimit:10}.st4{stroke:#374858;stroke-width:3}.st5{stroke-width:2;stroke-linejoin:round}.st5,.st6,.st7{stroke:#374858}.st6{stroke-linejoin:round;stroke-miterlimit:10;fill:none;stroke-width:3}.st7{fill:#fff;stroke-width:2}.st7,.st8,.st9{stroke-miterlimit:10}.st8{fill:#fff;stroke:#374858;stroke-width:3}.st9{stroke:#fff;stroke-width:1.5}.st10,.st9{fill:#f2f2f2}.st11,.st12{fill:none;stroke:#ef7873;stroke-width:2;stroke-miterlimit:10}.st12{stroke-width:3}.st13{opacity:.5}.st14{stroke-width:2;stroke-linejoin:round}.st14,.st15,.st16,.st17{fill:none;stroke:#374858;stroke-linecap:round;stroke-miterlimit:10}.st15{stroke-linejoin:round;stroke-width:3}.st16,.st17{stroke-width:2}.st17{stroke-width:3}</style><circle class="st2" cx="28.2" cy="28.5" r="27"/><path class="st1" d="M41.7 40.3c0 .9-.8 1.7-1.7 1.7H16.4c-.9 0-1.7-.8-1.7-1.7V16.7c0-.9.8-1.7 1.7-1.7H40c.9 0 1.7.8 1.7 1.7v23.6z"/><path id="f_1_" class="st2" d="M33.2 43V31.9h3.4l.8-4.2h-4.2V26c0-1.7.8-2.5 2.5-2.5h1.7v-4.2H34c-3.1 0-5.1 2.4-5.1 5.9v2.5h-3.4v4.2H29V43h4.2z"/></svg>