<?xml version="1.0" encoding="utf-8"?>
<!-- Generator: Adobe Illustrator 19.2.1, SVG Export Plug-In . SVG Version: 6.00 Build 0)  -->
<svg version="1.1" id="Ebene_1" xmlns="http://www.w3.org/2000/svg" xmlns:xlink="http://www.w3.org/1999/xlink" x="0px" y="0px"
	 viewBox="0 0 132 84" style="enable-background:new 0 0 132 84;" xml:space="preserve">
<style type="text/css">
	.st0{fill:#374858;}
	.st1{fill:#FFFFFF;}
	.st2{fill:#EF7873;}
	.st3{fill:none;stroke:#374858;stroke-width:2;stroke-miterlimit:10;}
	.st4{fill:none;stroke:#374858;stroke-width:3;stroke-miterlimit:10;}
	.st5{fill:none;stroke:#374858;stroke-width:2;stroke-linejoin:round;stroke-miterlimit:10;}
	.st6{fill:none;stroke:#374858;stroke-width:3;stroke-linejoin:round;stroke-miterlimit:10;}
	.st7{fill:#FFFFFF;stroke:#374858;stroke-width:2;stroke-miterlimit:10;}
	.st8{fill:#FFFFFF;stroke:#374858;stroke-width:3;stroke-miterlimit:10;}
	.st9{fill:#F2F2F2;stroke:#FFFFFF;stroke-width:1.5;stroke-miterlimit:10;}
	.st10{fill:#F2F2F2;}
	.st11{fill:none;stroke:#EF7873;stroke-width:2;stroke-miterlimit:10;}
	.st12{fill:none;stroke:#EF7873;stroke-width:3;stroke-miterlimit:10;}
	.st13{opacity:0.5;}
	.st14{fill:none;stroke:#374858;stroke-width:2;stroke-linecap:round;stroke-linejoin:round;stroke-miterlimit:10;}
	.st15{fill:none;stroke:#374858;stroke-width:3;stroke-linecap:round;stroke-linejoin:round;stroke-miterlimit:10;}
	.st16{fill:none;stroke:#374858;stroke-width:2;stroke-linecap:round;stroke-miterlimit:10;}
	.st17{fill:none;stroke:#374858;stroke-width:3;stroke-linecap:round;stroke-miterlimit:10;}
	.st18{fill:#FFFFFF;stroke:#CCCCCC;stroke-miterlimit:10;}
	.st19{fill:#0097D9;}
	.st20{fill:#E40520;}
	.st21{fill:#06326E;}
	.st22{fill:#306FC5;}
	.st23{fill:#265697;}
	.st24{fill:#005098;}
	.st25{fill:#F6A500;}
	.st26{fill:#FAB31E;}
	.st27{fill:#FFCC00;}
	.st28{fill:#D2002E;}
	.st29{fill:#FECC00;}
	.st30{fill:#D50029;}
</style>
<g>
	<g>
		<path class="st18" d="M122.4,2.4H10c-4.1,0-7.5,3.4-7.5,7.5v64.2c0,4.1,3.4,7.5,7.5,7.5h112.5c4.1,0,7.5-3.4,7.5-7.5V9.9
			C129.9,5.8,126.6,2.4,122.4,2.4L122.4,2.4z"/>
	</g>
	<g>
		<path class="st19" d="M66.6,66.4c6.4-5.8,10.5-14.3,10.5-23.6c0-9.4-4.1-17.8-10.5-23.7c-5.6-5.1-13.1-8.3-21.4-8.3
			c-17.6,0-32,14.3-32,32s14.3,31.9,32,31.9C53.4,74.6,60.9,71.5,66.6,66.4L66.6,66.4z"/>
		<path class="st19" d="M66.6,66.4c6.4-5.8,10.5-14.3,10.5-23.6c0-9.4-4.1-17.8-10.5-23.7V66.4L66.6,66.4z"/>
		<path class="st20" d="M88,10.7c-8.3,0-15.8,3.1-21.5,8.3c-1.1,1.1-2.2,2.2-3.2,3.4h6.4c0.9,1.1,1.7,2.3,2.4,3.4H60.9
			c-0.7,1.1-1.3,2.3-1.9,3.4h15c0.5,1.1,1,2.3,1.4,3.4H57.7c-0.4,1.1-0.7,2.3-0.9,3.4h19.6c0.4,2.1,0.7,4.4,0.7,6.8
			c0,3.5-0.6,6.9-1.6,10.1H57.7c0.4,1.1,0.8,2.3,1.3,3.4h15c-0.6,1.1-1.1,2.3-1.8,3.4H60.9c0.8,1.2,1.6,2.3,2.4,3.4h6.4
			c-1,1.2-2.1,2.3-3.3,3.4c5.7,5.1,13.2,8.3,21.5,8.3c17.6,0,31.9-14.3,31.9-31.9C119.9,25.1,105.7,10.7,88,10.7L88,10.7z"/>
		<polygon class="st21" points="40.2,51.6 36.2,51.6 38.5,39.1 33.1,51.6 29.7,51.6 29,39.2 26.4,51.6 22.8,51.6 25.8,35.4 
			32.2,35.4 32.2,45.4 36.6,35.4 43.3,35.4 		"/>
		<path class="st21" d="M84.6,51.4c-1.1,0.3-1.9,0.4-2.9,0.4c-2,0-3.1-1-3.1-2.9c0-0.4,0.1-0.8,0.1-1.2l0.3-1.3l0.2-1L81,35.4h3.9
			l-0.6,3h2l-0.5,3.2h-2.1l-1.1,5.5c0,0.3-0.1,0.4-0.1,0.6c0,0.7,0.4,0.9,1.4,0.9c0.4,0,0.8,0,1.1-0.1L84.6,51.4L84.6,51.4z"/>
		<path class="st21" d="M68.8,42.6c0,1.6,0.9,2.8,3,3.6c1.7,0.7,1.9,0.9,1.9,1.5c0,0.8-0.8,1.2-2.3,1.2c-1.3,0-2.3-0.2-3.6-0.6
			l-0.6,3.1h0.2l0.8,0.1c0.3,0.1,0.6,0.1,1.1,0.1c0.9,0.1,1.7,0.1,2.2,0.1c4.3,0,6.2-1.4,6.2-4.4c0-1.8-0.8-2.9-2.8-3.7
			c-1.7-0.6-1.9-0.8-1.9-1.4c0-0.7,0.7-1.1,1.9-1.1c0.8,0,1.9,0.1,2.9,0.2l0.6-3c-1.1-0.2-2.6-0.3-3.6-0.3
			C70.3,38.1,68.8,40.1,68.8,42.6L68.8,42.6z"/>
		<path class="st21" d="M53.1,51.6h-3.3l0.1-1.4c-1,1.1-2.4,1.6-4.2,1.6c-2.1,0-3.6-1.4-3.6-3.6c0-3.2,2.6-5.1,7-5.1
			c0.4,0,1,0,1.6,0.1c0.1-0.4,0.1-0.6,0.1-0.8c0-0.9-0.7-1.3-2.6-1.3c-1.1,0-2.4,0.2-3.3,0.4l-0.6,0.2L44,41.8l0.6-2.9
			c2-0.6,3.3-0.8,4.8-0.8c3.4,0,5.3,1.4,5.3,3.9c0,0.7-0.1,1.1-0.4,2.6l-0.8,4.6l-0.1,0.9l-0.1,0.7l-0.1,0.4V51.6L53.1,51.6z
			 M50.4,45.7c-0.4-0.1-0.6-0.1-0.9-0.1c-2.3,0-3.4,0.7-3.4,2c0,0.8,0.6,1.3,1.4,1.3C49.1,49,50.3,47.7,50.4,45.7L50.4,45.7z"/>
		<path class="st21" d="M66.1,51.3c-1.3,0.4-2.6,0.6-4.1,0.6c-4.4,0-6.8-2.1-6.8-5.9c0-4.5,2.9-7.8,6.9-7.8c3.3,0,5.4,1.9,5.4,4.8
			c0,1-0.1,1.9-0.5,3.3h-7.9c-0.1,0.3-0.1,0.3-0.1,0.4c0,1.5,1.2,2.3,3.5,2.3c1.4,0,2.7-0.3,4.1-0.9L66.1,51.3L66.1,51.3z
			 M64.2,43.5c0-0.3,0-0.5,0-0.7c0-1.1-0.7-1.7-1.9-1.7c-1.3,0-2.2,0.8-2.6,2.4H64.2L64.2,43.5z"/>
		<path class="st21" d="M108.5,45.6c-0.6,4.4-3.6,6.3-7.7,6.3c-4.5,0-6.3-2.7-6.3-6.1c0-4.6,3.1-7.8,7.8-7.8c4.1,0,6.3,2.6,6.3,5.9
			C108.6,44.8,108.6,44.8,108.5,45.6L108.5,45.6z M104.5,44c0-1.4-0.6-2.7-2.2-2.7c-2,0-3.3,2.4-3.3,4.5c0,1.8,0.9,3,2.3,3
			c0.9,0,2.7-1.2,3.1-3.3C104.4,45.2,104.5,44.6,104.5,44L104.5,44z"/>
		<path class="st1" d="M108.9,49.6c0-0.6,0.5-1,1.1-1c0.6,0,1,0.4,1,1c0,0.6-0.4,1.1-1,1.1S108.9,50.2,108.9,49.6L108.9,49.6z
			 M110,50.4c0.4,0,0.8-0.4,0.8-0.8c0-0.4-0.3-0.8-0.8-0.8c-0.4,0-0.8,0.3-0.8,0.8C109.2,50,109.5,50.4,110,50.4L110,50.4z
			 M109.9,50h-0.2v-0.9h0.4c0.1,0,0.2,0,0.2,0.1c0.1,0.1,0.1,0.1,0.1,0.2c0,0.1-0.1,0.3-0.2,0.3l0.2,0.4h-0.3l-0.1-0.3h-0.1V50
			L109.9,50z M109.9,49.5h0.1c0,0,0.1,0,0.1,0c0,0,0-0.1,0-0.1v-0.1c-0.1,0-0.1,0-0.2,0h-0.1V49.5L109.9,49.5z"/>
		<polygon class="st1" points="41.2,50.7 37.2,50.7 39.5,38.2 34.1,50.7 30.5,50.7 29.8,38.3 27.5,50.7 23.8,50.7 26.9,34.5 
			33.2,34.5 33.5,44.5 37.8,34.5 44.3,34.5 		"/>
		<path class="st1" d="M85.6,50.5c-1.1,0.3-1.9,0.4-2.9,0.4c-2,0-3.1-1-3.1-2.9c0-0.4,0.1-0.8,0.1-1.2l0.2-1.3l0.2-1L82,34.5h3.9
			l-0.6,3h2.1l-0.6,3.2h-2.1l-1,5.5c-0.1,0.2-0.1,0.4-0.1,0.6c0,0.7,0.4,1,1.4,1c0.4,0,0.8-0.1,1.1-0.1L85.6,50.5L85.6,50.5z"/>
		<path class="st21" d="M95.8,41.3l-0.1-0.4l0.8-2.1c-0.2,0-0.3,0-0.3-0.1c-0.2,0-0.3-0.1-0.3-0.1c-0.1,0-0.3,0-0.4,0
			c-1.3,0-2.3,0.6-3.5,2.1l0.4-2.4h-4.1l-2.4,13.2h3.9c0.6-3.1,0.8-4.8,1.1-6.2c0.5-2.4,2.3-3.4,3.6-3.2c0.1,0,0.2,0,0.4,0.1
			l0.2,0.1L95.8,41.3L95.8,41.3z"/>
		<path class="st1" d="M97.2,37.6c-0.3-0.1-0.4-0.1-0.4-0.1c-0.2-0.1-0.3-0.1-0.3-0.1c-0.1,0-0.3,0-0.4,0c-1.3,0-2.3,0.6-3.4,2.1
			l0.4-2h-3.6l-2.4,13.2h4c1.4-8.1,2-9.5,3.9-9.5c0.1,0,0.3,0.1,0.5,0.1l0.4,0.1L97.2,37.6L97.2,37.6z"/>
		<path class="st1" d="M69.8,41.6c0,1.6,0.9,2.8,3.1,3.6c1.6,0.7,1.9,0.9,1.9,1.5c0,0.8-0.8,1.2-2.3,1.2c-1.2,0-2.3-0.2-3.6-0.6
			l-0.5,3.1h0.2l0.7,0.2c0.3,0,0.6,0.1,1.1,0.1c0.9,0.1,1.7,0.1,2.3,0.1c4.2,0,6.2-1.4,6.2-4.4c0-1.8-0.8-2.9-2.9-3.7
			c-1.7-0.6-1.9-0.8-1.9-1.4c0-0.7,0.7-1.1,2-1.1c0.8,0,1.9,0.1,2.9,0.2l0.6-3c-1.1-0.2-2.6-0.2-3.5-0.2
			C71.4,37.2,69.8,39.2,69.8,41.6L69.8,41.6z"/>
		<path class="st1" d="M54.1,50.7h-3.3l0.1-1.4c-1,1.1-2.4,1.6-4.2,1.6c-2.1,0-3.6-1.4-3.6-3.6c0-3.2,2.6-5.1,7-5.1
			c0.4,0,1,0,1.6,0.1c0.1-0.4,0.1-0.6,0.1-0.8c0-0.9-0.7-1.2-2.6-1.2c-1.1,0-2.4,0.1-3.3,0.3l-0.6,0.2L45,40.8l0.6-2.9
			c2-0.5,3.3-0.7,4.8-0.7c3.4,0,5.2,1.3,5.2,3.8c0,0.7-0.1,1.2-0.3,2.6l-0.8,4.7l-0.1,0.8l-0.1,0.7l-0.1,0.4L54.1,50.7L54.1,50.7z
			 M51.2,44.8c-0.4-0.1-0.6-0.1-0.9-0.1c-2.3,0-3.4,0.7-3.4,2c0,0.8,0.5,1.4,1.4,1.4C49.9,48.1,51.1,46.7,51.2,44.8L51.2,44.8z"/>
		<path class="st1" d="M67.1,50.3c-1.4,0.4-2.7,0.6-4.1,0.6c-4.4,0-6.8-2.1-6.8-5.9c0-4.5,2.9-7.8,6.9-7.8c3.3,0,5.3,1.9,5.3,4.8
			c0,1-0.1,1.9-0.4,3.3h-7.9c0,0.2,0,0.3,0,0.4c0,1.5,1.1,2.3,3.4,2.3c1.4,0,2.8-0.3,4.1-0.8L67.1,50.3L67.1,50.3z M65,42.5
			c0-0.3,0-0.5,0-0.7c0-1.1-0.7-1.7-1.9-1.7c-1.3,0-2.1,0.9-2.5,2.4H65L65,42.5z"/>
		<path class="st1" d="M109.5,44.6c-0.6,4.4-3.7,6.3-7.8,6.3c-4.4,0-6.3-2.7-6.3-6.1c0-4.6,3.1-7.8,7.8-7.8c4.1,0,6.3,2.6,6.3,5.9
			C109.7,43.8,109.7,43.9,109.5,44.6L109.5,44.6z M105.4,43c0-1.4-0.6-2.6-2.2-2.6c-2,0-3.3,2.4-3.3,4.5c0,1.7,0.9,2.9,2.3,2.9
			c0.9,0,2.8-1.2,3.1-3.2C105.4,44.1,105.4,43.5,105.4,43L105.4,43z"/>
	</g>
</g>
</svg>
