<svg id="Ebene_1" xmlns="http://www.w3.org/2000/svg" viewBox="0 0 132 84"><style>.st0{fill:#374858}.st1{fill:#fff}.st2{fill:#ef7873}.st3{stroke:#374858;stroke-width:2}.st3,.st4,.st5{fill:none;stroke-miterlimit:10}.st4{stroke:#374858;stroke-width:3}.st5{stroke-width:2;stroke-linejoin:round}.st5,.st6,.st7{stroke:#374858}.st6{stroke-linejoin:round;stroke-miterlimit:10;fill:none;stroke-width:3}.st7{fill:#fff;stroke-width:2}.st7,.st8,.st9{stroke-miterlimit:10}.st8{fill:#fff;stroke:#374858;stroke-width:3}.st9{stroke:#fff;stroke-width:1.5}.st10,.st9{fill:#f2f2f2}.st11,.st12{fill:none;stroke:#ef7873;stroke-width:2;stroke-miterlimit:10}.st12{stroke-width:3}.st13{opacity:.5}.st14{stroke-width:2;stroke-linejoin:round;stroke-miterlimit:10}.st14,.st15,.st16{fill:none;stroke:#374858;stroke-linecap:round}.st15{stroke-linejoin:round;stroke-miterlimit:10;stroke-width:3}.st16{stroke-width:2}.st16,.st17,.st18{stroke-miterlimit:10}.st17{stroke-width:3;stroke-linecap:round;fill:none;stroke:#374858}.st18{fill:#fff;stroke:#ccc}.st19{fill:#0097d9}.st20{fill:#e40520}.st21{fill:#06326e}.st22{fill:#306fc5}.st23{fill:#265697}.st24{fill:#005098}.st25{fill:#f6a500}.st26{fill:#fab31e}.st27{fill:#fc0}.st28{fill:#d2002e}.st29{fill:#fecc00}.st30{fill:#d50029}</style><path class="st18" d="M122.4 2.4H10c-4.1 0-7.5 3.4-7.5 7.5v64.2c0 4.1 3.4 7.5 7.5 7.5h112.5c4.1 0 7.5-3.4 7.5-7.5V9.9c-.1-4.1-3.4-7.5-7.6-7.5z"/><path class="st19" d="M66.6 66.4c6.4-5.8 10.5-14.3 10.5-23.6 0-9.4-4.1-17.8-10.5-23.7-5.6-5.1-13.1-8.3-21.4-8.3-17.6 0-32 14.3-32 32s14.3 31.9 32 31.9c8.2-.1 15.7-3.2 21.4-8.3z"/><path class="st19" d="M66.6 66.4c6.4-5.8 10.5-14.3 10.5-23.6 0-9.4-4.1-17.8-10.5-23.7v47.3z"/><path class="st20" d="M88 10.7c-8.3 0-15.8 3.1-21.5 8.3-1.1 1.1-2.2 2.2-3.2 3.4h6.4c.9 1.1 1.7 2.3 2.4 3.4H60.9c-.7 1.1-1.3 2.3-1.9 3.4h15c.5 1.1 1 2.3 1.4 3.4H57.7c-.4 1.1-.7 2.3-.9 3.4h19.6c.4 2.1.7 4.4.7 6.8 0 3.5-.6 6.9-1.6 10.1H57.7c.4 1.1.8 2.3 1.3 3.4h15c-.6 1.1-1.1 2.3-1.8 3.4H60.9c.8 1.2 1.6 2.3 2.4 3.4h6.4c-1 1.2-2.1 2.3-3.3 3.4 5.7 5.1 13.2 8.3 21.5 8.3 17.6 0 31.9-14.3 31.9-31.9.1-17.8-14.1-32.2-31.8-32.2z"/><path class="st21" d="M40.2 51.6L36.2 51.6 38.5 39.1 33.1 51.6 29.7 51.6 29 39.2 26.4 51.6 22.8 51.6 25.8 35.4 32.2 35.4 32.2 45.4 36.6 35.4 43.3 35.4z"/><path class="st21" d="M84.6 51.4c-1.1.3-1.9.4-2.9.4-2 0-3.1-1-3.1-2.9 0-.4.1-.8.1-1.2l.3-1.3.2-1 1.8-10h3.9l-.6 3h2l-.5 3.2h-2.1l-1.1 5.5c0 .3-.1.4-.1.6 0 .7.4.9 1.4.9.4 0 .8 0 1.1-.1l-.4 2.9zm-15.8-8.8c0 1.6.9 2.8 3 3.6 1.7.7 1.9.9 1.9 1.5 0 .8-.8 1.2-2.3 1.2-1.3 0-2.3-.2-3.6-.6l-.6 3.1h.2l.8.1c.3.1.6.1 1.1.1.9.1 1.7.1 2.2.1 4.3 0 6.2-1.4 6.2-4.4 0-1.8-.8-2.9-2.8-3.7-1.7-.6-1.9-.8-1.9-1.4 0-.7.7-1.1 1.9-1.1.8 0 1.9.1 2.9.2l.6-3c-1.1-.2-2.6-.3-3.6-.3-4.5.1-6 2.1-6 4.6zm-15.7 9h-3.3l.1-1.4c-1 1.1-2.4 1.6-4.2 1.6-2.1 0-3.6-1.4-3.6-3.6 0-3.2 2.6-5.1 7-5.1.4 0 1 0 1.6.1.1-.4.1-.6.1-.8 0-.9-.7-1.3-2.6-1.3-1.1 0-2.4.2-3.3.4l-.6.2-.3.1.6-2.9c2-.6 3.3-.8 4.8-.8 3.4 0 5.3 1.4 5.3 3.9 0 .7-.1 1.1-.4 2.6l-.8 4.6-.1.9-.1.7-.1.4v.4h-.1zm-2.7-5.9c-.4-.1-.6-.1-.9-.1-2.3 0-3.4.7-3.4 2 0 .8.6 1.3 1.4 1.3 1.6.1 2.8-1.2 2.9-3.2zm15.7 5.6c-1.3.4-2.6.6-4.1.6-4.4 0-6.8-2.1-6.8-5.9 0-4.5 2.9-7.8 6.9-7.8 3.3 0 5.4 1.9 5.4 4.8 0 1-.1 1.9-.5 3.3h-7.9c-.1.3-.1.3-.1.4 0 1.5 1.2 2.3 3.5 2.3 1.4 0 2.7-.3 4.1-.9l-.5 3.2zm-1.9-7.8v-.7c0-1.1-.7-1.7-1.9-1.7-1.3 0-2.2.8-2.6 2.4h4.5zm44.3 2.1c-.6 4.4-3.6 6.3-7.7 6.3-4.5 0-6.3-2.7-6.3-6.1 0-4.6 3.1-7.8 7.8-7.8 4.1 0 6.3 2.6 6.3 5.9 0 .9 0 .9-.1 1.7zm-4-1.6c0-1.4-.6-2.7-2.2-2.7-2 0-3.3 2.4-3.3 4.5 0 1.8.9 3 2.3 3 .9 0 2.7-1.2 3.1-3.3 0-.3.1-.9.1-1.5z"/><path class="st1" d="M108.9 49.6c0-.6.5-1 1.1-1 .6 0 1 .4 1 1s-.4 1.1-1 1.1-1.1-.5-1.1-1.1zm1.1.8c.4 0 .8-.4.8-.8s-.3-.8-.8-.8c-.4 0-.8.3-.8.8 0 .4.3.8.8.8zm-.1-.4h-.2v-.9h.4c.1 0 .2 0 .2.1.1.1.1.1.1.2s-.1.3-.2.3l.2.4h-.3l-.1-.3h-.1v.2zm0-.5h.2v-.2H109.8v.2h.1z"/><path class="st1" d="M41.2 50.7L37.2 50.7 39.5 38.2 34.1 50.7 30.5 50.7 29.8 38.3 27.5 50.7 23.8 50.7 26.9 34.5 33.2 34.5 33.5 44.5 37.8 34.5 44.3 34.5z"/><path class="st1" d="M85.6 50.5c-1.1.3-1.9.4-2.9.4-2 0-3.1-1-3.1-2.9 0-.4.1-.8.1-1.2l.2-1.3.2-1 1.9-10h3.9l-.6 3h2.1l-.6 3.2h-2.1l-1 5.5c-.1.2-.1.4-.1.6 0 .7.4 1 1.4 1 .4 0 .8-.1 1.1-.1l-.5 2.8z"/><path class="st21" d="M95.8 41.3l-.1-.4.8-2.1c-.2 0-.3 0-.3-.1-.2 0-.3-.1-.3-.1h-.4c-1.3 0-2.3.6-3.5 2.1l.4-2.4h-4.1l-2.4 13.2h3.9c.6-3.1.8-4.8 1.1-6.2.5-2.4 2.3-3.4 3.6-3.2.1 0 .2 0 .4.1l.2.1.7-1z"/><path class="st1" d="M97.2 37.6c-.3-.1-.4-.1-.4-.1-.2-.1-.3-.1-.3-.1h-.4c-1.3 0-2.3.6-3.4 2.1l.4-2h-3.6l-2.4 13.2h4c1.4-8.1 2-9.5 3.9-9.5.1 0 .3.1.5.1l.4.1 1.3-3.8zm-27.4 4c0 1.6.9 2.8 3.1 3.6 1.6.7 1.9.9 1.9 1.5 0 .8-.8 1.2-2.3 1.2-1.2 0-2.3-.2-3.6-.6l-.5 3.1h.2l.7.2c.3 0 .6.1 1.1.1.9.1 1.7.1 2.3.1 4.2 0 6.2-1.4 6.2-4.4 0-1.8-.8-2.9-2.9-3.7-1.7-.6-1.9-.8-1.9-1.4 0-.7.7-1.1 2-1.1.8 0 1.9.1 2.9.2l.6-3c-1.1-.2-2.6-.2-3.5-.2-4.7 0-6.3 2-6.3 4.4zm-15.7 9.1h-3.3l.1-1.4c-1 1.1-2.4 1.6-4.2 1.6-2.1 0-3.6-1.4-3.6-3.6 0-3.2 2.6-5.1 7-5.1.4 0 1 0 1.6.1.1-.4.1-.6.1-.8 0-.9-.7-1.2-2.6-1.2-1.1 0-2.4.1-3.3.3l-.6.2H45l.6-2.9c2-.5 3.3-.7 4.8-.7 3.4 0 5.2 1.3 5.2 3.8 0 .7-.1 1.2-.3 2.6l-.8 4.7-.1.8-.1.7-.1.4-.1.5zm-2.9-5.9c-.4-.1-.6-.1-.9-.1-2.3 0-3.4.7-3.4 2 0 .8.5 1.4 1.4 1.4 1.6 0 2.8-1.4 2.9-3.3zm15.9 5.5c-1.4.4-2.7.6-4.1.6-4.4 0-6.8-2.1-6.8-5.9 0-4.5 2.9-7.8 6.9-7.8 3.3 0 5.3 1.9 5.3 4.8 0 1-.1 1.9-.4 3.3h-7.9v.4c0 1.5 1.1 2.3 3.4 2.3 1.4 0 2.8-.3 4.1-.8l-.5 3.1zM65 42.5v-.7c0-1.1-.7-1.7-1.9-1.7-1.3 0-2.1.9-2.5 2.4H65z"/><path class="st1" d="M109.5 44.6c-.6 4.4-3.7 6.3-7.8 6.3-4.4 0-6.3-2.7-6.3-6.1 0-4.6 3.1-7.8 7.8-7.8 4.1 0 6.3 2.6 6.3 5.9.2.9.2 1 0 1.7zm-4.1-1.6c0-1.4-.6-2.6-2.2-2.6-2 0-3.3 2.4-3.3 4.5 0 1.7.9 2.9 2.3 2.9.9 0 2.8-1.2 3.1-3.2.1-.5.1-1.1.1-1.6z"/></svg>