<?xml version="1.0" encoding="utf-8"?>
<!-- Generator: Adobe Illustrator 19.2.1, SVG Export Plug-In . SVG Version: 6.00 Build 0)  -->
<svg version="1.1" id="Ebene_1" xmlns="http://www.w3.org/2000/svg" xmlns:xlink="http://www.w3.org/1999/xlink" x="0px" y="0px"
	 viewBox="0 0 132 84" style="enable-background:new 0 0 132 84;" xml:space="preserve">
<style type="text/css">
	.st0{fill:#374858;}
	.st1{fill:#FFFFFF;}
	.st2{fill:#EF7873;}
	.st3{fill:none;stroke:#374858;stroke-width:2;stroke-miterlimit:10;}
	.st4{fill:none;stroke:#374858;stroke-width:3;stroke-miterlimit:10;}
	.st5{fill:none;stroke:#374858;stroke-width:2;stroke-linejoin:round;stroke-miterlimit:10;}
	.st6{fill:none;stroke:#374858;stroke-width:3;stroke-linejoin:round;stroke-miterlimit:10;}
	.st7{fill:#FFFFFF;stroke:#374858;stroke-width:2;stroke-miterlimit:10;}
	.st8{fill:#FFFFFF;stroke:#374858;stroke-width:3;stroke-miterlimit:10;}
	.st9{fill:#F2F2F2;stroke:#FFFFFF;stroke-width:1.5;stroke-miterlimit:10;}
	.st10{fill:#F2F2F2;}
	.st11{fill:none;stroke:#EF7873;stroke-width:2;stroke-miterlimit:10;}
	.st12{fill:none;stroke:#EF7873;stroke-width:3;stroke-miterlimit:10;}
	.st13{opacity:0.5;}
	.st14{fill:none;stroke:#374858;stroke-width:2;stroke-linecap:round;stroke-linejoin:round;stroke-miterlimit:10;}
	.st15{fill:none;stroke:#374858;stroke-width:3;stroke-linecap:round;stroke-linejoin:round;stroke-miterlimit:10;}
	.st16{fill:none;stroke:#374858;stroke-width:2;stroke-linecap:round;stroke-miterlimit:10;}
	.st17{fill:none;stroke:#374858;stroke-width:3;stroke-linecap:round;stroke-miterlimit:10;}
	.st18{fill:#FFFFFF;stroke:#CCCCCC;stroke-miterlimit:10;}
	.st19{fill:#0097D9;}
	.st20{fill:#E40520;}
	.st21{fill:#06326E;}
	.st22{fill:#306FC5;}
	.st23{fill:#265697;}
	.st24{fill:#005098;}
	.st25{fill:#F6A500;}
	.st26{fill:#FAB31E;}
	.st27{fill:#FFCC00;}
	.st28{fill:#D2002E;}
	.st29{fill:#FECC00;}
	.st30{fill:#D50029;}
</style>
<g>
	<g>
		<path class="st18" d="M122.2,2.4H9.8c-4.1,0-7.5,3.4-7.5,7.5v64.2c0,4.1,3.4,7.5,7.5,7.5h112.5c4.1,0,7.5-3.4,7.5-7.5V9.9
			C129.7,5.8,126.4,2.4,122.2,2.4L122.2,2.4z"/>
	</g>
	<g>
		<path class="st26" d="M66.2,66.4c5.6,5.2,13.2,8.3,21.4,8.3c17.7,0,32-14.4,32-32.2c0-17.8-14.3-32.2-32-32.2
			c-8.2,0-15.8,3.2-21.4,8.3c-6.5,5.9-10.6,14.4-10.6,23.9C55.6,52,59.7,60.5,66.2,66.4L66.2,66.4z"/>
		<path class="st20" d="M76.5,39.1c-0.1-1.2-0.3-2.3-0.6-3.4H56.4c0.2-1.2,0.6-2.3,0.9-3.4H75c-0.4-1.2-0.8-2.3-1.3-3.4h-15
			c0.6-1.2,1.2-2.3,1.8-3.4h11.3c-0.7-1.2-1.5-2.3-2.4-3.4h-6.5c1-1.2,2.1-2.4,3.3-3.4c-5.7-5.1-13.2-8.3-21.5-8.3
			c-17.6,0-32,14.4-32,32.2c0,17.7,14.4,32.2,32,32.2c8.3,0,15.8-3.2,21.5-8.3l0,0l0,0c1.2-1.1,2.2-2.2,3.2-3.4h-6.5
			c-0.9-1.1-1.7-2.2-2.4-3.4h11.3c0.7-1.1,1.3-2.2,1.9-3.4h-15c-0.5-1.1-1-2.2-1.4-3.4H75c0.4-1.1,0.7-2.3,0.9-3.4
			c0.2-1.1,0.4-2.3,0.6-3.4c0.1-1.1,0.2-2.2,0.2-3.4C76.7,41.4,76.6,40.2,76.5,39.1L76.5,39.1z"/>
		<path class="st1" d="M115.4,50c0-0.6,0.4-1,1-1c0.6,0,1,0.4,1,1c0,0.6-0.4,1.1-1,1.1C115.8,51.1,115.4,50.6,115.4,50L115.4,50z
			 M116.4,50.8c0.4,0,0.8-0.3,0.8-0.8s-0.4-0.8-0.8-0.8c-0.4,0-0.8,0.3-0.8,0.8S116,50.8,116.4,50.8L116.4,50.8z M116.3,50.5H116
			v-0.9h0.4c0.1,0,0.2,0,0.2,0c0.1,0.1,0.1,0.2,0.1,0.3c0,0.1-0.1,0.2-0.2,0.2l0.2,0.4h-0.3l-0.1-0.3h-0.2V50.5V50h0.1
			c0.1,0,0.1,0,0.1-0.1c0.1,0,0.1-0.1,0.1-0.1c0,0,0-0.1-0.1-0.1c0-0.1-0.1,0-0.1,0h-0.1V50V50.5L116.3,50.5z"/>
		<path class="st21" d="M55.3,51.8c-1,0.3-1.8,0.4-2.6,0.4c-1.7,0-2.7-1.1-2.7-2.9c0-0.4,0.1-0.8,0.1-1.2l0.2-1.3l0.2-1l1.5-9.1h3.3
			l-0.4,2h2.1l-0.5,3.3h-2.1l-0.9,5.4c-0.1,0.3-0.1,0.4-0.1,0.6c0,0.7,0.3,1,1.2,1c0.4,0,0.7-0.1,1-0.1L55.3,51.8L55.3,51.8z"/>
		<path class="st21" d="M66,51.7c-1.2,0.3-2.3,0.5-3.5,0.5c-3.8,0-5.9-2-5.9-5.9c0-4.6,2.5-7.9,6.1-7.9c2.8,0,4.6,1.9,4.6,4.8
			c0,1-0.1,1.9-0.4,3.3H60c-0.1,0.2-0.1,0.3-0.1,0.4c0,1.5,1.1,2.3,3,2.3c1.3,0,2.4-0.3,3.6-0.8L66,51.7L66,51.7z M64,43.8
			c0-0.3,0-0.5,0-0.7c0-1.1-0.6-1.7-1.7-1.7c-1.1,0-1.9,0.8-2.2,2.4H64L64,43.8z"/>
		<polygon class="st21" points="28.8,52 25.3,52 27.3,39.5 22.8,52 20.5,52 20.2,39.5 18.1,52 14.7,52 17.4,35.7 22.5,35.7 
			22.6,45.8 25.9,35.7 31.5,35.7 		"/>
		<path class="st21" d="M37.1,46.1C36.8,46,36.7,46,36.4,46c-2,0-3,0.8-3,2c0,0.8,0.5,1.4,1.3,1.4C36.4,49.4,37.1,48,37.1,46.1
			L37.1,46.1z M39.9,52h-3l0.1-1.4c-0.8,1-1.8,1.6-3.6,1.6c-1.7,0-3.1-1.5-3.1-3.6c0-0.6,0.1-1.2,0.3-1.7c0.6-2,2.6-3.3,5.7-3.4
			c0.4,0,1,0,1.5,0.1c0.1-0.4,0.1-0.6,0.1-0.9c0-0.9-0.7-1.2-2.3-1.2c-1,0-2.1,0.2-2.9,0.4l-0.5,0.1L32,42.1l0.5-3
			c1.6-0.5,2.8-0.7,4-0.7c3,0,4.6,1.4,4.6,3.9c0,0.7,0.1,1.2-0.2,2.6l-0.8,4.8L40,50.5L40,51.2l-0.1,0.4L39.9,52L39.9,52z"/>
		<path class="st21" d="M82.7,38.8c1,0,1.9,0.3,3.1,0.9l0.6-3.5C86.1,36,86,36,85.5,35.9l-1.4-0.4c-0.4-0.1-1-0.2-1.6-0.2
			c-1.7,0-2.7,0.1-3.8,0.7c-0.6,0.4-1.3,0.9-2,1.8l-0.4-0.1l-3.5,2.5l0.2-1.4h-3.6L67.1,52h3.5l1.3-7.1c0,0,0.5-1,0.7-1.3
			c0.7-0.8,1.2-0.8,1.9-0.8c0.1,0,0.2,0,0.3,0c-0.1,0.8-0.2,1.6-0.2,2.5c0,4.3,2.4,7,6.2,7c0.9,0,1.8-0.1,3-0.4l0.6-3.8
			c-1.1,0.6-2.1,0.9-2.9,0.9c-2,0-3.3-1.5-3.3-4C78.3,41.4,80.1,38.8,82.7,38.8L82.7,38.8z"/>
		<path class="st21" d="M112.1,35.7l-0.8,4.6c-0.8-1.3-1.8-1.9-3.2-1.9c-1.8,0-3.5,1-4.6,3v-0.1l-2.2-1.3l0.2-1.4h-3.7L95.7,52h3.4
			l1.2-7.1c0,0,0.9-1,1.1-1.3c0.6-0.7,1.1-0.8,1.5-0.8c-0.4,1.1-0.6,2.4-0.6,3.9c0,3.3,1.7,5.5,4.3,5.5c1.3,0,2.3-0.4,3.2-1.5
			l-0.2,1.3h3.3l2.7-16.3H112.1L112.1,35.7z M107.8,48.9c-1.2,0-1.8-0.9-1.8-2.6c0-2.6,1.1-4.5,2.7-4.5c1.2,0,1.8,0.9,1.8,2.6
			C110.6,47,109.5,48.9,107.8,48.9L107.8,48.9z"/>
		<path class="st21" d="M91.8,46.1C91.5,46,91.4,46,91.2,46c-2,0-3,0.8-3,2c0,0.8,0.5,1.4,1.3,1.4C91.1,49.4,91.8,48,91.8,46.1
			L91.8,46.1z M94.6,52h-3l0.1-1.4c-0.8,1-1.8,1.6-3.6,1.6c-1.7,0-3.2-1.4-3.2-3.6c0-3.1,2.4-5.1,6.1-5.1c0.4,0,1,0,1.5,0.1
			c0.1-0.4,0.2-0.6,0.2-0.9c0-0.9-0.7-1.2-2.4-1.2c-0.9,0-2.1,0.2-2.9,0.4l-0.4,0.1l-0.2,0.1l0.5-3c1.6-0.5,2.8-0.7,4-0.7
			c3,0,4.5,1.4,4.5,3.9c0,0.7,0.1,1.2-0.2,2.6l-0.7,4.8l-0.1,0.8l-0.1,0.7l-0.1,0.4V52L94.6,52z"/>
		<path class="st21" d="M47.1,41.6c0.7,0,1.6,0.1,2.6,0.2l0.5-3.1c-1-0.1-2.3-0.3-3.1-0.3c-3.9,0-5.1,2.1-5.1,4.5
			c0,1.6,0.7,2.8,2.6,3.6c1.4,0.7,1.6,0.8,1.6,1.4c0,0.8-0.7,1.3-2,1.3c-1.1,0-2-0.2-3.2-0.6l-0.4,3l0.1,0.1l0.7,0.1
			c0.2,0.1,0.5,0.1,0.9,0.2c0.8,0.1,1.5,0.1,2,0.1c3.9,0,5.5-1.5,5.5-4.4c0-1.8-0.9-2.9-2.6-3.7c-1.5-0.7-1.7-0.8-1.7-1.4
			C45.4,42.1,46.1,41.6,47.1,41.6L47.1,41.6z"/>
		<path class="st1" d="M87.3,35.1l-0.6,3.5c-1.2-0.6-2.1-0.9-3.1-0.9c-2.6,0-4.4,2.5-4.4,6.1c0,2.5,1.2,4,3.3,4
			c0.8,0,1.8-0.3,2.9-0.8l-0.6,3.7c-1.3,0.3-2.1,0.5-3,0.5c-3.8,0-6.1-2.7-6.1-7.1c0-5.8,3.2-9.9,7.8-9.9c0.6,0,1.2,0.1,1.6,0.2
			l1.4,0.3C86.9,35,87,35,87.3,35.1L87.3,35.1z"/>
		<path class="st1" d="M76.2,37.6c-0.1,0-0.2,0-0.3,0c-1.2,0-1.8,0.6-2.9,2.2l0.3-2h-3.2L68,51h3.5c1.3-8.1,1.6-9.5,3.3-9.5
			c0.1,0,0.1,0,0.2,0c0.3-1.6,0.8-2.8,1.3-3.8L76.2,37.6L76.2,37.6z"/>
		<path class="st1" d="M56.2,50.8c-0.9,0.3-1.7,0.4-2.5,0.4c-1.8,0-2.8-1-2.8-2.9c0-0.3,0.1-0.8,0.1-1.2l0.2-1.3l0.2-1l1.5-9.1h3.4
			l-0.4,2h1.8l-0.4,3.3h-1.8l-0.9,5.5c-0.1,0.2-0.1,0.4-0.1,0.6c0,0.7,0.3,0.9,1.2,0.9c0.4,0,0.7,0,0.9-0.1L56.2,50.8L56.2,50.8z"/>
		<path class="st1" d="M42.9,41.9c0,1.7,0.8,2.8,2.6,3.7c1.4,0.7,1.7,0.9,1.7,1.4c0,0.8-0.6,1.2-2,1.2c-1,0-2-0.2-3.1-0.5l-0.5,3
			l0.2,0.1l0.6,0.1c0.2,0.1,0.5,0.1,0.9,0.1c0.8,0.1,1.4,0.1,1.9,0.1c3.6,0,5.4-1.4,5.4-4.4c0-1.8-0.7-2.9-2.4-3.7
			c-1.5-0.7-1.7-0.8-1.7-1.4c0-0.7,0.6-1.1,1.7-1.1c0.7,0,1.6,0.1,2.5,0.2l0.5-3c-0.9-0.2-2.3-0.3-3-0.3
			C44.2,37.4,42.8,39.5,42.9,41.9L42.9,41.9z"/>
		<path class="st1" d="M113.8,51h-3.3l0.2-1.3c-0.9,1-1.9,1.4-3.2,1.4c-2.5,0-4.2-2.2-4.2-5.5c0-4.4,2.6-8.2,5.6-8.2
			c1.4,0,2.4,0.6,3.3,1.8l0.8-4.6h3.4L113.8,51L113.8,51z M108.7,47.9c1.6,0,2.7-1.9,2.7-4.5c0-1.7-0.6-2.6-1.8-2.6
			c-1.5,0-2.7,1.8-2.7,4.4C106.9,47,107.5,47.9,108.7,47.9L108.7,47.9z"/>
		<path class="st1" d="M66.8,50.7c-1.2,0.4-2.3,0.6-3.6,0.6c-3.9,0-5.9-2-5.9-6c0-4.5,2.5-7.9,6-7.9c2.9,0,4.7,1.9,4.7,4.8
			c0,1-0.1,1.9-0.4,3.3h-6.9c-0.1,0.2-0.1,0.3-0.1,0.4c0,1.5,1.1,2.3,3,2.3c1.3,0,2.4-0.2,3.6-0.8L66.8,50.7L66.8,50.7z M64.9,42.8
			c0-0.3,0-0.5,0-0.7c0-1.1-0.6-1.7-1.7-1.7c-1.1,0-1.9,0.8-2.2,2.4H64.9L64.9,42.8z"/>
		<polygon class="st1" points="29.6,51 26.2,51 28.2,38.4 23.7,51 21.4,51 21.1,38.5 19,51 15.8,51 18.5,34.6 23.5,34.6 23.6,44.8 
			26.9,34.6 32.4,34.6 		"/>
		<path class="st1" d="M38.2,45c-0.3,0-0.5-0.1-0.8-0.1c-1.9,0-2.9,0.7-2.9,2c0,0.8,0.4,1.3,1.2,1.3C37.2,48.4,38.2,47,38.2,45
			L38.2,45z M40.8,51h-2.9l0.1-1.4c-0.9,1.1-2,1.6-3.6,1.6c-1.9,0-3.1-1.4-3.1-3.6c0-3.3,2.2-5.1,6.1-5.1c0.4,0,0.9,0.1,1.4,0.1
			c0.1-0.4,0.1-0.6,0.1-0.8c0-0.9-0.6-1.2-2.2-1.2c-1,0-2.1,0.1-2.9,0.3L33.2,41l-0.3,0.1l0.5-3c1.7-0.5,2.9-0.7,4.1-0.7
			c3,0,4.6,1.3,4.6,3.9c0,0.7-0.1,1.2-0.3,2.7L41,48.6l-0.1,0.8l-0.1,0.7l-0.1,0.5L40.8,51L40.8,51z"/>
		<path class="st1" d="M92.9,45c-0.4,0-0.6-0.1-0.8-0.1c-2,0-3,0.7-3,2c0,0.8,0.5,1.3,1.3,1.3C91.8,48.4,92.9,47,92.9,45L92.9,45z
			 M95.5,51h-2.9l0.1-1.4c-0.9,1.1-2,1.6-3.6,1.6c-1.9,0-3.1-1.4-3.1-3.6c0-3.3,2.2-5.1,6.1-5.1c0.4,0,0.9,0.1,1.4,0.1
			c0.1-0.4,0.2-0.6,0.2-0.8c0-0.9-0.6-1.2-2.2-1.2c-1,0-2.2,0.1-2.9,0.3L87.9,41l-0.3,0.1l0.5-3c1.7-0.5,2.9-0.7,4.1-0.7
			c3,0,4.5,1.3,4.5,3.9c0,0.7,0,1.2-0.3,2.7l-0.7,4.7l-0.1,0.8l-0.1,0.7l-0.1,0.5L95.5,51L95.5,51z"/>
		<path class="st1" d="M104.8,37.6c-0.1,0-0.2,0-0.3,0c-1.2,0-1.8,0.6-2.9,2.2l0.3-2h-3.1L96.6,51h3.4c1.3-8.1,1.6-9.5,3.3-9.5
			c0.1,0,0.1,0,0.2,0c0.3-1.6,0.8-2.8,1.3-3.8L104.8,37.6L104.8,37.6z"/>
	</g>
</g>
</svg>
