<?xml version="1.0" encoding="utf-8"?>
<!-- Generator: Adobe Illustrator 19.2.1, SVG Export Plug-In . SVG Version: 6.00 Build 0)  -->
<svg version="1.1" id="Ebene_1" xmlns="http://www.w3.org/2000/svg" xmlns:xlink="http://www.w3.org/1999/xlink" x="0px" y="0px"
	 viewBox="0 0 56 56" style="enable-background:new 0 0 56 56;" xml:space="preserve">
<style type="text/css">
	.st0{fill:#374858;}
	.st1{fill:#FFFFFF;}
	.st2{fill:#EF7873;}
	.st3{fill:none;stroke:#374858;stroke-width:2;stroke-miterlimit:10;}
	.st4{fill:none;stroke:#374858;stroke-width:3;stroke-miterlimit:10;}
	.st5{fill:none;stroke:#374858;stroke-width:2;stroke-linejoin:round;stroke-miterlimit:10;}
	.st6{fill:none;stroke:#374858;stroke-width:3;stroke-linejoin:round;stroke-miterlimit:10;}
	.st7{fill:#FFFFFF;stroke:#374858;stroke-width:2;stroke-miterlimit:10;}
	.st8{fill:#FFFFFF;stroke:#374858;stroke-width:3;stroke-miterlimit:10;}
	.st9{fill:#F2F2F2;stroke:#FFFFFF;stroke-width:1.5;stroke-miterlimit:10;}
	.st10{fill:#F2F2F2;}
	.st11{fill:none;stroke:#EF7873;stroke-width:2;stroke-miterlimit:10;}
	.st12{fill:none;stroke:#EF7873;stroke-width:3;stroke-miterlimit:10;}
	.st13{opacity:0.5;}
	.st14{fill:none;stroke:#374858;stroke-width:2;stroke-linecap:round;stroke-linejoin:round;stroke-miterlimit:10;}
	.st15{fill:none;stroke:#374858;stroke-width:3;stroke-linecap:round;stroke-linejoin:round;stroke-miterlimit:10;}
	.st16{fill:none;stroke:#374858;stroke-width:2;stroke-linecap:round;stroke-miterlimit:10;}
	.st17{fill:none;stroke:#374858;stroke-width:3;stroke-linecap:round;stroke-miterlimit:10;}
</style>
<g>
	<circle class="st2" cx="27.5" cy="28.5" r="27"/>
	<path class="st1" d="M27.6,41.6c-1.3,0-2.5-0.2-3.7-0.5c0.5-0.8,1-1.8,1.3-2.8c0.2-0.6,0.9-3.6,0.9-3.6c0.5,0.9,1.8,1.6,3.2,1.6
		c4.2,0,7.1-3.8,7.1-9c0-3.9-3.3-7.5-8.3-7.5c-6.2,0-9.4,4.5-9.4,8.2c0,2.3,0.9,4.3,2.7,5c0.3,0.1,0.6,0,0.7-0.3
		c0.1-0.2,0.2-0.8,0.3-1.1c0.1-0.3,0.1-0.4-0.2-0.7c-0.5-0.6-0.9-1.4-0.9-2.6c0-3.3,2.5-6.3,6.5-6.3c3.5,0,5.5,2.1,5.5,5
		c0,3.8-1.7,7-4.2,7c-1.4,0-2.4-1.1-2.1-2.5c0.4-1.7,1.2-3.5,1.2-4.7c0-1.1-0.6-2-1.8-2c-1.4,0-2.5,1.5-2.5,3.4
		c0,1.2,0.4,2.1,0.4,2.1s-1.4,6.1-1.7,7.2c-0.2,1-0.3,2.1-0.2,3c-4.6-2-7.9-6.6-7.9-12c0-7.2,5.9-13.1,13.1-13.1s13.1,5.9,13.1,13.1
		C40.7,35.7,34.9,41.6,27.6,41.6z"/>
</g>
</svg>
