<svg id="Ebene_1" xmlns="http://www.w3.org/2000/svg" viewBox="0 0 56 56"><style>.st0{fill:#374858}.st1{fill:#fff}.st2{fill:#ef7873}.st3{stroke:#374858;stroke-width:2}.st3,.st4,.st5{fill:none;stroke-miterlimit:10}.st4{stroke:#374858;stroke-width:3}.st5{stroke-width:2;stroke-linejoin:round}.st5,.st6,.st7{stroke:#374858}.st6{stroke-linejoin:round;stroke-miterlimit:10;fill:none;stroke-width:3}.st7{fill:#fff;stroke-width:2}.st7,.st8,.st9{stroke-miterlimit:10}.st8{fill:#fff;stroke:#374858;stroke-width:3}.st9{stroke:#fff;stroke-width:1.5}.st10,.st9{fill:#f2f2f2}.st11,.st12{fill:none;stroke:#ef7873;stroke-width:2;stroke-miterlimit:10}.st12{stroke-width:3}.st13{opacity:.5}.st14{stroke-width:2;stroke-linejoin:round}.st14,.st15,.st16,.st17{fill:none;stroke:#374858;stroke-linecap:round;stroke-miterlimit:10}.st15{stroke-linejoin:round;stroke-width:3}.st16,.st17{stroke-width:2}.st17{stroke-width:3}</style><circle class="st0" cx="27.5" cy="28.5" r="27"/><path class="st1" d="M27.6 41.6c-1.3 0-2.5-.2-3.7-.5.5-.8 1-1.8 1.3-2.8.2-.6.9-3.6.9-3.6.5.9 1.8 1.6 3.2 1.6 4.2 0 7.1-3.8 7.1-9 0-3.9-3.3-7.5-8.3-7.5-6.2 0-9.4 4.5-9.4 8.2 0 2.3.9 4.3 2.7 5 .3.1.6 0 .7-.3.1-.2.2-.8.3-1.1.1-.3.1-.4-.2-.7-.5-.6-.9-1.4-.9-2.6 0-3.3 2.5-6.3 6.5-6.3 3.5 0 5.5 2.1 5.5 5 0 3.8-1.7 7-4.2 7-1.4 0-2.4-1.1-2.1-2.5.4-1.7 1.2-3.5 1.2-4.7 0-1.1-.6-2-1.8-2-1.4 0-2.5 1.5-2.5 3.4 0 1.2.4 2.1.4 2.1s-1.4 6.1-1.7 7.2c-.2 1-.3 2.1-.2 3-4.6-2-7.9-6.6-7.9-12 0-7.2 5.9-13.1 13.1-13.1s13.1 5.9 13.1 13.1c0 7.2-5.8 13.1-13.1 13.1z"/></svg>