<svg id="Ebene_1" data-name="Ebene 1" xmlns="http://www.w3.org/2000/svg" viewBox="0 0 488 28"><defs><style>.cls-1{opacity:0.3;}.cls-2,.cls-3{fill:#374858;}.cls-3{opacity:0.3;}</style></defs><title>_</title><g class="cls-1"><rect class="cls-2" y="10" width="226" height="2"/></g><g class="cls-1"><rect class="cls-2" x="266" y="10" width="222" height="2"/></g><path class="cls-3" d="M253.66,19.91c-1.14.48-2.21,1.15-3.32,1.76l0.72,1.3a2.07,2.07,0,0,1-.19.22,8.61,8.61,0,0,1-4.6,2c-0.31,0-.27-0.07-0.27-0.26V12h6V10h-6V7.18a3,3,0,1,0-2,0V10h-6v2h6V24.87c0,0.22-.16.34-0.47,0.3a9.38,9.38,0,0,1-4.6-1.87,0.45,0.45,0,0,1-.16-0.72c0.19-.28.33-0.6,0.53-0.94l-2.74-1.51a1.33,1.33,0,0,0-1.85.3,11.27,11.27,0,0,0,20.3-.1A2.74,2.74,0,0,0,253.66,19.91Z"/></svg>