<svg xmlns="http://www.w3.org/2000/svg" viewBox="0 0 370 400"><path fill="#F07873" d="M328.6 163.8c-.1-.2-.3-.3-.5-.4-.4 0-.8.1-1.2.3-.4.2-.8.3-1.3.3-.2.1-.5.1-.8 0-.3-.1-.5 0-.7.1-.2.2-.4.4-.5.6-.1.3-.3.6-.5.9-.1.1-.3.2-.4.3-.1.1-.3.2-.4.3v.4c-.2.1-.4.3-.6.4-.2.1-.3.4-.3.6-.2.1-.3.2-.5.3-.1.1-.2.1-.3.2-.7 1-1.4 2-2 3-.6 1-1.1 1.8-1.6 2.6v.4c0 .1-.1.1-.2.1s-.2 0-.2.1v.2s0 .1.1.1c-.1.2-.2.3-.4.4-.1.1-.2.2-.4.3-.1.1-.1.3-.1.5s-.1.2-.3.1c0-1.1 0-2.2-.1-3.3-.1-1.1-.2-2.2-.3-3.2.2-.5.2-.9.2-1.3 0-.3-.1-.6-.2-.9 0 0 0 .1 0 0 0 0-.1-.1-.1-.2-.1-.1-.1-.2-.1-.3-.1-.1-.4-.2-.9-.3-.5-.1-1-.1-1.5-.2h-1.6c-.5 0-.9.2-1.1.3-.3.2-.4.4-.2.8.2.3.3.7.5 1.1-.2 0-.3.1-.4.2l-.3.3c-.2 1.3-.2 2.6-.2 3.8 0 1.2 0 2.4-.2 3.5v4.7c0 1.8.1 3.5.5 5.1.3 1.6.9 2.7 1.7 3.4.5 0 1.1 0 1.6-.1s1 0 1.3.3c-.2-.3-.2-.5-.2-.6l.3-.3c.2-.1.3-.2.5-.2l.3-.3c0-.3.2-.5.5-.7.3-.2.5-.4.7-.6.1-.2.2-.5.3-.7.1-.3.2-.5.3-.8 0-.3.1-.5.3-.7.1-.2.2-.3.3-.4.1-.2.1-.5.2-.7.1-.3.1-.5.2-.8.3-.4.5-.8.7-1.2s.4-.8.6-1.3c.2-.6.5-1.1.7-1.7.2-.5.5-1.1.8-1.7 0-.2 0-.3.1-.3.1-.1.2-.1.2-.2.1-.3.1-.5.1-.7 0-.2 0-.4.1-.5.1-.3.3-.6.5-.8.2-.2.3-.5.3-.9.3.7.3 1.4.1 2.2-.2.8-.3 1.6-.2 2.5-.2 2.9.2 5.7 1.1 8.6.1.4.2.7.3 1l.3.9c.3.6.7 1.1 1.1 1.4.4.4.6.8.6 1.3.4.2.8.6 1.4 1 .5.4 1.2.7 1.9.9.6.1 1.4.3 2.2.4.9.1 1.6.1 2.2-.1.1-.1.1-.2.2-.4 0-.1.1-.2.2-.4.1 0 .2 0 .3-.1.2 0 .3-.1.3-.1.2-.3.3-.5.3-.9s-.1-.6-.1-.9c-.4.2-.8.3-1.2.2-.4 0-.8-.1-1.1-.3-.3-.1-.6-.3-.9-.5-.3-.2-.5-.4-.6-.5-.4-.5-.6-1-.6-1.5-.1-.6-.1-1.1 0-1.6l-.3-1.4c0-.8.1-1.6.2-2.4.1-.8.2-1.6.2-2.5 0-.4.1-.8.1-1.1s.1-.8.2-1.2c.1-.9.1-1.7.1-2.5s-.1-1.6-.1-2.4c0-.3.1-.7.2-1.1.1-.4.2-.8.2-1 0-1.1-.1-2.2-.4-3.4-.3-1.2-.6-2.4-1-3.6-.2.1-.4 0-.5-.2M289 182.7c-.1 0-.2 0-.2-.2.6-1.4 1.4-2.7 2.2-4.1s1.8-2.5 2.9-3.4c0 0 0-.1.1-.1h.5c0 .1.1.2.2.4s.1.4 0 .6c0 .3-.2.6-.5 1s-.5.7-.8 1c-.8.7-1.4 1.6-2.1 2.4-.6.9-1.3 1.6-2.1 2.3-.1.1-.2.1-.2.1m21.8-4.3c-.2.4-.5.9-.8 1.3-.3.4-.6.8-1 1.2l-.8.8c-.2.1-.3.2-.4.3-.1 0-.2.2-.4.4-1.2 1.2-2.6 2.4-4.3 3.7-1.7 1.3-3.4 2.3-5.3 3.2-.8.3-1.7.7-2.7 1.1-1 .4-1.9.6-2.7.8-.2-.1-.5-.1-.9-.1h-.8c-.7.1-1.2 0-1.6-.4-.4-.3-.6-.7-.8-1.2-.2-.4-.3-.9-.3-1.3s0-.7.1-1c.4 0 .7-.2.9-.5s.4-.5.7-.7c0-.1.1-.2.3-.2.2 0 .3-.1.4-.2.4-.2.7-.5.9-.9.2-.3.4-.6.5-.7.1-.1.2-.2.4-.3.2-.1.3-.2.4-.3.3-.3.6-.6.9-.8l.6-.6c.2-.2.3-.3.3-.4.4-.5.8-1 1.3-1.3.5-.4.9-.8 1.2-1.3 0-.2.1-.4.4-.6.2-.3.3-.4.3-.5.2-.4.4-.8.7-1.1.3-.3.6-.8.9-1.3 0-.4.1-.8.3-1.1.2-.4.1-.9-.3-1.6l-.3-.3-.3-.3c-.1-.2-.3-.4-.6-.6s-.7-.4-1.2-.6c-.4-.2-.9-.3-1.3-.4-.5-.1-.8-.2-1.2-.2-.2 0-.3.1-.3.2-.1.1-.2.1-.3 0-.2 0-.3-.1-.4-.3-.1-.2-.3-.3-.6-.3-.7 0-1.6.1-2.4.2s-1.6.6-2.3 1.4l-.8.8c-.2.2-.5.5-.9.7-.3.4-.6.8-.8 1.1-.3.3-.5.6-.6 1-.4.7-.9 1.4-1.3 2.1-.4.6-.7 1.2-.8 1.8-.2.4-.3.8-.3 1.3-.1.1-.2.3-.4.4-.1.2-.3.3-.3.5v.6c0 .2.1.5.1.8 0 .3-.1.7-.2 1.2s-.2 1-.3 1.6c-.1.5-.1 1.1 0 1.6s.3.8.7 1c-.1.2-.2.3-.2.3-.1 0-.2.1-.3.2.2.2.2.5.1 1-.1.4-.1.9.1 1.3.1.1.2.2.3.4.1.2.3.3.4.4h.4c.1-.1.2-.1.4 0s.5.3.7.5c.3.2.5.5.8.8.2.3.5.6.8.8.3.2.5.4.8.4 0 0 .2 0 .5.1s.6.1 1 .2c.3.1.7.1 1 .2.3.1.5.1.5.1.4.1.9.1 1.4 0 .5-.1 1-.1 1.5 0h.8c1 0 1.7-.2 2.4-.5 1.2-.3 2.3-.8 3.4-1.5l.9-.3c.3-.1.6-.3.8-.4.4-.2.8-.4 1.1-.7.3-.3.6-.4 1-.4.2-.5.4-.7.7-.8.3-.1.6-.3.9-.6.2-.3.5-.6.9-.9.4-.3.8-.5 1.1-.7.4-.5.7-.8.8-1.1.1-.3.4-.6.9-.9l.7-.7c.3-.4.5-.6.6-.6.1-.1.2-.3.5-.7.2-.4.4-.6.5-.7 0-.1.1-.3.3-.5l.5-.5c.1-.3.3-.6.5-1s.3-.7.3-1c.4-.6.5-1.2.2-1.8-.3-.6-.6-.9-1.1-.9.1 0 0 .3-.2.8m-35.3-27.8c-.1 0-.3-.1-.5-.1v-.2h-.2c-.3-.1-.5-.2-.7-.3-.2-.1-.3-.2-.4-.3h-.5c-.2 0-.3-.1-.3-.1-.2 0-.3.1-.4.2-.1.1-.2.1-.4.2-.1-.1-.1-.1-.1 0s-.1.1-.2.2c-.6-.1-.8 0-.7.3v.3c0 .1-.1.2-.2.3 0 .2-.1.3-.1.4-.1.1-.1.3-.3.5-.2.1-.3.4-.4.7l-.3.9c-.7 1.7-1.2 3.2-1.6 4.4 0 .3-.2.7-.6 1.2l-.2.3.2.4c0 .1-.1.2-.2.3s-.2.2-.1.2v.6l-.4.4c-.1.1-.2.3-.2.6-.1.2-.1.4-.1.6s-.1.3-.2.4c-.1.1-.1.2 0 .1s-.1 0-.6.2c-2.2.4-4.1.9-5.8 1.4-1.7.5-3.5 1.1-5.3 1.7-1 .5-2 .9-3 1.3s-2 .9-2.8 1.5c-.4.2-.8.5-1.3.7s-1 .4-1.6.4c0 .1.1.2.1.4.1.1.1.3.3.3.2.2.4.4.8.6.4.1.7.3 1.1.4.4.3.9.6 1.3.6.4.1.9.2 1.4.4.3 0 .6.1.8.1h.6c.8.1 1.6 0 2.6-.2l3-.6c.7-.3 1.4-.5 2.2-.7.8-.2 1.5-.4 2.4-.6.7-.4 1.1-.5 1-.5-.1 0-.1.1 0 0 0 .3 0 .5-.1.7-.1.2-.1.6-.2 1-.1 0-.1.1-.1.2s0 .2.1.3c-.2.2-.3.4-.3.5 0 .1.1.2.1.4.1.1.1.3 0 .5 0 0-.1 0-.2.2 0 .1 0 .2.1.3.1.1.1.2 0 .2 0 .1-.1.2-.2.3-.1.1-.2.2-.3.5 0 .3-.1.5 0 .6 0 .1.1.3.1.5s0 .3-.1.5c-.1.1-.2.3-.2.4s-.1.3 0 .4c.1.2.1.4 0 .6 0 .3 0 .4-.1.5-.1.1-.1.2-.1.2 0 .1.1.2.1.3 0 .1.1.2 0 .4 0 .1 0 .2-.1.3-.1.1-.1.2-.1.3v1c-.1.1-.1.2 0 .3v.9c.1.1.1.2 0 .3-.1 0-.1.1-.2.2 0 .1 0 .1.1.2s.1.1 0 .2c0 .1 0 .2-.1.2s-.1.1-.1.2v.4c.1.1 0 .2 0 .4.1.1.1.2 0 .3-.1.1-.1.2-.2.4v.8c-.2.7-.3 1.3-.2 1.7.1-.4.2-.9.4-1.4.2-.5.4-1 .5-1.4 0-.2-.1-.3-.2-.4l.5-.1c.1-.2.3-.6.4-1.1.2-.6.3-.9.4-1-.1.5-.2 1-.2 1.4 0 .4-.1 1-.1 1.7v.6c0 .3-.1.5-.1.7-.1.3-.1.8.1 1.4.2.7.2 1.2.1 1.5.1.2.1.5.1.7-.1.2-.1.4 0 .7v1.8c0 .7.1 1.2.2 1.4.2.1.2.4-.1.9.1.1.1.2.1.3v.3c0 .1 0 .2.1.3.1.1.2.2.2.3.1.6.2 1.1.4 1.7.1.6.3 1.2.5 1.7.2.6.4 1.1.6 1.7.3.6.4 1.1.5 1.6.2.2.3.5.5.8.1.3.3.6.5.8 0 .2 0 .4.2.6l.3.6c.3.1.6.3.8.6.2.2.4.5.4.7.3.4.5.6.6.7.1.1.2.3.4.4.8.6 1.8 1 3.1 1.3 1.2.3 2.3.2 3.3-.2.4-.2.7-.4.9-.5.1-.2.3-.3.6-.6.3-.4.5-.7.8-1 .2-.3.3-.5.4-.8.4-.3.6-.5.6-.8 0 0 .1-.1.1-.2s0-.2.1-.3c0-.2 0-.4.1-.6s.1-.5-.2-.7c-.2.2-.3.4-.3.6s0 .3-.1.5c-.2.4-.4.7-.8.9-.3.3-.7.4-1.1.4-.5.2-1 .2-1.3-.1-.3-.3-.7-.6-1.1-.9v-.2c.1.1.1 0 0-.2-.7-.6-1.3-1.6-1.8-2.7-.5-1.2-.8-2.5-1-3.9-.2-.2-.3-.5-.3-.7 0-.2-.1-.4-.1-.7l.1-.2v-1.2c-.1-.5-.1-1 0-1.4 0-.1 0-.1.1 0s.1.1.1 0-.1-.2-.1-.4c-.1-.2-.1-.2 0-.2 0 0 0-.1.1-.1 0 0 .1 0 .1-.1v-.2s0-.1-.1-.1c0 0 0-.1.1-.3.1-.1.1-.2.1-.3.1-.4.1-.9 0-1.3s-.1-.8-.1-1.1v-1c-.1-.3-.1-.5-.1-.8.2-.3.3-.5.2-.9-.1-.3-.1-.7 0-1.2 0-.3.1-.6 0-1 0-.4-.1-.8-.1-1.3 0-.1 0-.3.1-.6s.1-.5.1-.7c.1-.8.2-1.6.2-2.4 0-.8.1-1.6.2-2.4v-1.1c.1-.3.1-.6.2-.9-.1-.1-.2-.2-.2-.4-.1-.2-.1-.3 0-.3-.1-.1-.1-.3 0-.5s.1-.4.2-.8c.1-.6.1-1 .1-1.4 0-.4 0-.8.1-1.2 0-.3.1-.5.1-.7 0-.2.1-.4.1-.7 0-.4.1-.9.4-1.5.2-.6.4-1 .4-1.2.2-.3.7-.5 1.4-.5.2-.1.6-.3.9-.5.4-.2.8-.3 1.1-.3.2 0 .4-.1.6-.2.2-.1.4-.2.6-.4 0 0 .1 0 .1-.1s0-.1.1-.1h.4c.1 0 .2 0 .3-.1.3 0 .6-.1.8-.2.8-.3 1.6-.5 2.4-.8.8-.2 1.6-.5 2.4-.8.7 0 1.3-.1 2-.3s1.2-.3 1.8-.5c.3-.2.7-.3 1-.3.4 0 .7-.1 1.2-.2.7-.3 1.5-.4 2.3-.6.8-.1 1.6-.3 2.3-.5 0-.2 0-.2-.1-.1s-.1 0-.1-.2c.1.1.2.1.3 0l.3-.3c-.1-.2-.2-.3-.2-.4s.1-.2.3-.3c-2.1-.3-4.3-.3-6.6-.1-2.3.3-4.5.5-6.6.8-.7.1-1.4.3-2 .3-.6.1-1.3.1-1.9.2-.7.1-1.3.3-1.8.4-.5.1-1.1.2-1.9.3-.1.1-.3.1-.5.2-.2 0-.3-.1-.5-.3.1-1 .2-1.9.3-2.9s.3-1.8.4-2.7c.3-1 .5-1.9.8-2.7.3-.8.4-1.6.5-2.4-.3.1-.4 0-.6-.1m-30.1 41c-.2.3-.4.6-.8 1.1-.5.9-1.4 1.7-2.7 2.4l-1.8 1.5c-.6.4-1.1 1-1.5 1.5-.3.1-.5.2-.6.5-.2.2-.3.4-.5.5 0 .1-.1.2-.2.1h-.2c-.2.2-.3.5-.3.6 0 .2-.2.3-.4.5-.1.1-.3.2-.5.3-.3.1-.5.2-.8.4-.5.2-1 .5-1.4 1-.5.4-1 .8-1.6 1 .3-.4.5-.9.5-1.6 0-.7.1-1.3.2-1.9 0-.1.1-.1.2-.2s.2-.2.3-.4c0-.1-.1-.2-.1-.3v-.3s0-.1.1-.1.1-.1.2-.2c.1-.3.3-.5.5-.7.2-.2.5-.5.9-.8.4-.4.8-.8 1-1.1.2-.3.5-.7.8-1.1l.6-.4.1-.3c.4-.3.7-.5.9-.6.3-.1.5-.3.6-.6 1.1-.7 2.3-1.4 3.5-2.2 1.3-.8 2.6-1.3 3.9-1.6.2.4.2.8 0 1.2l-.4.8c-.2.3-.4.7-.5 1m17.6 1.5c.5-.5.9-1 1.1-1.3.1-.2.2-.3.2-.2l.1-.1c0-.1.1-.2.2-.4s.3-.6.6-1.1c.1-.6.2-1.2.2-1.6 0-.4 0-.8.1-1.1v-.6c-.1-.1-.4 0-.7.3-.2.1-.3.3-.5.4-.7.9-1.7 1.9-3 2.9-1.3 1.1-2.6 2.1-4 3.1s-2.6 1.9-3.8 2.6c-1.2.8-2 1.2-2.5 1.4-.3.1-.3-.1-.3-.3.1-.3.2-.6.3-1 .1-.4.2-.7.3-1 .1-.3 0-.4-.2-.4.8-1.6 1.2-3 1.1-4.4-.1-1.4-.4-2.4-.7-3.1-.2-.3-.4-.7-.6-1-.3-.3-.5-.5-.6-.5-.1-.1-.1-.2-.1-.3 0-.1-.1-.2-.1-.2l-1.9-.6c-.1 0-.2 0-.3-.1-.1-.1-.3-.2-.6-.2-.5-.3-1-.5-1.6-.5-.6 0-1.2-.1-1.9-.1-1 .1-2.1.3-3.1.6s-2 .7-2.9 1.1c-.9.4-1.7.9-2.5 1.3-.8.5-1.5.9-2 1.2-.1-.6-.2-1.2-.2-1.8s-.2-1.3-.5-1.8c-.1-.2-.3-.4-.6-.4s-.4-.2-.4-.4c-.1-.3-.2-.4-.4-.2-.1.2-.2.2-.4.1-.2-.6-.3-.9-.5-1-.2-.1-.3-.3-.2-.6-.3 0-.5-.1-.6-.2-.1-.1-.2 0-.3.3.1-.2 0-.3-.2-.5l-.9-.3c-.3-.1-.6-.2-.9-.2-.3 0-.4-.1-.3 0-.7-.4-1.4-.6-2.1-.6-.7.1-1.5.3-2.2.6.4.7.7 1.3.9 2l.6 2.1v.1c0 .1 0 .1.1.1 0 1.5 0 3-.1 4.5s-.3 3.1-.6 4.8c-.4 3.1-.7 6.2-1.1 9.2-.3 3-.5 6.1-.4 9.3-.2 3.3-.3 6.7-.2 10.1s.5 7 1.1 10.6c.3 1.3.6 2.5.9 3.8.3 1.3.7 2.3 1.2 3.2.2.8.6 1.8 1.4 2.8.6.9 1.2 1.6 1.9 1.9.6.3 1.3.1 2.2-.6-.2-.5-.4-1-.5-1.3-.1-.3-.3-.6-.5-.8-.2-.6-.5-1.2-.7-1.6-.2-.4-.4-.9-.7-1.4.2 0 .2 0 .2-.2v-.4c0-.2 0-.3-.1-.3s-.1.1-.2.3c0 .2 0 .2-.1.2 0 0 0-.1-.1-.3 0-.1-.1-.2-.2-.2-.2-1.5-.5-3-.8-4.6-.3-1.6-.6-3.3-.7-5.1 0-.3.1-.5.2-.8.1-.2.1-.5.1-.7 0-.4-.1-.8-.2-1.2s-.1-.8-.2-1.1c.1-.4.2-.9.1-1.5.1-.4.1-.8.2-1.2 0-.3.1-.7.3-1v-.3c0-.2-.1-.4 0-.6.1-.9.2-1.7.2-2.4.1-.7.2-1.4.5-2.2v-.6c0-.2.1-.5.2-.8.1-.1.1-.4.2-.7 0-.4.1-.4.3-.3 0 .3-.1.6-.2 1s-.1.6-.2.9c.1.6.2 1.2.1 1.8-.1.7-.1 1.3-.2 2s-.2 1.3-.2 2 0 1.3.2 1.9c.1-.9.2-1.7.3-2.6.1-.8.3-1.6.4-2.4.1-.9.1-1.7.2-2.5 0-.7.3-1.4.7-2.1-.2-.3-.2-.5-.2-.8 0-.2.1-.4.1-.6.1-.2.1-.4.2-.6.1-.2.1-.5 0-.9.4-.2.7-.6 1-1.1.1-.2.1-.4.1-.5 0-.2.1-.4.2-.5.6 0 1 .1 1.3.4.3.3.6.5 1 .7.5.1 1 .1 1.4.1.4 0 .9-.1 1.4-.2.9-.2 1.7-.4 2.5-.8s1.5-.7 2.2-1.1c.4-.2.8-.4 1.3-.7.5-.3.9-.6 1.3-1 .4-.3.6-.5.8-.5h.9c.2 0 .5-.2.9-.5.1-.1.3-.3.6-.4.3-.1.6-.2.7-.3.1-.1.3-.2.6-.4s.6-.3.7-.4l1.2-.7c.3-.2.5-.3.5-.3.1 0 .1-.1.2-.2s.2-.1.3-.2c.1-.1.3-.2.7-.5.9-.5 1.6-.9 2.1-1.1.5-.2 1-.6 1.6-1.1.2 0 .4-.1.7-.2l.9-.6c.3-.2.6-.5.9-.7.3-.3.6-.5.8-.6.6-.4 1.2-.9 1.7-1.3s.9-.7 1.3-1.1c.4-.3.6-.6.8-.7.3-.3.6-.7 1.2-1.2m-64.7 5.8c-.4.7-.7 1.4-1.1 2-.6.9-1.2 1.9-1.8 3.1-.6 1.1-1.5 2-2.6 2.7.7-1.9 1.5-3.7 2.3-5.4.8-1.8 2-3.4 3.4-4.8.3-.1.4 0 .5.1 0 .1 0 .2-.1.2-.1.7-.3 1.4-.6 2.1m27.3-3.2c-.3-.2-.5-.2-.8-.1-.3.1-.6.4-.9.8-.3.4-.8 1-1.3 1.7s-1.1 1.4-1.6 2.2c-.6.8-1.1 1.5-1.6 2.2-.5.7-.9 1.3-1.3 1.7-.1.1-.2.1-.3.2-.1.1-.2.1-.3.2-.1.1-.1.3-.1.4 0 .2-.1.3-.1.4-.3.3-.5.6-.6.8-.1.2-.3.4-.4.6-.1.2-.3.4-.6.6l-.9.9c-.5.4-1 .8-1.4 1.2-.4.4-.9.7-1.3 1-.5.3-.9.4-1.5.5-.5.1-1.2.1-1.9 0-.4-.3-.7-.8-1-1.4-.3-.6-.5-1.2-.6-1.7-.2-1-.3-2-.3-3s.1-1.8.2-2.6c0-.3.1-.7.1-1.1s.1-.7.2-1c.1-.8.3-1.7.6-2.5s.5-1.6.6-2.4c.2-.8.2-1.6.3-2.4 0-.8-.1-1.5-.4-2.3-.7-.8-1.7-1.3-2.8-1.5-1.2-.3-2.4-.1-3.9.4-.3.4-.5 1-.6 1.6 0 .6-.2 1.1-.6 1.5-.8-.1-1.4-.2-1.9-.5s-1.2-.4-2-.3c-.3.3-.7.6-1.1.9-.4.2-.8.5-1.1.8-.4.3-.7.7-.9 1.1-.3.4-.6.6-1.1.8-.2 0-.5.2-.9.6-.4.4-.9.9-1.3 1.4-.5.6-1.1 1.3-1.6 2.1-.8 1.1-1.4 2.4-1.8 3.8-.4 1.4-.9 2.8-1.4 4.2 0 .3.1.5.3.6.2.1.2.3.2.6-.3.1-.4.4-.3.9.2.5.2.9 0 1.2.6.6 1 1.1 1.4 1.5.4.4 1 .7 1.7.9.8.1 1.6.2 2.5.3.9.1 1.7 0 2.3-.2.4-.1.9-.5 1.3-.9.4-.5.8-1 1.1-1.6.3-.6.6-1.1.9-1.6.3-.5.5-1 .6-1.3.2-.2.3-.4.4-.7s.3-.3.7-.1c.4 1.7 1 3.1 1.6 4.2.7 1.1 1.5 1.8 2.5 2.3 1 .5 2.1.7 3.5.7s3-.2 4.8-.6c.9-.2 2-.6 3.3-1.2 1.4-.6 2.7-1.6 3.9-3.1 0-.1.1-.1 0-.2v-.3c.1-.1.2-.2.4-.2s.3 0 .4-.1c.2-.2.3-.4.4-.5l.4-.4c.2-.1.3-.3.5-.6.1-.2.3-.4.6-.6.1-.1.3-.3.4-.6.1-.3.2-.5.3-.7.6-.7 1.2-1.5 1.8-2.5.6-1 1-1.9 1.2-2.5l.4-.8c.2-.4.3-.7.4-1.1.1-.4.2-.8.3-1.1.1-.3.1-.6 0-.9v-.6zm-75.4-.1c0 .5-.1.9-.1 1.3.3-.2.4-.4.3-.7-.1-.3-.2-.6-.2-.8 0-.3.1-.5.1-.7 0-.2 0-.3-.1-.5v1.4m1.1 9.6c-.1-.1-.1-.2 0-.3 0-.1.1-.1.1 0s.1.1-.1.3c.1 0 .1 0 0 0m0-1c-.1 0-.1-.2-.1-.5.1-.2.1-.2.2 0s.1.3.1.3c-.1.2-.1.3-.2.2m-1.4-17.2c0-.1-.1-.1-.2-.1 0-.1.1-.1.2-.1s.1 0 .1-.1c.1 0 .1.1.1.1 0 .1 0 .1.1.2-.2.1-.3.1-.3 0m.5-1.3c0-.6.1-1.2.2-1.8.1 1.1.2 2.4.2 3.6 0 1.3 0 2.5-.2 3.6-.1-.1-.2-.3-.3-.6v-.8c-.1-.4-.1-.7-.1-1.1 0-.3 0-.7.1-1.1.1-.6.1-1.2.1-1.8m.4 13.2c.1.2.2.4.2.6 0 .3-.1.5-.2.8-.1.2 0 .5.3.7-.2.1-.4.2-.3.4 0 .2 0 .4-.1.6.1.1.3.2.4.1.1-.1.2 0 .3.2-.4.1-.6.2-.4.3.1.1.2.2.2.3h-.2c-.1 0-.1.1-.1.2 0 .6.1 1.4.4 2.3.3 1 .3 1.8.2 2.5v.5c0 .1.1.2.1.3.1.1.1.2.1.2.3 1.1.6 2.3.7 3.5.1 1.2.3 2.3.5 3.2.1.7.3 1.3.4 1.9.1.6.2 1.3.3 2 0 .1 0 .2-.1.2s-.1.1-.1.2c.1.8.3 1.6.7 2.3.4.7.5 1.4.3 2.2.3.1.5.4.6.8.1.4.1.7.1.9-.4-.5-.6-1.1-.8-1.8-.2-.7-.5-1.4-.9-2.1.2.2.2.5.3.7 0 .2.1.4.2.7 0 .4.1.8.4 1 0 .1 0 .2-.1.3-.1.1-.1.2-.1.2 0 .1.1.2.2.3s.2.2.2.3v.6c0 .4.1.8.4 1.2.3.4.4.7.3.9-.3.1-.4-.1-.4-.4 0-.3-.1-.4-.4-.4.2.6.5 1.3.9 2s.8 1.3 1.1 1.8c.1.1.3.1.4.2.1 0 .3.1.4.2.2.2.3.4.6.6l.5.5c.5.3 1.1.4 1.8.2s1.4-.4 2-.8c-.1-.6 0-1 .5-1.1-.3-1.3-.4-2.7-.2-4s0-2.7-.3-4c0-.1-.1-.2-.2-.3-.1-.1-.2-.2-.2-.3 0-.2 0-.5.1-.7.1-.3.1-.6.1-.9 0-.6 0-1.2-.1-1.8-.1-.5-.1-1.1-.1-1.6h.4v-.3c0-.2.1-.2.3-.3-.1-.3-.1-.7-.1-1.3v-1.5c0-.8 0-1.6-.1-2.3-.1-.8 0-1.4 0-1.8 1.3 1 2.6 2 4 2.9 1.4.9 2.8 2 4 3.1.4-.2.8-.1 1.2.2.4.3.7.6 1.1.9l.9.6c.3.2.5.4.8.6l.9.6c.1.1.3.2.4.4.2.2.4.3.6.4.6.4 1 .6 1.2.7.2.1.6.2 1.2.4.3.1.8.3 1.4.6.6.2 1.2.4 1.9.5.6.1 1.2.1 1.6-.1.5-.1.7-.4.7-.9 0-.3-.3-.7-.9-1.1-.6-.4-1.1-.8-1.5-1.1-.5-.4-.8-.7-1-1-.2-.3-.5-.6-.8-1-.9-.8-1.9-1.5-2.9-2.3-1-.8-2-1.5-2.8-2.3-.3-.1-.5-.4-.7-.6-.2-.3-.4-.5-.6-.7-.1-.1-.2-.1-.3-.1s-.2 0-.3-.1c-.1 0-.1-.1-.1-.2s-.1-.2-.1-.2c-1.7-1.4-3.3-2.9-4.9-4.5-1.6-1.6-3.1-3.1-4.5-4.4.2-.2.4-.3.6-.6l.8-.8c0-.1.1-.1.3-.1h.4c.1-.1.2-.3.2-.5s.1-.4.3-.6c.2-.2.4-.4.6-.5.2-.1.5-.3.7-.6.4-.2.8-.6 1.1-1 .3-.4.6-.9.9-1.4.4-.3.7-.7 1.1-1 .4-.3.7-.7 1.1-1 .1-.2.2-.4.4-.5.2-.1.4-.3.6-.5.3-.4.8-.8 1.3-1.3s1-.9 1.5-1.3c.4-.3.6-.6.8-.7.2-.1.4-.4.7-.8.5-.5.9-.9 1.3-1.2.4-.2.8-.6 1.2-1.1.1-.2.2-.4.3-.5.1-.1.2-.3.3-.4l.4-.4c.2-.1.3-.3.5-.5 0-.1.1-.1.1-.3.1-.1.1-.2.2-.4.2-.2.4-.4.6-.5.2-.1.4-.3.5-.6.3-.2.5-.3.7-.5l.6-.6.6-.6.6-.6c.4-.2.6-.5.8-.7.1-.2.3-.6.5-1.1.2-.4.4-.7.6-.9.2-.2.2-.5.1-.7 0-.2-.2-.3-.4-.4-.3-.1-.6-.3-.9-.4l-.9-.3c-.3-.1-.5-.2-.7-.3-.5-.1-1.1-.3-1.7-.5s-1.2-.4-1.6-.6h-.4c-.1.1-.3.1-.4 0-.3 0-.6-.1-.8-.2-.3-.1-.6-.1-1-.1 0 .3-.1.5-.4.6-.2.1-.5.3-.6.4-.1.2-.2.4-.2.6 0 .2 0 .4-.1.6l-.6.6c-.3.1-.5.3-.6.6-.1.1-.1.3-.1.5s-.1.4-.1.5c-.2.2-.4.3-.6.4-.2.1-.4.3-.5.5-.2.2-.3.4-.4.6-.1.2-.2.4-.4.6-.2.2-.4.5-.8.7-.4.2-.6.4-.6.5-.1.1-.1.2 0 .3 0 .1.1.2 0 .3-.1.1-.2.2-.4.3-.2.1-.3.2-.3.3l.1.3c-.1.2-.2.5-.5.7l-.8.8c-.8.7-1.5 1.4-2.3 2.1-.8.7-1.4 1.5-1.9 2.3.1.1.1 0 .2-.2 0-.2.1-.2.2.1-.1.3-.3.5-.5.6-.2.1-.4.2-.7.3-.2.1-.5.2-.7.3-.2.1-.4.3-.6.5.2.1.4 0 .5-.2.1-.2.2-.2.3 0l-.4.4c-.1.1-.2.2-.4.3-.2-.2-.4-.3-.6-.2-.3.1-.5.3-.6.5.2.1.4 0 .5-.2.1-.2.2-.2.4-.2 0 .5-.2.9-.7 1-.5.1-.8.4-1 .7 0-.2 0-.3-.1-.3h-.2c-.1 0-.2.1-.3.1-.1 0-.2 0-.3-.1-.1-.7-.1-1.5.1-2.2.2-.8.1-1.5-.1-2.2 0-.1-.1-.2-.1-.3 0-.1-.1-.2-.1-.3 0 0 0-.1.1-.3.1-.1.1-.2.1-.3-.1-.3-.1-.5-.2-.7-.1-.2-.2-.3-.2-.4 0-.1.1-.3.2-.5s.1-.3 0-.4c0 .1 0 .1-.2 0-.1-.1-.2-.2-.3-.2.1-.3.1-.6-.1-.9-.2-.3-.3-.6-.3-1 0-.1 0-.2.1-.4.1-.1.1-.3.1-.5.1-.8 0-1.8-.3-3.1l-.6-3.9c-.1-.7-.2-1.3-.2-1.9-.1-.6-.2-1.4-.3-2.3 0-.4.1-.8.1-1.1v-.9c-.2-.4-.5-.7-1.1-.9-.5-.2-.9-.5-1.3-.7-.5-.2-1-.4-1.6-.7-.6-.3-1.1-.5-1.5-.5-.2-.1-.3 0-.3.1s0 .2-.1.2h-.4c0-.1-.1-.1-.1 0-.2 0-.3.1-.4.3-.1.2-.3.2-.5 0 .3 1 .3 1.9 0 2.7-.2.8-.4 1.7-.4 2.7-.1 1.4-.3 2.8-.4 4.2l-.3 4.2v2.2c-.1.7-.1 1.4 0 2.1.1-.2.1-.5 0-.7-.1-.3 0-.5.3-.6.1.8.1 1.6 0 2.4-.1.9 0 1.6.3 2.2-.3.3-.4.7-.3 1.1.1.4.2.8.1 1.3 0 .3-.1.6-.2.9-.1.3-.1.6.3.9.1-.8.2-1.6.1-2.4s.1-1.6.3-2.3c.1.9.1 1.8.1 2.7v2.7c.1 0 .2 0 .3-.2.1-.2.2-.2.3-.1-.2.7-.2 1.3 0 1.8s.3 1.1.3 1.5c0 .1 0 .2-.1.2s-.1.1-.1.2.1.1.1.1c.1 0 .1.1.2.2.2.5.3 1.2.3 2s-.1 1.6-.2 2.4c-.2-.5-.3-1-.2-1.4.1-.4.1-.8.1-1.3-.7.6-.8.7-.7.9m2.4 23.6c.1 0 .1 0 0 0 .1-.1.1-.2.1-.5 0-.2-.1-.2-.1 0-.1.3-.1.5 0 .5m-2.3-13c0 .1 0 .2.1.5.2-.1.3-.3.3-.6-.1-.3-.2-.4-.5-.3.1.2.1.4.1.4m-.3-1.7c0 .1 0 .1.1.1.2-.1.1-.2-.2-.3.1.1.1.1.1.2m-.1-4.2c-.1.2-.1.2.1.3.1-.1.1-.3.2-.4 0-.1 0-.2-.1-.3-.1.1-.1.2-.2.4m-.4-2.5c-.1.1-.1.2.2.2 0-.3.1-.3.2-.2.1.1.1 0-.1-.4H150.1c.1.1.1.2 0 .4m-.8-1.7c.1.2.2.2.3-.1-.1 0-.2 0-.1-.1 0-.1 0-.2.1-.3-.4.1-.4.2-.3.5m.3-6.2v-.2c0-.1 0-.1-.1-.2 0 .2 0 .3.1.4m10.9-2.1c.1.5 0 1-.1 1.3.2-.1.4-.3.4-.6s.1-.6.1-1c0-.3 0-.5-.1-.8-.1-.3-.2-.4-.3-.3v1.4m-55.1 29.8c-.1 0-.2 0-.2-.2.6-1.4 1.4-2.7 2.2-4.1.8-1.4 1.8-2.5 2.9-3.4 0 0 0-.1.1-.1h.5l.2.4c.1.2.1.4.1.6 0 .3-.2.6-.5 1s-.5.7-.8 1c-.8.7-1.4 1.6-2.1 2.4-.6.9-1.3 1.6-2.1 2.3-.2.1-.2.1-.3.1m21.8-4.3c-.2.4-.5.9-.8 1.3-.3.4-.6.8-1 1.2-.3.4-.6.6-.8.8-.2.1-.3.2-.4.3-.1 0-.2.2-.4.4-1.2 1.2-2.6 2.4-4.3 3.7-1.7 1.3-3.4 2.3-5.3 3.2-.8.3-1.7.7-2.7 1.1-1 .4-1.9.6-2.7.8-.2-.1-.5-.1-.9-.1h-.8c-.7.1-1.2 0-1.6-.4-.4-.3-.6-.7-.8-1.2-.2-.4-.3-.9-.3-1.3s0-.8.1-1c.4 0 .7-.2.9-.5.2-.3.4-.5.7-.7 0-.1.1-.2.3-.2.2 0 .3-.1.4-.2.4-.2.7-.5.9-.9.2-.3.4-.6.5-.7.1-.1.2-.2.4-.3.2-.1.3-.2.4-.3.3-.3.6-.6.9-.8l.6-.6c.2-.2.3-.3.3-.4.4-.5.8-1 1.3-1.3.5-.4.9-.8 1.2-1.3 0-.2.1-.4.4-.6.2-.3.3-.4.3-.5.2-.4.4-.8.7-1.1.3-.3.6-.8.9-1.3 0-.4.1-.8.3-1.1.2-.4.1-.9-.3-1.6l-.3-.3-.3-.3c-.1-.2-.3-.4-.6-.6-.3-.2-.7-.4-1.2-.6-.4-.2-.9-.3-1.3-.4-.5-.1-.8-.2-1.2-.2-.2 0-.3.1-.3.2-.1.1-.2.1-.3 0-.2 0-.3-.1-.4-.3-.1-.2-.3-.3-.6-.3-.7 0-1.6.1-2.4.2-.9.1-1.6.6-2.3 1.4l-.8.8c-.2.2-.5.5-.9.7-.3.4-.6.8-.8 1.1-.3.3-.5.6-.6 1-.4.7-.9 1.4-1.3 2.1-.4.6-.7 1.2-.8 1.8-.2.4-.3.8-.3 1.3-.1.1-.2.3-.4.4-.1.2-.3.3-.3.5v.6c0 .2.1.5.1.8 0 .3-.1.7-.2 1.2s-.2 1-.3 1.6c-.1.5-.1 1.1 0 1.6s.3.8.7 1c-.1.2-.2.3-.2.3s-.2.1-.3.2c.2.2.2.5.1 1-.1.4-.1.9.1 1.3.1.1.2.2.3.4.1.2.3.3.4.4h.4c.1-.1.2-.1.4 0s.5.3.8.5c.3.2.5.5.8.8.2.3.5.6.8.8.3.2.5.4.8.4 0 0 .2 0 .5.1s.6.1 1 .2c.3.1.7.1 1 .2.3.1.5.1.5.1.4.1.9.1 1.4 0 .5-.1 1-.1 1.5 0h.8c1 0 1.7-.2 2.4-.5 1.2-.3 2.3-.8 3.4-1.5l.9-.3c.3-.1.6-.3.8-.4.4-.2.8-.4 1.1-.7.3-.3.6-.4 1-.4.2-.5.4-.7.7-.8.3-.1.6-.3.9-.6.2-.3.5-.6.9-.9.4-.3.8-.5 1.1-.7.4-.5.7-.8.8-1.1.1-.3.4-.6.9-.9l.7-.7c.3-.4.5-.6.6-.6.1-.1.2-.3.5-.7.2-.4.4-.6.5-.7 0-.1.1-.3.3-.5l.5-.5c.2-.3.3-.6.5-1s.3-.7.3-1c.4-.6.5-1.2.2-1.8-.3-.6-.6-.9-1.1-.9 0 0 0 .3-.3.8M69.5 249c0 .1 0 .2-.1.2l-.9.2c-.1.1-.2.2-.2.3-.1.1-.2.2-.4.3l-.4.1c0 .1-.1.1-.1.2s-.1.2-.2.2c-.3.1-.5.1-.6.2-.4.3-.7.6-1.1.8-.4.3-.8.4-1.2.5h-.2c-.3.1-.6.2-.8.3-.2.1-.5.3-.6.4.4 0 .8-.1 1.1-.3.3-.2.5-.4.7-.5.3-.1.5-.2.6-.2.1 0 .3-.1.4-.2.2-.2.4-.3.6-.4.1-.1.3-.2.6-.3.3-.1.5-.1.6 0 .1-.1.2-.3.3-.4.1-.2.3-.3.6-.3.7-.4 1.1-.8 1.4-1.2-.1 0-.2 0-.1.1m13.2-7.8s-.1.1 0 .2c.1 0 .2-.1.2-.2v-.2c-.2.1-.2.2-.2.2m.6-.5c-.1.1-.1.1 0 .1l.3-.3c.1-.1.1-.1-.1-.1 0 .1-.1.2-.2.3m-30 11.1c-.1-.1-.1-.2.1-.2.1 0 .2 0 .1-.1 0 0 .1.1.1.2l-.3.1zm15.2-3.2c.1-.1.1-.1.1 0l.1.1c-.1 0-.1 0-.1.1-.2 0-.2-.1-.1-.2m-1.7.1c.1 0 .2 0 .3-.1 0 .1-.2.2-.5.3 0-.1.1-.2.2-.2m.7 0c.1 0 .2-.1.2-.2.1.1.1.1 0 .2-.1 0-.2.1-.2.2v-.2m1.4-.4l.1-.1c.1 0 .1.1 0 .2s-.2.2-.3.2c.1-.1.1-.2.2-.3m.4-.3v.2-.2zm-.6-.2l-.4.2c-.1 0 0-.1.4-.2m1.1-.1c-.1.2-.2.3-.5.3.1-.1.2-.3.5-.3m-.8-.2c.2-.1.4-.2.5-.3-.2.4-.4.6-.7.6-.1-.1 0-.2.2-.3m2.1-.6c.3-.2.6-.3.9-.4-.3.4-.8.7-1.5.9 0-.1.2-.3.6-.5m2.2-.8c.3-.3.6-.5.7-.6v.2c-.4.2-.8.4-1.1.7-.3.3-.7.6-1.1.9-.1-.1-.1-.2.1-.3.2-.1.3-.2.4-.2.4-.2.7-.4 1-.7m.8-.8c.1 0 .2-.1.2-.2.1 0 .1.1 0 .1s-.2.1-.2.2v-.1m-1.4.7c.2-.1.3-.3.4-.5.1-.3.3-.5.6-.7-.3.3-.6.6-.8.9-.2.3-.5.5-.8.6 0-.1 0-.2.1-.3 0-.1.1-.2.2-.2 0 0 .1 0 .3.2zm2.1-1.2c0 .3-.1.4-.3.3 0-.3.1-.4.3-.3m4.4-1.9l.1-.1h.1c-.1 0-.1.1-.2.1m.9-.7c-.1.1-.2.1-.2.2s-.1.1-.2.1c0-.3.1-.4.4-.3m-.9 0c.3-.3.8-.6 1.3-.8.1.3 0 .5-.2.5s-.4.1-.6.2c-.1 0-.2.1-.4.4-.1.2-.3.4-.4.4-.1.2-.3.4-.6.4.3-.4.6-.8.9-1.1m1-2c-.1.3-.3.6-.6.8-.1.1-.1.1-.2.1 0-.1-.1-.1-.2 0v.4l-.3.3c-.1.1-.3.1-.4.2 0 .1-.1.1 0 .2v.2c-.1.1-.2.1-.3.1-.1 0-.3.1-.5.2-.2.3-.4.5-.4.6-.1.2-.3.2-.6.2-.1.3-.2.5-.4.7-.2.2-.5.3-.8.3 0-.2.1-.3.3-.4.2-.1.3-.3.3-.5.3.1.5.1.5 0 0-.2.1-.3.3-.4l.4-.4c.2-.1.4-.2.6-.4.4-.4.8-.7 1.2-1.1.4-.4.7-.8 1.1-1.1zm1.8-.1c0 .3-.1.4-.2.4s-.2.1-.2.4c-.1-.1-.3-.1-.5.1-.2.1-.3.2-.4.4 0-.2.1-.3.3-.5.2-.2.3-.4.4-.6l.6-.2zm.4-.7c.1-.1.3-.2.6-.4-.1.1-.3.3-.4.5-.1.2-.3.4-.5.5 0-.2.1-.5.3-.6m-32.1-7.3c.1-.3.1-.6.1-1.1.3 0 .4.1.2.4-.1.3-.2.5-.2.5v.8c-.2 0-.2.1-.1.1-.1-.2-.1-.4 0-.7m7.4-11.7c.4-.2.7-.5 1.1-.9.2.2.2.4 0 .4-.1 0-.2.1-.3.1-.1.1-.2.2-.3.2-.1.1-.2.2-.4.3-.1.1-.3.2-.5.3-.3.1-.5.3-.7.4.4-.2.8-.5 1.1-.8m1.6-1.1c.1-.1.2-.1.3-.1-.2.2-.4.4-.6.4 0-.1.1-.2.3-.3m1.9-1.8c.1-.1.3-.1.6-.1-.4.2-.7.5-1 .8-.3.3-.7.6-1 .9-.1-.1-.1-.2.1-.3.2-.1.3-.2.4-.4v-.2c.3-.1.5-.2.8-.5 0 0 0-.1.1-.2m23-8.5c-.2-.1-.3-.2-.5-.3.1 0 .3.1.4.2.2.1.4.2.6.2-.1.1-.3 0-.5-.1m-2.8-.3c-.7-.1-1.4-.3-2.2-.4.8 0 1.5 0 2.2.1.7.1 1.4.2 2.1.5-.7 0-1.4-.1-2.1-.2m-3.7-11.4c0-.1 0-.2.1-.3.1-.1.1 0 .1.2s0 .3-.1.3c0-.1 0-.2-.1-.2m-22.4 17.4c-.5.2-.9.4-1.3.6-.1-.5-.1-.9-.1-1.3s.1-.9.2-1.3.2-.9.2-1.4.1-1.1.3-1.7c.1-.5.1-1 .1-1.4v-1.3c-.1-1.6-.1-3.2 0-4.7s.1-3 .1-4.5v-.8c0-.3 0-.5.1-.6 0-.1.3-.2.7-.3.4-.1.8-.3 1.2-.4.7-.3 1.4-.5 2.1-.7s1.4-.4 1.9-.7c0-.1.1-.2.2-.2h.4c.1-.1.3-.2.4-.2.1-.1.3-.2.5-.3 0-.1.1-.1.2 0h.4c0-.1.1-.1.1-.1 0-.1.1-.1.1 0 .2 0 .4-.1.6-.2.2-.1.3-.1.5-.2l1.2-.2 2.2-.5h.5c.2 0 .3 0 .3-.1h2.2l.3.1c.1.1.3.1.4.2.1 0 .3.1.5.1.7.3 1.2.8 1.6 1.4.4.6.6 1.4.5 2.4-.1 1-.4 2-.9 2.9-.5 1-1 1.9-1.6 2.8l-1.2 1.8c-.5.6-.9 1.1-1.4 1.7-.1.3-.2.5-.3.6-.1.1-.3.3-.4.5-.4.4-.9.8-1.3 1.2l-1.2 1.2c-.2.3-.4.6-.6.8-.2.2-.3.4-.5.5-.1.1-.2.2-.5.3-.2.1-.5.2-.8.4-1.2.3-2.3.8-3.4 1.3s-2.2 1.1-3.2 1.8c-.5 0-.9.2-1.3.5m21.3-23.1c-.2-.2-.3-.4-.3-.4s-.1-.1-.2-.1H76c-.1 0-.1-.1.1-.2-.2-.1-.3-.1-.3 0s-.1.1-.1-.1c-.1-.3-.1-.4-.2-.4s-.2 0-.5-.1c-.1 0-.1-.1-.1-.2v-.2s0-.1-.1 0h-.2c-.1 0-.2-.1-.2-.1l-.2-.2H73.9s0-.1-.1-.1-.1-.1-.2-.2-.3-.2-.5-.2-.4-.1-.6-.2c-.1 0-.1 0-.1-.1 0 0 0-.1-.1-.1-.2-.2-.5-.2-.8-.2-.6-.1-1.3-.3-2.2-.5-.9-.2-1.8-.3-2.7-.4H65c-.6 0-1.2.1-1.7.1-.2 0-.3 0-.5.1s-.4.2-.5.1c-.1 0-.2-.1-.2-.2s-.1-.1-.3-.1c.2 0 .2 0 .1.1l-.1.2-.1-.2c-.1 0-.2.1-.2.1 0 .1-.1.1-.1.1-.9 0-1.8.2-2.7.4-.9.2-1.7.5-2.4.7-.4.1-.8.2-1.3.5-.5.2-.9.3-1.3.3h-.4c-.1 0-.3 0-.5.1-.1.1-.4.3-.9.6-.4.3-.8.5-1.2.6-.5.1-.9.3-1.4.4-.1.1-.3.2-.6.3l-.6.3c-1.1.5-2.1 1-3 1.5-.9.5-1.8 1.1-2.7 1.7-.4.3-.7.5-1.1.7-.3.2-.6.4-.9.7-.4.2-.8.4-1 .7-.2.3-.5.5-.9.7-.2.2-.4.4-.5.7-.1.2-.3.4-.6.6 0 .1-.1.2-.2.2-.1.1-.2.1-.3.2-.1.2-.3.3-.5.4-.2.1-.3.2-.4.2.6.4 1.3.8 1.9 1 .6.3 1.4.5 2.3.5h.5c.2 0 .4 0 .5.1.4-.1.7-.2 1.1-.5.4-.3.7-.5 1-.8.1-.1.2-.1.3-.1.1 0 .3-.1.4-.2.2.1.4 0 .4 0 .1-.1.1-.2.1-.2.5-.3 1.1-.5 1.6-.8.5-.2 1-.5 1.5-.8.2-.1.5-.3.6-.4.2-.2.4-.3.8-.3-.4 1.2-.8 2.4-1.1 3.6-.3 1.3-.7 2.6-1 3.9-.4 2.5-.9 5-1.4 7.6-.5 2.6-.7 5.4-.7 8.5-.1.1-.3.1-.4.1-.1 0-.2 0-.3.1 0 .3-.2.5-.5.7-.3.2-.6.4-.7.6 0 0-.1.1-.2.3-.1.2-.1.3-.2.4-.1.6-.2.9-.1.9s.3.2.8.5c.1.2.2.3.3.5 0 .1.1.2.1.3.3.2.5.4.7.5.2.1.4.3.6.5 0 .1 0 .2.1.3v.5c.1 1.2.3 2.5.6 3.9.1.6.2 1.1.4 1.6.1.5.2.9.3 1.3.1.2.2.6.3 1.2.1.3.2.5.3.7.2.2.3.5.3.7V237.4c-.1.3-.1.5.1.7.2.2.3.3.4.5.2.3.4.7.6 1.1.3.5.5.9.8 1.3.3.4.6.7 1 1 .4.3.8.5 1.2.5.1.1.3.1.4 0 .1-.1.3-.1.6 0-.1-.3-.1-.5.1-.5s.4-.1.6-.1c.3-.2.5-.5.4-.8-.1-.3-.1-.6-.2-.8-.1 0-.2-.1-.3-.1-.1 0-.2-.1-.3-.2 0 .1-.1.2-.1.3-.1.1-.1.2-.2.2-.3-.2-.6-.5-.8-.9-.2-.4-.3-.9-.4-1.4 0-.1-.1-.2-.1-.3-.1-.1-.1-.2 0-.4 0 .1-.1.1-.4 0 0 0 .1 0 .1-.1 0 0 0-.1-.1-.1 0-.2-.1-.4-.2-.6-.1-.2-.1-.3 0-.4.3 0 .4.1.3.4-.1.3 0 .4.3.5.2-.2.3-.4.1-.6-.1-.2-.2-.4-.3-.7 0-.1-.1-.2-.2-.4-.1-.1-.1-.3-.1-.4.1-.1.2-.3.3-.5.1-.2.1-.4.1-.6.1-.2.1-.4 0-.6-.1-.2-.1-.4-.1-.7v-1c0-.4-.1-.8-.1-1.2 0-.3.1-.5.1-.7 0-.2-.1-.3-.4-.4.3-.1.4-.1.5-.3.1-.1.1-.3.3-.5V229.2l.3.1c-.1-.3 0-.5 0-.8.1-.3.1-.5 0-.8v-.5c0-.1 0-.2.1-.5.3-.5.4-1.2.4-2 .4-.2.9-.4 1.4-.6.5-.2.9-.4 1.3-.6l.3-.3c.1-.1.2-.2.4-.3.1-.1.2-.1.4-.2.1-.1.3-.2.5-.3.7-.4 1.4-.9 2.1-1.4s1.4-1 1.9-1.4c.4-.2.7-.4.9-.7.2-.3.5-.5.9-.7 0 0 .1-.1.1-.2s0-.2.1-.2l.3-.1c.2 0 .2-.1.1-.2s0-.1.1-.1.2 0 .4-.1.3-.2.2-.4c-.1 0-.1.1-.3.1-.1.1-.2.1-.2 0 .2-.2.5-.4.8-.7.3-.3.6-.5.8-.7H64.8l.1-.2c.3-.1.6-.2.8-.3.2-.1.4-.1.6-.2.1-.1.2-.2.5-.1h.5c.2-.2.5-.3.9-.5s.8-.3 1.2-.4c.5-.1 1-.1 1.4-.3.4-.1.8-.2 1.2-.4l1.2-.2c.2 0 .4-.1.6-.3.3.1.6.1.8 0 .2.1.3.1.4 0 .1-.1.2-.1.5-.1h.8c.5-.1 1-.1 1.5-.1s1-.1 1.5-.1c1.6 0 3.1.3 4.4.8 1.3.5 2.1 1.5 2.4 2.9.1.4.2.7.2.8v2.8c0 .5-.1 1.1-.2 1.8s-.2 1.2-.3 1.7c0 .1-.1.2-.3.4v.4c0 .3-.2.5-.3.8s-.3.4-.4.6c-.1.1-.1.2-.1.1-.1.2-.2.3-.1.4-.1.2-.2.4-.3.5-.2.1-.2.3-.1.6-.1 0-.2 0-.2.1s-.1.1-.2.2c-.1.4-.2.8-.4.9-.2.2-.5.4-.7.6-.2.1-.4.3-.5.5-.2.2-.3.3-.4.5-.7.8-1.4 1.5-2 2 .1.2.3.2.4.1.1-.1.2-.2.3-.1 0 .4-.2.7-.7.9 0 .1-.2.2-.5.3-.2.1-.3.3-.4.4-.1.2-.3.3-.5.5-.2.1-.3.3-.5.5-.1.2-.3.3-.4.4l-.6.4-.6.6c-.2.2-.4.2-.6.3 0 .2-.1.3-.3.4-.2.1-.3.2-.3.5-.2.1-.3.3-.5.5-.1.2-.3.4-.4.5-.1.1-.1.2-.1.3 0 .1 0 .2-.1.2-.1-.1-.2-.1-.3-.1-.1 0-.2 0-.4-.1.2.2.2.2 0 .2s-.3 0-.3.1c-.2.1-.4.3-.6.5-.2.3-.4.5-.8.7-.2.1-.3.2-.4.2 0 .1-.1.1-.2.2s-.2.2-.3.2c-.2.1-.3.3-.4.6-.1.3-.3.5-.6.6-.1.1-.2.1-.3.1s-.2.1-.3.2c-.2.2-.4.4-.4.6 0 .3-.1.5-.3.5-.1.2-.3.4-.6.6-.3.2-.6.3-.8.2-.1.2-.2.4-.5.6-.3.2-.5.3-.8.4-.1.1-.2.2-.1.3.1.1.1.2 0 .3-.1.1-.2.1-.2 0h-.2c.1.1.2.1.1.2l-.2.2c-.3.1-.6.3-.9.4-.3.2-.6.3-.9.5-.1 0-.2 0-.2-.1s-.1-.1-.2-.1c-.5.4-.9.7-1.4 1-.5.3-1 .6-1.6.8v.2l.1.1c-.2.2-.4.3-.6.4s-.4.1-.7.2v-.2c0-.1-.1-.1-.2 0-.6.1-1.1.3-1.5.6-.4.3-.9.5-1.4.7v.3c0 .1 0 .1-.1.1-.1.1-.2.1-.2 0 0-.2 0-.2-.1-.2 0 .3-.2.5-.5.6-.3.1-.5.1-.6-.2-.1-.3 0-.4.2-.5.2-.1.3-.2.5-.3-.3 0-.6.1-.8.2-.2.1-.4.2-.8.2.1 0 0-.1-.3-.3 0 0-.1 0-.1.1l-.1.1c0 .1-.1.1-.1.1-.1.1-.3.1-.4 0l-.3-.3-.3-.3c-.1-.1-.2-.1-.4-.1-.1-.2-.3-.3-.4-.4-.1-.1-.2-.2-.3-.4 0 .1-.1.1 0 .2 0 0 0 .1-.1.3-.3-.3-.5-.7-.4-1.2.1-.5 0-1-.2-1.4-.2.5-.4 1-.5 1.6-.1.6-.3 1.1-.7 1.4.2.2.2.5 0 .8-.2.3-.4.5-.5.8.2.1.3.2.2.4-.1.2 0 .4 0 .6.2 0 .4 0 .4.1.1.1.2.1.5 0-.1.1-.1.2 0 .3.1.1.2.1.2.2.1 0 .2.1.3.3s.2.2.2.2c0 .1.1.1.2.1.1-.1.2 0 .3.1 0 .1.1.1.2.1.3 0 .5.1.6.1.1.1.3.1.4 0l.1.1v.1c.2 0 .4 0 .4-.1.1-.1.1-.1.3-.1.2.3.4.4.7.4.3 0 .5-.1.6-.2.3.1.6.2 1.1.2.4 0 .8 0 1.2-.1.1-.1.2-.3.2-.4 0-.2.1-.2.4-.2 0 .2.1.3.1.3v.2c.1-.1.3-.1.4-.2.1 0 .2-.1.3-.2h.3c.1 0 .2 0 .3-.1.1-.1.2-.1.2-.2l.3-.3c.2-.1.4-.2.5-.2.2 0 .2-.2.2-.4-.5 0-.9.2-1.2.4-.3.2-.7.4-1 .6-.1 0-.1 0 0-.2 0-.1 0-.1-.1-.1-.3 0-.5.1-.8.2 0-.2-.1-.2-.4-.2-.1.2-.2.3-.5.3-.2 0-.4 0-.4-.2.1-.2.2-.3.3-.3.1 0 .2-.2.3-.4.2.2.3.3.5.1.2-.2.4-.3.6-.2.2 0 .2.1.2.2s0 .1.1.1c0-.2.1-.3.2-.4.2 0 .3-.1.5-.1.1-.1.1-.2.2-.3 0-.1.1-.1.2 0 0 0 .1 0 .1.1 0 0 0 .1.1.1l.1-.1.3-.3c0-.1.1-.1.2 0s.2 0 .3-.1c.1-.2.3-.3.4-.3h.5c.1 0 .2-.1.4-.2s.4-.2.7-.3c.1-.1.3-.1.5-.2.2 0 .4-.1.5-.3.2-.2.5-.5.9-.7.1-.1.2-.1.3-.1.1 0 .2 0 .3-.1.3-.1.7-.3 1.2-.6.2-.2.4-.3.7-.4.2-.1.4-.1.6-.2.1.4 0 .7-.1.7-.2.1-.3.2-.5.4-.1.2-.2.3-.3.3-.3.2-.5.3-.6.4l-.2.2-.3.3c-.1.1-.3.1-.3.1-.1 0-.2 0-.4.1-.2 0-.2.1-.3.2 0 .1-.1.1-.2.2-.2.2-.5.3-.7.4-.2.1-.4.2-.7.4-.2 0-.4.1-.7.2s-.5.2-.5.2c-.1.1-.3.1-.4.1-.1 0-.1.1.1.3.3 0 .5 0 .6-.2.1-.2.3-.3.6-.4.1-.1.2-.1.3-.1.1 0 .2 0 .3-.1.3-.1.5-.2.7-.3.2-.2.5-.3.7-.4h.8c.4-.1.7-.3.9-.6.2-.3.5-.5.7-.7.1-.1.2-.1.4-.1s.3 0 .4-.1c0-.1.1-.1.1-.2s.1-.2.1-.2l.3-.3c.1-.1.3-.2.5-.3v.2c0 .1 0 .1.1.1 0-.2.1-.2.2-.2.1.1.2 0 .3 0l.3-.3c.2-.1.4-.1.7 0 .2-.2.5-.4.7-.7.2-.3.5-.5.8-.6.1.1.1.2-.1.2-.2.1-.2.1.1.1.4-.1.8-.2 1.1-.4.3-.2.6-.4 1-.6.1-.1.3-.2.5-.3.3-.1.5-.2.8-.4.1-.1.2-.2.2-.4.1-.1.2-.3.5-.4 0-.1.1-.1.2-.1s.2 0 .3-.1c.1 0 .3-.1.5-.3.2-.2.4-.4.5-.4.3-.3.6-.5.9-.7.3-.2.6-.4 1-.6-.2.4-.5.6-.8.8-.3.2-.6.5-.7 1-.3 0-.5.1-.6.4-.1.2-.2.3-.5.3-.2.3-.4.5-.7.6-.3.1-.5.3-.7.6.7-.3 1.4-.7 2-1.3l1.8-1.5c1.8-1.2 3.3-2.5 4.5-3.8.6-.6 1.2-1.1 1.7-1.7.5-.6 1-1.3 1.4-2.1.1-.1.3-.2.4-.3.1-.1.3-.2.3-.3.3-.3.5-.7.7-1.1.2-.4.5-.6.8-.4.1-.2.1-.3.2-.3s.2-.1.2-.2c.2-.2.4-.3.4-.5s.1-.3.1-.5c.1-.1.2-.1.2-.1.1 0 .1 0 .2-.2.2-.5.4-.8.6-.9.1-.2.1-.3.2-.4.1-.1.2-.3.2-.5.1-.1.3-.3.4-.5.1-.2.3-.4.5-.5.1-.2.2-.5.3-.7.1-.2.2-.5.4-.8.2-.2.3-.4.5-.5.2-.1.2-.3.1-.7.1-.1.2-.2.3-.2.1 0 .2-.1.3-.1-.1-.1 0-.2.2-.4s.3-.4.3-.5c.1-.1.1-.2.1-.3v-.2s.1-.2.3-.3c.1-.2.1-.4.1-.6 0-.2 0-.5.1-.8 0-.3.1-.8.1-1.3V221c.1-.2.2-.5.2-.8v-.9c0-.9-.2-1.8-.6-2.7-.3-.9-.7-1.7-1.1-2.4-.2-.2-.3-.4-.3-.5-.1-.1-.2-.2-.3-.4-.1-.1-.2-.2-.3-.4-.1-.2-.2-.3-.3-.5-.2-.2-.3-.5-.5-.7-.2-.2-.4-.4-.5-.6-.3 0-.5-.2-.6-.4-.1-.2-.2-.3-.3-.3-.2-.1-.4-.1-.6-.2-.3-.1-.5-.2-.6-.2-.3 0-.5-.2-.7-.4-.2-.2-.4-.3-.6-.2-.2-.2-.3-.4-.6-.4-.2 0-.4-.1-.5-.2-.3-.2-.6-.3-.9-.3-.3 0-.7-.1-1.1-.1l-.2-.4c-.3.1-.4.1-.3.1l-.1-.1h-.2c-.5-.3-1.1-.4-1.7-.5-.7-.1-1.3-.1-1.8-.1-1.3 0-2.6 0-3.8.1-1.3.1-2.5.2-3.7.2.4-.4.7-.8.9-1.3.2-.4.5-.8.9-1.2.2-.2.3-.4.4-.6.1-.2.3-.4.5-.5.1-.1.1-.2.2-.3s.2-.1.4-.2c0-.2.1-.5.3-.9.2-.4.4-.5.4-.4 0-.2 0-.3.1-.3s.2-.2.3-.3c.1 0 .1-.1.1-.1-.1 0 0-.1.1-.1l.3-.8c.1-.2.2-.4.3-.7.1-.3.2-.5.3-.7.2-.6.3-1.1.2-1.5-.1.2-.2.4-.2.5 0 .2-.2.3-.4.4 0-.2 0-.3.1-.3s.2-.2.2-.3c.1-.1.1-.2 0-.4-.1-.1-.1-.2 0-.4l.4-.4c.1-.1.2-.3.3-.5-.1 0-.1 0 0-.2s.1-.2.1-.3c.1-.1.1-.3.1-.4v-.4c0-.2-.1-.3-.1-.5s0-.4-.1-.7c0-.1-.1-.2-.2-.3-.1-.1-.1-.2-.1-.3-.1 0-.1-.1-.1-.3 0-.2 0-.3-.1-.5 0-.2-.1-.3-.1-.3s-.1 0-.1.3c.1-.4.1-.7-.1-.8-.2-.1-.4-.3-.5-.4-.1 0-.1 0-.1.2.1.2 0 .3-.1.3-.1-.2-.2-.4-.2-.6 0-.2-.1-.4-.2-.4.5.6.6.7.6.8m-4.2 57.1c-.2.1-.3.3-.3.5.5-.2.8-.4.8-.7-.2 0-.3.1-.5.2m-1.8.4c-.4.1-.6.3-.5.8 0-.2 0-.3.3-.4.2 0 .4-.1.6-.3.1 0 .2-.1.2-.2.1-.1.2-.2.3-.2l.3-.3c0-.1-.1-.1-.1-.1-.1 0-.1 0-.1-.1-.2.5-.6.7-1 .8m-.1-.9c-.1 0-.1.2 0 .4.1 0 .1 0 .2-.2.1-.1.1-.3-.1-.3 0 0-.1 0-.1.1m3.4-1h.2c0-.1 0-.1.2 0-.3-.1-.4-.1-.4 0m5.5-3.4c-.1.1-.2.2-.2.4.2 0 .3-.1.3-.2s.2-.2.3-.3c-.1 0-.3 0-.4.1m4.5-3.6l.2-.2c.1-.1.1-.2.1-.3-.2.1-.4.3-.3.5m-32.4-2.1c0-.1.1-.2.1-.3 0-.1-.1-.2-.2-.2-.1.4-.1.6.1.5m35.7-1.9c-.1 0-.1 0-.2.1.2.1.3.1.4 0 .1-.1 0-.1-.1-.1h-.1m.3-.4c0 .1-.1.1-.1.1.2.1.3.1.3 0s.1-.2.1-.3c-.1.1-.2.1-.3.2m.4-.6c-.1.1-.1.2 0 .3l.2-.2c.1-.1.1-.2 0-.3 0 .1-.1.1-.2.2m-36.4 0c.1 0 .1 0 .1-.1-.1 0-.1-.1-.1-.1-.1.1-.1.1 0 .2m0-.4c-.1-.5-.2-.8-.1-1-.2.4-.1.7.1 1m25-32.4c-.1 0-.1.1 0 .1 0 0 0-.1.2-.2.1 0 .1-.1 0-.2 0 .2-.1.3-.2.3m2.1-6.6c-.1.1-.1.2 0 .2.1.1.1.1.1 0l-.1-.2zm201.9-56.9l-1.9 1.2 1 1.7 1.9-1.2-1-1.7zm3.4-20.7l-13.7 10 4.8 6.5 1.2-.9-3.7-5 5.3-3.9 2.6 3.5 1.2-.9-2.6-3.5 4.7-3.4 3.5 4.8 1.2-.9-4.5-6.3zm-24.2-.9l1.3 1.3 5.6-5.6 1.8 1.6-3.8 7.6 1.4 1.4 3.9-8c1.8.9 3.5.3 4.9-1 2-2 1.8-4.5-.2-6.4l-2.9-2.9-12 12zm12.2-9.6l1.1 1.1c1.9 1.9 1.7 3.2.4 4.5-1.3 1.3-2.7 1.5-4.5-.4l-1.1-1.1 4.1-4.1zm-13.8-13.4l-7.7 9.8c-1.7 2.1-1.9 4.5.5 6.4 2.4 1.9 4.6 1.1 6.3-1l7.7-9.8-1.4-1.1-7.7 9.8c-1.1 1.3-2.4 2.2-3.9 1-1.6-1.2-1-2.7 0-4.1l7.7-9.8-1.5-1.2zm-13.8-8.5l-.8 1.3 3 1.8-8 13.2 1.6.9 8-13.2 3 1.8.8-1.3-7.6-4.5zm-15.1-6.6l-6.6 15.6 1.7.7 5.8-13.6-.9 15.6 1.8.8 6.6-15.6-1.7-.7-4.9 11.5.9-13.2-2.7-1.1zM214 74.6l-4.7 16.3 7.7 2.2.4-1.5-6-1.7 1.8-6.3 4.2 1.2.4-1.5-4.2-1.2 1.6-5.5 5.7 1.7.4-1.5-7.3-2.2zm-17.1-3l1.2 17.4 1.7.3 6.7-16.1-1.8-.3-5.1 12.8-.8-13.7-1.9-.4zM180.1 88l3.1.1c3.6.1 5.8-1.9 5.9-8.4.1-6.5-2-8.5-5.6-8.6l-3.1-.1-.3 17zm2.1-15.3h1c2.7 0 4.2 1.2 4.1 7-.1 5.8-1.7 6.9-4.4 6.9h-1l.3-13.9zm-15.5-.4l-1.9 17.3 1.8-.2.5-5.1 4.3-.5 1.5 4.9 1.8-.2-5.4-16.5-2.6.3zm1.4 1.1l2.9 8.9-3.8.4.9-9.3zM142.6 96l1.7-.6-2.6-7.5 2.3-.9 5.2 6.7 1.8-.6-5.4-7c1.6-1.2 1.8-3 1.2-4.8-.9-2.6-3.2-3.5-5.8-2.6l-3.9 1.3 5.5 16zm-3.2-15.2l1.5-.5c2.5-.9 3.6-.1 4.2 1.7s.2 3.1-2.3 3.9l-1.5.5-1.9-5.6zM133.2 91c-2.8-5.7-5.6-7-8.1-5.7-2.6 1.3-3.2 4.3-.5 9.9 2.8 5.7 5.6 7 8.1 5.7 2.6-1.2 3.3-4.2.5-9.9m-1.6.8c2.5 5.2 2 7 .5 7.7-1.5.7-3.3 0-5.8-5.1-2.5-5.2-2-7-.5-7.7 1.4-.7 3.2-.1 5.8 5.1m-13.5 17.8l1.5-1-4.4-6.7 3.4-2.3-.9-1.3-3.4 2.3-3.2-4.8 4.6-3-.9-1.3-6.1 4 9.4 14.1zm-30.4 4.7l12 12 1.3-1.3-10.4-10.5 14.1 6.8 1.4-1.4-12-12-1.3 1.3 8.8 8.9-11.9-5.8-2 2zm3 24l1.1-1.5-6.4-4.8 1.4-2 8.1 2.6 1.2-1.5-8.4-2.7c.6-1.9-.2-3.5-1.7-4.7-2.2-1.7-4.7-1.1-6.3 1.1l-2.4 3.3 13.4 10.2zm-11.3-10.7l1-1.3c1.6-2.1 2.9-2.2 4.4-1 1.5 1.1 1.8 2.4.3 4.5l-1 1.3-4.7-3.5zm.8 11.9c-5.6-3-8.6-2.5-9.9 0-1.4 2.5-.2 5.4 5.4 8.4 5.6 3 8.6 2.5 9.9 0 1.3-2.5.1-5.4-5.4-8.4m-.9 1.6c5.1 2.8 5.7 4.6 4.9 6-.8 1.4-2.7 1.9-7.7-.8-5.1-2.8-5.7-4.6-4.9-6 .8-1.5 2.6-1.9 7.7.8m-15.5 17.4l.7-1.7c.8-2 1.8-2.5 3.6-1.8 2.1.9 2.4 2.2 1.5 4.7l-.4 1-5.4-2.2zm6.8 2.6l.7-1.7c.9-2.2 2.4-2.7 4.4-1.9 2 .8 2.5 2.3 1.7 4.3l-.7 1.7-6.1-2.4zm6.9 4.7l1.3-3.2c1.4-3.5.6-5.6-2.3-6.8-2-.8-3.8-.5-5.1 1.2.2-1.9-1-3.2-2.5-3.8-2.3-.9-4.4-.2-5.4 2.2l-1.7 4.2 15.7 6.2z"/><path fill="#F07873" d="M280.5 138.9l-1.9 1.2 1 1.7 1.9-1.2-1-1.7zm3.4-20.7l-13.7 10 4.8 6.5 1.2-.9-3.7-5 5.3-3.9 2.6 3.5 1.2-.9-2.6-3.5 4.7-3.4 3.5 4.8 1.2-.9-4.5-6.3zm-24.2-.9l1.3 1.3 5.6-5.6 1.8 1.6-3.8 7.6 1.4 1.4 3.9-8c1.8.9 3.5.3 4.9-1 2-2 1.8-4.5-.2-6.4l-2.9-2.9-12 12zm12.2-9.6l1.1 1.1c1.9 1.9 1.7 3.2.4 4.5-1.3 1.3-2.7 1.5-4.5-.4l-1.1-1.1 4.1-4.1zm-13.8-13.4l-7.7 9.8c-1.7 2.1-1.9 4.5.5 6.4 2.4 1.9 4.6 1.1 6.3-1l7.7-9.8-1.4-1.1-7.7 9.8c-1.1 1.3-2.4 2.2-3.9 1-1.6-1.2-1-2.7 0-4.1l7.7-9.8-1.5-1.2zm-13.8-8.5l-.8 1.3 3 1.8-8 13.2 1.6.9 8-13.2 3 1.8.8-1.3-7.6-4.5zm-15.1-6.6l-6.6 15.6 1.7.7 5.8-13.6-.9 15.6 1.8.8 6.6-15.6-1.7-.7-4.9 11.5.9-13.2-2.7-1.1zM214 74.6l-4.7 16.3 7.7 2.2.4-1.5-6-1.7 1.8-6.3 4.2 1.2.4-1.5-4.2-1.2 1.6-5.5 5.7 1.7.4-1.5-7.3-2.2zm-17.1-3l1.2 17.4 1.7.3 6.7-16.1-1.8-.3-5.1 12.8-.8-13.7-1.9-.4zM180.1 88l3.1.1c3.6.1 5.8-1.9 5.9-8.4.1-6.5-2-8.5-5.6-8.6l-3.1-.1-.3 17zm2.1-15.3h1c2.7 0 4.2 1.2 4.1 7-.1 5.8-1.7 6.9-4.4 6.9h-1l.3-13.9zm-15.5-.4l-1.9 17.3 1.8-.2.5-5.1 4.3-.5 1.5 4.9 1.8-.2-5.4-16.5-2.6.3zm1.4 1.1l2.9 8.9-3.8.4.9-9.3zM142.6 96l1.7-.6-2.6-7.5 2.3-.9 5.2 6.7 1.8-.6-5.4-7c1.6-1.2 1.8-3 1.2-4.8-.9-2.6-3.2-3.5-5.8-2.6l-3.9 1.3 5.5 16zm-3.2-15.2l1.5-.5c2.5-.9 3.6-.1 4.2 1.7s.2 3.1-2.3 3.9l-1.5.5-1.9-5.6zM133.2 91c-2.8-5.7-5.6-7-8.1-5.7-2.6 1.3-3.2 4.3-.5 9.9 2.8 5.7 5.6 7 8.1 5.7 2.6-1.2 3.3-4.2.5-9.9zm-1.6.8c2.5 5.2 2 7 .5 7.7-1.5.7-3.3 0-5.8-5.1-2.5-5.2-2-7-.5-7.7 1.4-.7 3.2-.1 5.8 5.1zm-13.5 17.8l1.5-1-4.4-6.7 3.4-2.3-.9-1.3-3.4 2.3-3.2-4.8 4.6-3-.9-1.3-6.1 4 9.4 14.1zm-30.4 4.7l12 12 1.3-1.3-10.4-10.5 14.1 6.8 1.4-1.4-12-12-1.3 1.3 8.8 8.9-11.9-5.8-2 2zm3 24l1.1-1.5-6.4-4.8 1.4-2 8.1 2.6 1.2-1.5-8.4-2.7c.6-1.9-.2-3.5-1.7-4.7-2.2-1.7-4.7-1.1-6.3 1.1l-2.4 3.3 13.4 10.2zm-11.3-10.7l1-1.3c1.6-2.1 2.9-2.2 4.4-1 1.5 1.1 1.8 2.4.3 4.5l-1 1.3-4.7-3.5zm.8 11.9c-5.6-3-8.6-2.5-9.9 0-1.4 2.5-.2 5.4 5.4 8.4 5.6 3 8.6 2.5 9.9 0 1.3-2.5.1-5.4-5.4-8.4zm-.9 1.6c5.1 2.8 5.7 4.6 4.9 6-.8 1.4-2.7 1.9-7.7-.8-5.1-2.8-5.7-4.6-4.9-6 .8-1.5 2.6-1.9 7.7.8zm-15.5 17.4l.7-1.7c.8-2 1.8-2.5 3.6-1.8 2.1.9 2.4 2.2 1.5 4.7l-.4 1-5.4-2.2zm6.8 2.6l.7-1.7c.9-2.2 2.4-2.7 4.4-1.9 2 .8 2.5 2.3 1.7 4.3l-.7 1.7-6.1-2.4zm6.9 4.7l1.3-3.2c1.4-3.5.6-5.6-2.3-6.8-2-.8-3.8-.5-5.1 1.2.2-1.9-1-3.2-2.5-3.8-2.3-.9-4.4-.2-5.4 2.2l-1.7 4.2 15.7 6.2zm231.4 56.6l2.2.4.3-1.9-2.2-.4-.3 1.9zm-1.7 17.1l.8-3.1c.9-3.5-.5-6-6.8-7.6-6.3-1.6-8.7 0-9.6 3.5l-.8 3.1 16.4 4.1zm-14.5-5.6l.2-1c.7-2.6 2.1-3.8 7.8-2.4 5.6 1.4 6.3 3.2 5.7 5.8l-.2 1-13.5-3.4zm-6.7 13.3l15.8 6.2 2.7-6.8-1.5-.6-2 5.1-14.3-5.6-.7 1.7zm7.5 21.7l.9-1.6-7-3.8 1.1-2.1 8.4 1.5.9-1.7-8.7-1.5c.3-2-.7-3.5-2.3-4.4-2.5-1.3-4.8-.4-6.1 2l-2 3.6 14.8 8zm-12.6-9l.8-1.4c1.3-2.3 2.6-2.6 4.2-1.6 1.7.9 2.2 2.1.9 4.5l-.8 1.4-5.1-2.9zm.8 10.9c-5-3.8-8.1-3.7-9.8-1.4-1.7 2.3-1 5.3 4.1 9.1 5 3.8 8.1 3.7 9.8 1.4 1.7-2.3 1-5.3-4.1-9.1m-1.1 1.4c4.6 3.5 4.9 5.4 3.9 6.7-1 1.3-2.9 1.5-7.5-2s-4.9-5.4-3.9-6.7c1-1.2 2.9-1.4 7.5 2m-24.7 14.4l13.9 10.1 1.1-1.1-7.4-11.4 11.2 7.6 1.1-1.1-9.9-14-1.2 1.2 8 10.8-11.2-7.6-1.1 1.1 7.5 11.2-10.7-8-1.3 1.2zm-18.3 12l9 14.4 6.8-4.3-.8-1.3-5.2 3.3-3.5-5.5 3.7-2.3-.8-1.3-3.7 2.3-3.1-4.9 5-3.2-.8-1.3-6.6 4.1zm-13.9 6.3l6.9 15.5 1.7-.7-3.3-7.4 4.6-2 3.3 7.4 1.7-.7-6.9-15.5-1.7.7 3 6.7-4.6 2-3-6.7-1.7.7zm-13.6 4.3l.5 1.5 3.3-1 4.5 14.7 1.7-.5-4.5-14.7 3.3-1-.5-1.5-8.3 2.5zm-13.7 7.4c-.4-2.7-1.8-5.3-4.9-5.1-3 .2-4.7 2.7-4.2 9.1.5 6.4 2.6 8.5 5.5 8.3 1.4-.1 2.3-.7 3-1.7l.3 1.2 1.2-.1-.6-7.9-4.1.3.1 1.5 2.3-.2.2 2.4c.1 1.7-.7 2.7-2.4 2.9-2 .2-3.2-1.6-3.6-6.9-.4-5.3.4-7.2 2.5-7.4 1.8-.1 2.6 1.5 3 3.7l1.7-.1zm-24.9-5.1l-.8 16.9 1.8.1.7-14.7 4.6 15 2 .1.8-16.9-1.8-.1-.6 12.5-3.8-12.7-2.9-.2zm-8.3-1.5l-2.9 16.7 1.8.3 2.9-16.7-1.8-.3zm-19.9 12.4l1.8.5 2.1-7.6 2.3.6.5 8.5 1.9.5-.5-8.9c2-.1 3.2-1.4 3.7-3.3.8-2.7-.7-4.7-3.3-5.5l-3.9-1.1-4.6 16.3zm6-14.3l1.5.4c2.5.7 3.1 1.9 2.6 3.8-.5 1.8-1.6 2.6-4.1 1.9l-1.5-.4 1.5-5.7zm-10.5 3.5c2.5-5.8 1.6-8.8-1-9.9-2.6-1.1-5.3.3-7.8 6.2-2.5 5.8-1.6 8.8 1 9.9 2.6 1.1 5.3-.4 7.8-6.2m-1.7-.7c-2.2 5.3-4 6.1-5.5 5.4-1.5-.6-2.2-2.5.1-7.8 2.2-5.3 4-6.1 5.5-5.4 1.5.7 2.1 2.5-.1 7.8m-14.5-17.1l-8.5 14.7 6.3 3.7.8-1.3-4.8-2.8 7.7-13.3-1.5-1zm-10.9-6.3l1.5 1.2c1.5 1.1 1.7 2.5.4 4.2-1.3 1.7-2.7 1.8-4.2.7l-1.5-1.2 3.8-4.9zm-10.8 11.2l1.5 1.1 4.6-6.1 1.7 1.3c2.2 1.6 4.7 1.3 6.4-1 1.7-2.2 1.4-4.8-.8-6.4l-3.2-2.4-10.2 13.5zm-.5-23.9l-3 8.2-8.9 3.9 1.4 1.4 6.9-3.2-2.7 7.3 1.4 1.4 3.4-9.3 7.9-3.4-1.4-1.4-5.9 2.7 2.3-6.1-1.4-1.5zm-7.9-10.2L79.1 275l4.9 6.4 1.2-.9-3.8-4.9 5.2-4 2.7 3.5 1.2-.9-2.7-3.5 4.6-3.5 3.6 4.7 1.2-.9-4.7-6.4z"/><path fill="#F07873" d="M308.9 222.4l2.2.4.3-1.9-2.2-.4-.3 1.9zm-1.7 17.1l.8-3.1c.9-3.5-.5-6-6.8-7.6-6.3-1.6-8.7 0-9.6 3.5l-.8 3.1 16.4 4.1zm-14.5-5.6l.2-1c.7-2.6 2.1-3.8 7.8-2.4 5.6 1.4 6.3 3.2 5.7 5.8l-.2 1-13.5-3.4zm-6.7 13.3l15.8 6.2 2.7-6.8-1.5-.6-2 5.1-14.3-5.6-.7 1.7zm7.5 21.7l.9-1.6-7-3.8 1.1-2.1 8.4 1.5.9-1.7-8.7-1.5c.3-2-.7-3.5-2.3-4.4-2.5-1.3-4.8-.4-6.1 2l-2 3.6 14.8 8zm-12.6-9l.8-1.4c1.3-2.3 2.6-2.6 4.2-1.6 1.7.9 2.2 2.1.9 4.5l-.8 1.4-5.1-2.9zm.8 10.9c-5-3.8-8.1-3.7-9.8-1.4-1.7 2.3-1 5.3 4.1 9.1 5 3.8 8.1 3.7 9.8 1.4 1.7-2.3 1-5.3-4.1-9.1zm-1.1 1.4c4.6 3.5 4.9 5.4 3.9 6.7-1 1.3-2.9 1.5-7.5-2s-4.9-5.4-3.9-6.7c1-1.2 2.9-1.4 7.5 2zm-24.7 14.4l13.9 10.1 1.1-1.1-7.4-11.4 11.2 7.6 1.1-1.1-9.9-14-1.2 1.2 8 10.8-11.2-7.6-1.1 1.1 7.5 11.2-10.7-8-1.3 1.2zm-18.3 12l9 14.4 6.8-4.3-.8-1.3-5.2 3.3-3.5-5.5 3.7-2.3-.8-1.3-3.7 2.3-3.1-4.9 5-3.2-.8-1.3-6.6 4.1zm-13.9 6.3l6.9 15.5 1.7-.7-3.3-7.4 4.6-2 3.3 7.4 1.7-.7-6.9-15.5-1.7.7 3 6.7-4.6 2-3-6.7-1.7.7zm-13.6 4.3l.5 1.5 3.3-1 4.5 14.7 1.7-.5-4.5-14.7 3.3-1-.5-1.5-8.3 2.5zm-13.7 7.4c-.4-2.7-1.8-5.3-4.9-5.1-3 .2-4.7 2.7-4.2 9.1.5 6.4 2.6 8.5 5.5 8.3 1.4-.1 2.3-.7 3-1.7l.3 1.2 1.2-.1-.6-7.9-4.1.3.1 1.5 2.3-.2.2 2.4c.1 1.7-.7 2.7-2.4 2.9-2 .2-3.2-1.6-3.6-6.9-.4-5.3.4-7.2 2.5-7.4 1.8-.1 2.6 1.5 3 3.7l1.7-.1zm-24.9-5.1l-.8 16.9 1.8.1.7-14.7 4.6 15 2 .1.8-16.9-1.8-.1-.6 12.5-3.8-12.7-2.9-.2zm-8.3-1.5l-2.9 16.7 1.8.3 2.9-16.7-1.8-.3zm-19.9 12.4l1.8.5 2.1-7.6 2.3.6.5 8.5 1.9.5-.5-8.9c2-.1 3.2-1.4 3.7-3.3.8-2.7-.7-4.7-3.3-5.5l-3.9-1.1-4.6 16.3zm6-14.3l1.5.4c2.5.7 3.1 1.9 2.6 3.8-.5 1.8-1.6 2.6-4.1 1.9l-1.5-.4 1.5-5.7zm-10.5 3.5c2.5-5.8 1.6-8.8-1-9.9-2.6-1.1-5.3.3-7.8 6.2-2.5 5.8-1.6 8.8 1 9.9 2.6 1.1 5.3-.4 7.8-6.2zm-1.7-.7c-2.2 5.3-4 6.1-5.5 5.4-1.5-.6-2.2-2.5.1-7.8 2.2-5.3 4-6.1 5.5-5.4 1.5.7 2.1 2.5-.1 7.8zm-14.5-17.1l-8.5 14.7 6.3 3.7.8-1.3-4.8-2.8 7.7-13.3-1.5-1zm-10.9-6.3l1.5 1.2c1.5 1.1 1.7 2.5.4 4.2-1.3 1.7-2.7 1.8-4.2.7l-1.5-1.2 3.8-4.9zm-10.8 11.2l1.5 1.1 4.6-6.1 1.7 1.3c2.2 1.6 4.7 1.3 6.4-1 1.7-2.2 1.4-4.8-.8-6.4l-3.2-2.4-10.2 13.5zm-.5-23.9l-3 8.2-8.9 3.9 1.4 1.4 6.9-3.2-2.7 7.3 1.4 1.4 3.4-9.3 7.9-3.4-1.4-1.4-5.9 2.7 2.3-6.1-1.4-1.5zm-7.9-10.2L79.1 275l4.9 6.4 1.2-.9-3.8-4.9 5.2-4 2.7 3.5 1.2-.9-2.7-3.5 4.6-3.5 3.6 4.7 1.2-.9-4.7-6.4z"/></svg>