<svg id="Ebene_1" data-name="Ebene 1" xmlns="http://www.w3.org/2000/svg" viewBox="0 0 56 56"><defs><style>.cls-1{fill:#374858;}.cls-2{fill:#fff;}</style></defs><title>_</title><circle class="cls-1" cx="28" cy="28" r="27"/><path class="cls-2" d="M43.31,36.06c-0.18.43-1,1-3.9,1.48-0.24,0-.33.34-0.47,1-0.05.23-.1,0.46-0.17,0.71a0.39,0.39,0,0,1-.41.31h0a3.61,3.61,0,0,1-.65-0.08,8.62,8.62,0,0,0-1.73-.18,7.7,7.7,0,0,0-1.25.11,6,6,0,0,0-2.38,1.21,6.72,6.72,0,0,1-4.12,1.63H27.81a6.72,6.72,0,0,1-4.12-1.62,6,6,0,0,0-2.38-1.22,7.69,7.69,0,0,0-1.25-.11,8.55,8.55,0,0,0-1.73.2,3.8,3.8,0,0,1-.65.09,0.41,0.41,0,0,1-.45-0.32c-0.07-.24-0.12-0.48-0.17-0.71a1.14,1.14,0,0,0-.47-1c-2.89-.45-3.71-1.05-3.9-1.48a0.56,0.56,0,0,1,0-.18,0.32,0.32,0,0,1,.27-0.34c4.44-.73,6.43-5.26,6.51-5.46v0a1.69,1.69,0,0,0,.16-1.42,3,3,0,0,0-2-1.24l-0.43-.15c-1.31-.52-1.42-1.05-1.37-1.32A1.24,1.24,0,0,1,17,25.15a0.85,0.85,0,0,1,.36.07,3.82,3.82,0,0,0,1.58.42,1.3,1.3,0,0,0,.94-0.3c0-.3,0-0.61-0.06-0.94-0.13-2.1-.3-4.7.37-6.19a8,8,0,0,1,7.45-4.81H28.3a8,8,0,0,1,7.46,4.81c0.66,1.49.5,4.1,0.37,6.19v0.09c0,0.29,0,.58-0.05.85a1.26,1.26,0,0,0,.86.3h0a4,4,0,0,0,1.49-.41,1.12,1.12,0,0,1,.46-0.09,1.41,1.41,0,0,1,.53.1h0a1,1,0,0,1,.74.8c0,0.31-.23.77-1.38,1.22l-0.43.15a3,3,0,0,0-2,1.24,1.69,1.69,0,0,0,.16,1.42v0c0.08,0.19,2.07,4.73,6.51,5.46a0.33,0.33,0,0,1,.27.34A0.55,0.55,0,0,1,43.31,36.06Z"/></svg>