<svg id="Ebene_1" data-name="Ebene 1" xmlns="http://www.w3.org/2000/svg" viewBox="0 0 56 56"><defs><style>.cls-1{fill:#ef7873}.cls-2{fill:#fff}</style></defs><title>_</title><circle class="cls-1" cx="28" cy="28" r="27"/><path class="cls-2" d="M43.31 36.06c-.18.43-1 1-3.9 1.48-.24 0-.33.34-.47 1-.05.23-.1.46-.17.71a.39.39 0 0 1-.41.31 3.61 3.61 0 0 1-.65-.08 8.62 8.62 0 0 0-1.73-.18 7.7 7.7 0 0 0-1.25.11 6 6 0 0 0-2.38 1.21 6.72 6.72 0 0 1-4.12 1.63h-.42a6.72 6.72 0 0 1-4.12-1.62 6 6 0 0 0-2.38-1.22 7.69 7.69 0 0 0-1.25-.11 8.55 8.55 0 0 0-1.73.2 3.8 3.8 0 0 1-.65.09.41.41 0 0 1-.45-.32c-.07-.24-.12-.48-.17-.71a1.14 1.14 0 0 0-.47-1c-2.89-.45-3.71-1.05-3.9-1.48a.56.56 0 0 1 0-.18.32.32 0 0 1 .27-.34c4.44-.73 6.43-5.26 6.51-5.46a1.69 1.69 0 0 0 .16-1.42 3 3 0 0 0-2-1.24l-.43-.15c-1.31-.52-1.42-1.05-1.37-1.32a1.24 1.24 0 0 1 1.17-.82.85.85 0 0 1 .36.07 3.82 3.82 0 0 0 1.58.42 1.3 1.3 0 0 0 .94-.3c0-.3 0-.61-.06-.94-.13-2.1-.3-4.7.37-6.19a8 8 0 0 1 7.45-4.81h.66a8 8 0 0 1 7.46 4.81c.66 1.49.5 4.1.37 6.19v.09c0 .29 0 .58-.05.85a1.26 1.26 0 0 0 .86.3 4 4 0 0 0 1.49-.41 1.12 1.12 0 0 1 .46-.09 1.41 1.41 0 0 1 .53.1 1 1 0 0 1 .74.8c0 .31-.23.77-1.38 1.22l-.43.15a3 3 0 0 0-2 1.24 1.69 1.69 0 0 0 .16 1.42c.08.19 2.07 4.73 6.51 5.46a.33.33 0 0 1 .27.34.55.55 0 0 1 .02.19z"/></svg>