<?xml version="1.0" encoding="utf-8"?>
<!-- Generator: Adobe Illustrator 19.2.1, SVG Export Plug-In . SVG Version: 6.00 Build 0)  -->
<svg version="1.1" id="Ebene_1" xmlns="http://www.w3.org/2000/svg" xmlns:xlink="http://www.w3.org/1999/xlink" x="0px" y="0px"
	 viewBox="0 0 56 56" style="enable-background:new 0 0 56 56;" xml:space="preserve">
<style type="text/css">
	.st0{fill:#374858;}
	.st1{fill:#FFFFFF;}
	.st2{fill:#EF7873;}
	.st3{fill:none;stroke:#374858;stroke-width:2;stroke-miterlimit:10;}
	.st4{fill:none;stroke:#374858;stroke-width:3;stroke-miterlimit:10;}
	.st5{fill:none;stroke:#374858;stroke-width:2;stroke-linejoin:round;stroke-miterlimit:10;}
	.st6{fill:none;stroke:#374858;stroke-width:3;stroke-linejoin:round;stroke-miterlimit:10;}
	.st7{fill:#FFFFFF;stroke:#374858;stroke-width:2;stroke-miterlimit:10;}
	.st8{fill:#FFFFFF;stroke:#374858;stroke-width:3;stroke-miterlimit:10;}
	.st9{fill:#F2F2F2;stroke:#FFFFFF;stroke-width:1.5;stroke-miterlimit:10;}
	.st10{fill:#F2F2F2;}
	.st11{fill:none;stroke:#EF7873;stroke-width:2;stroke-miterlimit:10;}
	.st12{fill:none;stroke:#EF7873;stroke-width:3;stroke-miterlimit:10;}
	.st13{opacity:0.5;}
	.st14{fill:none;stroke:#374858;stroke-width:2;stroke-linecap:round;stroke-linejoin:round;stroke-miterlimit:10;}
	.st15{fill:none;stroke:#374858;stroke-width:3;stroke-linecap:round;stroke-linejoin:round;stroke-miterlimit:10;}
	.st16{fill:none;stroke:#374858;stroke-width:2;stroke-linecap:round;stroke-miterlimit:10;}
	.st17{fill:none;stroke:#374858;stroke-width:3;stroke-linecap:round;stroke-miterlimit:10;}
</style>
<g>
	<circle class="st0" cx="28.1" cy="28.5" r="27"/>
	<path class="st1" d="M13,33.1c0,0.1-0.1,0.1-0.3,0.1c-0.2,0-0.3-0.1-0.3-0.1l-0.5-2.3l0.5-2.3c0-0.1,0.1-0.1,0.3-0.1
		c0.2,0,0.3,0.1,0.3,0.1l0.5,2.3L13,33.1z M16.3,34.4c0,0.1-0.2,0.2-0.4,0.2c-0.2,0-0.4-0.1-0.4-0.2l-0.4-3.5l0.4-5.4
		c0-0.1,0.2-0.2,0.4-0.2c0.2,0,0.4,0.1,0.4,0.2l0.5,5.4L16.3,34.4z M19.6,34.3c0,0.2-0.2,0.3-0.5,0.3c-0.2,0-0.4-0.1-0.5-0.3
		l-0.3-3.5l0.3-7.2c0-0.2,0.2-0.3,0.5-0.3c0.2,0,0.4,0.1,0.5,0.3l0.4,7.2L19.6,34.3z M22.9,34.3c0,0.2-0.2,0.4-0.5,0.4
		c-0.3,0-0.5-0.2-0.5-0.4l-0.3-3.4l0.3-7.3c0-0.2,0.2-0.4,0.5-0.4c0.3,0,0.5,0.2,0.5,0.4l0.3,7.3L22.9,34.3z M26.2,34.3
		c0,0.2-0.3,0.4-0.6,0.4c-0.3,0-0.6-0.2-0.6-0.4c0,0-0.2-3.4-0.2-3.4l0.2-8.4c0-0.2,0.3-0.4,0.6-0.4c0.3,0,0.6,0.2,0.6,0.4l0.2,8.4
		L26.2,34.3z M40.1,34.7c-0.1,0-11.1,0-11.1,0c-0.2,0,0.1-0.2,0.1-0.5V21.4c0-0.2-0.4-0.4-0.1-0.5c0.8-0.3,1.5-0.5,2.4-0.5
		c3.9,0,6.9,2.9,7.2,6.5c0.5-0.2,1-0.3,1.6-0.3c2.3,0,4.2,1.8,4.2,4C44.4,32.9,42.4,34.7,40.1,34.7z"/>
</g>
</svg>
