<svg id="Ebene_1" xmlns="http://www.w3.org/2000/svg" viewBox="0 0 56 56"><style>.st0{fill:#374858}.st1{fill:#fff}.st2{fill:#ef7873}.st3{stroke:#374858;stroke-width:2}.st3,.st4,.st5{fill:none;stroke-miterlimit:10}.st4{stroke:#374858;stroke-width:3}.st5{stroke-width:2;stroke-linejoin:round}.st5,.st6,.st7{stroke:#374858}.st6{stroke-linejoin:round;stroke-miterlimit:10;fill:none;stroke-width:3}.st7{fill:#fff;stroke-width:2}.st7,.st8,.st9{stroke-miterlimit:10}.st8{fill:#fff;stroke:#374858;stroke-width:3}.st9{stroke:#fff;stroke-width:1.5}.st10,.st9{fill:#f2f2f2}.st11,.st12{fill:none;stroke:#ef7873;stroke-width:2;stroke-miterlimit:10}.st12{stroke-width:3}.st13{opacity:.5}.st14{stroke-width:2;stroke-linejoin:round}.st14,.st15,.st16,.st17{fill:none;stroke:#374858;stroke-linecap:round;stroke-miterlimit:10}.st15{stroke-linejoin:round;stroke-width:3}.st16,.st17{stroke-width:2}.st17{stroke-width:3}</style><circle class="st2" cx="28.1" cy="27.5" r="27"/><path class="st1" d="M13 32.1c0 .1-.1.1-.3.1-.2 0-.3-.1-.3-.1l-.5-2.3.5-2.3c0-.1.1-.1.3-.1.2 0 .3.1.3.1l.5 2.3-.5 2.3zm3.3 1.3c0 .1-.2.2-.4.2s-.4-.1-.4-.2l-.4-3.5.4-5.4c0-.1.2-.2.4-.2s.4.1.4.2l.5 5.4-.5 3.5zm3.3-.1c0 .2-.2.3-.5.3-.2 0-.4-.1-.5-.3l-.3-3.5.3-7.2c0-.2.2-.3.5-.3.2 0 .4.1.5.3l.4 7.2-.4 3.5zm3.3 0c0 .2-.2.4-.5.4s-.5-.2-.5-.4l-.3-3.4.3-7.3c0-.2.2-.4.5-.4s.5.2.5.4l.3 7.3-.3 3.4zm3.3 0c0 .2-.3.4-.6.4s-.6-.2-.6-.4l-.2-3.4.2-8.4c0-.2.3-.4.6-.4s.6.2.6.4l.2 8.4-.2 3.4zm13.9.4H29c-.2 0 .1-.2.1-.5V20.4c0-.2-.4-.4-.1-.5.8-.3 1.5-.5 2.4-.5 3.9 0 6.9 2.9 7.2 6.5.5-.2 1-.3 1.6-.3 2.3 0 4.2 1.8 4.2 4 0 2.3-2 4.1-4.3 4.1z"/></svg>