<svg id="Ebene_1" xmlns="http://www.w3.org/2000/svg" viewBox="0 0 52.5 58.7"><style>.st0{fill:#fff;stroke:#f07873;stroke-miterlimit:10}.st1{fill:#f07873}</style><path class="st0" d="M26.5 53.4c-6.4 0-12.5-2.5-17-7s-7-10.6-7-17 2.5-12.5 7-17 10.6-7 17-7c13.3 0 24.1 10.8 24.1 24.1 0 13.1-10.8 23.9-24.1 23.9z"/><path class="st1" d="M12.2 22.6c-.1-.8-.4-1.4-1.2-1.4-.6 0-1 .4-1 1 0 1.7 3 1.7 3 4.1 0 1.2-.7 1.9-1.9 1.9s-1.9-.9-1.9-2.1h.8c0 .9.4 1.4 1.2 1.4.7 0 1.1-.4 1.1-1.2 0-1.7-3-1.9-3-4 0-1.1.7-1.7 1.8-1.7s1.8.7 1.8 2h-.7zm2.7-2h1.8c1.2 0 2 .8 2 2.1s-.8 2.1-2 2.1h-1v3.4h-.8v-7.6zm.8 3.5h.9c.8 0 1.3-.4 1.3-1.4 0-.9-.5-1.4-1.3-1.4h-.9v2.8zm8.2-3.5v.7h-2.6v2.6h1.9v.7h-1.9v2.9H24v.7h-3.6v-7.5h3.5v-.1zm5.1 2.3c-.1-1.2-.5-1.7-1.1-1.7-.9 0-1.4.8-1.4 3.2 0 2.3.4 3.2 1.4 3.2.8 0 1.2-.5 1.2-1.9h.8c0 1.7-.7 2.6-2 2.6s-2.2-1-2.2-3.9c0-2.8.8-3.9 2.2-3.9 1.1 0 1.8.8 1.9 2.4H29zm3.8-2.3v7.5H32v-7.5h.8zm4.5 0l1.7 7.5h-.8l-.4-2.2h-1.9l-.4 2.2h-.8l1.7-7.5h.9zm-1.4 4.6h1.7l-.8-4-.9 4zm5.4-4.6v6.8h2.4v.7h-3.2v-7.5h.8zm-25.5 19c-1.3 0-2.1-1.1-2.1-3.9s.9-3.9 2.1-3.9 2.1 1.1 2.1 3.9c0 2.9-.9 3.9-2.1 3.9zm0-7c-.7 0-1.3.6-1.3 3.2s.6 3.2 1.3 3.2 1.3-.6 1.3-3.2-.6-3.2-1.3-3.2zm4.1-.6h3.2v.7h-2.4v2.6h1.8v.7h-1.8v3.6h-.8V32zm4.9 0H28v.7h-2.4v2.6h1.8v.7h-1.8v3.6h-.8V32zm8.3 0v.7h-2.6v2.6h1.9v.7h-1.9v2.9h2.7v.7h-3.6V32h3.5zm2 0h1.8c1.2 0 2.1.7 2.1 1.9 0 .8-.4 1.5-1.2 1.8l1.3 3.7h-.9L37 36h-1.1v3.5h-.8V32zm.8 3.3h.7c1.2 0 1.5-.5 1.5-1.3s-.4-1.3-1.5-1.3h-.7v2.6z"/></svg>