<svg id="Ebene_1" xmlns="http://www.w3.org/2000/svg" viewBox="0 0 56 56"><style>.st0{fill:#374858}.st1{fill:#fff}.st2{fill:#ef7873}.st3{stroke:#374858;stroke-width:2}.st3,.st4,.st5{fill:none;stroke-miterlimit:10}.st4{stroke:#374858;stroke-width:3}.st5{stroke-width:2;stroke-linejoin:round}.st5,.st6,.st7{stroke:#374858}.st6{stroke-linejoin:round;stroke-miterlimit:10;fill:none;stroke-width:3}.st7{fill:#fff;stroke-width:2}.st7,.st8,.st9{stroke-miterlimit:10}.st8{fill:#fff;stroke:#374858;stroke-width:3}.st9{stroke:#fff;stroke-width:1.5}.st10,.st9{fill:#f2f2f2}.st11,.st12{fill:none;stroke:#ef7873;stroke-width:2;stroke-miterlimit:10}.st12{stroke-width:3}.st13{opacity:.5}.st14{stroke-width:2;stroke-linejoin:round}.st14,.st15,.st16,.st17{fill:none;stroke:#374858;stroke-linecap:round;stroke-miterlimit:10}.st15{stroke-linejoin:round;stroke-width:3}.st16,.st17{stroke-width:2}.st17{stroke-width:3}</style><circle class="st0" cx="28.1" cy="27.5" r="27"/><path class="st1" d="M42 21.2v.8c0 8.4-6.2 18-17.6 18-3.4 0-6.6-1-9.4-2.8.5.1 1 .1 1.5.1 2.9 0 5.6-1 7.7-2.7-2.7-.1-5-1.9-5.8-4.4.4.1.8.1 1.2.1.6 0 .6-.1 1.1-.2-2.8-.6-5.5-3.1-5.5-6.2v-.1c1 .5 2.3.8 3.3.8-1.7-1.1-2.5-3.1-2.5-5.3 0-1.2.4-2.2 1-3.2 3 3.8 7.7 6.3 12.8 6.6-.1-.5-.1-.9-.1-1.4 0-3.5 2.8-6.3 6.2-6.3 1.8 0 3.4.8 4.5 2 1.4-.3 2.7-.8 3.9-1.5-.5 1.5-1.4 2.7-2.7 3.5 1.3-.2 2.4-.5 3.5-1-.8 1.2-1.9 2.3-3.1 3.2z" id="Twitter_3_"/></svg>