<?xml version="1.0" encoding="utf-8"?>
<!-- Generator: Adobe Illustrator 19.2.1, SVG Export Plug-In . SVG Version: 6.00 Build 0)  -->
<svg version="1.1" id="Ebene_1" xmlns="http://www.w3.org/2000/svg" xmlns:xlink="http://www.w3.org/1999/xlink" x="0px" y="0px"
	 viewBox="0 0 56 56" style="enable-background:new 0 0 56 56;" xml:space="preserve">
<style type="text/css">
	.st0{fill:#374858;}
	.st1{fill:#FFFFFF;}
	.st2{fill:#EF7873;}
	.st3{fill:none;stroke:#374858;stroke-width:2;stroke-miterlimit:10;}
	.st4{fill:none;stroke:#374858;stroke-width:3;stroke-miterlimit:10;}
	.st5{fill:none;stroke:#374858;stroke-width:2;stroke-linejoin:round;stroke-miterlimit:10;}
	.st6{fill:none;stroke:#374858;stroke-width:3;stroke-linejoin:round;stroke-miterlimit:10;}
	.st7{fill:#FFFFFF;stroke:#374858;stroke-width:2;stroke-miterlimit:10;}
	.st8{fill:#FFFFFF;stroke:#374858;stroke-width:3;stroke-miterlimit:10;}
	.st9{fill:#F2F2F2;stroke:#FFFFFF;stroke-width:1.5;stroke-miterlimit:10;}
	.st10{fill:#F2F2F2;}
	.st11{fill:none;stroke:#EF7873;stroke-width:2;stroke-miterlimit:10;}
	.st12{fill:none;stroke:#EF7873;stroke-width:3;stroke-miterlimit:10;}
	.st13{opacity:0.5;}
	.st14{fill:none;stroke:#374858;stroke-width:2;stroke-linecap:round;stroke-linejoin:round;stroke-miterlimit:10;}
	.st15{fill:none;stroke:#374858;stroke-width:3;stroke-linecap:round;stroke-linejoin:round;stroke-miterlimit:10;}
	.st16{fill:none;stroke:#374858;stroke-width:2;stroke-linecap:round;stroke-miterlimit:10;}
	.st17{fill:none;stroke:#374858;stroke-width:3;stroke-linecap:round;stroke-miterlimit:10;}
</style>
<g>
	<circle class="st0" cx="28.1" cy="27.5" r="27"/>
	<g id="Twitter_3_">
		<path class="st1" d="M42,21.2c0,0.3,0,0.5,0,0.8c0,8.4-6.2,18-17.6,18C21,40,17.8,39,15,37.2c0.5,0.1,1,0.1,1.5,0.1
			c2.9,0,5.6-1,7.7-2.7c-2.7-0.1-5-1.9-5.8-4.4c0.4,0.1,0.8,0.1,1.2,0.1c0.6,0,0.6-0.1,1.1-0.2c-2.8-0.6-5.5-3.1-5.5-6.2v-0.1
			c1,0.5,2.3,0.8,3.3,0.8c-1.7-1.1-2.5-3.1-2.5-5.3c0-1.2,0.4-2.2,1-3.2c3,3.8,7.7,6.3,12.8,6.6c-0.1-0.5-0.1-0.9-0.1-1.4
			c0-3.5,2.8-6.3,6.2-6.3c1.8,0,3.4,0.8,4.5,2c1.4-0.3,2.7-0.8,3.9-1.5c-0.5,1.5-1.4,2.7-2.7,3.5c1.3-0.2,2.4-0.5,3.5-1
			C44.3,19.2,43.2,20.3,42,21.2z"/>
	</g>
</g>
</svg>
