<svg id="Ebene_1" xmlns="http://www.w3.org/2000/svg" viewBox="0 0 132 84"><style>.st0{fill:#374858}.st1{fill:#fff}.st2{fill:#ef7873}.st3{stroke:#374858;stroke-width:2}.st3,.st4,.st5{fill:none;stroke-miterlimit:10}.st4{stroke:#374858;stroke-width:3}.st5{stroke-width:2;stroke-linejoin:round}.st5,.st6,.st7{stroke:#374858}.st6{stroke-linejoin:round;stroke-miterlimit:10;fill:none;stroke-width:3}.st7{fill:#fff;stroke-width:2}.st7,.st8,.st9{stroke-miterlimit:10}.st8{fill:#fff;stroke:#374858;stroke-width:3}.st9{stroke:#fff;stroke-width:1.5}.st10,.st9{fill:#f2f2f2}.st11,.st12{fill:none;stroke:#ef7873;stroke-width:2;stroke-miterlimit:10}.st12{stroke-width:3}.st13{opacity:.5}.st14{stroke-width:2;stroke-linejoin:round;stroke-miterlimit:10}.st14,.st15,.st16{fill:none;stroke:#374858;stroke-linecap:round}.st15{stroke-linejoin:round;stroke-miterlimit:10;stroke-width:3}.st16{stroke-width:2}.st16,.st17,.st18{stroke-miterlimit:10}.st17{stroke-width:3;stroke-linecap:round;fill:none;stroke:#374858}.st18{fill:#fff;stroke:#ccc}.st19{fill:#0097d9}.st20{fill:#e40520}.st21{fill:#06326e}.st22{fill:#306fc5}.st23{fill:#265697}.st24{fill:#005098}.st25{fill:#f6a500}.st26{fill:#fab31e}.st27{fill:#fc0}.st28{fill:#d2002e}.st29{fill:#fecc00}.st30{fill:#d50029}</style><path class="st18" d="M122.2 2.4H9.8c-4.1 0-7.5 3.4-7.5 7.5v64.2c0 4.1 3.4 7.5 7.5 7.5h112.5c4.1 0 7.5-3.4 7.5-7.5V9.9c-.1-4.1-3.4-7.5-7.6-7.5z"/><path class="st24" d="M49.6 57.9L55 26.3 63.6 26.3 58.2 57.9z"/><path class="st24" d="M89.5 27c-1.7-.6-4.4-1.3-7.7-1.3-8.5 0-14.5 4.3-14.6 10.4 0 4.5 4.3 7.1 7.6 8.6 3.4 1.6 4.5 2.5 4.5 3.9 0 2.1-2.7 3.1-5.2 3.1-3.4 0-5.3-.5-8.1-1.7l-1.1-.5-1.2 7.1c2 .9 5.7 1.6 9.6 1.7 9.1 0 14.9-4.2 15-10.8 0-3.6-2.3-6.3-7.2-8.6-3-1.5-4.9-2.4-4.8-3.9 0-1.3 1.6-2.7 4.9-2.7 2.8 0 4.9.6 6.5 1.2l.8.4 1-6.9zm22.1-.7h-6.7c-2.1 0-3.6.6-4.5 2.6l-12.8 29h9.1s1.5-3.9 1.8-4.8h11c.3 1.1 1 4.7 1 4.7h8l-6.9-31.5zM101 46.7c.7-1.8 3.4-8.8 3.4-8.8 0 .1.7-1.8 1.1-3l.6 2.7s1.7 7.6 2 9.1H101zM42.3 26.3l-8.4 21.6-.9-4.4c-1.6-5.1-6.5-10.5-11.9-13.3l7.7 27.7h9.1l13.6-31.6h-9.2z"/><path class="st25" d="M26.1 26.3H12.2l-.1.7c10.8 2.6 18 8.9 20.9 16.6l-3-14.5c-.5-2.2-2.1-2.8-3.9-2.8z"/></svg>