<svg id="Ebene_1" data-name="Ebene 1" xmlns="http://www.w3.org/2000/svg" viewBox="0 0 56 56"><defs><style>.cls-1{fill:#374858}.cls-2{fill-rule:evenodd;opacity:.12}.cls-3{fill:#fff}</style></defs><title>_</title><circle class="cls-1" cx="28" cy="28" r="27"/><path id="The_Sharpness" data-name="The Sharpness" class="cls-2" d="M24.8 23.31l7.35 4.9 1-.53z"/><path class="cls-3" d="M43.19 21.8A6.71 6.71 0 0 0 42 18.73a4.43 4.43 0 0 0-3.11-1.31C34.51 17.1 28 17.1 28 17.1s-6.51 0-10.84.31A4.43 4.43 0 0 0 14 18.73a6.7 6.7 0 0 0-1.23 3.08 46.88 46.88 0 0 0-.31 5v2.35a46.88 46.88 0 0 0 .31 5 6.7 6.7 0 0 0 1.23 3.1 5.26 5.26 0 0 0 3.42 1.33c2.52.24 10.58.31 10.58.31s6.51 0 10.85-.32A4.43 4.43 0 0 0 42 37.26a6.71 6.71 0 0 0 1.23-3.08 46.94 46.94 0 0 0 .31-5v-2.36a46.94 46.94 0 0 0-.35-5.02zM24.8 32v-8.69l8.38 4.37z" id="Lozenge"/></svg>